%TF.GenerationSoftware,KiCad,Pcbnew,8.0.6*%
%TF.CreationDate,2024-12-03T14:08:36-05:00*%
%TF.ProjectId,DDI,4444492e-6b69-4636-9164-5f7063625858,rev?*%
%TF.SameCoordinates,Original*%
%TF.FileFunction,Drillmap*%
%TF.FilePolarity,Positive*%
%FSLAX45Y45*%
G04 Gerber Fmt 4.5, Leading zero omitted, Abs format (unit mm)*
G04 Created by KiCad (PCBNEW 8.0.6) date 2024-12-03 14:08:36*
%MOMM*%
%LPD*%
G01*
G04 APERTURE LIST*
%ADD10C,0.100000*%
%ADD11C,0.200000*%
%ADD12C,0.110000*%
%ADD13C,0.119000*%
G04 APERTURE END LIST*
D10*
X14879032Y6693842D02*
X26662782Y6694292D01*
X24258138Y23031255D02*
X23796186Y23432893D01*
X24715338Y22624855D02*
X28680606Y19143608D01*
X17283675Y23031255D02*
X17745906Y23432893D01*
X16826475Y22624855D02*
X12861486Y19146148D01*
X12861486Y6695068D02*
X12861486Y19146148D01*
X26662782Y6903842D02*
G75*
G02*
X27102782Y6903842I220000J0D01*
G01*
X24258138Y22548655D02*
X24258138Y23031255D01*
X25349793Y8173842D02*
X16192021Y8173842D01*
X14879032Y6903842D02*
X14879032Y6693842D01*
X17745906Y23432893D02*
X23796186Y23432893D01*
X16192021Y20619842D02*
X25349792Y20619842D01*
X26662782Y6903842D02*
X26662782Y6694292D01*
X25349792Y20619842D02*
G75*
G02*
X26993902Y18975728I-2J-1644112D01*
G01*
X17283675Y22548655D02*
X17283675Y23031255D01*
X14439032Y6903842D02*
G75*
G02*
X14879032Y6903842I220000J0D01*
G01*
X12861486Y6695068D02*
X14439032Y6695068D01*
X14439032Y6903842D02*
X14439032Y6695068D01*
X24715338Y22548655D02*
X24715338Y22624855D01*
X26993907Y18975728D02*
X26993906Y9817957D01*
X16192021Y8173842D02*
G75*
G02*
X14547902Y9817956I-1J1644118D01*
G01*
X28680606Y6694292D02*
X27102782Y6694292D01*
X26993907Y9817957D02*
G75*
G02*
X25349793Y8173842I-1644114J-1D01*
G01*
X16826475Y22548655D02*
X16826475Y22624855D01*
X17283675Y22548655D02*
G75*
G02*
X16826475Y22548655I-228600J0D01*
G01*
X27102782Y6903842D02*
X27102782Y6694292D01*
X14547907Y9817956D02*
X14547907Y18975729D01*
X24715338Y22548655D02*
G75*
G02*
X24258138Y22548655I-228600J0D01*
G01*
X14547906Y18975729D02*
G75*
G02*
X16192021Y20619843I1644115J-1D01*
G01*
X28680606Y6694292D02*
X28680606Y19143608D01*
D11*
D10*
X13063640Y10767660D02*
X13103640Y10727660D01*
X13103640Y10767660D02*
X13063640Y10727660D01*
X13063640Y10331410D02*
X13103640Y10291410D01*
X13103640Y10331410D02*
X13063640Y10291410D01*
X13074430Y10924990D02*
X13114430Y10884990D01*
X13114430Y10924990D02*
X13074430Y10884990D01*
X13101340Y9785180D02*
X13141340Y9745180D01*
X13141340Y9785180D02*
X13101340Y9745180D01*
X13146940Y10491380D02*
X13186940Y10451380D01*
X13186940Y10491380D02*
X13146940Y10451380D01*
X13256420Y8922450D02*
X13296420Y8882450D01*
X13296420Y8922450D02*
X13256420Y8882450D01*
X13274450Y11135010D02*
X13314450Y11095010D01*
X13314450Y11135010D02*
X13274450Y11095010D01*
X13274450Y10791630D02*
X13314450Y10751630D01*
X13314450Y10791630D02*
X13274450Y10751630D01*
X13558293Y7418556D02*
X13598293Y7378556D01*
X13598293Y7418556D02*
X13558293Y7378556D01*
X13561293Y7314556D02*
X13601293Y7274556D01*
X13601293Y7314556D02*
X13561293Y7274556D01*
X13565293Y8641556D02*
X13605293Y8601556D01*
X13605293Y8641556D02*
X13565293Y8601556D01*
X13572610Y9850380D02*
X13612610Y9810380D01*
X13612610Y9850380D02*
X13572610Y9810380D01*
X13579293Y11095556D02*
X13619293Y11055556D01*
X13619293Y11095556D02*
X13579293Y11055556D01*
X13582293Y10975556D02*
X13622293Y10935556D01*
X13622293Y10975556D02*
X13582293Y10935556D01*
X13588293Y10750556D02*
X13628293Y10710556D01*
X13628293Y10750556D02*
X13588293Y10710556D01*
X13617410Y12540870D02*
X13657410Y12500870D01*
X13657410Y12540870D02*
X13617410Y12500870D01*
X13634690Y8922450D02*
X13674690Y8882450D01*
X13674690Y8922450D02*
X13634690Y8882450D01*
X13814440Y11127500D02*
X13854440Y11087500D01*
X13854440Y11127500D02*
X13814440Y11087500D01*
X13818360Y8450580D02*
X13858360Y8410580D01*
X13858360Y8450580D02*
X13818360Y8410580D01*
X13846950Y10997500D02*
X13886950Y10957500D01*
X13886950Y10997500D02*
X13846950Y10957500D01*
X13880080Y9805180D02*
X13920080Y9765180D01*
X13920080Y9805180D02*
X13880080Y9765180D01*
X13932640Y8450580D02*
X13972640Y8410580D01*
X13972640Y8450580D02*
X13932640Y8410580D01*
X14007410Y11484390D02*
X14047410Y11444390D01*
X14047410Y11484390D02*
X14007410Y11444390D01*
X14114550Y11192500D02*
X14154550Y11152500D01*
X14154550Y11192500D02*
X14114550Y11152500D01*
X14122810Y10737500D02*
X14162810Y10697500D01*
X14162810Y10737500D02*
X14122810Y10697500D01*
X14224760Y12492110D02*
X14264760Y12452110D01*
X14264760Y12492110D02*
X14224760Y12452110D01*
X14302990Y12611076D02*
X14342990Y12571076D01*
X14342990Y12611076D02*
X14302990Y12571076D01*
X14354470Y7921030D02*
X14394470Y7881030D01*
X14394470Y7921030D02*
X14354470Y7881030D01*
X14354470Y7637220D02*
X14394470Y7597220D01*
X14394470Y7637220D02*
X14354470Y7597220D01*
X14572730Y8620140D02*
X14612730Y8580140D01*
X14612730Y8620140D02*
X14572730Y8580140D01*
X14572730Y8232020D02*
X14612730Y8192020D01*
X14612730Y8232020D02*
X14572730Y8192020D01*
X14572730Y7564710D02*
X14612730Y7524710D01*
X14612730Y7564710D02*
X14572730Y7524710D01*
X14672730Y8161300D02*
X14712730Y8121300D01*
X14712730Y8161300D02*
X14672730Y8121300D01*
X14672730Y7848520D02*
X14712730Y7808520D01*
X14712730Y7848520D02*
X14672730Y7808520D01*
X14745240Y7504700D02*
X14785240Y7464700D01*
X14785240Y7504700D02*
X14745240Y7464700D01*
X14816190Y8296640D02*
X14856190Y8256640D01*
X14856190Y8296640D02*
X14816190Y8256640D01*
X15487390Y8199000D02*
X15527390Y8159000D01*
X15527390Y8199000D02*
X15487390Y8159000D01*
X15971690Y7147100D02*
X16011690Y7107100D01*
X16011690Y7147100D02*
X15971690Y7107100D01*
X15971690Y6918042D02*
X16011690Y6878042D01*
X16011690Y6918042D02*
X15971690Y6878042D01*
X16171410Y21283180D02*
X16211410Y21243180D01*
X16211410Y21283180D02*
X16171410Y21243180D01*
X17013100Y20875100D02*
X17053100Y20835100D01*
X17053100Y20875100D02*
X17013100Y20835100D01*
X18233790Y7207110D02*
X18273790Y7167110D01*
X18273790Y7207110D02*
X18233790Y7167110D01*
X18526310Y7637220D02*
X18566310Y7597220D01*
X18566310Y7637220D02*
X18526310Y7597220D01*
X18622480Y7389720D02*
X18662480Y7349720D01*
X18662480Y7389720D02*
X18622480Y7349720D01*
X18952590Y20906090D02*
X18992590Y20866090D01*
X18992590Y20906090D02*
X18952590Y20866090D01*
X19224570Y7101440D02*
X19264570Y7061440D01*
X19264570Y7101440D02*
X19224570Y7061440D01*
X19284800Y23150000D02*
X19324800Y23110000D01*
X19324800Y23150000D02*
X19284800Y23110000D01*
X19398893Y20810756D02*
X19438893Y20770756D01*
X19438893Y20810756D02*
X19398893Y20770756D01*
X19529550Y21104500D02*
X19569550Y21064500D01*
X19569550Y21104500D02*
X19529550Y21064500D01*
X19563000Y21672050D02*
X19603000Y21632050D01*
X19603000Y21672050D02*
X19563000Y21632050D01*
X19750490Y20845157D02*
X19790490Y20805157D01*
X19790490Y20845157D02*
X19750490Y20805157D01*
X19779640Y23169700D02*
X19819640Y23129700D01*
X19819640Y23169700D02*
X19779640Y23129700D01*
X19960510Y20831950D02*
X20000510Y20791950D01*
X20000510Y20831950D02*
X19960510Y20791950D01*
X20046140Y22839500D02*
X20086140Y22799500D01*
X20086140Y22839500D02*
X20046140Y22799500D01*
X20082560Y20739580D02*
X20122560Y20699580D01*
X20122560Y20739580D02*
X20082560Y20699580D01*
X20671020Y7131170D02*
X20711020Y7091170D01*
X20711020Y7131170D02*
X20671020Y7091170D01*
X20753300Y7055770D02*
X20793300Y7015770D01*
X20793300Y7055770D02*
X20753300Y7015770D01*
X21465270Y22801400D02*
X21505270Y22761400D01*
X21505270Y22801400D02*
X21465270Y22761400D01*
X22113910Y21192310D02*
X22153910Y21152310D01*
X22153910Y21192310D02*
X22113910Y21152310D01*
X22281793Y23020556D02*
X22321793Y22980556D01*
X22321793Y23020556D02*
X22281793Y22980556D01*
X22300290Y7131170D02*
X22340290Y7091170D01*
X22340290Y7131170D02*
X22300290Y7091170D01*
X22341570Y23284000D02*
X22381570Y23244000D01*
X22381570Y23284000D02*
X22341570Y23244000D01*
X22649090Y7706440D02*
X22689090Y7666440D01*
X22689090Y7706440D02*
X22649090Y7666440D01*
X22662793Y22410956D02*
X22702793Y22370956D01*
X22702793Y22410956D02*
X22662793Y22370956D01*
X22668793Y22880956D02*
X22708793Y22840956D01*
X22708793Y22880956D02*
X22668793Y22840956D01*
X22668821Y20823377D02*
X22708821Y20783377D01*
X22708821Y20823377D02*
X22668821Y20783377D01*
X23585800Y7398770D02*
X23625800Y7358770D01*
X23625800Y7398770D02*
X23585800Y7358770D01*
X23841200Y8088790D02*
X23881200Y8048790D01*
X23881200Y8088790D02*
X23841200Y8048790D01*
X23960950Y7398770D02*
X24000950Y7358770D01*
X24000950Y7398770D02*
X23960950Y7358770D01*
X24126623Y7095774D02*
X24166623Y7055774D01*
X24166623Y7095774D02*
X24126623Y7055774D01*
X24139293Y7860556D02*
X24179293Y7820556D01*
X24179293Y7860556D02*
X24139293Y7820556D01*
X24190998Y7172300D02*
X24230998Y7132300D01*
X24230998Y7172300D02*
X24190998Y7132300D01*
X24219293Y7905556D02*
X24259293Y7865556D01*
X24259293Y7905556D02*
X24219293Y7865556D01*
X24235990Y7272310D02*
X24275990Y7232310D01*
X24275990Y7272310D02*
X24235990Y7232310D01*
X24518720Y7096900D02*
X24558720Y7056900D01*
X24558720Y7096900D02*
X24518720Y7056900D01*
X24624810Y7609490D02*
X24664810Y7569490D01*
X24664810Y7609490D02*
X24624810Y7569490D01*
X24707390Y20846900D02*
X24747390Y20806900D01*
X24747390Y20846900D02*
X24707390Y20806900D01*
X25019293Y7930556D02*
X25059293Y7890556D01*
X25059293Y7930556D02*
X25019293Y7890556D01*
X25362293Y7787556D02*
X25402293Y7747556D01*
X25402293Y7787556D02*
X25362293Y7747556D01*
X25402320Y7243860D02*
X25442320Y7203860D01*
X25442320Y7243860D02*
X25402320Y7203860D01*
X25487293Y7787556D02*
X25527293Y7747556D01*
X25527293Y7787556D02*
X25487293Y7747556D01*
X25608460Y7325649D02*
X25648460Y7285649D01*
X25648460Y7325649D02*
X25608460Y7285649D01*
X25608460Y7069400D02*
X25648460Y7029400D01*
X25648460Y7069400D02*
X25608460Y7029400D01*
X25828880Y7370650D02*
X25868880Y7330650D01*
X25868880Y7370650D02*
X25828880Y7330650D01*
X25973900Y7536980D02*
X26013900Y7496980D01*
X26013900Y7536980D02*
X25973900Y7496980D01*
X26006250Y6996890D02*
X26046250Y6956890D01*
X26046250Y6996890D02*
X26006250Y6956890D01*
X26235860Y8161300D02*
X26275860Y8121300D01*
X26275860Y8161300D02*
X26235860Y8121300D01*
X26294540Y8055290D02*
X26334540Y8015290D01*
X26334540Y8055290D02*
X26294540Y8015290D01*
X26308370Y8344020D02*
X26348370Y8304020D01*
X26348370Y8344020D02*
X26308370Y8304020D01*
X26407510Y20495990D02*
X26447510Y20455990D01*
X26447510Y20495990D02*
X26407510Y20455990D01*
X26451293Y7664556D02*
X26491293Y7624556D01*
X26491293Y7664556D02*
X26451293Y7624556D01*
X26647300Y20295870D02*
X26687300Y20255870D01*
X26687300Y20295870D02*
X26647300Y20255870D01*
X26652293Y7718057D02*
X26692293Y7678057D01*
X26692293Y7718057D02*
X26652293Y7678057D01*
X26723293Y8079556D02*
X26763293Y8039556D01*
X26763293Y8079556D02*
X26723293Y8039556D01*
X26753250Y8834850D02*
X26793250Y8794850D01*
X26793250Y8834850D02*
X26753250Y8794850D01*
X26855110Y8464470D02*
X26895110Y8424470D01*
X26895110Y8464470D02*
X26855110Y8424470D01*
X26855110Y8088790D02*
X26895110Y8048790D01*
X26895110Y8088790D02*
X26855110Y8048790D01*
X26893622Y7848274D02*
X26933622Y7808274D01*
X26933622Y7848274D02*
X26893622Y7808274D01*
X26927620Y8609490D02*
X26967620Y8569490D01*
X26967620Y8609490D02*
X26927620Y8569490D01*
X26932000Y19778180D02*
X26972000Y19738180D01*
X26972000Y19778180D02*
X26932000Y19738180D01*
X27006410Y8691630D02*
X27046410Y8651630D01*
X27046410Y8691630D02*
X27006410Y8651630D01*
X27032010Y19515670D02*
X27072010Y19475670D01*
X27072010Y19515670D02*
X27032010Y19475670D01*
X27039293Y7823556D02*
X27079293Y7783556D01*
X27079293Y7823556D02*
X27039293Y7783556D01*
X27060057Y8173853D02*
X27100057Y8133853D01*
X27100057Y8173853D02*
X27060057Y8133853D01*
X27071330Y20388220D02*
X27111330Y20348220D01*
X27111330Y20388220D02*
X27071330Y20348220D01*
X27071330Y19775640D02*
X27111330Y19735640D01*
X27111330Y19775640D02*
X27071330Y19735640D01*
X27112400Y14463010D02*
X27152400Y14423010D01*
X27152400Y14463010D02*
X27112400Y14423010D01*
X27211293Y7505556D02*
X27251293Y7465556D01*
X27251293Y7505556D02*
X27211293Y7465556D01*
X27284920Y13367770D02*
X27324920Y13327770D01*
X27324920Y13367770D02*
X27284920Y13327770D01*
X27333750Y10061480D02*
X27373750Y10021480D01*
X27373750Y10061480D02*
X27333750Y10021480D01*
X27366840Y11720710D02*
X27406840Y11680710D01*
X27406840Y11720710D02*
X27366840Y11680710D01*
X27371450Y10709500D02*
X27411450Y10669500D01*
X27411450Y10709500D02*
X27371450Y10669500D01*
X27406260Y9305900D02*
X27446260Y9265900D01*
X27446260Y9305900D02*
X27406260Y9265900D01*
X27406260Y8512490D02*
X27446260Y8472490D01*
X27446260Y8512490D02*
X27406260Y8472490D01*
X27575293Y8530556D02*
X27615293Y8490556D01*
X27615293Y8530556D02*
X27575293Y8490556D01*
X28211550Y10896990D02*
X28251550Y10856990D01*
X28251550Y10896990D02*
X28211550Y10856990D01*
X28234110Y7350650D02*
X28274110Y7310650D01*
X28274110Y7350650D02*
X28234110Y7310650D01*
X28296967Y10961990D02*
X28336967Y10921990D01*
X28336967Y10961990D02*
X28296967Y10921990D01*
X28311560Y11928620D02*
X28351560Y11888620D01*
X28351560Y11928620D02*
X28311560Y11888620D01*
X28334120Y7305649D02*
X28374120Y7265649D01*
X28374120Y7305649D02*
X28334120Y7265649D01*
X28516840Y11928620D02*
X28556840Y11888620D01*
X28556840Y11928620D02*
X28516840Y11888620D01*
X13494527Y9919972D02*
G75*
G02*
X13418327Y9919972I-38100J0D01*
G01*
X13418327Y9919972D02*
G75*
G02*
X13494527Y9919972I38100J0D01*
G01*
X13497067Y16018512D02*
G75*
G02*
X13420867Y16018512I-38100J0D01*
G01*
X13420867Y16018512D02*
G75*
G02*
X13497067Y16018512I38100J0D01*
G01*
X13498019Y11949432D02*
G75*
G02*
X13421819Y11949432I-38100J0D01*
G01*
X13421819Y11949432D02*
G75*
G02*
X13498019Y11949432I38100J0D01*
G01*
X13499607Y18045432D02*
G75*
G02*
X13423407Y18045432I-38100J0D01*
G01*
X13423407Y18045432D02*
G75*
G02*
X13499607Y18045432I38100J0D01*
G01*
X13499607Y13983972D02*
G75*
G02*
X13423407Y13983972I-38100J0D01*
G01*
X13423407Y13983972D02*
G75*
G02*
X13499607Y13983972I38100J0D01*
G01*
X14034527Y9919972D02*
G75*
G02*
X13958327Y9919972I-38100J0D01*
G01*
X13958327Y9919972D02*
G75*
G02*
X14034527Y9919972I38100J0D01*
G01*
X14037067Y16018512D02*
G75*
G02*
X13960867Y16018512I-38100J0D01*
G01*
X13960867Y16018512D02*
G75*
G02*
X14037067Y16018512I38100J0D01*
G01*
X14038019Y11949432D02*
G75*
G02*
X13961819Y11949432I-38100J0D01*
G01*
X13961819Y11949432D02*
G75*
G02*
X14038019Y11949432I38100J0D01*
G01*
X14039607Y18045432D02*
G75*
G02*
X13963407Y18045432I-38100J0D01*
G01*
X13963407Y18045432D02*
G75*
G02*
X14039607Y18045432I38100J0D01*
G01*
X14039607Y13983972D02*
G75*
G02*
X13963407Y13983972I-38100J0D01*
G01*
X13963407Y13983972D02*
G75*
G02*
X14039607Y13983972I38100J0D01*
G01*
X16744887Y7801012D02*
G75*
G02*
X16668687Y7801012I-38100J0D01*
G01*
X16668687Y7801012D02*
G75*
G02*
X16744887Y7801012I38100J0D01*
G01*
X16744887Y7261012D02*
G75*
G02*
X16668687Y7261012I-38100J0D01*
G01*
X16668687Y7261012D02*
G75*
G02*
X16744887Y7261012I38100J0D01*
G01*
X16746157Y21534792D02*
G75*
G02*
X16669957Y21534792I-38100J0D01*
G01*
X16669957Y21534792D02*
G75*
G02*
X16746157Y21534792I38100J0D01*
G01*
X16746157Y20994792D02*
G75*
G02*
X16669957Y20994792I-38100J0D01*
G01*
X16669957Y20994792D02*
G75*
G02*
X16746157Y20994792I38100J0D01*
G01*
X18776887Y7801012D02*
G75*
G02*
X18700687Y7801012I-38100J0D01*
G01*
X18700687Y7801012D02*
G75*
G02*
X18776887Y7801012I38100J0D01*
G01*
X18776887Y7261012D02*
G75*
G02*
X18700687Y7261012I-38100J0D01*
G01*
X18700687Y7261012D02*
G75*
G02*
X18776887Y7261012I38100J0D01*
G01*
X18778157Y21534792D02*
G75*
G02*
X18701957Y21534792I-38100J0D01*
G01*
X18701957Y21534792D02*
G75*
G02*
X18778157Y21534792I38100J0D01*
G01*
X18778157Y20994792D02*
G75*
G02*
X18701957Y20994792I-38100J0D01*
G01*
X18701957Y20994792D02*
G75*
G02*
X18778157Y20994792I38100J0D01*
G01*
X20810157Y21534792D02*
G75*
G02*
X20733957Y21534792I-38100J0D01*
G01*
X20733957Y21534792D02*
G75*
G02*
X20810157Y21534792I38100J0D01*
G01*
X20810157Y20994792D02*
G75*
G02*
X20733957Y20994792I-38100J0D01*
G01*
X20733957Y20994792D02*
G75*
G02*
X20810157Y20994792I38100J0D01*
G01*
X20811427Y7801012D02*
G75*
G02*
X20735227Y7801012I-38100J0D01*
G01*
X20735227Y7801012D02*
G75*
G02*
X20811427Y7801012I38100J0D01*
G01*
X20811427Y7261012D02*
G75*
G02*
X20735227Y7261012I-38100J0D01*
G01*
X20735227Y7261012D02*
G75*
G02*
X20811427Y7261012I38100J0D01*
G01*
X22842157Y21534792D02*
G75*
G02*
X22765957Y21534792I-38100J0D01*
G01*
X22765957Y21534792D02*
G75*
G02*
X22842157Y21534792I38100J0D01*
G01*
X22842157Y20994792D02*
G75*
G02*
X22765957Y20994792I-38100J0D01*
G01*
X22765957Y20994792D02*
G75*
G02*
X22842157Y20994792I38100J0D01*
G01*
X22843427Y7801012D02*
G75*
G02*
X22767227Y7801012I-38100J0D01*
G01*
X22767227Y7801012D02*
G75*
G02*
X22843427Y7801012I38100J0D01*
G01*
X22843427Y7261012D02*
G75*
G02*
X22767227Y7261012I-38100J0D01*
G01*
X22767227Y7261012D02*
G75*
G02*
X22843427Y7261012I38100J0D01*
G01*
X24874157Y21534792D02*
G75*
G02*
X24797957Y21534792I-38100J0D01*
G01*
X24797957Y21534792D02*
G75*
G02*
X24874157Y21534792I38100J0D01*
G01*
X24874157Y20994792D02*
G75*
G02*
X24797957Y20994792I-38100J0D01*
G01*
X24797957Y20994792D02*
G75*
G02*
X24874157Y20994792I38100J0D01*
G01*
X24875427Y7801012D02*
G75*
G02*
X24799227Y7801012I-38100J0D01*
G01*
X24799227Y7801012D02*
G75*
G02*
X24875427Y7801012I38100J0D01*
G01*
X24875427Y7261012D02*
G75*
G02*
X24799227Y7261012I-38100J0D01*
G01*
X24799227Y7261012D02*
G75*
G02*
X24875427Y7261012I38100J0D01*
G01*
X27578407Y18048212D02*
G75*
G02*
X27502207Y18048212I-38100J0D01*
G01*
X27502207Y18048212D02*
G75*
G02*
X27578407Y18048212I38100J0D01*
G01*
X27580629Y16014942D02*
G75*
G02*
X27504429Y16014942I-38100J0D01*
G01*
X27504429Y16014942D02*
G75*
G02*
X27580629Y16014942I38100J0D01*
G01*
X27580629Y13985482D02*
G75*
G02*
X27504429Y13985482I-38100J0D01*
G01*
X27504429Y13985482D02*
G75*
G02*
X27580629Y13985482I38100J0D01*
G01*
X27580629Y11953242D02*
G75*
G02*
X27504429Y11953242I-38100J0D01*
G01*
X27504429Y11953242D02*
G75*
G02*
X27580629Y11953242I38100J0D01*
G01*
X27580629Y9921482D02*
G75*
G02*
X27504429Y9921482I-38100J0D01*
G01*
X27504429Y9921482D02*
G75*
G02*
X27580629Y9921482I38100J0D01*
G01*
X28118407Y18048212D02*
G75*
G02*
X28042207Y18048212I-38100J0D01*
G01*
X28042207Y18048212D02*
G75*
G02*
X28118407Y18048212I38100J0D01*
G01*
X28120629Y16014942D02*
G75*
G02*
X28044429Y16014942I-38100J0D01*
G01*
X28044429Y16014942D02*
G75*
G02*
X28120629Y16014942I38100J0D01*
G01*
X28120629Y13985482D02*
G75*
G02*
X28044429Y13985482I-38100J0D01*
G01*
X28044429Y13985482D02*
G75*
G02*
X28120629Y13985482I38100J0D01*
G01*
X28120629Y11953242D02*
G75*
G02*
X28044429Y11953242I-38100J0D01*
G01*
X28044429Y11953242D02*
G75*
G02*
X28120629Y11953242I38100J0D01*
G01*
X28120629Y9921482D02*
G75*
G02*
X28044429Y9921482I-38100J0D01*
G01*
X28044429Y9921482D02*
G75*
G02*
X28120629Y9921482I38100J0D01*
G01*
D12*
X13501427Y10299972D02*
X13501427Y10189972D01*
X13446427Y10244972D02*
X13556427Y10244972D01*
X13501427Y9649972D02*
X13501427Y9539972D01*
X13446427Y9594972D02*
X13556427Y9594972D01*
X13503967Y16398512D02*
X13503967Y16288512D01*
X13448967Y16343512D02*
X13558967Y16343512D01*
X13503967Y15748512D02*
X13503967Y15638512D01*
X13448967Y15693512D02*
X13558967Y15693512D01*
X13504919Y12329432D02*
X13504919Y12219432D01*
X13449919Y12274432D02*
X13559919Y12274432D01*
X13504919Y11679432D02*
X13504919Y11569432D01*
X13449919Y11624432D02*
X13559919Y11624432D01*
X13506507Y18425432D02*
X13506507Y18315432D01*
X13451507Y18370432D02*
X13561507Y18370432D01*
X13506507Y17775432D02*
X13506507Y17665432D01*
X13451507Y17720432D02*
X13561507Y17720432D01*
X13506507Y14363972D02*
X13506507Y14253972D01*
X13451507Y14308972D02*
X13561507Y14308972D01*
X13506507Y13713972D02*
X13506507Y13603972D01*
X13451507Y13658972D02*
X13561507Y13658972D01*
X13951427Y10299972D02*
X13951427Y10189972D01*
X13896427Y10244972D02*
X14006427Y10244972D01*
X13951427Y9649972D02*
X13951427Y9539972D01*
X13896427Y9594972D02*
X14006427Y9594972D01*
X13953967Y16398512D02*
X13953967Y16288512D01*
X13898967Y16343512D02*
X14008967Y16343512D01*
X13953967Y15748512D02*
X13953967Y15638512D01*
X13898967Y15693512D02*
X14008967Y15693512D01*
X13954919Y12329432D02*
X13954919Y12219432D01*
X13899919Y12274432D02*
X14009919Y12274432D01*
X13954919Y11679432D02*
X13954919Y11569432D01*
X13899919Y11624432D02*
X14009919Y11624432D01*
X13956507Y18425432D02*
X13956507Y18315432D01*
X13901507Y18370432D02*
X14011507Y18370432D01*
X13956507Y17775432D02*
X13956507Y17665432D01*
X13901507Y17720432D02*
X14011507Y17720432D01*
X13956507Y14363972D02*
X13956507Y14253972D01*
X13901507Y14308972D02*
X14011507Y14308972D01*
X13956507Y13713972D02*
X13956507Y13603972D01*
X13901507Y13658972D02*
X14011507Y13658972D01*
X16381787Y7811012D02*
X16381787Y7701012D01*
X16326787Y7756012D02*
X16436787Y7756012D01*
X16381787Y7361012D02*
X16381787Y7251012D01*
X16326787Y7306012D02*
X16436787Y7306012D01*
X16383057Y21544792D02*
X16383057Y21434792D01*
X16328057Y21489792D02*
X16438057Y21489792D01*
X16383057Y21094792D02*
X16383057Y20984792D01*
X16328057Y21039792D02*
X16438057Y21039792D01*
X17031787Y7811012D02*
X17031787Y7701012D01*
X16976787Y7756012D02*
X17086787Y7756012D01*
X17031787Y7361012D02*
X17031787Y7251012D01*
X16976787Y7306012D02*
X17086787Y7306012D01*
X17033057Y21544792D02*
X17033057Y21434792D01*
X16978057Y21489792D02*
X17088057Y21489792D01*
X17033057Y21094792D02*
X17033057Y20984792D01*
X16978057Y21039792D02*
X17088057Y21039792D01*
X18413787Y7811012D02*
X18413787Y7701012D01*
X18358787Y7756012D02*
X18468787Y7756012D01*
X18413787Y7361012D02*
X18413787Y7251012D01*
X18358787Y7306012D02*
X18468787Y7306012D01*
X18415057Y21544792D02*
X18415057Y21434792D01*
X18360057Y21489792D02*
X18470057Y21489792D01*
X18415057Y21094792D02*
X18415057Y20984792D01*
X18360057Y21039792D02*
X18470057Y21039792D01*
X19063787Y7811012D02*
X19063787Y7701012D01*
X19008787Y7756012D02*
X19118787Y7756012D01*
X19063787Y7361012D02*
X19063787Y7251012D01*
X19008787Y7306012D02*
X19118787Y7306012D01*
X19065057Y21544792D02*
X19065057Y21434792D01*
X19010057Y21489792D02*
X19120057Y21489792D01*
X19065057Y21094792D02*
X19065057Y20984792D01*
X19010057Y21039792D02*
X19120057Y21039792D01*
X20447057Y21544792D02*
X20447057Y21434792D01*
X20392057Y21489792D02*
X20502057Y21489792D01*
X20447057Y21094792D02*
X20447057Y20984792D01*
X20392057Y21039792D02*
X20502057Y21039792D01*
X20448327Y7811012D02*
X20448327Y7701012D01*
X20393327Y7756012D02*
X20503327Y7756012D01*
X20448327Y7361012D02*
X20448327Y7251012D01*
X20393327Y7306012D02*
X20503327Y7306012D01*
X21097057Y21544792D02*
X21097057Y21434792D01*
X21042057Y21489792D02*
X21152057Y21489792D01*
X21097057Y21094792D02*
X21097057Y20984792D01*
X21042057Y21039792D02*
X21152057Y21039792D01*
X21098327Y7811012D02*
X21098327Y7701012D01*
X21043327Y7756012D02*
X21153327Y7756012D01*
X21098327Y7361012D02*
X21098327Y7251012D01*
X21043327Y7306012D02*
X21153327Y7306012D01*
X22479057Y21544792D02*
X22479057Y21434792D01*
X22424057Y21489792D02*
X22534057Y21489792D01*
X22479057Y21094792D02*
X22479057Y20984792D01*
X22424057Y21039792D02*
X22534057Y21039792D01*
X22480327Y7811012D02*
X22480327Y7701012D01*
X22425327Y7756012D02*
X22535327Y7756012D01*
X22480327Y7361012D02*
X22480327Y7251012D01*
X22425327Y7306012D02*
X22535327Y7306012D01*
X23129057Y21544792D02*
X23129057Y21434792D01*
X23074057Y21489792D02*
X23184057Y21489792D01*
X23129057Y21094792D02*
X23129057Y20984792D01*
X23074057Y21039792D02*
X23184057Y21039792D01*
X23130327Y7811012D02*
X23130327Y7701012D01*
X23075327Y7756012D02*
X23185327Y7756012D01*
X23130327Y7361012D02*
X23130327Y7251012D01*
X23075327Y7306012D02*
X23185327Y7306012D01*
X24511057Y21544792D02*
X24511057Y21434792D01*
X24456057Y21489792D02*
X24566057Y21489792D01*
X24511057Y21094792D02*
X24511057Y20984792D01*
X24456057Y21039792D02*
X24566057Y21039792D01*
X24512327Y7811012D02*
X24512327Y7701012D01*
X24457327Y7756012D02*
X24567327Y7756012D01*
X24512327Y7361012D02*
X24512327Y7251012D01*
X24457327Y7306012D02*
X24567327Y7306012D01*
X25161057Y21544792D02*
X25161057Y21434792D01*
X25106057Y21489792D02*
X25216057Y21489792D01*
X25161057Y21094792D02*
X25161057Y20984792D01*
X25106057Y21039792D02*
X25216057Y21039792D01*
X25162327Y7811012D02*
X25162327Y7701012D01*
X25107327Y7756012D02*
X25217327Y7756012D01*
X25162327Y7361012D02*
X25162327Y7251012D01*
X25107327Y7306012D02*
X25217327Y7306012D01*
X27585307Y18428212D02*
X27585307Y18318212D01*
X27530307Y18373212D02*
X27640307Y18373212D01*
X27585307Y17778212D02*
X27585307Y17668212D01*
X27530307Y17723212D02*
X27640307Y17723212D01*
X27587529Y16394942D02*
X27587529Y16284942D01*
X27532529Y16339942D02*
X27642529Y16339942D01*
X27587529Y15744942D02*
X27587529Y15634942D01*
X27532529Y15689942D02*
X27642529Y15689942D01*
X27587529Y14365482D02*
X27587529Y14255482D01*
X27532529Y14310482D02*
X27642529Y14310482D01*
X27587529Y13715482D02*
X27587529Y13605482D01*
X27532529Y13660482D02*
X27642529Y13660482D01*
X27587529Y12333242D02*
X27587529Y12223242D01*
X27532529Y12278242D02*
X27642529Y12278242D01*
X27587529Y11683242D02*
X27587529Y11573242D01*
X27532529Y11628242D02*
X27642529Y11628242D01*
X27587529Y10301482D02*
X27587529Y10191482D01*
X27532529Y10246482D02*
X27642529Y10246482D01*
X27587529Y9651482D02*
X27587529Y9541482D01*
X27532529Y9596482D02*
X27642529Y9596482D01*
X28035307Y18428212D02*
X28035307Y18318212D01*
X27980307Y18373212D02*
X28090307Y18373212D01*
X28035307Y17778212D02*
X28035307Y17668212D01*
X27980307Y17723212D02*
X28090307Y17723212D01*
X28037529Y16394942D02*
X28037529Y16284942D01*
X27982529Y16339942D02*
X28092529Y16339942D01*
X28037529Y15744942D02*
X28037529Y15634942D01*
X27982529Y15689942D02*
X28092529Y15689942D01*
X28037529Y14365482D02*
X28037529Y14255482D01*
X27982529Y14310482D02*
X28092529Y14310482D01*
X28037529Y13715482D02*
X28037529Y13605482D01*
X27982529Y13660482D02*
X28092529Y13660482D01*
X28037529Y12333242D02*
X28037529Y12223242D01*
X27982529Y12278242D02*
X28092529Y12278242D01*
X28037529Y11683242D02*
X28037529Y11573242D01*
X27982529Y11628242D02*
X28092529Y11628242D01*
X28037529Y10301482D02*
X28037529Y10191482D01*
X27982529Y10246482D02*
X28092529Y10246482D01*
X28037529Y9651482D02*
X28037529Y9541482D01*
X27982529Y9596482D02*
X28092529Y9596482D01*
D13*
X22915366Y23212483D02*
X22915366Y23296630D01*
X22831219Y23296630D01*
X22831219Y23212483D01*
X22915366Y23212483D01*
X22915366Y22958483D02*
X22915366Y23042630D01*
X22831219Y23042630D01*
X22831219Y22958483D01*
X22915366Y22958483D01*
X22915366Y22704483D02*
X22915366Y22788630D01*
X22831219Y22788630D01*
X22831219Y22704483D01*
X22915366Y22704483D01*
X22915366Y22450483D02*
X22915366Y22534630D01*
X22831219Y22534630D01*
X22831219Y22450483D01*
X22915366Y22450483D01*
X22915366Y22196483D02*
X22915366Y22280630D01*
X22831219Y22280630D01*
X22831219Y22196483D01*
X22915366Y22196483D01*
X22915366Y21942483D02*
X22915366Y22026630D01*
X22831219Y22026630D01*
X22831219Y21942483D01*
X22915366Y21942483D01*
D11*
X13117263Y6377358D02*
X13117263Y6577358D01*
X13117263Y6577358D02*
X13164882Y6577358D01*
X13164882Y6577358D02*
X13193453Y6567835D01*
X13193453Y6567835D02*
X13212501Y6548787D01*
X13212501Y6548787D02*
X13222025Y6529739D01*
X13222025Y6529739D02*
X13231548Y6491644D01*
X13231548Y6491644D02*
X13231548Y6463073D01*
X13231548Y6463073D02*
X13222025Y6424978D01*
X13222025Y6424978D02*
X13212501Y6405930D01*
X13212501Y6405930D02*
X13193453Y6386882D01*
X13193453Y6386882D02*
X13164882Y6377358D01*
X13164882Y6377358D02*
X13117263Y6377358D01*
X13317263Y6377358D02*
X13317263Y6510692D01*
X13317263Y6472597D02*
X13326787Y6491644D01*
X13326787Y6491644D02*
X13336310Y6501168D01*
X13336310Y6501168D02*
X13355358Y6510692D01*
X13355358Y6510692D02*
X13374406Y6510692D01*
X13441072Y6377358D02*
X13441072Y6510692D01*
X13441072Y6577358D02*
X13431548Y6567835D01*
X13431548Y6567835D02*
X13441072Y6558311D01*
X13441072Y6558311D02*
X13450596Y6567835D01*
X13450596Y6567835D02*
X13441072Y6577358D01*
X13441072Y6577358D02*
X13441072Y6558311D01*
X13564882Y6377358D02*
X13545834Y6386882D01*
X13545834Y6386882D02*
X13536310Y6405930D01*
X13536310Y6405930D02*
X13536310Y6577358D01*
X13669644Y6377358D02*
X13650596Y6386882D01*
X13650596Y6386882D02*
X13641072Y6405930D01*
X13641072Y6405930D02*
X13641072Y6577358D01*
X13898215Y6377358D02*
X13898215Y6577358D01*
X13898215Y6577358D02*
X13964882Y6434501D01*
X13964882Y6434501D02*
X14031548Y6577358D01*
X14031548Y6577358D02*
X14031548Y6377358D01*
X14212501Y6377358D02*
X14212501Y6482120D01*
X14212501Y6482120D02*
X14202977Y6501168D01*
X14202977Y6501168D02*
X14183929Y6510692D01*
X14183929Y6510692D02*
X14145834Y6510692D01*
X14145834Y6510692D02*
X14126787Y6501168D01*
X14212501Y6386882D02*
X14193453Y6377358D01*
X14193453Y6377358D02*
X14145834Y6377358D01*
X14145834Y6377358D02*
X14126787Y6386882D01*
X14126787Y6386882D02*
X14117263Y6405930D01*
X14117263Y6405930D02*
X14117263Y6424978D01*
X14117263Y6424978D02*
X14126787Y6444025D01*
X14126787Y6444025D02*
X14145834Y6453549D01*
X14145834Y6453549D02*
X14193453Y6453549D01*
X14193453Y6453549D02*
X14212501Y6463073D01*
X14307739Y6510692D02*
X14307739Y6310692D01*
X14307739Y6501168D02*
X14326787Y6510692D01*
X14326787Y6510692D02*
X14364882Y6510692D01*
X14364882Y6510692D02*
X14383929Y6501168D01*
X14383929Y6501168D02*
X14393453Y6491644D01*
X14393453Y6491644D02*
X14402977Y6472597D01*
X14402977Y6472597D02*
X14402977Y6415454D01*
X14402977Y6415454D02*
X14393453Y6396406D01*
X14393453Y6396406D02*
X14383929Y6386882D01*
X14383929Y6386882D02*
X14364882Y6377358D01*
X14364882Y6377358D02*
X14326787Y6377358D01*
X14326787Y6377358D02*
X14307739Y6386882D01*
X14488691Y6396406D02*
X14498215Y6386882D01*
X14498215Y6386882D02*
X14488691Y6377358D01*
X14488691Y6377358D02*
X14479168Y6386882D01*
X14479168Y6386882D02*
X14488691Y6396406D01*
X14488691Y6396406D02*
X14488691Y6377358D01*
X14488691Y6501168D02*
X14498215Y6491644D01*
X14498215Y6491644D02*
X14488691Y6482120D01*
X14488691Y6482120D02*
X14479168Y6491644D01*
X14479168Y6491644D02*
X14488691Y6501168D01*
X14488691Y6501168D02*
X14488691Y6482120D01*
D10*
X12816486Y6068842D02*
X12856486Y6028842D01*
X12856486Y6068842D02*
X12816486Y6028842D01*
D11*
X13155358Y6157358D02*
X13174406Y6157358D01*
X13174406Y6157358D02*
X13193453Y6147835D01*
X13193453Y6147835D02*
X13202977Y6138311D01*
X13202977Y6138311D02*
X13212501Y6119263D01*
X13212501Y6119263D02*
X13222025Y6081168D01*
X13222025Y6081168D02*
X13222025Y6033549D01*
X13222025Y6033549D02*
X13212501Y5995454D01*
X13212501Y5995454D02*
X13202977Y5976406D01*
X13202977Y5976406D02*
X13193453Y5966882D01*
X13193453Y5966882D02*
X13174406Y5957358D01*
X13174406Y5957358D02*
X13155358Y5957358D01*
X13155358Y5957358D02*
X13136310Y5966882D01*
X13136310Y5966882D02*
X13126787Y5976406D01*
X13126787Y5976406D02*
X13117263Y5995454D01*
X13117263Y5995454D02*
X13107739Y6033549D01*
X13107739Y6033549D02*
X13107739Y6081168D01*
X13107739Y6081168D02*
X13117263Y6119263D01*
X13117263Y6119263D02*
X13126787Y6138311D01*
X13126787Y6138311D02*
X13136310Y6147835D01*
X13136310Y6147835D02*
X13155358Y6157358D01*
X13307739Y5976406D02*
X13317263Y5966882D01*
X13317263Y5966882D02*
X13307739Y5957358D01*
X13307739Y5957358D02*
X13298215Y5966882D01*
X13298215Y5966882D02*
X13307739Y5976406D01*
X13307739Y5976406D02*
X13307739Y5957358D01*
X13488691Y6090692D02*
X13488691Y5957358D01*
X13441072Y6166882D02*
X13393453Y6024025D01*
X13393453Y6024025D02*
X13517263Y6024025D01*
X13631548Y6157358D02*
X13650596Y6157358D01*
X13650596Y6157358D02*
X13669644Y6147835D01*
X13669644Y6147835D02*
X13679168Y6138311D01*
X13679168Y6138311D02*
X13688691Y6119263D01*
X13688691Y6119263D02*
X13698215Y6081168D01*
X13698215Y6081168D02*
X13698215Y6033549D01*
X13698215Y6033549D02*
X13688691Y5995454D01*
X13688691Y5995454D02*
X13679168Y5976406D01*
X13679168Y5976406D02*
X13669644Y5966882D01*
X13669644Y5966882D02*
X13650596Y5957358D01*
X13650596Y5957358D02*
X13631548Y5957358D01*
X13631548Y5957358D02*
X13612501Y5966882D01*
X13612501Y5966882D02*
X13602977Y5976406D01*
X13602977Y5976406D02*
X13593453Y5995454D01*
X13593453Y5995454D02*
X13583929Y6033549D01*
X13583929Y6033549D02*
X13583929Y6081168D01*
X13583929Y6081168D02*
X13593453Y6119263D01*
X13593453Y6119263D02*
X13602977Y6138311D01*
X13602977Y6138311D02*
X13612501Y6147835D01*
X13612501Y6147835D02*
X13631548Y6157358D01*
X13822025Y6157358D02*
X13841072Y6157358D01*
X13841072Y6157358D02*
X13860120Y6147835D01*
X13860120Y6147835D02*
X13869644Y6138311D01*
X13869644Y6138311D02*
X13879168Y6119263D01*
X13879168Y6119263D02*
X13888691Y6081168D01*
X13888691Y6081168D02*
X13888691Y6033549D01*
X13888691Y6033549D02*
X13879168Y5995454D01*
X13879168Y5995454D02*
X13869644Y5976406D01*
X13869644Y5976406D02*
X13860120Y5966882D01*
X13860120Y5966882D02*
X13841072Y5957358D01*
X13841072Y5957358D02*
X13822025Y5957358D01*
X13822025Y5957358D02*
X13802977Y5966882D01*
X13802977Y5966882D02*
X13793453Y5976406D01*
X13793453Y5976406D02*
X13783929Y5995454D01*
X13783929Y5995454D02*
X13774406Y6033549D01*
X13774406Y6033549D02*
X13774406Y6081168D01*
X13774406Y6081168D02*
X13783929Y6119263D01*
X13783929Y6119263D02*
X13793453Y6138311D01*
X13793453Y6138311D02*
X13802977Y6147835D01*
X13802977Y6147835D02*
X13822025Y6157358D01*
X13974406Y5957358D02*
X13974406Y6090692D01*
X13974406Y6071644D02*
X13983929Y6081168D01*
X13983929Y6081168D02*
X14002977Y6090692D01*
X14002977Y6090692D02*
X14031549Y6090692D01*
X14031549Y6090692D02*
X14050596Y6081168D01*
X14050596Y6081168D02*
X14060120Y6062120D01*
X14060120Y6062120D02*
X14060120Y5957358D01*
X14060120Y6062120D02*
X14069644Y6081168D01*
X14069644Y6081168D02*
X14088691Y6090692D01*
X14088691Y6090692D02*
X14117263Y6090692D01*
X14117263Y6090692D02*
X14136310Y6081168D01*
X14136310Y6081168D02*
X14145834Y6062120D01*
X14145834Y6062120D02*
X14145834Y5957358D01*
X14241072Y5957358D02*
X14241072Y6090692D01*
X14241072Y6071644D02*
X14250596Y6081168D01*
X14250596Y6081168D02*
X14269644Y6090692D01*
X14269644Y6090692D02*
X14298215Y6090692D01*
X14298215Y6090692D02*
X14317263Y6081168D01*
X14317263Y6081168D02*
X14326787Y6062120D01*
X14326787Y6062120D02*
X14326787Y5957358D01*
X14326787Y6062120D02*
X14336310Y6081168D01*
X14336310Y6081168D02*
X14355358Y6090692D01*
X14355358Y6090692D02*
X14383929Y6090692D01*
X14383929Y6090692D02*
X14402977Y6081168D01*
X14402977Y6081168D02*
X14412501Y6062120D01*
X14412501Y6062120D02*
X14412501Y5957358D01*
X14802977Y6166882D02*
X14631549Y5909739D01*
X15060120Y6157358D02*
X15079168Y6157358D01*
X15079168Y6157358D02*
X15098215Y6147835D01*
X15098215Y6147835D02*
X15107739Y6138311D01*
X15107739Y6138311D02*
X15117263Y6119263D01*
X15117263Y6119263D02*
X15126787Y6081168D01*
X15126787Y6081168D02*
X15126787Y6033549D01*
X15126787Y6033549D02*
X15117263Y5995454D01*
X15117263Y5995454D02*
X15107739Y5976406D01*
X15107739Y5976406D02*
X15098215Y5966882D01*
X15098215Y5966882D02*
X15079168Y5957358D01*
X15079168Y5957358D02*
X15060120Y5957358D01*
X15060120Y5957358D02*
X15041072Y5966882D01*
X15041072Y5966882D02*
X15031549Y5976406D01*
X15031549Y5976406D02*
X15022025Y5995454D01*
X15022025Y5995454D02*
X15012501Y6033549D01*
X15012501Y6033549D02*
X15012501Y6081168D01*
X15012501Y6081168D02*
X15022025Y6119263D01*
X15022025Y6119263D02*
X15031549Y6138311D01*
X15031549Y6138311D02*
X15041072Y6147835D01*
X15041072Y6147835D02*
X15060120Y6157358D01*
X15212501Y5976406D02*
X15222025Y5966882D01*
X15222025Y5966882D02*
X15212501Y5957358D01*
X15212501Y5957358D02*
X15202977Y5966882D01*
X15202977Y5966882D02*
X15212501Y5976406D01*
X15212501Y5976406D02*
X15212501Y5957358D01*
X15345834Y6157358D02*
X15364882Y6157358D01*
X15364882Y6157358D02*
X15383930Y6147835D01*
X15383930Y6147835D02*
X15393453Y6138311D01*
X15393453Y6138311D02*
X15402977Y6119263D01*
X15402977Y6119263D02*
X15412501Y6081168D01*
X15412501Y6081168D02*
X15412501Y6033549D01*
X15412501Y6033549D02*
X15402977Y5995454D01*
X15402977Y5995454D02*
X15393453Y5976406D01*
X15393453Y5976406D02*
X15383930Y5966882D01*
X15383930Y5966882D02*
X15364882Y5957358D01*
X15364882Y5957358D02*
X15345834Y5957358D01*
X15345834Y5957358D02*
X15326787Y5966882D01*
X15326787Y5966882D02*
X15317263Y5976406D01*
X15317263Y5976406D02*
X15307739Y5995454D01*
X15307739Y5995454D02*
X15298215Y6033549D01*
X15298215Y6033549D02*
X15298215Y6081168D01*
X15298215Y6081168D02*
X15307739Y6119263D01*
X15307739Y6119263D02*
X15317263Y6138311D01*
X15317263Y6138311D02*
X15326787Y6147835D01*
X15326787Y6147835D02*
X15345834Y6157358D01*
X15602977Y5957358D02*
X15488692Y5957358D01*
X15545834Y5957358D02*
X15545834Y6157358D01*
X15545834Y6157358D02*
X15526787Y6128787D01*
X15526787Y6128787D02*
X15507739Y6109739D01*
X15507739Y6109739D02*
X15488692Y6100216D01*
X15783930Y6157358D02*
X15688692Y6157358D01*
X15688692Y6157358D02*
X15679168Y6062120D01*
X15679168Y6062120D02*
X15688692Y6071644D01*
X15688692Y6071644D02*
X15707739Y6081168D01*
X15707739Y6081168D02*
X15755358Y6081168D01*
X15755358Y6081168D02*
X15774406Y6071644D01*
X15774406Y6071644D02*
X15783930Y6062120D01*
X15783930Y6062120D02*
X15793453Y6043073D01*
X15793453Y6043073D02*
X15793453Y5995454D01*
X15793453Y5995454D02*
X15783930Y5976406D01*
X15783930Y5976406D02*
X15774406Y5966882D01*
X15774406Y5966882D02*
X15755358Y5957358D01*
X15755358Y5957358D02*
X15707739Y5957358D01*
X15707739Y5957358D02*
X15688692Y5966882D01*
X15688692Y5966882D02*
X15679168Y5976406D01*
X15860120Y6157358D02*
X15993453Y6157358D01*
X15993453Y6157358D02*
X15907739Y5957358D01*
X16060120Y6157358D02*
X16060120Y6119263D01*
X16136311Y6157358D02*
X16136311Y6119263D01*
X16431549Y5881168D02*
X16422025Y5890692D01*
X16422025Y5890692D02*
X16402977Y5919263D01*
X16402977Y5919263D02*
X16393454Y5938311D01*
X16393454Y5938311D02*
X16383930Y5966882D01*
X16383930Y5966882D02*
X16374406Y6014501D01*
X16374406Y6014501D02*
X16374406Y6052597D01*
X16374406Y6052597D02*
X16383930Y6100216D01*
X16383930Y6100216D02*
X16393454Y6128787D01*
X16393454Y6128787D02*
X16402977Y6147835D01*
X16402977Y6147835D02*
X16422025Y6176406D01*
X16422025Y6176406D02*
X16431549Y6185930D01*
X16612501Y5957358D02*
X16498215Y5957358D01*
X16555358Y5957358D02*
X16555358Y6157358D01*
X16555358Y6157358D02*
X16536311Y6128787D01*
X16536311Y6128787D02*
X16517263Y6109739D01*
X16517263Y6109739D02*
X16498215Y6100216D01*
X16688692Y6138311D02*
X16698215Y6147835D01*
X16698215Y6147835D02*
X16717263Y6157358D01*
X16717263Y6157358D02*
X16764882Y6157358D01*
X16764882Y6157358D02*
X16783930Y6147835D01*
X16783930Y6147835D02*
X16793454Y6138311D01*
X16793454Y6138311D02*
X16802977Y6119263D01*
X16802977Y6119263D02*
X16802977Y6100216D01*
X16802977Y6100216D02*
X16793454Y6071644D01*
X16793454Y6071644D02*
X16679168Y5957358D01*
X16679168Y5957358D02*
X16802977Y5957358D01*
X16993454Y5957358D02*
X16879168Y5957358D01*
X16936311Y5957358D02*
X16936311Y6157358D01*
X16936311Y6157358D02*
X16917263Y6128787D01*
X16917263Y6128787D02*
X16898216Y6109739D01*
X16898216Y6109739D02*
X16879168Y6100216D01*
X17231549Y5957358D02*
X17231549Y6157358D01*
X17317263Y5957358D02*
X17317263Y6062120D01*
X17317263Y6062120D02*
X17307739Y6081168D01*
X17307739Y6081168D02*
X17288692Y6090692D01*
X17288692Y6090692D02*
X17260120Y6090692D01*
X17260120Y6090692D02*
X17241073Y6081168D01*
X17241073Y6081168D02*
X17231549Y6071644D01*
X17441073Y5957358D02*
X17422025Y5966882D01*
X17422025Y5966882D02*
X17412501Y5976406D01*
X17412501Y5976406D02*
X17402978Y5995454D01*
X17402978Y5995454D02*
X17402978Y6052597D01*
X17402978Y6052597D02*
X17412501Y6071644D01*
X17412501Y6071644D02*
X17422025Y6081168D01*
X17422025Y6081168D02*
X17441073Y6090692D01*
X17441073Y6090692D02*
X17469644Y6090692D01*
X17469644Y6090692D02*
X17488692Y6081168D01*
X17488692Y6081168D02*
X17498216Y6071644D01*
X17498216Y6071644D02*
X17507739Y6052597D01*
X17507739Y6052597D02*
X17507739Y5995454D01*
X17507739Y5995454D02*
X17498216Y5976406D01*
X17498216Y5976406D02*
X17488692Y5966882D01*
X17488692Y5966882D02*
X17469644Y5957358D01*
X17469644Y5957358D02*
X17441073Y5957358D01*
X17622025Y5957358D02*
X17602978Y5966882D01*
X17602978Y5966882D02*
X17593454Y5985930D01*
X17593454Y5985930D02*
X17593454Y6157358D01*
X17774406Y5966882D02*
X17755359Y5957358D01*
X17755359Y5957358D02*
X17717263Y5957358D01*
X17717263Y5957358D02*
X17698216Y5966882D01*
X17698216Y5966882D02*
X17688692Y5985930D01*
X17688692Y5985930D02*
X17688692Y6062120D01*
X17688692Y6062120D02*
X17698216Y6081168D01*
X17698216Y6081168D02*
X17717263Y6090692D01*
X17717263Y6090692D02*
X17755359Y6090692D01*
X17755359Y6090692D02*
X17774406Y6081168D01*
X17774406Y6081168D02*
X17783930Y6062120D01*
X17783930Y6062120D02*
X17783930Y6043073D01*
X17783930Y6043073D02*
X17688692Y6024025D01*
X17860120Y5966882D02*
X17879168Y5957358D01*
X17879168Y5957358D02*
X17917263Y5957358D01*
X17917263Y5957358D02*
X17936311Y5966882D01*
X17936311Y5966882D02*
X17945835Y5985930D01*
X17945835Y5985930D02*
X17945835Y5995454D01*
X17945835Y5995454D02*
X17936311Y6014501D01*
X17936311Y6014501D02*
X17917263Y6024025D01*
X17917263Y6024025D02*
X17888692Y6024025D01*
X17888692Y6024025D02*
X17869644Y6033549D01*
X17869644Y6033549D02*
X17860120Y6052597D01*
X17860120Y6052597D02*
X17860120Y6062120D01*
X17860120Y6062120D02*
X17869644Y6081168D01*
X17869644Y6081168D02*
X17888692Y6090692D01*
X17888692Y6090692D02*
X17917263Y6090692D01*
X17917263Y6090692D02*
X17936311Y6081168D01*
X18012501Y5881168D02*
X18022025Y5890692D01*
X18022025Y5890692D02*
X18041073Y5919263D01*
X18041073Y5919263D02*
X18050597Y5938311D01*
X18050597Y5938311D02*
X18060120Y5966882D01*
X18060120Y5966882D02*
X18069644Y6014501D01*
X18069644Y6014501D02*
X18069644Y6052597D01*
X18069644Y6052597D02*
X18060120Y6100216D01*
X18060120Y6100216D02*
X18050597Y6128787D01*
X18050597Y6128787D02*
X18041073Y6147835D01*
X18041073Y6147835D02*
X18022025Y6176406D01*
X18022025Y6176406D02*
X18012501Y6185930D01*
D10*
X12856486Y5784842D02*
G75*
G02*
X12780286Y5784842I-38100J0D01*
G01*
X12780286Y5784842D02*
G75*
G02*
X12856486Y5784842I38100J0D01*
G01*
D11*
X13155358Y5893358D02*
X13174406Y5893358D01*
X13174406Y5893358D02*
X13193453Y5883835D01*
X13193453Y5883835D02*
X13202977Y5874311D01*
X13202977Y5874311D02*
X13212501Y5855263D01*
X13212501Y5855263D02*
X13222025Y5817168D01*
X13222025Y5817168D02*
X13222025Y5769549D01*
X13222025Y5769549D02*
X13212501Y5731454D01*
X13212501Y5731454D02*
X13202977Y5712406D01*
X13202977Y5712406D02*
X13193453Y5702882D01*
X13193453Y5702882D02*
X13174406Y5693358D01*
X13174406Y5693358D02*
X13155358Y5693358D01*
X13155358Y5693358D02*
X13136310Y5702882D01*
X13136310Y5702882D02*
X13126787Y5712406D01*
X13126787Y5712406D02*
X13117263Y5731454D01*
X13117263Y5731454D02*
X13107739Y5769549D01*
X13107739Y5769549D02*
X13107739Y5817168D01*
X13107739Y5817168D02*
X13117263Y5855263D01*
X13117263Y5855263D02*
X13126787Y5874311D01*
X13126787Y5874311D02*
X13136310Y5883835D01*
X13136310Y5883835D02*
X13155358Y5893358D01*
X13307739Y5712406D02*
X13317263Y5702882D01*
X13317263Y5702882D02*
X13307739Y5693358D01*
X13307739Y5693358D02*
X13298215Y5702882D01*
X13298215Y5702882D02*
X13307739Y5712406D01*
X13307739Y5712406D02*
X13307739Y5693358D01*
X13383929Y5893358D02*
X13517263Y5893358D01*
X13517263Y5893358D02*
X13431548Y5693358D01*
X13679168Y5893358D02*
X13641072Y5893358D01*
X13641072Y5893358D02*
X13622025Y5883835D01*
X13622025Y5883835D02*
X13612501Y5874311D01*
X13612501Y5874311D02*
X13593453Y5845739D01*
X13593453Y5845739D02*
X13583929Y5807644D01*
X13583929Y5807644D02*
X13583929Y5731454D01*
X13583929Y5731454D02*
X13593453Y5712406D01*
X13593453Y5712406D02*
X13602977Y5702882D01*
X13602977Y5702882D02*
X13622025Y5693358D01*
X13622025Y5693358D02*
X13660120Y5693358D01*
X13660120Y5693358D02*
X13679168Y5702882D01*
X13679168Y5702882D02*
X13688691Y5712406D01*
X13688691Y5712406D02*
X13698215Y5731454D01*
X13698215Y5731454D02*
X13698215Y5779073D01*
X13698215Y5779073D02*
X13688691Y5798120D01*
X13688691Y5798120D02*
X13679168Y5807644D01*
X13679168Y5807644D02*
X13660120Y5817168D01*
X13660120Y5817168D02*
X13622025Y5817168D01*
X13622025Y5817168D02*
X13602977Y5807644D01*
X13602977Y5807644D02*
X13593453Y5798120D01*
X13593453Y5798120D02*
X13583929Y5779073D01*
X13774406Y5874311D02*
X13783929Y5883835D01*
X13783929Y5883835D02*
X13802977Y5893358D01*
X13802977Y5893358D02*
X13850596Y5893358D01*
X13850596Y5893358D02*
X13869644Y5883835D01*
X13869644Y5883835D02*
X13879168Y5874311D01*
X13879168Y5874311D02*
X13888691Y5855263D01*
X13888691Y5855263D02*
X13888691Y5836216D01*
X13888691Y5836216D02*
X13879168Y5807644D01*
X13879168Y5807644D02*
X13764882Y5693358D01*
X13764882Y5693358D02*
X13888691Y5693358D01*
X13974406Y5693358D02*
X13974406Y5826692D01*
X13974406Y5807644D02*
X13983929Y5817168D01*
X13983929Y5817168D02*
X14002977Y5826692D01*
X14002977Y5826692D02*
X14031549Y5826692D01*
X14031549Y5826692D02*
X14050596Y5817168D01*
X14050596Y5817168D02*
X14060120Y5798120D01*
X14060120Y5798120D02*
X14060120Y5693358D01*
X14060120Y5798120D02*
X14069644Y5817168D01*
X14069644Y5817168D02*
X14088691Y5826692D01*
X14088691Y5826692D02*
X14117263Y5826692D01*
X14117263Y5826692D02*
X14136310Y5817168D01*
X14136310Y5817168D02*
X14145834Y5798120D01*
X14145834Y5798120D02*
X14145834Y5693358D01*
X14241072Y5693358D02*
X14241072Y5826692D01*
X14241072Y5807644D02*
X14250596Y5817168D01*
X14250596Y5817168D02*
X14269644Y5826692D01*
X14269644Y5826692D02*
X14298215Y5826692D01*
X14298215Y5826692D02*
X14317263Y5817168D01*
X14317263Y5817168D02*
X14326787Y5798120D01*
X14326787Y5798120D02*
X14326787Y5693358D01*
X14326787Y5798120D02*
X14336310Y5817168D01*
X14336310Y5817168D02*
X14355358Y5826692D01*
X14355358Y5826692D02*
X14383929Y5826692D01*
X14383929Y5826692D02*
X14402977Y5817168D01*
X14402977Y5817168D02*
X14412501Y5798120D01*
X14412501Y5798120D02*
X14412501Y5693358D01*
X14802977Y5902882D02*
X14631549Y5645739D01*
X15060120Y5893358D02*
X15079168Y5893358D01*
X15079168Y5893358D02*
X15098215Y5883835D01*
X15098215Y5883835D02*
X15107739Y5874311D01*
X15107739Y5874311D02*
X15117263Y5855263D01*
X15117263Y5855263D02*
X15126787Y5817168D01*
X15126787Y5817168D02*
X15126787Y5769549D01*
X15126787Y5769549D02*
X15117263Y5731454D01*
X15117263Y5731454D02*
X15107739Y5712406D01*
X15107739Y5712406D02*
X15098215Y5702882D01*
X15098215Y5702882D02*
X15079168Y5693358D01*
X15079168Y5693358D02*
X15060120Y5693358D01*
X15060120Y5693358D02*
X15041072Y5702882D01*
X15041072Y5702882D02*
X15031549Y5712406D01*
X15031549Y5712406D02*
X15022025Y5731454D01*
X15022025Y5731454D02*
X15012501Y5769549D01*
X15012501Y5769549D02*
X15012501Y5817168D01*
X15012501Y5817168D02*
X15022025Y5855263D01*
X15022025Y5855263D02*
X15031549Y5874311D01*
X15031549Y5874311D02*
X15041072Y5883835D01*
X15041072Y5883835D02*
X15060120Y5893358D01*
X15212501Y5712406D02*
X15222025Y5702882D01*
X15222025Y5702882D02*
X15212501Y5693358D01*
X15212501Y5693358D02*
X15202977Y5702882D01*
X15202977Y5702882D02*
X15212501Y5712406D01*
X15212501Y5712406D02*
X15212501Y5693358D01*
X15345834Y5893358D02*
X15364882Y5893358D01*
X15364882Y5893358D02*
X15383930Y5883835D01*
X15383930Y5883835D02*
X15393453Y5874311D01*
X15393453Y5874311D02*
X15402977Y5855263D01*
X15402977Y5855263D02*
X15412501Y5817168D01*
X15412501Y5817168D02*
X15412501Y5769549D01*
X15412501Y5769549D02*
X15402977Y5731454D01*
X15402977Y5731454D02*
X15393453Y5712406D01*
X15393453Y5712406D02*
X15383930Y5702882D01*
X15383930Y5702882D02*
X15364882Y5693358D01*
X15364882Y5693358D02*
X15345834Y5693358D01*
X15345834Y5693358D02*
X15326787Y5702882D01*
X15326787Y5702882D02*
X15317263Y5712406D01*
X15317263Y5712406D02*
X15307739Y5731454D01*
X15307739Y5731454D02*
X15298215Y5769549D01*
X15298215Y5769549D02*
X15298215Y5817168D01*
X15298215Y5817168D02*
X15307739Y5855263D01*
X15307739Y5855263D02*
X15317263Y5874311D01*
X15317263Y5874311D02*
X15326787Y5883835D01*
X15326787Y5883835D02*
X15345834Y5893358D01*
X15479168Y5893358D02*
X15602977Y5893358D01*
X15602977Y5893358D02*
X15536311Y5817168D01*
X15536311Y5817168D02*
X15564882Y5817168D01*
X15564882Y5817168D02*
X15583930Y5807644D01*
X15583930Y5807644D02*
X15593453Y5798120D01*
X15593453Y5798120D02*
X15602977Y5779073D01*
X15602977Y5779073D02*
X15602977Y5731454D01*
X15602977Y5731454D02*
X15593453Y5712406D01*
X15593453Y5712406D02*
X15583930Y5702882D01*
X15583930Y5702882D02*
X15564882Y5693358D01*
X15564882Y5693358D02*
X15507739Y5693358D01*
X15507739Y5693358D02*
X15488692Y5702882D01*
X15488692Y5702882D02*
X15479168Y5712406D01*
X15726787Y5893358D02*
X15745834Y5893358D01*
X15745834Y5893358D02*
X15764882Y5883835D01*
X15764882Y5883835D02*
X15774406Y5874311D01*
X15774406Y5874311D02*
X15783930Y5855263D01*
X15783930Y5855263D02*
X15793453Y5817168D01*
X15793453Y5817168D02*
X15793453Y5769549D01*
X15793453Y5769549D02*
X15783930Y5731454D01*
X15783930Y5731454D02*
X15774406Y5712406D01*
X15774406Y5712406D02*
X15764882Y5702882D01*
X15764882Y5702882D02*
X15745834Y5693358D01*
X15745834Y5693358D02*
X15726787Y5693358D01*
X15726787Y5693358D02*
X15707739Y5702882D01*
X15707739Y5702882D02*
X15698215Y5712406D01*
X15698215Y5712406D02*
X15688692Y5731454D01*
X15688692Y5731454D02*
X15679168Y5769549D01*
X15679168Y5769549D02*
X15679168Y5817168D01*
X15679168Y5817168D02*
X15688692Y5855263D01*
X15688692Y5855263D02*
X15698215Y5874311D01*
X15698215Y5874311D02*
X15707739Y5883835D01*
X15707739Y5883835D02*
X15726787Y5893358D01*
X15917263Y5893358D02*
X15936311Y5893358D01*
X15936311Y5893358D02*
X15955358Y5883835D01*
X15955358Y5883835D02*
X15964882Y5874311D01*
X15964882Y5874311D02*
X15974406Y5855263D01*
X15974406Y5855263D02*
X15983930Y5817168D01*
X15983930Y5817168D02*
X15983930Y5769549D01*
X15983930Y5769549D02*
X15974406Y5731454D01*
X15974406Y5731454D02*
X15964882Y5712406D01*
X15964882Y5712406D02*
X15955358Y5702882D01*
X15955358Y5702882D02*
X15936311Y5693358D01*
X15936311Y5693358D02*
X15917263Y5693358D01*
X15917263Y5693358D02*
X15898215Y5702882D01*
X15898215Y5702882D02*
X15888692Y5712406D01*
X15888692Y5712406D02*
X15879168Y5731454D01*
X15879168Y5731454D02*
X15869644Y5769549D01*
X15869644Y5769549D02*
X15869644Y5817168D01*
X15869644Y5817168D02*
X15879168Y5855263D01*
X15879168Y5855263D02*
X15888692Y5874311D01*
X15888692Y5874311D02*
X15898215Y5883835D01*
X15898215Y5883835D02*
X15917263Y5893358D01*
X16060120Y5893358D02*
X16060120Y5855263D01*
X16136311Y5893358D02*
X16136311Y5855263D01*
X16431549Y5617168D02*
X16422025Y5626692D01*
X16422025Y5626692D02*
X16402977Y5655263D01*
X16402977Y5655263D02*
X16393454Y5674311D01*
X16393454Y5674311D02*
X16383930Y5702882D01*
X16383930Y5702882D02*
X16374406Y5750501D01*
X16374406Y5750501D02*
X16374406Y5788597D01*
X16374406Y5788597D02*
X16383930Y5836216D01*
X16383930Y5836216D02*
X16393454Y5864787D01*
X16393454Y5864787D02*
X16402977Y5883835D01*
X16402977Y5883835D02*
X16422025Y5912406D01*
X16422025Y5912406D02*
X16431549Y5921930D01*
X16593454Y5826692D02*
X16593454Y5693358D01*
X16545834Y5902882D02*
X16498215Y5760025D01*
X16498215Y5760025D02*
X16622025Y5760025D01*
X16736311Y5893358D02*
X16755358Y5893358D01*
X16755358Y5893358D02*
X16774406Y5883835D01*
X16774406Y5883835D02*
X16783930Y5874311D01*
X16783930Y5874311D02*
X16793454Y5855263D01*
X16793454Y5855263D02*
X16802977Y5817168D01*
X16802977Y5817168D02*
X16802977Y5769549D01*
X16802977Y5769549D02*
X16793454Y5731454D01*
X16793454Y5731454D02*
X16783930Y5712406D01*
X16783930Y5712406D02*
X16774406Y5702882D01*
X16774406Y5702882D02*
X16755358Y5693358D01*
X16755358Y5693358D02*
X16736311Y5693358D01*
X16736311Y5693358D02*
X16717263Y5702882D01*
X16717263Y5702882D02*
X16707739Y5712406D01*
X16707739Y5712406D02*
X16698215Y5731454D01*
X16698215Y5731454D02*
X16688692Y5769549D01*
X16688692Y5769549D02*
X16688692Y5817168D01*
X16688692Y5817168D02*
X16698215Y5855263D01*
X16698215Y5855263D02*
X16707739Y5874311D01*
X16707739Y5874311D02*
X16717263Y5883835D01*
X16717263Y5883835D02*
X16736311Y5893358D01*
X17041073Y5693358D02*
X17041073Y5893358D01*
X17126787Y5693358D02*
X17126787Y5798120D01*
X17126787Y5798120D02*
X17117263Y5817168D01*
X17117263Y5817168D02*
X17098216Y5826692D01*
X17098216Y5826692D02*
X17069644Y5826692D01*
X17069644Y5826692D02*
X17050597Y5817168D01*
X17050597Y5817168D02*
X17041073Y5807644D01*
X17250597Y5693358D02*
X17231549Y5702882D01*
X17231549Y5702882D02*
X17222025Y5712406D01*
X17222025Y5712406D02*
X17212501Y5731454D01*
X17212501Y5731454D02*
X17212501Y5788597D01*
X17212501Y5788597D02*
X17222025Y5807644D01*
X17222025Y5807644D02*
X17231549Y5817168D01*
X17231549Y5817168D02*
X17250597Y5826692D01*
X17250597Y5826692D02*
X17279168Y5826692D01*
X17279168Y5826692D02*
X17298216Y5817168D01*
X17298216Y5817168D02*
X17307739Y5807644D01*
X17307739Y5807644D02*
X17317263Y5788597D01*
X17317263Y5788597D02*
X17317263Y5731454D01*
X17317263Y5731454D02*
X17307739Y5712406D01*
X17307739Y5712406D02*
X17298216Y5702882D01*
X17298216Y5702882D02*
X17279168Y5693358D01*
X17279168Y5693358D02*
X17250597Y5693358D01*
X17431549Y5693358D02*
X17412501Y5702882D01*
X17412501Y5702882D02*
X17402978Y5721930D01*
X17402978Y5721930D02*
X17402978Y5893358D01*
X17583930Y5702882D02*
X17564882Y5693358D01*
X17564882Y5693358D02*
X17526787Y5693358D01*
X17526787Y5693358D02*
X17507739Y5702882D01*
X17507739Y5702882D02*
X17498216Y5721930D01*
X17498216Y5721930D02*
X17498216Y5798120D01*
X17498216Y5798120D02*
X17507739Y5817168D01*
X17507739Y5817168D02*
X17526787Y5826692D01*
X17526787Y5826692D02*
X17564882Y5826692D01*
X17564882Y5826692D02*
X17583930Y5817168D01*
X17583930Y5817168D02*
X17593454Y5798120D01*
X17593454Y5798120D02*
X17593454Y5779073D01*
X17593454Y5779073D02*
X17498216Y5760025D01*
X17669644Y5702882D02*
X17688692Y5693358D01*
X17688692Y5693358D02*
X17726787Y5693358D01*
X17726787Y5693358D02*
X17745835Y5702882D01*
X17745835Y5702882D02*
X17755359Y5721930D01*
X17755359Y5721930D02*
X17755359Y5731454D01*
X17755359Y5731454D02*
X17745835Y5750501D01*
X17745835Y5750501D02*
X17726787Y5760025D01*
X17726787Y5760025D02*
X17698216Y5760025D01*
X17698216Y5760025D02*
X17679168Y5769549D01*
X17679168Y5769549D02*
X17669644Y5788597D01*
X17669644Y5788597D02*
X17669644Y5798120D01*
X17669644Y5798120D02*
X17679168Y5817168D01*
X17679168Y5817168D02*
X17698216Y5826692D01*
X17698216Y5826692D02*
X17726787Y5826692D01*
X17726787Y5826692D02*
X17745835Y5817168D01*
X17822025Y5617168D02*
X17831549Y5626692D01*
X17831549Y5626692D02*
X17850597Y5655263D01*
X17850597Y5655263D02*
X17860120Y5674311D01*
X17860120Y5674311D02*
X17869644Y5702882D01*
X17869644Y5702882D02*
X17879168Y5750501D01*
X17879168Y5750501D02*
X17879168Y5788597D01*
X17879168Y5788597D02*
X17869644Y5836216D01*
X17869644Y5836216D02*
X17860120Y5864787D01*
X17860120Y5864787D02*
X17850597Y5883835D01*
X17850597Y5883835D02*
X17831549Y5912406D01*
X17831549Y5912406D02*
X17822025Y5921930D01*
D12*
X12801486Y5575842D02*
X12801486Y5465842D01*
X12746486Y5520842D02*
X12856486Y5520842D01*
D11*
X13222025Y5429359D02*
X13107739Y5429359D01*
X13164882Y5429359D02*
X13164882Y5629358D01*
X13164882Y5629358D02*
X13145834Y5600787D01*
X13145834Y5600787D02*
X13126787Y5581740D01*
X13126787Y5581740D02*
X13107739Y5572216D01*
X13307739Y5448406D02*
X13317263Y5438882D01*
X13317263Y5438882D02*
X13307739Y5429359D01*
X13307739Y5429359D02*
X13298215Y5438882D01*
X13298215Y5438882D02*
X13307739Y5448406D01*
X13307739Y5448406D02*
X13307739Y5429359D01*
X13507739Y5429359D02*
X13393453Y5429359D01*
X13450596Y5429359D02*
X13450596Y5629358D01*
X13450596Y5629358D02*
X13431548Y5600787D01*
X13431548Y5600787D02*
X13412501Y5581740D01*
X13412501Y5581740D02*
X13393453Y5572216D01*
X13631548Y5629358D02*
X13650596Y5629358D01*
X13650596Y5629358D02*
X13669644Y5619835D01*
X13669644Y5619835D02*
X13679168Y5610311D01*
X13679168Y5610311D02*
X13688691Y5591263D01*
X13688691Y5591263D02*
X13698215Y5553168D01*
X13698215Y5553168D02*
X13698215Y5505549D01*
X13698215Y5505549D02*
X13688691Y5467454D01*
X13688691Y5467454D02*
X13679168Y5448406D01*
X13679168Y5448406D02*
X13669644Y5438882D01*
X13669644Y5438882D02*
X13650596Y5429359D01*
X13650596Y5429359D02*
X13631548Y5429359D01*
X13631548Y5429359D02*
X13612501Y5438882D01*
X13612501Y5438882D02*
X13602977Y5448406D01*
X13602977Y5448406D02*
X13593453Y5467454D01*
X13593453Y5467454D02*
X13583929Y5505549D01*
X13583929Y5505549D02*
X13583929Y5553168D01*
X13583929Y5553168D02*
X13593453Y5591263D01*
X13593453Y5591263D02*
X13602977Y5610311D01*
X13602977Y5610311D02*
X13612501Y5619835D01*
X13612501Y5619835D02*
X13631548Y5629358D01*
X13822025Y5629358D02*
X13841072Y5629358D01*
X13841072Y5629358D02*
X13860120Y5619835D01*
X13860120Y5619835D02*
X13869644Y5610311D01*
X13869644Y5610311D02*
X13879168Y5591263D01*
X13879168Y5591263D02*
X13888691Y5553168D01*
X13888691Y5553168D02*
X13888691Y5505549D01*
X13888691Y5505549D02*
X13879168Y5467454D01*
X13879168Y5467454D02*
X13869644Y5448406D01*
X13869644Y5448406D02*
X13860120Y5438882D01*
X13860120Y5438882D02*
X13841072Y5429359D01*
X13841072Y5429359D02*
X13822025Y5429359D01*
X13822025Y5429359D02*
X13802977Y5438882D01*
X13802977Y5438882D02*
X13793453Y5448406D01*
X13793453Y5448406D02*
X13783929Y5467454D01*
X13783929Y5467454D02*
X13774406Y5505549D01*
X13774406Y5505549D02*
X13774406Y5553168D01*
X13774406Y5553168D02*
X13783929Y5591263D01*
X13783929Y5591263D02*
X13793453Y5610311D01*
X13793453Y5610311D02*
X13802977Y5619835D01*
X13802977Y5619835D02*
X13822025Y5629358D01*
X13974406Y5429359D02*
X13974406Y5562692D01*
X13974406Y5543644D02*
X13983929Y5553168D01*
X13983929Y5553168D02*
X14002977Y5562692D01*
X14002977Y5562692D02*
X14031549Y5562692D01*
X14031549Y5562692D02*
X14050596Y5553168D01*
X14050596Y5553168D02*
X14060120Y5534120D01*
X14060120Y5534120D02*
X14060120Y5429359D01*
X14060120Y5534120D02*
X14069644Y5553168D01*
X14069644Y5553168D02*
X14088691Y5562692D01*
X14088691Y5562692D02*
X14117263Y5562692D01*
X14117263Y5562692D02*
X14136310Y5553168D01*
X14136310Y5553168D02*
X14145834Y5534120D01*
X14145834Y5534120D02*
X14145834Y5429359D01*
X14241072Y5429359D02*
X14241072Y5562692D01*
X14241072Y5543644D02*
X14250596Y5553168D01*
X14250596Y5553168D02*
X14269644Y5562692D01*
X14269644Y5562692D02*
X14298215Y5562692D01*
X14298215Y5562692D02*
X14317263Y5553168D01*
X14317263Y5553168D02*
X14326787Y5534120D01*
X14326787Y5534120D02*
X14326787Y5429359D01*
X14326787Y5534120D02*
X14336310Y5553168D01*
X14336310Y5553168D02*
X14355358Y5562692D01*
X14355358Y5562692D02*
X14383929Y5562692D01*
X14383929Y5562692D02*
X14402977Y5553168D01*
X14402977Y5553168D02*
X14412501Y5534120D01*
X14412501Y5534120D02*
X14412501Y5429359D01*
X14802977Y5638882D02*
X14631549Y5381740D01*
X15060120Y5629358D02*
X15079168Y5629358D01*
X15079168Y5629358D02*
X15098215Y5619835D01*
X15098215Y5619835D02*
X15107739Y5610311D01*
X15107739Y5610311D02*
X15117263Y5591263D01*
X15117263Y5591263D02*
X15126787Y5553168D01*
X15126787Y5553168D02*
X15126787Y5505549D01*
X15126787Y5505549D02*
X15117263Y5467454D01*
X15117263Y5467454D02*
X15107739Y5448406D01*
X15107739Y5448406D02*
X15098215Y5438882D01*
X15098215Y5438882D02*
X15079168Y5429359D01*
X15079168Y5429359D02*
X15060120Y5429359D01*
X15060120Y5429359D02*
X15041072Y5438882D01*
X15041072Y5438882D02*
X15031549Y5448406D01*
X15031549Y5448406D02*
X15022025Y5467454D01*
X15022025Y5467454D02*
X15012501Y5505549D01*
X15012501Y5505549D02*
X15012501Y5553168D01*
X15012501Y5553168D02*
X15022025Y5591263D01*
X15022025Y5591263D02*
X15031549Y5610311D01*
X15031549Y5610311D02*
X15041072Y5619835D01*
X15041072Y5619835D02*
X15060120Y5629358D01*
X15212501Y5448406D02*
X15222025Y5438882D01*
X15222025Y5438882D02*
X15212501Y5429359D01*
X15212501Y5429359D02*
X15202977Y5438882D01*
X15202977Y5438882D02*
X15212501Y5448406D01*
X15212501Y5448406D02*
X15212501Y5429359D01*
X15345834Y5629358D02*
X15364882Y5629358D01*
X15364882Y5629358D02*
X15383930Y5619835D01*
X15383930Y5619835D02*
X15393453Y5610311D01*
X15393453Y5610311D02*
X15402977Y5591263D01*
X15402977Y5591263D02*
X15412501Y5553168D01*
X15412501Y5553168D02*
X15412501Y5505549D01*
X15412501Y5505549D02*
X15402977Y5467454D01*
X15402977Y5467454D02*
X15393453Y5448406D01*
X15393453Y5448406D02*
X15383930Y5438882D01*
X15383930Y5438882D02*
X15364882Y5429359D01*
X15364882Y5429359D02*
X15345834Y5429359D01*
X15345834Y5429359D02*
X15326787Y5438882D01*
X15326787Y5438882D02*
X15317263Y5448406D01*
X15317263Y5448406D02*
X15307739Y5467454D01*
X15307739Y5467454D02*
X15298215Y5505549D01*
X15298215Y5505549D02*
X15298215Y5553168D01*
X15298215Y5553168D02*
X15307739Y5591263D01*
X15307739Y5591263D02*
X15317263Y5610311D01*
X15317263Y5610311D02*
X15326787Y5619835D01*
X15326787Y5619835D02*
X15345834Y5629358D01*
X15583930Y5562692D02*
X15583930Y5429359D01*
X15536311Y5638882D02*
X15488692Y5496025D01*
X15488692Y5496025D02*
X15612501Y5496025D01*
X15669644Y5629358D02*
X15793453Y5629358D01*
X15793453Y5629358D02*
X15726787Y5553168D01*
X15726787Y5553168D02*
X15755358Y5553168D01*
X15755358Y5553168D02*
X15774406Y5543644D01*
X15774406Y5543644D02*
X15783930Y5534120D01*
X15783930Y5534120D02*
X15793453Y5515073D01*
X15793453Y5515073D02*
X15793453Y5467454D01*
X15793453Y5467454D02*
X15783930Y5448406D01*
X15783930Y5448406D02*
X15774406Y5438882D01*
X15774406Y5438882D02*
X15755358Y5429359D01*
X15755358Y5429359D02*
X15698215Y5429359D01*
X15698215Y5429359D02*
X15679168Y5438882D01*
X15679168Y5438882D02*
X15669644Y5448406D01*
X15860120Y5629358D02*
X15983930Y5629358D01*
X15983930Y5629358D02*
X15917263Y5553168D01*
X15917263Y5553168D02*
X15945834Y5553168D01*
X15945834Y5553168D02*
X15964882Y5543644D01*
X15964882Y5543644D02*
X15974406Y5534120D01*
X15974406Y5534120D02*
X15983930Y5515073D01*
X15983930Y5515073D02*
X15983930Y5467454D01*
X15983930Y5467454D02*
X15974406Y5448406D01*
X15974406Y5448406D02*
X15964882Y5438882D01*
X15964882Y5438882D02*
X15945834Y5429359D01*
X15945834Y5429359D02*
X15888692Y5429359D01*
X15888692Y5429359D02*
X15869644Y5438882D01*
X15869644Y5438882D02*
X15860120Y5448406D01*
X16060120Y5629358D02*
X16060120Y5591263D01*
X16136311Y5629358D02*
X16136311Y5591263D01*
X16431549Y5353168D02*
X16422025Y5362692D01*
X16422025Y5362692D02*
X16402977Y5391263D01*
X16402977Y5391263D02*
X16393454Y5410311D01*
X16393454Y5410311D02*
X16383930Y5438882D01*
X16383930Y5438882D02*
X16374406Y5486501D01*
X16374406Y5486501D02*
X16374406Y5524597D01*
X16374406Y5524597D02*
X16383930Y5572216D01*
X16383930Y5572216D02*
X16393454Y5600787D01*
X16393454Y5600787D02*
X16402977Y5619835D01*
X16402977Y5619835D02*
X16422025Y5648406D01*
X16422025Y5648406D02*
X16431549Y5657930D01*
X16536311Y5543644D02*
X16517263Y5553168D01*
X16517263Y5553168D02*
X16507739Y5562692D01*
X16507739Y5562692D02*
X16498215Y5581740D01*
X16498215Y5581740D02*
X16498215Y5591263D01*
X16498215Y5591263D02*
X16507739Y5610311D01*
X16507739Y5610311D02*
X16517263Y5619835D01*
X16517263Y5619835D02*
X16536311Y5629358D01*
X16536311Y5629358D02*
X16574406Y5629358D01*
X16574406Y5629358D02*
X16593454Y5619835D01*
X16593454Y5619835D02*
X16602977Y5610311D01*
X16602977Y5610311D02*
X16612501Y5591263D01*
X16612501Y5591263D02*
X16612501Y5581740D01*
X16612501Y5581740D02*
X16602977Y5562692D01*
X16602977Y5562692D02*
X16593454Y5553168D01*
X16593454Y5553168D02*
X16574406Y5543644D01*
X16574406Y5543644D02*
X16536311Y5543644D01*
X16536311Y5543644D02*
X16517263Y5534120D01*
X16517263Y5534120D02*
X16507739Y5524597D01*
X16507739Y5524597D02*
X16498215Y5505549D01*
X16498215Y5505549D02*
X16498215Y5467454D01*
X16498215Y5467454D02*
X16507739Y5448406D01*
X16507739Y5448406D02*
X16517263Y5438882D01*
X16517263Y5438882D02*
X16536311Y5429359D01*
X16536311Y5429359D02*
X16574406Y5429359D01*
X16574406Y5429359D02*
X16593454Y5438882D01*
X16593454Y5438882D02*
X16602977Y5448406D01*
X16602977Y5448406D02*
X16612501Y5467454D01*
X16612501Y5467454D02*
X16612501Y5505549D01*
X16612501Y5505549D02*
X16602977Y5524597D01*
X16602977Y5524597D02*
X16593454Y5534120D01*
X16593454Y5534120D02*
X16574406Y5543644D01*
X16736311Y5629358D02*
X16755358Y5629358D01*
X16755358Y5629358D02*
X16774406Y5619835D01*
X16774406Y5619835D02*
X16783930Y5610311D01*
X16783930Y5610311D02*
X16793454Y5591263D01*
X16793454Y5591263D02*
X16802977Y5553168D01*
X16802977Y5553168D02*
X16802977Y5505549D01*
X16802977Y5505549D02*
X16793454Y5467454D01*
X16793454Y5467454D02*
X16783930Y5448406D01*
X16783930Y5448406D02*
X16774406Y5438882D01*
X16774406Y5438882D02*
X16755358Y5429359D01*
X16755358Y5429359D02*
X16736311Y5429359D01*
X16736311Y5429359D02*
X16717263Y5438882D01*
X16717263Y5438882D02*
X16707739Y5448406D01*
X16707739Y5448406D02*
X16698215Y5467454D01*
X16698215Y5467454D02*
X16688692Y5505549D01*
X16688692Y5505549D02*
X16688692Y5553168D01*
X16688692Y5553168D02*
X16698215Y5591263D01*
X16698215Y5591263D02*
X16707739Y5610311D01*
X16707739Y5610311D02*
X16717263Y5619835D01*
X16717263Y5619835D02*
X16736311Y5629358D01*
X17041073Y5429359D02*
X17041073Y5629358D01*
X17126787Y5429359D02*
X17126787Y5534120D01*
X17126787Y5534120D02*
X17117263Y5553168D01*
X17117263Y5553168D02*
X17098216Y5562692D01*
X17098216Y5562692D02*
X17069644Y5562692D01*
X17069644Y5562692D02*
X17050597Y5553168D01*
X17050597Y5553168D02*
X17041073Y5543644D01*
X17250597Y5429359D02*
X17231549Y5438882D01*
X17231549Y5438882D02*
X17222025Y5448406D01*
X17222025Y5448406D02*
X17212501Y5467454D01*
X17212501Y5467454D02*
X17212501Y5524597D01*
X17212501Y5524597D02*
X17222025Y5543644D01*
X17222025Y5543644D02*
X17231549Y5553168D01*
X17231549Y5553168D02*
X17250597Y5562692D01*
X17250597Y5562692D02*
X17279168Y5562692D01*
X17279168Y5562692D02*
X17298216Y5553168D01*
X17298216Y5553168D02*
X17307739Y5543644D01*
X17307739Y5543644D02*
X17317263Y5524597D01*
X17317263Y5524597D02*
X17317263Y5467454D01*
X17317263Y5467454D02*
X17307739Y5448406D01*
X17307739Y5448406D02*
X17298216Y5438882D01*
X17298216Y5438882D02*
X17279168Y5429359D01*
X17279168Y5429359D02*
X17250597Y5429359D01*
X17431549Y5429359D02*
X17412501Y5438882D01*
X17412501Y5438882D02*
X17402978Y5457930D01*
X17402978Y5457930D02*
X17402978Y5629358D01*
X17583930Y5438882D02*
X17564882Y5429359D01*
X17564882Y5429359D02*
X17526787Y5429359D01*
X17526787Y5429359D02*
X17507739Y5438882D01*
X17507739Y5438882D02*
X17498216Y5457930D01*
X17498216Y5457930D02*
X17498216Y5534120D01*
X17498216Y5534120D02*
X17507739Y5553168D01*
X17507739Y5553168D02*
X17526787Y5562692D01*
X17526787Y5562692D02*
X17564882Y5562692D01*
X17564882Y5562692D02*
X17583930Y5553168D01*
X17583930Y5553168D02*
X17593454Y5534120D01*
X17593454Y5534120D02*
X17593454Y5515073D01*
X17593454Y5515073D02*
X17498216Y5496025D01*
X17669644Y5438882D02*
X17688692Y5429359D01*
X17688692Y5429359D02*
X17726787Y5429359D01*
X17726787Y5429359D02*
X17745835Y5438882D01*
X17745835Y5438882D02*
X17755359Y5457930D01*
X17755359Y5457930D02*
X17755359Y5467454D01*
X17755359Y5467454D02*
X17745835Y5486501D01*
X17745835Y5486501D02*
X17726787Y5496025D01*
X17726787Y5496025D02*
X17698216Y5496025D01*
X17698216Y5496025D02*
X17679168Y5505549D01*
X17679168Y5505549D02*
X17669644Y5524597D01*
X17669644Y5524597D02*
X17669644Y5534120D01*
X17669644Y5534120D02*
X17679168Y5553168D01*
X17679168Y5553168D02*
X17698216Y5562692D01*
X17698216Y5562692D02*
X17726787Y5562692D01*
X17726787Y5562692D02*
X17745835Y5553168D01*
X17822025Y5353168D02*
X17831549Y5362692D01*
X17831549Y5362692D02*
X17850597Y5391263D01*
X17850597Y5391263D02*
X17860120Y5410311D01*
X17860120Y5410311D02*
X17869644Y5438882D01*
X17869644Y5438882D02*
X17879168Y5486501D01*
X17879168Y5486501D02*
X17879168Y5524597D01*
X17879168Y5524597D02*
X17869644Y5572216D01*
X17869644Y5572216D02*
X17860120Y5600787D01*
X17860120Y5600787D02*
X17850597Y5619835D01*
X17850597Y5619835D02*
X17831549Y5648406D01*
X17831549Y5648406D02*
X17822025Y5657930D01*
D13*
X12839059Y5214769D02*
X12839059Y5298916D01*
X12754913Y5298916D01*
X12754913Y5214769D01*
X12839059Y5214769D01*
D11*
X13222025Y5165359D02*
X13107739Y5165359D01*
X13164882Y5165359D02*
X13164882Y5365359D01*
X13164882Y5365359D02*
X13145834Y5336787D01*
X13145834Y5336787D02*
X13126787Y5317740D01*
X13126787Y5317740D02*
X13107739Y5308216D01*
X13307739Y5184406D02*
X13317263Y5174882D01*
X13317263Y5174882D02*
X13307739Y5165359D01*
X13307739Y5165359D02*
X13298215Y5174882D01*
X13298215Y5174882D02*
X13307739Y5184406D01*
X13307739Y5184406D02*
X13307739Y5165359D01*
X13507739Y5165359D02*
X13393453Y5165359D01*
X13450596Y5165359D02*
X13450596Y5365359D01*
X13450596Y5365359D02*
X13431548Y5336787D01*
X13431548Y5336787D02*
X13412501Y5317740D01*
X13412501Y5317740D02*
X13393453Y5308216D01*
X13602977Y5165359D02*
X13641072Y5165359D01*
X13641072Y5165359D02*
X13660120Y5174882D01*
X13660120Y5174882D02*
X13669644Y5184406D01*
X13669644Y5184406D02*
X13688691Y5212978D01*
X13688691Y5212978D02*
X13698215Y5251073D01*
X13698215Y5251073D02*
X13698215Y5327263D01*
X13698215Y5327263D02*
X13688691Y5346311D01*
X13688691Y5346311D02*
X13679168Y5355835D01*
X13679168Y5355835D02*
X13660120Y5365359D01*
X13660120Y5365359D02*
X13622025Y5365359D01*
X13622025Y5365359D02*
X13602977Y5355835D01*
X13602977Y5355835D02*
X13593453Y5346311D01*
X13593453Y5346311D02*
X13583929Y5327263D01*
X13583929Y5327263D02*
X13583929Y5279644D01*
X13583929Y5279644D02*
X13593453Y5260597D01*
X13593453Y5260597D02*
X13602977Y5251073D01*
X13602977Y5251073D02*
X13622025Y5241549D01*
X13622025Y5241549D02*
X13660120Y5241549D01*
X13660120Y5241549D02*
X13679168Y5251073D01*
X13679168Y5251073D02*
X13688691Y5260597D01*
X13688691Y5260597D02*
X13698215Y5279644D01*
X13822025Y5365359D02*
X13841072Y5365359D01*
X13841072Y5365359D02*
X13860120Y5355835D01*
X13860120Y5355835D02*
X13869644Y5346311D01*
X13869644Y5346311D02*
X13879168Y5327263D01*
X13879168Y5327263D02*
X13888691Y5289168D01*
X13888691Y5289168D02*
X13888691Y5241549D01*
X13888691Y5241549D02*
X13879168Y5203454D01*
X13879168Y5203454D02*
X13869644Y5184406D01*
X13869644Y5184406D02*
X13860120Y5174882D01*
X13860120Y5174882D02*
X13841072Y5165359D01*
X13841072Y5165359D02*
X13822025Y5165359D01*
X13822025Y5165359D02*
X13802977Y5174882D01*
X13802977Y5174882D02*
X13793453Y5184406D01*
X13793453Y5184406D02*
X13783929Y5203454D01*
X13783929Y5203454D02*
X13774406Y5241549D01*
X13774406Y5241549D02*
X13774406Y5289168D01*
X13774406Y5289168D02*
X13783929Y5327263D01*
X13783929Y5327263D02*
X13793453Y5346311D01*
X13793453Y5346311D02*
X13802977Y5355835D01*
X13802977Y5355835D02*
X13822025Y5365359D01*
X13974406Y5165359D02*
X13974406Y5298692D01*
X13974406Y5279644D02*
X13983929Y5289168D01*
X13983929Y5289168D02*
X14002977Y5298692D01*
X14002977Y5298692D02*
X14031549Y5298692D01*
X14031549Y5298692D02*
X14050596Y5289168D01*
X14050596Y5289168D02*
X14060120Y5270120D01*
X14060120Y5270120D02*
X14060120Y5165359D01*
X14060120Y5270120D02*
X14069644Y5289168D01*
X14069644Y5289168D02*
X14088691Y5298692D01*
X14088691Y5298692D02*
X14117263Y5298692D01*
X14117263Y5298692D02*
X14136310Y5289168D01*
X14136310Y5289168D02*
X14145834Y5270120D01*
X14145834Y5270120D02*
X14145834Y5165359D01*
X14241072Y5165359D02*
X14241072Y5298692D01*
X14241072Y5279644D02*
X14250596Y5289168D01*
X14250596Y5289168D02*
X14269644Y5298692D01*
X14269644Y5298692D02*
X14298215Y5298692D01*
X14298215Y5298692D02*
X14317263Y5289168D01*
X14317263Y5289168D02*
X14326787Y5270120D01*
X14326787Y5270120D02*
X14326787Y5165359D01*
X14326787Y5270120D02*
X14336310Y5289168D01*
X14336310Y5289168D02*
X14355358Y5298692D01*
X14355358Y5298692D02*
X14383929Y5298692D01*
X14383929Y5298692D02*
X14402977Y5289168D01*
X14402977Y5289168D02*
X14412501Y5270120D01*
X14412501Y5270120D02*
X14412501Y5165359D01*
X14802977Y5374882D02*
X14631549Y5117740D01*
X15060120Y5365359D02*
X15079168Y5365359D01*
X15079168Y5365359D02*
X15098215Y5355835D01*
X15098215Y5355835D02*
X15107739Y5346311D01*
X15107739Y5346311D02*
X15117263Y5327263D01*
X15117263Y5327263D02*
X15126787Y5289168D01*
X15126787Y5289168D02*
X15126787Y5241549D01*
X15126787Y5241549D02*
X15117263Y5203454D01*
X15117263Y5203454D02*
X15107739Y5184406D01*
X15107739Y5184406D02*
X15098215Y5174882D01*
X15098215Y5174882D02*
X15079168Y5165359D01*
X15079168Y5165359D02*
X15060120Y5165359D01*
X15060120Y5165359D02*
X15041072Y5174882D01*
X15041072Y5174882D02*
X15031549Y5184406D01*
X15031549Y5184406D02*
X15022025Y5203454D01*
X15022025Y5203454D02*
X15012501Y5241549D01*
X15012501Y5241549D02*
X15012501Y5289168D01*
X15012501Y5289168D02*
X15022025Y5327263D01*
X15022025Y5327263D02*
X15031549Y5346311D01*
X15031549Y5346311D02*
X15041072Y5355835D01*
X15041072Y5355835D02*
X15060120Y5365359D01*
X15212501Y5184406D02*
X15222025Y5174882D01*
X15222025Y5174882D02*
X15212501Y5165359D01*
X15212501Y5165359D02*
X15202977Y5174882D01*
X15202977Y5174882D02*
X15212501Y5184406D01*
X15212501Y5184406D02*
X15212501Y5165359D01*
X15345834Y5365359D02*
X15364882Y5365359D01*
X15364882Y5365359D02*
X15383930Y5355835D01*
X15383930Y5355835D02*
X15393453Y5346311D01*
X15393453Y5346311D02*
X15402977Y5327263D01*
X15402977Y5327263D02*
X15412501Y5289168D01*
X15412501Y5289168D02*
X15412501Y5241549D01*
X15412501Y5241549D02*
X15402977Y5203454D01*
X15402977Y5203454D02*
X15393453Y5184406D01*
X15393453Y5184406D02*
X15383930Y5174882D01*
X15383930Y5174882D02*
X15364882Y5165359D01*
X15364882Y5165359D02*
X15345834Y5165359D01*
X15345834Y5165359D02*
X15326787Y5174882D01*
X15326787Y5174882D02*
X15317263Y5184406D01*
X15317263Y5184406D02*
X15307739Y5203454D01*
X15307739Y5203454D02*
X15298215Y5241549D01*
X15298215Y5241549D02*
X15298215Y5289168D01*
X15298215Y5289168D02*
X15307739Y5327263D01*
X15307739Y5327263D02*
X15317263Y5346311D01*
X15317263Y5346311D02*
X15326787Y5355835D01*
X15326787Y5355835D02*
X15345834Y5365359D01*
X15583930Y5298692D02*
X15583930Y5165359D01*
X15536311Y5374882D02*
X15488692Y5232025D01*
X15488692Y5232025D02*
X15612501Y5232025D01*
X15774406Y5365359D02*
X15736311Y5365359D01*
X15736311Y5365359D02*
X15717263Y5355835D01*
X15717263Y5355835D02*
X15707739Y5346311D01*
X15707739Y5346311D02*
X15688692Y5317740D01*
X15688692Y5317740D02*
X15679168Y5279644D01*
X15679168Y5279644D02*
X15679168Y5203454D01*
X15679168Y5203454D02*
X15688692Y5184406D01*
X15688692Y5184406D02*
X15698215Y5174882D01*
X15698215Y5174882D02*
X15717263Y5165359D01*
X15717263Y5165359D02*
X15755358Y5165359D01*
X15755358Y5165359D02*
X15774406Y5174882D01*
X15774406Y5174882D02*
X15783930Y5184406D01*
X15783930Y5184406D02*
X15793453Y5203454D01*
X15793453Y5203454D02*
X15793453Y5251073D01*
X15793453Y5251073D02*
X15783930Y5270120D01*
X15783930Y5270120D02*
X15774406Y5279644D01*
X15774406Y5279644D02*
X15755358Y5289168D01*
X15755358Y5289168D02*
X15717263Y5289168D01*
X15717263Y5289168D02*
X15698215Y5279644D01*
X15698215Y5279644D02*
X15688692Y5270120D01*
X15688692Y5270120D02*
X15679168Y5251073D01*
X15888692Y5165359D02*
X15926787Y5165359D01*
X15926787Y5165359D02*
X15945834Y5174882D01*
X15945834Y5174882D02*
X15955358Y5184406D01*
X15955358Y5184406D02*
X15974406Y5212978D01*
X15974406Y5212978D02*
X15983930Y5251073D01*
X15983930Y5251073D02*
X15983930Y5327263D01*
X15983930Y5327263D02*
X15974406Y5346311D01*
X15974406Y5346311D02*
X15964882Y5355835D01*
X15964882Y5355835D02*
X15945834Y5365359D01*
X15945834Y5365359D02*
X15907739Y5365359D01*
X15907739Y5365359D02*
X15888692Y5355835D01*
X15888692Y5355835D02*
X15879168Y5346311D01*
X15879168Y5346311D02*
X15869644Y5327263D01*
X15869644Y5327263D02*
X15869644Y5279644D01*
X15869644Y5279644D02*
X15879168Y5260597D01*
X15879168Y5260597D02*
X15888692Y5251073D01*
X15888692Y5251073D02*
X15907739Y5241549D01*
X15907739Y5241549D02*
X15945834Y5241549D01*
X15945834Y5241549D02*
X15964882Y5251073D01*
X15964882Y5251073D02*
X15974406Y5260597D01*
X15974406Y5260597D02*
X15983930Y5279644D01*
X16060120Y5365359D02*
X16060120Y5327263D01*
X16136311Y5365359D02*
X16136311Y5327263D01*
X16431549Y5089168D02*
X16422025Y5098692D01*
X16422025Y5098692D02*
X16402977Y5127263D01*
X16402977Y5127263D02*
X16393454Y5146311D01*
X16393454Y5146311D02*
X16383930Y5174882D01*
X16383930Y5174882D02*
X16374406Y5222501D01*
X16374406Y5222501D02*
X16374406Y5260597D01*
X16374406Y5260597D02*
X16383930Y5308216D01*
X16383930Y5308216D02*
X16393454Y5336787D01*
X16393454Y5336787D02*
X16402977Y5355835D01*
X16402977Y5355835D02*
X16422025Y5384406D01*
X16422025Y5384406D02*
X16431549Y5393930D01*
X16593454Y5365359D02*
X16555358Y5365359D01*
X16555358Y5365359D02*
X16536311Y5355835D01*
X16536311Y5355835D02*
X16526787Y5346311D01*
X16526787Y5346311D02*
X16507739Y5317740D01*
X16507739Y5317740D02*
X16498215Y5279644D01*
X16498215Y5279644D02*
X16498215Y5203454D01*
X16498215Y5203454D02*
X16507739Y5184406D01*
X16507739Y5184406D02*
X16517263Y5174882D01*
X16517263Y5174882D02*
X16536311Y5165359D01*
X16536311Y5165359D02*
X16574406Y5165359D01*
X16574406Y5165359D02*
X16593454Y5174882D01*
X16593454Y5174882D02*
X16602977Y5184406D01*
X16602977Y5184406D02*
X16612501Y5203454D01*
X16612501Y5203454D02*
X16612501Y5251073D01*
X16612501Y5251073D02*
X16602977Y5270120D01*
X16602977Y5270120D02*
X16593454Y5279644D01*
X16593454Y5279644D02*
X16574406Y5289168D01*
X16574406Y5289168D02*
X16536311Y5289168D01*
X16536311Y5289168D02*
X16517263Y5279644D01*
X16517263Y5279644D02*
X16507739Y5270120D01*
X16507739Y5270120D02*
X16498215Y5251073D01*
X16850597Y5165359D02*
X16850597Y5365359D01*
X16936311Y5165359D02*
X16936311Y5270120D01*
X16936311Y5270120D02*
X16926787Y5289168D01*
X16926787Y5289168D02*
X16907739Y5298692D01*
X16907739Y5298692D02*
X16879168Y5298692D01*
X16879168Y5298692D02*
X16860120Y5289168D01*
X16860120Y5289168D02*
X16850597Y5279644D01*
X17060120Y5165359D02*
X17041073Y5174882D01*
X17041073Y5174882D02*
X17031549Y5184406D01*
X17031549Y5184406D02*
X17022025Y5203454D01*
X17022025Y5203454D02*
X17022025Y5260597D01*
X17022025Y5260597D02*
X17031549Y5279644D01*
X17031549Y5279644D02*
X17041073Y5289168D01*
X17041073Y5289168D02*
X17060120Y5298692D01*
X17060120Y5298692D02*
X17088692Y5298692D01*
X17088692Y5298692D02*
X17107739Y5289168D01*
X17107739Y5289168D02*
X17117263Y5279644D01*
X17117263Y5279644D02*
X17126787Y5260597D01*
X17126787Y5260597D02*
X17126787Y5203454D01*
X17126787Y5203454D02*
X17117263Y5184406D01*
X17117263Y5184406D02*
X17107739Y5174882D01*
X17107739Y5174882D02*
X17088692Y5165359D01*
X17088692Y5165359D02*
X17060120Y5165359D01*
X17241073Y5165359D02*
X17222025Y5174882D01*
X17222025Y5174882D02*
X17212501Y5193930D01*
X17212501Y5193930D02*
X17212501Y5365359D01*
X17393454Y5174882D02*
X17374406Y5165359D01*
X17374406Y5165359D02*
X17336311Y5165359D01*
X17336311Y5165359D02*
X17317263Y5174882D01*
X17317263Y5174882D02*
X17307739Y5193930D01*
X17307739Y5193930D02*
X17307739Y5270120D01*
X17307739Y5270120D02*
X17317263Y5289168D01*
X17317263Y5289168D02*
X17336311Y5298692D01*
X17336311Y5298692D02*
X17374406Y5298692D01*
X17374406Y5298692D02*
X17393454Y5289168D01*
X17393454Y5289168D02*
X17402978Y5270120D01*
X17402978Y5270120D02*
X17402978Y5251073D01*
X17402978Y5251073D02*
X17307739Y5232025D01*
X17479168Y5174882D02*
X17498216Y5165359D01*
X17498216Y5165359D02*
X17536311Y5165359D01*
X17536311Y5165359D02*
X17555359Y5174882D01*
X17555359Y5174882D02*
X17564882Y5193930D01*
X17564882Y5193930D02*
X17564882Y5203454D01*
X17564882Y5203454D02*
X17555359Y5222501D01*
X17555359Y5222501D02*
X17536311Y5232025D01*
X17536311Y5232025D02*
X17507739Y5232025D01*
X17507739Y5232025D02*
X17488692Y5241549D01*
X17488692Y5241549D02*
X17479168Y5260597D01*
X17479168Y5260597D02*
X17479168Y5270120D01*
X17479168Y5270120D02*
X17488692Y5289168D01*
X17488692Y5289168D02*
X17507739Y5298692D01*
X17507739Y5298692D02*
X17536311Y5298692D01*
X17536311Y5298692D02*
X17555359Y5289168D01*
X17631549Y5089168D02*
X17641073Y5098692D01*
X17641073Y5098692D02*
X17660120Y5127263D01*
X17660120Y5127263D02*
X17669644Y5146311D01*
X17669644Y5146311D02*
X17679168Y5174882D01*
X17679168Y5174882D02*
X17688692Y5222501D01*
X17688692Y5222501D02*
X17688692Y5260597D01*
X17688692Y5260597D02*
X17679168Y5308216D01*
X17679168Y5308216D02*
X17669644Y5336787D01*
X17669644Y5336787D02*
X17660120Y5355835D01*
X17660120Y5355835D02*
X17641073Y5384406D01*
X17641073Y5384406D02*
X17631549Y5393930D01*
M02*
