%TF.GenerationSoftware,KiCad,Pcbnew,8.0.6*%
%TF.CreationDate,2024-12-03T14:08:36-05:00*%
%TF.ProjectId,DDI,4444492e-6b69-4636-9164-5f7063625858,rev?*%
%TF.SameCoordinates,Original*%
%TF.FileFunction,Drillmap*%
%TF.FilePolarity,Positive*%
%FSLAX45Y45*%
G04 Gerber Fmt 4.5, Leading zero omitted, Abs format (unit mm)*
G04 Created by KiCad (PCBNEW 8.0.6) date 2024-12-03 14:08:36*
%MOMM*%
%LPD*%
G01*
G04 APERTURE LIST*
%ADD10C,0.100000*%
%ADD11C,0.200000*%
%ADD12C,0.220000*%
%ADD13C,0.430000*%
%ADD14C,0.635000*%
%ADD15C,0.840000*%
G04 APERTURE END LIST*
D10*
X14879032Y6693842D02*
X26662782Y6694292D01*
X24258138Y23031255D02*
X23796186Y23432893D01*
X24715338Y22624855D02*
X28680606Y19143608D01*
X17283675Y23031255D02*
X17745906Y23432893D01*
X16826475Y22624855D02*
X12861486Y19146148D01*
X12861486Y6695068D02*
X12861486Y19146148D01*
X26662782Y6903842D02*
G75*
G02*
X27102782Y6903842I220000J0D01*
G01*
X24258138Y22548655D02*
X24258138Y23031255D01*
X25349793Y8173842D02*
X16192021Y8173842D01*
X14879032Y6903842D02*
X14879032Y6693842D01*
X17745906Y23432893D02*
X23796186Y23432893D01*
X16192021Y20619842D02*
X25349792Y20619842D01*
X26662782Y6903842D02*
X26662782Y6694292D01*
X25349792Y20619842D02*
G75*
G02*
X26993902Y18975728I-2J-1644112D01*
G01*
X17283675Y22548655D02*
X17283675Y23031255D01*
X14439032Y6903842D02*
G75*
G02*
X14879032Y6903842I220000J0D01*
G01*
X12861486Y6695068D02*
X14439032Y6695068D01*
X14439032Y6903842D02*
X14439032Y6695068D01*
X24715338Y22548655D02*
X24715338Y22624855D01*
X26993907Y18975728D02*
X26993906Y9817957D01*
X16192021Y8173842D02*
G75*
G02*
X14547902Y9817956I-1J1644118D01*
G01*
X28680606Y6694292D02*
X27102782Y6694292D01*
X26993907Y9817957D02*
G75*
G02*
X25349793Y8173842I-1644114J-1D01*
G01*
X16826475Y22548655D02*
X16826475Y22624855D01*
X17283675Y22548655D02*
G75*
G02*
X16826475Y22548655I-228600J0D01*
G01*
X27102782Y6903842D02*
X27102782Y6694292D01*
X14547907Y9817956D02*
X14547907Y18975729D01*
X24715338Y22548655D02*
G75*
G02*
X24258138Y22548655I-228600J0D01*
G01*
X14547906Y18975729D02*
G75*
G02*
X16192021Y20619843I1644115J-1D01*
G01*
X28680606Y6694292D02*
X28680606Y19143608D01*
D11*
D12*
X20018337Y22622912D02*
X20238337Y22402912D01*
X20238337Y22622912D02*
X20018337Y22402912D01*
D13*
X13445599Y12968092D02*
G75*
G02*
X13015599Y12968092I-215000J0D01*
G01*
X13015599Y12968092D02*
G75*
G02*
X13445599Y12968092I215000J0D01*
G01*
X28526214Y12968092D02*
G75*
G02*
X28096214Y12968092I-215000J0D01*
G01*
X28096214Y12968092D02*
G75*
G02*
X28526214Y12968092I215000J0D01*
G01*
D14*
X20770907Y23039192D02*
X20770907Y22404192D01*
X20453407Y22721692D02*
X21088407Y22721692D01*
X20770907Y23039192D02*
X20770907Y22404192D01*
X20453407Y22721692D02*
X21088407Y22721692D01*
D15*
X14027332Y7599995D02*
X14027332Y8193970D01*
X13433356Y8193970D01*
X13433356Y7599995D01*
X14027332Y7599995D01*
X28108457Y7599995D02*
X28108457Y8193970D01*
X27514481Y8193970D01*
X27514481Y7599995D01*
X28108457Y7599995D01*
D11*
X13117263Y6377358D02*
X13117263Y6577358D01*
X13117263Y6577358D02*
X13164882Y6577358D01*
X13164882Y6577358D02*
X13193453Y6567835D01*
X13193453Y6567835D02*
X13212501Y6548787D01*
X13212501Y6548787D02*
X13222025Y6529739D01*
X13222025Y6529739D02*
X13231548Y6491644D01*
X13231548Y6491644D02*
X13231548Y6463073D01*
X13231548Y6463073D02*
X13222025Y6424978D01*
X13222025Y6424978D02*
X13212501Y6405930D01*
X13212501Y6405930D02*
X13193453Y6386882D01*
X13193453Y6386882D02*
X13164882Y6377358D01*
X13164882Y6377358D02*
X13117263Y6377358D01*
X13317263Y6377358D02*
X13317263Y6510692D01*
X13317263Y6472597D02*
X13326787Y6491644D01*
X13326787Y6491644D02*
X13336310Y6501168D01*
X13336310Y6501168D02*
X13355358Y6510692D01*
X13355358Y6510692D02*
X13374406Y6510692D01*
X13441072Y6377358D02*
X13441072Y6510692D01*
X13441072Y6577358D02*
X13431548Y6567835D01*
X13431548Y6567835D02*
X13441072Y6558311D01*
X13441072Y6558311D02*
X13450596Y6567835D01*
X13450596Y6567835D02*
X13441072Y6577358D01*
X13441072Y6577358D02*
X13441072Y6558311D01*
X13564882Y6377358D02*
X13545834Y6386882D01*
X13545834Y6386882D02*
X13536310Y6405930D01*
X13536310Y6405930D02*
X13536310Y6577358D01*
X13669644Y6377358D02*
X13650596Y6386882D01*
X13650596Y6386882D02*
X13641072Y6405930D01*
X13641072Y6405930D02*
X13641072Y6577358D01*
X13898215Y6377358D02*
X13898215Y6577358D01*
X13898215Y6577358D02*
X13964882Y6434501D01*
X13964882Y6434501D02*
X14031548Y6577358D01*
X14031548Y6577358D02*
X14031548Y6377358D01*
X14212501Y6377358D02*
X14212501Y6482120D01*
X14212501Y6482120D02*
X14202977Y6501168D01*
X14202977Y6501168D02*
X14183929Y6510692D01*
X14183929Y6510692D02*
X14145834Y6510692D01*
X14145834Y6510692D02*
X14126787Y6501168D01*
X14212501Y6386882D02*
X14193453Y6377358D01*
X14193453Y6377358D02*
X14145834Y6377358D01*
X14145834Y6377358D02*
X14126787Y6386882D01*
X14126787Y6386882D02*
X14117263Y6405930D01*
X14117263Y6405930D02*
X14117263Y6424978D01*
X14117263Y6424978D02*
X14126787Y6444025D01*
X14126787Y6444025D02*
X14145834Y6453549D01*
X14145834Y6453549D02*
X14193453Y6453549D01*
X14193453Y6453549D02*
X14212501Y6463073D01*
X14307739Y6510692D02*
X14307739Y6310692D01*
X14307739Y6501168D02*
X14326787Y6510692D01*
X14326787Y6510692D02*
X14364882Y6510692D01*
X14364882Y6510692D02*
X14383929Y6501168D01*
X14383929Y6501168D02*
X14393453Y6491644D01*
X14393453Y6491644D02*
X14402977Y6472597D01*
X14402977Y6472597D02*
X14402977Y6415454D01*
X14402977Y6415454D02*
X14393453Y6396406D01*
X14393453Y6396406D02*
X14383929Y6386882D01*
X14383929Y6386882D02*
X14364882Y6377358D01*
X14364882Y6377358D02*
X14326787Y6377358D01*
X14326787Y6377358D02*
X14307739Y6386882D01*
X14488691Y6396406D02*
X14498215Y6386882D01*
X14498215Y6386882D02*
X14488691Y6377358D01*
X14488691Y6377358D02*
X14479168Y6386882D01*
X14479168Y6386882D02*
X14488691Y6396406D01*
X14488691Y6396406D02*
X14488691Y6377358D01*
X14488691Y6501168D02*
X14498215Y6491644D01*
X14498215Y6491644D02*
X14488691Y6482120D01*
X14488691Y6482120D02*
X14479168Y6491644D01*
X14479168Y6491644D02*
X14488691Y6501168D01*
X14488691Y6501168D02*
X14488691Y6482120D01*
X12656486Y6148842D02*
X12856486Y5948842D01*
X12856486Y6148842D02*
X12656486Y5948842D01*
X13107739Y6138311D02*
X13117263Y6147835D01*
X13117263Y6147835D02*
X13136310Y6157358D01*
X13136310Y6157358D02*
X13183929Y6157358D01*
X13183929Y6157358D02*
X13202977Y6147835D01*
X13202977Y6147835D02*
X13212501Y6138311D01*
X13212501Y6138311D02*
X13222025Y6119263D01*
X13222025Y6119263D02*
X13222025Y6100216D01*
X13222025Y6100216D02*
X13212501Y6071644D01*
X13212501Y6071644D02*
X13098215Y5957358D01*
X13098215Y5957358D02*
X13222025Y5957358D01*
X13307739Y5976406D02*
X13317263Y5966882D01*
X13317263Y5966882D02*
X13307739Y5957358D01*
X13307739Y5957358D02*
X13298215Y5966882D01*
X13298215Y5966882D02*
X13307739Y5976406D01*
X13307739Y5976406D02*
X13307739Y5957358D01*
X13393453Y6138311D02*
X13402977Y6147835D01*
X13402977Y6147835D02*
X13422025Y6157358D01*
X13422025Y6157358D02*
X13469644Y6157358D01*
X13469644Y6157358D02*
X13488691Y6147835D01*
X13488691Y6147835D02*
X13498215Y6138311D01*
X13498215Y6138311D02*
X13507739Y6119263D01*
X13507739Y6119263D02*
X13507739Y6100216D01*
X13507739Y6100216D02*
X13498215Y6071644D01*
X13498215Y6071644D02*
X13383929Y5957358D01*
X13383929Y5957358D02*
X13507739Y5957358D01*
X13631548Y6157358D02*
X13650596Y6157358D01*
X13650596Y6157358D02*
X13669644Y6147835D01*
X13669644Y6147835D02*
X13679168Y6138311D01*
X13679168Y6138311D02*
X13688691Y6119263D01*
X13688691Y6119263D02*
X13698215Y6081168D01*
X13698215Y6081168D02*
X13698215Y6033549D01*
X13698215Y6033549D02*
X13688691Y5995454D01*
X13688691Y5995454D02*
X13679168Y5976406D01*
X13679168Y5976406D02*
X13669644Y5966882D01*
X13669644Y5966882D02*
X13650596Y5957358D01*
X13650596Y5957358D02*
X13631548Y5957358D01*
X13631548Y5957358D02*
X13612501Y5966882D01*
X13612501Y5966882D02*
X13602977Y5976406D01*
X13602977Y5976406D02*
X13593453Y5995454D01*
X13593453Y5995454D02*
X13583929Y6033549D01*
X13583929Y6033549D02*
X13583929Y6081168D01*
X13583929Y6081168D02*
X13593453Y6119263D01*
X13593453Y6119263D02*
X13602977Y6138311D01*
X13602977Y6138311D02*
X13612501Y6147835D01*
X13612501Y6147835D02*
X13631548Y6157358D01*
X13822025Y6157358D02*
X13841072Y6157358D01*
X13841072Y6157358D02*
X13860120Y6147835D01*
X13860120Y6147835D02*
X13869644Y6138311D01*
X13869644Y6138311D02*
X13879168Y6119263D01*
X13879168Y6119263D02*
X13888691Y6081168D01*
X13888691Y6081168D02*
X13888691Y6033549D01*
X13888691Y6033549D02*
X13879168Y5995454D01*
X13879168Y5995454D02*
X13869644Y5976406D01*
X13869644Y5976406D02*
X13860120Y5966882D01*
X13860120Y5966882D02*
X13841072Y5957358D01*
X13841072Y5957358D02*
X13822025Y5957358D01*
X13822025Y5957358D02*
X13802977Y5966882D01*
X13802977Y5966882D02*
X13793453Y5976406D01*
X13793453Y5976406D02*
X13783929Y5995454D01*
X13783929Y5995454D02*
X13774406Y6033549D01*
X13774406Y6033549D02*
X13774406Y6081168D01*
X13774406Y6081168D02*
X13783929Y6119263D01*
X13783929Y6119263D02*
X13793453Y6138311D01*
X13793453Y6138311D02*
X13802977Y6147835D01*
X13802977Y6147835D02*
X13822025Y6157358D01*
X13974406Y5957358D02*
X13974406Y6090692D01*
X13974406Y6071644D02*
X13983929Y6081168D01*
X13983929Y6081168D02*
X14002977Y6090692D01*
X14002977Y6090692D02*
X14031549Y6090692D01*
X14031549Y6090692D02*
X14050596Y6081168D01*
X14050596Y6081168D02*
X14060120Y6062120D01*
X14060120Y6062120D02*
X14060120Y5957358D01*
X14060120Y6062120D02*
X14069644Y6081168D01*
X14069644Y6081168D02*
X14088691Y6090692D01*
X14088691Y6090692D02*
X14117263Y6090692D01*
X14117263Y6090692D02*
X14136310Y6081168D01*
X14136310Y6081168D02*
X14145834Y6062120D01*
X14145834Y6062120D02*
X14145834Y5957358D01*
X14241072Y5957358D02*
X14241072Y6090692D01*
X14241072Y6071644D02*
X14250596Y6081168D01*
X14250596Y6081168D02*
X14269644Y6090692D01*
X14269644Y6090692D02*
X14298215Y6090692D01*
X14298215Y6090692D02*
X14317263Y6081168D01*
X14317263Y6081168D02*
X14326787Y6062120D01*
X14326787Y6062120D02*
X14326787Y5957358D01*
X14326787Y6062120D02*
X14336310Y6081168D01*
X14336310Y6081168D02*
X14355358Y6090692D01*
X14355358Y6090692D02*
X14383929Y6090692D01*
X14383929Y6090692D02*
X14402977Y6081168D01*
X14402977Y6081168D02*
X14412501Y6062120D01*
X14412501Y6062120D02*
X14412501Y5957358D01*
X14802977Y6166882D02*
X14631549Y5909739D01*
X15060120Y6157358D02*
X15079168Y6157358D01*
X15079168Y6157358D02*
X15098215Y6147835D01*
X15098215Y6147835D02*
X15107739Y6138311D01*
X15107739Y6138311D02*
X15117263Y6119263D01*
X15117263Y6119263D02*
X15126787Y6081168D01*
X15126787Y6081168D02*
X15126787Y6033549D01*
X15126787Y6033549D02*
X15117263Y5995454D01*
X15117263Y5995454D02*
X15107739Y5976406D01*
X15107739Y5976406D02*
X15098215Y5966882D01*
X15098215Y5966882D02*
X15079168Y5957358D01*
X15079168Y5957358D02*
X15060120Y5957358D01*
X15060120Y5957358D02*
X15041072Y5966882D01*
X15041072Y5966882D02*
X15031549Y5976406D01*
X15031549Y5976406D02*
X15022025Y5995454D01*
X15022025Y5995454D02*
X15012501Y6033549D01*
X15012501Y6033549D02*
X15012501Y6081168D01*
X15012501Y6081168D02*
X15022025Y6119263D01*
X15022025Y6119263D02*
X15031549Y6138311D01*
X15031549Y6138311D02*
X15041072Y6147835D01*
X15041072Y6147835D02*
X15060120Y6157358D01*
X15212501Y5976406D02*
X15222025Y5966882D01*
X15222025Y5966882D02*
X15212501Y5957358D01*
X15212501Y5957358D02*
X15202977Y5966882D01*
X15202977Y5966882D02*
X15212501Y5976406D01*
X15212501Y5976406D02*
X15212501Y5957358D01*
X15345834Y6157358D02*
X15364882Y6157358D01*
X15364882Y6157358D02*
X15383930Y6147835D01*
X15383930Y6147835D02*
X15393453Y6138311D01*
X15393453Y6138311D02*
X15402977Y6119263D01*
X15402977Y6119263D02*
X15412501Y6081168D01*
X15412501Y6081168D02*
X15412501Y6033549D01*
X15412501Y6033549D02*
X15402977Y5995454D01*
X15402977Y5995454D02*
X15393453Y5976406D01*
X15393453Y5976406D02*
X15383930Y5966882D01*
X15383930Y5966882D02*
X15364882Y5957358D01*
X15364882Y5957358D02*
X15345834Y5957358D01*
X15345834Y5957358D02*
X15326787Y5966882D01*
X15326787Y5966882D02*
X15317263Y5976406D01*
X15317263Y5976406D02*
X15307739Y5995454D01*
X15307739Y5995454D02*
X15298215Y6033549D01*
X15298215Y6033549D02*
X15298215Y6081168D01*
X15298215Y6081168D02*
X15307739Y6119263D01*
X15307739Y6119263D02*
X15317263Y6138311D01*
X15317263Y6138311D02*
X15326787Y6147835D01*
X15326787Y6147835D02*
X15345834Y6157358D01*
X15526787Y6071644D02*
X15507739Y6081168D01*
X15507739Y6081168D02*
X15498215Y6090692D01*
X15498215Y6090692D02*
X15488692Y6109739D01*
X15488692Y6109739D02*
X15488692Y6119263D01*
X15488692Y6119263D02*
X15498215Y6138311D01*
X15498215Y6138311D02*
X15507739Y6147835D01*
X15507739Y6147835D02*
X15526787Y6157358D01*
X15526787Y6157358D02*
X15564882Y6157358D01*
X15564882Y6157358D02*
X15583930Y6147835D01*
X15583930Y6147835D02*
X15593453Y6138311D01*
X15593453Y6138311D02*
X15602977Y6119263D01*
X15602977Y6119263D02*
X15602977Y6109739D01*
X15602977Y6109739D02*
X15593453Y6090692D01*
X15593453Y6090692D02*
X15583930Y6081168D01*
X15583930Y6081168D02*
X15564882Y6071644D01*
X15564882Y6071644D02*
X15526787Y6071644D01*
X15526787Y6071644D02*
X15507739Y6062120D01*
X15507739Y6062120D02*
X15498215Y6052597D01*
X15498215Y6052597D02*
X15488692Y6033549D01*
X15488692Y6033549D02*
X15488692Y5995454D01*
X15488692Y5995454D02*
X15498215Y5976406D01*
X15498215Y5976406D02*
X15507739Y5966882D01*
X15507739Y5966882D02*
X15526787Y5957358D01*
X15526787Y5957358D02*
X15564882Y5957358D01*
X15564882Y5957358D02*
X15583930Y5966882D01*
X15583930Y5966882D02*
X15593453Y5976406D01*
X15593453Y5976406D02*
X15602977Y5995454D01*
X15602977Y5995454D02*
X15602977Y6033549D01*
X15602977Y6033549D02*
X15593453Y6052597D01*
X15593453Y6052597D02*
X15583930Y6062120D01*
X15583930Y6062120D02*
X15564882Y6071644D01*
X15774406Y6157358D02*
X15736311Y6157358D01*
X15736311Y6157358D02*
X15717263Y6147835D01*
X15717263Y6147835D02*
X15707739Y6138311D01*
X15707739Y6138311D02*
X15688692Y6109739D01*
X15688692Y6109739D02*
X15679168Y6071644D01*
X15679168Y6071644D02*
X15679168Y5995454D01*
X15679168Y5995454D02*
X15688692Y5976406D01*
X15688692Y5976406D02*
X15698215Y5966882D01*
X15698215Y5966882D02*
X15717263Y5957358D01*
X15717263Y5957358D02*
X15755358Y5957358D01*
X15755358Y5957358D02*
X15774406Y5966882D01*
X15774406Y5966882D02*
X15783930Y5976406D01*
X15783930Y5976406D02*
X15793453Y5995454D01*
X15793453Y5995454D02*
X15793453Y6043073D01*
X15793453Y6043073D02*
X15783930Y6062120D01*
X15783930Y6062120D02*
X15774406Y6071644D01*
X15774406Y6071644D02*
X15755358Y6081168D01*
X15755358Y6081168D02*
X15717263Y6081168D01*
X15717263Y6081168D02*
X15698215Y6071644D01*
X15698215Y6071644D02*
X15688692Y6062120D01*
X15688692Y6062120D02*
X15679168Y6043073D01*
X15964882Y6157358D02*
X15926787Y6157358D01*
X15926787Y6157358D02*
X15907739Y6147835D01*
X15907739Y6147835D02*
X15898215Y6138311D01*
X15898215Y6138311D02*
X15879168Y6109739D01*
X15879168Y6109739D02*
X15869644Y6071644D01*
X15869644Y6071644D02*
X15869644Y5995454D01*
X15869644Y5995454D02*
X15879168Y5976406D01*
X15879168Y5976406D02*
X15888692Y5966882D01*
X15888692Y5966882D02*
X15907739Y5957358D01*
X15907739Y5957358D02*
X15945834Y5957358D01*
X15945834Y5957358D02*
X15964882Y5966882D01*
X15964882Y5966882D02*
X15974406Y5976406D01*
X15974406Y5976406D02*
X15983930Y5995454D01*
X15983930Y5995454D02*
X15983930Y6043073D01*
X15983930Y6043073D02*
X15974406Y6062120D01*
X15974406Y6062120D02*
X15964882Y6071644D01*
X15964882Y6071644D02*
X15945834Y6081168D01*
X15945834Y6081168D02*
X15907739Y6081168D01*
X15907739Y6081168D02*
X15888692Y6071644D01*
X15888692Y6071644D02*
X15879168Y6062120D01*
X15879168Y6062120D02*
X15869644Y6043073D01*
X16060120Y6157358D02*
X16060120Y6119263D01*
X16136311Y6157358D02*
X16136311Y6119263D01*
X16431549Y5881168D02*
X16422025Y5890692D01*
X16422025Y5890692D02*
X16402977Y5919263D01*
X16402977Y5919263D02*
X16393454Y5938311D01*
X16393454Y5938311D02*
X16383930Y5966882D01*
X16383930Y5966882D02*
X16374406Y6014501D01*
X16374406Y6014501D02*
X16374406Y6052597D01*
X16374406Y6052597D02*
X16383930Y6100216D01*
X16383930Y6100216D02*
X16393454Y6128787D01*
X16393454Y6128787D02*
X16402977Y6147835D01*
X16402977Y6147835D02*
X16422025Y6176406D01*
X16422025Y6176406D02*
X16431549Y6185930D01*
X16612501Y5957358D02*
X16498215Y5957358D01*
X16555358Y5957358D02*
X16555358Y6157358D01*
X16555358Y6157358D02*
X16536311Y6128787D01*
X16536311Y6128787D02*
X16517263Y6109739D01*
X16517263Y6109739D02*
X16498215Y6100216D01*
X16850597Y5957358D02*
X16850597Y6157358D01*
X16936311Y5957358D02*
X16936311Y6062120D01*
X16936311Y6062120D02*
X16926787Y6081168D01*
X16926787Y6081168D02*
X16907739Y6090692D01*
X16907739Y6090692D02*
X16879168Y6090692D01*
X16879168Y6090692D02*
X16860120Y6081168D01*
X16860120Y6081168D02*
X16850597Y6071644D01*
X17060120Y5957358D02*
X17041073Y5966882D01*
X17041073Y5966882D02*
X17031549Y5976406D01*
X17031549Y5976406D02*
X17022025Y5995454D01*
X17022025Y5995454D02*
X17022025Y6052597D01*
X17022025Y6052597D02*
X17031549Y6071644D01*
X17031549Y6071644D02*
X17041073Y6081168D01*
X17041073Y6081168D02*
X17060120Y6090692D01*
X17060120Y6090692D02*
X17088692Y6090692D01*
X17088692Y6090692D02*
X17107739Y6081168D01*
X17107739Y6081168D02*
X17117263Y6071644D01*
X17117263Y6071644D02*
X17126787Y6052597D01*
X17126787Y6052597D02*
X17126787Y5995454D01*
X17126787Y5995454D02*
X17117263Y5976406D01*
X17117263Y5976406D02*
X17107739Y5966882D01*
X17107739Y5966882D02*
X17088692Y5957358D01*
X17088692Y5957358D02*
X17060120Y5957358D01*
X17241073Y5957358D02*
X17222025Y5966882D01*
X17222025Y5966882D02*
X17212501Y5985930D01*
X17212501Y5985930D02*
X17212501Y6157358D01*
X17393454Y5966882D02*
X17374406Y5957358D01*
X17374406Y5957358D02*
X17336311Y5957358D01*
X17336311Y5957358D02*
X17317263Y5966882D01*
X17317263Y5966882D02*
X17307739Y5985930D01*
X17307739Y5985930D02*
X17307739Y6062120D01*
X17307739Y6062120D02*
X17317263Y6081168D01*
X17317263Y6081168D02*
X17336311Y6090692D01*
X17336311Y6090692D02*
X17374406Y6090692D01*
X17374406Y6090692D02*
X17393454Y6081168D01*
X17393454Y6081168D02*
X17402978Y6062120D01*
X17402978Y6062120D02*
X17402978Y6043073D01*
X17402978Y6043073D02*
X17307739Y6024025D01*
X17469644Y5881168D02*
X17479168Y5890692D01*
X17479168Y5890692D02*
X17498216Y5919263D01*
X17498216Y5919263D02*
X17507739Y5938311D01*
X17507739Y5938311D02*
X17517263Y5966882D01*
X17517263Y5966882D02*
X17526787Y6014501D01*
X17526787Y6014501D02*
X17526787Y6052597D01*
X17526787Y6052597D02*
X17517263Y6100216D01*
X17517263Y6100216D02*
X17507739Y6128787D01*
X17507739Y6128787D02*
X17498216Y6147835D01*
X17498216Y6147835D02*
X17479168Y6176406D01*
X17479168Y6176406D02*
X17469644Y6185930D01*
X17831549Y5881168D02*
X17822025Y5890692D01*
X17822025Y5890692D02*
X17802978Y5919263D01*
X17802978Y5919263D02*
X17793454Y5938311D01*
X17793454Y5938311D02*
X17783930Y5966882D01*
X17783930Y5966882D02*
X17774406Y6014501D01*
X17774406Y6014501D02*
X17774406Y6052597D01*
X17774406Y6052597D02*
X17783930Y6100216D01*
X17783930Y6100216D02*
X17793454Y6128787D01*
X17793454Y6128787D02*
X17802978Y6147835D01*
X17802978Y6147835D02*
X17822025Y6176406D01*
X17822025Y6176406D02*
X17831549Y6185930D01*
X17907739Y6090692D02*
X17907739Y5957358D01*
X17907739Y6071644D02*
X17917263Y6081168D01*
X17917263Y6081168D02*
X17936311Y6090692D01*
X17936311Y6090692D02*
X17964882Y6090692D01*
X17964882Y6090692D02*
X17983930Y6081168D01*
X17983930Y6081168D02*
X17993454Y6062120D01*
X17993454Y6062120D02*
X17993454Y5957358D01*
X18117263Y5957358D02*
X18098216Y5966882D01*
X18098216Y5966882D02*
X18088692Y5976406D01*
X18088692Y5976406D02*
X18079168Y5995454D01*
X18079168Y5995454D02*
X18079168Y6052597D01*
X18079168Y6052597D02*
X18088692Y6071644D01*
X18088692Y6071644D02*
X18098216Y6081168D01*
X18098216Y6081168D02*
X18117263Y6090692D01*
X18117263Y6090692D02*
X18145835Y6090692D01*
X18145835Y6090692D02*
X18164882Y6081168D01*
X18164882Y6081168D02*
X18174406Y6071644D01*
X18174406Y6071644D02*
X18183930Y6052597D01*
X18183930Y6052597D02*
X18183930Y5995454D01*
X18183930Y5995454D02*
X18174406Y5976406D01*
X18174406Y5976406D02*
X18164882Y5966882D01*
X18164882Y5966882D02*
X18145835Y5957358D01*
X18145835Y5957358D02*
X18117263Y5957358D01*
X18241073Y6090692D02*
X18317263Y6090692D01*
X18269644Y6157358D02*
X18269644Y5985930D01*
X18269644Y5985930D02*
X18279168Y5966882D01*
X18279168Y5966882D02*
X18298216Y5957358D01*
X18298216Y5957358D02*
X18317263Y5957358D01*
X18536311Y6090692D02*
X18536311Y5890692D01*
X18536311Y6081168D02*
X18555359Y6090692D01*
X18555359Y6090692D02*
X18593454Y6090692D01*
X18593454Y6090692D02*
X18612501Y6081168D01*
X18612501Y6081168D02*
X18622025Y6071644D01*
X18622025Y6071644D02*
X18631549Y6052597D01*
X18631549Y6052597D02*
X18631549Y5995454D01*
X18631549Y5995454D02*
X18622025Y5976406D01*
X18622025Y5976406D02*
X18612501Y5966882D01*
X18612501Y5966882D02*
X18593454Y5957358D01*
X18593454Y5957358D02*
X18555359Y5957358D01*
X18555359Y5957358D02*
X18536311Y5966882D01*
X18745835Y5957358D02*
X18726787Y5966882D01*
X18726787Y5966882D02*
X18717263Y5985930D01*
X18717263Y5985930D02*
X18717263Y6157358D01*
X18907740Y5957358D02*
X18907740Y6062120D01*
X18907740Y6062120D02*
X18898216Y6081168D01*
X18898216Y6081168D02*
X18879168Y6090692D01*
X18879168Y6090692D02*
X18841073Y6090692D01*
X18841073Y6090692D02*
X18822025Y6081168D01*
X18907740Y5966882D02*
X18888692Y5957358D01*
X18888692Y5957358D02*
X18841073Y5957358D01*
X18841073Y5957358D02*
X18822025Y5966882D01*
X18822025Y5966882D02*
X18812501Y5985930D01*
X18812501Y5985930D02*
X18812501Y6004978D01*
X18812501Y6004978D02*
X18822025Y6024025D01*
X18822025Y6024025D02*
X18841073Y6033549D01*
X18841073Y6033549D02*
X18888692Y6033549D01*
X18888692Y6033549D02*
X18907740Y6043073D01*
X18974406Y6090692D02*
X19050597Y6090692D01*
X19002978Y6157358D02*
X19002978Y5985930D01*
X19002978Y5985930D02*
X19012501Y5966882D01*
X19012501Y5966882D02*
X19031549Y5957358D01*
X19031549Y5957358D02*
X19050597Y5957358D01*
X19193454Y5966882D02*
X19174406Y5957358D01*
X19174406Y5957358D02*
X19136311Y5957358D01*
X19136311Y5957358D02*
X19117263Y5966882D01*
X19117263Y5966882D02*
X19107740Y5985930D01*
X19107740Y5985930D02*
X19107740Y6062120D01*
X19107740Y6062120D02*
X19117263Y6081168D01*
X19117263Y6081168D02*
X19136311Y6090692D01*
X19136311Y6090692D02*
X19174406Y6090692D01*
X19174406Y6090692D02*
X19193454Y6081168D01*
X19193454Y6081168D02*
X19202978Y6062120D01*
X19202978Y6062120D02*
X19202978Y6043073D01*
X19202978Y6043073D02*
X19107740Y6024025D01*
X19374406Y5957358D02*
X19374406Y6157358D01*
X19374406Y5966882D02*
X19355359Y5957358D01*
X19355359Y5957358D02*
X19317263Y5957358D01*
X19317263Y5957358D02*
X19298216Y5966882D01*
X19298216Y5966882D02*
X19288692Y5976406D01*
X19288692Y5976406D02*
X19279168Y5995454D01*
X19279168Y5995454D02*
X19279168Y6052597D01*
X19279168Y6052597D02*
X19288692Y6071644D01*
X19288692Y6071644D02*
X19298216Y6081168D01*
X19298216Y6081168D02*
X19317263Y6090692D01*
X19317263Y6090692D02*
X19355359Y6090692D01*
X19355359Y6090692D02*
X19374406Y6081168D01*
X19450597Y5881168D02*
X19460121Y5890692D01*
X19460121Y5890692D02*
X19479168Y5919263D01*
X19479168Y5919263D02*
X19488692Y5938311D01*
X19488692Y5938311D02*
X19498216Y5966882D01*
X19498216Y5966882D02*
X19507740Y6014501D01*
X19507740Y6014501D02*
X19507740Y6052597D01*
X19507740Y6052597D02*
X19498216Y6100216D01*
X19498216Y6100216D02*
X19488692Y6128787D01*
X19488692Y6128787D02*
X19479168Y6147835D01*
X19479168Y6147835D02*
X19460121Y6176406D01*
X19460121Y6176406D02*
X19450597Y6185930D01*
X12856486Y5728842D02*
G75*
G02*
X12656486Y5728842I-100000J0D01*
G01*
X12656486Y5728842D02*
G75*
G02*
X12856486Y5728842I100000J0D01*
G01*
X13202977Y5770692D02*
X13202977Y5637358D01*
X13155358Y5846882D02*
X13107739Y5704025D01*
X13107739Y5704025D02*
X13231548Y5704025D01*
X13307739Y5656406D02*
X13317263Y5646882D01*
X13317263Y5646882D02*
X13307739Y5637358D01*
X13307739Y5637358D02*
X13298215Y5646882D01*
X13298215Y5646882D02*
X13307739Y5656406D01*
X13307739Y5656406D02*
X13307739Y5637358D01*
X13383929Y5837358D02*
X13507739Y5837358D01*
X13507739Y5837358D02*
X13441072Y5761168D01*
X13441072Y5761168D02*
X13469644Y5761168D01*
X13469644Y5761168D02*
X13488691Y5751644D01*
X13488691Y5751644D02*
X13498215Y5742120D01*
X13498215Y5742120D02*
X13507739Y5723073D01*
X13507739Y5723073D02*
X13507739Y5675454D01*
X13507739Y5675454D02*
X13498215Y5656406D01*
X13498215Y5656406D02*
X13488691Y5646882D01*
X13488691Y5646882D02*
X13469644Y5637358D01*
X13469644Y5637358D02*
X13412501Y5637358D01*
X13412501Y5637358D02*
X13393453Y5646882D01*
X13393453Y5646882D02*
X13383929Y5656406D01*
X13631548Y5837358D02*
X13650596Y5837358D01*
X13650596Y5837358D02*
X13669644Y5827835D01*
X13669644Y5827835D02*
X13679168Y5818311D01*
X13679168Y5818311D02*
X13688691Y5799263D01*
X13688691Y5799263D02*
X13698215Y5761168D01*
X13698215Y5761168D02*
X13698215Y5713549D01*
X13698215Y5713549D02*
X13688691Y5675454D01*
X13688691Y5675454D02*
X13679168Y5656406D01*
X13679168Y5656406D02*
X13669644Y5646882D01*
X13669644Y5646882D02*
X13650596Y5637358D01*
X13650596Y5637358D02*
X13631548Y5637358D01*
X13631548Y5637358D02*
X13612501Y5646882D01*
X13612501Y5646882D02*
X13602977Y5656406D01*
X13602977Y5656406D02*
X13593453Y5675454D01*
X13593453Y5675454D02*
X13583929Y5713549D01*
X13583929Y5713549D02*
X13583929Y5761168D01*
X13583929Y5761168D02*
X13593453Y5799263D01*
X13593453Y5799263D02*
X13602977Y5818311D01*
X13602977Y5818311D02*
X13612501Y5827835D01*
X13612501Y5827835D02*
X13631548Y5837358D01*
X13822025Y5837358D02*
X13841072Y5837358D01*
X13841072Y5837358D02*
X13860120Y5827835D01*
X13860120Y5827835D02*
X13869644Y5818311D01*
X13869644Y5818311D02*
X13879168Y5799263D01*
X13879168Y5799263D02*
X13888691Y5761168D01*
X13888691Y5761168D02*
X13888691Y5713549D01*
X13888691Y5713549D02*
X13879168Y5675454D01*
X13879168Y5675454D02*
X13869644Y5656406D01*
X13869644Y5656406D02*
X13860120Y5646882D01*
X13860120Y5646882D02*
X13841072Y5637358D01*
X13841072Y5637358D02*
X13822025Y5637358D01*
X13822025Y5637358D02*
X13802977Y5646882D01*
X13802977Y5646882D02*
X13793453Y5656406D01*
X13793453Y5656406D02*
X13783929Y5675454D01*
X13783929Y5675454D02*
X13774406Y5713549D01*
X13774406Y5713549D02*
X13774406Y5761168D01*
X13774406Y5761168D02*
X13783929Y5799263D01*
X13783929Y5799263D02*
X13793453Y5818311D01*
X13793453Y5818311D02*
X13802977Y5827835D01*
X13802977Y5827835D02*
X13822025Y5837358D01*
X13974406Y5637358D02*
X13974406Y5770692D01*
X13974406Y5751644D02*
X13983929Y5761168D01*
X13983929Y5761168D02*
X14002977Y5770692D01*
X14002977Y5770692D02*
X14031549Y5770692D01*
X14031549Y5770692D02*
X14050596Y5761168D01*
X14050596Y5761168D02*
X14060120Y5742120D01*
X14060120Y5742120D02*
X14060120Y5637358D01*
X14060120Y5742120D02*
X14069644Y5761168D01*
X14069644Y5761168D02*
X14088691Y5770692D01*
X14088691Y5770692D02*
X14117263Y5770692D01*
X14117263Y5770692D02*
X14136310Y5761168D01*
X14136310Y5761168D02*
X14145834Y5742120D01*
X14145834Y5742120D02*
X14145834Y5637358D01*
X14241072Y5637358D02*
X14241072Y5770692D01*
X14241072Y5751644D02*
X14250596Y5761168D01*
X14250596Y5761168D02*
X14269644Y5770692D01*
X14269644Y5770692D02*
X14298215Y5770692D01*
X14298215Y5770692D02*
X14317263Y5761168D01*
X14317263Y5761168D02*
X14326787Y5742120D01*
X14326787Y5742120D02*
X14326787Y5637358D01*
X14326787Y5742120D02*
X14336310Y5761168D01*
X14336310Y5761168D02*
X14355358Y5770692D01*
X14355358Y5770692D02*
X14383929Y5770692D01*
X14383929Y5770692D02*
X14402977Y5761168D01*
X14402977Y5761168D02*
X14412501Y5742120D01*
X14412501Y5742120D02*
X14412501Y5637358D01*
X14802977Y5846882D02*
X14631549Y5589740D01*
X15060120Y5837358D02*
X15079168Y5837358D01*
X15079168Y5837358D02*
X15098215Y5827835D01*
X15098215Y5827835D02*
X15107739Y5818311D01*
X15107739Y5818311D02*
X15117263Y5799263D01*
X15117263Y5799263D02*
X15126787Y5761168D01*
X15126787Y5761168D02*
X15126787Y5713549D01*
X15126787Y5713549D02*
X15117263Y5675454D01*
X15117263Y5675454D02*
X15107739Y5656406D01*
X15107739Y5656406D02*
X15098215Y5646882D01*
X15098215Y5646882D02*
X15079168Y5637358D01*
X15079168Y5637358D02*
X15060120Y5637358D01*
X15060120Y5637358D02*
X15041072Y5646882D01*
X15041072Y5646882D02*
X15031549Y5656406D01*
X15031549Y5656406D02*
X15022025Y5675454D01*
X15022025Y5675454D02*
X15012501Y5713549D01*
X15012501Y5713549D02*
X15012501Y5761168D01*
X15012501Y5761168D02*
X15022025Y5799263D01*
X15022025Y5799263D02*
X15031549Y5818311D01*
X15031549Y5818311D02*
X15041072Y5827835D01*
X15041072Y5827835D02*
X15060120Y5837358D01*
X15212501Y5656406D02*
X15222025Y5646882D01*
X15222025Y5646882D02*
X15212501Y5637358D01*
X15212501Y5637358D02*
X15202977Y5646882D01*
X15202977Y5646882D02*
X15212501Y5656406D01*
X15212501Y5656406D02*
X15212501Y5637358D01*
X15412501Y5637358D02*
X15298215Y5637358D01*
X15355358Y5637358D02*
X15355358Y5837358D01*
X15355358Y5837358D02*
X15336311Y5808787D01*
X15336311Y5808787D02*
X15317263Y5789739D01*
X15317263Y5789739D02*
X15298215Y5780216D01*
X15583930Y5837358D02*
X15545834Y5837358D01*
X15545834Y5837358D02*
X15526787Y5827835D01*
X15526787Y5827835D02*
X15517263Y5818311D01*
X15517263Y5818311D02*
X15498215Y5789739D01*
X15498215Y5789739D02*
X15488692Y5751644D01*
X15488692Y5751644D02*
X15488692Y5675454D01*
X15488692Y5675454D02*
X15498215Y5656406D01*
X15498215Y5656406D02*
X15507739Y5646882D01*
X15507739Y5646882D02*
X15526787Y5637358D01*
X15526787Y5637358D02*
X15564882Y5637358D01*
X15564882Y5637358D02*
X15583930Y5646882D01*
X15583930Y5646882D02*
X15593453Y5656406D01*
X15593453Y5656406D02*
X15602977Y5675454D01*
X15602977Y5675454D02*
X15602977Y5723073D01*
X15602977Y5723073D02*
X15593453Y5742120D01*
X15593453Y5742120D02*
X15583930Y5751644D01*
X15583930Y5751644D02*
X15564882Y5761168D01*
X15564882Y5761168D02*
X15526787Y5761168D01*
X15526787Y5761168D02*
X15507739Y5751644D01*
X15507739Y5751644D02*
X15498215Y5742120D01*
X15498215Y5742120D02*
X15488692Y5723073D01*
X15698215Y5637358D02*
X15736311Y5637358D01*
X15736311Y5637358D02*
X15755358Y5646882D01*
X15755358Y5646882D02*
X15764882Y5656406D01*
X15764882Y5656406D02*
X15783930Y5684978D01*
X15783930Y5684978D02*
X15793453Y5723073D01*
X15793453Y5723073D02*
X15793453Y5799263D01*
X15793453Y5799263D02*
X15783930Y5818311D01*
X15783930Y5818311D02*
X15774406Y5827835D01*
X15774406Y5827835D02*
X15755358Y5837358D01*
X15755358Y5837358D02*
X15717263Y5837358D01*
X15717263Y5837358D02*
X15698215Y5827835D01*
X15698215Y5827835D02*
X15688692Y5818311D01*
X15688692Y5818311D02*
X15679168Y5799263D01*
X15679168Y5799263D02*
X15679168Y5751644D01*
X15679168Y5751644D02*
X15688692Y5732597D01*
X15688692Y5732597D02*
X15698215Y5723073D01*
X15698215Y5723073D02*
X15717263Y5713549D01*
X15717263Y5713549D02*
X15755358Y5713549D01*
X15755358Y5713549D02*
X15774406Y5723073D01*
X15774406Y5723073D02*
X15783930Y5732597D01*
X15783930Y5732597D02*
X15793453Y5751644D01*
X15860120Y5837358D02*
X15983930Y5837358D01*
X15983930Y5837358D02*
X15917263Y5761168D01*
X15917263Y5761168D02*
X15945834Y5761168D01*
X15945834Y5761168D02*
X15964882Y5751644D01*
X15964882Y5751644D02*
X15974406Y5742120D01*
X15974406Y5742120D02*
X15983930Y5723073D01*
X15983930Y5723073D02*
X15983930Y5675454D01*
X15983930Y5675454D02*
X15974406Y5656406D01*
X15974406Y5656406D02*
X15964882Y5646882D01*
X15964882Y5646882D02*
X15945834Y5637358D01*
X15945834Y5637358D02*
X15888692Y5637358D01*
X15888692Y5637358D02*
X15869644Y5646882D01*
X15869644Y5646882D02*
X15860120Y5656406D01*
X16060120Y5837358D02*
X16060120Y5799263D01*
X16136311Y5837358D02*
X16136311Y5799263D01*
X16431549Y5561168D02*
X16422025Y5570692D01*
X16422025Y5570692D02*
X16402977Y5599263D01*
X16402977Y5599263D02*
X16393454Y5618311D01*
X16393454Y5618311D02*
X16383930Y5646882D01*
X16383930Y5646882D02*
X16374406Y5694501D01*
X16374406Y5694501D02*
X16374406Y5732597D01*
X16374406Y5732597D02*
X16383930Y5780216D01*
X16383930Y5780216D02*
X16393454Y5808787D01*
X16393454Y5808787D02*
X16402977Y5827835D01*
X16402977Y5827835D02*
X16422025Y5856406D01*
X16422025Y5856406D02*
X16431549Y5865930D01*
X16498215Y5818311D02*
X16507739Y5827835D01*
X16507739Y5827835D02*
X16526787Y5837358D01*
X16526787Y5837358D02*
X16574406Y5837358D01*
X16574406Y5837358D02*
X16593454Y5827835D01*
X16593454Y5827835D02*
X16602977Y5818311D01*
X16602977Y5818311D02*
X16612501Y5799263D01*
X16612501Y5799263D02*
X16612501Y5780216D01*
X16612501Y5780216D02*
X16602977Y5751644D01*
X16602977Y5751644D02*
X16488692Y5637358D01*
X16488692Y5637358D02*
X16612501Y5637358D01*
X16850597Y5637358D02*
X16850597Y5837358D01*
X16936311Y5637358D02*
X16936311Y5742120D01*
X16936311Y5742120D02*
X16926787Y5761168D01*
X16926787Y5761168D02*
X16907739Y5770692D01*
X16907739Y5770692D02*
X16879168Y5770692D01*
X16879168Y5770692D02*
X16860120Y5761168D01*
X16860120Y5761168D02*
X16850597Y5751644D01*
X17060120Y5637358D02*
X17041073Y5646882D01*
X17041073Y5646882D02*
X17031549Y5656406D01*
X17031549Y5656406D02*
X17022025Y5675454D01*
X17022025Y5675454D02*
X17022025Y5732597D01*
X17022025Y5732597D02*
X17031549Y5751644D01*
X17031549Y5751644D02*
X17041073Y5761168D01*
X17041073Y5761168D02*
X17060120Y5770692D01*
X17060120Y5770692D02*
X17088692Y5770692D01*
X17088692Y5770692D02*
X17107739Y5761168D01*
X17107739Y5761168D02*
X17117263Y5751644D01*
X17117263Y5751644D02*
X17126787Y5732597D01*
X17126787Y5732597D02*
X17126787Y5675454D01*
X17126787Y5675454D02*
X17117263Y5656406D01*
X17117263Y5656406D02*
X17107739Y5646882D01*
X17107739Y5646882D02*
X17088692Y5637358D01*
X17088692Y5637358D02*
X17060120Y5637358D01*
X17241073Y5637358D02*
X17222025Y5646882D01*
X17222025Y5646882D02*
X17212501Y5665930D01*
X17212501Y5665930D02*
X17212501Y5837358D01*
X17393454Y5646882D02*
X17374406Y5637358D01*
X17374406Y5637358D02*
X17336311Y5637358D01*
X17336311Y5637358D02*
X17317263Y5646882D01*
X17317263Y5646882D02*
X17307739Y5665930D01*
X17307739Y5665930D02*
X17307739Y5742120D01*
X17307739Y5742120D02*
X17317263Y5761168D01*
X17317263Y5761168D02*
X17336311Y5770692D01*
X17336311Y5770692D02*
X17374406Y5770692D01*
X17374406Y5770692D02*
X17393454Y5761168D01*
X17393454Y5761168D02*
X17402978Y5742120D01*
X17402978Y5742120D02*
X17402978Y5723073D01*
X17402978Y5723073D02*
X17307739Y5704025D01*
X17479168Y5646882D02*
X17498216Y5637358D01*
X17498216Y5637358D02*
X17536311Y5637358D01*
X17536311Y5637358D02*
X17555359Y5646882D01*
X17555359Y5646882D02*
X17564882Y5665930D01*
X17564882Y5665930D02*
X17564882Y5675454D01*
X17564882Y5675454D02*
X17555359Y5694501D01*
X17555359Y5694501D02*
X17536311Y5704025D01*
X17536311Y5704025D02*
X17507739Y5704025D01*
X17507739Y5704025D02*
X17488692Y5713549D01*
X17488692Y5713549D02*
X17479168Y5732597D01*
X17479168Y5732597D02*
X17479168Y5742120D01*
X17479168Y5742120D02*
X17488692Y5761168D01*
X17488692Y5761168D02*
X17507739Y5770692D01*
X17507739Y5770692D02*
X17536311Y5770692D01*
X17536311Y5770692D02*
X17555359Y5761168D01*
X17631549Y5561168D02*
X17641073Y5570692D01*
X17641073Y5570692D02*
X17660120Y5599263D01*
X17660120Y5599263D02*
X17669644Y5618311D01*
X17669644Y5618311D02*
X17679168Y5646882D01*
X17679168Y5646882D02*
X17688692Y5694501D01*
X17688692Y5694501D02*
X17688692Y5732597D01*
X17688692Y5732597D02*
X17679168Y5780216D01*
X17679168Y5780216D02*
X17669644Y5808787D01*
X17669644Y5808787D02*
X17660120Y5827835D01*
X17660120Y5827835D02*
X17641073Y5856406D01*
X17641073Y5856406D02*
X17631549Y5865930D01*
X17993454Y5561168D02*
X17983930Y5570692D01*
X17983930Y5570692D02*
X17964882Y5599263D01*
X17964882Y5599263D02*
X17955359Y5618311D01*
X17955359Y5618311D02*
X17945835Y5646882D01*
X17945835Y5646882D02*
X17936311Y5694501D01*
X17936311Y5694501D02*
X17936311Y5732597D01*
X17936311Y5732597D02*
X17945835Y5780216D01*
X17945835Y5780216D02*
X17955359Y5808787D01*
X17955359Y5808787D02*
X17964882Y5827835D01*
X17964882Y5827835D02*
X17983930Y5856406D01*
X17983930Y5856406D02*
X17993454Y5865930D01*
X18069644Y5770692D02*
X18069644Y5637358D01*
X18069644Y5751644D02*
X18079168Y5761168D01*
X18079168Y5761168D02*
X18098216Y5770692D01*
X18098216Y5770692D02*
X18126787Y5770692D01*
X18126787Y5770692D02*
X18145835Y5761168D01*
X18145835Y5761168D02*
X18155359Y5742120D01*
X18155359Y5742120D02*
X18155359Y5637358D01*
X18279168Y5637358D02*
X18260120Y5646882D01*
X18260120Y5646882D02*
X18250597Y5656406D01*
X18250597Y5656406D02*
X18241073Y5675454D01*
X18241073Y5675454D02*
X18241073Y5732597D01*
X18241073Y5732597D02*
X18250597Y5751644D01*
X18250597Y5751644D02*
X18260120Y5761168D01*
X18260120Y5761168D02*
X18279168Y5770692D01*
X18279168Y5770692D02*
X18307740Y5770692D01*
X18307740Y5770692D02*
X18326787Y5761168D01*
X18326787Y5761168D02*
X18336311Y5751644D01*
X18336311Y5751644D02*
X18345835Y5732597D01*
X18345835Y5732597D02*
X18345835Y5675454D01*
X18345835Y5675454D02*
X18336311Y5656406D01*
X18336311Y5656406D02*
X18326787Y5646882D01*
X18326787Y5646882D02*
X18307740Y5637358D01*
X18307740Y5637358D02*
X18279168Y5637358D01*
X18402978Y5770692D02*
X18479168Y5770692D01*
X18431549Y5837358D02*
X18431549Y5665930D01*
X18431549Y5665930D02*
X18441073Y5646882D01*
X18441073Y5646882D02*
X18460120Y5637358D01*
X18460120Y5637358D02*
X18479168Y5637358D01*
X18698216Y5770692D02*
X18698216Y5570692D01*
X18698216Y5761168D02*
X18717263Y5770692D01*
X18717263Y5770692D02*
X18755359Y5770692D01*
X18755359Y5770692D02*
X18774406Y5761168D01*
X18774406Y5761168D02*
X18783930Y5751644D01*
X18783930Y5751644D02*
X18793454Y5732597D01*
X18793454Y5732597D02*
X18793454Y5675454D01*
X18793454Y5675454D02*
X18783930Y5656406D01*
X18783930Y5656406D02*
X18774406Y5646882D01*
X18774406Y5646882D02*
X18755359Y5637358D01*
X18755359Y5637358D02*
X18717263Y5637358D01*
X18717263Y5637358D02*
X18698216Y5646882D01*
X18907740Y5637358D02*
X18888692Y5646882D01*
X18888692Y5646882D02*
X18879168Y5665930D01*
X18879168Y5665930D02*
X18879168Y5837358D01*
X19069644Y5637358D02*
X19069644Y5742120D01*
X19069644Y5742120D02*
X19060121Y5761168D01*
X19060121Y5761168D02*
X19041073Y5770692D01*
X19041073Y5770692D02*
X19002978Y5770692D01*
X19002978Y5770692D02*
X18983930Y5761168D01*
X19069644Y5646882D02*
X19050597Y5637358D01*
X19050597Y5637358D02*
X19002978Y5637358D01*
X19002978Y5637358D02*
X18983930Y5646882D01*
X18983930Y5646882D02*
X18974406Y5665930D01*
X18974406Y5665930D02*
X18974406Y5684978D01*
X18974406Y5684978D02*
X18983930Y5704025D01*
X18983930Y5704025D02*
X19002978Y5713549D01*
X19002978Y5713549D02*
X19050597Y5713549D01*
X19050597Y5713549D02*
X19069644Y5723073D01*
X19136311Y5770692D02*
X19212501Y5770692D01*
X19164882Y5837358D02*
X19164882Y5665930D01*
X19164882Y5665930D02*
X19174406Y5646882D01*
X19174406Y5646882D02*
X19193454Y5637358D01*
X19193454Y5637358D02*
X19212501Y5637358D01*
X19355359Y5646882D02*
X19336311Y5637358D01*
X19336311Y5637358D02*
X19298216Y5637358D01*
X19298216Y5637358D02*
X19279168Y5646882D01*
X19279168Y5646882D02*
X19269644Y5665930D01*
X19269644Y5665930D02*
X19269644Y5742120D01*
X19269644Y5742120D02*
X19279168Y5761168D01*
X19279168Y5761168D02*
X19298216Y5770692D01*
X19298216Y5770692D02*
X19336311Y5770692D01*
X19336311Y5770692D02*
X19355359Y5761168D01*
X19355359Y5761168D02*
X19364882Y5742120D01*
X19364882Y5742120D02*
X19364882Y5723073D01*
X19364882Y5723073D02*
X19269644Y5704025D01*
X19536311Y5637358D02*
X19536311Y5837358D01*
X19536311Y5646882D02*
X19517263Y5637358D01*
X19517263Y5637358D02*
X19479168Y5637358D01*
X19479168Y5637358D02*
X19460121Y5646882D01*
X19460121Y5646882D02*
X19450597Y5656406D01*
X19450597Y5656406D02*
X19441073Y5675454D01*
X19441073Y5675454D02*
X19441073Y5732597D01*
X19441073Y5732597D02*
X19450597Y5751644D01*
X19450597Y5751644D02*
X19460121Y5761168D01*
X19460121Y5761168D02*
X19479168Y5770692D01*
X19479168Y5770692D02*
X19517263Y5770692D01*
X19517263Y5770692D02*
X19536311Y5761168D01*
X19612502Y5561168D02*
X19622025Y5570692D01*
X19622025Y5570692D02*
X19641073Y5599263D01*
X19641073Y5599263D02*
X19650597Y5618311D01*
X19650597Y5618311D02*
X19660121Y5646882D01*
X19660121Y5646882D02*
X19669644Y5694501D01*
X19669644Y5694501D02*
X19669644Y5732597D01*
X19669644Y5732597D02*
X19660121Y5780216D01*
X19660121Y5780216D02*
X19650597Y5808787D01*
X19650597Y5808787D02*
X19641073Y5827835D01*
X19641073Y5827835D02*
X19622025Y5856406D01*
X19622025Y5856406D02*
X19612502Y5865930D01*
X12756486Y5508842D02*
X12756486Y5308842D01*
X12656486Y5408842D02*
X12856486Y5408842D01*
X13202977Y5517359D02*
X13164882Y5517359D01*
X13164882Y5517359D02*
X13145834Y5507835D01*
X13145834Y5507835D02*
X13136310Y5498311D01*
X13136310Y5498311D02*
X13117263Y5469740D01*
X13117263Y5469740D02*
X13107739Y5431644D01*
X13107739Y5431644D02*
X13107739Y5355454D01*
X13107739Y5355454D02*
X13117263Y5336406D01*
X13117263Y5336406D02*
X13126787Y5326882D01*
X13126787Y5326882D02*
X13145834Y5317359D01*
X13145834Y5317359D02*
X13183929Y5317359D01*
X13183929Y5317359D02*
X13202977Y5326882D01*
X13202977Y5326882D02*
X13212501Y5336406D01*
X13212501Y5336406D02*
X13222025Y5355454D01*
X13222025Y5355454D02*
X13222025Y5403073D01*
X13222025Y5403073D02*
X13212501Y5422120D01*
X13212501Y5422120D02*
X13202977Y5431644D01*
X13202977Y5431644D02*
X13183929Y5441168D01*
X13183929Y5441168D02*
X13145834Y5441168D01*
X13145834Y5441168D02*
X13126787Y5431644D01*
X13126787Y5431644D02*
X13117263Y5422120D01*
X13117263Y5422120D02*
X13107739Y5403073D01*
X13307739Y5336406D02*
X13317263Y5326882D01*
X13317263Y5326882D02*
X13307739Y5317359D01*
X13307739Y5317359D02*
X13298215Y5326882D01*
X13298215Y5326882D02*
X13307739Y5336406D01*
X13307739Y5336406D02*
X13307739Y5317359D01*
X13383929Y5517359D02*
X13507739Y5517359D01*
X13507739Y5517359D02*
X13441072Y5441168D01*
X13441072Y5441168D02*
X13469644Y5441168D01*
X13469644Y5441168D02*
X13488691Y5431644D01*
X13488691Y5431644D02*
X13498215Y5422120D01*
X13498215Y5422120D02*
X13507739Y5403073D01*
X13507739Y5403073D02*
X13507739Y5355454D01*
X13507739Y5355454D02*
X13498215Y5336406D01*
X13498215Y5336406D02*
X13488691Y5326882D01*
X13488691Y5326882D02*
X13469644Y5317359D01*
X13469644Y5317359D02*
X13412501Y5317359D01*
X13412501Y5317359D02*
X13393453Y5326882D01*
X13393453Y5326882D02*
X13383929Y5336406D01*
X13688691Y5517359D02*
X13593453Y5517359D01*
X13593453Y5517359D02*
X13583929Y5422120D01*
X13583929Y5422120D02*
X13593453Y5431644D01*
X13593453Y5431644D02*
X13612501Y5441168D01*
X13612501Y5441168D02*
X13660120Y5441168D01*
X13660120Y5441168D02*
X13679168Y5431644D01*
X13679168Y5431644D02*
X13688691Y5422120D01*
X13688691Y5422120D02*
X13698215Y5403073D01*
X13698215Y5403073D02*
X13698215Y5355454D01*
X13698215Y5355454D02*
X13688691Y5336406D01*
X13688691Y5336406D02*
X13679168Y5326882D01*
X13679168Y5326882D02*
X13660120Y5317359D01*
X13660120Y5317359D02*
X13612501Y5317359D01*
X13612501Y5317359D02*
X13593453Y5326882D01*
X13593453Y5326882D02*
X13583929Y5336406D01*
X13822025Y5517359D02*
X13841072Y5517359D01*
X13841072Y5517359D02*
X13860120Y5507835D01*
X13860120Y5507835D02*
X13869644Y5498311D01*
X13869644Y5498311D02*
X13879168Y5479263D01*
X13879168Y5479263D02*
X13888691Y5441168D01*
X13888691Y5441168D02*
X13888691Y5393549D01*
X13888691Y5393549D02*
X13879168Y5355454D01*
X13879168Y5355454D02*
X13869644Y5336406D01*
X13869644Y5336406D02*
X13860120Y5326882D01*
X13860120Y5326882D02*
X13841072Y5317359D01*
X13841072Y5317359D02*
X13822025Y5317359D01*
X13822025Y5317359D02*
X13802977Y5326882D01*
X13802977Y5326882D02*
X13793453Y5336406D01*
X13793453Y5336406D02*
X13783929Y5355454D01*
X13783929Y5355454D02*
X13774406Y5393549D01*
X13774406Y5393549D02*
X13774406Y5441168D01*
X13774406Y5441168D02*
X13783929Y5479263D01*
X13783929Y5479263D02*
X13793453Y5498311D01*
X13793453Y5498311D02*
X13802977Y5507835D01*
X13802977Y5507835D02*
X13822025Y5517359D01*
X13974406Y5317359D02*
X13974406Y5450692D01*
X13974406Y5431644D02*
X13983929Y5441168D01*
X13983929Y5441168D02*
X14002977Y5450692D01*
X14002977Y5450692D02*
X14031549Y5450692D01*
X14031549Y5450692D02*
X14050596Y5441168D01*
X14050596Y5441168D02*
X14060120Y5422120D01*
X14060120Y5422120D02*
X14060120Y5317359D01*
X14060120Y5422120D02*
X14069644Y5441168D01*
X14069644Y5441168D02*
X14088691Y5450692D01*
X14088691Y5450692D02*
X14117263Y5450692D01*
X14117263Y5450692D02*
X14136310Y5441168D01*
X14136310Y5441168D02*
X14145834Y5422120D01*
X14145834Y5422120D02*
X14145834Y5317359D01*
X14241072Y5317359D02*
X14241072Y5450692D01*
X14241072Y5431644D02*
X14250596Y5441168D01*
X14250596Y5441168D02*
X14269644Y5450692D01*
X14269644Y5450692D02*
X14298215Y5450692D01*
X14298215Y5450692D02*
X14317263Y5441168D01*
X14317263Y5441168D02*
X14326787Y5422120D01*
X14326787Y5422120D02*
X14326787Y5317359D01*
X14326787Y5422120D02*
X14336310Y5441168D01*
X14336310Y5441168D02*
X14355358Y5450692D01*
X14355358Y5450692D02*
X14383929Y5450692D01*
X14383929Y5450692D02*
X14402977Y5441168D01*
X14402977Y5441168D02*
X14412501Y5422120D01*
X14412501Y5422120D02*
X14412501Y5317359D01*
X14802977Y5526882D02*
X14631549Y5269740D01*
X15060120Y5517359D02*
X15079168Y5517359D01*
X15079168Y5517359D02*
X15098215Y5507835D01*
X15098215Y5507835D02*
X15107739Y5498311D01*
X15107739Y5498311D02*
X15117263Y5479263D01*
X15117263Y5479263D02*
X15126787Y5441168D01*
X15126787Y5441168D02*
X15126787Y5393549D01*
X15126787Y5393549D02*
X15117263Y5355454D01*
X15117263Y5355454D02*
X15107739Y5336406D01*
X15107739Y5336406D02*
X15098215Y5326882D01*
X15098215Y5326882D02*
X15079168Y5317359D01*
X15079168Y5317359D02*
X15060120Y5317359D01*
X15060120Y5317359D02*
X15041072Y5326882D01*
X15041072Y5326882D02*
X15031549Y5336406D01*
X15031549Y5336406D02*
X15022025Y5355454D01*
X15022025Y5355454D02*
X15012501Y5393549D01*
X15012501Y5393549D02*
X15012501Y5441168D01*
X15012501Y5441168D02*
X15022025Y5479263D01*
X15022025Y5479263D02*
X15031549Y5498311D01*
X15031549Y5498311D02*
X15041072Y5507835D01*
X15041072Y5507835D02*
X15060120Y5517359D01*
X15212501Y5336406D02*
X15222025Y5326882D01*
X15222025Y5326882D02*
X15212501Y5317359D01*
X15212501Y5317359D02*
X15202977Y5326882D01*
X15202977Y5326882D02*
X15212501Y5336406D01*
X15212501Y5336406D02*
X15212501Y5317359D01*
X15298215Y5498311D02*
X15307739Y5507835D01*
X15307739Y5507835D02*
X15326787Y5517359D01*
X15326787Y5517359D02*
X15374406Y5517359D01*
X15374406Y5517359D02*
X15393453Y5507835D01*
X15393453Y5507835D02*
X15402977Y5498311D01*
X15402977Y5498311D02*
X15412501Y5479263D01*
X15412501Y5479263D02*
X15412501Y5460216D01*
X15412501Y5460216D02*
X15402977Y5431644D01*
X15402977Y5431644D02*
X15288692Y5317359D01*
X15288692Y5317359D02*
X15412501Y5317359D01*
X15593453Y5517359D02*
X15498215Y5517359D01*
X15498215Y5517359D02*
X15488692Y5422120D01*
X15488692Y5422120D02*
X15498215Y5431644D01*
X15498215Y5431644D02*
X15517263Y5441168D01*
X15517263Y5441168D02*
X15564882Y5441168D01*
X15564882Y5441168D02*
X15583930Y5431644D01*
X15583930Y5431644D02*
X15593453Y5422120D01*
X15593453Y5422120D02*
X15602977Y5403073D01*
X15602977Y5403073D02*
X15602977Y5355454D01*
X15602977Y5355454D02*
X15593453Y5336406D01*
X15593453Y5336406D02*
X15583930Y5326882D01*
X15583930Y5326882D02*
X15564882Y5317359D01*
X15564882Y5317359D02*
X15517263Y5317359D01*
X15517263Y5317359D02*
X15498215Y5326882D01*
X15498215Y5326882D02*
X15488692Y5336406D01*
X15726787Y5517359D02*
X15745834Y5517359D01*
X15745834Y5517359D02*
X15764882Y5507835D01*
X15764882Y5507835D02*
X15774406Y5498311D01*
X15774406Y5498311D02*
X15783930Y5479263D01*
X15783930Y5479263D02*
X15793453Y5441168D01*
X15793453Y5441168D02*
X15793453Y5393549D01*
X15793453Y5393549D02*
X15783930Y5355454D01*
X15783930Y5355454D02*
X15774406Y5336406D01*
X15774406Y5336406D02*
X15764882Y5326882D01*
X15764882Y5326882D02*
X15745834Y5317359D01*
X15745834Y5317359D02*
X15726787Y5317359D01*
X15726787Y5317359D02*
X15707739Y5326882D01*
X15707739Y5326882D02*
X15698215Y5336406D01*
X15698215Y5336406D02*
X15688692Y5355454D01*
X15688692Y5355454D02*
X15679168Y5393549D01*
X15679168Y5393549D02*
X15679168Y5441168D01*
X15679168Y5441168D02*
X15688692Y5479263D01*
X15688692Y5479263D02*
X15698215Y5498311D01*
X15698215Y5498311D02*
X15707739Y5507835D01*
X15707739Y5507835D02*
X15726787Y5517359D01*
X15917263Y5517359D02*
X15936311Y5517359D01*
X15936311Y5517359D02*
X15955358Y5507835D01*
X15955358Y5507835D02*
X15964882Y5498311D01*
X15964882Y5498311D02*
X15974406Y5479263D01*
X15974406Y5479263D02*
X15983930Y5441168D01*
X15983930Y5441168D02*
X15983930Y5393549D01*
X15983930Y5393549D02*
X15974406Y5355454D01*
X15974406Y5355454D02*
X15964882Y5336406D01*
X15964882Y5336406D02*
X15955358Y5326882D01*
X15955358Y5326882D02*
X15936311Y5317359D01*
X15936311Y5317359D02*
X15917263Y5317359D01*
X15917263Y5317359D02*
X15898215Y5326882D01*
X15898215Y5326882D02*
X15888692Y5336406D01*
X15888692Y5336406D02*
X15879168Y5355454D01*
X15879168Y5355454D02*
X15869644Y5393549D01*
X15869644Y5393549D02*
X15869644Y5441168D01*
X15869644Y5441168D02*
X15879168Y5479263D01*
X15879168Y5479263D02*
X15888692Y5498311D01*
X15888692Y5498311D02*
X15898215Y5507835D01*
X15898215Y5507835D02*
X15917263Y5517359D01*
X16060120Y5517359D02*
X16060120Y5479263D01*
X16136311Y5517359D02*
X16136311Y5479263D01*
X16431549Y5241168D02*
X16422025Y5250692D01*
X16422025Y5250692D02*
X16402977Y5279263D01*
X16402977Y5279263D02*
X16393454Y5298311D01*
X16393454Y5298311D02*
X16383930Y5326882D01*
X16383930Y5326882D02*
X16374406Y5374501D01*
X16374406Y5374501D02*
X16374406Y5412597D01*
X16374406Y5412597D02*
X16383930Y5460216D01*
X16383930Y5460216D02*
X16393454Y5488787D01*
X16393454Y5488787D02*
X16402977Y5507835D01*
X16402977Y5507835D02*
X16422025Y5536406D01*
X16422025Y5536406D02*
X16431549Y5545930D01*
X16498215Y5498311D02*
X16507739Y5507835D01*
X16507739Y5507835D02*
X16526787Y5517359D01*
X16526787Y5517359D02*
X16574406Y5517359D01*
X16574406Y5517359D02*
X16593454Y5507835D01*
X16593454Y5507835D02*
X16602977Y5498311D01*
X16602977Y5498311D02*
X16612501Y5479263D01*
X16612501Y5479263D02*
X16612501Y5460216D01*
X16612501Y5460216D02*
X16602977Y5431644D01*
X16602977Y5431644D02*
X16488692Y5317359D01*
X16488692Y5317359D02*
X16612501Y5317359D01*
X16850597Y5317359D02*
X16850597Y5517359D01*
X16936311Y5317359D02*
X16936311Y5422120D01*
X16936311Y5422120D02*
X16926787Y5441168D01*
X16926787Y5441168D02*
X16907739Y5450692D01*
X16907739Y5450692D02*
X16879168Y5450692D01*
X16879168Y5450692D02*
X16860120Y5441168D01*
X16860120Y5441168D02*
X16850597Y5431644D01*
X17060120Y5317359D02*
X17041073Y5326882D01*
X17041073Y5326882D02*
X17031549Y5336406D01*
X17031549Y5336406D02*
X17022025Y5355454D01*
X17022025Y5355454D02*
X17022025Y5412597D01*
X17022025Y5412597D02*
X17031549Y5431644D01*
X17031549Y5431644D02*
X17041073Y5441168D01*
X17041073Y5441168D02*
X17060120Y5450692D01*
X17060120Y5450692D02*
X17088692Y5450692D01*
X17088692Y5450692D02*
X17107739Y5441168D01*
X17107739Y5441168D02*
X17117263Y5431644D01*
X17117263Y5431644D02*
X17126787Y5412597D01*
X17126787Y5412597D02*
X17126787Y5355454D01*
X17126787Y5355454D02*
X17117263Y5336406D01*
X17117263Y5336406D02*
X17107739Y5326882D01*
X17107739Y5326882D02*
X17088692Y5317359D01*
X17088692Y5317359D02*
X17060120Y5317359D01*
X17241073Y5317359D02*
X17222025Y5326882D01*
X17222025Y5326882D02*
X17212501Y5345930D01*
X17212501Y5345930D02*
X17212501Y5517359D01*
X17393454Y5326882D02*
X17374406Y5317359D01*
X17374406Y5317359D02*
X17336311Y5317359D01*
X17336311Y5317359D02*
X17317263Y5326882D01*
X17317263Y5326882D02*
X17307739Y5345930D01*
X17307739Y5345930D02*
X17307739Y5422120D01*
X17307739Y5422120D02*
X17317263Y5441168D01*
X17317263Y5441168D02*
X17336311Y5450692D01*
X17336311Y5450692D02*
X17374406Y5450692D01*
X17374406Y5450692D02*
X17393454Y5441168D01*
X17393454Y5441168D02*
X17402978Y5422120D01*
X17402978Y5422120D02*
X17402978Y5403073D01*
X17402978Y5403073D02*
X17307739Y5384025D01*
X17479168Y5326882D02*
X17498216Y5317359D01*
X17498216Y5317359D02*
X17536311Y5317359D01*
X17536311Y5317359D02*
X17555359Y5326882D01*
X17555359Y5326882D02*
X17564882Y5345930D01*
X17564882Y5345930D02*
X17564882Y5355454D01*
X17564882Y5355454D02*
X17555359Y5374501D01*
X17555359Y5374501D02*
X17536311Y5384025D01*
X17536311Y5384025D02*
X17507739Y5384025D01*
X17507739Y5384025D02*
X17488692Y5393549D01*
X17488692Y5393549D02*
X17479168Y5412597D01*
X17479168Y5412597D02*
X17479168Y5422120D01*
X17479168Y5422120D02*
X17488692Y5441168D01*
X17488692Y5441168D02*
X17507739Y5450692D01*
X17507739Y5450692D02*
X17536311Y5450692D01*
X17536311Y5450692D02*
X17555359Y5441168D01*
X17631549Y5241168D02*
X17641073Y5250692D01*
X17641073Y5250692D02*
X17660120Y5279263D01*
X17660120Y5279263D02*
X17669644Y5298311D01*
X17669644Y5298311D02*
X17679168Y5326882D01*
X17679168Y5326882D02*
X17688692Y5374501D01*
X17688692Y5374501D02*
X17688692Y5412597D01*
X17688692Y5412597D02*
X17679168Y5460216D01*
X17679168Y5460216D02*
X17669644Y5488787D01*
X17669644Y5488787D02*
X17660120Y5507835D01*
X17660120Y5507835D02*
X17641073Y5536406D01*
X17641073Y5536406D02*
X17631549Y5545930D01*
X17993454Y5241168D02*
X17983930Y5250692D01*
X17983930Y5250692D02*
X17964882Y5279263D01*
X17964882Y5279263D02*
X17955359Y5298311D01*
X17955359Y5298311D02*
X17945835Y5326882D01*
X17945835Y5326882D02*
X17936311Y5374501D01*
X17936311Y5374501D02*
X17936311Y5412597D01*
X17936311Y5412597D02*
X17945835Y5460216D01*
X17945835Y5460216D02*
X17955359Y5488787D01*
X17955359Y5488787D02*
X17964882Y5507835D01*
X17964882Y5507835D02*
X17983930Y5536406D01*
X17983930Y5536406D02*
X17993454Y5545930D01*
X18069644Y5450692D02*
X18069644Y5317359D01*
X18069644Y5431644D02*
X18079168Y5441168D01*
X18079168Y5441168D02*
X18098216Y5450692D01*
X18098216Y5450692D02*
X18126787Y5450692D01*
X18126787Y5450692D02*
X18145835Y5441168D01*
X18145835Y5441168D02*
X18155359Y5422120D01*
X18155359Y5422120D02*
X18155359Y5317359D01*
X18279168Y5317359D02*
X18260120Y5326882D01*
X18260120Y5326882D02*
X18250597Y5336406D01*
X18250597Y5336406D02*
X18241073Y5355454D01*
X18241073Y5355454D02*
X18241073Y5412597D01*
X18241073Y5412597D02*
X18250597Y5431644D01*
X18250597Y5431644D02*
X18260120Y5441168D01*
X18260120Y5441168D02*
X18279168Y5450692D01*
X18279168Y5450692D02*
X18307740Y5450692D01*
X18307740Y5450692D02*
X18326787Y5441168D01*
X18326787Y5441168D02*
X18336311Y5431644D01*
X18336311Y5431644D02*
X18345835Y5412597D01*
X18345835Y5412597D02*
X18345835Y5355454D01*
X18345835Y5355454D02*
X18336311Y5336406D01*
X18336311Y5336406D02*
X18326787Y5326882D01*
X18326787Y5326882D02*
X18307740Y5317359D01*
X18307740Y5317359D02*
X18279168Y5317359D01*
X18402978Y5450692D02*
X18479168Y5450692D01*
X18431549Y5517359D02*
X18431549Y5345930D01*
X18431549Y5345930D02*
X18441073Y5326882D01*
X18441073Y5326882D02*
X18460120Y5317359D01*
X18460120Y5317359D02*
X18479168Y5317359D01*
X18698216Y5450692D02*
X18698216Y5250692D01*
X18698216Y5441168D02*
X18717263Y5450692D01*
X18717263Y5450692D02*
X18755359Y5450692D01*
X18755359Y5450692D02*
X18774406Y5441168D01*
X18774406Y5441168D02*
X18783930Y5431644D01*
X18783930Y5431644D02*
X18793454Y5412597D01*
X18793454Y5412597D02*
X18793454Y5355454D01*
X18793454Y5355454D02*
X18783930Y5336406D01*
X18783930Y5336406D02*
X18774406Y5326882D01*
X18774406Y5326882D02*
X18755359Y5317359D01*
X18755359Y5317359D02*
X18717263Y5317359D01*
X18717263Y5317359D02*
X18698216Y5326882D01*
X18907740Y5317359D02*
X18888692Y5326882D01*
X18888692Y5326882D02*
X18879168Y5345930D01*
X18879168Y5345930D02*
X18879168Y5517359D01*
X19069644Y5317359D02*
X19069644Y5422120D01*
X19069644Y5422120D02*
X19060121Y5441168D01*
X19060121Y5441168D02*
X19041073Y5450692D01*
X19041073Y5450692D02*
X19002978Y5450692D01*
X19002978Y5450692D02*
X18983930Y5441168D01*
X19069644Y5326882D02*
X19050597Y5317359D01*
X19050597Y5317359D02*
X19002978Y5317359D01*
X19002978Y5317359D02*
X18983930Y5326882D01*
X18983930Y5326882D02*
X18974406Y5345930D01*
X18974406Y5345930D02*
X18974406Y5364978D01*
X18974406Y5364978D02*
X18983930Y5384025D01*
X18983930Y5384025D02*
X19002978Y5393549D01*
X19002978Y5393549D02*
X19050597Y5393549D01*
X19050597Y5393549D02*
X19069644Y5403073D01*
X19136311Y5450692D02*
X19212501Y5450692D01*
X19164882Y5517359D02*
X19164882Y5345930D01*
X19164882Y5345930D02*
X19174406Y5326882D01*
X19174406Y5326882D02*
X19193454Y5317359D01*
X19193454Y5317359D02*
X19212501Y5317359D01*
X19355359Y5326882D02*
X19336311Y5317359D01*
X19336311Y5317359D02*
X19298216Y5317359D01*
X19298216Y5317359D02*
X19279168Y5326882D01*
X19279168Y5326882D02*
X19269644Y5345930D01*
X19269644Y5345930D02*
X19269644Y5422120D01*
X19269644Y5422120D02*
X19279168Y5441168D01*
X19279168Y5441168D02*
X19298216Y5450692D01*
X19298216Y5450692D02*
X19336311Y5450692D01*
X19336311Y5450692D02*
X19355359Y5441168D01*
X19355359Y5441168D02*
X19364882Y5422120D01*
X19364882Y5422120D02*
X19364882Y5403073D01*
X19364882Y5403073D02*
X19269644Y5384025D01*
X19536311Y5317359D02*
X19536311Y5517359D01*
X19536311Y5326882D02*
X19517263Y5317359D01*
X19517263Y5317359D02*
X19479168Y5317359D01*
X19479168Y5317359D02*
X19460121Y5326882D01*
X19460121Y5326882D02*
X19450597Y5336406D01*
X19450597Y5336406D02*
X19441073Y5355454D01*
X19441073Y5355454D02*
X19441073Y5412597D01*
X19441073Y5412597D02*
X19450597Y5431644D01*
X19450597Y5431644D02*
X19460121Y5441168D01*
X19460121Y5441168D02*
X19479168Y5450692D01*
X19479168Y5450692D02*
X19517263Y5450692D01*
X19517263Y5450692D02*
X19536311Y5441168D01*
X19612502Y5241168D02*
X19622025Y5250692D01*
X19622025Y5250692D02*
X19641073Y5279263D01*
X19641073Y5279263D02*
X19650597Y5298311D01*
X19650597Y5298311D02*
X19660121Y5326882D01*
X19660121Y5326882D02*
X19669644Y5374501D01*
X19669644Y5374501D02*
X19669644Y5412597D01*
X19669644Y5412597D02*
X19660121Y5460216D01*
X19660121Y5460216D02*
X19650597Y5488787D01*
X19650597Y5488787D02*
X19641073Y5507835D01*
X19641073Y5507835D02*
X19622025Y5536406D01*
X19622025Y5536406D02*
X19612502Y5545930D01*
X12827197Y5018131D02*
X12827197Y5159554D01*
X12685775Y5159554D01*
X12685775Y5018131D01*
X12827197Y5018131D01*
X13145834Y5111644D02*
X13126787Y5121168D01*
X13126787Y5121168D02*
X13117263Y5130692D01*
X13117263Y5130692D02*
X13107739Y5149740D01*
X13107739Y5149740D02*
X13107739Y5159263D01*
X13107739Y5159263D02*
X13117263Y5178311D01*
X13117263Y5178311D02*
X13126787Y5187835D01*
X13126787Y5187835D02*
X13145834Y5197359D01*
X13145834Y5197359D02*
X13183929Y5197359D01*
X13183929Y5197359D02*
X13202977Y5187835D01*
X13202977Y5187835D02*
X13212501Y5178311D01*
X13212501Y5178311D02*
X13222025Y5159263D01*
X13222025Y5159263D02*
X13222025Y5149740D01*
X13222025Y5149740D02*
X13212501Y5130692D01*
X13212501Y5130692D02*
X13202977Y5121168D01*
X13202977Y5121168D02*
X13183929Y5111644D01*
X13183929Y5111644D02*
X13145834Y5111644D01*
X13145834Y5111644D02*
X13126787Y5102120D01*
X13126787Y5102120D02*
X13117263Y5092597D01*
X13117263Y5092597D02*
X13107739Y5073549D01*
X13107739Y5073549D02*
X13107739Y5035454D01*
X13107739Y5035454D02*
X13117263Y5016406D01*
X13117263Y5016406D02*
X13126787Y5006882D01*
X13126787Y5006882D02*
X13145834Y4997359D01*
X13145834Y4997359D02*
X13183929Y4997359D01*
X13183929Y4997359D02*
X13202977Y5006882D01*
X13202977Y5006882D02*
X13212501Y5016406D01*
X13212501Y5016406D02*
X13222025Y5035454D01*
X13222025Y5035454D02*
X13222025Y5073549D01*
X13222025Y5073549D02*
X13212501Y5092597D01*
X13212501Y5092597D02*
X13202977Y5102120D01*
X13202977Y5102120D02*
X13183929Y5111644D01*
X13307739Y5016406D02*
X13317263Y5006882D01*
X13317263Y5006882D02*
X13307739Y4997359D01*
X13307739Y4997359D02*
X13298215Y5006882D01*
X13298215Y5006882D02*
X13307739Y5016406D01*
X13307739Y5016406D02*
X13307739Y4997359D01*
X13488691Y5130692D02*
X13488691Y4997359D01*
X13441072Y5206882D02*
X13393453Y5064025D01*
X13393453Y5064025D02*
X13517263Y5064025D01*
X13631548Y5197359D02*
X13650596Y5197359D01*
X13650596Y5197359D02*
X13669644Y5187835D01*
X13669644Y5187835D02*
X13679168Y5178311D01*
X13679168Y5178311D02*
X13688691Y5159263D01*
X13688691Y5159263D02*
X13698215Y5121168D01*
X13698215Y5121168D02*
X13698215Y5073549D01*
X13698215Y5073549D02*
X13688691Y5035454D01*
X13688691Y5035454D02*
X13679168Y5016406D01*
X13679168Y5016406D02*
X13669644Y5006882D01*
X13669644Y5006882D02*
X13650596Y4997359D01*
X13650596Y4997359D02*
X13631548Y4997359D01*
X13631548Y4997359D02*
X13612501Y5006882D01*
X13612501Y5006882D02*
X13602977Y5016406D01*
X13602977Y5016406D02*
X13593453Y5035454D01*
X13593453Y5035454D02*
X13583929Y5073549D01*
X13583929Y5073549D02*
X13583929Y5121168D01*
X13583929Y5121168D02*
X13593453Y5159263D01*
X13593453Y5159263D02*
X13602977Y5178311D01*
X13602977Y5178311D02*
X13612501Y5187835D01*
X13612501Y5187835D02*
X13631548Y5197359D01*
X13822025Y5197359D02*
X13841072Y5197359D01*
X13841072Y5197359D02*
X13860120Y5187835D01*
X13860120Y5187835D02*
X13869644Y5178311D01*
X13869644Y5178311D02*
X13879168Y5159263D01*
X13879168Y5159263D02*
X13888691Y5121168D01*
X13888691Y5121168D02*
X13888691Y5073549D01*
X13888691Y5073549D02*
X13879168Y5035454D01*
X13879168Y5035454D02*
X13869644Y5016406D01*
X13869644Y5016406D02*
X13860120Y5006882D01*
X13860120Y5006882D02*
X13841072Y4997359D01*
X13841072Y4997359D02*
X13822025Y4997359D01*
X13822025Y4997359D02*
X13802977Y5006882D01*
X13802977Y5006882D02*
X13793453Y5016406D01*
X13793453Y5016406D02*
X13783929Y5035454D01*
X13783929Y5035454D02*
X13774406Y5073549D01*
X13774406Y5073549D02*
X13774406Y5121168D01*
X13774406Y5121168D02*
X13783929Y5159263D01*
X13783929Y5159263D02*
X13793453Y5178311D01*
X13793453Y5178311D02*
X13802977Y5187835D01*
X13802977Y5187835D02*
X13822025Y5197359D01*
X13974406Y4997359D02*
X13974406Y5130692D01*
X13974406Y5111644D02*
X13983929Y5121168D01*
X13983929Y5121168D02*
X14002977Y5130692D01*
X14002977Y5130692D02*
X14031549Y5130692D01*
X14031549Y5130692D02*
X14050596Y5121168D01*
X14050596Y5121168D02*
X14060120Y5102120D01*
X14060120Y5102120D02*
X14060120Y4997359D01*
X14060120Y5102120D02*
X14069644Y5121168D01*
X14069644Y5121168D02*
X14088691Y5130692D01*
X14088691Y5130692D02*
X14117263Y5130692D01*
X14117263Y5130692D02*
X14136310Y5121168D01*
X14136310Y5121168D02*
X14145834Y5102120D01*
X14145834Y5102120D02*
X14145834Y4997359D01*
X14241072Y4997359D02*
X14241072Y5130692D01*
X14241072Y5111644D02*
X14250596Y5121168D01*
X14250596Y5121168D02*
X14269644Y5130692D01*
X14269644Y5130692D02*
X14298215Y5130692D01*
X14298215Y5130692D02*
X14317263Y5121168D01*
X14317263Y5121168D02*
X14326787Y5102120D01*
X14326787Y5102120D02*
X14326787Y4997359D01*
X14326787Y5102120D02*
X14336310Y5121168D01*
X14336310Y5121168D02*
X14355358Y5130692D01*
X14355358Y5130692D02*
X14383929Y5130692D01*
X14383929Y5130692D02*
X14402977Y5121168D01*
X14402977Y5121168D02*
X14412501Y5102120D01*
X14412501Y5102120D02*
X14412501Y4997359D01*
X14802977Y5206882D02*
X14631549Y4949740D01*
X15060120Y5197359D02*
X15079168Y5197359D01*
X15079168Y5197359D02*
X15098215Y5187835D01*
X15098215Y5187835D02*
X15107739Y5178311D01*
X15107739Y5178311D02*
X15117263Y5159263D01*
X15117263Y5159263D02*
X15126787Y5121168D01*
X15126787Y5121168D02*
X15126787Y5073549D01*
X15126787Y5073549D02*
X15117263Y5035454D01*
X15117263Y5035454D02*
X15107739Y5016406D01*
X15107739Y5016406D02*
X15098215Y5006882D01*
X15098215Y5006882D02*
X15079168Y4997359D01*
X15079168Y4997359D02*
X15060120Y4997359D01*
X15060120Y4997359D02*
X15041072Y5006882D01*
X15041072Y5006882D02*
X15031549Y5016406D01*
X15031549Y5016406D02*
X15022025Y5035454D01*
X15022025Y5035454D02*
X15012501Y5073549D01*
X15012501Y5073549D02*
X15012501Y5121168D01*
X15012501Y5121168D02*
X15022025Y5159263D01*
X15022025Y5159263D02*
X15031549Y5178311D01*
X15031549Y5178311D02*
X15041072Y5187835D01*
X15041072Y5187835D02*
X15060120Y5197359D01*
X15212501Y5016406D02*
X15222025Y5006882D01*
X15222025Y5006882D02*
X15212501Y4997359D01*
X15212501Y4997359D02*
X15202977Y5006882D01*
X15202977Y5006882D02*
X15212501Y5016406D01*
X15212501Y5016406D02*
X15212501Y4997359D01*
X15288692Y5197359D02*
X15412501Y5197359D01*
X15412501Y5197359D02*
X15345834Y5121168D01*
X15345834Y5121168D02*
X15374406Y5121168D01*
X15374406Y5121168D02*
X15393453Y5111644D01*
X15393453Y5111644D02*
X15402977Y5102120D01*
X15402977Y5102120D02*
X15412501Y5083073D01*
X15412501Y5083073D02*
X15412501Y5035454D01*
X15412501Y5035454D02*
X15402977Y5016406D01*
X15402977Y5016406D02*
X15393453Y5006882D01*
X15393453Y5006882D02*
X15374406Y4997359D01*
X15374406Y4997359D02*
X15317263Y4997359D01*
X15317263Y4997359D02*
X15298215Y5006882D01*
X15298215Y5006882D02*
X15288692Y5016406D01*
X15479168Y5197359D02*
X15602977Y5197359D01*
X15602977Y5197359D02*
X15536311Y5121168D01*
X15536311Y5121168D02*
X15564882Y5121168D01*
X15564882Y5121168D02*
X15583930Y5111644D01*
X15583930Y5111644D02*
X15593453Y5102120D01*
X15593453Y5102120D02*
X15602977Y5083073D01*
X15602977Y5083073D02*
X15602977Y5035454D01*
X15602977Y5035454D02*
X15593453Y5016406D01*
X15593453Y5016406D02*
X15583930Y5006882D01*
X15583930Y5006882D02*
X15564882Y4997359D01*
X15564882Y4997359D02*
X15507739Y4997359D01*
X15507739Y4997359D02*
X15488692Y5006882D01*
X15488692Y5006882D02*
X15479168Y5016406D01*
X15726787Y5197359D02*
X15745834Y5197359D01*
X15745834Y5197359D02*
X15764882Y5187835D01*
X15764882Y5187835D02*
X15774406Y5178311D01*
X15774406Y5178311D02*
X15783930Y5159263D01*
X15783930Y5159263D02*
X15793453Y5121168D01*
X15793453Y5121168D02*
X15793453Y5073549D01*
X15793453Y5073549D02*
X15783930Y5035454D01*
X15783930Y5035454D02*
X15774406Y5016406D01*
X15774406Y5016406D02*
X15764882Y5006882D01*
X15764882Y5006882D02*
X15745834Y4997359D01*
X15745834Y4997359D02*
X15726787Y4997359D01*
X15726787Y4997359D02*
X15707739Y5006882D01*
X15707739Y5006882D02*
X15698215Y5016406D01*
X15698215Y5016406D02*
X15688692Y5035454D01*
X15688692Y5035454D02*
X15679168Y5073549D01*
X15679168Y5073549D02*
X15679168Y5121168D01*
X15679168Y5121168D02*
X15688692Y5159263D01*
X15688692Y5159263D02*
X15698215Y5178311D01*
X15698215Y5178311D02*
X15707739Y5187835D01*
X15707739Y5187835D02*
X15726787Y5197359D01*
X15860120Y5197359D02*
X15993453Y5197359D01*
X15993453Y5197359D02*
X15907739Y4997359D01*
X16060120Y5197359D02*
X16060120Y5159263D01*
X16136311Y5197359D02*
X16136311Y5159263D01*
X16431549Y4921168D02*
X16422025Y4930692D01*
X16422025Y4930692D02*
X16402977Y4959263D01*
X16402977Y4959263D02*
X16393454Y4978311D01*
X16393454Y4978311D02*
X16383930Y5006882D01*
X16383930Y5006882D02*
X16374406Y5054501D01*
X16374406Y5054501D02*
X16374406Y5092597D01*
X16374406Y5092597D02*
X16383930Y5140216D01*
X16383930Y5140216D02*
X16393454Y5168787D01*
X16393454Y5168787D02*
X16402977Y5187835D01*
X16402977Y5187835D02*
X16422025Y5216406D01*
X16422025Y5216406D02*
X16431549Y5225930D01*
X16498215Y5178311D02*
X16507739Y5187835D01*
X16507739Y5187835D02*
X16526787Y5197359D01*
X16526787Y5197359D02*
X16574406Y5197359D01*
X16574406Y5197359D02*
X16593454Y5187835D01*
X16593454Y5187835D02*
X16602977Y5178311D01*
X16602977Y5178311D02*
X16612501Y5159263D01*
X16612501Y5159263D02*
X16612501Y5140216D01*
X16612501Y5140216D02*
X16602977Y5111644D01*
X16602977Y5111644D02*
X16488692Y4997359D01*
X16488692Y4997359D02*
X16612501Y4997359D01*
X16850597Y4997359D02*
X16850597Y5197359D01*
X16936311Y4997359D02*
X16936311Y5102120D01*
X16936311Y5102120D02*
X16926787Y5121168D01*
X16926787Y5121168D02*
X16907739Y5130692D01*
X16907739Y5130692D02*
X16879168Y5130692D01*
X16879168Y5130692D02*
X16860120Y5121168D01*
X16860120Y5121168D02*
X16850597Y5111644D01*
X17060120Y4997359D02*
X17041073Y5006882D01*
X17041073Y5006882D02*
X17031549Y5016406D01*
X17031549Y5016406D02*
X17022025Y5035454D01*
X17022025Y5035454D02*
X17022025Y5092597D01*
X17022025Y5092597D02*
X17031549Y5111644D01*
X17031549Y5111644D02*
X17041073Y5121168D01*
X17041073Y5121168D02*
X17060120Y5130692D01*
X17060120Y5130692D02*
X17088692Y5130692D01*
X17088692Y5130692D02*
X17107739Y5121168D01*
X17107739Y5121168D02*
X17117263Y5111644D01*
X17117263Y5111644D02*
X17126787Y5092597D01*
X17126787Y5092597D02*
X17126787Y5035454D01*
X17126787Y5035454D02*
X17117263Y5016406D01*
X17117263Y5016406D02*
X17107739Y5006882D01*
X17107739Y5006882D02*
X17088692Y4997359D01*
X17088692Y4997359D02*
X17060120Y4997359D01*
X17241073Y4997359D02*
X17222025Y5006882D01*
X17222025Y5006882D02*
X17212501Y5025930D01*
X17212501Y5025930D02*
X17212501Y5197359D01*
X17393454Y5006882D02*
X17374406Y4997359D01*
X17374406Y4997359D02*
X17336311Y4997359D01*
X17336311Y4997359D02*
X17317263Y5006882D01*
X17317263Y5006882D02*
X17307739Y5025930D01*
X17307739Y5025930D02*
X17307739Y5102120D01*
X17307739Y5102120D02*
X17317263Y5121168D01*
X17317263Y5121168D02*
X17336311Y5130692D01*
X17336311Y5130692D02*
X17374406Y5130692D01*
X17374406Y5130692D02*
X17393454Y5121168D01*
X17393454Y5121168D02*
X17402978Y5102120D01*
X17402978Y5102120D02*
X17402978Y5083073D01*
X17402978Y5083073D02*
X17307739Y5064025D01*
X17479168Y5006882D02*
X17498216Y4997359D01*
X17498216Y4997359D02*
X17536311Y4997359D01*
X17536311Y4997359D02*
X17555359Y5006882D01*
X17555359Y5006882D02*
X17564882Y5025930D01*
X17564882Y5025930D02*
X17564882Y5035454D01*
X17564882Y5035454D02*
X17555359Y5054501D01*
X17555359Y5054501D02*
X17536311Y5064025D01*
X17536311Y5064025D02*
X17507739Y5064025D01*
X17507739Y5064025D02*
X17488692Y5073549D01*
X17488692Y5073549D02*
X17479168Y5092597D01*
X17479168Y5092597D02*
X17479168Y5102120D01*
X17479168Y5102120D02*
X17488692Y5121168D01*
X17488692Y5121168D02*
X17507739Y5130692D01*
X17507739Y5130692D02*
X17536311Y5130692D01*
X17536311Y5130692D02*
X17555359Y5121168D01*
X17631549Y4921168D02*
X17641073Y4930692D01*
X17641073Y4930692D02*
X17660120Y4959263D01*
X17660120Y4959263D02*
X17669644Y4978311D01*
X17669644Y4978311D02*
X17679168Y5006882D01*
X17679168Y5006882D02*
X17688692Y5054501D01*
X17688692Y5054501D02*
X17688692Y5092597D01*
X17688692Y5092597D02*
X17679168Y5140216D01*
X17679168Y5140216D02*
X17669644Y5168787D01*
X17669644Y5168787D02*
X17660120Y5187835D01*
X17660120Y5187835D02*
X17641073Y5216406D01*
X17641073Y5216406D02*
X17631549Y5225930D01*
X17993454Y4921168D02*
X17983930Y4930692D01*
X17983930Y4930692D02*
X17964882Y4959263D01*
X17964882Y4959263D02*
X17955359Y4978311D01*
X17955359Y4978311D02*
X17945835Y5006882D01*
X17945835Y5006882D02*
X17936311Y5054501D01*
X17936311Y5054501D02*
X17936311Y5092597D01*
X17936311Y5092597D02*
X17945835Y5140216D01*
X17945835Y5140216D02*
X17955359Y5168787D01*
X17955359Y5168787D02*
X17964882Y5187835D01*
X17964882Y5187835D02*
X17983930Y5216406D01*
X17983930Y5216406D02*
X17993454Y5225930D01*
X18069644Y5130692D02*
X18069644Y4997359D01*
X18069644Y5111644D02*
X18079168Y5121168D01*
X18079168Y5121168D02*
X18098216Y5130692D01*
X18098216Y5130692D02*
X18126787Y5130692D01*
X18126787Y5130692D02*
X18145835Y5121168D01*
X18145835Y5121168D02*
X18155359Y5102120D01*
X18155359Y5102120D02*
X18155359Y4997359D01*
X18279168Y4997359D02*
X18260120Y5006882D01*
X18260120Y5006882D02*
X18250597Y5016406D01*
X18250597Y5016406D02*
X18241073Y5035454D01*
X18241073Y5035454D02*
X18241073Y5092597D01*
X18241073Y5092597D02*
X18250597Y5111644D01*
X18250597Y5111644D02*
X18260120Y5121168D01*
X18260120Y5121168D02*
X18279168Y5130692D01*
X18279168Y5130692D02*
X18307740Y5130692D01*
X18307740Y5130692D02*
X18326787Y5121168D01*
X18326787Y5121168D02*
X18336311Y5111644D01*
X18336311Y5111644D02*
X18345835Y5092597D01*
X18345835Y5092597D02*
X18345835Y5035454D01*
X18345835Y5035454D02*
X18336311Y5016406D01*
X18336311Y5016406D02*
X18326787Y5006882D01*
X18326787Y5006882D02*
X18307740Y4997359D01*
X18307740Y4997359D02*
X18279168Y4997359D01*
X18402978Y5130692D02*
X18479168Y5130692D01*
X18431549Y5197359D02*
X18431549Y5025930D01*
X18431549Y5025930D02*
X18441073Y5006882D01*
X18441073Y5006882D02*
X18460120Y4997359D01*
X18460120Y4997359D02*
X18479168Y4997359D01*
X18698216Y5130692D02*
X18698216Y4930692D01*
X18698216Y5121168D02*
X18717263Y5130692D01*
X18717263Y5130692D02*
X18755359Y5130692D01*
X18755359Y5130692D02*
X18774406Y5121168D01*
X18774406Y5121168D02*
X18783930Y5111644D01*
X18783930Y5111644D02*
X18793454Y5092597D01*
X18793454Y5092597D02*
X18793454Y5035454D01*
X18793454Y5035454D02*
X18783930Y5016406D01*
X18783930Y5016406D02*
X18774406Y5006882D01*
X18774406Y5006882D02*
X18755359Y4997359D01*
X18755359Y4997359D02*
X18717263Y4997359D01*
X18717263Y4997359D02*
X18698216Y5006882D01*
X18907740Y4997359D02*
X18888692Y5006882D01*
X18888692Y5006882D02*
X18879168Y5025930D01*
X18879168Y5025930D02*
X18879168Y5197359D01*
X19069644Y4997359D02*
X19069644Y5102120D01*
X19069644Y5102120D02*
X19060121Y5121168D01*
X19060121Y5121168D02*
X19041073Y5130692D01*
X19041073Y5130692D02*
X19002978Y5130692D01*
X19002978Y5130692D02*
X18983930Y5121168D01*
X19069644Y5006882D02*
X19050597Y4997359D01*
X19050597Y4997359D02*
X19002978Y4997359D01*
X19002978Y4997359D02*
X18983930Y5006882D01*
X18983930Y5006882D02*
X18974406Y5025930D01*
X18974406Y5025930D02*
X18974406Y5044978D01*
X18974406Y5044978D02*
X18983930Y5064025D01*
X18983930Y5064025D02*
X19002978Y5073549D01*
X19002978Y5073549D02*
X19050597Y5073549D01*
X19050597Y5073549D02*
X19069644Y5083073D01*
X19136311Y5130692D02*
X19212501Y5130692D01*
X19164882Y5197359D02*
X19164882Y5025930D01*
X19164882Y5025930D02*
X19174406Y5006882D01*
X19174406Y5006882D02*
X19193454Y4997359D01*
X19193454Y4997359D02*
X19212501Y4997359D01*
X19355359Y5006882D02*
X19336311Y4997359D01*
X19336311Y4997359D02*
X19298216Y4997359D01*
X19298216Y4997359D02*
X19279168Y5006882D01*
X19279168Y5006882D02*
X19269644Y5025930D01*
X19269644Y5025930D02*
X19269644Y5102120D01*
X19269644Y5102120D02*
X19279168Y5121168D01*
X19279168Y5121168D02*
X19298216Y5130692D01*
X19298216Y5130692D02*
X19336311Y5130692D01*
X19336311Y5130692D02*
X19355359Y5121168D01*
X19355359Y5121168D02*
X19364882Y5102120D01*
X19364882Y5102120D02*
X19364882Y5083073D01*
X19364882Y5083073D02*
X19269644Y5064025D01*
X19536311Y4997359D02*
X19536311Y5197359D01*
X19536311Y5006882D02*
X19517263Y4997359D01*
X19517263Y4997359D02*
X19479168Y4997359D01*
X19479168Y4997359D02*
X19460121Y5006882D01*
X19460121Y5006882D02*
X19450597Y5016406D01*
X19450597Y5016406D02*
X19441073Y5035454D01*
X19441073Y5035454D02*
X19441073Y5092597D01*
X19441073Y5092597D02*
X19450597Y5111644D01*
X19450597Y5111644D02*
X19460121Y5121168D01*
X19460121Y5121168D02*
X19479168Y5130692D01*
X19479168Y5130692D02*
X19517263Y5130692D01*
X19517263Y5130692D02*
X19536311Y5121168D01*
X19612502Y4921168D02*
X19622025Y4930692D01*
X19622025Y4930692D02*
X19641073Y4959263D01*
X19641073Y4959263D02*
X19650597Y4978311D01*
X19650597Y4978311D02*
X19660121Y5006882D01*
X19660121Y5006882D02*
X19669644Y5054501D01*
X19669644Y5054501D02*
X19669644Y5092597D01*
X19669644Y5092597D02*
X19660121Y5140216D01*
X19660121Y5140216D02*
X19650597Y5168787D01*
X19650597Y5168787D02*
X19641073Y5187835D01*
X19641073Y5187835D02*
X19622025Y5216406D01*
X19622025Y5216406D02*
X19612502Y5225930D01*
M02*
