G04 #@! TF.GenerationSoftware,KiCad,Pcbnew,8.0.6*
G04 #@! TF.CreationDate,2024-12-03T14:08:34-05:00*
G04 #@! TF.ProjectId,DDI,4444492e-6b69-4636-9164-5f7063625858,rev?*
G04 #@! TF.SameCoordinates,Original*
G04 #@! TF.FileFunction,Profile,NP*
%FSLAX46Y46*%
G04 Gerber Fmt 4.6, Leading zero omitted, Abs format (unit mm)*
G04 Created by KiCad (PCBNEW 8.0.6) date 2024-12-03 14:08:34*
%MOMM*%
%LPD*%
G01*
G04 APERTURE LIST*
G04 #@! TA.AperFunction,Profile*
%ADD10C,0.100000*%
G04 #@! TD*
G04 APERTURE END LIST*
D10*
X148790316Y66938424D02*
X266627816Y66942923D01*
X242581383Y230312549D02*
X237961860Y234328926D01*
X247153383Y226248549D02*
X286806060Y191436078D01*
X172836749Y230312549D02*
X177459060Y234328926D01*
X168264749Y226248549D02*
X128614860Y191461478D01*
X128614860Y66950678D02*
X128614860Y191461478D01*
X266627816Y69038424D02*
G75*
G02*
X271027816Y69038424I2200000J0D01*
G01*
X242581383Y225486549D02*
X242581383Y230312549D01*
X253497926Y81738423D02*
X161920208Y81738423D01*
X148790316Y69038424D02*
X148790316Y66938424D01*
X177459060Y234328926D02*
X237961860Y234328926D01*
X161920206Y206198424D02*
X253497924Y206198424D01*
X266627816Y69038424D02*
X266627816Y66942923D01*
X253497924Y206198423D02*
G75*
G02*
X269939023Y189757283I-24J-16441123D01*
G01*
X172836749Y225486549D02*
X172836749Y230312549D01*
X144390316Y69038424D02*
G75*
G02*
X148790316Y69038424I2200000J0D01*
G01*
X128614860Y66950678D02*
X144390316Y66950678D01*
X144390316Y69038424D02*
X144390316Y66950678D01*
X247153383Y225486549D02*
X247153383Y226248549D01*
X269939066Y189757283D02*
X269939064Y98179565D01*
X161920208Y81738424D02*
G75*
G02*
X145479024Y98179564I-8J16441176D01*
G01*
X286806060Y66942923D02*
X271027816Y66942923D01*
X269939067Y98179565D02*
G75*
G02*
X253497926Y81738423I-16441137J-5D01*
G01*
X168264749Y225486549D02*
X168264749Y226248549D01*
X172836749Y225486549D02*
G75*
G02*
X168264749Y225486549I-2286000J0D01*
G01*
X271027816Y69038424D02*
X271027816Y66942923D01*
X145479066Y98179564D02*
X145479067Y189757285D01*
X247153383Y225486549D02*
G75*
G02*
X242581383Y225486549I-2286000J0D01*
G01*
X145479065Y189757285D02*
G75*
G02*
X161920206Y206198425I16441145J-5D01*
G01*
X286806060Y66942923D02*
X286806060Y191436078D01*
M02*
