G04 #@! TF.GenerationSoftware,KiCad,Pcbnew,8.0.6*
G04 #@! TF.CreationDate,2024-12-03T13:54:22-05:00*
G04 #@! TF.ProjectId,UFC_Function Select,5546435f-4675-46e6-9374-696f6e205365,rev?*
G04 #@! TF.SameCoordinates,Original*
G04 #@! TF.FileFunction,Paste,Bot*
G04 #@! TF.FilePolarity,Positive*
%FSLAX46Y46*%
G04 Gerber Fmt 4.6, Leading zero omitted, Abs format (unit mm)*
G04 Created by KiCad (PCBNEW 8.0.6) date 2024-12-03 13:54:22*
%MOMM*%
%LPD*%
G01*
G04 APERTURE LIST*
G04 Aperture macros list*
%AMRoundRect*
0 Rectangle with rounded corners*
0 $1 Rounding radius*
0 $2 $3 $4 $5 $6 $7 $8 $9 X,Y pos of 4 corners*
0 Add a 4 corners polygon primitive as box body*
4,1,4,$2,$3,$4,$5,$6,$7,$8,$9,$2,$3,0*
0 Add four circle primitives for the rounded corners*
1,1,$1+$1,$2,$3*
1,1,$1+$1,$4,$5*
1,1,$1+$1,$6,$7*
1,1,$1+$1,$8,$9*
0 Add four rect primitives between the rounded corners*
20,1,$1+$1,$2,$3,$4,$5,0*
20,1,$1+$1,$4,$5,$6,$7,0*
20,1,$1+$1,$6,$7,$8,$9,0*
20,1,$1+$1,$8,$9,$2,$3,0*%
G04 Aperture macros list end*
%ADD10RoundRect,0.165000X0.165000X0.165000X-0.165000X0.165000X-0.165000X-0.165000X0.165000X-0.165000X0*%
%ADD11RoundRect,0.062500X0.325000X0.062500X-0.325000X0.062500X-0.325000X-0.062500X0.325000X-0.062500X0*%
%ADD12RoundRect,0.062500X0.062500X0.325000X-0.062500X0.325000X-0.062500X-0.325000X0.062500X-0.325000X0*%
%ADD13RoundRect,0.250000X-0.550000X1.500000X-0.550000X-1.500000X0.550000X-1.500000X0.550000X1.500000X0*%
%ADD14RoundRect,0.200000X0.275000X-0.200000X0.275000X0.200000X-0.275000X0.200000X-0.275000X-0.200000X0*%
%ADD15RoundRect,0.200000X-0.275000X0.200000X-0.275000X-0.200000X0.275000X-0.200000X0.275000X0.200000X0*%
%ADD16RoundRect,0.225000X0.225000X0.250000X-0.225000X0.250000X-0.225000X-0.250000X0.225000X-0.250000X0*%
%ADD17RoundRect,0.200000X-0.200000X-0.275000X0.200000X-0.275000X0.200000X0.275000X-0.200000X0.275000X0*%
G04 APERTURE END LIST*
D10*
X157850258Y-91930638D03*
X157850258Y-91110638D03*
X157850258Y-90290638D03*
X157030258Y-91930638D03*
X157030258Y-91110638D03*
X157030258Y-90290638D03*
X156210258Y-91930638D03*
X156210258Y-91110638D03*
X156210258Y-90290638D03*
D11*
X159017758Y-89860638D03*
X159017758Y-90360638D03*
X159017758Y-90860638D03*
X159017758Y-91360638D03*
X159017758Y-91860638D03*
X159017758Y-92360638D03*
D12*
X158280258Y-93098138D03*
X157780258Y-93098138D03*
X157280258Y-93098138D03*
X156780258Y-93098138D03*
X156280258Y-93098138D03*
X155780258Y-93098138D03*
D11*
X155042758Y-92360638D03*
X155042758Y-91860638D03*
X155042758Y-91360638D03*
X155042758Y-90860638D03*
X155042758Y-90360638D03*
X155042758Y-89860638D03*
D12*
X155780258Y-89123138D03*
X156280258Y-89123138D03*
X156780258Y-89123138D03*
X157280258Y-89123138D03*
X157780258Y-89123138D03*
X158280258Y-89123138D03*
D13*
X123074298Y-87921398D03*
X123074298Y-93521398D03*
D14*
X164705498Y-92721398D03*
X164705498Y-91071398D03*
D15*
X166255498Y-91071398D03*
X166255498Y-92721398D03*
D16*
X159555498Y-87371398D03*
X158005498Y-87371398D03*
D17*
X157980498Y-85771398D03*
X159630498Y-85771398D03*
M02*
