G04 #@! TF.GenerationSoftware,KiCad,Pcbnew,8.0.6*
G04 #@! TF.CreationDate,2024-12-03T13:54:22-05:00*
G04 #@! TF.ProjectId,UFC_Function Select,5546435f-4675-46e6-9374-696f6e205365,rev?*
G04 #@! TF.SameCoordinates,Original*
G04 #@! TF.FileFunction,Copper,L2,Bot*
G04 #@! TF.FilePolarity,Positive*
%FSLAX46Y46*%
G04 Gerber Fmt 4.6, Leading zero omitted, Abs format (unit mm)*
G04 Created by KiCad (PCBNEW 8.0.6) date 2024-12-03 13:54:22*
%MOMM*%
%LPD*%
G01*
G04 APERTURE LIST*
G04 Aperture macros list*
%AMRoundRect*
0 Rectangle with rounded corners*
0 $1 Rounding radius*
0 $2 $3 $4 $5 $6 $7 $8 $9 X,Y pos of 4 corners*
0 Add a 4 corners polygon primitive as box body*
4,1,4,$2,$3,$4,$5,$6,$7,$8,$9,$2,$3,0*
0 Add four circle primitives for the rounded corners*
1,1,$1+$1,$2,$3*
1,1,$1+$1,$4,$5*
1,1,$1+$1,$6,$7*
1,1,$1+$1,$8,$9*
0 Add four rect primitives between the rounded corners*
20,1,$1+$1,$2,$3,$4,$5,0*
20,1,$1+$1,$4,$5,$6,$7,0*
20,1,$1+$1,$6,$7,$8,$9,0*
20,1,$1+$1,$8,$9,$2,$3,0*%
G04 Aperture macros list end*
G04 #@! TA.AperFunction,ComponentPad*
%ADD10C,2.000000*%
G04 #@! TD*
G04 #@! TA.AperFunction,ComponentPad*
%ADD11R,1.700000X1.700000*%
G04 #@! TD*
G04 #@! TA.AperFunction,ComponentPad*
%ADD12O,1.700000X1.700000*%
G04 #@! TD*
G04 #@! TA.AperFunction,SMDPad,CuDef*
%ADD13RoundRect,0.062500X0.325000X0.062500X-0.325000X0.062500X-0.325000X-0.062500X0.325000X-0.062500X0*%
G04 #@! TD*
G04 #@! TA.AperFunction,SMDPad,CuDef*
%ADD14RoundRect,0.062500X0.062500X0.325000X-0.062500X0.325000X-0.062500X-0.325000X0.062500X-0.325000X0*%
G04 #@! TD*
G04 #@! TA.AperFunction,SMDPad,CuDef*
%ADD15R,2.450000X2.450000*%
G04 #@! TD*
G04 #@! TA.AperFunction,SMDPad,CuDef*
%ADD16RoundRect,0.250000X-0.550000X1.500000X-0.550000X-1.500000X0.550000X-1.500000X0.550000X1.500000X0*%
G04 #@! TD*
G04 #@! TA.AperFunction,SMDPad,CuDef*
%ADD17RoundRect,0.200000X0.275000X-0.200000X0.275000X0.200000X-0.275000X0.200000X-0.275000X-0.200000X0*%
G04 #@! TD*
G04 #@! TA.AperFunction,SMDPad,CuDef*
%ADD18RoundRect,0.200000X-0.275000X0.200000X-0.275000X-0.200000X0.275000X-0.200000X0.275000X0.200000X0*%
G04 #@! TD*
G04 #@! TA.AperFunction,SMDPad,CuDef*
%ADD19RoundRect,0.225000X0.225000X0.250000X-0.225000X0.250000X-0.225000X-0.250000X0.225000X-0.250000X0*%
G04 #@! TD*
G04 #@! TA.AperFunction,SMDPad,CuDef*
%ADD20RoundRect,0.200000X-0.200000X-0.275000X0.200000X-0.275000X0.200000X0.275000X-0.200000X0.275000X0*%
G04 #@! TD*
G04 #@! TA.AperFunction,ViaPad*
%ADD21C,0.800000*%
G04 #@! TD*
G04 #@! TA.AperFunction,Conductor*
%ADD22C,0.152400*%
G04 #@! TD*
G04 #@! TA.AperFunction,Conductor*
%ADD23C,0.914400*%
G04 #@! TD*
G04 #@! TA.AperFunction,Conductor*
%ADD24C,0.304800*%
G04 #@! TD*
G04 APERTURE END LIST*
D10*
X196022998Y-88216998D03*
X202522998Y-88216998D03*
X196022998Y-92716998D03*
X202522998Y-92716998D03*
X145222998Y-88216998D03*
X151722998Y-88216998D03*
X145222998Y-92716998D03*
X151722998Y-92716998D03*
X128289700Y-88217000D03*
X134789700Y-88217000D03*
X128289700Y-92717000D03*
X134789700Y-92717000D03*
X111356331Y-88216998D03*
X117856331Y-88216998D03*
X111356331Y-92716998D03*
X117856331Y-92716998D03*
X94422998Y-88216998D03*
X100922998Y-88216998D03*
X94422998Y-92716998D03*
X100922998Y-92716998D03*
X179089665Y-88216998D03*
X185589665Y-88216998D03*
X179089665Y-92716998D03*
X185589665Y-92716998D03*
X162156331Y-88216998D03*
X168656331Y-88216998D03*
X162156331Y-92716998D03*
X168656331Y-92716998D03*
D11*
X175105498Y-87561398D03*
D12*
X172565498Y-87561398D03*
X175105498Y-90101398D03*
X172565498Y-90101398D03*
X175105498Y-92641398D03*
X172565498Y-92641398D03*
D13*
X159017758Y-89860638D03*
X159017758Y-90360638D03*
X159017758Y-90860638D03*
X159017758Y-91360638D03*
X159017758Y-91860638D03*
X159017758Y-92360638D03*
D14*
X158280258Y-93098138D03*
X157780258Y-93098138D03*
X157280258Y-93098138D03*
X156780258Y-93098138D03*
X156280258Y-93098138D03*
X155780258Y-93098138D03*
D13*
X155042758Y-92360638D03*
X155042758Y-91860638D03*
X155042758Y-91360638D03*
X155042758Y-90860638D03*
X155042758Y-90360638D03*
X155042758Y-89860638D03*
D14*
X155780258Y-89123138D03*
X156280258Y-89123138D03*
X156780258Y-89123138D03*
X157280258Y-89123138D03*
X157780258Y-89123138D03*
X158280258Y-89123138D03*
D15*
X157030258Y-91110638D03*
D16*
X123074298Y-87921398D03*
X123074298Y-93521398D03*
D17*
X164705498Y-92721398D03*
X164705498Y-91071398D03*
D18*
X166255498Y-91071398D03*
X166255498Y-92721398D03*
D19*
X159555498Y-87371398D03*
X158005498Y-87371398D03*
D20*
X157980498Y-85771398D03*
X159630498Y-85771398D03*
D21*
X124355498Y-93521398D03*
X121605498Y-93521398D03*
X160055498Y-88471398D03*
X115955498Y-87421398D03*
X113405498Y-95121398D03*
X156355498Y-85921398D03*
X96355498Y-93721398D03*
X153655498Y-95121398D03*
X204305498Y-94371398D03*
X166726596Y-85171398D03*
X170853136Y-95198999D03*
X107855498Y-85921398D03*
X133155498Y-87321398D03*
X181055498Y-95021398D03*
X140455498Y-85971398D03*
X136905498Y-95121398D03*
X177055498Y-85571398D03*
X182655498Y-85121398D03*
X149755498Y-87271398D03*
X124855498Y-85971398D03*
X92670498Y-86428798D03*
X130505498Y-95071398D03*
X147305498Y-95021398D03*
X102805498Y-95071398D03*
X200705498Y-87171398D03*
X97555498Y-85121398D03*
X165505498Y-93621398D03*
X198005498Y-94971398D03*
X187905498Y-95071398D03*
X192355498Y-85921398D03*
X119805498Y-95121398D03*
X164256345Y-95198999D03*
X154548989Y-89022744D03*
X160894800Y-90805676D03*
X161796201Y-89904275D03*
X154855498Y-88071398D03*
X189855498Y-94171398D03*
X192755498Y-94171398D03*
D22*
X157280258Y-93098138D02*
X157280258Y-91360638D01*
X159555498Y-87847898D02*
X159555498Y-87371398D01*
X158280258Y-89123138D02*
X157780258Y-89123138D01*
X157780258Y-89123138D02*
X157780258Y-90360638D01*
D23*
X123074298Y-93521398D02*
X121605498Y-93521398D01*
D22*
X158280258Y-89123138D02*
X159555498Y-87847898D01*
X155042758Y-89860638D02*
X155780258Y-89860638D01*
X157780258Y-90360638D02*
X157030258Y-91110638D01*
X159555498Y-87371398D02*
X159555498Y-87971398D01*
X157280258Y-91360638D02*
X157030258Y-91110638D01*
X155780258Y-89860638D02*
X157030258Y-91110638D01*
X159555498Y-87971398D02*
X160055498Y-88471398D01*
D23*
X123074298Y-93521398D02*
X124355498Y-93521398D01*
D24*
X166255498Y-92871398D02*
X165505498Y-93621398D01*
D22*
X156780258Y-87946158D02*
X156705498Y-87871398D01*
X156780258Y-89123138D02*
X156780258Y-87946158D01*
D24*
X166255498Y-92721398D02*
X166255498Y-92871398D01*
D22*
X165555498Y-91771398D02*
X163905498Y-91771398D01*
X168859735Y-91073299D02*
X166257399Y-91073299D01*
X154649383Y-89123138D02*
X154548989Y-89022744D01*
X173979298Y-93767598D02*
X171554034Y-93767598D01*
X163905498Y-91771398D02*
X162939776Y-90805676D01*
X171554034Y-93767598D02*
X168859735Y-91073299D01*
X155780258Y-89123138D02*
X154649383Y-89123138D01*
X166255498Y-91071398D02*
X165555498Y-91771398D01*
X175105498Y-92641398D02*
X173979298Y-93767598D01*
X162939776Y-90805676D02*
X160894800Y-90805676D01*
X166257399Y-91073299D02*
X166255498Y-91071398D01*
X164705498Y-91071398D02*
X165381698Y-90395198D01*
X166727746Y-90395198D02*
X167053946Y-90721398D01*
X156280258Y-89123138D02*
X156280258Y-88756644D01*
X164705498Y-91071398D02*
X163538375Y-89904275D01*
X163538375Y-89904275D02*
X161796201Y-89904275D01*
X169605498Y-91321398D02*
X173885498Y-91321398D01*
X173885498Y-91321398D02*
X175105498Y-90101398D01*
X165381698Y-90395198D02*
X166727746Y-90395198D01*
X155595012Y-88071398D02*
X154855498Y-88071398D01*
X169005498Y-90721398D02*
X169605498Y-91321398D01*
X167053946Y-90721398D02*
X169005498Y-90721398D01*
X156280258Y-88756644D02*
X155595012Y-88071398D01*
X154999716Y-90817596D02*
X154323596Y-90817596D01*
X155042758Y-90860638D02*
X154999716Y-90817596D01*
X154323596Y-90817596D02*
X151722998Y-88216998D01*
X154192402Y-91860638D02*
X152501260Y-90169497D01*
X119808830Y-90169497D02*
X117856331Y-88216998D01*
X152501260Y-90169497D02*
X119808830Y-90169497D01*
X155042758Y-91860638D02*
X154192402Y-91860638D01*
X152647022Y-89817596D02*
X136390296Y-89817596D01*
X155042758Y-91360638D02*
X154190066Y-91360638D01*
X136390296Y-89817596D02*
X134789700Y-88217000D01*
X154190066Y-91360638D02*
X152647022Y-89817596D01*
X109905498Y-90521398D02*
X107601098Y-88216998D01*
X152355498Y-90521398D02*
X109905498Y-90521398D01*
X107601098Y-88216998D02*
X100922998Y-88216998D01*
X155042758Y-92360638D02*
X154194738Y-92360638D01*
X154194738Y-92360638D02*
X152355498Y-90521398D01*
X159017758Y-91860638D02*
X159744738Y-91860638D01*
X176805498Y-90501165D02*
X179089665Y-88216998D01*
X176805498Y-93671398D02*
X176805498Y-90501165D01*
X176305498Y-94171398D02*
X176805498Y-93671398D01*
X165099913Y-94171398D02*
X165225613Y-94297098D01*
X159744738Y-92560638D02*
X161355498Y-94171398D01*
X166011083Y-94171398D02*
X176305498Y-94171398D01*
D24*
X185589665Y-88216998D02*
X179089665Y-88216998D01*
D22*
X161355498Y-94171398D02*
X165099913Y-94171398D01*
X165885383Y-94297098D02*
X166011083Y-94171398D01*
X159744738Y-91860638D02*
X159744738Y-92560638D01*
X165225613Y-94297098D02*
X165885383Y-94297098D01*
X196022998Y-90903898D02*
X192755498Y-94171398D01*
X166156845Y-94523299D02*
X176451261Y-94523299D01*
X196022998Y-88216998D02*
X196022998Y-90903898D01*
X161180419Y-94523299D02*
X164954150Y-94523299D01*
X166031146Y-94648999D02*
X166156845Y-94523299D01*
X176803161Y-94171398D02*
X189855498Y-94171398D01*
X176451261Y-94523299D02*
X176803161Y-94171398D01*
X159017758Y-92360638D02*
X161180419Y-94523299D01*
X164954150Y-94523299D02*
X165079851Y-94648999D01*
X165079851Y-94648999D02*
X166031146Y-94648999D01*
D24*
X202522998Y-88216998D02*
X196022998Y-88216998D01*
D22*
X159384252Y-91360638D02*
X162156331Y-88588559D01*
X159017758Y-91360638D02*
X159384252Y-91360638D01*
X162156331Y-88588559D02*
X162156331Y-88216998D01*
X158731698Y-87829002D02*
X158438102Y-88122598D01*
X158355498Y-85771398D02*
X159204298Y-86620198D01*
X158731698Y-86522598D02*
X158731698Y-87829002D01*
X163897894Y-86913794D02*
X167085498Y-90101398D01*
X160281698Y-86913794D02*
X163897894Y-86913794D01*
X157980498Y-85771398D02*
X158355498Y-85771398D01*
X157280258Y-88756644D02*
X157280258Y-89123138D01*
X159988102Y-86620198D02*
X160281698Y-86913794D01*
X167085498Y-90101398D02*
X172565498Y-90101398D01*
X158438102Y-88122598D02*
X157914304Y-88122598D01*
X157980498Y-85771398D02*
X158731698Y-86522598D01*
X157914304Y-88122598D02*
X157280258Y-88756644D01*
X159204298Y-86620198D02*
X159988102Y-86620198D01*
G04 #@! TA.AperFunction,Conductor*
G36*
X166451619Y-92487400D02*
G01*
X166498112Y-92541056D01*
X166509498Y-92593398D01*
X166509498Y-92849398D01*
X166489496Y-92917519D01*
X166435840Y-92964012D01*
X166383498Y-92975398D01*
X164577498Y-92975398D01*
X164509377Y-92955396D01*
X164462884Y-92901740D01*
X164451498Y-92849398D01*
X164451498Y-92593398D01*
X164471500Y-92525277D01*
X164525156Y-92478784D01*
X164577498Y-92467398D01*
X166383498Y-92467398D01*
X166451619Y-92487400D01*
G37*
G04 #@! TD.AperFunction*
G04 #@! TA.AperFunction,Conductor*
G36*
X204010429Y-83972286D02*
G01*
X204191078Y-83986503D01*
X204210606Y-83989596D01*
X204296290Y-84010167D01*
X204381975Y-84030738D01*
X204400778Y-84036848D01*
X204563597Y-84104289D01*
X204581214Y-84113265D01*
X204731483Y-84205350D01*
X204747478Y-84216972D01*
X204881489Y-84331428D01*
X204895468Y-84345406D01*
X205009930Y-84479422D01*
X205021549Y-84495415D01*
X205113633Y-84645684D01*
X205122609Y-84663300D01*
X205190051Y-84826118D01*
X205196161Y-84844922D01*
X205237303Y-85016291D01*
X205240396Y-85035819D01*
X205254610Y-85216418D01*
X205254998Y-85226304D01*
X205254998Y-95716443D01*
X205254610Y-95726329D01*
X205240393Y-95906977D01*
X205237299Y-95926506D01*
X205196156Y-96097876D01*
X205190047Y-96116679D01*
X205122606Y-96279496D01*
X205113630Y-96297113D01*
X205021546Y-96447381D01*
X205009924Y-96463376D01*
X204895468Y-96597387D01*
X204881487Y-96611368D01*
X204747476Y-96725824D01*
X204731481Y-96737446D01*
X204581213Y-96829530D01*
X204563596Y-96838506D01*
X204400779Y-96905947D01*
X204381976Y-96912056D01*
X204210606Y-96953199D01*
X204191077Y-96956293D01*
X204010429Y-96970510D01*
X204000543Y-96970898D01*
X93010455Y-96970898D01*
X93000569Y-96970510D01*
X92819919Y-96956292D01*
X92800391Y-96953199D01*
X92629024Y-96912057D01*
X92610220Y-96905947D01*
X92447402Y-96838505D01*
X92429785Y-96829529D01*
X92279516Y-96737444D01*
X92263521Y-96725822D01*
X92129509Y-96611365D01*
X92115528Y-96597384D01*
X92001077Y-96463379D01*
X91989455Y-96447383D01*
X91897369Y-96297111D01*
X91888393Y-96279495D01*
X91820951Y-96116677D01*
X91814841Y-96097873D01*
X91773697Y-95926495D01*
X91770607Y-95906987D01*
X91756385Y-95726271D01*
X91755998Y-95716400D01*
X91755998Y-92716998D01*
X92909833Y-92716998D01*
X92928463Y-92953709D01*
X92934641Y-92979441D01*
X92983892Y-93184590D01*
X93034819Y-93307538D01*
X93074758Y-93403961D01*
X93182613Y-93579964D01*
X93198823Y-93606415D01*
X93198824Y-93606417D01*
X93353028Y-93786967D01*
X93533578Y-93941171D01*
X93533582Y-93941174D01*
X93736035Y-94065238D01*
X93955404Y-94156103D01*
X94186287Y-94211533D01*
X94422998Y-94230163D01*
X94659709Y-94211533D01*
X94890592Y-94156103D01*
X95109961Y-94065238D01*
X95312414Y-93941174D01*
X95492967Y-93786967D01*
X95647174Y-93606414D01*
X95771238Y-93403961D01*
X95862103Y-93184592D01*
X95917533Y-92953709D01*
X95936163Y-92716998D01*
X99409833Y-92716998D01*
X99428463Y-92953709D01*
X99434641Y-92979441D01*
X99483892Y-93184590D01*
X99534819Y-93307538D01*
X99574758Y-93403961D01*
X99682613Y-93579964D01*
X99698823Y-93606415D01*
X99698824Y-93606417D01*
X99853028Y-93786967D01*
X100033578Y-93941171D01*
X100033582Y-93941174D01*
X100236035Y-94065238D01*
X100455404Y-94156103D01*
X100686287Y-94211533D01*
X100922998Y-94230163D01*
X101159709Y-94211533D01*
X101390592Y-94156103D01*
X101609961Y-94065238D01*
X101812414Y-93941174D01*
X101992967Y-93786967D01*
X102147174Y-93606414D01*
X102271238Y-93403961D01*
X102362103Y-93184592D01*
X102417533Y-92953709D01*
X102436163Y-92716998D01*
X102417533Y-92480287D01*
X102362103Y-92249404D01*
X102271238Y-92030035D01*
X102147174Y-91827582D01*
X102147171Y-91827578D01*
X101992967Y-91647028D01*
X101812417Y-91492824D01*
X101812415Y-91492823D01*
X101812414Y-91492822D01*
X101609961Y-91368758D01*
X101609957Y-91368756D01*
X101390590Y-91277892D01*
X101218573Y-91236595D01*
X101159709Y-91222463D01*
X100922998Y-91203833D01*
X100686287Y-91222463D01*
X100455405Y-91277892D01*
X100236036Y-91368757D01*
X100033580Y-91492823D01*
X100033578Y-91492824D01*
X99853028Y-91647028D01*
X99698824Y-91827578D01*
X99698823Y-91827580D01*
X99574757Y-92030036D01*
X99483892Y-92249405D01*
X99436417Y-92447155D01*
X99428463Y-92480287D01*
X99409833Y-92716998D01*
X95936163Y-92716998D01*
X95917533Y-92480287D01*
X95862103Y-92249404D01*
X95771238Y-92030035D01*
X95647174Y-91827582D01*
X95647171Y-91827578D01*
X95492967Y-91647028D01*
X95312417Y-91492824D01*
X95312415Y-91492823D01*
X95312414Y-91492822D01*
X95109961Y-91368758D01*
X95109957Y-91368756D01*
X94890590Y-91277892D01*
X94718573Y-91236595D01*
X94659709Y-91222463D01*
X94422998Y-91203833D01*
X94186287Y-91222463D01*
X93955405Y-91277892D01*
X93736036Y-91368757D01*
X93533580Y-91492823D01*
X93533578Y-91492824D01*
X93353028Y-91647028D01*
X93198824Y-91827578D01*
X93198823Y-91827580D01*
X93074757Y-92030036D01*
X92983892Y-92249405D01*
X92936417Y-92447155D01*
X92928463Y-92480287D01*
X92909833Y-92716998D01*
X91755998Y-92716998D01*
X91755998Y-88216998D01*
X92909833Y-88216998D01*
X92928463Y-88453709D01*
X92929969Y-88459983D01*
X92983892Y-88684590D01*
X93064619Y-88879482D01*
X93074758Y-88903961D01*
X93193967Y-89098492D01*
X93198823Y-89106415D01*
X93198824Y-89106417D01*
X93353028Y-89286967D01*
X93533220Y-89440865D01*
X93533582Y-89441174D01*
X93736035Y-89565238D01*
X93955404Y-89656103D01*
X94186287Y-89711533D01*
X94422998Y-89730163D01*
X94659709Y-89711533D01*
X94890592Y-89656103D01*
X95109961Y-89565238D01*
X95312414Y-89441174D01*
X95492967Y-89286967D01*
X95647174Y-89106414D01*
X95771238Y-88903961D01*
X95862103Y-88684592D01*
X95917533Y-88453709D01*
X95936163Y-88216998D01*
X99409833Y-88216998D01*
X99428463Y-88453709D01*
X99429969Y-88459983D01*
X99483892Y-88684590D01*
X99564619Y-88879482D01*
X99574758Y-88903961D01*
X99693967Y-89098492D01*
X99698823Y-89106415D01*
X99698824Y-89106417D01*
X99853028Y-89286967D01*
X100033220Y-89440865D01*
X100033582Y-89441174D01*
X100236035Y-89565238D01*
X100455404Y-89656103D01*
X100686287Y-89711533D01*
X100922998Y-89730163D01*
X101159709Y-89711533D01*
X101390592Y-89656103D01*
X101609961Y-89565238D01*
X101812414Y-89441174D01*
X101992967Y-89286967D01*
X102147174Y-89106414D01*
X102271238Y-88903961D01*
X102281377Y-88879481D01*
X102325925Y-88824200D01*
X102393288Y-88801778D01*
X102397787Y-88801698D01*
X104685667Y-88801698D01*
X104753788Y-88821700D01*
X104800281Y-88875356D01*
X104810385Y-88945630D01*
X104780891Y-89010210D01*
X104762372Y-89027660D01*
X104659731Y-89106419D01*
X104617570Y-89138770D01*
X104617559Y-89138779D01*
X104422879Y-89333459D01*
X104422870Y-89333469D01*
X104255246Y-89551922D01*
X104117581Y-89790364D01*
X104117575Y-89790375D01*
X104012203Y-90044766D01*
X103940936Y-90310738D01*
X103904998Y-90583721D01*
X103904998Y-90859074D01*
X103940936Y-91132057D01*
X103940938Y-91132064D01*
X104012203Y-91398030D01*
X104025609Y-91430395D01*
X104117575Y-91652420D01*
X104117581Y-91652431D01*
X104255246Y-91890873D01*
X104422870Y-92109326D01*
X104422879Y-92109336D01*
X104617559Y-92304016D01*
X104617569Y-92304025D01*
X104617570Y-92304026D01*
X104821609Y-92460590D01*
X104836022Y-92471649D01*
X105074464Y-92609314D01*
X105074475Y-92609320D01*
X105074477Y-92609321D01*
X105328866Y-92714693D01*
X105594832Y-92785958D01*
X105594836Y-92785958D01*
X105594838Y-92785959D01*
X105665194Y-92795221D01*
X105867824Y-92821898D01*
X105867831Y-92821898D01*
X106143165Y-92821898D01*
X106143172Y-92821898D01*
X106389889Y-92789417D01*
X106416157Y-92785959D01*
X106416157Y-92785958D01*
X106416164Y-92785958D01*
X106682130Y-92714693D01*
X106936519Y-92609321D01*
X107174977Y-92471647D01*
X107393426Y-92304026D01*
X107588126Y-92109326D01*
X107755747Y-91890877D01*
X107893421Y-91652419D01*
X107998793Y-91398030D01*
X108070058Y-91132064D01*
X108070385Y-91129584D01*
X108088856Y-90989276D01*
X108105998Y-90859072D01*
X108105998Y-90583724D01*
X108070058Y-90310732D01*
X107998793Y-90044766D01*
X107893421Y-89790377D01*
X107893420Y-89790375D01*
X107893414Y-89790364D01*
X107787892Y-89607596D01*
X107755747Y-89551919D01*
X107755745Y-89551916D01*
X107754891Y-89550637D01*
X107754753Y-89550197D01*
X107753685Y-89548347D01*
X107754099Y-89548107D01*
X107733677Y-89482884D01*
X107752461Y-89414417D01*
X107805279Y-89366975D01*
X107875362Y-89355620D01*
X107940458Y-89383956D01*
X107948752Y-89391542D01*
X109546477Y-90989268D01*
X109546482Y-90989272D01*
X109546484Y-90989274D01*
X109679813Y-91066252D01*
X109828521Y-91106098D01*
X110670042Y-91106098D01*
X110738163Y-91126100D01*
X110784656Y-91179756D01*
X110794760Y-91250030D01*
X110765266Y-91314610D01*
X110718259Y-91348507D01*
X110669371Y-91368756D01*
X110466913Y-91492823D01*
X110466911Y-91492824D01*
X110286361Y-91647028D01*
X110132157Y-91827578D01*
X110132156Y-91827580D01*
X110008090Y-92030036D01*
X109917225Y-92249405D01*
X109869750Y-92447155D01*
X109861796Y-92480287D01*
X109843166Y-92716998D01*
X109861796Y-92953709D01*
X109867974Y-92979441D01*
X109917225Y-93184590D01*
X109968152Y-93307538D01*
X110008091Y-93403961D01*
X110115946Y-93579964D01*
X110132156Y-93606415D01*
X110132157Y-93606417D01*
X110286361Y-93786967D01*
X110466911Y-93941171D01*
X110466915Y-93941174D01*
X110669368Y-94065238D01*
X110888737Y-94156103D01*
X111119620Y-94211533D01*
X111356331Y-94230163D01*
X111593042Y-94211533D01*
X111823925Y-94156103D01*
X112043294Y-94065238D01*
X112245747Y-93941174D01*
X112426300Y-93786967D01*
X112580507Y-93606414D01*
X112704571Y-93403961D01*
X112795436Y-93184592D01*
X112850866Y-92953709D01*
X112869496Y-92716998D01*
X112850866Y-92480287D01*
X112795436Y-92249404D01*
X112704571Y-92030035D01*
X112580507Y-91827582D01*
X112580504Y-91827578D01*
X112426300Y-91647028D01*
X112245750Y-91492824D01*
X112245748Y-91492823D01*
X112245747Y-91492822D01*
X112043294Y-91368758D01*
X112043291Y-91368757D01*
X112043290Y-91368756D01*
X111994403Y-91348507D01*
X111939121Y-91303959D01*
X111916700Y-91236596D01*
X111934258Y-91167805D01*
X111986220Y-91119426D01*
X112042620Y-91106098D01*
X117170042Y-91106098D01*
X117238163Y-91126100D01*
X117284656Y-91179756D01*
X117294760Y-91250030D01*
X117265266Y-91314610D01*
X117218259Y-91348507D01*
X117169371Y-91368756D01*
X116966913Y-91492823D01*
X116966911Y-91492824D01*
X116786361Y-91647028D01*
X116632157Y-91827578D01*
X116632156Y-91827580D01*
X116508090Y-92030036D01*
X116417225Y-92249405D01*
X116369750Y-92447155D01*
X116361796Y-92480287D01*
X116343166Y-92716998D01*
X116361796Y-92953709D01*
X116367974Y-92979441D01*
X116417225Y-93184590D01*
X116468152Y-93307538D01*
X116508091Y-93403961D01*
X116615946Y-93579964D01*
X116632156Y-93606415D01*
X116632157Y-93606417D01*
X116786361Y-93786967D01*
X116966911Y-93941171D01*
X116966915Y-93941174D01*
X117169368Y-94065238D01*
X117388737Y-94156103D01*
X117619620Y-94211533D01*
X117856331Y-94230163D01*
X118093042Y-94211533D01*
X118323925Y-94156103D01*
X118543294Y-94065238D01*
X118745747Y-93941174D01*
X118926300Y-93786967D01*
X119080507Y-93606414D01*
X119204571Y-93403961D01*
X119295436Y-93184592D01*
X119350866Y-92953709D01*
X119369496Y-92716998D01*
X119350866Y-92480287D01*
X119295436Y-92249404D01*
X119204571Y-92030035D01*
X119080507Y-91827582D01*
X119080504Y-91827578D01*
X118926300Y-91647028D01*
X118745750Y-91492824D01*
X118745748Y-91492823D01*
X118745747Y-91492822D01*
X118543294Y-91368758D01*
X118543291Y-91368757D01*
X118543290Y-91368756D01*
X118494403Y-91348507D01*
X118439121Y-91303959D01*
X118416700Y-91236596D01*
X118434258Y-91167805D01*
X118486220Y-91119426D01*
X118542620Y-91106098D01*
X122119111Y-91106098D01*
X122187232Y-91126100D01*
X122233725Y-91179756D01*
X122243829Y-91250030D01*
X122214335Y-91314610D01*
X122185261Y-91339336D01*
X122137560Y-91368759D01*
X122050645Y-91422368D01*
X122050639Y-91422373D01*
X121925273Y-91547739D01*
X121925268Y-91547745D01*
X121832183Y-91698660D01*
X121776411Y-91866970D01*
X121776410Y-91866977D01*
X121765798Y-91970844D01*
X121765798Y-92429698D01*
X121745796Y-92497819D01*
X121692140Y-92544312D01*
X121639798Y-92555698D01*
X121510382Y-92555698D01*
X121323813Y-92592809D01*
X121323808Y-92592811D01*
X121148067Y-92665605D01*
X120989900Y-92771289D01*
X120989894Y-92771294D01*
X120855394Y-92905794D01*
X120855389Y-92905800D01*
X120749705Y-93063967D01*
X120676911Y-93239708D01*
X120676909Y-93239713D01*
X120639798Y-93426282D01*
X120639798Y-93616513D01*
X120643365Y-93634446D01*
X120676909Y-93803082D01*
X120749705Y-93978829D01*
X120797611Y-94050524D01*
X120855389Y-94136995D01*
X120855394Y-94137001D01*
X120989894Y-94271501D01*
X120989900Y-94271506D01*
X121148067Y-94377191D01*
X121323814Y-94449987D01*
X121510385Y-94487098D01*
X121639799Y-94487098D01*
X121707920Y-94507100D01*
X121754413Y-94560756D01*
X121765799Y-94613098D01*
X121765799Y-95071942D01*
X121776410Y-95175823D01*
X121832183Y-95344136D01*
X121925268Y-95495050D01*
X121925273Y-95495056D01*
X122050639Y-95620422D01*
X122050645Y-95620427D01*
X122050646Y-95620428D01*
X122201560Y-95713513D01*
X122369872Y-95769285D01*
X122473753Y-95779898D01*
X123674842Y-95779897D01*
X123778724Y-95769285D01*
X123947036Y-95713513D01*
X124097950Y-95620428D01*
X124223328Y-95495050D01*
X124316413Y-95344136D01*
X124372185Y-95175824D01*
X124377390Y-95124880D01*
X124382798Y-95071951D01*
X124382798Y-94603992D01*
X124402800Y-94535871D01*
X124456456Y-94489378D01*
X124484213Y-94480414D01*
X124637182Y-94449987D01*
X124812929Y-94377191D01*
X124971096Y-94271506D01*
X125105606Y-94136996D01*
X125211291Y-93978829D01*
X125284087Y-93803082D01*
X125321198Y-93616511D01*
X125321198Y-93426285D01*
X125284087Y-93239714D01*
X125211291Y-93063967D01*
X125105606Y-92905800D01*
X125105601Y-92905794D01*
X124971101Y-92771294D01*
X124971095Y-92771289D01*
X124889843Y-92716998D01*
X124812929Y-92665605D01*
X124637182Y-92592809D01*
X124484215Y-92562382D01*
X124421306Y-92529474D01*
X124386174Y-92467779D01*
X124382797Y-92438803D01*
X124382797Y-91970853D01*
X124372185Y-91866972D01*
X124353650Y-91811037D01*
X124316413Y-91698660D01*
X124223328Y-91547746D01*
X124223327Y-91547745D01*
X124223322Y-91547739D01*
X124097956Y-91422373D01*
X124097950Y-91422368D01*
X124058490Y-91398029D01*
X123963336Y-91339337D01*
X123915860Y-91286553D01*
X123904457Y-91216478D01*
X123932749Y-91151363D01*
X123991755Y-91111880D01*
X124029485Y-91106098D01*
X127603415Y-91106098D01*
X127671536Y-91126100D01*
X127718029Y-91179756D01*
X127728133Y-91250030D01*
X127698639Y-91314610D01*
X127651633Y-91348506D01*
X127648656Y-91349740D01*
X127602738Y-91368759D01*
X127400282Y-91492825D01*
X127400280Y-91492826D01*
X127219730Y-91647030D01*
X127065526Y-91827580D01*
X127065525Y-91827582D01*
X126941459Y-92030038D01*
X126850594Y-92249407D01*
X126811489Y-92412295D01*
X126795165Y-92480289D01*
X126776535Y-92717000D01*
X126795165Y-92953711D01*
X126804871Y-92994138D01*
X126850594Y-93184592D01*
X126906516Y-93319599D01*
X126941460Y-93403963D01*
X127065523Y-93606415D01*
X127065525Y-93606417D01*
X127065526Y-93606419D01*
X127219730Y-93786969D01*
X127400278Y-93941171D01*
X127400284Y-93941176D01*
X127602737Y-94065240D01*
X127822106Y-94156105D01*
X128052989Y-94211535D01*
X128289700Y-94230165D01*
X128526411Y-94211535D01*
X128757294Y-94156105D01*
X128976663Y-94065240D01*
X129179116Y-93941176D01*
X129359669Y-93786969D01*
X129513876Y-93606416D01*
X129637940Y-93403963D01*
X129728805Y-93184594D01*
X129784235Y-92953711D01*
X129802865Y-92717000D01*
X129784235Y-92480289D01*
X129728805Y-92249406D01*
X129637940Y-92030037D01*
X129513876Y-91827584D01*
X129499744Y-91811037D01*
X129359669Y-91647030D01*
X129179119Y-91492826D01*
X129179117Y-91492825D01*
X129179116Y-91492824D01*
X128976663Y-91368760D01*
X128976658Y-91368758D01*
X128930744Y-91349740D01*
X128927766Y-91348506D01*
X128872486Y-91303959D01*
X128850065Y-91236595D01*
X128867623Y-91167804D01*
X128919585Y-91119426D01*
X128975985Y-91106098D01*
X134103415Y-91106098D01*
X134171536Y-91126100D01*
X134218029Y-91179756D01*
X134228133Y-91250030D01*
X134198639Y-91314610D01*
X134151633Y-91348506D01*
X134148656Y-91349740D01*
X134102738Y-91368759D01*
X133900282Y-91492825D01*
X133900280Y-91492826D01*
X133719730Y-91647030D01*
X133565526Y-91827580D01*
X133565525Y-91827582D01*
X133441459Y-92030038D01*
X133350594Y-92249407D01*
X133311489Y-92412295D01*
X133295165Y-92480289D01*
X133276535Y-92717000D01*
X133295165Y-92953711D01*
X133304871Y-92994138D01*
X133350594Y-93184592D01*
X133406516Y-93319599D01*
X133441460Y-93403963D01*
X133565523Y-93606415D01*
X133565525Y-93606417D01*
X133565526Y-93606419D01*
X133719730Y-93786969D01*
X133900278Y-93941171D01*
X133900284Y-93941176D01*
X134102737Y-94065240D01*
X134322106Y-94156105D01*
X134552989Y-94211535D01*
X134789700Y-94230165D01*
X135026411Y-94211535D01*
X135257294Y-94156105D01*
X135476663Y-94065240D01*
X135679116Y-93941176D01*
X135859669Y-93786969D01*
X136013876Y-93606416D01*
X136137940Y-93403963D01*
X136228805Y-93184594D01*
X136284235Y-92953711D01*
X136302865Y-92717000D01*
X136284235Y-92480289D01*
X136228805Y-92249406D01*
X136137940Y-92030037D01*
X136013876Y-91827584D01*
X135999744Y-91811037D01*
X135859669Y-91647030D01*
X135679119Y-91492826D01*
X135679117Y-91492825D01*
X135679116Y-91492824D01*
X135476663Y-91368760D01*
X135476658Y-91368758D01*
X135430744Y-91349740D01*
X135427766Y-91348506D01*
X135372486Y-91303959D01*
X135350065Y-91236595D01*
X135367623Y-91167804D01*
X135419585Y-91119426D01*
X135475985Y-91106098D01*
X144536709Y-91106098D01*
X144604830Y-91126100D01*
X144651323Y-91179756D01*
X144661427Y-91250030D01*
X144631933Y-91314610D01*
X144584926Y-91348507D01*
X144536038Y-91368756D01*
X144333580Y-91492823D01*
X144333578Y-91492824D01*
X144153028Y-91647028D01*
X143998824Y-91827578D01*
X143998823Y-91827580D01*
X143874757Y-92030036D01*
X143783892Y-92249405D01*
X143736417Y-92447155D01*
X143728463Y-92480287D01*
X143709833Y-92716998D01*
X143728463Y-92953709D01*
X143734641Y-92979441D01*
X143783892Y-93184590D01*
X143834819Y-93307538D01*
X143874758Y-93403961D01*
X143982613Y-93579964D01*
X143998823Y-93606415D01*
X143998824Y-93606417D01*
X144153028Y-93786967D01*
X144333578Y-93941171D01*
X144333582Y-93941174D01*
X144536035Y-94065238D01*
X144755404Y-94156103D01*
X144986287Y-94211533D01*
X145222998Y-94230163D01*
X145459709Y-94211533D01*
X145690592Y-94156103D01*
X145909961Y-94065238D01*
X146112414Y-93941174D01*
X146292967Y-93786967D01*
X146447174Y-93606414D01*
X146571238Y-93403961D01*
X146662103Y-93184592D01*
X146717533Y-92953709D01*
X146736163Y-92716998D01*
X146717533Y-92480287D01*
X146662103Y-92249404D01*
X146571238Y-92030035D01*
X146447174Y-91827582D01*
X146447171Y-91827578D01*
X146292967Y-91647028D01*
X146112417Y-91492824D01*
X146112415Y-91492823D01*
X146112414Y-91492822D01*
X145909961Y-91368758D01*
X145909958Y-91368757D01*
X145909957Y-91368756D01*
X145861070Y-91348507D01*
X145805788Y-91303959D01*
X145783367Y-91236596D01*
X145800925Y-91167805D01*
X145852887Y-91119426D01*
X145909287Y-91106098D01*
X151036709Y-91106098D01*
X151104830Y-91126100D01*
X151151323Y-91179756D01*
X151161427Y-91250030D01*
X151131933Y-91314610D01*
X151084926Y-91348507D01*
X151036038Y-91368756D01*
X150833580Y-91492823D01*
X150833578Y-91492824D01*
X150653028Y-91647028D01*
X150498824Y-91827578D01*
X150498823Y-91827580D01*
X150374757Y-92030036D01*
X150283892Y-92249405D01*
X150236417Y-92447155D01*
X150228463Y-92480287D01*
X150209833Y-92716998D01*
X150228463Y-92953709D01*
X150234641Y-92979441D01*
X150283892Y-93184590D01*
X150334819Y-93307538D01*
X150374758Y-93403961D01*
X150482613Y-93579964D01*
X150498823Y-93606415D01*
X150498824Y-93606417D01*
X150653028Y-93786967D01*
X150833578Y-93941171D01*
X150833582Y-93941174D01*
X151036035Y-94065238D01*
X151255404Y-94156103D01*
X151486287Y-94211533D01*
X151722998Y-94230163D01*
X151959709Y-94211533D01*
X152190592Y-94156103D01*
X152409961Y-94065238D01*
X152612414Y-93941174D01*
X152792967Y-93786967D01*
X152947174Y-93606414D01*
X153071238Y-93403961D01*
X153162103Y-93184592D01*
X153217533Y-92953709D01*
X153236163Y-92716998D01*
X153221267Y-92527741D01*
X153235863Y-92458265D01*
X153285705Y-92407706D01*
X153354969Y-92392119D01*
X153421665Y-92416454D01*
X153435974Y-92428764D01*
X153726862Y-92719652D01*
X153835724Y-92828514D01*
X153969052Y-92905491D01*
X154117761Y-92945338D01*
X154461302Y-92945338D01*
X154509520Y-92954929D01*
X154524094Y-92960965D01*
X154568697Y-92979441D01*
X154680333Y-92994138D01*
X155020758Y-92994137D01*
X155088878Y-93014139D01*
X155135371Y-93067794D01*
X155146758Y-93120137D01*
X155146758Y-93460561D01*
X155146759Y-93460570D01*
X155158515Y-93549871D01*
X155161455Y-93572199D01*
X155218991Y-93711102D01*
X155310516Y-93830380D01*
X155429794Y-93921905D01*
X155568697Y-93979441D01*
X155680333Y-93994138D01*
X155880182Y-93994137D01*
X155991819Y-93979441D01*
X155991827Y-93979437D01*
X155997644Y-93977880D01*
X156062868Y-93977879D01*
X156068695Y-93979440D01*
X156068697Y-93979441D01*
X156180333Y-93994138D01*
X156380182Y-93994137D01*
X156491819Y-93979441D01*
X156491827Y-93979437D01*
X156497644Y-93977880D01*
X156562868Y-93977879D01*
X156568695Y-93979440D01*
X156568697Y-93979441D01*
X156680333Y-93994138D01*
X156880182Y-93994137D01*
X156991819Y-93979441D01*
X156991827Y-93979437D01*
X156997644Y-93977880D01*
X157062868Y-93977879D01*
X157068695Y-93979440D01*
X157068697Y-93979441D01*
X157180333Y-93994138D01*
X157380182Y-93994137D01*
X157491819Y-93979441D01*
X157491827Y-93979437D01*
X157497644Y-93977880D01*
X157562868Y-93977879D01*
X157568695Y-93979440D01*
X157568697Y-93979441D01*
X157680333Y-93994138D01*
X157880182Y-93994137D01*
X157991819Y-93979441D01*
X157991827Y-93979437D01*
X157997644Y-93977880D01*
X158062868Y-93977879D01*
X158068695Y-93979440D01*
X158068697Y-93979441D01*
X158180333Y-93994138D01*
X158380182Y-93994137D01*
X158491819Y-93979441D01*
X158630722Y-93921905D01*
X158750000Y-93830380D01*
X158841525Y-93711102D01*
X158899061Y-93572199D01*
X158913758Y-93460563D01*
X158913757Y-93387717D01*
X158933758Y-93319599D01*
X158987413Y-93273105D01*
X159057687Y-93263000D01*
X159122268Y-93292492D01*
X159128852Y-93298623D01*
X160821398Y-94991170D01*
X160821403Y-94991174D01*
X160821405Y-94991176D01*
X160821406Y-94991177D01*
X160821408Y-94991178D01*
X160954729Y-95068151D01*
X160954731Y-95068151D01*
X160954734Y-95068153D01*
X161103442Y-95107999D01*
X161257396Y-95107999D01*
X164671702Y-95107999D01*
X164734701Y-95124879D01*
X164854165Y-95193852D01*
X164854167Y-95193852D01*
X164854168Y-95193853D01*
X164894012Y-95204529D01*
X165002874Y-95233699D01*
X165002875Y-95233699D01*
X166108121Y-95233699D01*
X166108123Y-95233699D01*
X166256832Y-95193852D01*
X166376295Y-95124879D01*
X166439295Y-95107999D01*
X176528236Y-95107999D01*
X176528238Y-95107999D01*
X176676947Y-95068152D01*
X176739554Y-95032006D01*
X176810276Y-94991175D01*
X177008447Y-94793002D01*
X177070759Y-94758978D01*
X177097543Y-94756098D01*
X189103359Y-94756098D01*
X189171480Y-94776100D01*
X189196994Y-94797786D01*
X189244245Y-94850264D01*
X189398746Y-94962516D01*
X189573210Y-95040192D01*
X189760011Y-95079898D01*
X189950985Y-95079898D01*
X190137786Y-95040192D01*
X190312250Y-94962516D01*
X190466751Y-94850264D01*
X190518309Y-94793003D01*
X190594532Y-94708349D01*
X190594533Y-94708347D01*
X190594538Y-94708342D01*
X190690025Y-94542954D01*
X190749040Y-94361326D01*
X190769002Y-94171398D01*
X191841994Y-94171398D01*
X191861955Y-94361325D01*
X191890763Y-94449984D01*
X191920971Y-94542954D01*
X191920974Y-94542959D01*
X192016456Y-94708339D01*
X192016463Y-94708349D01*
X192144242Y-94850262D01*
X192144245Y-94850264D01*
X192298746Y-94962516D01*
X192473210Y-95040192D01*
X192660011Y-95079898D01*
X192850985Y-95079898D01*
X193037786Y-95040192D01*
X193212250Y-94962516D01*
X193366751Y-94850264D01*
X193418309Y-94793003D01*
X193494532Y-94708349D01*
X193494533Y-94708347D01*
X193494538Y-94708342D01*
X193590025Y-94542954D01*
X193649040Y-94361326D01*
X193669002Y-94171398D01*
X193667046Y-94152792D01*
X193679815Y-94082956D01*
X193703257Y-94050527D01*
X194446248Y-93307536D01*
X194508558Y-93273512D01*
X194579373Y-93278577D01*
X194636209Y-93321124D01*
X194651749Y-93348414D01*
X194674755Y-93403956D01*
X194674757Y-93403959D01*
X194674758Y-93403961D01*
X194782613Y-93579964D01*
X194798823Y-93606415D01*
X194798824Y-93606417D01*
X194953028Y-93786967D01*
X195133578Y-93941171D01*
X195133582Y-93941174D01*
X195336035Y-94065238D01*
X195555404Y-94156103D01*
X195786287Y-94211533D01*
X196022998Y-94230163D01*
X196259709Y-94211533D01*
X196490592Y-94156103D01*
X196709961Y-94065238D01*
X196912414Y-93941174D01*
X197092967Y-93786967D01*
X197247174Y-93606414D01*
X197371238Y-93403961D01*
X197462103Y-93184592D01*
X197517533Y-92953709D01*
X197536163Y-92716998D01*
X201009833Y-92716998D01*
X201028463Y-92953709D01*
X201034641Y-92979441D01*
X201083892Y-93184590D01*
X201134819Y-93307538D01*
X201174758Y-93403961D01*
X201282613Y-93579964D01*
X201298823Y-93606415D01*
X201298824Y-93606417D01*
X201453028Y-93786967D01*
X201633578Y-93941171D01*
X201633582Y-93941174D01*
X201836035Y-94065238D01*
X202055404Y-94156103D01*
X202286287Y-94211533D01*
X202522998Y-94230163D01*
X202759709Y-94211533D01*
X202990592Y-94156103D01*
X203209961Y-94065238D01*
X203412414Y-93941174D01*
X203592967Y-93786967D01*
X203747174Y-93606414D01*
X203871238Y-93403961D01*
X203962103Y-93184592D01*
X204017533Y-92953709D01*
X204036163Y-92716998D01*
X204017533Y-92480287D01*
X203962103Y-92249404D01*
X203871238Y-92030035D01*
X203747174Y-91827582D01*
X203747171Y-91827578D01*
X203592967Y-91647028D01*
X203412417Y-91492824D01*
X203412415Y-91492823D01*
X203412414Y-91492822D01*
X203209961Y-91368758D01*
X203209957Y-91368756D01*
X202990590Y-91277892D01*
X202818573Y-91236595D01*
X202759709Y-91222463D01*
X202522998Y-91203833D01*
X202286287Y-91222463D01*
X202055405Y-91277892D01*
X201836036Y-91368757D01*
X201633580Y-91492823D01*
X201633578Y-91492824D01*
X201453028Y-91647028D01*
X201298824Y-91827578D01*
X201298823Y-91827580D01*
X201174757Y-92030036D01*
X201083892Y-92249405D01*
X201036417Y-92447155D01*
X201028463Y-92480287D01*
X201009833Y-92716998D01*
X197536163Y-92716998D01*
X197517533Y-92480287D01*
X197462103Y-92249404D01*
X197371238Y-92030035D01*
X197247174Y-91827582D01*
X197247171Y-91827578D01*
X197092967Y-91647028D01*
X196912417Y-91492824D01*
X196912415Y-91492823D01*
X196912414Y-91492822D01*
X196709961Y-91368758D01*
X196709956Y-91368756D01*
X196651930Y-91344721D01*
X196616577Y-91330077D01*
X196561297Y-91285530D01*
X196538876Y-91218166D01*
X196555676Y-91150671D01*
X196567851Y-91129584D01*
X196607698Y-90980875D01*
X196607698Y-89691787D01*
X196627700Y-89623666D01*
X196681356Y-89577173D01*
X196685464Y-89575384D01*
X196709961Y-89565238D01*
X196912414Y-89441174D01*
X197092967Y-89286967D01*
X197247174Y-89106414D01*
X197252029Y-89098492D01*
X197350341Y-88938063D01*
X197402988Y-88890432D01*
X197457773Y-88877898D01*
X201088223Y-88877898D01*
X201156344Y-88897900D01*
X201195655Y-88938063D01*
X201298816Y-89106406D01*
X201298824Y-89106417D01*
X201453028Y-89286967D01*
X201633220Y-89440865D01*
X201633582Y-89441174D01*
X201836035Y-89565238D01*
X202055404Y-89656103D01*
X202286287Y-89711533D01*
X202522998Y-89730163D01*
X202759709Y-89711533D01*
X202990592Y-89656103D01*
X203209961Y-89565238D01*
X203412414Y-89441174D01*
X203592967Y-89286967D01*
X203747174Y-89106414D01*
X203871238Y-88903961D01*
X203962103Y-88684592D01*
X204017533Y-88453709D01*
X204036163Y-88216998D01*
X204017533Y-87980287D01*
X203962103Y-87749404D01*
X203871238Y-87530035D01*
X203747174Y-87327582D01*
X203747171Y-87327578D01*
X203592967Y-87147028D01*
X203412417Y-86992824D01*
X203412415Y-86992823D01*
X203412414Y-86992822D01*
X203209961Y-86868758D01*
X202990595Y-86777894D01*
X202990590Y-86777892D01*
X202832649Y-86739974D01*
X202759709Y-86722463D01*
X202522998Y-86703833D01*
X202286287Y-86722463D01*
X202055405Y-86777892D01*
X201836036Y-86868757D01*
X201633580Y-86992823D01*
X201633578Y-86992824D01*
X201453028Y-87147028D01*
X201298824Y-87327578D01*
X201298816Y-87327589D01*
X201195655Y-87495933D01*
X201143008Y-87543564D01*
X201088223Y-87556098D01*
X197457773Y-87556098D01*
X197389652Y-87536096D01*
X197350341Y-87495933D01*
X197247179Y-87327589D01*
X197247171Y-87327578D01*
X197092967Y-87147028D01*
X196912417Y-86992824D01*
X196912415Y-86992823D01*
X196912414Y-86992822D01*
X196709961Y-86868758D01*
X196490595Y-86777894D01*
X196490590Y-86777892D01*
X196332649Y-86739974D01*
X196259709Y-86722463D01*
X196022998Y-86703833D01*
X195786287Y-86722463D01*
X195555405Y-86777892D01*
X195336036Y-86868757D01*
X195133580Y-86992823D01*
X195133578Y-86992824D01*
X194953028Y-87147028D01*
X194798824Y-87327578D01*
X194798823Y-87327580D01*
X194674757Y-87530036D01*
X194583892Y-87749405D01*
X194539747Y-87933286D01*
X194528463Y-87980287D01*
X194509833Y-88216998D01*
X194528463Y-88453709D01*
X194529969Y-88459983D01*
X194583892Y-88684590D01*
X194664619Y-88879482D01*
X194674758Y-88903961D01*
X194793967Y-89098492D01*
X194798823Y-89106415D01*
X194798824Y-89106417D01*
X194953028Y-89286967D01*
X195133220Y-89440865D01*
X195133582Y-89441174D01*
X195335312Y-89564795D01*
X195336037Y-89565239D01*
X195343921Y-89568504D01*
X195360514Y-89575377D01*
X195415796Y-89619925D01*
X195438218Y-89687288D01*
X195438298Y-89691787D01*
X195438298Y-90609518D01*
X195418296Y-90677639D01*
X195401393Y-90698613D01*
X192874013Y-93225993D01*
X192811701Y-93260019D01*
X192784918Y-93262898D01*
X192660011Y-93262898D01*
X192473209Y-93302604D01*
X192298745Y-93380280D01*
X192144242Y-93492533D01*
X192016463Y-93634446D01*
X192016456Y-93634456D01*
X191928404Y-93786967D01*
X191920971Y-93799842D01*
X191919917Y-93803087D01*
X191861955Y-93981470D01*
X191841994Y-94171398D01*
X190769002Y-94171398D01*
X190749040Y-93981470D01*
X190690025Y-93799842D01*
X190594538Y-93634454D01*
X190594536Y-93634452D01*
X190594532Y-93634446D01*
X190466753Y-93492533D01*
X190312250Y-93380280D01*
X190137786Y-93302604D01*
X189950985Y-93262898D01*
X189760011Y-93262898D01*
X189573209Y-93302604D01*
X189398745Y-93380280D01*
X189244245Y-93492531D01*
X189196996Y-93545008D01*
X189136550Y-93582248D01*
X189103359Y-93586698D01*
X187050409Y-93586698D01*
X186982288Y-93566696D01*
X186935795Y-93513040D01*
X186925691Y-93442766D01*
X186936481Y-93408730D01*
X186936010Y-93408535D01*
X186937905Y-93403961D01*
X187028770Y-93184592D01*
X187084200Y-92953709D01*
X187102830Y-92716998D01*
X187084200Y-92480287D01*
X187028770Y-92249404D01*
X186937905Y-92030035D01*
X186813841Y-91827582D01*
X186813838Y-91827578D01*
X186659634Y-91647028D01*
X186479084Y-91492824D01*
X186479082Y-91492823D01*
X186479081Y-91492822D01*
X186276628Y-91368758D01*
X186276624Y-91368756D01*
X186057257Y-91277892D01*
X185885240Y-91236595D01*
X185826376Y-91222463D01*
X185589665Y-91203833D01*
X185352954Y-91222463D01*
X185122072Y-91277892D01*
X184902703Y-91368757D01*
X184700247Y-91492823D01*
X184700245Y-91492824D01*
X184519695Y-91647028D01*
X184365491Y-91827578D01*
X184365490Y-91827580D01*
X184241424Y-92030036D01*
X184150559Y-92249405D01*
X184103084Y-92447155D01*
X184095130Y-92480287D01*
X184076500Y-92716998D01*
X184095130Y-92953709D01*
X184101308Y-92979441D01*
X184150559Y-93184590D01*
X184150560Y-93184592D01*
X184241424Y-93403959D01*
X184243320Y-93408535D01*
X184242220Y-93408990D01*
X184254292Y-93473274D01*
X184227591Y-93539058D01*
X184169562Y-93579964D01*
X184128921Y-93586698D01*
X180550409Y-93586698D01*
X180482288Y-93566696D01*
X180435795Y-93513040D01*
X180425691Y-93442766D01*
X180436481Y-93408730D01*
X180436010Y-93408535D01*
X180437905Y-93403961D01*
X180528770Y-93184592D01*
X180584200Y-92953709D01*
X180602830Y-92716998D01*
X180584200Y-92480287D01*
X180528770Y-92249404D01*
X180437905Y-92030035D01*
X180313841Y-91827582D01*
X180313838Y-91827578D01*
X180159634Y-91647028D01*
X179979084Y-91492824D01*
X179979082Y-91492823D01*
X179979081Y-91492822D01*
X179776628Y-91368758D01*
X179776624Y-91368756D01*
X179557257Y-91277892D01*
X179385240Y-91236595D01*
X179326376Y-91222463D01*
X179089665Y-91203833D01*
X178852954Y-91222463D01*
X178622072Y-91277892D01*
X178402703Y-91368757D01*
X178200247Y-91492823D01*
X178200245Y-91492824D01*
X178019695Y-91647028D01*
X177865491Y-91827578D01*
X177865490Y-91827580D01*
X177741424Y-92030036D01*
X177650559Y-92249405D01*
X177638717Y-92298735D01*
X177603365Y-92360304D01*
X177540338Y-92392987D01*
X177469647Y-92386407D01*
X177413736Y-92342652D01*
X177390355Y-92275616D01*
X177390198Y-92269321D01*
X177390198Y-90795544D01*
X177410200Y-90727423D01*
X177427098Y-90706453D01*
X177549830Y-90583721D01*
X188904998Y-90583721D01*
X188904998Y-90859074D01*
X188940936Y-91132057D01*
X188940938Y-91132064D01*
X189012203Y-91398030D01*
X189025609Y-91430395D01*
X189117575Y-91652420D01*
X189117581Y-91652431D01*
X189255246Y-91890873D01*
X189422870Y-92109326D01*
X189422879Y-92109336D01*
X189617559Y-92304016D01*
X189617569Y-92304025D01*
X189617570Y-92304026D01*
X189821609Y-92460590D01*
X189836022Y-92471649D01*
X190074464Y-92609314D01*
X190074475Y-92609320D01*
X190074477Y-92609321D01*
X190328866Y-92714693D01*
X190594832Y-92785958D01*
X190594836Y-92785958D01*
X190594838Y-92785959D01*
X190665194Y-92795221D01*
X190867824Y-92821898D01*
X190867831Y-92821898D01*
X191143165Y-92821898D01*
X191143172Y-92821898D01*
X191389889Y-92789417D01*
X191416157Y-92785959D01*
X191416157Y-92785958D01*
X191416164Y-92785958D01*
X191682130Y-92714693D01*
X191936519Y-92609321D01*
X192174977Y-92471647D01*
X192393426Y-92304026D01*
X192588126Y-92109326D01*
X192755747Y-91890877D01*
X192893421Y-91652419D01*
X192998793Y-91398030D01*
X193070058Y-91132064D01*
X193070385Y-91129584D01*
X193088856Y-90989276D01*
X193105998Y-90859072D01*
X193105998Y-90583724D01*
X193070058Y-90310732D01*
X192998793Y-90044766D01*
X192893421Y-89790377D01*
X192893420Y-89790375D01*
X192893414Y-89790364D01*
X192755749Y-89551922D01*
X192755744Y-89551916D01*
X192588126Y-89333470D01*
X192588125Y-89333469D01*
X192588116Y-89333459D01*
X192393436Y-89138779D01*
X192393426Y-89138770D01*
X192270590Y-89044515D01*
X192174977Y-88971149D01*
X192174976Y-88971148D01*
X192174973Y-88971146D01*
X191936531Y-88833481D01*
X191936520Y-88833475D01*
X191806609Y-88779664D01*
X191682130Y-88728103D01*
X191500471Y-88679428D01*
X191416157Y-88656836D01*
X191143174Y-88620898D01*
X191143172Y-88620898D01*
X190867824Y-88620898D01*
X190867821Y-88620898D01*
X190594838Y-88656836D01*
X190328866Y-88728103D01*
X190074475Y-88833475D01*
X190074464Y-88833481D01*
X189836022Y-88971146D01*
X189617569Y-89138770D01*
X189617559Y-89138779D01*
X189422879Y-89333459D01*
X189422870Y-89333469D01*
X189255246Y-89551922D01*
X189117581Y-89790364D01*
X189117575Y-89790375D01*
X189012203Y-90044766D01*
X188940936Y-90310738D01*
X188904998Y-90583721D01*
X177549830Y-90583721D01*
X178460276Y-89673275D01*
X178522588Y-89639250D01*
X178593403Y-89644315D01*
X178597581Y-89645959D01*
X178622071Y-89656103D01*
X178852954Y-89711533D01*
X179089665Y-89730163D01*
X179326376Y-89711533D01*
X179557259Y-89656103D01*
X179776628Y-89565238D01*
X179979081Y-89441174D01*
X180159634Y-89286967D01*
X180313841Y-89106414D01*
X180318696Y-89098492D01*
X180417008Y-88938063D01*
X180469655Y-88890432D01*
X180524440Y-88877898D01*
X184154890Y-88877898D01*
X184223011Y-88897900D01*
X184262322Y-88938063D01*
X184365483Y-89106406D01*
X184365491Y-89106417D01*
X184519695Y-89286967D01*
X184699887Y-89440865D01*
X184700249Y-89441174D01*
X184902702Y-89565238D01*
X185122071Y-89656103D01*
X185352954Y-89711533D01*
X185589665Y-89730163D01*
X185826376Y-89711533D01*
X186057259Y-89656103D01*
X186276628Y-89565238D01*
X186479081Y-89441174D01*
X186659634Y-89286967D01*
X186813841Y-89106414D01*
X186937905Y-88903961D01*
X187028770Y-88684592D01*
X187084200Y-88453709D01*
X187102830Y-88216998D01*
X187084200Y-87980287D01*
X187028770Y-87749404D01*
X186937905Y-87530035D01*
X186813841Y-87327582D01*
X186813838Y-87327578D01*
X186659634Y-87147028D01*
X186479084Y-86992824D01*
X186479082Y-86992823D01*
X186479081Y-86992822D01*
X186276628Y-86868758D01*
X186057262Y-86777894D01*
X186057257Y-86777892D01*
X185899316Y-86739974D01*
X185826376Y-86722463D01*
X185589665Y-86703833D01*
X185352954Y-86722463D01*
X185122072Y-86777892D01*
X184902703Y-86868757D01*
X184700247Y-86992823D01*
X184700245Y-86992824D01*
X184519695Y-87147028D01*
X184365491Y-87327578D01*
X184365483Y-87327589D01*
X184262322Y-87495933D01*
X184209675Y-87543564D01*
X184154890Y-87556098D01*
X180524440Y-87556098D01*
X180456319Y-87536096D01*
X180417008Y-87495933D01*
X180313846Y-87327589D01*
X180313838Y-87327578D01*
X180159634Y-87147028D01*
X179979084Y-86992824D01*
X179979082Y-86992823D01*
X179979081Y-86992822D01*
X179776628Y-86868758D01*
X179557262Y-86777894D01*
X179557257Y-86777892D01*
X179399316Y-86739974D01*
X179326376Y-86722463D01*
X179089665Y-86703833D01*
X178852954Y-86722463D01*
X178622072Y-86777892D01*
X178402703Y-86868757D01*
X178200247Y-86992823D01*
X178200245Y-86992824D01*
X178019695Y-87147028D01*
X177865491Y-87327578D01*
X177865490Y-87327580D01*
X177741424Y-87530036D01*
X177650559Y-87749405D01*
X177606414Y-87933286D01*
X177595130Y-87980287D01*
X177576500Y-88216998D01*
X177595130Y-88453709D01*
X177602835Y-88485802D01*
X177650559Y-88684589D01*
X177650559Y-88684590D01*
X177650560Y-88684592D01*
X177660699Y-88709071D01*
X177660701Y-88709074D01*
X177668289Y-88779664D01*
X177636508Y-88843150D01*
X177633386Y-88846385D01*
X176637715Y-89842056D01*
X176575403Y-89876082D01*
X176504588Y-89871017D01*
X176447752Y-89828470D01*
X176426477Y-89783897D01*
X176394794Y-89658782D01*
X176304358Y-89452607D01*
X176296887Y-89441172D01*
X176181222Y-89264132D01*
X176181212Y-89264120D01*
X176037657Y-89108180D01*
X176006235Y-89044515D01*
X176014221Y-88973969D01*
X176059080Y-88918940D01*
X176086325Y-88904786D01*
X176201463Y-88861842D01*
X176318402Y-88774302D01*
X176405942Y-88657363D01*
X176405942Y-88657362D01*
X176456992Y-88520491D01*
X176463497Y-88459995D01*
X176463498Y-88459983D01*
X176463498Y-87815398D01*
X175536201Y-87815398D01*
X175571423Y-87754391D01*
X175605498Y-87627224D01*
X175605498Y-87495572D01*
X175571423Y-87368405D01*
X175536201Y-87307398D01*
X176463498Y-87307398D01*
X176463498Y-86662812D01*
X176463497Y-86662800D01*
X176456992Y-86602304D01*
X176405942Y-86465433D01*
X176405942Y-86465432D01*
X176318402Y-86348493D01*
X176201463Y-86260953D01*
X176064591Y-86209903D01*
X176004095Y-86203398D01*
X175359498Y-86203398D01*
X175359498Y-87130695D01*
X175298491Y-87095473D01*
X175171324Y-87061398D01*
X175039672Y-87061398D01*
X174912505Y-87095473D01*
X174851498Y-87130695D01*
X174851498Y-86203398D01*
X174206900Y-86203398D01*
X174146404Y-86209903D01*
X174009533Y-86260953D01*
X174009532Y-86260953D01*
X173892593Y-86348493D01*
X173805053Y-86465432D01*
X173805051Y-86465437D01*
X173760878Y-86583868D01*
X173718331Y-86640704D01*
X173651811Y-86665514D01*
X173582437Y-86650422D01*
X173550124Y-86625175D01*
X173488738Y-86558492D01*
X173488737Y-86558491D01*
X173488735Y-86558489D01*
X173396312Y-86486553D01*
X173311074Y-86420209D01*
X173113072Y-86313056D01*
X173113070Y-86313055D01*
X173113069Y-86313054D01*
X172900137Y-86239955D01*
X172900128Y-86239953D01*
X172855974Y-86232585D01*
X172678067Y-86202898D01*
X172452929Y-86202898D01*
X172304709Y-86227631D01*
X172230867Y-86239953D01*
X172230858Y-86239955D01*
X172017926Y-86313054D01*
X172017924Y-86313056D01*
X171911073Y-86370881D01*
X171819924Y-86420208D01*
X171819922Y-86420209D01*
X171642260Y-86558489D01*
X171489777Y-86724127D01*
X171489773Y-86724132D01*
X171366639Y-86912604D01*
X171276201Y-87118784D01*
X171276200Y-87118785D01*
X171220935Y-87337022D01*
X171220934Y-87337028D01*
X171220934Y-87337030D01*
X171202342Y-87561398D01*
X171218334Y-87754391D01*
X171220935Y-87785773D01*
X171276200Y-88004010D01*
X171276201Y-88004011D01*
X171276202Y-88004014D01*
X171360235Y-88195592D01*
X171366639Y-88210191D01*
X171489773Y-88398663D01*
X171489777Y-88398668D01*
X171642260Y-88564306D01*
X171696829Y-88606779D01*
X171819922Y-88702587D01*
X171853178Y-88720584D01*
X171903569Y-88770598D01*
X171918921Y-88839914D01*
X171894360Y-88906527D01*
X171853178Y-88942211D01*
X171819924Y-88960208D01*
X171819922Y-88960209D01*
X171642260Y-89098489D01*
X171489777Y-89264127D01*
X171489773Y-89264132D01*
X171363788Y-89456969D01*
X171362360Y-89456036D01*
X171317670Y-89501060D01*
X171256874Y-89516698D01*
X169798858Y-89516698D01*
X169730737Y-89496696D01*
X169684244Y-89443040D01*
X169674140Y-89372766D01*
X169703634Y-89308186D01*
X169717026Y-89294888D01*
X169721277Y-89291256D01*
X169726300Y-89286967D01*
X169764847Y-89241835D01*
X169835391Y-89159238D01*
X169880507Y-89106414D01*
X170004571Y-88903961D01*
X170095436Y-88684592D01*
X170150866Y-88453709D01*
X170169496Y-88216998D01*
X170150866Y-87980287D01*
X170095436Y-87749404D01*
X170004571Y-87530035D01*
X169880507Y-87327582D01*
X169880504Y-87327578D01*
X169726300Y-87147028D01*
X169545750Y-86992824D01*
X169545748Y-86992823D01*
X169545747Y-86992822D01*
X169343294Y-86868758D01*
X169123928Y-86777894D01*
X169123923Y-86777892D01*
X168965982Y-86739974D01*
X168893042Y-86722463D01*
X168656331Y-86703833D01*
X168419620Y-86722463D01*
X168188738Y-86777892D01*
X167969369Y-86868757D01*
X167766913Y-86992823D01*
X167766911Y-86992824D01*
X167586361Y-87147028D01*
X167432157Y-87327578D01*
X167432156Y-87327580D01*
X167308090Y-87530036D01*
X167217225Y-87749405D01*
X167173080Y-87933286D01*
X167161796Y-87980287D01*
X167143166Y-88216998D01*
X167161796Y-88453709D01*
X167163302Y-88459983D01*
X167217225Y-88684590D01*
X167297952Y-88879482D01*
X167308091Y-88903961D01*
X167427300Y-89098492D01*
X167432156Y-89106415D01*
X167432157Y-89106417D01*
X167586359Y-89286965D01*
X167595636Y-89294888D01*
X167634444Y-89354339D01*
X167634950Y-89425334D01*
X167596993Y-89485332D01*
X167532624Y-89515285D01*
X167513804Y-89516698D01*
X167379878Y-89516698D01*
X167311757Y-89496696D01*
X167290783Y-89479793D01*
X164256914Y-86445923D01*
X164256910Y-86445920D01*
X164256908Y-86445918D01*
X164256394Y-86445621D01*
X164123580Y-86368941D01*
X163974871Y-86329094D01*
X163974869Y-86329094D01*
X160654887Y-86329094D01*
X160586766Y-86309092D01*
X160540273Y-86255436D01*
X160530169Y-86185162D01*
X160531310Y-86178501D01*
X160532017Y-86174946D01*
X160538498Y-86103620D01*
X160538498Y-86025398D01*
X159502498Y-86025398D01*
X159434377Y-86005396D01*
X159387884Y-85951740D01*
X159376498Y-85899398D01*
X159376498Y-85517398D01*
X159884498Y-85517398D01*
X160538497Y-85517398D01*
X160538497Y-85439176D01*
X160532016Y-85367844D01*
X160480864Y-85203691D01*
X160391919Y-85056557D01*
X160391911Y-85056547D01*
X160270348Y-84934984D01*
X160270338Y-84934976D01*
X160123204Y-84846031D01*
X159959050Y-84794879D01*
X159887721Y-84788398D01*
X159884498Y-84788398D01*
X159884498Y-85517398D01*
X159376498Y-85517398D01*
X159376498Y-84788398D01*
X159373266Y-84788399D01*
X159301944Y-84794879D01*
X159137791Y-84846031D01*
X158990657Y-84934976D01*
X158990647Y-84934984D01*
X158894947Y-85030685D01*
X158832635Y-85064711D01*
X158761820Y-85059646D01*
X158716757Y-85030685D01*
X158620658Y-84934586D01*
X158620653Y-84934582D01*
X158473409Y-84845570D01*
X158473404Y-84845568D01*
X158309144Y-84794384D01*
X158257221Y-84789666D01*
X158237763Y-84787898D01*
X158237760Y-84787898D01*
X157723236Y-84787898D01*
X157651851Y-84794384D01*
X157651850Y-84794384D01*
X157487591Y-84845568D01*
X157487586Y-84845570D01*
X157340342Y-84934582D01*
X157340337Y-84934586D01*
X157218686Y-85056237D01*
X157218682Y-85056242D01*
X157129670Y-85203486D01*
X157129668Y-85203491D01*
X157078484Y-85367751D01*
X157071998Y-85439135D01*
X157071998Y-86103659D01*
X157078484Y-86175044D01*
X157078484Y-86175045D01*
X157129668Y-86339304D01*
X157129670Y-86339309D01*
X157129671Y-86339311D01*
X157218682Y-86486553D01*
X157218685Y-86486556D01*
X157220148Y-86488424D01*
X157220793Y-86490045D01*
X157222625Y-86493075D01*
X157222121Y-86493379D01*
X157246411Y-86554385D01*
X157232844Y-86624073D01*
X157210058Y-86655218D01*
X157201609Y-86663666D01*
X157201607Y-86663669D01*
X157111650Y-86809513D01*
X157057755Y-86972156D01*
X157057753Y-86972168D01*
X157047498Y-87072545D01*
X157047498Y-87117398D01*
X158020998Y-87117398D01*
X158089119Y-87137400D01*
X158135612Y-87191056D01*
X158146998Y-87243398D01*
X158146998Y-87411898D01*
X158126996Y-87480019D01*
X158073340Y-87526512D01*
X158020998Y-87537898D01*
X157837327Y-87537898D01*
X157688618Y-87577745D01*
X157653319Y-87598125D01*
X157653318Y-87598125D01*
X157635316Y-87608518D01*
X157572318Y-87625398D01*
X157047498Y-87625398D01*
X157047498Y-87670250D01*
X157057753Y-87770627D01*
X157057755Y-87770639D01*
X157111651Y-87933283D01*
X157111652Y-87933286D01*
X157122325Y-87950590D01*
X157141062Y-88019069D01*
X157119802Y-88086808D01*
X157104179Y-88105831D01*
X157014418Y-88195592D01*
X156952106Y-88229618D01*
X156908881Y-88231420D01*
X156880148Y-88227638D01*
X156680366Y-88227638D01*
X156651634Y-88231420D01*
X156581486Y-88220478D01*
X156546097Y-88195592D01*
X155954032Y-87603527D01*
X155954022Y-87603519D01*
X155871885Y-87556098D01*
X155820698Y-87526545D01*
X155820575Y-87526512D01*
X155671989Y-87486698D01*
X155671987Y-87486698D01*
X155607637Y-87486698D01*
X155539516Y-87466696D01*
X155514000Y-87445008D01*
X155466750Y-87392531D01*
X155312250Y-87280280D01*
X155137786Y-87202604D01*
X154950985Y-87162898D01*
X154760011Y-87162898D01*
X154573209Y-87202604D01*
X154398745Y-87280280D01*
X154244242Y-87392533D01*
X154116465Y-87534445D01*
X154116456Y-87534456D01*
X154020974Y-87699836D01*
X154020971Y-87699843D01*
X153961955Y-87881470D01*
X153941994Y-88071398D01*
X153961329Y-88255371D01*
X153948556Y-88325210D01*
X153929656Y-88352851D01*
X153809950Y-88485798D01*
X153809947Y-88485802D01*
X153714465Y-88651182D01*
X153714462Y-88651189D01*
X153655446Y-88832816D01*
X153636481Y-89013262D01*
X153609468Y-89078918D01*
X153551246Y-89119548D01*
X153480301Y-89122251D01*
X153422076Y-89089186D01*
X153179276Y-88846386D01*
X153145250Y-88784074D01*
X153150315Y-88713259D01*
X153151963Y-88709071D01*
X153151964Y-88709069D01*
X153162103Y-88684592D01*
X153217533Y-88453709D01*
X153236163Y-88216998D01*
X153217533Y-87980287D01*
X153162103Y-87749404D01*
X153071238Y-87530035D01*
X152947174Y-87327582D01*
X152947171Y-87327578D01*
X152792967Y-87147028D01*
X152612417Y-86992824D01*
X152612415Y-86992823D01*
X152612414Y-86992822D01*
X152409961Y-86868758D01*
X152190595Y-86777894D01*
X152190590Y-86777892D01*
X152032649Y-86739974D01*
X151959709Y-86722463D01*
X151722998Y-86703833D01*
X151486287Y-86722463D01*
X151255405Y-86777892D01*
X151036036Y-86868757D01*
X150833580Y-86992823D01*
X150833578Y-86992824D01*
X150653028Y-87147028D01*
X150498824Y-87327578D01*
X150498823Y-87327580D01*
X150374757Y-87530036D01*
X150283892Y-87749405D01*
X150239747Y-87933286D01*
X150228463Y-87980287D01*
X150209833Y-88216998D01*
X150228463Y-88453709D01*
X150229969Y-88459983D01*
X150283892Y-88684590D01*
X150364619Y-88879482D01*
X150374758Y-88903961D01*
X150458774Y-89041062D01*
X150477312Y-89109594D01*
X150455856Y-89177271D01*
X150401217Y-89222604D01*
X150351341Y-89232896D01*
X146594655Y-89232896D01*
X146526534Y-89212894D01*
X146480041Y-89159238D01*
X146469937Y-89088964D01*
X146487221Y-89041063D01*
X146571238Y-88903961D01*
X146662103Y-88684592D01*
X146717533Y-88453709D01*
X146736163Y-88216998D01*
X146717533Y-87980287D01*
X146662103Y-87749404D01*
X146571238Y-87530035D01*
X146447174Y-87327582D01*
X146447171Y-87327578D01*
X146292967Y-87147028D01*
X146112417Y-86992824D01*
X146112415Y-86992823D01*
X146112414Y-86992822D01*
X145909961Y-86868758D01*
X145690595Y-86777894D01*
X145690590Y-86777892D01*
X145532649Y-86739974D01*
X145459709Y-86722463D01*
X145222998Y-86703833D01*
X144986287Y-86722463D01*
X144755405Y-86777892D01*
X144536036Y-86868757D01*
X144333580Y-86992823D01*
X144333578Y-86992824D01*
X144153028Y-87147028D01*
X143998824Y-87327578D01*
X143998823Y-87327580D01*
X143874757Y-87530036D01*
X143783892Y-87749405D01*
X143739747Y-87933286D01*
X143728463Y-87980287D01*
X143709833Y-88216998D01*
X143728463Y-88453709D01*
X143729969Y-88459983D01*
X143783892Y-88684590D01*
X143864619Y-88879482D01*
X143874758Y-88903961D01*
X143958774Y-89041062D01*
X143977312Y-89109594D01*
X143955856Y-89177271D01*
X143901217Y-89222604D01*
X143851341Y-89232896D01*
X136684678Y-89232896D01*
X136616557Y-89212894D01*
X136595583Y-89195992D01*
X136422335Y-89022744D01*
X136245977Y-88846387D01*
X136211953Y-88784075D01*
X136217017Y-88713260D01*
X136218643Y-88709125D01*
X136228805Y-88684594D01*
X136284235Y-88453711D01*
X136302865Y-88217000D01*
X136284235Y-87980289D01*
X136228805Y-87749406D01*
X136137940Y-87530037D01*
X136013876Y-87327584D01*
X135973475Y-87280280D01*
X135859669Y-87147030D01*
X135679119Y-86992826D01*
X135679117Y-86992825D01*
X135679116Y-86992824D01*
X135476663Y-86868760D01*
X135476659Y-86868758D01*
X135257292Y-86777894D01*
X135099351Y-86739976D01*
X135026411Y-86722465D01*
X134789700Y-86703835D01*
X134552989Y-86722465D01*
X134322107Y-86777894D01*
X134102738Y-86868759D01*
X133900282Y-86992825D01*
X133900280Y-86992826D01*
X133719730Y-87147030D01*
X133565526Y-87327580D01*
X133565525Y-87327582D01*
X133441459Y-87530038D01*
X133350594Y-87749407D01*
X133295165Y-87980287D01*
X133295165Y-87980289D01*
X133276535Y-88217000D01*
X133295165Y-88453711D01*
X133302869Y-88485800D01*
X133350594Y-88684592D01*
X133438949Y-88897900D01*
X133441460Y-88903963D01*
X133565523Y-89106415D01*
X133565525Y-89106417D01*
X133565526Y-89106419D01*
X133719730Y-89286969D01*
X133808735Y-89362986D01*
X133847545Y-89422436D01*
X133848052Y-89493431D01*
X133810095Y-89553430D01*
X133745727Y-89583383D01*
X133726905Y-89584797D01*
X129352495Y-89584797D01*
X129284374Y-89564795D01*
X129237881Y-89511139D01*
X129227777Y-89440865D01*
X129257271Y-89376285D01*
X129270665Y-89362986D01*
X129359669Y-89286969D01*
X129405852Y-89232896D01*
X129513876Y-89106416D01*
X129637940Y-88903963D01*
X129728805Y-88684594D01*
X129784235Y-88453711D01*
X129802865Y-88217000D01*
X129784235Y-87980289D01*
X129728805Y-87749406D01*
X129637940Y-87530037D01*
X129513876Y-87327584D01*
X129473475Y-87280280D01*
X129359669Y-87147030D01*
X129179119Y-86992826D01*
X129179117Y-86992825D01*
X129179116Y-86992824D01*
X128976663Y-86868760D01*
X128976659Y-86868758D01*
X128757292Y-86777894D01*
X128599351Y-86739976D01*
X128526411Y-86722465D01*
X128289700Y-86703835D01*
X128052989Y-86722465D01*
X127822107Y-86777894D01*
X127602738Y-86868759D01*
X127400282Y-86992825D01*
X127400280Y-86992826D01*
X127219730Y-87147030D01*
X127065526Y-87327580D01*
X127065525Y-87327582D01*
X126941459Y-87530038D01*
X126850594Y-87749407D01*
X126795165Y-87980287D01*
X126795165Y-87980289D01*
X126776535Y-88217000D01*
X126795165Y-88453711D01*
X126802869Y-88485800D01*
X126850594Y-88684592D01*
X126938949Y-88897900D01*
X126941460Y-88903963D01*
X127065523Y-89106415D01*
X127065525Y-89106417D01*
X127065526Y-89106419D01*
X127219730Y-89286969D01*
X127308735Y-89362986D01*
X127347545Y-89422436D01*
X127348052Y-89493431D01*
X127310095Y-89553430D01*
X127245727Y-89583383D01*
X127226905Y-89584797D01*
X124508298Y-89584797D01*
X124440177Y-89564795D01*
X124393684Y-89511139D01*
X124382298Y-89458797D01*
X124382298Y-88175398D01*
X121766298Y-88175398D01*
X121766298Y-89458797D01*
X121746296Y-89526918D01*
X121692640Y-89573411D01*
X121640298Y-89584797D01*
X120103212Y-89584797D01*
X120035091Y-89564795D01*
X120014117Y-89547893D01*
X119678896Y-89212672D01*
X119312608Y-88846385D01*
X119278584Y-88784073D01*
X119283648Y-88713258D01*
X119285274Y-88709123D01*
X119295436Y-88684592D01*
X119350866Y-88453709D01*
X119369496Y-88216998D01*
X119350866Y-87980287D01*
X119295436Y-87749404D01*
X119204571Y-87530035D01*
X119080507Y-87327582D01*
X119080504Y-87327578D01*
X118926300Y-87147028D01*
X118745750Y-86992824D01*
X118745748Y-86992823D01*
X118745747Y-86992822D01*
X118543294Y-86868758D01*
X118323928Y-86777894D01*
X118323923Y-86777892D01*
X118165982Y-86739974D01*
X118093042Y-86722463D01*
X117856331Y-86703833D01*
X117619620Y-86722463D01*
X117388738Y-86777892D01*
X117169369Y-86868757D01*
X116966913Y-86992823D01*
X116966911Y-86992824D01*
X116786361Y-87147028D01*
X116632157Y-87327578D01*
X116632156Y-87327580D01*
X116508090Y-87530036D01*
X116417225Y-87749405D01*
X116373080Y-87933286D01*
X116361796Y-87980287D01*
X116343166Y-88216998D01*
X116361796Y-88453709D01*
X116363302Y-88459983D01*
X116417225Y-88684590D01*
X116497952Y-88879482D01*
X116508091Y-88903961D01*
X116627300Y-89098492D01*
X116632156Y-89106415D01*
X116632157Y-89106417D01*
X116786361Y-89286967D01*
X116966553Y-89440865D01*
X116966915Y-89441174D01*
X117169368Y-89565238D01*
X117388737Y-89656103D01*
X117522347Y-89688180D01*
X117583915Y-89723531D01*
X117616598Y-89786558D01*
X117610018Y-89857249D01*
X117566264Y-89913160D01*
X117499227Y-89936541D01*
X117492932Y-89936698D01*
X111719730Y-89936698D01*
X111651609Y-89916696D01*
X111605116Y-89863040D01*
X111595012Y-89792766D01*
X111624506Y-89728186D01*
X111684232Y-89689802D01*
X111690292Y-89688185D01*
X111823925Y-89656103D01*
X112043294Y-89565238D01*
X112245747Y-89441174D01*
X112426300Y-89286967D01*
X112580507Y-89106414D01*
X112704571Y-88903961D01*
X112795436Y-88684592D01*
X112850866Y-88453709D01*
X112869496Y-88216998D01*
X112850866Y-87980287D01*
X112795436Y-87749404D01*
X112704571Y-87530035D01*
X112580507Y-87327582D01*
X112580504Y-87327578D01*
X112426300Y-87147028D01*
X112245750Y-86992824D01*
X112245748Y-86992823D01*
X112245747Y-86992822D01*
X112043294Y-86868758D01*
X111823928Y-86777894D01*
X111823923Y-86777892D01*
X111665982Y-86739974D01*
X111593042Y-86722463D01*
X111356331Y-86703833D01*
X111119620Y-86722463D01*
X110888738Y-86777892D01*
X110669369Y-86868757D01*
X110466913Y-86992823D01*
X110466911Y-86992824D01*
X110286361Y-87147028D01*
X110132157Y-87327578D01*
X110132156Y-87327580D01*
X110008090Y-87530036D01*
X109917225Y-87749405D01*
X109873080Y-87933286D01*
X109861796Y-87980287D01*
X109843166Y-88216998D01*
X109861796Y-88453709D01*
X109863302Y-88459983D01*
X109917225Y-88684590D01*
X109997952Y-88879482D01*
X110008091Y-88903961D01*
X110127300Y-89098492D01*
X110132156Y-89106415D01*
X110132157Y-89106417D01*
X110286361Y-89286967D01*
X110466553Y-89440865D01*
X110466915Y-89441174D01*
X110669368Y-89565238D01*
X110888737Y-89656103D01*
X111022347Y-89688180D01*
X111083915Y-89723531D01*
X111116598Y-89786558D01*
X111110018Y-89857249D01*
X111066264Y-89913160D01*
X110999227Y-89936541D01*
X110992932Y-89936698D01*
X110199878Y-89936698D01*
X110131757Y-89916696D01*
X110110783Y-89899793D01*
X107960118Y-87749127D01*
X107960108Y-87749119D01*
X107902071Y-87715612D01*
X107826784Y-87672145D01*
X107678075Y-87632298D01*
X107678073Y-87632298D01*
X102397787Y-87632298D01*
X102329666Y-87612296D01*
X102283173Y-87558640D01*
X102281377Y-87554514D01*
X102271239Y-87530037D01*
X102269079Y-87526512D01*
X102147174Y-87327582D01*
X102147171Y-87327578D01*
X101992967Y-87147028D01*
X101812417Y-86992824D01*
X101812415Y-86992823D01*
X101812414Y-86992822D01*
X101609961Y-86868758D01*
X101390595Y-86777894D01*
X101390590Y-86777892D01*
X101232649Y-86739974D01*
X101159709Y-86722463D01*
X100922998Y-86703833D01*
X100686287Y-86722463D01*
X100455405Y-86777892D01*
X100236036Y-86868757D01*
X100033580Y-86992823D01*
X100033578Y-86992824D01*
X99853028Y-87147028D01*
X99698824Y-87327578D01*
X99698823Y-87327580D01*
X99574757Y-87530036D01*
X99483892Y-87749405D01*
X99439747Y-87933286D01*
X99428463Y-87980287D01*
X99409833Y-88216998D01*
X95936163Y-88216998D01*
X95917533Y-87980287D01*
X95862103Y-87749404D01*
X95771238Y-87530035D01*
X95647174Y-87327582D01*
X95647171Y-87327578D01*
X95492967Y-87147028D01*
X95312417Y-86992824D01*
X95312415Y-86992823D01*
X95312414Y-86992822D01*
X95109961Y-86868758D01*
X94890595Y-86777894D01*
X94890590Y-86777892D01*
X94732649Y-86739974D01*
X94659709Y-86722463D01*
X94422998Y-86703833D01*
X94186287Y-86722463D01*
X93955405Y-86777892D01*
X93736036Y-86868757D01*
X93533580Y-86992823D01*
X93533578Y-86992824D01*
X93353028Y-87147028D01*
X93198824Y-87327578D01*
X93198823Y-87327580D01*
X93074757Y-87530036D01*
X92983892Y-87749405D01*
X92939747Y-87933286D01*
X92928463Y-87980287D01*
X92909833Y-88216998D01*
X91755998Y-88216998D01*
X91755998Y-86370881D01*
X121766298Y-86370881D01*
X121766298Y-87667398D01*
X122820298Y-87667398D01*
X123328298Y-87667398D01*
X124382298Y-87667398D01*
X124382298Y-86370881D01*
X124371692Y-86267079D01*
X124371691Y-86267076D01*
X124315955Y-86098872D01*
X124222932Y-85948058D01*
X124222927Y-85948052D01*
X124097643Y-85822768D01*
X124097637Y-85822763D01*
X123946823Y-85729740D01*
X123778619Y-85674004D01*
X123778616Y-85674003D01*
X123674814Y-85663398D01*
X123328298Y-85663398D01*
X123328298Y-87667398D01*
X122820298Y-87667398D01*
X122820298Y-85663398D01*
X122473781Y-85663398D01*
X122369979Y-85674003D01*
X122369976Y-85674004D01*
X122201772Y-85729740D01*
X122050958Y-85822763D01*
X122050952Y-85822768D01*
X121925668Y-85948052D01*
X121925663Y-85948058D01*
X121832640Y-86098872D01*
X121776904Y-86267076D01*
X121776903Y-86267079D01*
X121766298Y-86370881D01*
X91755998Y-86370881D01*
X91755998Y-85226353D01*
X91756386Y-85216467D01*
X91756390Y-85216418D01*
X91770604Y-85035806D01*
X91773693Y-85016303D01*
X91814839Y-84844917D01*
X91820948Y-84826119D01*
X91888392Y-84663295D01*
X91897363Y-84645689D01*
X91989453Y-84495411D01*
X92001073Y-84479419D01*
X92115529Y-84345409D01*
X92129509Y-84331429D01*
X92129510Y-84331428D01*
X92263522Y-84216970D01*
X92279511Y-84205353D01*
X92429789Y-84113263D01*
X92447395Y-84104292D01*
X92610224Y-84036846D01*
X92629017Y-84030739D01*
X92800403Y-83989593D01*
X92819906Y-83986504D01*
X93000569Y-83972285D01*
X93010455Y-83971898D01*
X93084379Y-83971898D01*
X203926618Y-83971898D01*
X204000543Y-83971898D01*
X204010429Y-83972286D01*
G37*
G04 #@! TD.AperFunction*
M02*
