%TF.GenerationSoftware,KiCad,Pcbnew,8.0.6*%
%TF.CreationDate,2024-12-03T13:54:24-05:00*%
%TF.ProjectId,UFC_Function Select,5546435f-4675-46e6-9374-696f6e205365,rev?*%
%TF.SameCoordinates,Original*%
%TF.FileFunction,Drillmap*%
%TF.FilePolarity,Positive*%
%FSLAX45Y45*%
G04 Gerber Fmt 4.5, Leading zero omitted, Abs format (unit mm)*
G04 Created by KiCad (PCBNEW 8.0.6) date 2024-12-03 13:54:24*
%MOMM*%
%LPD*%
G01*
G04 APERTURE LIST*
%ADD10C,0.100000*%
%ADD11C,0.200000*%
%ADD12C,0.110000*%
G04 APERTURE END LIST*
D10*
X9100550Y-9572140D02*
X9100550Y-8522140D01*
X9100550Y-8522140D02*
G75*
G02*
X9300550Y-8322140I200000J0D01*
G01*
X20600550Y-9572140D02*
G75*
G02*
X20400550Y-9772140I-200000J0D01*
G01*
X9300550Y-8322140D02*
X20400550Y-8322140D01*
X20400550Y-9772140D02*
X9300550Y-9772140D01*
X9300550Y-9772140D02*
G75*
G02*
X9100550Y-9572140I0J200000D01*
G01*
X20600550Y-8522140D02*
X20600550Y-9572140D01*
X20400550Y-8322140D02*
G75*
G02*
X20600550Y-8522140I0J-200000D01*
G01*
D11*
D10*
X9247050Y-8622880D02*
X9287050Y-8662880D01*
X9287050Y-8622880D02*
X9247050Y-8662880D01*
X9615550Y-9352140D02*
X9655550Y-9392140D01*
X9655550Y-9352140D02*
X9615550Y-9392140D01*
X9735550Y-8492140D02*
X9775550Y-8532140D01*
X9775550Y-8492140D02*
X9735550Y-8532140D01*
X10260550Y-9487140D02*
X10300550Y-9527140D01*
X10300550Y-9487140D02*
X10260550Y-9527140D01*
X10765550Y-8572140D02*
X10805550Y-8612140D01*
X10805550Y-8572140D02*
X10765550Y-8612140D01*
X11320550Y-9492140D02*
X11360550Y-9532140D01*
X11360550Y-9492140D02*
X11320550Y-9532140D01*
X11575550Y-8722140D02*
X11615550Y-8762140D01*
X11615550Y-8722140D02*
X11575550Y-8762140D01*
X11960550Y-9492140D02*
X12000550Y-9532140D01*
X12000550Y-9492140D02*
X11960550Y-9532140D01*
X12140550Y-9332140D02*
X12180550Y-9372140D01*
X12180550Y-9332140D02*
X12140550Y-9372140D01*
X12415550Y-9332140D02*
X12455550Y-9372140D01*
X12455550Y-9332140D02*
X12415550Y-9372140D01*
X12465550Y-8577140D02*
X12505550Y-8617140D01*
X12505550Y-8577140D02*
X12465550Y-8617140D01*
X13030550Y-9487140D02*
X13070550Y-9527140D01*
X13070550Y-9487140D02*
X13030550Y-9527140D01*
X13295550Y-8712140D02*
X13335550Y-8752140D01*
X13335550Y-8712140D02*
X13295550Y-8752140D01*
X13670550Y-9492140D02*
X13710550Y-9532140D01*
X13710550Y-9492140D02*
X13670550Y-9532140D01*
X14025550Y-8577140D02*
X14065550Y-8617140D01*
X14065550Y-8577140D02*
X14025550Y-8617140D01*
X14710550Y-9482140D02*
X14750550Y-9522140D01*
X14750550Y-9482140D02*
X14710550Y-9522140D01*
X14955550Y-8707140D02*
X14995550Y-8747140D01*
X14995550Y-8707140D02*
X14955550Y-8747140D01*
X15345550Y-9492140D02*
X15385550Y-9532140D01*
X15385550Y-9492140D02*
X15345550Y-9532140D01*
X15434899Y-8882274D02*
X15474899Y-8922274D01*
X15474899Y-8882274D02*
X15434899Y-8922274D01*
X15465550Y-8787140D02*
X15505550Y-8827140D01*
X15505550Y-8787140D02*
X15465550Y-8827140D01*
X15615550Y-8572140D02*
X15655550Y-8612140D01*
X15655550Y-8572140D02*
X15615550Y-8612140D01*
X15985550Y-8827140D02*
X16025550Y-8867140D01*
X16025550Y-8827140D02*
X15985550Y-8867140D01*
X16069480Y-9060568D02*
X16109480Y-9100568D01*
X16109480Y-9060568D02*
X16069480Y-9100568D01*
X16159620Y-8970428D02*
X16199620Y-9010428D01*
X16199620Y-8970428D02*
X16159620Y-9010428D01*
X16405634Y-9499900D02*
X16445634Y-9539900D01*
X16445634Y-9499900D02*
X16405634Y-9539900D01*
X16530550Y-9342140D02*
X16570550Y-9382140D01*
X16570550Y-9342140D02*
X16530550Y-9382140D01*
X16652660Y-8497140D02*
X16692660Y-8537140D01*
X16692660Y-8497140D02*
X16652660Y-8537140D01*
X17065314Y-9499900D02*
X17105314Y-9539900D01*
X17105314Y-9499900D02*
X17065314Y-9539900D01*
X17685550Y-8537140D02*
X17725550Y-8577140D01*
X17725550Y-8537140D02*
X17685550Y-8577140D01*
X18085550Y-9482140D02*
X18125550Y-9522140D01*
X18125550Y-9482140D02*
X18085550Y-9522140D01*
X18245550Y-8492140D02*
X18285550Y-8532140D01*
X18285550Y-8492140D02*
X18245550Y-8532140D01*
X18770550Y-9487140D02*
X18810550Y-9527140D01*
X18810550Y-9487140D02*
X18770550Y-9527140D01*
X18965550Y-9397140D02*
X19005550Y-9437140D01*
X19005550Y-9397140D02*
X18965550Y-9437140D01*
X19215550Y-8572140D02*
X19255550Y-8612140D01*
X19255550Y-8572140D02*
X19215550Y-8612140D01*
X19255550Y-9397140D02*
X19295550Y-9437140D01*
X19295550Y-9397140D02*
X19255550Y-9437140D01*
X19780550Y-9477140D02*
X19820550Y-9517140D01*
X19820550Y-9477140D02*
X19780550Y-9517140D01*
X20050550Y-8697140D02*
X20090550Y-8737140D01*
X20090550Y-8697140D02*
X20050550Y-8737140D01*
X20410550Y-9417140D02*
X20450550Y-9457140D01*
X20450550Y-9417140D02*
X20410550Y-9457140D01*
X17306550Y-8756140D02*
G75*
G02*
X17206550Y-8756140I-50000J0D01*
G01*
X17206550Y-8756140D02*
G75*
G02*
X17306550Y-8756140I50000J0D01*
G01*
X17306550Y-9010140D02*
G75*
G02*
X17206550Y-9010140I-50000J0D01*
G01*
X17206550Y-9010140D02*
G75*
G02*
X17306550Y-9010140I50000J0D01*
G01*
X17306550Y-9264140D02*
G75*
G02*
X17206550Y-9264140I-50000J0D01*
G01*
X17206550Y-9264140D02*
G75*
G02*
X17306550Y-9264140I50000J0D01*
G01*
X17560550Y-8756140D02*
G75*
G02*
X17460550Y-8756140I-50000J0D01*
G01*
X17460550Y-8756140D02*
G75*
G02*
X17560550Y-8756140I50000J0D01*
G01*
X17560550Y-9010140D02*
G75*
G02*
X17460550Y-9010140I-50000J0D01*
G01*
X17460550Y-9010140D02*
G75*
G02*
X17560550Y-9010140I50000J0D01*
G01*
X17560550Y-9264140D02*
G75*
G02*
X17460550Y-9264140I-50000J0D01*
G01*
X17460550Y-9264140D02*
G75*
G02*
X17560550Y-9264140I50000J0D01*
G01*
D12*
X9442300Y-8766700D02*
X9442300Y-8876700D01*
X9387300Y-8821700D02*
X9497300Y-8821700D01*
X9442300Y-9216700D02*
X9442300Y-9326700D01*
X9387300Y-9271700D02*
X9497300Y-9271700D01*
X10092300Y-8766700D02*
X10092300Y-8876700D01*
X10037300Y-8821700D02*
X10147300Y-8821700D01*
X10092300Y-9216700D02*
X10092300Y-9326700D01*
X10037300Y-9271700D02*
X10147300Y-9271700D01*
X11135633Y-8766700D02*
X11135633Y-8876700D01*
X11080633Y-8821700D02*
X11190633Y-8821700D01*
X11135633Y-9216700D02*
X11135633Y-9326700D01*
X11080633Y-9271700D02*
X11190633Y-9271700D01*
X11785633Y-8766700D02*
X11785633Y-8876700D01*
X11730633Y-8821700D02*
X11840633Y-8821700D01*
X11785633Y-9216700D02*
X11785633Y-9326700D01*
X11730633Y-9271700D02*
X11840633Y-9271700D01*
X12828970Y-8766700D02*
X12828970Y-8876700D01*
X12773970Y-8821700D02*
X12883970Y-8821700D01*
X12828970Y-9216700D02*
X12828970Y-9326700D01*
X12773970Y-9271700D02*
X12883970Y-9271700D01*
X13478970Y-8766700D02*
X13478970Y-8876700D01*
X13423970Y-8821700D02*
X13533970Y-8821700D01*
X13478970Y-9216700D02*
X13478970Y-9326700D01*
X13423970Y-9271700D02*
X13533970Y-9271700D01*
X14522300Y-8766700D02*
X14522300Y-8876700D01*
X14467300Y-8821700D02*
X14577300Y-8821700D01*
X14522300Y-9216700D02*
X14522300Y-9326700D01*
X14467300Y-9271700D02*
X14577300Y-9271700D01*
X15172300Y-8766700D02*
X15172300Y-8876700D01*
X15117300Y-8821700D02*
X15227300Y-8821700D01*
X15172300Y-9216700D02*
X15172300Y-9326700D01*
X15117300Y-9271700D02*
X15227300Y-9271700D01*
X16215633Y-8766700D02*
X16215633Y-8876700D01*
X16160633Y-8821700D02*
X16270633Y-8821700D01*
X16215633Y-9216700D02*
X16215633Y-9326700D01*
X16160633Y-9271700D02*
X16270633Y-9271700D01*
X16865633Y-8766700D02*
X16865633Y-8876700D01*
X16810633Y-8821700D02*
X16920633Y-8821700D01*
X16865633Y-9216700D02*
X16865633Y-9326700D01*
X16810633Y-9271700D02*
X16920633Y-9271700D01*
X17908967Y-8766700D02*
X17908967Y-8876700D01*
X17853967Y-8821700D02*
X17963967Y-8821700D01*
X17908967Y-9216700D02*
X17908967Y-9326700D01*
X17853967Y-9271700D02*
X17963967Y-9271700D01*
X18558967Y-8766700D02*
X18558967Y-8876700D01*
X18503967Y-8821700D02*
X18613967Y-8821700D01*
X18558967Y-9216700D02*
X18558967Y-9326700D01*
X18503967Y-9271700D02*
X18613967Y-9271700D01*
X19602300Y-8766700D02*
X19602300Y-8876700D01*
X19547300Y-8821700D02*
X19657300Y-8821700D01*
X19602300Y-9216700D02*
X19602300Y-9326700D01*
X19547300Y-9271700D02*
X19657300Y-9271700D01*
X20252300Y-8766700D02*
X20252300Y-8876700D01*
X20197300Y-8821700D02*
X20307300Y-8821700D01*
X20252300Y-9216700D02*
X20252300Y-9326700D01*
X20197300Y-9271700D02*
X20307300Y-9271700D01*
D11*
X9356327Y-10088624D02*
X9356327Y-9888624D01*
X9356327Y-9888624D02*
X9403946Y-9888624D01*
X9403946Y-9888624D02*
X9432517Y-9898147D01*
X9432517Y-9898147D02*
X9451565Y-9917195D01*
X9451565Y-9917195D02*
X9461089Y-9936243D01*
X9461089Y-9936243D02*
X9470612Y-9974338D01*
X9470612Y-9974338D02*
X9470612Y-10002909D01*
X9470612Y-10002909D02*
X9461089Y-10041005D01*
X9461089Y-10041005D02*
X9451565Y-10060052D01*
X9451565Y-10060052D02*
X9432517Y-10079100D01*
X9432517Y-10079100D02*
X9403946Y-10088624D01*
X9403946Y-10088624D02*
X9356327Y-10088624D01*
X9556327Y-10088624D02*
X9556327Y-9955290D01*
X9556327Y-9993386D02*
X9565850Y-9974338D01*
X9565850Y-9974338D02*
X9575374Y-9964814D01*
X9575374Y-9964814D02*
X9594422Y-9955290D01*
X9594422Y-9955290D02*
X9613470Y-9955290D01*
X9680136Y-10088624D02*
X9680136Y-9955290D01*
X9680136Y-9888624D02*
X9670612Y-9898147D01*
X9670612Y-9898147D02*
X9680136Y-9907671D01*
X9680136Y-9907671D02*
X9689660Y-9898147D01*
X9689660Y-9898147D02*
X9680136Y-9888624D01*
X9680136Y-9888624D02*
X9680136Y-9907671D01*
X9803946Y-10088624D02*
X9784898Y-10079100D01*
X9784898Y-10079100D02*
X9775374Y-10060052D01*
X9775374Y-10060052D02*
X9775374Y-9888624D01*
X9908708Y-10088624D02*
X9889660Y-10079100D01*
X9889660Y-10079100D02*
X9880136Y-10060052D01*
X9880136Y-10060052D02*
X9880136Y-9888624D01*
X10137279Y-10088624D02*
X10137279Y-9888624D01*
X10137279Y-9888624D02*
X10203946Y-10031481D01*
X10203946Y-10031481D02*
X10270612Y-9888624D01*
X10270612Y-9888624D02*
X10270612Y-10088624D01*
X10451565Y-10088624D02*
X10451565Y-9983862D01*
X10451565Y-9983862D02*
X10442041Y-9964814D01*
X10442041Y-9964814D02*
X10422993Y-9955290D01*
X10422993Y-9955290D02*
X10384898Y-9955290D01*
X10384898Y-9955290D02*
X10365850Y-9964814D01*
X10451565Y-10079100D02*
X10432517Y-10088624D01*
X10432517Y-10088624D02*
X10384898Y-10088624D01*
X10384898Y-10088624D02*
X10365850Y-10079100D01*
X10365850Y-10079100D02*
X10356327Y-10060052D01*
X10356327Y-10060052D02*
X10356327Y-10041005D01*
X10356327Y-10041005D02*
X10365850Y-10021957D01*
X10365850Y-10021957D02*
X10384898Y-10012433D01*
X10384898Y-10012433D02*
X10432517Y-10012433D01*
X10432517Y-10012433D02*
X10451565Y-10002909D01*
X10546803Y-9955290D02*
X10546803Y-10155290D01*
X10546803Y-9964814D02*
X10565850Y-9955290D01*
X10565850Y-9955290D02*
X10603946Y-9955290D01*
X10603946Y-9955290D02*
X10622993Y-9964814D01*
X10622993Y-9964814D02*
X10632517Y-9974338D01*
X10632517Y-9974338D02*
X10642041Y-9993386D01*
X10642041Y-9993386D02*
X10642041Y-10050528D01*
X10642041Y-10050528D02*
X10632517Y-10069576D01*
X10632517Y-10069576D02*
X10622993Y-10079100D01*
X10622993Y-10079100D02*
X10603946Y-10088624D01*
X10603946Y-10088624D02*
X10565850Y-10088624D01*
X10565850Y-10088624D02*
X10546803Y-10079100D01*
X10727755Y-10069576D02*
X10737279Y-10079100D01*
X10737279Y-10079100D02*
X10727755Y-10088624D01*
X10727755Y-10088624D02*
X10718231Y-10079100D01*
X10718231Y-10079100D02*
X10727755Y-10069576D01*
X10727755Y-10069576D02*
X10727755Y-10088624D01*
X10727755Y-9964814D02*
X10737279Y-9974338D01*
X10737279Y-9974338D02*
X10727755Y-9983862D01*
X10727755Y-9983862D02*
X10718231Y-9974338D01*
X10718231Y-9974338D02*
X10727755Y-9964814D01*
X10727755Y-9964814D02*
X10727755Y-9983862D01*
D10*
X9055550Y-10397140D02*
X9095550Y-10437140D01*
X9095550Y-10397140D02*
X9055550Y-10437140D01*
D11*
X9394422Y-10308624D02*
X9413470Y-10308624D01*
X9413470Y-10308624D02*
X9432517Y-10318147D01*
X9432517Y-10318147D02*
X9442041Y-10327671D01*
X9442041Y-10327671D02*
X9451565Y-10346719D01*
X9451565Y-10346719D02*
X9461089Y-10384814D01*
X9461089Y-10384814D02*
X9461089Y-10432433D01*
X9461089Y-10432433D02*
X9451565Y-10470528D01*
X9451565Y-10470528D02*
X9442041Y-10489576D01*
X9442041Y-10489576D02*
X9432517Y-10499100D01*
X9432517Y-10499100D02*
X9413470Y-10508624D01*
X9413470Y-10508624D02*
X9394422Y-10508624D01*
X9394422Y-10508624D02*
X9375374Y-10499100D01*
X9375374Y-10499100D02*
X9365850Y-10489576D01*
X9365850Y-10489576D02*
X9356327Y-10470528D01*
X9356327Y-10470528D02*
X9346803Y-10432433D01*
X9346803Y-10432433D02*
X9346803Y-10384814D01*
X9346803Y-10384814D02*
X9356327Y-10346719D01*
X9356327Y-10346719D02*
X9365850Y-10327671D01*
X9365850Y-10327671D02*
X9375374Y-10318147D01*
X9375374Y-10318147D02*
X9394422Y-10308624D01*
X9546803Y-10489576D02*
X9556327Y-10499100D01*
X9556327Y-10499100D02*
X9546803Y-10508624D01*
X9546803Y-10508624D02*
X9537279Y-10499100D01*
X9537279Y-10499100D02*
X9546803Y-10489576D01*
X9546803Y-10489576D02*
X9546803Y-10508624D01*
X9727755Y-10375290D02*
X9727755Y-10508624D01*
X9680136Y-10299100D02*
X9632517Y-10441957D01*
X9632517Y-10441957D02*
X9756327Y-10441957D01*
X9870612Y-10308624D02*
X9889660Y-10308624D01*
X9889660Y-10308624D02*
X9908708Y-10318147D01*
X9908708Y-10318147D02*
X9918231Y-10327671D01*
X9918231Y-10327671D02*
X9927755Y-10346719D01*
X9927755Y-10346719D02*
X9937279Y-10384814D01*
X9937279Y-10384814D02*
X9937279Y-10432433D01*
X9937279Y-10432433D02*
X9927755Y-10470528D01*
X9927755Y-10470528D02*
X9918231Y-10489576D01*
X9918231Y-10489576D02*
X9908708Y-10499100D01*
X9908708Y-10499100D02*
X9889660Y-10508624D01*
X9889660Y-10508624D02*
X9870612Y-10508624D01*
X9870612Y-10508624D02*
X9851565Y-10499100D01*
X9851565Y-10499100D02*
X9842041Y-10489576D01*
X9842041Y-10489576D02*
X9832517Y-10470528D01*
X9832517Y-10470528D02*
X9822993Y-10432433D01*
X9822993Y-10432433D02*
X9822993Y-10384814D01*
X9822993Y-10384814D02*
X9832517Y-10346719D01*
X9832517Y-10346719D02*
X9842041Y-10327671D01*
X9842041Y-10327671D02*
X9851565Y-10318147D01*
X9851565Y-10318147D02*
X9870612Y-10308624D01*
X10061089Y-10308624D02*
X10080136Y-10308624D01*
X10080136Y-10308624D02*
X10099184Y-10318147D01*
X10099184Y-10318147D02*
X10108708Y-10327671D01*
X10108708Y-10327671D02*
X10118231Y-10346719D01*
X10118231Y-10346719D02*
X10127755Y-10384814D01*
X10127755Y-10384814D02*
X10127755Y-10432433D01*
X10127755Y-10432433D02*
X10118231Y-10470528D01*
X10118231Y-10470528D02*
X10108708Y-10489576D01*
X10108708Y-10489576D02*
X10099184Y-10499100D01*
X10099184Y-10499100D02*
X10080136Y-10508624D01*
X10080136Y-10508624D02*
X10061089Y-10508624D01*
X10061089Y-10508624D02*
X10042041Y-10499100D01*
X10042041Y-10499100D02*
X10032517Y-10489576D01*
X10032517Y-10489576D02*
X10022993Y-10470528D01*
X10022993Y-10470528D02*
X10013470Y-10432433D01*
X10013470Y-10432433D02*
X10013470Y-10384814D01*
X10013470Y-10384814D02*
X10022993Y-10346719D01*
X10022993Y-10346719D02*
X10032517Y-10327671D01*
X10032517Y-10327671D02*
X10042041Y-10318147D01*
X10042041Y-10318147D02*
X10061089Y-10308624D01*
X10213470Y-10508624D02*
X10213470Y-10375290D01*
X10213470Y-10394338D02*
X10222993Y-10384814D01*
X10222993Y-10384814D02*
X10242041Y-10375290D01*
X10242041Y-10375290D02*
X10270612Y-10375290D01*
X10270612Y-10375290D02*
X10289660Y-10384814D01*
X10289660Y-10384814D02*
X10299184Y-10403862D01*
X10299184Y-10403862D02*
X10299184Y-10508624D01*
X10299184Y-10403862D02*
X10308708Y-10384814D01*
X10308708Y-10384814D02*
X10327755Y-10375290D01*
X10327755Y-10375290D02*
X10356327Y-10375290D01*
X10356327Y-10375290D02*
X10375374Y-10384814D01*
X10375374Y-10384814D02*
X10384898Y-10403862D01*
X10384898Y-10403862D02*
X10384898Y-10508624D01*
X10480136Y-10508624D02*
X10480136Y-10375290D01*
X10480136Y-10394338D02*
X10489660Y-10384814D01*
X10489660Y-10384814D02*
X10508708Y-10375290D01*
X10508708Y-10375290D02*
X10537279Y-10375290D01*
X10537279Y-10375290D02*
X10556327Y-10384814D01*
X10556327Y-10384814D02*
X10565851Y-10403862D01*
X10565851Y-10403862D02*
X10565851Y-10508624D01*
X10565851Y-10403862D02*
X10575374Y-10384814D01*
X10575374Y-10384814D02*
X10594422Y-10375290D01*
X10594422Y-10375290D02*
X10622993Y-10375290D01*
X10622993Y-10375290D02*
X10642041Y-10384814D01*
X10642041Y-10384814D02*
X10651565Y-10403862D01*
X10651565Y-10403862D02*
X10651565Y-10508624D01*
X11042041Y-10299100D02*
X10870613Y-10556243D01*
X11299184Y-10308624D02*
X11318232Y-10308624D01*
X11318232Y-10308624D02*
X11337279Y-10318147D01*
X11337279Y-10318147D02*
X11346803Y-10327671D01*
X11346803Y-10327671D02*
X11356327Y-10346719D01*
X11356327Y-10346719D02*
X11365851Y-10384814D01*
X11365851Y-10384814D02*
X11365851Y-10432433D01*
X11365851Y-10432433D02*
X11356327Y-10470528D01*
X11356327Y-10470528D02*
X11346803Y-10489576D01*
X11346803Y-10489576D02*
X11337279Y-10499100D01*
X11337279Y-10499100D02*
X11318232Y-10508624D01*
X11318232Y-10508624D02*
X11299184Y-10508624D01*
X11299184Y-10508624D02*
X11280136Y-10499100D01*
X11280136Y-10499100D02*
X11270612Y-10489576D01*
X11270612Y-10489576D02*
X11261089Y-10470528D01*
X11261089Y-10470528D02*
X11251565Y-10432433D01*
X11251565Y-10432433D02*
X11251565Y-10384814D01*
X11251565Y-10384814D02*
X11261089Y-10346719D01*
X11261089Y-10346719D02*
X11270612Y-10327671D01*
X11270612Y-10327671D02*
X11280136Y-10318147D01*
X11280136Y-10318147D02*
X11299184Y-10308624D01*
X11451565Y-10489576D02*
X11461089Y-10499100D01*
X11461089Y-10499100D02*
X11451565Y-10508624D01*
X11451565Y-10508624D02*
X11442041Y-10499100D01*
X11442041Y-10499100D02*
X11451565Y-10489576D01*
X11451565Y-10489576D02*
X11451565Y-10508624D01*
X11584898Y-10308624D02*
X11603946Y-10308624D01*
X11603946Y-10308624D02*
X11622993Y-10318147D01*
X11622993Y-10318147D02*
X11632517Y-10327671D01*
X11632517Y-10327671D02*
X11642041Y-10346719D01*
X11642041Y-10346719D02*
X11651565Y-10384814D01*
X11651565Y-10384814D02*
X11651565Y-10432433D01*
X11651565Y-10432433D02*
X11642041Y-10470528D01*
X11642041Y-10470528D02*
X11632517Y-10489576D01*
X11632517Y-10489576D02*
X11622993Y-10499100D01*
X11622993Y-10499100D02*
X11603946Y-10508624D01*
X11603946Y-10508624D02*
X11584898Y-10508624D01*
X11584898Y-10508624D02*
X11565851Y-10499100D01*
X11565851Y-10499100D02*
X11556327Y-10489576D01*
X11556327Y-10489576D02*
X11546803Y-10470528D01*
X11546803Y-10470528D02*
X11537279Y-10432433D01*
X11537279Y-10432433D02*
X11537279Y-10384814D01*
X11537279Y-10384814D02*
X11546803Y-10346719D01*
X11546803Y-10346719D02*
X11556327Y-10327671D01*
X11556327Y-10327671D02*
X11565851Y-10318147D01*
X11565851Y-10318147D02*
X11584898Y-10308624D01*
X11842041Y-10508624D02*
X11727755Y-10508624D01*
X11784898Y-10508624D02*
X11784898Y-10308624D01*
X11784898Y-10308624D02*
X11765851Y-10337195D01*
X11765851Y-10337195D02*
X11746803Y-10356243D01*
X11746803Y-10356243D02*
X11727755Y-10365766D01*
X12022993Y-10308624D02*
X11927755Y-10308624D01*
X11927755Y-10308624D02*
X11918232Y-10403862D01*
X11918232Y-10403862D02*
X11927755Y-10394338D01*
X11927755Y-10394338D02*
X11946803Y-10384814D01*
X11946803Y-10384814D02*
X11994422Y-10384814D01*
X11994422Y-10384814D02*
X12013470Y-10394338D01*
X12013470Y-10394338D02*
X12022993Y-10403862D01*
X12022993Y-10403862D02*
X12032517Y-10422909D01*
X12032517Y-10422909D02*
X12032517Y-10470528D01*
X12032517Y-10470528D02*
X12022993Y-10489576D01*
X12022993Y-10489576D02*
X12013470Y-10499100D01*
X12013470Y-10499100D02*
X11994422Y-10508624D01*
X11994422Y-10508624D02*
X11946803Y-10508624D01*
X11946803Y-10508624D02*
X11927755Y-10499100D01*
X11927755Y-10499100D02*
X11918232Y-10489576D01*
X12099184Y-10308624D02*
X12232517Y-10308624D01*
X12232517Y-10308624D02*
X12146803Y-10508624D01*
X12299184Y-10308624D02*
X12299184Y-10346719D01*
X12375374Y-10308624D02*
X12375374Y-10346719D01*
X12670613Y-10584814D02*
X12661089Y-10575290D01*
X12661089Y-10575290D02*
X12642041Y-10546719D01*
X12642041Y-10546719D02*
X12632517Y-10527671D01*
X12632517Y-10527671D02*
X12622994Y-10499100D01*
X12622994Y-10499100D02*
X12613470Y-10451481D01*
X12613470Y-10451481D02*
X12613470Y-10413386D01*
X12613470Y-10413386D02*
X12622994Y-10365766D01*
X12622994Y-10365766D02*
X12632517Y-10337195D01*
X12632517Y-10337195D02*
X12642041Y-10318147D01*
X12642041Y-10318147D02*
X12661089Y-10289576D01*
X12661089Y-10289576D02*
X12670613Y-10280052D01*
X12727755Y-10308624D02*
X12851565Y-10308624D01*
X12851565Y-10308624D02*
X12784898Y-10384814D01*
X12784898Y-10384814D02*
X12813470Y-10384814D01*
X12813470Y-10384814D02*
X12832517Y-10394338D01*
X12832517Y-10394338D02*
X12842041Y-10403862D01*
X12842041Y-10403862D02*
X12851565Y-10422909D01*
X12851565Y-10422909D02*
X12851565Y-10470528D01*
X12851565Y-10470528D02*
X12842041Y-10489576D01*
X12842041Y-10489576D02*
X12832517Y-10499100D01*
X12832517Y-10499100D02*
X12813470Y-10508624D01*
X12813470Y-10508624D02*
X12756327Y-10508624D01*
X12756327Y-10508624D02*
X12737279Y-10499100D01*
X12737279Y-10499100D02*
X12727755Y-10489576D01*
X12965851Y-10394338D02*
X12946803Y-10384814D01*
X12946803Y-10384814D02*
X12937279Y-10375290D01*
X12937279Y-10375290D02*
X12927755Y-10356243D01*
X12927755Y-10356243D02*
X12927755Y-10346719D01*
X12927755Y-10346719D02*
X12937279Y-10327671D01*
X12937279Y-10327671D02*
X12946803Y-10318147D01*
X12946803Y-10318147D02*
X12965851Y-10308624D01*
X12965851Y-10308624D02*
X13003946Y-10308624D01*
X13003946Y-10308624D02*
X13022994Y-10318147D01*
X13022994Y-10318147D02*
X13032517Y-10327671D01*
X13032517Y-10327671D02*
X13042041Y-10346719D01*
X13042041Y-10346719D02*
X13042041Y-10356243D01*
X13042041Y-10356243D02*
X13032517Y-10375290D01*
X13032517Y-10375290D02*
X13022994Y-10384814D01*
X13022994Y-10384814D02*
X13003946Y-10394338D01*
X13003946Y-10394338D02*
X12965851Y-10394338D01*
X12965851Y-10394338D02*
X12946803Y-10403862D01*
X12946803Y-10403862D02*
X12937279Y-10413386D01*
X12937279Y-10413386D02*
X12927755Y-10432433D01*
X12927755Y-10432433D02*
X12927755Y-10470528D01*
X12927755Y-10470528D02*
X12937279Y-10489576D01*
X12937279Y-10489576D02*
X12946803Y-10499100D01*
X12946803Y-10499100D02*
X12965851Y-10508624D01*
X12965851Y-10508624D02*
X13003946Y-10508624D01*
X13003946Y-10508624D02*
X13022994Y-10499100D01*
X13022994Y-10499100D02*
X13032517Y-10489576D01*
X13032517Y-10489576D02*
X13042041Y-10470528D01*
X13042041Y-10470528D02*
X13042041Y-10432433D01*
X13042041Y-10432433D02*
X13032517Y-10413386D01*
X13032517Y-10413386D02*
X13022994Y-10403862D01*
X13022994Y-10403862D02*
X13003946Y-10394338D01*
X13280136Y-10508624D02*
X13280136Y-10308624D01*
X13365851Y-10508624D02*
X13365851Y-10403862D01*
X13365851Y-10403862D02*
X13356327Y-10384814D01*
X13356327Y-10384814D02*
X13337279Y-10375290D01*
X13337279Y-10375290D02*
X13308708Y-10375290D01*
X13308708Y-10375290D02*
X13289660Y-10384814D01*
X13289660Y-10384814D02*
X13280136Y-10394338D01*
X13489660Y-10508624D02*
X13470613Y-10499100D01*
X13470613Y-10499100D02*
X13461089Y-10489576D01*
X13461089Y-10489576D02*
X13451565Y-10470528D01*
X13451565Y-10470528D02*
X13451565Y-10413386D01*
X13451565Y-10413386D02*
X13461089Y-10394338D01*
X13461089Y-10394338D02*
X13470613Y-10384814D01*
X13470613Y-10384814D02*
X13489660Y-10375290D01*
X13489660Y-10375290D02*
X13518232Y-10375290D01*
X13518232Y-10375290D02*
X13537279Y-10384814D01*
X13537279Y-10384814D02*
X13546803Y-10394338D01*
X13546803Y-10394338D02*
X13556327Y-10413386D01*
X13556327Y-10413386D02*
X13556327Y-10470528D01*
X13556327Y-10470528D02*
X13546803Y-10489576D01*
X13546803Y-10489576D02*
X13537279Y-10499100D01*
X13537279Y-10499100D02*
X13518232Y-10508624D01*
X13518232Y-10508624D02*
X13489660Y-10508624D01*
X13670613Y-10508624D02*
X13651565Y-10499100D01*
X13651565Y-10499100D02*
X13642041Y-10480052D01*
X13642041Y-10480052D02*
X13642041Y-10308624D01*
X13822994Y-10499100D02*
X13803946Y-10508624D01*
X13803946Y-10508624D02*
X13765851Y-10508624D01*
X13765851Y-10508624D02*
X13746803Y-10499100D01*
X13746803Y-10499100D02*
X13737279Y-10480052D01*
X13737279Y-10480052D02*
X13737279Y-10403862D01*
X13737279Y-10403862D02*
X13746803Y-10384814D01*
X13746803Y-10384814D02*
X13765851Y-10375290D01*
X13765851Y-10375290D02*
X13803946Y-10375290D01*
X13803946Y-10375290D02*
X13822994Y-10384814D01*
X13822994Y-10384814D02*
X13832517Y-10403862D01*
X13832517Y-10403862D02*
X13832517Y-10422909D01*
X13832517Y-10422909D02*
X13737279Y-10441957D01*
X13908708Y-10499100D02*
X13927756Y-10508624D01*
X13927756Y-10508624D02*
X13965851Y-10508624D01*
X13965851Y-10508624D02*
X13984898Y-10499100D01*
X13984898Y-10499100D02*
X13994422Y-10480052D01*
X13994422Y-10480052D02*
X13994422Y-10470528D01*
X13994422Y-10470528D02*
X13984898Y-10451481D01*
X13984898Y-10451481D02*
X13965851Y-10441957D01*
X13965851Y-10441957D02*
X13937279Y-10441957D01*
X13937279Y-10441957D02*
X13918232Y-10432433D01*
X13918232Y-10432433D02*
X13908708Y-10413386D01*
X13908708Y-10413386D02*
X13908708Y-10403862D01*
X13908708Y-10403862D02*
X13918232Y-10384814D01*
X13918232Y-10384814D02*
X13937279Y-10375290D01*
X13937279Y-10375290D02*
X13965851Y-10375290D01*
X13965851Y-10375290D02*
X13984898Y-10384814D01*
X14061089Y-10584814D02*
X14070613Y-10575290D01*
X14070613Y-10575290D02*
X14089660Y-10546719D01*
X14089660Y-10546719D02*
X14099184Y-10527671D01*
X14099184Y-10527671D02*
X14108708Y-10499100D01*
X14108708Y-10499100D02*
X14118232Y-10451481D01*
X14118232Y-10451481D02*
X14118232Y-10413386D01*
X14118232Y-10413386D02*
X14108708Y-10365766D01*
X14108708Y-10365766D02*
X14099184Y-10337195D01*
X14099184Y-10337195D02*
X14089660Y-10318147D01*
X14089660Y-10318147D02*
X14070613Y-10289576D01*
X14070613Y-10289576D02*
X14061089Y-10280052D01*
D10*
X9095550Y-10681140D02*
G75*
G02*
X8995550Y-10681140I-50000J0D01*
G01*
X8995550Y-10681140D02*
G75*
G02*
X9095550Y-10681140I50000J0D01*
G01*
D11*
X9461089Y-10772624D02*
X9346803Y-10772624D01*
X9403946Y-10772624D02*
X9403946Y-10572624D01*
X9403946Y-10572624D02*
X9384898Y-10601195D01*
X9384898Y-10601195D02*
X9365850Y-10620243D01*
X9365850Y-10620243D02*
X9346803Y-10629766D01*
X9546803Y-10753576D02*
X9556327Y-10763100D01*
X9556327Y-10763100D02*
X9546803Y-10772624D01*
X9546803Y-10772624D02*
X9537279Y-10763100D01*
X9537279Y-10763100D02*
X9546803Y-10753576D01*
X9546803Y-10753576D02*
X9546803Y-10772624D01*
X9680136Y-10572624D02*
X9699184Y-10572624D01*
X9699184Y-10572624D02*
X9718231Y-10582147D01*
X9718231Y-10582147D02*
X9727755Y-10591671D01*
X9727755Y-10591671D02*
X9737279Y-10610719D01*
X9737279Y-10610719D02*
X9746803Y-10648814D01*
X9746803Y-10648814D02*
X9746803Y-10696433D01*
X9746803Y-10696433D02*
X9737279Y-10734528D01*
X9737279Y-10734528D02*
X9727755Y-10753576D01*
X9727755Y-10753576D02*
X9718231Y-10763100D01*
X9718231Y-10763100D02*
X9699184Y-10772624D01*
X9699184Y-10772624D02*
X9680136Y-10772624D01*
X9680136Y-10772624D02*
X9661089Y-10763100D01*
X9661089Y-10763100D02*
X9651565Y-10753576D01*
X9651565Y-10753576D02*
X9642041Y-10734528D01*
X9642041Y-10734528D02*
X9632517Y-10696433D01*
X9632517Y-10696433D02*
X9632517Y-10648814D01*
X9632517Y-10648814D02*
X9642041Y-10610719D01*
X9642041Y-10610719D02*
X9651565Y-10591671D01*
X9651565Y-10591671D02*
X9661089Y-10582147D01*
X9661089Y-10582147D02*
X9680136Y-10572624D01*
X9870612Y-10572624D02*
X9889660Y-10572624D01*
X9889660Y-10572624D02*
X9908708Y-10582147D01*
X9908708Y-10582147D02*
X9918231Y-10591671D01*
X9918231Y-10591671D02*
X9927755Y-10610719D01*
X9927755Y-10610719D02*
X9937279Y-10648814D01*
X9937279Y-10648814D02*
X9937279Y-10696433D01*
X9937279Y-10696433D02*
X9927755Y-10734528D01*
X9927755Y-10734528D02*
X9918231Y-10753576D01*
X9918231Y-10753576D02*
X9908708Y-10763100D01*
X9908708Y-10763100D02*
X9889660Y-10772624D01*
X9889660Y-10772624D02*
X9870612Y-10772624D01*
X9870612Y-10772624D02*
X9851565Y-10763100D01*
X9851565Y-10763100D02*
X9842041Y-10753576D01*
X9842041Y-10753576D02*
X9832517Y-10734528D01*
X9832517Y-10734528D02*
X9822993Y-10696433D01*
X9822993Y-10696433D02*
X9822993Y-10648814D01*
X9822993Y-10648814D02*
X9832517Y-10610719D01*
X9832517Y-10610719D02*
X9842041Y-10591671D01*
X9842041Y-10591671D02*
X9851565Y-10582147D01*
X9851565Y-10582147D02*
X9870612Y-10572624D01*
X10061089Y-10572624D02*
X10080136Y-10572624D01*
X10080136Y-10572624D02*
X10099184Y-10582147D01*
X10099184Y-10582147D02*
X10108708Y-10591671D01*
X10108708Y-10591671D02*
X10118231Y-10610719D01*
X10118231Y-10610719D02*
X10127755Y-10648814D01*
X10127755Y-10648814D02*
X10127755Y-10696433D01*
X10127755Y-10696433D02*
X10118231Y-10734528D01*
X10118231Y-10734528D02*
X10108708Y-10753576D01*
X10108708Y-10753576D02*
X10099184Y-10763100D01*
X10099184Y-10763100D02*
X10080136Y-10772624D01*
X10080136Y-10772624D02*
X10061089Y-10772624D01*
X10061089Y-10772624D02*
X10042041Y-10763100D01*
X10042041Y-10763100D02*
X10032517Y-10753576D01*
X10032517Y-10753576D02*
X10022993Y-10734528D01*
X10022993Y-10734528D02*
X10013470Y-10696433D01*
X10013470Y-10696433D02*
X10013470Y-10648814D01*
X10013470Y-10648814D02*
X10022993Y-10610719D01*
X10022993Y-10610719D02*
X10032517Y-10591671D01*
X10032517Y-10591671D02*
X10042041Y-10582147D01*
X10042041Y-10582147D02*
X10061089Y-10572624D01*
X10213470Y-10772624D02*
X10213470Y-10639290D01*
X10213470Y-10658338D02*
X10222993Y-10648814D01*
X10222993Y-10648814D02*
X10242041Y-10639290D01*
X10242041Y-10639290D02*
X10270612Y-10639290D01*
X10270612Y-10639290D02*
X10289660Y-10648814D01*
X10289660Y-10648814D02*
X10299184Y-10667862D01*
X10299184Y-10667862D02*
X10299184Y-10772624D01*
X10299184Y-10667862D02*
X10308708Y-10648814D01*
X10308708Y-10648814D02*
X10327755Y-10639290D01*
X10327755Y-10639290D02*
X10356327Y-10639290D01*
X10356327Y-10639290D02*
X10375374Y-10648814D01*
X10375374Y-10648814D02*
X10384898Y-10667862D01*
X10384898Y-10667862D02*
X10384898Y-10772624D01*
X10480136Y-10772624D02*
X10480136Y-10639290D01*
X10480136Y-10658338D02*
X10489660Y-10648814D01*
X10489660Y-10648814D02*
X10508708Y-10639290D01*
X10508708Y-10639290D02*
X10537279Y-10639290D01*
X10537279Y-10639290D02*
X10556327Y-10648814D01*
X10556327Y-10648814D02*
X10565851Y-10667862D01*
X10565851Y-10667862D02*
X10565851Y-10772624D01*
X10565851Y-10667862D02*
X10575374Y-10648814D01*
X10575374Y-10648814D02*
X10594422Y-10639290D01*
X10594422Y-10639290D02*
X10622993Y-10639290D01*
X10622993Y-10639290D02*
X10642041Y-10648814D01*
X10642041Y-10648814D02*
X10651565Y-10667862D01*
X10651565Y-10667862D02*
X10651565Y-10772624D01*
X11042041Y-10563100D02*
X10870613Y-10820243D01*
X11299184Y-10572624D02*
X11318232Y-10572624D01*
X11318232Y-10572624D02*
X11337279Y-10582147D01*
X11337279Y-10582147D02*
X11346803Y-10591671D01*
X11346803Y-10591671D02*
X11356327Y-10610719D01*
X11356327Y-10610719D02*
X11365851Y-10648814D01*
X11365851Y-10648814D02*
X11365851Y-10696433D01*
X11365851Y-10696433D02*
X11356327Y-10734528D01*
X11356327Y-10734528D02*
X11346803Y-10753576D01*
X11346803Y-10753576D02*
X11337279Y-10763100D01*
X11337279Y-10763100D02*
X11318232Y-10772624D01*
X11318232Y-10772624D02*
X11299184Y-10772624D01*
X11299184Y-10772624D02*
X11280136Y-10763100D01*
X11280136Y-10763100D02*
X11270612Y-10753576D01*
X11270612Y-10753576D02*
X11261089Y-10734528D01*
X11261089Y-10734528D02*
X11251565Y-10696433D01*
X11251565Y-10696433D02*
X11251565Y-10648814D01*
X11251565Y-10648814D02*
X11261089Y-10610719D01*
X11261089Y-10610719D02*
X11270612Y-10591671D01*
X11270612Y-10591671D02*
X11280136Y-10582147D01*
X11280136Y-10582147D02*
X11299184Y-10572624D01*
X11451565Y-10753576D02*
X11461089Y-10763100D01*
X11461089Y-10763100D02*
X11451565Y-10772624D01*
X11451565Y-10772624D02*
X11442041Y-10763100D01*
X11442041Y-10763100D02*
X11451565Y-10753576D01*
X11451565Y-10753576D02*
X11451565Y-10772624D01*
X11584898Y-10572624D02*
X11603946Y-10572624D01*
X11603946Y-10572624D02*
X11622993Y-10582147D01*
X11622993Y-10582147D02*
X11632517Y-10591671D01*
X11632517Y-10591671D02*
X11642041Y-10610719D01*
X11642041Y-10610719D02*
X11651565Y-10648814D01*
X11651565Y-10648814D02*
X11651565Y-10696433D01*
X11651565Y-10696433D02*
X11642041Y-10734528D01*
X11642041Y-10734528D02*
X11632517Y-10753576D01*
X11632517Y-10753576D02*
X11622993Y-10763100D01*
X11622993Y-10763100D02*
X11603946Y-10772624D01*
X11603946Y-10772624D02*
X11584898Y-10772624D01*
X11584898Y-10772624D02*
X11565851Y-10763100D01*
X11565851Y-10763100D02*
X11556327Y-10753576D01*
X11556327Y-10753576D02*
X11546803Y-10734528D01*
X11546803Y-10734528D02*
X11537279Y-10696433D01*
X11537279Y-10696433D02*
X11537279Y-10648814D01*
X11537279Y-10648814D02*
X11546803Y-10610719D01*
X11546803Y-10610719D02*
X11556327Y-10591671D01*
X11556327Y-10591671D02*
X11565851Y-10582147D01*
X11565851Y-10582147D02*
X11584898Y-10572624D01*
X11718232Y-10572624D02*
X11842041Y-10572624D01*
X11842041Y-10572624D02*
X11775374Y-10648814D01*
X11775374Y-10648814D02*
X11803946Y-10648814D01*
X11803946Y-10648814D02*
X11822993Y-10658338D01*
X11822993Y-10658338D02*
X11832517Y-10667862D01*
X11832517Y-10667862D02*
X11842041Y-10686909D01*
X11842041Y-10686909D02*
X11842041Y-10734528D01*
X11842041Y-10734528D02*
X11832517Y-10753576D01*
X11832517Y-10753576D02*
X11822993Y-10763100D01*
X11822993Y-10763100D02*
X11803946Y-10772624D01*
X11803946Y-10772624D02*
X11746803Y-10772624D01*
X11746803Y-10772624D02*
X11727755Y-10763100D01*
X11727755Y-10763100D02*
X11718232Y-10753576D01*
X11937279Y-10772624D02*
X11975374Y-10772624D01*
X11975374Y-10772624D02*
X11994422Y-10763100D01*
X11994422Y-10763100D02*
X12003946Y-10753576D01*
X12003946Y-10753576D02*
X12022993Y-10725005D01*
X12022993Y-10725005D02*
X12032517Y-10686909D01*
X12032517Y-10686909D02*
X12032517Y-10610719D01*
X12032517Y-10610719D02*
X12022993Y-10591671D01*
X12022993Y-10591671D02*
X12013470Y-10582147D01*
X12013470Y-10582147D02*
X11994422Y-10572624D01*
X11994422Y-10572624D02*
X11956327Y-10572624D01*
X11956327Y-10572624D02*
X11937279Y-10582147D01*
X11937279Y-10582147D02*
X11927755Y-10591671D01*
X11927755Y-10591671D02*
X11918232Y-10610719D01*
X11918232Y-10610719D02*
X11918232Y-10658338D01*
X11918232Y-10658338D02*
X11927755Y-10677386D01*
X11927755Y-10677386D02*
X11937279Y-10686909D01*
X11937279Y-10686909D02*
X11956327Y-10696433D01*
X11956327Y-10696433D02*
X11994422Y-10696433D01*
X11994422Y-10696433D02*
X12013470Y-10686909D01*
X12013470Y-10686909D02*
X12022993Y-10677386D01*
X12022993Y-10677386D02*
X12032517Y-10658338D01*
X12203946Y-10639290D02*
X12203946Y-10772624D01*
X12156327Y-10563100D02*
X12108708Y-10705957D01*
X12108708Y-10705957D02*
X12232517Y-10705957D01*
X12299184Y-10572624D02*
X12299184Y-10610719D01*
X12375374Y-10572624D02*
X12375374Y-10610719D01*
X12670613Y-10848814D02*
X12661089Y-10839290D01*
X12661089Y-10839290D02*
X12642041Y-10810719D01*
X12642041Y-10810719D02*
X12632517Y-10791671D01*
X12632517Y-10791671D02*
X12622994Y-10763100D01*
X12622994Y-10763100D02*
X12613470Y-10715481D01*
X12613470Y-10715481D02*
X12613470Y-10677386D01*
X12613470Y-10677386D02*
X12622994Y-10629766D01*
X12622994Y-10629766D02*
X12632517Y-10601195D01*
X12632517Y-10601195D02*
X12642041Y-10582147D01*
X12642041Y-10582147D02*
X12661089Y-10553576D01*
X12661089Y-10553576D02*
X12670613Y-10544052D01*
X12832517Y-10572624D02*
X12794422Y-10572624D01*
X12794422Y-10572624D02*
X12775374Y-10582147D01*
X12775374Y-10582147D02*
X12765851Y-10591671D01*
X12765851Y-10591671D02*
X12746803Y-10620243D01*
X12746803Y-10620243D02*
X12737279Y-10658338D01*
X12737279Y-10658338D02*
X12737279Y-10734528D01*
X12737279Y-10734528D02*
X12746803Y-10753576D01*
X12746803Y-10753576D02*
X12756327Y-10763100D01*
X12756327Y-10763100D02*
X12775374Y-10772624D01*
X12775374Y-10772624D02*
X12813470Y-10772624D01*
X12813470Y-10772624D02*
X12832517Y-10763100D01*
X12832517Y-10763100D02*
X12842041Y-10753576D01*
X12842041Y-10753576D02*
X12851565Y-10734528D01*
X12851565Y-10734528D02*
X12851565Y-10686909D01*
X12851565Y-10686909D02*
X12842041Y-10667862D01*
X12842041Y-10667862D02*
X12832517Y-10658338D01*
X12832517Y-10658338D02*
X12813470Y-10648814D01*
X12813470Y-10648814D02*
X12775374Y-10648814D01*
X12775374Y-10648814D02*
X12756327Y-10658338D01*
X12756327Y-10658338D02*
X12746803Y-10667862D01*
X12746803Y-10667862D02*
X12737279Y-10686909D01*
X13089660Y-10772624D02*
X13089660Y-10572624D01*
X13175375Y-10772624D02*
X13175375Y-10667862D01*
X13175375Y-10667862D02*
X13165851Y-10648814D01*
X13165851Y-10648814D02*
X13146803Y-10639290D01*
X13146803Y-10639290D02*
X13118232Y-10639290D01*
X13118232Y-10639290D02*
X13099184Y-10648814D01*
X13099184Y-10648814D02*
X13089660Y-10658338D01*
X13299184Y-10772624D02*
X13280136Y-10763100D01*
X13280136Y-10763100D02*
X13270613Y-10753576D01*
X13270613Y-10753576D02*
X13261089Y-10734528D01*
X13261089Y-10734528D02*
X13261089Y-10677386D01*
X13261089Y-10677386D02*
X13270613Y-10658338D01*
X13270613Y-10658338D02*
X13280136Y-10648814D01*
X13280136Y-10648814D02*
X13299184Y-10639290D01*
X13299184Y-10639290D02*
X13327756Y-10639290D01*
X13327756Y-10639290D02*
X13346803Y-10648814D01*
X13346803Y-10648814D02*
X13356327Y-10658338D01*
X13356327Y-10658338D02*
X13365851Y-10677386D01*
X13365851Y-10677386D02*
X13365851Y-10734528D01*
X13365851Y-10734528D02*
X13356327Y-10753576D01*
X13356327Y-10753576D02*
X13346803Y-10763100D01*
X13346803Y-10763100D02*
X13327756Y-10772624D01*
X13327756Y-10772624D02*
X13299184Y-10772624D01*
X13480136Y-10772624D02*
X13461089Y-10763100D01*
X13461089Y-10763100D02*
X13451565Y-10744052D01*
X13451565Y-10744052D02*
X13451565Y-10572624D01*
X13632517Y-10763100D02*
X13613470Y-10772624D01*
X13613470Y-10772624D02*
X13575375Y-10772624D01*
X13575375Y-10772624D02*
X13556327Y-10763100D01*
X13556327Y-10763100D02*
X13546803Y-10744052D01*
X13546803Y-10744052D02*
X13546803Y-10667862D01*
X13546803Y-10667862D02*
X13556327Y-10648814D01*
X13556327Y-10648814D02*
X13575375Y-10639290D01*
X13575375Y-10639290D02*
X13613470Y-10639290D01*
X13613470Y-10639290D02*
X13632517Y-10648814D01*
X13632517Y-10648814D02*
X13642041Y-10667862D01*
X13642041Y-10667862D02*
X13642041Y-10686909D01*
X13642041Y-10686909D02*
X13546803Y-10705957D01*
X13718232Y-10763100D02*
X13737279Y-10772624D01*
X13737279Y-10772624D02*
X13775375Y-10772624D01*
X13775375Y-10772624D02*
X13794422Y-10763100D01*
X13794422Y-10763100D02*
X13803946Y-10744052D01*
X13803946Y-10744052D02*
X13803946Y-10734528D01*
X13803946Y-10734528D02*
X13794422Y-10715481D01*
X13794422Y-10715481D02*
X13775375Y-10705957D01*
X13775375Y-10705957D02*
X13746803Y-10705957D01*
X13746803Y-10705957D02*
X13727756Y-10696433D01*
X13727756Y-10696433D02*
X13718232Y-10677386D01*
X13718232Y-10677386D02*
X13718232Y-10667862D01*
X13718232Y-10667862D02*
X13727756Y-10648814D01*
X13727756Y-10648814D02*
X13746803Y-10639290D01*
X13746803Y-10639290D02*
X13775375Y-10639290D01*
X13775375Y-10639290D02*
X13794422Y-10648814D01*
X13870613Y-10848814D02*
X13880137Y-10839290D01*
X13880137Y-10839290D02*
X13899184Y-10810719D01*
X13899184Y-10810719D02*
X13908708Y-10791671D01*
X13908708Y-10791671D02*
X13918232Y-10763100D01*
X13918232Y-10763100D02*
X13927756Y-10715481D01*
X13927756Y-10715481D02*
X13927756Y-10677386D01*
X13927756Y-10677386D02*
X13918232Y-10629766D01*
X13918232Y-10629766D02*
X13908708Y-10601195D01*
X13908708Y-10601195D02*
X13899184Y-10582147D01*
X13899184Y-10582147D02*
X13880137Y-10553576D01*
X13880137Y-10553576D02*
X13870613Y-10544052D01*
D12*
X9040550Y-10890140D02*
X9040550Y-11000140D01*
X8985550Y-10945140D02*
X9095550Y-10945140D01*
D11*
X9461089Y-11036624D02*
X9346803Y-11036624D01*
X9403946Y-11036624D02*
X9403946Y-10836624D01*
X9403946Y-10836624D02*
X9384898Y-10865195D01*
X9384898Y-10865195D02*
X9365850Y-10884243D01*
X9365850Y-10884243D02*
X9346803Y-10893766D01*
X9546803Y-11017576D02*
X9556327Y-11027100D01*
X9556327Y-11027100D02*
X9546803Y-11036624D01*
X9546803Y-11036624D02*
X9537279Y-11027100D01*
X9537279Y-11027100D02*
X9546803Y-11017576D01*
X9546803Y-11017576D02*
X9546803Y-11036624D01*
X9746803Y-11036624D02*
X9632517Y-11036624D01*
X9689660Y-11036624D02*
X9689660Y-10836624D01*
X9689660Y-10836624D02*
X9670612Y-10865195D01*
X9670612Y-10865195D02*
X9651565Y-10884243D01*
X9651565Y-10884243D02*
X9632517Y-10893766D01*
X9870612Y-10836624D02*
X9889660Y-10836624D01*
X9889660Y-10836624D02*
X9908708Y-10846147D01*
X9908708Y-10846147D02*
X9918231Y-10855671D01*
X9918231Y-10855671D02*
X9927755Y-10874719D01*
X9927755Y-10874719D02*
X9937279Y-10912814D01*
X9937279Y-10912814D02*
X9937279Y-10960433D01*
X9937279Y-10960433D02*
X9927755Y-10998528D01*
X9927755Y-10998528D02*
X9918231Y-11017576D01*
X9918231Y-11017576D02*
X9908708Y-11027100D01*
X9908708Y-11027100D02*
X9889660Y-11036624D01*
X9889660Y-11036624D02*
X9870612Y-11036624D01*
X9870612Y-11036624D02*
X9851565Y-11027100D01*
X9851565Y-11027100D02*
X9842041Y-11017576D01*
X9842041Y-11017576D02*
X9832517Y-10998528D01*
X9832517Y-10998528D02*
X9822993Y-10960433D01*
X9822993Y-10960433D02*
X9822993Y-10912814D01*
X9822993Y-10912814D02*
X9832517Y-10874719D01*
X9832517Y-10874719D02*
X9842041Y-10855671D01*
X9842041Y-10855671D02*
X9851565Y-10846147D01*
X9851565Y-10846147D02*
X9870612Y-10836624D01*
X10061089Y-10836624D02*
X10080136Y-10836624D01*
X10080136Y-10836624D02*
X10099184Y-10846147D01*
X10099184Y-10846147D02*
X10108708Y-10855671D01*
X10108708Y-10855671D02*
X10118231Y-10874719D01*
X10118231Y-10874719D02*
X10127755Y-10912814D01*
X10127755Y-10912814D02*
X10127755Y-10960433D01*
X10127755Y-10960433D02*
X10118231Y-10998528D01*
X10118231Y-10998528D02*
X10108708Y-11017576D01*
X10108708Y-11017576D02*
X10099184Y-11027100D01*
X10099184Y-11027100D02*
X10080136Y-11036624D01*
X10080136Y-11036624D02*
X10061089Y-11036624D01*
X10061089Y-11036624D02*
X10042041Y-11027100D01*
X10042041Y-11027100D02*
X10032517Y-11017576D01*
X10032517Y-11017576D02*
X10022993Y-10998528D01*
X10022993Y-10998528D02*
X10013470Y-10960433D01*
X10013470Y-10960433D02*
X10013470Y-10912814D01*
X10013470Y-10912814D02*
X10022993Y-10874719D01*
X10022993Y-10874719D02*
X10032517Y-10855671D01*
X10032517Y-10855671D02*
X10042041Y-10846147D01*
X10042041Y-10846147D02*
X10061089Y-10836624D01*
X10213470Y-11036624D02*
X10213470Y-10903290D01*
X10213470Y-10922338D02*
X10222993Y-10912814D01*
X10222993Y-10912814D02*
X10242041Y-10903290D01*
X10242041Y-10903290D02*
X10270612Y-10903290D01*
X10270612Y-10903290D02*
X10289660Y-10912814D01*
X10289660Y-10912814D02*
X10299184Y-10931862D01*
X10299184Y-10931862D02*
X10299184Y-11036624D01*
X10299184Y-10931862D02*
X10308708Y-10912814D01*
X10308708Y-10912814D02*
X10327755Y-10903290D01*
X10327755Y-10903290D02*
X10356327Y-10903290D01*
X10356327Y-10903290D02*
X10375374Y-10912814D01*
X10375374Y-10912814D02*
X10384898Y-10931862D01*
X10384898Y-10931862D02*
X10384898Y-11036624D01*
X10480136Y-11036624D02*
X10480136Y-10903290D01*
X10480136Y-10922338D02*
X10489660Y-10912814D01*
X10489660Y-10912814D02*
X10508708Y-10903290D01*
X10508708Y-10903290D02*
X10537279Y-10903290D01*
X10537279Y-10903290D02*
X10556327Y-10912814D01*
X10556327Y-10912814D02*
X10565851Y-10931862D01*
X10565851Y-10931862D02*
X10565851Y-11036624D01*
X10565851Y-10931862D02*
X10575374Y-10912814D01*
X10575374Y-10912814D02*
X10594422Y-10903290D01*
X10594422Y-10903290D02*
X10622993Y-10903290D01*
X10622993Y-10903290D02*
X10642041Y-10912814D01*
X10642041Y-10912814D02*
X10651565Y-10931862D01*
X10651565Y-10931862D02*
X10651565Y-11036624D01*
X11042041Y-10827100D02*
X10870613Y-11084243D01*
X11299184Y-10836624D02*
X11318232Y-10836624D01*
X11318232Y-10836624D02*
X11337279Y-10846147D01*
X11337279Y-10846147D02*
X11346803Y-10855671D01*
X11346803Y-10855671D02*
X11356327Y-10874719D01*
X11356327Y-10874719D02*
X11365851Y-10912814D01*
X11365851Y-10912814D02*
X11365851Y-10960433D01*
X11365851Y-10960433D02*
X11356327Y-10998528D01*
X11356327Y-10998528D02*
X11346803Y-11017576D01*
X11346803Y-11017576D02*
X11337279Y-11027100D01*
X11337279Y-11027100D02*
X11318232Y-11036624D01*
X11318232Y-11036624D02*
X11299184Y-11036624D01*
X11299184Y-11036624D02*
X11280136Y-11027100D01*
X11280136Y-11027100D02*
X11270612Y-11017576D01*
X11270612Y-11017576D02*
X11261089Y-10998528D01*
X11261089Y-10998528D02*
X11251565Y-10960433D01*
X11251565Y-10960433D02*
X11251565Y-10912814D01*
X11251565Y-10912814D02*
X11261089Y-10874719D01*
X11261089Y-10874719D02*
X11270612Y-10855671D01*
X11270612Y-10855671D02*
X11280136Y-10846147D01*
X11280136Y-10846147D02*
X11299184Y-10836624D01*
X11451565Y-11017576D02*
X11461089Y-11027100D01*
X11461089Y-11027100D02*
X11451565Y-11036624D01*
X11451565Y-11036624D02*
X11442041Y-11027100D01*
X11442041Y-11027100D02*
X11451565Y-11017576D01*
X11451565Y-11017576D02*
X11451565Y-11036624D01*
X11584898Y-10836624D02*
X11603946Y-10836624D01*
X11603946Y-10836624D02*
X11622993Y-10846147D01*
X11622993Y-10846147D02*
X11632517Y-10855671D01*
X11632517Y-10855671D02*
X11642041Y-10874719D01*
X11642041Y-10874719D02*
X11651565Y-10912814D01*
X11651565Y-10912814D02*
X11651565Y-10960433D01*
X11651565Y-10960433D02*
X11642041Y-10998528D01*
X11642041Y-10998528D02*
X11632517Y-11017576D01*
X11632517Y-11017576D02*
X11622993Y-11027100D01*
X11622993Y-11027100D02*
X11603946Y-11036624D01*
X11603946Y-11036624D02*
X11584898Y-11036624D01*
X11584898Y-11036624D02*
X11565851Y-11027100D01*
X11565851Y-11027100D02*
X11556327Y-11017576D01*
X11556327Y-11017576D02*
X11546803Y-10998528D01*
X11546803Y-10998528D02*
X11537279Y-10960433D01*
X11537279Y-10960433D02*
X11537279Y-10912814D01*
X11537279Y-10912814D02*
X11546803Y-10874719D01*
X11546803Y-10874719D02*
X11556327Y-10855671D01*
X11556327Y-10855671D02*
X11565851Y-10846147D01*
X11565851Y-10846147D02*
X11584898Y-10836624D01*
X11822993Y-10903290D02*
X11822993Y-11036624D01*
X11775374Y-10827100D02*
X11727755Y-10969957D01*
X11727755Y-10969957D02*
X11851565Y-10969957D01*
X11908708Y-10836624D02*
X12032517Y-10836624D01*
X12032517Y-10836624D02*
X11965851Y-10912814D01*
X11965851Y-10912814D02*
X11994422Y-10912814D01*
X11994422Y-10912814D02*
X12013470Y-10922338D01*
X12013470Y-10922338D02*
X12022993Y-10931862D01*
X12022993Y-10931862D02*
X12032517Y-10950909D01*
X12032517Y-10950909D02*
X12032517Y-10998528D01*
X12032517Y-10998528D02*
X12022993Y-11017576D01*
X12022993Y-11017576D02*
X12013470Y-11027100D01*
X12013470Y-11027100D02*
X11994422Y-11036624D01*
X11994422Y-11036624D02*
X11937279Y-11036624D01*
X11937279Y-11036624D02*
X11918232Y-11027100D01*
X11918232Y-11027100D02*
X11908708Y-11017576D01*
X12099184Y-10836624D02*
X12222993Y-10836624D01*
X12222993Y-10836624D02*
X12156327Y-10912814D01*
X12156327Y-10912814D02*
X12184898Y-10912814D01*
X12184898Y-10912814D02*
X12203946Y-10922338D01*
X12203946Y-10922338D02*
X12213470Y-10931862D01*
X12213470Y-10931862D02*
X12222993Y-10950909D01*
X12222993Y-10950909D02*
X12222993Y-10998528D01*
X12222993Y-10998528D02*
X12213470Y-11017576D01*
X12213470Y-11017576D02*
X12203946Y-11027100D01*
X12203946Y-11027100D02*
X12184898Y-11036624D01*
X12184898Y-11036624D02*
X12127755Y-11036624D01*
X12127755Y-11036624D02*
X12108708Y-11027100D01*
X12108708Y-11027100D02*
X12099184Y-11017576D01*
X12299184Y-10836624D02*
X12299184Y-10874719D01*
X12375374Y-10836624D02*
X12375374Y-10874719D01*
X12670613Y-11112814D02*
X12661089Y-11103290D01*
X12661089Y-11103290D02*
X12642041Y-11074719D01*
X12642041Y-11074719D02*
X12632517Y-11055671D01*
X12632517Y-11055671D02*
X12622994Y-11027100D01*
X12622994Y-11027100D02*
X12613470Y-10979481D01*
X12613470Y-10979481D02*
X12613470Y-10941386D01*
X12613470Y-10941386D02*
X12622994Y-10893766D01*
X12622994Y-10893766D02*
X12632517Y-10865195D01*
X12632517Y-10865195D02*
X12642041Y-10846147D01*
X12642041Y-10846147D02*
X12661089Y-10817576D01*
X12661089Y-10817576D02*
X12670613Y-10808052D01*
X12737279Y-10855671D02*
X12746803Y-10846147D01*
X12746803Y-10846147D02*
X12765851Y-10836624D01*
X12765851Y-10836624D02*
X12813470Y-10836624D01*
X12813470Y-10836624D02*
X12832517Y-10846147D01*
X12832517Y-10846147D02*
X12842041Y-10855671D01*
X12842041Y-10855671D02*
X12851565Y-10874719D01*
X12851565Y-10874719D02*
X12851565Y-10893766D01*
X12851565Y-10893766D02*
X12842041Y-10922338D01*
X12842041Y-10922338D02*
X12727755Y-11036624D01*
X12727755Y-11036624D02*
X12851565Y-11036624D01*
X12965851Y-10922338D02*
X12946803Y-10912814D01*
X12946803Y-10912814D02*
X12937279Y-10903290D01*
X12937279Y-10903290D02*
X12927755Y-10884243D01*
X12927755Y-10884243D02*
X12927755Y-10874719D01*
X12927755Y-10874719D02*
X12937279Y-10855671D01*
X12937279Y-10855671D02*
X12946803Y-10846147D01*
X12946803Y-10846147D02*
X12965851Y-10836624D01*
X12965851Y-10836624D02*
X13003946Y-10836624D01*
X13003946Y-10836624D02*
X13022994Y-10846147D01*
X13022994Y-10846147D02*
X13032517Y-10855671D01*
X13032517Y-10855671D02*
X13042041Y-10874719D01*
X13042041Y-10874719D02*
X13042041Y-10884243D01*
X13042041Y-10884243D02*
X13032517Y-10903290D01*
X13032517Y-10903290D02*
X13022994Y-10912814D01*
X13022994Y-10912814D02*
X13003946Y-10922338D01*
X13003946Y-10922338D02*
X12965851Y-10922338D01*
X12965851Y-10922338D02*
X12946803Y-10931862D01*
X12946803Y-10931862D02*
X12937279Y-10941386D01*
X12937279Y-10941386D02*
X12927755Y-10960433D01*
X12927755Y-10960433D02*
X12927755Y-10998528D01*
X12927755Y-10998528D02*
X12937279Y-11017576D01*
X12937279Y-11017576D02*
X12946803Y-11027100D01*
X12946803Y-11027100D02*
X12965851Y-11036624D01*
X12965851Y-11036624D02*
X13003946Y-11036624D01*
X13003946Y-11036624D02*
X13022994Y-11027100D01*
X13022994Y-11027100D02*
X13032517Y-11017576D01*
X13032517Y-11017576D02*
X13042041Y-10998528D01*
X13042041Y-10998528D02*
X13042041Y-10960433D01*
X13042041Y-10960433D02*
X13032517Y-10941386D01*
X13032517Y-10941386D02*
X13022994Y-10931862D01*
X13022994Y-10931862D02*
X13003946Y-10922338D01*
X13280136Y-11036624D02*
X13280136Y-10836624D01*
X13365851Y-11036624D02*
X13365851Y-10931862D01*
X13365851Y-10931862D02*
X13356327Y-10912814D01*
X13356327Y-10912814D02*
X13337279Y-10903290D01*
X13337279Y-10903290D02*
X13308708Y-10903290D01*
X13308708Y-10903290D02*
X13289660Y-10912814D01*
X13289660Y-10912814D02*
X13280136Y-10922338D01*
X13489660Y-11036624D02*
X13470613Y-11027100D01*
X13470613Y-11027100D02*
X13461089Y-11017576D01*
X13461089Y-11017576D02*
X13451565Y-10998528D01*
X13451565Y-10998528D02*
X13451565Y-10941386D01*
X13451565Y-10941386D02*
X13461089Y-10922338D01*
X13461089Y-10922338D02*
X13470613Y-10912814D01*
X13470613Y-10912814D02*
X13489660Y-10903290D01*
X13489660Y-10903290D02*
X13518232Y-10903290D01*
X13518232Y-10903290D02*
X13537279Y-10912814D01*
X13537279Y-10912814D02*
X13546803Y-10922338D01*
X13546803Y-10922338D02*
X13556327Y-10941386D01*
X13556327Y-10941386D02*
X13556327Y-10998528D01*
X13556327Y-10998528D02*
X13546803Y-11017576D01*
X13546803Y-11017576D02*
X13537279Y-11027100D01*
X13537279Y-11027100D02*
X13518232Y-11036624D01*
X13518232Y-11036624D02*
X13489660Y-11036624D01*
X13670613Y-11036624D02*
X13651565Y-11027100D01*
X13651565Y-11027100D02*
X13642041Y-11008052D01*
X13642041Y-11008052D02*
X13642041Y-10836624D01*
X13822994Y-11027100D02*
X13803946Y-11036624D01*
X13803946Y-11036624D02*
X13765851Y-11036624D01*
X13765851Y-11036624D02*
X13746803Y-11027100D01*
X13746803Y-11027100D02*
X13737279Y-11008052D01*
X13737279Y-11008052D02*
X13737279Y-10931862D01*
X13737279Y-10931862D02*
X13746803Y-10912814D01*
X13746803Y-10912814D02*
X13765851Y-10903290D01*
X13765851Y-10903290D02*
X13803946Y-10903290D01*
X13803946Y-10903290D02*
X13822994Y-10912814D01*
X13822994Y-10912814D02*
X13832517Y-10931862D01*
X13832517Y-10931862D02*
X13832517Y-10950909D01*
X13832517Y-10950909D02*
X13737279Y-10969957D01*
X13908708Y-11027100D02*
X13927756Y-11036624D01*
X13927756Y-11036624D02*
X13965851Y-11036624D01*
X13965851Y-11036624D02*
X13984898Y-11027100D01*
X13984898Y-11027100D02*
X13994422Y-11008052D01*
X13994422Y-11008052D02*
X13994422Y-10998528D01*
X13994422Y-10998528D02*
X13984898Y-10979481D01*
X13984898Y-10979481D02*
X13965851Y-10969957D01*
X13965851Y-10969957D02*
X13937279Y-10969957D01*
X13937279Y-10969957D02*
X13918232Y-10960433D01*
X13918232Y-10960433D02*
X13908708Y-10941386D01*
X13908708Y-10941386D02*
X13908708Y-10931862D01*
X13908708Y-10931862D02*
X13918232Y-10912814D01*
X13918232Y-10912814D02*
X13937279Y-10903290D01*
X13937279Y-10903290D02*
X13965851Y-10903290D01*
X13965851Y-10903290D02*
X13984898Y-10912814D01*
X14061089Y-11112814D02*
X14070613Y-11103290D01*
X14070613Y-11103290D02*
X14089660Y-11074719D01*
X14089660Y-11074719D02*
X14099184Y-11055671D01*
X14099184Y-11055671D02*
X14108708Y-11027100D01*
X14108708Y-11027100D02*
X14118232Y-10979481D01*
X14118232Y-10979481D02*
X14118232Y-10941386D01*
X14118232Y-10941386D02*
X14108708Y-10893766D01*
X14108708Y-10893766D02*
X14099184Y-10865195D01*
X14099184Y-10865195D02*
X14089660Y-10846147D01*
X14089660Y-10846147D02*
X14070613Y-10817576D01*
X14070613Y-10817576D02*
X14061089Y-10808052D01*
M02*
