M48
; DRILL file {KiCad 8.0.6} date 2024-12-03T13:54:24-0500
; FORMAT={-:-/ absolute / inch / decimal}
; #@! TF.CreationDate,2024-12-03T13:54:24-05:00
; #@! TF.GenerationSoftware,Kicad,Pcbnew,8.0.6
; #@! TF.FileFunction,Plated,1,2,PTH
FMAT,2
INCH
; #@! TA.AperFunction,Plated,PTH,ViaDrill
T1C0.0157
; #@! TA.AperFunction,Plated,PTH,ComponentDrill
T2C0.0394
; #@! TA.AperFunction,Plated,PTH,ComponentDrill
T3C0.0433
%
G90
G05
T1
X3.6484Y-3.4027
X3.7935Y-3.6898
X3.8408Y-3.3512
X4.0475Y-3.743
X4.2463Y-3.3827
X4.4648Y-3.7449
X4.5652Y-3.4418
X4.7168Y-3.7449
X4.7876Y-3.6819
X4.8959Y-3.6819
X4.9156Y-3.3847
X5.138Y-3.743
X5.2423Y-3.4379
X5.39Y-3.7449
X5.5297Y-3.3847
X5.7994Y-3.741
X5.8959Y-3.4359
X6.0494Y-3.7449
X6.0846Y-3.5048
X6.0967Y-3.4674
X6.1557Y-3.3827
X6.3014Y-3.4831
X6.3344Y-3.575
X6.3699Y-3.5395
X6.4668Y-3.748
X6.516Y-3.6859
X6.564Y-3.3532
X6.7265Y-3.748
X6.9707Y-3.369
X7.1282Y-3.741
X7.1912Y-3.3512
X7.3979Y-3.743
X7.4746Y-3.7075
X7.5731Y-3.3827
X7.5888Y-3.7075
X7.7955Y-3.739
X7.9018Y-3.4319
X8.0435Y-3.7154
T2
X6.7939Y-3.4473
X6.7939Y-3.5473
X6.7939Y-3.6473
X6.8939Y-3.4473
X6.8939Y-3.5473
X6.8939Y-3.6473
T3
X3.7174Y-3.4731
X3.7174Y-3.6503
X3.9733Y-3.4731
X3.9733Y-3.6503
X4.3841Y-3.4731
X4.3841Y-3.6503
X4.64Y-3.4731
X4.64Y-3.6503
X5.0508Y-3.4731
X5.0508Y-3.6503
X5.3067Y-3.4731
X5.3067Y-3.6503
X5.7174Y-3.4731
X5.7174Y-3.6503
X5.9733Y-3.4731
X5.9733Y-3.6503
X6.3841Y-3.4731
X6.3841Y-3.6503
X6.64Y-3.4731
X6.64Y-3.6503
X7.0508Y-3.4731
X7.0508Y-3.6503
X7.3067Y-3.4731
X7.3067Y-3.6503
X7.7174Y-3.4731
X7.7174Y-3.6503
X7.9733Y-3.4731
X7.9733Y-3.6503
M30
