G04 #@! TF.GenerationSoftware,KiCad,Pcbnew,8.0.6*
G04 #@! TF.CreationDate,2024-12-03T13:54:22-05:00*
G04 #@! TF.ProjectId,UFC_Function Select,5546435f-4675-46e6-9374-696f6e205365,rev?*
G04 #@! TF.SameCoordinates,Original*
G04 #@! TF.FileFunction,Soldermask,Top*
G04 #@! TF.FilePolarity,Negative*
%FSLAX46Y46*%
G04 Gerber Fmt 4.6, Leading zero omitted, Abs format (unit mm)*
G04 Created by KiCad (PCBNEW 8.0.6) date 2024-12-03 13:54:22*
%MOMM*%
%LPD*%
G01*
G04 APERTURE LIST*
%ADD10C,3.200000*%
%ADD11R,0.700000X0.700000*%
%ADD12C,2.000000*%
%ADD13R,1.700000X1.700000*%
%ADD14O,1.700000X1.700000*%
G04 APERTURE END LIST*
D10*
X191005498Y-90721398D03*
X106005498Y-90721398D03*
D11*
X196938098Y-85937398D03*
X196938098Y-84837398D03*
X195108098Y-84837398D03*
X195108098Y-85937398D03*
X144308098Y-95098998D03*
X144308098Y-96198998D03*
X146138098Y-96198998D03*
X146138098Y-95098998D03*
X150810498Y-95098998D03*
X150810498Y-96198998D03*
X152640498Y-96198998D03*
X152640498Y-95098998D03*
X184643298Y-94997398D03*
X184643298Y-96097398D03*
X186473298Y-96097398D03*
X186473298Y-94997398D03*
X167726298Y-95140998D03*
X167726298Y-96240998D03*
X169556298Y-96240998D03*
X169556298Y-95140998D03*
X195108098Y-94997398D03*
X195108098Y-96097398D03*
X196938098Y-96097398D03*
X196938098Y-94997398D03*
X129221698Y-85937398D03*
X129221698Y-84837398D03*
X127391698Y-84837398D03*
X127391698Y-85937398D03*
D12*
X196022998Y-88216998D03*
X202522998Y-88216998D03*
X196022998Y-92716998D03*
X202522998Y-92716998D03*
D11*
X169506098Y-85937398D03*
X169506098Y-84837398D03*
X167676098Y-84837398D03*
X167676098Y-85937398D03*
X112305298Y-85937398D03*
X112305298Y-84837398D03*
X110475298Y-84837398D03*
X110475298Y-85937398D03*
D12*
X145222998Y-88216998D03*
X151722998Y-88216998D03*
X145222998Y-92716998D03*
X151722998Y-92716998D03*
X128289700Y-88217000D03*
X134789700Y-88217000D03*
X128289700Y-92717000D03*
X134789700Y-92717000D03*
D11*
X93558898Y-95098998D03*
X93558898Y-96198998D03*
X95388898Y-96198998D03*
X95388898Y-95098998D03*
D12*
X111356331Y-88216998D03*
X117856331Y-88216998D03*
X111356331Y-92716998D03*
X117856331Y-92716998D03*
D11*
X201559698Y-94997398D03*
X201559698Y-96097398D03*
X203389698Y-96097398D03*
X203389698Y-94997398D03*
X116926898Y-95098998D03*
X116926898Y-96198998D03*
X118756898Y-96198998D03*
X118756898Y-95098998D03*
X161275298Y-95098998D03*
X161275298Y-96198998D03*
X163105298Y-96198998D03*
X163105298Y-95098998D03*
X203389698Y-85988198D03*
X203389698Y-84888198D03*
X201559698Y-84888198D03*
X201559698Y-85988198D03*
X127391698Y-95098998D03*
X127391698Y-96198998D03*
X129221698Y-96198998D03*
X129221698Y-95098998D03*
X135673298Y-85937398D03*
X135673298Y-84837398D03*
X133843298Y-84837398D03*
X133843298Y-85937398D03*
X163105298Y-85937398D03*
X163105298Y-84837398D03*
X161275298Y-84837398D03*
X161275298Y-85937398D03*
D12*
X94422998Y-88216998D03*
X100922998Y-88216998D03*
X94422998Y-92716998D03*
X100922998Y-92716998D03*
D11*
X95388898Y-85937398D03*
X95388898Y-84837398D03*
X93558898Y-84837398D03*
X93558898Y-85937398D03*
D12*
X179089665Y-88216998D03*
X185589665Y-88216998D03*
X179089665Y-92716998D03*
X185589665Y-92716998D03*
D11*
X133843298Y-95098998D03*
X133843298Y-96198998D03*
X135673298Y-96198998D03*
X135673298Y-95098998D03*
X180021698Y-85937398D03*
X180021698Y-84837398D03*
X178191698Y-84837398D03*
X178191698Y-85937398D03*
X99959698Y-95098998D03*
X99959698Y-96198998D03*
X101789698Y-96198998D03*
X101789698Y-95098998D03*
X110475298Y-95098998D03*
X110475298Y-96198998D03*
X112305298Y-96198998D03*
X112305298Y-95098998D03*
D12*
X162156331Y-88216998D03*
X168656331Y-88216998D03*
X162156331Y-92716998D03*
X168656331Y-92716998D03*
D11*
X118706098Y-85937398D03*
X118706098Y-84837398D03*
X116876098Y-84837398D03*
X116876098Y-85937398D03*
X186473298Y-85937398D03*
X186473298Y-84837398D03*
X184643298Y-84837398D03*
X184643298Y-85937398D03*
X101789698Y-85937398D03*
X101789698Y-84837398D03*
X99959698Y-84837398D03*
X99959698Y-85937398D03*
X178191698Y-94997398D03*
X178191698Y-96097398D03*
X180021698Y-96097398D03*
X180021698Y-94997398D03*
X146188898Y-85937398D03*
X146188898Y-84837398D03*
X144358898Y-84837398D03*
X144358898Y-85937398D03*
X152589698Y-85937398D03*
X152589698Y-84837398D03*
X150759698Y-84837398D03*
X150759698Y-85937398D03*
D13*
X175105498Y-87561398D03*
D14*
X172565498Y-87561398D03*
X175105498Y-90101398D03*
X172565498Y-90101398D03*
X175105498Y-92641398D03*
X172565498Y-92641398D03*
M02*
