%TF.GenerationSoftware,KiCad,Pcbnew,8.0.6*%
%TF.CreationDate,2024-12-03T13:54:24-05:00*%
%TF.ProjectId,UFC_Function Select,5546435f-4675-46e6-9374-696f6e205365,rev?*%
%TF.SameCoordinates,Original*%
%TF.FileFunction,Drillmap*%
%TF.FilePolarity,Positive*%
%FSLAX45Y45*%
G04 Gerber Fmt 4.5, Leading zero omitted, Abs format (unit mm)*
G04 Created by KiCad (PCBNEW 8.0.6) date 2024-12-03 13:54:24*
%MOMM*%
%LPD*%
G01*
G04 APERTURE LIST*
%ADD10C,0.100000*%
%ADD11C,0.200000*%
%ADD12C,0.320000*%
G04 APERTURE END LIST*
D10*
X9100550Y-9572140D02*
X9100550Y-8522140D01*
X9100550Y-8522140D02*
G75*
G02*
X9300550Y-8322140I200000J0D01*
G01*
X20600550Y-9572140D02*
G75*
G02*
X20400550Y-9772140I-200000J0D01*
G01*
X9300550Y-8322140D02*
X20400550Y-8322140D01*
X20400550Y-9772140D02*
X9300550Y-9772140D01*
X9300550Y-9772140D02*
G75*
G02*
X9100550Y-9572140I0J200000D01*
G01*
X20600550Y-8522140D02*
X20600550Y-9572140D01*
X20400550Y-8322140D02*
G75*
G02*
X20600550Y-8522140I0J-200000D01*
G01*
D11*
D12*
X10440550Y-8912140D02*
X10760550Y-9232140D01*
X10760550Y-8912140D02*
X10440550Y-9232140D01*
X18940550Y-8912140D02*
X19260550Y-9232140D01*
X19260550Y-8912140D02*
X18940550Y-9232140D01*
D11*
X9356327Y-10088624D02*
X9356327Y-9888624D01*
X9356327Y-9888624D02*
X9403946Y-9888624D01*
X9403946Y-9888624D02*
X9432517Y-9898147D01*
X9432517Y-9898147D02*
X9451565Y-9917195D01*
X9451565Y-9917195D02*
X9461089Y-9936243D01*
X9461089Y-9936243D02*
X9470612Y-9974338D01*
X9470612Y-9974338D02*
X9470612Y-10002909D01*
X9470612Y-10002909D02*
X9461089Y-10041005D01*
X9461089Y-10041005D02*
X9451565Y-10060052D01*
X9451565Y-10060052D02*
X9432517Y-10079100D01*
X9432517Y-10079100D02*
X9403946Y-10088624D01*
X9403946Y-10088624D02*
X9356327Y-10088624D01*
X9556327Y-10088624D02*
X9556327Y-9955290D01*
X9556327Y-9993386D02*
X9565850Y-9974338D01*
X9565850Y-9974338D02*
X9575374Y-9964814D01*
X9575374Y-9964814D02*
X9594422Y-9955290D01*
X9594422Y-9955290D02*
X9613470Y-9955290D01*
X9680136Y-10088624D02*
X9680136Y-9955290D01*
X9680136Y-9888624D02*
X9670612Y-9898147D01*
X9670612Y-9898147D02*
X9680136Y-9907671D01*
X9680136Y-9907671D02*
X9689660Y-9898147D01*
X9689660Y-9898147D02*
X9680136Y-9888624D01*
X9680136Y-9888624D02*
X9680136Y-9907671D01*
X9803946Y-10088624D02*
X9784898Y-10079100D01*
X9784898Y-10079100D02*
X9775374Y-10060052D01*
X9775374Y-10060052D02*
X9775374Y-9888624D01*
X9908708Y-10088624D02*
X9889660Y-10079100D01*
X9889660Y-10079100D02*
X9880136Y-10060052D01*
X9880136Y-10060052D02*
X9880136Y-9888624D01*
X10137279Y-10088624D02*
X10137279Y-9888624D01*
X10137279Y-9888624D02*
X10203946Y-10031481D01*
X10203946Y-10031481D02*
X10270612Y-9888624D01*
X10270612Y-9888624D02*
X10270612Y-10088624D01*
X10451565Y-10088624D02*
X10451565Y-9983862D01*
X10451565Y-9983862D02*
X10442041Y-9964814D01*
X10442041Y-9964814D02*
X10422993Y-9955290D01*
X10422993Y-9955290D02*
X10384898Y-9955290D01*
X10384898Y-9955290D02*
X10365850Y-9964814D01*
X10451565Y-10079100D02*
X10432517Y-10088624D01*
X10432517Y-10088624D02*
X10384898Y-10088624D01*
X10384898Y-10088624D02*
X10365850Y-10079100D01*
X10365850Y-10079100D02*
X10356327Y-10060052D01*
X10356327Y-10060052D02*
X10356327Y-10041005D01*
X10356327Y-10041005D02*
X10365850Y-10021957D01*
X10365850Y-10021957D02*
X10384898Y-10012433D01*
X10384898Y-10012433D02*
X10432517Y-10012433D01*
X10432517Y-10012433D02*
X10451565Y-10002909D01*
X10546803Y-9955290D02*
X10546803Y-10155290D01*
X10546803Y-9964814D02*
X10565850Y-9955290D01*
X10565850Y-9955290D02*
X10603946Y-9955290D01*
X10603946Y-9955290D02*
X10622993Y-9964814D01*
X10622993Y-9964814D02*
X10632517Y-9974338D01*
X10632517Y-9974338D02*
X10642041Y-9993386D01*
X10642041Y-9993386D02*
X10642041Y-10050528D01*
X10642041Y-10050528D02*
X10632517Y-10069576D01*
X10632517Y-10069576D02*
X10622993Y-10079100D01*
X10622993Y-10079100D02*
X10603946Y-10088624D01*
X10603946Y-10088624D02*
X10565850Y-10088624D01*
X10565850Y-10088624D02*
X10546803Y-10079100D01*
X10727755Y-10069576D02*
X10737279Y-10079100D01*
X10737279Y-10079100D02*
X10727755Y-10088624D01*
X10727755Y-10088624D02*
X10718231Y-10079100D01*
X10718231Y-10079100D02*
X10727755Y-10069576D01*
X10727755Y-10069576D02*
X10727755Y-10088624D01*
X10727755Y-9964814D02*
X10737279Y-9974338D01*
X10737279Y-9974338D02*
X10727755Y-9983862D01*
X10727755Y-9983862D02*
X10718231Y-9974338D01*
X10718231Y-9974338D02*
X10727755Y-9964814D01*
X10727755Y-9964814D02*
X10727755Y-9983862D01*
X8895550Y-10317140D02*
X9095550Y-10517140D01*
X9095550Y-10317140D02*
X8895550Y-10517140D01*
X9337279Y-10308624D02*
X9461089Y-10308624D01*
X9461089Y-10308624D02*
X9394422Y-10384814D01*
X9394422Y-10384814D02*
X9422993Y-10384814D01*
X9422993Y-10384814D02*
X9442041Y-10394338D01*
X9442041Y-10394338D02*
X9451565Y-10403862D01*
X9451565Y-10403862D02*
X9461089Y-10422909D01*
X9461089Y-10422909D02*
X9461089Y-10470528D01*
X9461089Y-10470528D02*
X9451565Y-10489576D01*
X9451565Y-10489576D02*
X9442041Y-10499100D01*
X9442041Y-10499100D02*
X9422993Y-10508624D01*
X9422993Y-10508624D02*
X9365850Y-10508624D01*
X9365850Y-10508624D02*
X9346803Y-10499100D01*
X9346803Y-10499100D02*
X9337279Y-10489576D01*
X9546803Y-10489576D02*
X9556327Y-10499100D01*
X9556327Y-10499100D02*
X9546803Y-10508624D01*
X9546803Y-10508624D02*
X9537279Y-10499100D01*
X9537279Y-10499100D02*
X9546803Y-10489576D01*
X9546803Y-10489576D02*
X9546803Y-10508624D01*
X9632517Y-10327671D02*
X9642041Y-10318147D01*
X9642041Y-10318147D02*
X9661089Y-10308624D01*
X9661089Y-10308624D02*
X9708708Y-10308624D01*
X9708708Y-10308624D02*
X9727755Y-10318147D01*
X9727755Y-10318147D02*
X9737279Y-10327671D01*
X9737279Y-10327671D02*
X9746803Y-10346719D01*
X9746803Y-10346719D02*
X9746803Y-10365766D01*
X9746803Y-10365766D02*
X9737279Y-10394338D01*
X9737279Y-10394338D02*
X9622993Y-10508624D01*
X9622993Y-10508624D02*
X9746803Y-10508624D01*
X9870612Y-10308624D02*
X9889660Y-10308624D01*
X9889660Y-10308624D02*
X9908708Y-10318147D01*
X9908708Y-10318147D02*
X9918231Y-10327671D01*
X9918231Y-10327671D02*
X9927755Y-10346719D01*
X9927755Y-10346719D02*
X9937279Y-10384814D01*
X9937279Y-10384814D02*
X9937279Y-10432433D01*
X9937279Y-10432433D02*
X9927755Y-10470528D01*
X9927755Y-10470528D02*
X9918231Y-10489576D01*
X9918231Y-10489576D02*
X9908708Y-10499100D01*
X9908708Y-10499100D02*
X9889660Y-10508624D01*
X9889660Y-10508624D02*
X9870612Y-10508624D01*
X9870612Y-10508624D02*
X9851565Y-10499100D01*
X9851565Y-10499100D02*
X9842041Y-10489576D01*
X9842041Y-10489576D02*
X9832517Y-10470528D01*
X9832517Y-10470528D02*
X9822993Y-10432433D01*
X9822993Y-10432433D02*
X9822993Y-10384814D01*
X9822993Y-10384814D02*
X9832517Y-10346719D01*
X9832517Y-10346719D02*
X9842041Y-10327671D01*
X9842041Y-10327671D02*
X9851565Y-10318147D01*
X9851565Y-10318147D02*
X9870612Y-10308624D01*
X10061089Y-10308624D02*
X10080136Y-10308624D01*
X10080136Y-10308624D02*
X10099184Y-10318147D01*
X10099184Y-10318147D02*
X10108708Y-10327671D01*
X10108708Y-10327671D02*
X10118231Y-10346719D01*
X10118231Y-10346719D02*
X10127755Y-10384814D01*
X10127755Y-10384814D02*
X10127755Y-10432433D01*
X10127755Y-10432433D02*
X10118231Y-10470528D01*
X10118231Y-10470528D02*
X10108708Y-10489576D01*
X10108708Y-10489576D02*
X10099184Y-10499100D01*
X10099184Y-10499100D02*
X10080136Y-10508624D01*
X10080136Y-10508624D02*
X10061089Y-10508624D01*
X10061089Y-10508624D02*
X10042041Y-10499100D01*
X10042041Y-10499100D02*
X10032517Y-10489576D01*
X10032517Y-10489576D02*
X10022993Y-10470528D01*
X10022993Y-10470528D02*
X10013470Y-10432433D01*
X10013470Y-10432433D02*
X10013470Y-10384814D01*
X10013470Y-10384814D02*
X10022993Y-10346719D01*
X10022993Y-10346719D02*
X10032517Y-10327671D01*
X10032517Y-10327671D02*
X10042041Y-10318147D01*
X10042041Y-10318147D02*
X10061089Y-10308624D01*
X10213470Y-10508624D02*
X10213470Y-10375290D01*
X10213470Y-10394338D02*
X10222993Y-10384814D01*
X10222993Y-10384814D02*
X10242041Y-10375290D01*
X10242041Y-10375290D02*
X10270612Y-10375290D01*
X10270612Y-10375290D02*
X10289660Y-10384814D01*
X10289660Y-10384814D02*
X10299184Y-10403862D01*
X10299184Y-10403862D02*
X10299184Y-10508624D01*
X10299184Y-10403862D02*
X10308708Y-10384814D01*
X10308708Y-10384814D02*
X10327755Y-10375290D01*
X10327755Y-10375290D02*
X10356327Y-10375290D01*
X10356327Y-10375290D02*
X10375374Y-10384814D01*
X10375374Y-10384814D02*
X10384898Y-10403862D01*
X10384898Y-10403862D02*
X10384898Y-10508624D01*
X10480136Y-10508624D02*
X10480136Y-10375290D01*
X10480136Y-10394338D02*
X10489660Y-10384814D01*
X10489660Y-10384814D02*
X10508708Y-10375290D01*
X10508708Y-10375290D02*
X10537279Y-10375290D01*
X10537279Y-10375290D02*
X10556327Y-10384814D01*
X10556327Y-10384814D02*
X10565851Y-10403862D01*
X10565851Y-10403862D02*
X10565851Y-10508624D01*
X10565851Y-10403862D02*
X10575374Y-10384814D01*
X10575374Y-10384814D02*
X10594422Y-10375290D01*
X10594422Y-10375290D02*
X10622993Y-10375290D01*
X10622993Y-10375290D02*
X10642041Y-10384814D01*
X10642041Y-10384814D02*
X10651565Y-10403862D01*
X10651565Y-10403862D02*
X10651565Y-10508624D01*
X11042041Y-10299100D02*
X10870613Y-10556243D01*
X11299184Y-10308624D02*
X11318232Y-10308624D01*
X11318232Y-10308624D02*
X11337279Y-10318147D01*
X11337279Y-10318147D02*
X11346803Y-10327671D01*
X11346803Y-10327671D02*
X11356327Y-10346719D01*
X11356327Y-10346719D02*
X11365851Y-10384814D01*
X11365851Y-10384814D02*
X11365851Y-10432433D01*
X11365851Y-10432433D02*
X11356327Y-10470528D01*
X11356327Y-10470528D02*
X11346803Y-10489576D01*
X11346803Y-10489576D02*
X11337279Y-10499100D01*
X11337279Y-10499100D02*
X11318232Y-10508624D01*
X11318232Y-10508624D02*
X11299184Y-10508624D01*
X11299184Y-10508624D02*
X11280136Y-10499100D01*
X11280136Y-10499100D02*
X11270612Y-10489576D01*
X11270612Y-10489576D02*
X11261089Y-10470528D01*
X11261089Y-10470528D02*
X11251565Y-10432433D01*
X11251565Y-10432433D02*
X11251565Y-10384814D01*
X11251565Y-10384814D02*
X11261089Y-10346719D01*
X11261089Y-10346719D02*
X11270612Y-10327671D01*
X11270612Y-10327671D02*
X11280136Y-10318147D01*
X11280136Y-10318147D02*
X11299184Y-10308624D01*
X11451565Y-10489576D02*
X11461089Y-10499100D01*
X11461089Y-10499100D02*
X11451565Y-10508624D01*
X11451565Y-10508624D02*
X11442041Y-10499100D01*
X11442041Y-10499100D02*
X11451565Y-10489576D01*
X11451565Y-10489576D02*
X11451565Y-10508624D01*
X11651565Y-10508624D02*
X11537279Y-10508624D01*
X11594422Y-10508624D02*
X11594422Y-10308624D01*
X11594422Y-10308624D02*
X11575374Y-10337195D01*
X11575374Y-10337195D02*
X11556327Y-10356243D01*
X11556327Y-10356243D02*
X11537279Y-10365766D01*
X11727755Y-10327671D02*
X11737279Y-10318147D01*
X11737279Y-10318147D02*
X11756327Y-10308624D01*
X11756327Y-10308624D02*
X11803946Y-10308624D01*
X11803946Y-10308624D02*
X11822993Y-10318147D01*
X11822993Y-10318147D02*
X11832517Y-10327671D01*
X11832517Y-10327671D02*
X11842041Y-10346719D01*
X11842041Y-10346719D02*
X11842041Y-10365766D01*
X11842041Y-10365766D02*
X11832517Y-10394338D01*
X11832517Y-10394338D02*
X11718232Y-10508624D01*
X11718232Y-10508624D02*
X11842041Y-10508624D01*
X12013470Y-10308624D02*
X11975374Y-10308624D01*
X11975374Y-10308624D02*
X11956327Y-10318147D01*
X11956327Y-10318147D02*
X11946803Y-10327671D01*
X11946803Y-10327671D02*
X11927755Y-10356243D01*
X11927755Y-10356243D02*
X11918232Y-10394338D01*
X11918232Y-10394338D02*
X11918232Y-10470528D01*
X11918232Y-10470528D02*
X11927755Y-10489576D01*
X11927755Y-10489576D02*
X11937279Y-10499100D01*
X11937279Y-10499100D02*
X11956327Y-10508624D01*
X11956327Y-10508624D02*
X11994422Y-10508624D01*
X11994422Y-10508624D02*
X12013470Y-10499100D01*
X12013470Y-10499100D02*
X12022993Y-10489576D01*
X12022993Y-10489576D02*
X12032517Y-10470528D01*
X12032517Y-10470528D02*
X12032517Y-10422909D01*
X12032517Y-10422909D02*
X12022993Y-10403862D01*
X12022993Y-10403862D02*
X12013470Y-10394338D01*
X12013470Y-10394338D02*
X11994422Y-10384814D01*
X11994422Y-10384814D02*
X11956327Y-10384814D01*
X11956327Y-10384814D02*
X11937279Y-10394338D01*
X11937279Y-10394338D02*
X11927755Y-10403862D01*
X11927755Y-10403862D02*
X11918232Y-10422909D01*
X12156327Y-10308624D02*
X12175374Y-10308624D01*
X12175374Y-10308624D02*
X12194422Y-10318147D01*
X12194422Y-10318147D02*
X12203946Y-10327671D01*
X12203946Y-10327671D02*
X12213470Y-10346719D01*
X12213470Y-10346719D02*
X12222993Y-10384814D01*
X12222993Y-10384814D02*
X12222993Y-10432433D01*
X12222993Y-10432433D02*
X12213470Y-10470528D01*
X12213470Y-10470528D02*
X12203946Y-10489576D01*
X12203946Y-10489576D02*
X12194422Y-10499100D01*
X12194422Y-10499100D02*
X12175374Y-10508624D01*
X12175374Y-10508624D02*
X12156327Y-10508624D01*
X12156327Y-10508624D02*
X12137279Y-10499100D01*
X12137279Y-10499100D02*
X12127755Y-10489576D01*
X12127755Y-10489576D02*
X12118232Y-10470528D01*
X12118232Y-10470528D02*
X12108708Y-10432433D01*
X12108708Y-10432433D02*
X12108708Y-10384814D01*
X12108708Y-10384814D02*
X12118232Y-10346719D01*
X12118232Y-10346719D02*
X12127755Y-10327671D01*
X12127755Y-10327671D02*
X12137279Y-10318147D01*
X12137279Y-10318147D02*
X12156327Y-10308624D01*
X12299184Y-10308624D02*
X12299184Y-10346719D01*
X12375374Y-10308624D02*
X12375374Y-10346719D01*
X12670613Y-10584814D02*
X12661089Y-10575290D01*
X12661089Y-10575290D02*
X12642041Y-10546719D01*
X12642041Y-10546719D02*
X12632517Y-10527671D01*
X12632517Y-10527671D02*
X12622994Y-10499100D01*
X12622994Y-10499100D02*
X12613470Y-10451481D01*
X12613470Y-10451481D02*
X12613470Y-10413386D01*
X12613470Y-10413386D02*
X12622994Y-10365766D01*
X12622994Y-10365766D02*
X12632517Y-10337195D01*
X12632517Y-10337195D02*
X12642041Y-10318147D01*
X12642041Y-10318147D02*
X12661089Y-10289576D01*
X12661089Y-10289576D02*
X12670613Y-10280052D01*
X12737279Y-10327671D02*
X12746803Y-10318147D01*
X12746803Y-10318147D02*
X12765851Y-10308624D01*
X12765851Y-10308624D02*
X12813470Y-10308624D01*
X12813470Y-10308624D02*
X12832517Y-10318147D01*
X12832517Y-10318147D02*
X12842041Y-10327671D01*
X12842041Y-10327671D02*
X12851565Y-10346719D01*
X12851565Y-10346719D02*
X12851565Y-10365766D01*
X12851565Y-10365766D02*
X12842041Y-10394338D01*
X12842041Y-10394338D02*
X12727755Y-10508624D01*
X12727755Y-10508624D02*
X12851565Y-10508624D01*
X13089660Y-10508624D02*
X13089660Y-10308624D01*
X13175375Y-10508624D02*
X13175375Y-10403862D01*
X13175375Y-10403862D02*
X13165851Y-10384814D01*
X13165851Y-10384814D02*
X13146803Y-10375290D01*
X13146803Y-10375290D02*
X13118232Y-10375290D01*
X13118232Y-10375290D02*
X13099184Y-10384814D01*
X13099184Y-10384814D02*
X13089660Y-10394338D01*
X13299184Y-10508624D02*
X13280136Y-10499100D01*
X13280136Y-10499100D02*
X13270613Y-10489576D01*
X13270613Y-10489576D02*
X13261089Y-10470528D01*
X13261089Y-10470528D02*
X13261089Y-10413386D01*
X13261089Y-10413386D02*
X13270613Y-10394338D01*
X13270613Y-10394338D02*
X13280136Y-10384814D01*
X13280136Y-10384814D02*
X13299184Y-10375290D01*
X13299184Y-10375290D02*
X13327756Y-10375290D01*
X13327756Y-10375290D02*
X13346803Y-10384814D01*
X13346803Y-10384814D02*
X13356327Y-10394338D01*
X13356327Y-10394338D02*
X13365851Y-10413386D01*
X13365851Y-10413386D02*
X13365851Y-10470528D01*
X13365851Y-10470528D02*
X13356327Y-10489576D01*
X13356327Y-10489576D02*
X13346803Y-10499100D01*
X13346803Y-10499100D02*
X13327756Y-10508624D01*
X13327756Y-10508624D02*
X13299184Y-10508624D01*
X13480136Y-10508624D02*
X13461089Y-10499100D01*
X13461089Y-10499100D02*
X13451565Y-10480052D01*
X13451565Y-10480052D02*
X13451565Y-10308624D01*
X13632517Y-10499100D02*
X13613470Y-10508624D01*
X13613470Y-10508624D02*
X13575375Y-10508624D01*
X13575375Y-10508624D02*
X13556327Y-10499100D01*
X13556327Y-10499100D02*
X13546803Y-10480052D01*
X13546803Y-10480052D02*
X13546803Y-10403862D01*
X13546803Y-10403862D02*
X13556327Y-10384814D01*
X13556327Y-10384814D02*
X13575375Y-10375290D01*
X13575375Y-10375290D02*
X13613470Y-10375290D01*
X13613470Y-10375290D02*
X13632517Y-10384814D01*
X13632517Y-10384814D02*
X13642041Y-10403862D01*
X13642041Y-10403862D02*
X13642041Y-10422909D01*
X13642041Y-10422909D02*
X13546803Y-10441957D01*
X13718232Y-10499100D02*
X13737279Y-10508624D01*
X13737279Y-10508624D02*
X13775375Y-10508624D01*
X13775375Y-10508624D02*
X13794422Y-10499100D01*
X13794422Y-10499100D02*
X13803946Y-10480052D01*
X13803946Y-10480052D02*
X13803946Y-10470528D01*
X13803946Y-10470528D02*
X13794422Y-10451481D01*
X13794422Y-10451481D02*
X13775375Y-10441957D01*
X13775375Y-10441957D02*
X13746803Y-10441957D01*
X13746803Y-10441957D02*
X13727756Y-10432433D01*
X13727756Y-10432433D02*
X13718232Y-10413386D01*
X13718232Y-10413386D02*
X13718232Y-10403862D01*
X13718232Y-10403862D02*
X13727756Y-10384814D01*
X13727756Y-10384814D02*
X13746803Y-10375290D01*
X13746803Y-10375290D02*
X13775375Y-10375290D01*
X13775375Y-10375290D02*
X13794422Y-10384814D01*
X13870613Y-10584814D02*
X13880137Y-10575290D01*
X13880137Y-10575290D02*
X13899184Y-10546719D01*
X13899184Y-10546719D02*
X13908708Y-10527671D01*
X13908708Y-10527671D02*
X13918232Y-10499100D01*
X13918232Y-10499100D02*
X13927756Y-10451481D01*
X13927756Y-10451481D02*
X13927756Y-10413386D01*
X13927756Y-10413386D02*
X13918232Y-10365766D01*
X13918232Y-10365766D02*
X13908708Y-10337195D01*
X13908708Y-10337195D02*
X13899184Y-10318147D01*
X13899184Y-10318147D02*
X13880137Y-10289576D01*
X13880137Y-10289576D02*
X13870613Y-10280052D01*
X14232518Y-10584814D02*
X14222994Y-10575290D01*
X14222994Y-10575290D02*
X14203946Y-10546719D01*
X14203946Y-10546719D02*
X14194422Y-10527671D01*
X14194422Y-10527671D02*
X14184898Y-10499100D01*
X14184898Y-10499100D02*
X14175375Y-10451481D01*
X14175375Y-10451481D02*
X14175375Y-10413386D01*
X14175375Y-10413386D02*
X14184898Y-10365766D01*
X14184898Y-10365766D02*
X14194422Y-10337195D01*
X14194422Y-10337195D02*
X14203946Y-10318147D01*
X14203946Y-10318147D02*
X14222994Y-10289576D01*
X14222994Y-10289576D02*
X14232518Y-10280052D01*
X14308708Y-10375290D02*
X14308708Y-10508624D01*
X14308708Y-10394338D02*
X14318232Y-10384814D01*
X14318232Y-10384814D02*
X14337279Y-10375290D01*
X14337279Y-10375290D02*
X14365851Y-10375290D01*
X14365851Y-10375290D02*
X14384898Y-10384814D01*
X14384898Y-10384814D02*
X14394422Y-10403862D01*
X14394422Y-10403862D02*
X14394422Y-10508624D01*
X14518232Y-10508624D02*
X14499184Y-10499100D01*
X14499184Y-10499100D02*
X14489660Y-10489576D01*
X14489660Y-10489576D02*
X14480137Y-10470528D01*
X14480137Y-10470528D02*
X14480137Y-10413386D01*
X14480137Y-10413386D02*
X14489660Y-10394338D01*
X14489660Y-10394338D02*
X14499184Y-10384814D01*
X14499184Y-10384814D02*
X14518232Y-10375290D01*
X14518232Y-10375290D02*
X14546803Y-10375290D01*
X14546803Y-10375290D02*
X14565851Y-10384814D01*
X14565851Y-10384814D02*
X14575375Y-10394338D01*
X14575375Y-10394338D02*
X14584898Y-10413386D01*
X14584898Y-10413386D02*
X14584898Y-10470528D01*
X14584898Y-10470528D02*
X14575375Y-10489576D01*
X14575375Y-10489576D02*
X14565851Y-10499100D01*
X14565851Y-10499100D02*
X14546803Y-10508624D01*
X14546803Y-10508624D02*
X14518232Y-10508624D01*
X14642041Y-10375290D02*
X14718232Y-10375290D01*
X14670613Y-10308624D02*
X14670613Y-10480052D01*
X14670613Y-10480052D02*
X14680137Y-10499100D01*
X14680137Y-10499100D02*
X14699184Y-10508624D01*
X14699184Y-10508624D02*
X14718232Y-10508624D01*
X14937279Y-10375290D02*
X14937279Y-10575290D01*
X14937279Y-10384814D02*
X14956327Y-10375290D01*
X14956327Y-10375290D02*
X14994422Y-10375290D01*
X14994422Y-10375290D02*
X15013470Y-10384814D01*
X15013470Y-10384814D02*
X15022994Y-10394338D01*
X15022994Y-10394338D02*
X15032518Y-10413386D01*
X15032518Y-10413386D02*
X15032518Y-10470528D01*
X15032518Y-10470528D02*
X15022994Y-10489576D01*
X15022994Y-10489576D02*
X15013470Y-10499100D01*
X15013470Y-10499100D02*
X14994422Y-10508624D01*
X14994422Y-10508624D02*
X14956327Y-10508624D01*
X14956327Y-10508624D02*
X14937279Y-10499100D01*
X15146803Y-10508624D02*
X15127756Y-10499100D01*
X15127756Y-10499100D02*
X15118232Y-10480052D01*
X15118232Y-10480052D02*
X15118232Y-10308624D01*
X15308708Y-10508624D02*
X15308708Y-10403862D01*
X15308708Y-10403862D02*
X15299184Y-10384814D01*
X15299184Y-10384814D02*
X15280137Y-10375290D01*
X15280137Y-10375290D02*
X15242041Y-10375290D01*
X15242041Y-10375290D02*
X15222994Y-10384814D01*
X15308708Y-10499100D02*
X15289660Y-10508624D01*
X15289660Y-10508624D02*
X15242041Y-10508624D01*
X15242041Y-10508624D02*
X15222994Y-10499100D01*
X15222994Y-10499100D02*
X15213470Y-10480052D01*
X15213470Y-10480052D02*
X15213470Y-10461005D01*
X15213470Y-10461005D02*
X15222994Y-10441957D01*
X15222994Y-10441957D02*
X15242041Y-10432433D01*
X15242041Y-10432433D02*
X15289660Y-10432433D01*
X15289660Y-10432433D02*
X15308708Y-10422909D01*
X15375375Y-10375290D02*
X15451565Y-10375290D01*
X15403946Y-10308624D02*
X15403946Y-10480052D01*
X15403946Y-10480052D02*
X15413470Y-10499100D01*
X15413470Y-10499100D02*
X15432518Y-10508624D01*
X15432518Y-10508624D02*
X15451565Y-10508624D01*
X15594422Y-10499100D02*
X15575375Y-10508624D01*
X15575375Y-10508624D02*
X15537279Y-10508624D01*
X15537279Y-10508624D02*
X15518232Y-10499100D01*
X15518232Y-10499100D02*
X15508708Y-10480052D01*
X15508708Y-10480052D02*
X15508708Y-10403862D01*
X15508708Y-10403862D02*
X15518232Y-10384814D01*
X15518232Y-10384814D02*
X15537279Y-10375290D01*
X15537279Y-10375290D02*
X15575375Y-10375290D01*
X15575375Y-10375290D02*
X15594422Y-10384814D01*
X15594422Y-10384814D02*
X15603946Y-10403862D01*
X15603946Y-10403862D02*
X15603946Y-10422909D01*
X15603946Y-10422909D02*
X15508708Y-10441957D01*
X15775375Y-10508624D02*
X15775375Y-10308624D01*
X15775375Y-10499100D02*
X15756327Y-10508624D01*
X15756327Y-10508624D02*
X15718232Y-10508624D01*
X15718232Y-10508624D02*
X15699184Y-10499100D01*
X15699184Y-10499100D02*
X15689660Y-10489576D01*
X15689660Y-10489576D02*
X15680137Y-10470528D01*
X15680137Y-10470528D02*
X15680137Y-10413386D01*
X15680137Y-10413386D02*
X15689660Y-10394338D01*
X15689660Y-10394338D02*
X15699184Y-10384814D01*
X15699184Y-10384814D02*
X15718232Y-10375290D01*
X15718232Y-10375290D02*
X15756327Y-10375290D01*
X15756327Y-10375290D02*
X15775375Y-10384814D01*
X15851565Y-10584814D02*
X15861089Y-10575290D01*
X15861089Y-10575290D02*
X15880137Y-10546719D01*
X15880137Y-10546719D02*
X15889660Y-10527671D01*
X15889660Y-10527671D02*
X15899184Y-10499100D01*
X15899184Y-10499100D02*
X15908708Y-10451481D01*
X15908708Y-10451481D02*
X15908708Y-10413386D01*
X15908708Y-10413386D02*
X15899184Y-10365766D01*
X15899184Y-10365766D02*
X15889660Y-10337195D01*
X15889660Y-10337195D02*
X15880137Y-10318147D01*
X15880137Y-10318147D02*
X15861089Y-10289576D01*
X15861089Y-10289576D02*
X15851565Y-10280052D01*
M02*
