G04 #@! TF.GenerationSoftware,KiCad,Pcbnew,8.0.6*
G04 #@! TF.CreationDate,2024-12-03T13:54:22-05:00*
G04 #@! TF.ProjectId,UFC_Function Select,5546435f-4675-46e6-9374-696f6e205365,rev?*
G04 #@! TF.SameCoordinates,Original*
G04 #@! TF.FileFunction,Copper,L1,Top*
G04 #@! TF.FilePolarity,Positive*
%FSLAX46Y46*%
G04 Gerber Fmt 4.6, Leading zero omitted, Abs format (unit mm)*
G04 Created by KiCad (PCBNEW 8.0.6) date 2024-12-03 13:54:22*
%MOMM*%
%LPD*%
G01*
G04 APERTURE LIST*
G04 #@! TA.AperFunction,SMDPad,CuDef*
%ADD10R,0.700000X0.700000*%
G04 #@! TD*
G04 #@! TA.AperFunction,ComponentPad*
%ADD11C,2.000000*%
G04 #@! TD*
G04 #@! TA.AperFunction,ComponentPad*
%ADD12R,1.700000X1.700000*%
G04 #@! TD*
G04 #@! TA.AperFunction,ComponentPad*
%ADD13O,1.700000X1.700000*%
G04 #@! TD*
G04 #@! TA.AperFunction,ViaPad*
%ADD14C,0.800000*%
G04 #@! TD*
G04 #@! TA.AperFunction,Conductor*
%ADD15C,0.304800*%
G04 #@! TD*
G04 #@! TA.AperFunction,Conductor*
%ADD16C,0.152400*%
G04 #@! TD*
G04 #@! TA.AperFunction,Conductor*
%ADD17C,0.609600*%
G04 #@! TD*
G04 APERTURE END LIST*
D10*
X196938098Y-85937398D03*
X196938098Y-84837398D03*
X195108098Y-84837398D03*
X195108098Y-85937398D03*
X144308098Y-95098998D03*
X144308098Y-96198998D03*
X146138098Y-96198998D03*
X146138098Y-95098998D03*
X150810498Y-95098998D03*
X150810498Y-96198998D03*
X152640498Y-96198998D03*
X152640498Y-95098998D03*
X184643298Y-94997398D03*
X184643298Y-96097398D03*
X186473298Y-96097398D03*
X186473298Y-94997398D03*
X167726298Y-95140998D03*
X167726298Y-96240998D03*
X169556298Y-96240998D03*
X169556298Y-95140998D03*
X195108098Y-94997398D03*
X195108098Y-96097398D03*
X196938098Y-96097398D03*
X196938098Y-94997398D03*
X129221698Y-85937398D03*
X129221698Y-84837398D03*
X127391698Y-84837398D03*
X127391698Y-85937398D03*
D11*
X196022998Y-88216998D03*
X202522998Y-88216998D03*
X196022998Y-92716998D03*
X202522998Y-92716998D03*
D10*
X169506098Y-85937398D03*
X169506098Y-84837398D03*
X167676098Y-84837398D03*
X167676098Y-85937398D03*
X112305298Y-85937398D03*
X112305298Y-84837398D03*
X110475298Y-84837398D03*
X110475298Y-85937398D03*
D11*
X145222998Y-88216998D03*
X151722998Y-88216998D03*
X145222998Y-92716998D03*
X151722998Y-92716998D03*
X128289700Y-88217000D03*
X134789700Y-88217000D03*
X128289700Y-92717000D03*
X134789700Y-92717000D03*
D10*
X93558898Y-95098998D03*
X93558898Y-96198998D03*
X95388898Y-96198998D03*
X95388898Y-95098998D03*
D11*
X111356331Y-88216998D03*
X117856331Y-88216998D03*
X111356331Y-92716998D03*
X117856331Y-92716998D03*
D10*
X201559698Y-94997398D03*
X201559698Y-96097398D03*
X203389698Y-96097398D03*
X203389698Y-94997398D03*
X116926898Y-95098998D03*
X116926898Y-96198998D03*
X118756898Y-96198998D03*
X118756898Y-95098998D03*
X161275298Y-95098998D03*
X161275298Y-96198998D03*
X163105298Y-96198998D03*
X163105298Y-95098998D03*
X203389698Y-85988198D03*
X203389698Y-84888198D03*
X201559698Y-84888198D03*
X201559698Y-85988198D03*
X127391698Y-95098998D03*
X127391698Y-96198998D03*
X129221698Y-96198998D03*
X129221698Y-95098998D03*
X135673298Y-85937398D03*
X135673298Y-84837398D03*
X133843298Y-84837398D03*
X133843298Y-85937398D03*
X163105298Y-85937398D03*
X163105298Y-84837398D03*
X161275298Y-84837398D03*
X161275298Y-85937398D03*
D11*
X94422998Y-88216998D03*
X100922998Y-88216998D03*
X94422998Y-92716998D03*
X100922998Y-92716998D03*
D10*
X95388898Y-85937398D03*
X95388898Y-84837398D03*
X93558898Y-84837398D03*
X93558898Y-85937398D03*
D11*
X179089665Y-88216998D03*
X185589665Y-88216998D03*
X179089665Y-92716998D03*
X185589665Y-92716998D03*
D10*
X133843298Y-95098998D03*
X133843298Y-96198998D03*
X135673298Y-96198998D03*
X135673298Y-95098998D03*
X180021698Y-85937398D03*
X180021698Y-84837398D03*
X178191698Y-84837398D03*
X178191698Y-85937398D03*
X99959698Y-95098998D03*
X99959698Y-96198998D03*
X101789698Y-96198998D03*
X101789698Y-95098998D03*
X110475298Y-95098998D03*
X110475298Y-96198998D03*
X112305298Y-96198998D03*
X112305298Y-95098998D03*
D11*
X162156331Y-88216998D03*
X168656331Y-88216998D03*
X162156331Y-92716998D03*
X168656331Y-92716998D03*
D10*
X118706098Y-85937398D03*
X118706098Y-84837398D03*
X116876098Y-84837398D03*
X116876098Y-85937398D03*
X186473298Y-85937398D03*
X186473298Y-84837398D03*
X184643298Y-84837398D03*
X184643298Y-85937398D03*
X101789698Y-85937398D03*
X101789698Y-84837398D03*
X99959698Y-84837398D03*
X99959698Y-85937398D03*
X178191698Y-94997398D03*
X178191698Y-96097398D03*
X180021698Y-96097398D03*
X180021698Y-94997398D03*
X146188898Y-85937398D03*
X146188898Y-84837398D03*
X144358898Y-84837398D03*
X144358898Y-85937398D03*
X152589698Y-85937398D03*
X152589698Y-84837398D03*
X150759698Y-84837398D03*
X150759698Y-85937398D03*
D12*
X175105498Y-87561398D03*
D13*
X172565498Y-87561398D03*
X175105498Y-90101398D03*
X172565498Y-90101398D03*
X175105498Y-92641398D03*
X172565498Y-92641398D03*
D14*
X124355498Y-93521398D03*
X121605498Y-93521398D03*
X160055498Y-88471398D03*
X115955498Y-87421398D03*
X113405498Y-95121398D03*
X156355498Y-85921398D03*
X96355498Y-93721398D03*
X153655498Y-95121398D03*
X204305498Y-94371398D03*
X166726596Y-85171398D03*
X170853136Y-95198999D03*
X107855498Y-85921398D03*
X133155498Y-87321398D03*
X181055498Y-95021398D03*
X140455498Y-85971398D03*
X136905498Y-95121398D03*
X177055498Y-85571398D03*
X182655498Y-85121398D03*
X149755498Y-87271398D03*
X124855498Y-85971398D03*
X92670498Y-86428798D03*
X130505498Y-95071398D03*
X147305498Y-95021398D03*
X102805498Y-95071398D03*
X200705498Y-87171398D03*
X97555498Y-85121398D03*
X165505498Y-93621398D03*
X198005498Y-94971398D03*
X187905498Y-95071398D03*
X192355498Y-85921398D03*
X119805498Y-95121398D03*
X164256345Y-95198999D03*
X154548989Y-89022744D03*
X160894800Y-90805676D03*
X161796201Y-89904275D03*
X154855498Y-88071398D03*
X189855498Y-94171398D03*
X192755498Y-94171398D03*
D15*
X185770898Y-84884998D02*
X185770898Y-86436798D01*
X195810498Y-95699798D02*
X195810498Y-94294998D01*
X202687298Y-84935798D02*
X202687298Y-86690598D01*
X145061298Y-85660198D02*
X145061298Y-86465598D01*
X168155498Y-86621398D02*
X167805498Y-86971398D01*
X168428698Y-94438598D02*
X168311498Y-94321398D01*
X94213698Y-96198998D02*
X94422998Y-95989698D01*
X185298098Y-96097398D02*
X185345698Y-96049798D01*
X178662498Y-86871398D02*
X177055498Y-86871398D01*
X169506098Y-84837398D02*
X168851298Y-84837398D01*
X167726298Y-96240998D02*
X168381098Y-96240998D01*
X151887298Y-84884998D02*
X151887298Y-86621398D01*
X184643298Y-96097398D02*
X185298098Y-96097398D01*
X162402898Y-86639798D02*
X162684498Y-86921398D01*
X150810498Y-96198998D02*
X151465298Y-96198998D01*
X168803698Y-86621398D02*
X168155498Y-86621398D01*
X167805498Y-86971398D02*
X166705498Y-86971398D01*
X95185098Y-86936798D02*
X100365098Y-86936798D01*
X144555498Y-86971398D02*
X143205498Y-86971398D01*
X163105298Y-84837398D02*
X162450498Y-84837398D01*
X117629298Y-95801398D02*
X117629298Y-94396598D01*
X151205498Y-94221398D02*
X149755498Y-94221398D01*
X145884098Y-84837398D02*
X145061298Y-85660198D01*
X162684498Y-86921398D02*
X163655498Y-86921398D01*
X177055498Y-86871398D02*
X176055498Y-85871398D01*
X99959698Y-96198998D02*
X100614498Y-96198998D01*
X202214498Y-96097398D02*
X202262098Y-96049798D01*
X100662098Y-94396598D02*
X99130298Y-94396598D01*
X111130098Y-96198998D02*
X111356331Y-95972765D01*
X116926898Y-96198998D02*
X117231698Y-96198998D01*
X115905498Y-94371398D02*
X115805498Y-94471398D01*
X118455498Y-86921398D02*
X119705498Y-86921398D01*
X117629298Y-94396598D02*
X117604098Y-94371398D01*
X146188898Y-84837398D02*
X145884098Y-84837398D01*
X129221698Y-84837398D02*
X128566898Y-84837398D01*
X202262098Y-96049798D02*
X202262098Y-94294998D01*
X151887298Y-86621398D02*
X152187298Y-86921398D01*
X185345698Y-96049798D02*
X185345698Y-94294998D01*
X94422998Y-95989698D02*
X94422998Y-92716998D01*
X110475298Y-96198998D02*
X111130098Y-96198998D01*
X101789698Y-84837398D02*
X101484898Y-84837398D01*
X135673298Y-84837398D02*
X135018498Y-84837398D01*
X195528898Y-86921398D02*
X194405498Y-86921398D01*
X128094098Y-85310198D02*
X128094098Y-86639798D01*
X144612898Y-96198998D02*
X145055498Y-95756398D01*
X134970898Y-84884998D02*
X134970898Y-86436798D01*
X118051298Y-84837398D02*
X118003698Y-84884998D01*
X186473298Y-84837398D02*
X185818498Y-84837398D01*
X202262098Y-94294998D02*
X202138498Y-94171398D01*
X168935298Y-86771398D02*
X170505498Y-86771398D01*
X100614498Y-96198998D02*
X100662098Y-96151398D01*
X195412898Y-96097398D02*
X195810498Y-95699798D01*
X185322098Y-94271398D02*
X183455498Y-94271398D01*
X145055498Y-95756398D02*
X145055498Y-94441598D01*
X195686898Y-94171398D02*
X194055498Y-94171398D01*
X118003698Y-84884998D02*
X118003698Y-86469598D01*
X134520498Y-94371398D02*
X132655498Y-94371398D01*
X101087298Y-85234998D02*
X101087298Y-86438198D01*
X127391698Y-96198998D02*
X128046498Y-96198998D01*
X151934898Y-84837398D02*
X151887298Y-84884998D01*
X145055498Y-94441598D02*
X144885298Y-94271398D01*
X168428698Y-96193398D02*
X168428698Y-94438598D01*
X111177698Y-86449198D02*
X110605498Y-87021398D01*
X162450498Y-84837398D02*
X162402898Y-84884998D01*
X94346898Y-86098598D02*
X95185098Y-86936798D01*
X162402898Y-84884998D02*
X162402898Y-86639798D01*
X195810498Y-86639798D02*
X195528898Y-86921398D01*
X176055498Y-85871398D02*
X174705498Y-85871398D01*
X201605498Y-94171398D02*
X201305498Y-93871398D01*
X135018498Y-84837398D02*
X134970898Y-84884998D01*
X128566898Y-84837398D02*
X128094098Y-85310198D01*
X100863698Y-86438198D02*
X101087298Y-86438198D01*
X168311498Y-94321398D02*
X167141098Y-94321398D01*
X118003698Y-86469598D02*
X118455498Y-86921398D01*
X134545698Y-95801398D02*
X134545698Y-94396598D01*
X100662098Y-96151398D02*
X100662098Y-94396598D01*
X134545698Y-94396598D02*
X134520498Y-94371398D01*
X202687298Y-86690598D02*
X202918098Y-86921398D01*
X133843298Y-96198998D02*
X134148098Y-96198998D01*
X145061298Y-86465598D02*
X144555498Y-86971398D01*
X101484898Y-84837398D02*
X101087298Y-85234998D01*
X134148098Y-96198998D02*
X134545698Y-95801398D01*
X112305298Y-84837398D02*
X111650498Y-84837398D01*
X94346898Y-85224598D02*
X94346898Y-86098598D01*
X168381098Y-96240998D02*
X168428698Y-96193398D01*
X111356331Y-95972765D02*
X111356331Y-92716998D01*
X111650498Y-84837398D02*
X111177698Y-85310198D01*
X195810498Y-85310198D02*
X195810498Y-86639798D01*
X151512898Y-94528798D02*
X151205498Y-94221398D01*
X201559698Y-96097398D02*
X202214498Y-96097398D01*
X128094098Y-94396598D02*
X128068898Y-94371398D01*
X94734098Y-84837398D02*
X94346898Y-85224598D01*
X161275298Y-96198998D02*
X161930098Y-96198998D01*
X161977698Y-94396598D02*
X161952498Y-94371398D01*
X117604098Y-94371398D02*
X115905498Y-94371398D01*
X202138498Y-94171398D02*
X201605498Y-94171398D01*
X128046498Y-96198998D02*
X128094098Y-96151398D01*
X202734898Y-84888198D02*
X202687298Y-84935798D01*
X178894098Y-85660198D02*
X178894098Y-86639798D01*
X101087298Y-86438198D02*
X101331898Y-86682798D01*
X127762498Y-86971398D02*
X126655498Y-86971398D01*
X168851298Y-84837398D02*
X168803698Y-84884998D01*
X99130298Y-94396598D02*
X98955498Y-94571398D01*
X178894098Y-86639798D02*
X178662498Y-86871398D01*
X196938098Y-84837398D02*
X196283298Y-84837398D01*
X195810498Y-94294998D02*
X195686898Y-94171398D01*
X118706098Y-84837398D02*
X118051298Y-84837398D01*
X168803698Y-84884998D02*
X168803698Y-86621398D01*
X128094098Y-96151398D02*
X128094098Y-94396598D01*
X144885298Y-94271398D02*
X142805498Y-94271398D01*
X168803698Y-86639798D02*
X168935298Y-86771398D01*
X161977698Y-96151398D02*
X161977698Y-94396598D01*
X110605498Y-87021398D02*
X109605498Y-87021398D01*
X167141098Y-94321398D02*
X167041098Y-94421398D01*
X179716898Y-84837398D02*
X178894098Y-85660198D01*
X100365098Y-86936798D02*
X100863698Y-86438198D01*
X185818498Y-84837398D02*
X185770898Y-84884998D01*
X151512898Y-96151398D02*
X151512898Y-94528798D01*
X128094098Y-86639798D02*
X127762498Y-86971398D01*
X161952498Y-94371398D02*
X160205498Y-94371398D01*
X144308098Y-96198998D02*
X144612898Y-96198998D01*
X196283298Y-84837398D02*
X195810498Y-85310198D01*
X202918098Y-86921398D02*
X204105498Y-86921398D01*
X93558898Y-96198998D02*
X94213698Y-96198998D01*
X128068898Y-94371398D02*
X126255498Y-94371398D01*
X204105498Y-86921398D02*
X204255498Y-87071398D01*
X195108098Y-96097398D02*
X195412898Y-96097398D01*
X111177698Y-85310198D02*
X111177698Y-86449198D01*
X117231698Y-96198998D02*
X117629298Y-95801398D01*
X161930098Y-96198998D02*
X161977698Y-96151398D01*
X135505498Y-86971398D02*
X136705498Y-86971398D01*
X185770898Y-86436798D02*
X186305498Y-86971398D01*
X151465298Y-96198998D02*
X151512898Y-96151398D01*
X134970898Y-86436798D02*
X135505498Y-86971398D01*
X95388898Y-84837398D02*
X94734098Y-84837398D01*
X168803698Y-86621398D02*
X168803698Y-86639798D01*
X185345698Y-94294998D02*
X185322098Y-94271398D01*
X152187298Y-86921398D02*
X153455498Y-86921398D01*
X152589698Y-84837398D02*
X151934898Y-84837398D01*
X180021698Y-84837398D02*
X179716898Y-84837398D01*
X101331898Y-86682798D02*
X103363898Y-86682798D01*
X186305498Y-86971398D02*
X187055498Y-86971398D01*
X203389698Y-84888198D02*
X202734898Y-84888198D01*
X102777898Y-95098998D02*
X102805498Y-95071398D01*
X170795135Y-95140998D02*
X170853136Y-95198999D01*
X195108098Y-85937398D02*
X192371498Y-85937398D01*
X133843298Y-85937398D02*
X133843298Y-86633598D01*
X101789698Y-95098998D02*
X102777898Y-95098998D01*
X152640498Y-95098998D02*
X153633098Y-95098998D01*
X150759698Y-85937398D02*
X150759698Y-86267198D01*
X130477898Y-95098998D02*
X130505498Y-95071398D01*
X165505498Y-93621398D02*
X165505498Y-93949846D01*
X127391698Y-85937398D02*
X124889498Y-85937398D01*
X183471498Y-85937398D02*
X182655498Y-85121398D01*
X129221698Y-95098998D02*
X130477898Y-95098998D01*
X150759698Y-86267198D02*
X149755498Y-87271398D01*
X99959698Y-85937398D02*
X98371498Y-85937398D01*
X107871498Y-85937398D02*
X107855498Y-85921398D01*
X153633098Y-95098998D02*
X153655498Y-95121398D01*
X178191698Y-85937398D02*
X177421498Y-85937398D01*
X196938098Y-94997398D02*
X197979498Y-94997398D01*
X136883098Y-95098998D02*
X136905498Y-95121398D01*
X140489498Y-85937398D02*
X140455498Y-85971398D01*
X165505498Y-93949846D02*
X164256345Y-95198999D01*
X186473298Y-94997398D02*
X187831498Y-94997398D01*
X167676098Y-85937398D02*
X167492596Y-85937398D01*
X177421498Y-85937398D02*
X177055498Y-85571398D01*
X169556298Y-95140998D02*
X170795135Y-95140998D01*
X116876098Y-85937398D02*
X116876098Y-86500798D01*
X95388898Y-95098998D02*
X95388898Y-94687998D01*
X146138098Y-95098998D02*
X147227898Y-95098998D01*
X156371498Y-85937398D02*
X156355498Y-85921398D01*
X164156344Y-95098998D02*
X164256345Y-95198999D01*
X201559698Y-85988198D02*
X201559698Y-86317198D01*
X187831498Y-94997398D02*
X187905498Y-95071398D01*
X124889498Y-85937398D02*
X124855498Y-85971398D01*
X161275298Y-85937398D02*
X156371498Y-85937398D01*
X110475298Y-85937398D02*
X107871498Y-85937398D01*
X93558898Y-85937398D02*
X93161898Y-85937398D01*
X197979498Y-94997398D02*
X198005498Y-94971398D01*
X163105298Y-95098998D02*
X164156344Y-95098998D01*
X181031498Y-94997398D02*
X181055498Y-95021398D01*
X135673298Y-95098998D02*
X136883098Y-95098998D01*
X144358898Y-85937398D02*
X140489498Y-85937398D01*
X192371498Y-85937398D02*
X192355498Y-85921398D01*
X95388898Y-94687998D02*
X96355498Y-93721398D01*
X118756898Y-95098998D02*
X119783098Y-95098998D01*
X116876098Y-86500798D02*
X115955498Y-87421398D01*
X184643298Y-85937398D02*
X183471498Y-85937398D01*
X147227898Y-95098998D02*
X147305498Y-95021398D01*
X201559698Y-86317198D02*
X200705498Y-87171398D01*
X112305298Y-95098998D02*
X113383098Y-95098998D01*
X203679498Y-94997398D02*
X204305498Y-94371398D01*
X167492596Y-85937398D02*
X166726596Y-85171398D01*
X119783098Y-95098998D02*
X119805498Y-95121398D01*
X98371498Y-85937398D02*
X97555498Y-85121398D01*
X203389698Y-94997398D02*
X203679498Y-94997398D01*
X133843298Y-86633598D02*
X133155498Y-87321398D01*
X93161898Y-85937398D02*
X92670498Y-86428798D01*
X113383098Y-95098998D02*
X113405498Y-95121398D01*
X180021698Y-94997398D02*
X181031498Y-94997398D01*
D16*
X156331921Y-90805676D02*
X154548989Y-89022744D01*
X160894800Y-90805676D02*
X156331921Y-90805676D01*
X161796201Y-89904275D02*
X161649283Y-90051193D01*
X161649283Y-90051193D02*
X156835293Y-90051193D01*
X156835293Y-90051193D02*
X154855498Y-88071398D01*
D17*
X145222998Y-88216998D02*
X151722998Y-88216998D01*
X112356331Y-89216998D02*
X116856331Y-89216998D01*
X116856331Y-89216998D02*
X117856331Y-88216998D01*
X111356331Y-88216998D02*
X112356331Y-89216998D01*
X128289700Y-88217000D02*
X129289700Y-89217000D01*
X133789700Y-89217000D02*
X134789700Y-88217000D01*
X129289700Y-89217000D02*
X133789700Y-89217000D01*
X94422998Y-88216998D02*
X100922998Y-88216998D01*
D15*
X167421498Y-95140998D02*
X167726298Y-95140998D01*
X163105298Y-96198998D02*
X166363498Y-96198998D01*
X166363498Y-96198998D02*
X167421498Y-95140998D01*
D16*
X192755498Y-94171398D02*
X189855498Y-94171398D01*
D15*
X168656331Y-88216998D02*
X162156331Y-88216998D01*
X170874485Y-96240998D02*
X172565498Y-94549985D01*
X172565498Y-94549985D02*
X172565498Y-92641398D01*
X169556298Y-96240998D02*
X170874485Y-96240998D01*
X152640498Y-96198998D02*
X159870498Y-96198998D01*
X159870498Y-96198998D02*
X160970498Y-95098998D01*
X160970498Y-95098998D02*
X161275298Y-95098998D01*
X149405698Y-96198998D02*
X150505698Y-95098998D01*
X146138098Y-96198998D02*
X149405698Y-96198998D01*
X150505698Y-95098998D02*
X150810498Y-95098998D01*
X144003298Y-95098998D02*
X144308098Y-95098998D01*
X142903298Y-96198998D02*
X144003298Y-95098998D01*
X135673298Y-96198998D02*
X142903298Y-96198998D01*
X132438498Y-96198998D02*
X133538498Y-95098998D01*
X129221698Y-96198998D02*
X132438498Y-96198998D01*
X133538498Y-95098998D02*
X133843298Y-95098998D01*
X125986898Y-96198998D02*
X127086898Y-95098998D01*
X118756898Y-96198998D02*
X125986898Y-96198998D01*
X127086898Y-95098998D02*
X127391698Y-95098998D01*
X112305298Y-96198998D02*
X115522098Y-96198998D01*
X115522098Y-96198998D02*
X116622098Y-95098998D01*
X116622098Y-95098998D02*
X116926898Y-95098998D01*
X110170498Y-95098998D02*
X110475298Y-95098998D01*
X109070498Y-96198998D02*
X110170498Y-95098998D01*
X101789698Y-96198998D02*
X109070498Y-96198998D01*
X95388898Y-96198998D02*
X98554898Y-96198998D01*
X99654898Y-95098998D02*
X99959698Y-95098998D01*
X98554898Y-96198998D02*
X99654898Y-95098998D01*
X92644498Y-85234998D02*
X92645098Y-85234998D01*
X92644498Y-85234998D02*
X91907898Y-85971598D01*
X92645098Y-85234998D02*
X93042698Y-84837398D01*
X91907898Y-85971598D02*
X91907898Y-93447998D01*
X91907898Y-93447998D02*
X93558898Y-95098998D01*
X93042698Y-84837398D02*
X93558898Y-84837398D01*
X99491798Y-84369498D02*
X97244050Y-84369498D01*
X99959698Y-84837398D02*
X99491798Y-84369498D01*
X95676150Y-85937398D02*
X95388898Y-85937398D01*
X97244050Y-84369498D02*
X95676150Y-85937398D01*
X110475298Y-84837398D02*
X103194498Y-84837398D01*
X103194498Y-84837398D02*
X102094498Y-85937398D01*
X102094498Y-85937398D02*
X101789698Y-85937398D01*
X116876098Y-84837398D02*
X113710098Y-84837398D01*
X112610098Y-85937398D02*
X112305298Y-85937398D01*
X113710098Y-84837398D02*
X112610098Y-85937398D01*
X120110898Y-84837398D02*
X119010898Y-85937398D01*
X119010898Y-85937398D02*
X118706098Y-85937398D01*
X127391698Y-84837398D02*
X120110898Y-84837398D01*
X129876498Y-85937398D02*
X129221698Y-85937398D01*
X133843298Y-84837398D02*
X133325398Y-84319498D01*
X133325398Y-84319498D02*
X131494398Y-84319498D01*
X131494398Y-84319498D02*
X129876498Y-85937398D01*
X137078098Y-84837398D02*
X135978098Y-85937398D01*
X135978098Y-85937398D02*
X135673298Y-85937398D01*
X144358898Y-84837398D02*
X137078098Y-84837398D01*
X147593698Y-84837398D02*
X146493698Y-85937398D01*
X146493698Y-85937398D02*
X146188898Y-85937398D01*
X150759698Y-84837398D02*
X147593698Y-84837398D01*
X152894498Y-85937398D02*
X152589698Y-85937398D01*
X161275298Y-84837398D02*
X153994498Y-84837398D01*
X153994498Y-84837398D02*
X152894498Y-85937398D01*
X167676098Y-84837398D02*
X167258198Y-84419498D01*
X167258198Y-84419498D02*
X165277998Y-84419498D01*
X165277998Y-84419498D02*
X163760098Y-85937398D01*
X163760098Y-85937398D02*
X163105298Y-85937398D01*
X171278798Y-84819498D02*
X170160898Y-85937398D01*
X170160898Y-85937398D02*
X169506098Y-85937398D01*
X178173798Y-84819498D02*
X171278798Y-84819498D01*
X178191698Y-84837398D02*
X178173798Y-84819498D01*
X184175398Y-84369498D02*
X182344050Y-84369498D01*
X180776150Y-85937398D02*
X180021698Y-85937398D01*
X184643298Y-84837398D02*
X184175398Y-84369498D01*
X182344050Y-84369498D02*
X180776150Y-85937398D01*
X187878098Y-84837398D02*
X186778098Y-85937398D01*
X195108098Y-84837398D02*
X187878098Y-84837398D01*
X186778098Y-85937398D02*
X186473298Y-85937398D01*
X198292098Y-84888198D02*
X197242898Y-85937398D01*
X201559698Y-84888198D02*
X198292098Y-84888198D01*
X197242898Y-85937398D02*
X196938098Y-85937398D01*
X205103098Y-95419357D02*
X205103098Y-86418998D01*
X204672298Y-85988198D02*
X203389698Y-85988198D01*
X204425057Y-96097398D02*
X205103098Y-95419357D01*
X203389698Y-96097398D02*
X204425057Y-96097398D01*
X205103098Y-86418998D02*
X204672298Y-85988198D01*
X196938098Y-96097398D02*
X200154898Y-96097398D01*
X201254898Y-94997398D02*
X201559698Y-94997398D01*
X200154898Y-96097398D02*
X201254898Y-94997398D01*
X193703298Y-96097398D02*
X194803298Y-94997398D01*
X194803298Y-94997398D02*
X195108098Y-94997398D01*
X186473298Y-96097398D02*
X193703298Y-96097398D01*
X183238498Y-96097398D02*
X184338498Y-94997398D01*
X184338498Y-94997398D02*
X184643298Y-94997398D01*
X180021698Y-96097398D02*
X183238498Y-96097398D01*
G04 #@! TA.AperFunction,Conductor*
G36*
X191432415Y-85518300D02*
G01*
X191478908Y-85571956D01*
X191489012Y-85642230D01*
X191484127Y-85663235D01*
X191461955Y-85731470D01*
X191441994Y-85921398D01*
X191461955Y-86111325D01*
X191478202Y-86161326D01*
X191520971Y-86292954D01*
X191532841Y-86313514D01*
X191616456Y-86458339D01*
X191616463Y-86458349D01*
X191744242Y-86600262D01*
X191746911Y-86602201D01*
X191898746Y-86712516D01*
X192073210Y-86790192D01*
X192260011Y-86829898D01*
X192450985Y-86829898D01*
X192637786Y-86790192D01*
X192812250Y-86712516D01*
X192936336Y-86622362D01*
X193003204Y-86598503D01*
X193010397Y-86598298D01*
X194292569Y-86598298D01*
X194360690Y-86618300D01*
X194393437Y-86648789D01*
X194394540Y-86650262D01*
X194394837Y-86650659D01*
X194511890Y-86738285D01*
X194511892Y-86738286D01*
X194511894Y-86738287D01*
X194555226Y-86754449D01*
X194648893Y-86789386D01*
X194648901Y-86789388D01*
X194709448Y-86795897D01*
X194709453Y-86795897D01*
X194709460Y-86795898D01*
X194709466Y-86795898D01*
X195022613Y-86795898D01*
X195090734Y-86815900D01*
X195137227Y-86869556D01*
X195147331Y-86939830D01*
X195117837Y-87004410D01*
X195104443Y-87017709D01*
X194953028Y-87147028D01*
X194798824Y-87327578D01*
X194798823Y-87327580D01*
X194674757Y-87530036D01*
X194583892Y-87749405D01*
X194533730Y-87958349D01*
X194528463Y-87980287D01*
X194509833Y-88216998D01*
X194528463Y-88453709D01*
X194529981Y-88460030D01*
X194583892Y-88684590D01*
X194653673Y-88853056D01*
X194674758Y-88903961D01*
X194793967Y-89098492D01*
X194798823Y-89106415D01*
X194798824Y-89106417D01*
X194953028Y-89286967D01*
X195133578Y-89441171D01*
X195133582Y-89441174D01*
X195336035Y-89565238D01*
X195555404Y-89656103D01*
X195786287Y-89711533D01*
X196022998Y-89730163D01*
X196259709Y-89711533D01*
X196490592Y-89656103D01*
X196709961Y-89565238D01*
X196912414Y-89441174D01*
X197092967Y-89286967D01*
X197247174Y-89106414D01*
X197371238Y-88903961D01*
X197462103Y-88684592D01*
X197517533Y-88453709D01*
X197536163Y-88216998D01*
X197517533Y-87980287D01*
X197462103Y-87749404D01*
X197371238Y-87530035D01*
X197247174Y-87327582D01*
X197247171Y-87327578D01*
X197092967Y-87147028D01*
X196941553Y-87017709D01*
X196902743Y-86958259D01*
X196902236Y-86887264D01*
X196940193Y-86827265D01*
X197004561Y-86797312D01*
X197023383Y-86795898D01*
X197336730Y-86795898D01*
X197336736Y-86795898D01*
X197336743Y-86795897D01*
X197336747Y-86795897D01*
X197397294Y-86789388D01*
X197397297Y-86789387D01*
X197397299Y-86789387D01*
X197398104Y-86789087D01*
X197435609Y-86775098D01*
X197534302Y-86738287D01*
X197535903Y-86737089D01*
X197651359Y-86650659D01*
X197738985Y-86533605D01*
X197738985Y-86533604D01*
X197738987Y-86533602D01*
X197790087Y-86396599D01*
X197791070Y-86387462D01*
X197793977Y-86360417D01*
X197821145Y-86294825D01*
X197830142Y-86284807D01*
X198528949Y-85586000D01*
X198591259Y-85551977D01*
X198618042Y-85549098D01*
X200575198Y-85549098D01*
X200643319Y-85569100D01*
X200689812Y-85622756D01*
X200701198Y-85675098D01*
X200701198Y-86141482D01*
X200681196Y-86209603D01*
X200627540Y-86256096D01*
X200601395Y-86264729D01*
X200423209Y-86302604D01*
X200248745Y-86380280D01*
X200094242Y-86492533D01*
X199966463Y-86634446D01*
X199966456Y-86634456D01*
X199870974Y-86799836D01*
X199870971Y-86799842D01*
X199862061Y-86827265D01*
X199811955Y-86981470D01*
X199791994Y-87171398D01*
X199811955Y-87361325D01*
X199842024Y-87453868D01*
X199870971Y-87542954D01*
X199870974Y-87542959D01*
X199966456Y-87708339D01*
X199966463Y-87708349D01*
X200094242Y-87850262D01*
X200094245Y-87850264D01*
X200248746Y-87962516D01*
X200423210Y-88040192D01*
X200610011Y-88079898D01*
X200800990Y-88079898D01*
X200859312Y-88067501D01*
X200930102Y-88072902D01*
X200986735Y-88115719D01*
X201011229Y-88182356D01*
X201011121Y-88200631D01*
X201009833Y-88216998D01*
X201028463Y-88453709D01*
X201029981Y-88460030D01*
X201083892Y-88684590D01*
X201153673Y-88853056D01*
X201174758Y-88903961D01*
X201293967Y-89098492D01*
X201298823Y-89106415D01*
X201298824Y-89106417D01*
X201453028Y-89286967D01*
X201633578Y-89441171D01*
X201633582Y-89441174D01*
X201836035Y-89565238D01*
X202055404Y-89656103D01*
X202286287Y-89711533D01*
X202522998Y-89730163D01*
X202759709Y-89711533D01*
X202990592Y-89656103D01*
X203209961Y-89565238D01*
X203412414Y-89441174D01*
X203592967Y-89286967D01*
X203747174Y-89106414D01*
X203871238Y-88903961D01*
X203962103Y-88684592D01*
X204017533Y-88453709D01*
X204036163Y-88216998D01*
X204017533Y-87980287D01*
X203962103Y-87749404D01*
X203871238Y-87530035D01*
X203747174Y-87327582D01*
X203747171Y-87327578D01*
X203592967Y-87147028D01*
X203501032Y-87068509D01*
X203462223Y-87009059D01*
X203461715Y-86938064D01*
X203499671Y-86878065D01*
X203564040Y-86848112D01*
X203582862Y-86846698D01*
X203788330Y-86846698D01*
X203788336Y-86846698D01*
X203788343Y-86846697D01*
X203788347Y-86846697D01*
X203848894Y-86840188D01*
X203848897Y-86840187D01*
X203848899Y-86840187D01*
X203985902Y-86789087D01*
X203992089Y-86784456D01*
X204032173Y-86754449D01*
X204102959Y-86701459D01*
X204104358Y-86699589D01*
X204106231Y-86698187D01*
X204109332Y-86695087D01*
X204109777Y-86695532D01*
X204161193Y-86657043D01*
X204205227Y-86649098D01*
X204316198Y-86649098D01*
X204384319Y-86669100D01*
X204430812Y-86722756D01*
X204442198Y-86775098D01*
X204442198Y-93336898D01*
X204422196Y-93405019D01*
X204368540Y-93451512D01*
X204316198Y-93462898D01*
X204210009Y-93462898D01*
X204045420Y-93497882D01*
X203974630Y-93492480D01*
X203917997Y-93449663D01*
X203893504Y-93383025D01*
X203902815Y-93326417D01*
X203961626Y-93184434D01*
X204017037Y-92953630D01*
X204035660Y-92716998D01*
X204017037Y-92480365D01*
X203961626Y-92249560D01*
X203870789Y-92030259D01*
X203756100Y-91843106D01*
X203756099Y-91843105D01*
X203047980Y-92551224D01*
X203035516Y-92504706D01*
X202963108Y-92379290D01*
X202860706Y-92276888D01*
X202735290Y-92204480D01*
X202688769Y-92192014D01*
X203396888Y-91483895D01*
X203396888Y-91483894D01*
X203209736Y-91369206D01*
X202990435Y-91278369D01*
X202759630Y-91222958D01*
X202522998Y-91204335D01*
X202286365Y-91222958D01*
X202055560Y-91278369D01*
X201836264Y-91369204D01*
X201649106Y-91483895D01*
X201649106Y-91483896D01*
X202357225Y-92192015D01*
X202310706Y-92204480D01*
X202185290Y-92276888D01*
X202082888Y-92379290D01*
X202010480Y-92504706D01*
X201998015Y-92551225D01*
X201289896Y-91843106D01*
X201289895Y-91843106D01*
X201175204Y-92030264D01*
X201084369Y-92249560D01*
X201028958Y-92480365D01*
X201010335Y-92716998D01*
X201028958Y-92953630D01*
X201084369Y-93184435D01*
X201175206Y-93403736D01*
X201289894Y-93590888D01*
X201289895Y-93590888D01*
X201998014Y-92882769D01*
X202010480Y-92929290D01*
X202082888Y-93054706D01*
X202185290Y-93157108D01*
X202310706Y-93229516D01*
X202357225Y-93241981D01*
X201649106Y-93950099D01*
X201654786Y-93998088D01*
X201642929Y-94068088D01*
X201595110Y-94120565D01*
X201529659Y-94138898D01*
X201161048Y-94138898D01*
X201100501Y-94145407D01*
X201100493Y-94145409D01*
X200963495Y-94196508D01*
X200963490Y-94196510D01*
X200846436Y-94284136D01*
X200758810Y-94401190D01*
X200758808Y-94401195D01*
X200707709Y-94538193D01*
X200707708Y-94538200D01*
X200703818Y-94574381D01*
X200676648Y-94639973D01*
X200667636Y-94650006D01*
X199918047Y-95399594D01*
X199855737Y-95433618D01*
X199828954Y-95436498D01*
X198983055Y-95436498D01*
X198914934Y-95416496D01*
X198868441Y-95362840D01*
X198858337Y-95292566D01*
X198863222Y-95271561D01*
X198882794Y-95211325D01*
X198899040Y-95161326D01*
X198919002Y-94971398D01*
X198899040Y-94781470D01*
X198840025Y-94599842D01*
X198744538Y-94434454D01*
X198744536Y-94434452D01*
X198744532Y-94434446D01*
X198616753Y-94292533D01*
X198462250Y-94180280D01*
X198287786Y-94102604D01*
X198100985Y-94062898D01*
X197910011Y-94062898D01*
X197723209Y-94102604D01*
X197655800Y-94132616D01*
X197569364Y-94171100D01*
X197498999Y-94180534D01*
X197474087Y-94174049D01*
X197416590Y-94152604D01*
X197397297Y-94145408D01*
X197397293Y-94145407D01*
X197336747Y-94138898D01*
X197336736Y-94138898D01*
X197016336Y-94138898D01*
X196948215Y-94118896D01*
X196901722Y-94065240D01*
X196891209Y-93998088D01*
X196896888Y-93950099D01*
X196188770Y-93241980D01*
X196235290Y-93229516D01*
X196360706Y-93157108D01*
X196463108Y-93054706D01*
X196535516Y-92929290D01*
X196547981Y-92882770D01*
X197256100Y-93590889D01*
X197256100Y-93590888D01*
X197370789Y-93403736D01*
X197461626Y-93184435D01*
X197517037Y-92953630D01*
X197535660Y-92716998D01*
X197517037Y-92480365D01*
X197461626Y-92249560D01*
X197370789Y-92030259D01*
X197256100Y-91843106D01*
X197256099Y-91843105D01*
X196547980Y-92551224D01*
X196535516Y-92504706D01*
X196463108Y-92379290D01*
X196360706Y-92276888D01*
X196235290Y-92204480D01*
X196188769Y-92192014D01*
X196896888Y-91483895D01*
X196896888Y-91483894D01*
X196709736Y-91369206D01*
X196490435Y-91278369D01*
X196259630Y-91222958D01*
X196022998Y-91204335D01*
X195786365Y-91222958D01*
X195555560Y-91278369D01*
X195336264Y-91369204D01*
X195149106Y-91483895D01*
X195149106Y-91483896D01*
X195857225Y-92192015D01*
X195810706Y-92204480D01*
X195685290Y-92276888D01*
X195582888Y-92379290D01*
X195510480Y-92504706D01*
X195498015Y-92551225D01*
X194789896Y-91843106D01*
X194789895Y-91843106D01*
X194675204Y-92030264D01*
X194584369Y-92249560D01*
X194528958Y-92480365D01*
X194510335Y-92716998D01*
X194528958Y-92953630D01*
X194584369Y-93184435D01*
X194675206Y-93403736D01*
X194789894Y-93590888D01*
X194789895Y-93590888D01*
X195498014Y-92882769D01*
X195510480Y-92929290D01*
X195582888Y-93054706D01*
X195685290Y-93157108D01*
X195810706Y-93229516D01*
X195857224Y-93241980D01*
X195149106Y-93950098D01*
X195154786Y-93998088D01*
X195142929Y-94068088D01*
X195095110Y-94120565D01*
X195029659Y-94138898D01*
X194709448Y-94138898D01*
X194648901Y-94145407D01*
X194648893Y-94145409D01*
X194511895Y-94196508D01*
X194511890Y-94196510D01*
X194394836Y-94284136D01*
X194307210Y-94401190D01*
X194307208Y-94401195D01*
X194256109Y-94538193D01*
X194256108Y-94538200D01*
X194252218Y-94574381D01*
X194225048Y-94639973D01*
X194216036Y-94650006D01*
X193466447Y-95399594D01*
X193404137Y-95433618D01*
X193377354Y-95436498D01*
X188915548Y-95436498D01*
X188847427Y-95416496D01*
X188800934Y-95362840D01*
X188790830Y-95292566D01*
X188795714Y-95271564D01*
X188799040Y-95261325D01*
X188804295Y-95211325D01*
X188819002Y-95071398D01*
X188799040Y-94881470D01*
X188740025Y-94699842D01*
X188644538Y-94534454D01*
X188644536Y-94534452D01*
X188644532Y-94534446D01*
X188516753Y-94392533D01*
X188362250Y-94280280D01*
X188187786Y-94202604D01*
X188040974Y-94171398D01*
X188941994Y-94171398D01*
X188961955Y-94361325D01*
X188987427Y-94439718D01*
X189020971Y-94542954D01*
X189020974Y-94542959D01*
X189116456Y-94708339D01*
X189116463Y-94708349D01*
X189244242Y-94850262D01*
X189244245Y-94850264D01*
X189398746Y-94962516D01*
X189573210Y-95040192D01*
X189760011Y-95079898D01*
X189950985Y-95079898D01*
X190137786Y-95040192D01*
X190312250Y-94962516D01*
X190466751Y-94850264D01*
X190514000Y-94797787D01*
X190574446Y-94760548D01*
X190607637Y-94756098D01*
X192003359Y-94756098D01*
X192071480Y-94776100D01*
X192096994Y-94797786D01*
X192144245Y-94850264D01*
X192298746Y-94962516D01*
X192473210Y-95040192D01*
X192660011Y-95079898D01*
X192850985Y-95079898D01*
X193037786Y-95040192D01*
X193212250Y-94962516D01*
X193366751Y-94850264D01*
X193383673Y-94831470D01*
X193494532Y-94708349D01*
X193494533Y-94708347D01*
X193494538Y-94708342D01*
X193590025Y-94542954D01*
X193649040Y-94361326D01*
X193669002Y-94171398D01*
X193649040Y-93981470D01*
X193590025Y-93799842D01*
X193494538Y-93634454D01*
X193494536Y-93634452D01*
X193494532Y-93634446D01*
X193366753Y-93492533D01*
X193212250Y-93380280D01*
X193037786Y-93302604D01*
X192850985Y-93262898D01*
X192660011Y-93262898D01*
X192473209Y-93302604D01*
X192298745Y-93380280D01*
X192144245Y-93492531D01*
X192096996Y-93545008D01*
X192036550Y-93582248D01*
X192003359Y-93586698D01*
X190607637Y-93586698D01*
X190539516Y-93566696D01*
X190514000Y-93545008D01*
X190501810Y-93531470D01*
X190466751Y-93492532D01*
X190466679Y-93492480D01*
X190312250Y-93380280D01*
X190137786Y-93302604D01*
X189950985Y-93262898D01*
X189760011Y-93262898D01*
X189573209Y-93302604D01*
X189398745Y-93380280D01*
X189244242Y-93492533D01*
X189116463Y-93634446D01*
X189116456Y-93634456D01*
X189030933Y-93782587D01*
X189020971Y-93799842D01*
X189007050Y-93842686D01*
X188961955Y-93981470D01*
X188941994Y-94171398D01*
X188040974Y-94171398D01*
X188000985Y-94162898D01*
X187810011Y-94162898D01*
X187623209Y-94202604D01*
X187448745Y-94280280D01*
X187404490Y-94312434D01*
X187337622Y-94336293D01*
X187330429Y-94336498D01*
X187288827Y-94336498D01*
X187220706Y-94316496D01*
X187187958Y-94286006D01*
X187186558Y-94284136D01*
X187069505Y-94196510D01*
X187069500Y-94196508D01*
X186932502Y-94145409D01*
X186932494Y-94145407D01*
X186871947Y-94138898D01*
X186871936Y-94138898D01*
X186583003Y-94138898D01*
X186514882Y-94118896D01*
X186468389Y-94065240D01*
X186457876Y-93998088D01*
X186463555Y-93950099D01*
X185755437Y-93241980D01*
X185801957Y-93229516D01*
X185927373Y-93157108D01*
X186029775Y-93054706D01*
X186102183Y-92929290D01*
X186114648Y-92882770D01*
X186822767Y-93590889D01*
X186822767Y-93590888D01*
X186937456Y-93403736D01*
X187028293Y-93184435D01*
X187083704Y-92953630D01*
X187102327Y-92716998D01*
X187083704Y-92480365D01*
X187028293Y-92249560D01*
X186937456Y-92030259D01*
X186822767Y-91843106D01*
X186822766Y-91843105D01*
X186114647Y-92551224D01*
X186102183Y-92504706D01*
X186029775Y-92379290D01*
X185927373Y-92276888D01*
X185801957Y-92204480D01*
X185755436Y-92192014D01*
X186463555Y-91483895D01*
X186463555Y-91483894D01*
X186276403Y-91369206D01*
X186057102Y-91278369D01*
X185826297Y-91222958D01*
X185589665Y-91204335D01*
X185353032Y-91222958D01*
X185122227Y-91278369D01*
X184902931Y-91369204D01*
X184715773Y-91483895D01*
X184715773Y-91483896D01*
X185423892Y-92192015D01*
X185377373Y-92204480D01*
X185251957Y-92276888D01*
X185149555Y-92379290D01*
X185077147Y-92504706D01*
X185064682Y-92551225D01*
X184356563Y-91843106D01*
X184356562Y-91843106D01*
X184241871Y-92030264D01*
X184151036Y-92249560D01*
X184095625Y-92480365D01*
X184077002Y-92716998D01*
X184095625Y-92953630D01*
X184151036Y-93184435D01*
X184241873Y-93403736D01*
X184356561Y-93590888D01*
X184356562Y-93590888D01*
X185064681Y-92882769D01*
X185077147Y-92929290D01*
X185149555Y-93054706D01*
X185251957Y-93157108D01*
X185377373Y-93229516D01*
X185423891Y-93241980D01*
X184715773Y-93950098D01*
X184721453Y-93998088D01*
X184709596Y-94068088D01*
X184661777Y-94120565D01*
X184596326Y-94138898D01*
X184244648Y-94138898D01*
X184184101Y-94145407D01*
X184184093Y-94145409D01*
X184047095Y-94196508D01*
X184047090Y-94196510D01*
X183930036Y-94284136D01*
X183842410Y-94401190D01*
X183842408Y-94401195D01*
X183791309Y-94538193D01*
X183791308Y-94538200D01*
X183787418Y-94574381D01*
X183760248Y-94639973D01*
X183751236Y-94650006D01*
X183001647Y-95399594D01*
X182939337Y-95433618D01*
X182912554Y-95436498D01*
X182049301Y-95436498D01*
X181981180Y-95416496D01*
X181934687Y-95362840D01*
X181924583Y-95292566D01*
X181929468Y-95271561D01*
X181949040Y-95211325D01*
X181969002Y-95021398D01*
X181949040Y-94831470D01*
X181890025Y-94649842D01*
X181794538Y-94484454D01*
X181794536Y-94484452D01*
X181794532Y-94484446D01*
X181666753Y-94342533D01*
X181512250Y-94230280D01*
X181337786Y-94152604D01*
X181150985Y-94112898D01*
X180960011Y-94112898D01*
X180773207Y-94152604D01*
X180695789Y-94187073D01*
X180625422Y-94196507D01*
X180600508Y-94190021D01*
X180480902Y-94145409D01*
X180480894Y-94145407D01*
X180420347Y-94138898D01*
X180420336Y-94138898D01*
X180083003Y-94138898D01*
X180014882Y-94118896D01*
X179968389Y-94065240D01*
X179957876Y-93998088D01*
X179963555Y-93950099D01*
X179255437Y-93241980D01*
X179301957Y-93229516D01*
X179427373Y-93157108D01*
X179529775Y-93054706D01*
X179602183Y-92929290D01*
X179614648Y-92882770D01*
X180322767Y-93590889D01*
X180322767Y-93590888D01*
X180437456Y-93403736D01*
X180528293Y-93184435D01*
X180583704Y-92953630D01*
X180602327Y-92716998D01*
X180583704Y-92480365D01*
X180528293Y-92249560D01*
X180437456Y-92030259D01*
X180322767Y-91843106D01*
X180322766Y-91843105D01*
X179614647Y-92551224D01*
X179602183Y-92504706D01*
X179529775Y-92379290D01*
X179427373Y-92276888D01*
X179301957Y-92204480D01*
X179255436Y-92192014D01*
X179963555Y-91483895D01*
X179963555Y-91483894D01*
X179776403Y-91369206D01*
X179557102Y-91278369D01*
X179326297Y-91222958D01*
X179089665Y-91204335D01*
X178853032Y-91222958D01*
X178622227Y-91278369D01*
X178402931Y-91369204D01*
X178215773Y-91483895D01*
X178215773Y-91483896D01*
X178923892Y-92192015D01*
X178877373Y-92204480D01*
X178751957Y-92276888D01*
X178649555Y-92379290D01*
X178577147Y-92504706D01*
X178564682Y-92551225D01*
X177856563Y-91843106D01*
X177856562Y-91843106D01*
X177741871Y-92030264D01*
X177651036Y-92249560D01*
X177595625Y-92480365D01*
X177577002Y-92716998D01*
X177595625Y-92953630D01*
X177651036Y-93184435D01*
X177741873Y-93403736D01*
X177856561Y-93590888D01*
X177856562Y-93590888D01*
X178564681Y-92882769D01*
X178577147Y-92929290D01*
X178649555Y-93054706D01*
X178751957Y-93157108D01*
X178877373Y-93229516D01*
X178923891Y-93241980D01*
X178215773Y-93950098D01*
X178221453Y-93998088D01*
X178209596Y-94068088D01*
X178161777Y-94120565D01*
X178096326Y-94138898D01*
X177793048Y-94138898D01*
X177732501Y-94145407D01*
X177732493Y-94145409D01*
X177595495Y-94196508D01*
X177595490Y-94196510D01*
X177478436Y-94284136D01*
X177390810Y-94401190D01*
X177390808Y-94401195D01*
X177339709Y-94538193D01*
X177339707Y-94538201D01*
X177333198Y-94598748D01*
X177333198Y-95396047D01*
X177339707Y-95456593D01*
X177339708Y-95456597D01*
X177357419Y-95504081D01*
X177362483Y-95574897D01*
X177357419Y-95592144D01*
X177340203Y-95638302D01*
X177333698Y-95698800D01*
X177333698Y-95843398D01*
X177693707Y-95843398D01*
X177724501Y-95848954D01*
X177724828Y-95847575D01*
X177732497Y-95849387D01*
X177793048Y-95855897D01*
X177793053Y-95855897D01*
X177793060Y-95855898D01*
X177793066Y-95855898D01*
X178319698Y-95855898D01*
X178387819Y-95875900D01*
X178434312Y-95929556D01*
X178445698Y-95981898D01*
X178445698Y-96225398D01*
X178425696Y-96293519D01*
X178372040Y-96340012D01*
X178319698Y-96351398D01*
X177333698Y-96351398D01*
X177333698Y-96495995D01*
X177340203Y-96556491D01*
X177391253Y-96693362D01*
X177391253Y-96693363D01*
X177448166Y-96769389D01*
X177472977Y-96835909D01*
X177457886Y-96905283D01*
X177407683Y-96955486D01*
X177347298Y-96970898D01*
X171383429Y-96970898D01*
X171315308Y-96950896D01*
X171268815Y-96897240D01*
X171258711Y-96826966D01*
X171288205Y-96762386D01*
X171294334Y-96755803D01*
X172174275Y-95875862D01*
X173078853Y-94971284D01*
X173151180Y-94863039D01*
X173201001Y-94742762D01*
X173226399Y-94615078D01*
X173226399Y-94484891D01*
X173226399Y-94479699D01*
X173226398Y-94479673D01*
X173226398Y-93903490D01*
X173246400Y-93835369D01*
X173292428Y-93792677D01*
X173311074Y-93782587D01*
X173488738Y-93644304D01*
X173641220Y-93478666D01*
X173730016Y-93342752D01*
X173784018Y-93296666D01*
X173854366Y-93287090D01*
X173918723Y-93317067D01*
X173940978Y-93342751D01*
X173965497Y-93380280D01*
X174029773Y-93478663D01*
X174029777Y-93478668D01*
X174182260Y-93644306D01*
X174236829Y-93686779D01*
X174359922Y-93782587D01*
X174557924Y-93889740D01*
X174557925Y-93889740D01*
X174557926Y-93889741D01*
X174597976Y-93903490D01*
X174770863Y-93962842D01*
X174992929Y-93999898D01*
X174992933Y-93999898D01*
X175218063Y-93999898D01*
X175218067Y-93999898D01*
X175440133Y-93962842D01*
X175653072Y-93889740D01*
X175851074Y-93782587D01*
X176028738Y-93644304D01*
X176181220Y-93478666D01*
X176304358Y-93290189D01*
X176394794Y-93084014D01*
X176450062Y-92865766D01*
X176468654Y-92641398D01*
X176450062Y-92417030D01*
X176435060Y-92357787D01*
X176394795Y-92198785D01*
X176394794Y-92198784D01*
X176394794Y-92198782D01*
X176304358Y-91992607D01*
X176297638Y-91982322D01*
X176181222Y-91804132D01*
X176181218Y-91804127D01*
X176028735Y-91638489D01*
X175946880Y-91574779D01*
X175851074Y-91500209D01*
X175817817Y-91482211D01*
X175767427Y-91432200D01*
X175752074Y-91362883D01*
X175776634Y-91296270D01*
X175817818Y-91260584D01*
X175851074Y-91242587D01*
X176028738Y-91104304D01*
X176181220Y-90938666D01*
X176304358Y-90750189D01*
X176377377Y-90583721D01*
X188904998Y-90583721D01*
X188904998Y-90859074D01*
X188940936Y-91132057D01*
X188940938Y-91132064D01*
X189012203Y-91398030D01*
X189047771Y-91483898D01*
X189117575Y-91652420D01*
X189117581Y-91652431D01*
X189255246Y-91890873D01*
X189255248Y-91890876D01*
X189255249Y-91890877D01*
X189333309Y-91992607D01*
X189422870Y-92109326D01*
X189422879Y-92109336D01*
X189617559Y-92304016D01*
X189617569Y-92304025D01*
X189617570Y-92304026D01*
X189764840Y-92417030D01*
X189836022Y-92471649D01*
X190074464Y-92609314D01*
X190074475Y-92609320D01*
X190074477Y-92609321D01*
X190328866Y-92714693D01*
X190594832Y-92785958D01*
X190594836Y-92785958D01*
X190594838Y-92785959D01*
X190665194Y-92795221D01*
X190867824Y-92821898D01*
X190867831Y-92821898D01*
X191143165Y-92821898D01*
X191143172Y-92821898D01*
X191389966Y-92789407D01*
X191416157Y-92785959D01*
X191416157Y-92785958D01*
X191416164Y-92785958D01*
X191682130Y-92714693D01*
X191936519Y-92609321D01*
X192174977Y-92471647D01*
X192393426Y-92304026D01*
X192588126Y-92109326D01*
X192755747Y-91890877D01*
X192893421Y-91652419D01*
X192998793Y-91398030D01*
X193070058Y-91132064D01*
X193105998Y-90859072D01*
X193105998Y-90583724D01*
X193070058Y-90310732D01*
X192998793Y-90044766D01*
X192893421Y-89790377D01*
X192893420Y-89790375D01*
X192893414Y-89790364D01*
X192755749Y-89551922D01*
X192690197Y-89466493D01*
X192588126Y-89333470D01*
X192588125Y-89333469D01*
X192588116Y-89333459D01*
X192393436Y-89138779D01*
X192393426Y-89138770D01*
X192351259Y-89106414D01*
X192174977Y-88971149D01*
X192174976Y-88971148D01*
X192174973Y-88971146D01*
X191936531Y-88833481D01*
X191936520Y-88833475D01*
X191749440Y-88755984D01*
X191682130Y-88728103D01*
X191500471Y-88679428D01*
X191416157Y-88656836D01*
X191143174Y-88620898D01*
X191143172Y-88620898D01*
X190867824Y-88620898D01*
X190867821Y-88620898D01*
X190594838Y-88656836D01*
X190328866Y-88728103D01*
X190074475Y-88833475D01*
X190074464Y-88833481D01*
X189836022Y-88971146D01*
X189617569Y-89138770D01*
X189617559Y-89138779D01*
X189422879Y-89333459D01*
X189422870Y-89333469D01*
X189255246Y-89551922D01*
X189117581Y-89790364D01*
X189117575Y-89790375D01*
X189012203Y-90044766D01*
X188940936Y-90310738D01*
X188904998Y-90583721D01*
X176377377Y-90583721D01*
X176394794Y-90544014D01*
X176450062Y-90325766D01*
X176468654Y-90101398D01*
X176450062Y-89877030D01*
X176442896Y-89848731D01*
X176394795Y-89658785D01*
X176394794Y-89658784D01*
X176394794Y-89658782D01*
X176304358Y-89452607D01*
X176296887Y-89441172D01*
X176181222Y-89264132D01*
X176181217Y-89264127D01*
X176038022Y-89108577D01*
X176006601Y-89044912D01*
X176014588Y-88974366D01*
X176059446Y-88919337D01*
X176086681Y-88905187D01*
X176201702Y-88862287D01*
X176254722Y-88822597D01*
X176318759Y-88774659D01*
X176406385Y-88657605D01*
X176406385Y-88657604D01*
X176406387Y-88657602D01*
X176457487Y-88520599D01*
X176461229Y-88485798D01*
X176463997Y-88460047D01*
X176463998Y-88460030D01*
X176463998Y-86662765D01*
X176463997Y-86662748D01*
X176457488Y-86602201D01*
X176457486Y-86602193D01*
X176427049Y-86520590D01*
X176421983Y-86449775D01*
X176456008Y-86387462D01*
X176518320Y-86353437D01*
X176589136Y-86358501D01*
X176596353Y-86361450D01*
X176598743Y-86362514D01*
X176598746Y-86362516D01*
X176773210Y-86440192D01*
X176960011Y-86479898D01*
X177005596Y-86479898D01*
X177073717Y-86499900D01*
X177075598Y-86501133D01*
X177108444Y-86523080D01*
X177228721Y-86572900D01*
X177356404Y-86598298D01*
X177356405Y-86598298D01*
X177376169Y-86598298D01*
X177444290Y-86618300D01*
X177477037Y-86648789D01*
X177478140Y-86650262D01*
X177478437Y-86650659D01*
X177595490Y-86738285D01*
X177595492Y-86738286D01*
X177595494Y-86738287D01*
X177638826Y-86754449D01*
X177732493Y-86789386D01*
X177732501Y-86789388D01*
X177793048Y-86795897D01*
X177793053Y-86795897D01*
X177793060Y-86795898D01*
X178089280Y-86795898D01*
X178157401Y-86815900D01*
X178203894Y-86869556D01*
X178213998Y-86939830D01*
X178184504Y-87004410D01*
X178171110Y-87017709D01*
X178019695Y-87147028D01*
X177865491Y-87327578D01*
X177865490Y-87327580D01*
X177741424Y-87530036D01*
X177650559Y-87749405D01*
X177600397Y-87958349D01*
X177595130Y-87980287D01*
X177576500Y-88216998D01*
X177595130Y-88453709D01*
X177596648Y-88460030D01*
X177650559Y-88684590D01*
X177720340Y-88853056D01*
X177741425Y-88903961D01*
X177860634Y-89098492D01*
X177865490Y-89106415D01*
X177865491Y-89106417D01*
X178019695Y-89286967D01*
X178200245Y-89441171D01*
X178200249Y-89441174D01*
X178402702Y-89565238D01*
X178622071Y-89656103D01*
X178852954Y-89711533D01*
X179089665Y-89730163D01*
X179326376Y-89711533D01*
X179557259Y-89656103D01*
X179776628Y-89565238D01*
X179979081Y-89441174D01*
X180159634Y-89286967D01*
X180313841Y-89106414D01*
X180437905Y-88903961D01*
X180528770Y-88684592D01*
X180584200Y-88453709D01*
X180602830Y-88216998D01*
X180584200Y-87980287D01*
X180528770Y-87749404D01*
X180437905Y-87530035D01*
X180313841Y-87327582D01*
X180313838Y-87327578D01*
X180159634Y-87147028D01*
X180008220Y-87017709D01*
X179969410Y-86958259D01*
X179968903Y-86887264D01*
X180006860Y-86827265D01*
X180071228Y-86797312D01*
X180090050Y-86795898D01*
X180420330Y-86795898D01*
X180420336Y-86795898D01*
X180420343Y-86795897D01*
X180420347Y-86795897D01*
X180480894Y-86789388D01*
X180480897Y-86789387D01*
X180480899Y-86789387D01*
X180481704Y-86789087D01*
X180519209Y-86775098D01*
X180617902Y-86738287D01*
X180619503Y-86737089D01*
X180675610Y-86695087D01*
X180734959Y-86650659D01*
X180736358Y-86648789D01*
X180738231Y-86647387D01*
X180741332Y-86644287D01*
X180741777Y-86644732D01*
X180793193Y-86606243D01*
X180837227Y-86598298D01*
X180841242Y-86598298D01*
X180841243Y-86598298D01*
X180968927Y-86572900D01*
X181089204Y-86523080D01*
X181197449Y-86450753D01*
X181857349Y-85790851D01*
X181919660Y-85756828D01*
X181990475Y-85761892D01*
X182040081Y-85795640D01*
X182044243Y-85800262D01*
X182044245Y-85800264D01*
X182198746Y-85912516D01*
X182373210Y-85990192D01*
X182560011Y-86029898D01*
X182577155Y-86029898D01*
X182645276Y-86049900D01*
X182666250Y-86066803D01*
X182953732Y-86354285D01*
X182953742Y-86354296D01*
X182958142Y-86358696D01*
X182958143Y-86358697D01*
X183050199Y-86450753D01*
X183112726Y-86492532D01*
X183158444Y-86523080D01*
X183278721Y-86572900D01*
X183406404Y-86598298D01*
X183406405Y-86598298D01*
X183827769Y-86598298D01*
X183895890Y-86618300D01*
X183928637Y-86648789D01*
X183929740Y-86650262D01*
X183930037Y-86650659D01*
X184047090Y-86738285D01*
X184047092Y-86738286D01*
X184047094Y-86738287D01*
X184090426Y-86754449D01*
X184184093Y-86789386D01*
X184184101Y-86789388D01*
X184244648Y-86795897D01*
X184244653Y-86795897D01*
X184244660Y-86795898D01*
X184244666Y-86795898D01*
X184589280Y-86795898D01*
X184657401Y-86815900D01*
X184703894Y-86869556D01*
X184713998Y-86939830D01*
X184684504Y-87004410D01*
X184671110Y-87017709D01*
X184519695Y-87147028D01*
X184365491Y-87327578D01*
X184365490Y-87327580D01*
X184241424Y-87530036D01*
X184150559Y-87749405D01*
X184100397Y-87958349D01*
X184095130Y-87980287D01*
X184076500Y-88216998D01*
X184095130Y-88453709D01*
X184096648Y-88460030D01*
X184150559Y-88684590D01*
X184220340Y-88853056D01*
X184241425Y-88903961D01*
X184360634Y-89098492D01*
X184365490Y-89106415D01*
X184365491Y-89106417D01*
X184519695Y-89286967D01*
X184700245Y-89441171D01*
X184700249Y-89441174D01*
X184902702Y-89565238D01*
X185122071Y-89656103D01*
X185352954Y-89711533D01*
X185589665Y-89730163D01*
X185826376Y-89711533D01*
X186057259Y-89656103D01*
X186276628Y-89565238D01*
X186479081Y-89441174D01*
X186659634Y-89286967D01*
X186813841Y-89106414D01*
X186937905Y-88903961D01*
X187028770Y-88684592D01*
X187084200Y-88453709D01*
X187102830Y-88216998D01*
X187084200Y-87980287D01*
X187028770Y-87749404D01*
X186937905Y-87530035D01*
X186813841Y-87327582D01*
X186813838Y-87327578D01*
X186659634Y-87147028D01*
X186508220Y-87017709D01*
X186469410Y-86958259D01*
X186468903Y-86887264D01*
X186506860Y-86827265D01*
X186571228Y-86797312D01*
X186590050Y-86795898D01*
X186871930Y-86795898D01*
X186871936Y-86795898D01*
X186871943Y-86795897D01*
X186871947Y-86795897D01*
X186932494Y-86789388D01*
X186932497Y-86789387D01*
X186932499Y-86789387D01*
X186933304Y-86789087D01*
X186970809Y-86775098D01*
X187069502Y-86738287D01*
X187071103Y-86737089D01*
X187186559Y-86650659D01*
X187274185Y-86533605D01*
X187274185Y-86533604D01*
X187274187Y-86533602D01*
X187325287Y-86396599D01*
X187326270Y-86387462D01*
X187329177Y-86360417D01*
X187356345Y-86294825D01*
X187365342Y-86284807D01*
X188114949Y-85535200D01*
X188177259Y-85501177D01*
X188204042Y-85498298D01*
X191364294Y-85498298D01*
X191432415Y-85518300D01*
G37*
G04 #@! TD.AperFunction*
G04 #@! TA.AperFunction,Conductor*
G36*
X91964510Y-94439718D02*
G01*
X91971093Y-94445847D01*
X92663493Y-95138247D01*
X92697519Y-95200559D01*
X92700398Y-95227342D01*
X92700398Y-95497647D01*
X92706907Y-95558193D01*
X92706908Y-95558197D01*
X92724619Y-95605681D01*
X92729683Y-95676497D01*
X92724619Y-95693744D01*
X92707403Y-95739902D01*
X92700898Y-95800400D01*
X92700898Y-95944998D01*
X93060907Y-95944998D01*
X93091701Y-95950554D01*
X93092028Y-95949175D01*
X93099697Y-95950987D01*
X93160248Y-95957497D01*
X93160253Y-95957497D01*
X93160260Y-95957498D01*
X93160266Y-95957498D01*
X93686898Y-95957498D01*
X93755019Y-95977500D01*
X93801512Y-96031156D01*
X93812898Y-96083498D01*
X93812898Y-96326998D01*
X93792896Y-96395119D01*
X93739240Y-96441612D01*
X93686898Y-96452998D01*
X92700898Y-96452998D01*
X92700898Y-96597595D01*
X92707403Y-96658091D01*
X92733340Y-96727631D01*
X92738404Y-96798446D01*
X92704379Y-96860759D01*
X92642067Y-96894784D01*
X92571251Y-96889719D01*
X92567065Y-96888072D01*
X92447401Y-96838505D01*
X92429785Y-96829529D01*
X92279516Y-96737444D01*
X92263521Y-96725822D01*
X92129509Y-96611365D01*
X92115528Y-96597384D01*
X92001077Y-96463379D01*
X91989455Y-96447383D01*
X91897369Y-96297111D01*
X91888393Y-96279495D01*
X91820951Y-96116677D01*
X91814841Y-96097873D01*
X91798824Y-96031156D01*
X91773697Y-95926495D01*
X91770607Y-95906987D01*
X91756385Y-95726271D01*
X91755998Y-95716400D01*
X91755998Y-94534942D01*
X91776000Y-94466821D01*
X91829656Y-94420328D01*
X91899930Y-94410224D01*
X91964510Y-94439718D01*
G37*
G04 #@! TD.AperFunction*
G04 #@! TA.AperFunction,Conductor*
G36*
X106932415Y-85518300D02*
G01*
X106978908Y-85571956D01*
X106989012Y-85642230D01*
X106984127Y-85663235D01*
X106961955Y-85731470D01*
X106941994Y-85921398D01*
X106961955Y-86111325D01*
X106978202Y-86161326D01*
X107020971Y-86292954D01*
X107032841Y-86313514D01*
X107116456Y-86458339D01*
X107116463Y-86458349D01*
X107244242Y-86600262D01*
X107246911Y-86602201D01*
X107398746Y-86712516D01*
X107573210Y-86790192D01*
X107760011Y-86829898D01*
X107950985Y-86829898D01*
X108137786Y-86790192D01*
X108312250Y-86712516D01*
X108436336Y-86622362D01*
X108503204Y-86598503D01*
X108510397Y-86598298D01*
X109659769Y-86598298D01*
X109727890Y-86618300D01*
X109760637Y-86648789D01*
X109761740Y-86650262D01*
X109762037Y-86650659D01*
X109879090Y-86738285D01*
X109879092Y-86738286D01*
X109879094Y-86738287D01*
X109922426Y-86754449D01*
X110016093Y-86789386D01*
X110016101Y-86789388D01*
X110076648Y-86795897D01*
X110076653Y-86795897D01*
X110076660Y-86795898D01*
X110355946Y-86795898D01*
X110424067Y-86815900D01*
X110470560Y-86869556D01*
X110480664Y-86939830D01*
X110451170Y-87004410D01*
X110437776Y-87017709D01*
X110286361Y-87147028D01*
X110132157Y-87327578D01*
X110132156Y-87327580D01*
X110008090Y-87530036D01*
X109917225Y-87749405D01*
X109867063Y-87958349D01*
X109861796Y-87980287D01*
X109843166Y-88216998D01*
X109861796Y-88453709D01*
X109863314Y-88460030D01*
X109917225Y-88684590D01*
X109987006Y-88853056D01*
X110008091Y-88903961D01*
X110127300Y-89098492D01*
X110132156Y-89106415D01*
X110132157Y-89106417D01*
X110286361Y-89286967D01*
X110466911Y-89441171D01*
X110466915Y-89441174D01*
X110669368Y-89565238D01*
X110888737Y-89656103D01*
X111119620Y-89711533D01*
X111356331Y-89730163D01*
X111593042Y-89711533D01*
X111611231Y-89707166D01*
X111682138Y-89710712D01*
X111729741Y-89740589D01*
X111837878Y-89848726D01*
X111837881Y-89848728D01*
X111837883Y-89848730D01*
X111837886Y-89848732D01*
X111917734Y-89902084D01*
X111917735Y-89902085D01*
X111917738Y-89902087D01*
X111971089Y-89937735D01*
X112032398Y-89963129D01*
X112119101Y-89999044D01*
X112224815Y-90020071D01*
X112276222Y-90030297D01*
X112276225Y-90030297D01*
X112276228Y-90030298D01*
X112276229Y-90030298D01*
X116936434Y-90030298D01*
X117093562Y-89999043D01*
X117241573Y-89937735D01*
X117291649Y-89904275D01*
X117374780Y-89848729D01*
X117482919Y-89740588D01*
X117545231Y-89706564D01*
X117601425Y-89707164D01*
X117619620Y-89711533D01*
X117856331Y-89730163D01*
X118093042Y-89711533D01*
X118323925Y-89656103D01*
X118543294Y-89565238D01*
X118745747Y-89441174D01*
X118926300Y-89286967D01*
X119080507Y-89106414D01*
X119204571Y-88903961D01*
X119295436Y-88684592D01*
X119350866Y-88453709D01*
X119369496Y-88216998D01*
X119350866Y-87980287D01*
X119295436Y-87749404D01*
X119204571Y-87530035D01*
X119080507Y-87327582D01*
X119080504Y-87327578D01*
X118926300Y-87147028D01*
X118774886Y-87017709D01*
X118736076Y-86958259D01*
X118735569Y-86887264D01*
X118773526Y-86827265D01*
X118837894Y-86797312D01*
X118856716Y-86795898D01*
X119104730Y-86795898D01*
X119104736Y-86795898D01*
X119104743Y-86795897D01*
X119104747Y-86795897D01*
X119165294Y-86789388D01*
X119165297Y-86789387D01*
X119165299Y-86789387D01*
X119166104Y-86789087D01*
X119203609Y-86775098D01*
X119302302Y-86738287D01*
X119303903Y-86737089D01*
X119419359Y-86650659D01*
X119506985Y-86533605D01*
X119506985Y-86533604D01*
X119506987Y-86533602D01*
X119558087Y-86396599D01*
X119559070Y-86387462D01*
X119561977Y-86360417D01*
X119589145Y-86294825D01*
X119598142Y-86284807D01*
X120347749Y-85535200D01*
X120410059Y-85501177D01*
X120436842Y-85498298D01*
X123880540Y-85498298D01*
X123948661Y-85518300D01*
X123995154Y-85571956D01*
X124005258Y-85642230D01*
X124000373Y-85663234D01*
X123961955Y-85781469D01*
X123941994Y-85971398D01*
X123961955Y-86161325D01*
X123990854Y-86250264D01*
X124020971Y-86342954D01*
X124027023Y-86353437D01*
X124116456Y-86508339D01*
X124116463Y-86508349D01*
X124244242Y-86650262D01*
X124244790Y-86650660D01*
X124398746Y-86762516D01*
X124573210Y-86840192D01*
X124760011Y-86879898D01*
X124950985Y-86879898D01*
X125137786Y-86840192D01*
X125312250Y-86762516D01*
X125466751Y-86650264D01*
X125476004Y-86639986D01*
X125536451Y-86602748D01*
X125569640Y-86598298D01*
X126576169Y-86598298D01*
X126644290Y-86618300D01*
X126677037Y-86648789D01*
X126678140Y-86650262D01*
X126678437Y-86650659D01*
X126795490Y-86738285D01*
X126795492Y-86738286D01*
X126795494Y-86738287D01*
X126838826Y-86754449D01*
X126932493Y-86789386D01*
X126932501Y-86789388D01*
X126993048Y-86795897D01*
X126993053Y-86795897D01*
X126993060Y-86795898D01*
X127289317Y-86795898D01*
X127357438Y-86815900D01*
X127403931Y-86869556D01*
X127414035Y-86939830D01*
X127384541Y-87004410D01*
X127371147Y-87017709D01*
X127219730Y-87147030D01*
X127065526Y-87327580D01*
X127065525Y-87327582D01*
X126941459Y-87530038D01*
X126850594Y-87749407D01*
X126799432Y-87962515D01*
X126795165Y-87980289D01*
X126776535Y-88217000D01*
X126795165Y-88453711D01*
X126807054Y-88503233D01*
X126850594Y-88684592D01*
X126938949Y-88897900D01*
X126941460Y-88903963D01*
X127065523Y-89106415D01*
X127065525Y-89106417D01*
X127065526Y-89106419D01*
X127219730Y-89286969D01*
X127386716Y-89429588D01*
X127400284Y-89441176D01*
X127602737Y-89565240D01*
X127822106Y-89656105D01*
X128052989Y-89711535D01*
X128289700Y-89730165D01*
X128526411Y-89711535D01*
X128544600Y-89707168D01*
X128615507Y-89710714D01*
X128663110Y-89740591D01*
X128771247Y-89848728D01*
X128771250Y-89848730D01*
X128771252Y-89848732D01*
X128851103Y-89902086D01*
X128904458Y-89937737D01*
X128965767Y-89963131D01*
X129052470Y-89999046D01*
X129158184Y-90020073D01*
X129209591Y-90030299D01*
X129209594Y-90030299D01*
X129209597Y-90030300D01*
X129209598Y-90030300D01*
X133869803Y-90030300D01*
X134026931Y-89999045D01*
X134174942Y-89937737D01*
X134225021Y-89904275D01*
X134308149Y-89848731D01*
X134416288Y-89740590D01*
X134478600Y-89706566D01*
X134534794Y-89707166D01*
X134552989Y-89711535D01*
X134789700Y-89730165D01*
X135026411Y-89711535D01*
X135257294Y-89656105D01*
X135476663Y-89565240D01*
X135679116Y-89441176D01*
X135859669Y-89286969D01*
X136013876Y-89106416D01*
X136137940Y-88903963D01*
X136228805Y-88684594D01*
X136284235Y-88453711D01*
X136302865Y-88217000D01*
X136284235Y-87980289D01*
X136228805Y-87749406D01*
X136137940Y-87530037D01*
X136013876Y-87327584D01*
X135996635Y-87307397D01*
X135859669Y-87147030D01*
X135708253Y-87017709D01*
X135669443Y-86958259D01*
X135668936Y-86887264D01*
X135706893Y-86827265D01*
X135771261Y-86797312D01*
X135790083Y-86795898D01*
X136071930Y-86795898D01*
X136071936Y-86795898D01*
X136071943Y-86795897D01*
X136071947Y-86795897D01*
X136132494Y-86789388D01*
X136132497Y-86789387D01*
X136132499Y-86789387D01*
X136133304Y-86789087D01*
X136170809Y-86775098D01*
X136269502Y-86738287D01*
X136271103Y-86737089D01*
X136386559Y-86650659D01*
X136474185Y-86533605D01*
X136474185Y-86533604D01*
X136474187Y-86533602D01*
X136525287Y-86396599D01*
X136526270Y-86387462D01*
X136529177Y-86360417D01*
X136556345Y-86294825D01*
X136565342Y-86284807D01*
X137314949Y-85535200D01*
X137377259Y-85501177D01*
X137404042Y-85498298D01*
X139480540Y-85498298D01*
X139548661Y-85518300D01*
X139595154Y-85571956D01*
X139605258Y-85642230D01*
X139600373Y-85663234D01*
X139561955Y-85781469D01*
X139541994Y-85971398D01*
X139561955Y-86161325D01*
X139590854Y-86250264D01*
X139620971Y-86342954D01*
X139627023Y-86353437D01*
X139716456Y-86508339D01*
X139716463Y-86508349D01*
X139844242Y-86650262D01*
X139844790Y-86650660D01*
X139998746Y-86762516D01*
X140173210Y-86840192D01*
X140360011Y-86879898D01*
X140550985Y-86879898D01*
X140737786Y-86840192D01*
X140912250Y-86762516D01*
X141066751Y-86650264D01*
X141076004Y-86639986D01*
X141136451Y-86602748D01*
X141169640Y-86598298D01*
X143543369Y-86598298D01*
X143611490Y-86618300D01*
X143644237Y-86648789D01*
X143645340Y-86650262D01*
X143645637Y-86650659D01*
X143762690Y-86738285D01*
X143762692Y-86738286D01*
X143762694Y-86738287D01*
X143806026Y-86754449D01*
X143899693Y-86789386D01*
X143899701Y-86789388D01*
X143960248Y-86795897D01*
X143960253Y-86795897D01*
X143960260Y-86795898D01*
X144222613Y-86795898D01*
X144290734Y-86815900D01*
X144337227Y-86869556D01*
X144347331Y-86939830D01*
X144317837Y-87004410D01*
X144304443Y-87017709D01*
X144153028Y-87147028D01*
X143998824Y-87327578D01*
X143998823Y-87327580D01*
X143874757Y-87530036D01*
X143783892Y-87749405D01*
X143733730Y-87958349D01*
X143728463Y-87980287D01*
X143709833Y-88216998D01*
X143728463Y-88453709D01*
X143729981Y-88460030D01*
X143783892Y-88684590D01*
X143853673Y-88853056D01*
X143874758Y-88903961D01*
X143993967Y-89098492D01*
X143998823Y-89106415D01*
X143998824Y-89106417D01*
X144153028Y-89286967D01*
X144333578Y-89441171D01*
X144333582Y-89441174D01*
X144536035Y-89565238D01*
X144755404Y-89656103D01*
X144986287Y-89711533D01*
X145222998Y-89730163D01*
X145459709Y-89711533D01*
X145690592Y-89656103D01*
X145909961Y-89565238D01*
X146112414Y-89441174D01*
X146292967Y-89286967D01*
X146447174Y-89106414D01*
X146452029Y-89098492D01*
X146456951Y-89090461D01*
X146509599Y-89042831D01*
X146564382Y-89030298D01*
X150381614Y-89030298D01*
X150449735Y-89050300D01*
X150489045Y-89090461D01*
X150498817Y-89106407D01*
X150498824Y-89106417D01*
X150653028Y-89286967D01*
X150833578Y-89441171D01*
X150833582Y-89441174D01*
X151036035Y-89565238D01*
X151255404Y-89656103D01*
X151486287Y-89711533D01*
X151722998Y-89730163D01*
X151959709Y-89711533D01*
X152190592Y-89656103D01*
X152409961Y-89565238D01*
X152612414Y-89441174D01*
X152792967Y-89286967D01*
X152947174Y-89106414D01*
X153071238Y-88903961D01*
X153162103Y-88684592D01*
X153217533Y-88453709D01*
X153236163Y-88216998D01*
X153217533Y-87980287D01*
X153162103Y-87749404D01*
X153071238Y-87530035D01*
X152947174Y-87327582D01*
X152947171Y-87327578D01*
X152792967Y-87147028D01*
X152641553Y-87017709D01*
X152602743Y-86958259D01*
X152602236Y-86887264D01*
X152640193Y-86827265D01*
X152704561Y-86797312D01*
X152723383Y-86795898D01*
X152988330Y-86795898D01*
X152988336Y-86795898D01*
X152988343Y-86795897D01*
X152988347Y-86795897D01*
X153048894Y-86789388D01*
X153048897Y-86789387D01*
X153048899Y-86789387D01*
X153049704Y-86789087D01*
X153087209Y-86775098D01*
X153185902Y-86738287D01*
X153187503Y-86737089D01*
X153302959Y-86650659D01*
X153390585Y-86533605D01*
X153390585Y-86533604D01*
X153390587Y-86533602D01*
X153441687Y-86396599D01*
X153442670Y-86387462D01*
X153445577Y-86360417D01*
X153472745Y-86294825D01*
X153481742Y-86284807D01*
X154231349Y-85535200D01*
X154293659Y-85501177D01*
X154320442Y-85498298D01*
X155364294Y-85498298D01*
X155432415Y-85518300D01*
X155478908Y-85571956D01*
X155489012Y-85642230D01*
X155484127Y-85663235D01*
X155461955Y-85731470D01*
X155441994Y-85921398D01*
X155461955Y-86111325D01*
X155478202Y-86161326D01*
X155520971Y-86292954D01*
X155532841Y-86313514D01*
X155616456Y-86458339D01*
X155616463Y-86458349D01*
X155744242Y-86600262D01*
X155746911Y-86602201D01*
X155898746Y-86712516D01*
X156073210Y-86790192D01*
X156260011Y-86829898D01*
X156450985Y-86829898D01*
X156637786Y-86790192D01*
X156812250Y-86712516D01*
X156936336Y-86622362D01*
X157003204Y-86598503D01*
X157010397Y-86598298D01*
X160459769Y-86598298D01*
X160527890Y-86618300D01*
X160560637Y-86648789D01*
X160561740Y-86650262D01*
X160562037Y-86650659D01*
X160679090Y-86738285D01*
X160679092Y-86738286D01*
X160679094Y-86738287D01*
X160722426Y-86754449D01*
X160816093Y-86789386D01*
X160816101Y-86789388D01*
X160876648Y-86795897D01*
X160876653Y-86795897D01*
X160876660Y-86795898D01*
X161155946Y-86795898D01*
X161224067Y-86815900D01*
X161270560Y-86869556D01*
X161280664Y-86939830D01*
X161251170Y-87004410D01*
X161237776Y-87017709D01*
X161086361Y-87147028D01*
X160932157Y-87327578D01*
X160932156Y-87327580D01*
X160808090Y-87530036D01*
X160717225Y-87749405D01*
X160667063Y-87958349D01*
X160661796Y-87980287D01*
X160643166Y-88216998D01*
X160661796Y-88453709D01*
X160663314Y-88460030D01*
X160717225Y-88684590D01*
X160787006Y-88853056D01*
X160808091Y-88903961D01*
X160927300Y-89098492D01*
X160932156Y-89106415D01*
X160932157Y-89106417D01*
X161038790Y-89231268D01*
X161067821Y-89296057D01*
X161057216Y-89366257D01*
X161052101Y-89376093D01*
X161036286Y-89403488D01*
X160984905Y-89452484D01*
X160927164Y-89466493D01*
X157129673Y-89466493D01*
X157061552Y-89446491D01*
X157040578Y-89429588D01*
X155803261Y-88192271D01*
X155769235Y-88129959D01*
X155767046Y-88090005D01*
X155769002Y-88071398D01*
X155749040Y-87881470D01*
X155690025Y-87699842D01*
X155594538Y-87534454D01*
X155594535Y-87534451D01*
X155594531Y-87534445D01*
X155466753Y-87392533D01*
X155312250Y-87280280D01*
X155137786Y-87202604D01*
X154950985Y-87162898D01*
X154760011Y-87162898D01*
X154573209Y-87202604D01*
X154398745Y-87280280D01*
X154244242Y-87392533D01*
X154116465Y-87534445D01*
X154116456Y-87534456D01*
X154020974Y-87699836D01*
X154020971Y-87699843D01*
X153961955Y-87881470D01*
X153941994Y-88071398D01*
X153961329Y-88255371D01*
X153948556Y-88325210D01*
X153929656Y-88352851D01*
X153809950Y-88485798D01*
X153809947Y-88485802D01*
X153714465Y-88651182D01*
X153714462Y-88651189D01*
X153655446Y-88832816D01*
X153635485Y-89022744D01*
X153655446Y-89212671D01*
X153679587Y-89286967D01*
X153714462Y-89394300D01*
X153714465Y-89394305D01*
X153809947Y-89559685D01*
X153809954Y-89559695D01*
X153937733Y-89701608D01*
X153998988Y-89746112D01*
X154092237Y-89813862D01*
X154266701Y-89891538D01*
X154453502Y-89931244D01*
X154578409Y-89931244D01*
X154646530Y-89951246D01*
X154667499Y-89968144D01*
X155972907Y-91273553D01*
X155972908Y-91273554D01*
X155972910Y-91273555D01*
X156106231Y-91350528D01*
X156106233Y-91350528D01*
X156106236Y-91350530D01*
X156254944Y-91390376D01*
X160142661Y-91390376D01*
X160210782Y-91410378D01*
X160236296Y-91432064D01*
X160283547Y-91484542D01*
X160438048Y-91596794D01*
X160612512Y-91674470D01*
X160799313Y-91714176D01*
X160799314Y-91714176D01*
X160804461Y-91715270D01*
X160866934Y-91748998D01*
X160901256Y-91811148D01*
X160896528Y-91881987D01*
X160885697Y-91904352D01*
X160808537Y-92030264D01*
X160717702Y-92249560D01*
X160662291Y-92480365D01*
X160643668Y-92716998D01*
X160662291Y-92953630D01*
X160717702Y-93184435D01*
X160808539Y-93403736D01*
X160923227Y-93590888D01*
X160923229Y-93590888D01*
X161631347Y-92882769D01*
X161643813Y-92929290D01*
X161716221Y-93054706D01*
X161818623Y-93157108D01*
X161944039Y-93229516D01*
X161990557Y-93241980D01*
X161282438Y-93950099D01*
X161282439Y-93950100D01*
X161375397Y-94007066D01*
X161423028Y-94059713D01*
X161434635Y-94129755D01*
X161406532Y-94194952D01*
X161347641Y-94234606D01*
X161309562Y-94240498D01*
X160876648Y-94240498D01*
X160816101Y-94247007D01*
X160816093Y-94247009D01*
X160679095Y-94298108D01*
X160679090Y-94298110D01*
X160562036Y-94385736D01*
X160474410Y-94502790D01*
X160474408Y-94502795D01*
X160423309Y-94639793D01*
X160423308Y-94639800D01*
X160419418Y-94675981D01*
X160392248Y-94741573D01*
X160383236Y-94751606D01*
X159633647Y-95501194D01*
X159571337Y-95535218D01*
X159544554Y-95538098D01*
X154648781Y-95538098D01*
X154580660Y-95518096D01*
X154534167Y-95464440D01*
X154524063Y-95394166D01*
X154528948Y-95373161D01*
X154549040Y-95311325D01*
X154554295Y-95261325D01*
X154569002Y-95121398D01*
X154549040Y-94931470D01*
X154490025Y-94749842D01*
X154394538Y-94584454D01*
X154394536Y-94584452D01*
X154394532Y-94584446D01*
X154266753Y-94442533D01*
X154112250Y-94330280D01*
X153937786Y-94252604D01*
X153750985Y-94212898D01*
X153560011Y-94212898D01*
X153373207Y-94252604D01*
X153302403Y-94284128D01*
X153232036Y-94293562D01*
X153207122Y-94287076D01*
X153099702Y-94247009D01*
X153099694Y-94247007D01*
X153039147Y-94240498D01*
X153039136Y-94240498D01*
X152569766Y-94240498D01*
X152501645Y-94220496D01*
X152455152Y-94166840D01*
X152445048Y-94096566D01*
X152474542Y-94031986D01*
X152503931Y-94007066D01*
X152596888Y-93950100D01*
X152596889Y-93950100D01*
X151888770Y-93241980D01*
X151935290Y-93229516D01*
X152060706Y-93157108D01*
X152163108Y-93054706D01*
X152235516Y-92929290D01*
X152247980Y-92882770D01*
X152956100Y-93590889D01*
X152956100Y-93590888D01*
X153070789Y-93403736D01*
X153161626Y-93184435D01*
X153217037Y-92953630D01*
X153235660Y-92716998D01*
X153217037Y-92480365D01*
X153161626Y-92249560D01*
X153070789Y-92030259D01*
X152956100Y-91843106D01*
X152956099Y-91843105D01*
X152247980Y-92551223D01*
X152235516Y-92504706D01*
X152163108Y-92379290D01*
X152060706Y-92276888D01*
X151935290Y-92204480D01*
X151888769Y-92192014D01*
X152596888Y-91483895D01*
X152596888Y-91483894D01*
X152409736Y-91369206D01*
X152190435Y-91278369D01*
X151959630Y-91222958D01*
X151722998Y-91204335D01*
X151486365Y-91222958D01*
X151255560Y-91278369D01*
X151036264Y-91369204D01*
X150849106Y-91483895D01*
X150849106Y-91483896D01*
X151557225Y-92192015D01*
X151510706Y-92204480D01*
X151385290Y-92276888D01*
X151282888Y-92379290D01*
X151210480Y-92504706D01*
X151198015Y-92551225D01*
X150489896Y-91843106D01*
X150489895Y-91843106D01*
X150375204Y-92030264D01*
X150284369Y-92249560D01*
X150228958Y-92480365D01*
X150210335Y-92716998D01*
X150228958Y-92953630D01*
X150284369Y-93184435D01*
X150375206Y-93403736D01*
X150489894Y-93590888D01*
X150489895Y-93590888D01*
X151198014Y-92882769D01*
X151210480Y-92929290D01*
X151282888Y-93054706D01*
X151385290Y-93157108D01*
X151510706Y-93229516D01*
X151557224Y-93241980D01*
X150849105Y-93950099D01*
X150849106Y-93950100D01*
X150942064Y-94007066D01*
X150989695Y-94059713D01*
X151001302Y-94129755D01*
X150973199Y-94194952D01*
X150914308Y-94234606D01*
X150876229Y-94240498D01*
X150411848Y-94240498D01*
X150351301Y-94247007D01*
X150351293Y-94247009D01*
X150214295Y-94298108D01*
X150214290Y-94298110D01*
X150097236Y-94385736D01*
X150009610Y-94502790D01*
X150009608Y-94502795D01*
X149958509Y-94639793D01*
X149958508Y-94639800D01*
X149954618Y-94675981D01*
X149927448Y-94741573D01*
X149918436Y-94751606D01*
X149168847Y-95501194D01*
X149106537Y-95535218D01*
X149079754Y-95538098D01*
X148266289Y-95538098D01*
X148198168Y-95518096D01*
X148151675Y-95464440D01*
X148141571Y-95394166D01*
X148146456Y-95373161D01*
X148199040Y-95211325D01*
X148219002Y-95021398D01*
X148199040Y-94831470D01*
X148140025Y-94649842D01*
X148044538Y-94484454D01*
X148044536Y-94484452D01*
X148044532Y-94484446D01*
X147916753Y-94342533D01*
X147762250Y-94230280D01*
X147587786Y-94152604D01*
X147400985Y-94112898D01*
X147210011Y-94112898D01*
X147023209Y-94152604D01*
X146924597Y-94196509D01*
X146870722Y-94220496D01*
X146848742Y-94230282D01*
X146802953Y-94263549D01*
X146736085Y-94287407D01*
X146684861Y-94279668D01*
X146597297Y-94247008D01*
X146597294Y-94247007D01*
X146536747Y-94240498D01*
X146536736Y-94240498D01*
X146069766Y-94240498D01*
X146001645Y-94220496D01*
X145955152Y-94166840D01*
X145945048Y-94096566D01*
X145974542Y-94031986D01*
X146003931Y-94007066D01*
X146096888Y-93950100D01*
X146096889Y-93950100D01*
X145388770Y-93241980D01*
X145435290Y-93229516D01*
X145560706Y-93157108D01*
X145663108Y-93054706D01*
X145735516Y-92929290D01*
X145747981Y-92882770D01*
X146456100Y-93590889D01*
X146456100Y-93590888D01*
X146570789Y-93403736D01*
X146661626Y-93184435D01*
X146717037Y-92953630D01*
X146735660Y-92716998D01*
X146717037Y-92480365D01*
X146661626Y-92249560D01*
X146570789Y-92030259D01*
X146456100Y-91843106D01*
X146456099Y-91843105D01*
X145747980Y-92551224D01*
X145735516Y-92504706D01*
X145663108Y-92379290D01*
X145560706Y-92276888D01*
X145435290Y-92204480D01*
X145388769Y-92192014D01*
X146096888Y-91483895D01*
X146096888Y-91483894D01*
X145909736Y-91369206D01*
X145690435Y-91278369D01*
X145459630Y-91222958D01*
X145222998Y-91204335D01*
X144986365Y-91222958D01*
X144755560Y-91278369D01*
X144536264Y-91369204D01*
X144349106Y-91483895D01*
X144349106Y-91483896D01*
X145057225Y-92192015D01*
X145010706Y-92204480D01*
X144885290Y-92276888D01*
X144782888Y-92379290D01*
X144710480Y-92504706D01*
X144698015Y-92551225D01*
X143989896Y-91843106D01*
X143989895Y-91843106D01*
X143875204Y-92030264D01*
X143784369Y-92249560D01*
X143728958Y-92480365D01*
X143710335Y-92716998D01*
X143728958Y-92953630D01*
X143784369Y-93184435D01*
X143875206Y-93403736D01*
X143989894Y-93590888D01*
X143989895Y-93590888D01*
X144698014Y-92882769D01*
X144710480Y-92929290D01*
X144782888Y-93054706D01*
X144885290Y-93157108D01*
X145010706Y-93229516D01*
X145057224Y-93241980D01*
X144349105Y-93950099D01*
X144349106Y-93950100D01*
X144442064Y-94007066D01*
X144489695Y-94059713D01*
X144501302Y-94129755D01*
X144473199Y-94194952D01*
X144414308Y-94234606D01*
X144376229Y-94240498D01*
X143909448Y-94240498D01*
X143848901Y-94247007D01*
X143848893Y-94247009D01*
X143711895Y-94298108D01*
X143711890Y-94298110D01*
X143594836Y-94385736D01*
X143507210Y-94502790D01*
X143507208Y-94502795D01*
X143456109Y-94639793D01*
X143456108Y-94639800D01*
X143452218Y-94675981D01*
X143425048Y-94741573D01*
X143416036Y-94751606D01*
X142666447Y-95501194D01*
X142604137Y-95535218D01*
X142577354Y-95538098D01*
X137898781Y-95538098D01*
X137830660Y-95518096D01*
X137784167Y-95464440D01*
X137774063Y-95394166D01*
X137778948Y-95373161D01*
X137799040Y-95311325D01*
X137804295Y-95261325D01*
X137819002Y-95121398D01*
X137799040Y-94931470D01*
X137740025Y-94749842D01*
X137644538Y-94584454D01*
X137644536Y-94584452D01*
X137644532Y-94584446D01*
X137516753Y-94442533D01*
X137362250Y-94330280D01*
X137187786Y-94252604D01*
X137000985Y-94212898D01*
X136810011Y-94212898D01*
X136623209Y-94252604D01*
X136448742Y-94330281D01*
X136443785Y-94333144D01*
X136374789Y-94349880D01*
X136307698Y-94326658D01*
X136305279Y-94324891D01*
X136269505Y-94298110D01*
X136269500Y-94298108D01*
X136132502Y-94247009D01*
X136132494Y-94247007D01*
X136071947Y-94240498D01*
X136071936Y-94240498D01*
X135636471Y-94240498D01*
X135568350Y-94220496D01*
X135521857Y-94166840D01*
X135511753Y-94096566D01*
X135541247Y-94031986D01*
X135570636Y-94007066D01*
X135663590Y-93950102D01*
X135663591Y-93950102D01*
X134955472Y-93241982D01*
X135001992Y-93229518D01*
X135127408Y-93157110D01*
X135229810Y-93054708D01*
X135302218Y-92929292D01*
X135314683Y-92882772D01*
X136022802Y-93590891D01*
X136022802Y-93590890D01*
X136137491Y-93403738D01*
X136228328Y-93184437D01*
X136283739Y-92953632D01*
X136302362Y-92717000D01*
X136283739Y-92480367D01*
X136228328Y-92249562D01*
X136137491Y-92030261D01*
X136022802Y-91843108D01*
X136022801Y-91843107D01*
X135314682Y-92551226D01*
X135302218Y-92504708D01*
X135229810Y-92379292D01*
X135127408Y-92276890D01*
X135001992Y-92204482D01*
X134955471Y-92192016D01*
X135663590Y-91483897D01*
X135663590Y-91483896D01*
X135476438Y-91369208D01*
X135257137Y-91278371D01*
X135026332Y-91222960D01*
X134789700Y-91204337D01*
X134553067Y-91222960D01*
X134322262Y-91278371D01*
X134102966Y-91369206D01*
X133915808Y-91483897D01*
X133915808Y-91483898D01*
X134623927Y-92192017D01*
X134577408Y-92204482D01*
X134451992Y-92276890D01*
X134349590Y-92379292D01*
X134277182Y-92504708D01*
X134264717Y-92551227D01*
X133556598Y-91843108D01*
X133556597Y-91843108D01*
X133441906Y-92030266D01*
X133351071Y-92249562D01*
X133295660Y-92480367D01*
X133277037Y-92717000D01*
X133295660Y-92953632D01*
X133351071Y-93184437D01*
X133441908Y-93403738D01*
X133556596Y-93590890D01*
X133556597Y-93590890D01*
X134264716Y-92882771D01*
X134277182Y-92929292D01*
X134349590Y-93054708D01*
X134451992Y-93157110D01*
X134577408Y-93229518D01*
X134623926Y-93241982D01*
X133915807Y-93950101D01*
X133915808Y-93950102D01*
X134008763Y-94007066D01*
X134056394Y-94059713D01*
X134068001Y-94129755D01*
X134039898Y-94194952D01*
X133981007Y-94234606D01*
X133942928Y-94240498D01*
X133444648Y-94240498D01*
X133384101Y-94247007D01*
X133384093Y-94247009D01*
X133247095Y-94298108D01*
X133247090Y-94298110D01*
X133130036Y-94385736D01*
X133042410Y-94502790D01*
X133042408Y-94502795D01*
X132991309Y-94639793D01*
X132991308Y-94639800D01*
X132987418Y-94675981D01*
X132960248Y-94741573D01*
X132951236Y-94751606D01*
X132201647Y-95501194D01*
X132139337Y-95535218D01*
X132112554Y-95538098D01*
X131482535Y-95538098D01*
X131414414Y-95518096D01*
X131367921Y-95464440D01*
X131357817Y-95394166D01*
X131362702Y-95373161D01*
X131399040Y-95261325D01*
X131404295Y-95211325D01*
X131419002Y-95071398D01*
X131399040Y-94881470D01*
X131340025Y-94699842D01*
X131244538Y-94534454D01*
X131244536Y-94534452D01*
X131244532Y-94534446D01*
X131116753Y-94392533D01*
X130962250Y-94280280D01*
X130787786Y-94202604D01*
X130600985Y-94162898D01*
X130410011Y-94162898D01*
X130223209Y-94202604D01*
X130048744Y-94280280D01*
X129994690Y-94319553D01*
X129927822Y-94343411D01*
X129858670Y-94327329D01*
X129845121Y-94318485D01*
X129830694Y-94307685D01*
X129817902Y-94298109D01*
X129817900Y-94298108D01*
X129680902Y-94247009D01*
X129680894Y-94247007D01*
X129620347Y-94240498D01*
X129620336Y-94240498D01*
X129136471Y-94240498D01*
X129068350Y-94220496D01*
X129021857Y-94166840D01*
X129011753Y-94096566D01*
X129041247Y-94031986D01*
X129070636Y-94007066D01*
X129163590Y-93950102D01*
X129163591Y-93950102D01*
X128455472Y-93241982D01*
X128501992Y-93229518D01*
X128627408Y-93157110D01*
X128729810Y-93054708D01*
X128802218Y-92929292D01*
X128814682Y-92882772D01*
X129522802Y-93590891D01*
X129522802Y-93590890D01*
X129637491Y-93403738D01*
X129728328Y-93184437D01*
X129783739Y-92953632D01*
X129802362Y-92717000D01*
X129783739Y-92480367D01*
X129728328Y-92249562D01*
X129637491Y-92030261D01*
X129522802Y-91843108D01*
X129522801Y-91843107D01*
X128814682Y-92551225D01*
X128802218Y-92504708D01*
X128729810Y-92379292D01*
X128627408Y-92276890D01*
X128501992Y-92204482D01*
X128455471Y-92192016D01*
X129163590Y-91483897D01*
X129163590Y-91483896D01*
X128976438Y-91369208D01*
X128757137Y-91278371D01*
X128526332Y-91222960D01*
X128289700Y-91204337D01*
X128053067Y-91222960D01*
X127822262Y-91278371D01*
X127602966Y-91369206D01*
X127415808Y-91483897D01*
X127415808Y-91483898D01*
X128123927Y-92192017D01*
X128077408Y-92204482D01*
X127951992Y-92276890D01*
X127849590Y-92379292D01*
X127777182Y-92504708D01*
X127764717Y-92551227D01*
X127056598Y-91843108D01*
X127056597Y-91843108D01*
X126941906Y-92030266D01*
X126851071Y-92249562D01*
X126795660Y-92480367D01*
X126777037Y-92717000D01*
X126795660Y-92953632D01*
X126851071Y-93184437D01*
X126941908Y-93403738D01*
X127056596Y-93590890D01*
X127056597Y-93590890D01*
X127764716Y-92882771D01*
X127777182Y-92929292D01*
X127849590Y-93054708D01*
X127951992Y-93157110D01*
X128077408Y-93229518D01*
X128123926Y-93241982D01*
X127415807Y-93950101D01*
X127415808Y-93950102D01*
X127508763Y-94007066D01*
X127556394Y-94059713D01*
X127568001Y-94129755D01*
X127539898Y-94194952D01*
X127481007Y-94234606D01*
X127442928Y-94240498D01*
X126993048Y-94240498D01*
X126932501Y-94247007D01*
X126932493Y-94247009D01*
X126795495Y-94298108D01*
X126795490Y-94298110D01*
X126678436Y-94385736D01*
X126590810Y-94502790D01*
X126590808Y-94502795D01*
X126539709Y-94639793D01*
X126539708Y-94639800D01*
X126535818Y-94675981D01*
X126508648Y-94741573D01*
X126499636Y-94751606D01*
X125750047Y-95501194D01*
X125687737Y-95535218D01*
X125660954Y-95538098D01*
X120798781Y-95538098D01*
X120730660Y-95518096D01*
X120684167Y-95464440D01*
X120674063Y-95394166D01*
X120678948Y-95373161D01*
X120699040Y-95311325D01*
X120704295Y-95261325D01*
X120719002Y-95121398D01*
X120699040Y-94931470D01*
X120640025Y-94749842D01*
X120544538Y-94584454D01*
X120544536Y-94584452D01*
X120544532Y-94584446D01*
X120416753Y-94442533D01*
X120262250Y-94330280D01*
X120087786Y-94252604D01*
X119900985Y-94212898D01*
X119710011Y-94212898D01*
X119523205Y-94252605D01*
X119437085Y-94290947D01*
X119366718Y-94300381D01*
X119341805Y-94293895D01*
X119216102Y-94247009D01*
X119216094Y-94247007D01*
X119155547Y-94240498D01*
X119155536Y-94240498D01*
X118703099Y-94240498D01*
X118634978Y-94220496D01*
X118588485Y-94166840D01*
X118578381Y-94096566D01*
X118607875Y-94031986D01*
X118637264Y-94007066D01*
X118730221Y-93950100D01*
X118730222Y-93950100D01*
X118022103Y-93241980D01*
X118068623Y-93229516D01*
X118194039Y-93157108D01*
X118296441Y-93054706D01*
X118368849Y-92929290D01*
X118381313Y-92882770D01*
X119089433Y-93590889D01*
X119089433Y-93590888D01*
X119204122Y-93403736D01*
X119294959Y-93184435D01*
X119350370Y-92953630D01*
X119368993Y-92716998D01*
X119350370Y-92480365D01*
X119294959Y-92249560D01*
X119204122Y-92030259D01*
X119089433Y-91843106D01*
X119089432Y-91843105D01*
X118381313Y-92551223D01*
X118368849Y-92504706D01*
X118296441Y-92379290D01*
X118194039Y-92276888D01*
X118068623Y-92204480D01*
X118022102Y-92192014D01*
X118730221Y-91483895D01*
X118730221Y-91483894D01*
X118543069Y-91369206D01*
X118323768Y-91278369D01*
X118092963Y-91222958D01*
X117856331Y-91204335D01*
X117619698Y-91222958D01*
X117388893Y-91278369D01*
X117169597Y-91369204D01*
X116982439Y-91483895D01*
X116982439Y-91483896D01*
X117690558Y-92192015D01*
X117644039Y-92204480D01*
X117518623Y-92276888D01*
X117416221Y-92379290D01*
X117343813Y-92504706D01*
X117331348Y-92551225D01*
X116623229Y-91843106D01*
X116623228Y-91843106D01*
X116508537Y-92030264D01*
X116417702Y-92249560D01*
X116362291Y-92480365D01*
X116343668Y-92716998D01*
X116362291Y-92953630D01*
X116417702Y-93184435D01*
X116508539Y-93403736D01*
X116623227Y-93590888D01*
X116623228Y-93590888D01*
X117331347Y-92882769D01*
X117343813Y-92929290D01*
X117416221Y-93054706D01*
X117518623Y-93157108D01*
X117644039Y-93229516D01*
X117690557Y-93241980D01*
X116982438Y-93950099D01*
X116982439Y-93950100D01*
X117075397Y-94007066D01*
X117123028Y-94059713D01*
X117134635Y-94129755D01*
X117106532Y-94194952D01*
X117047641Y-94234606D01*
X117009562Y-94240498D01*
X116528248Y-94240498D01*
X116467701Y-94247007D01*
X116467693Y-94247009D01*
X116330695Y-94298108D01*
X116330690Y-94298110D01*
X116213636Y-94385736D01*
X116126010Y-94502790D01*
X116126008Y-94502795D01*
X116074909Y-94639793D01*
X116074908Y-94639800D01*
X116071018Y-94675981D01*
X116043848Y-94741573D01*
X116034836Y-94751606D01*
X115285247Y-95501194D01*
X115222937Y-95535218D01*
X115196154Y-95538098D01*
X114398781Y-95538098D01*
X114330660Y-95518096D01*
X114284167Y-95464440D01*
X114274063Y-95394166D01*
X114278948Y-95373161D01*
X114299040Y-95311325D01*
X114304295Y-95261325D01*
X114319002Y-95121398D01*
X114299040Y-94931470D01*
X114240025Y-94749842D01*
X114144538Y-94584454D01*
X114144536Y-94584452D01*
X114144532Y-94584446D01*
X114016753Y-94442533D01*
X113862250Y-94330280D01*
X113687786Y-94252604D01*
X113500985Y-94212898D01*
X113310011Y-94212898D01*
X113123207Y-94252604D01*
X113012110Y-94302068D01*
X112941743Y-94311502D01*
X112910112Y-94300808D01*
X112909945Y-94301258D01*
X112764502Y-94247009D01*
X112764494Y-94247007D01*
X112703947Y-94240498D01*
X112703936Y-94240498D01*
X112203099Y-94240498D01*
X112134978Y-94220496D01*
X112088485Y-94166840D01*
X112078381Y-94096566D01*
X112107875Y-94031986D01*
X112137264Y-94007066D01*
X112230221Y-93950100D01*
X112230222Y-93950100D01*
X111522103Y-93241980D01*
X111568623Y-93229516D01*
X111694039Y-93157108D01*
X111796441Y-93054706D01*
X111868849Y-92929290D01*
X111881313Y-92882770D01*
X112589433Y-93590889D01*
X112589433Y-93590888D01*
X112704122Y-93403736D01*
X112794959Y-93184435D01*
X112850370Y-92953630D01*
X112868993Y-92716998D01*
X112850370Y-92480365D01*
X112794959Y-92249560D01*
X112704122Y-92030259D01*
X112589433Y-91843106D01*
X112589432Y-91843105D01*
X111881313Y-92551223D01*
X111868849Y-92504706D01*
X111796441Y-92379290D01*
X111694039Y-92276888D01*
X111568623Y-92204480D01*
X111522102Y-92192014D01*
X112230221Y-91483895D01*
X112230221Y-91483894D01*
X112043069Y-91369206D01*
X111823768Y-91278369D01*
X111592963Y-91222958D01*
X111356331Y-91204335D01*
X111119698Y-91222958D01*
X110888893Y-91278369D01*
X110669597Y-91369204D01*
X110482439Y-91483895D01*
X110482439Y-91483896D01*
X111190558Y-92192015D01*
X111144039Y-92204480D01*
X111018623Y-92276888D01*
X110916221Y-92379290D01*
X110843813Y-92504706D01*
X110831348Y-92551225D01*
X110123229Y-91843106D01*
X110123228Y-91843106D01*
X110008537Y-92030264D01*
X109917702Y-92249560D01*
X109862291Y-92480365D01*
X109843668Y-92716998D01*
X109862291Y-92953630D01*
X109917702Y-93184435D01*
X110008539Y-93403736D01*
X110123227Y-93590888D01*
X110123228Y-93590888D01*
X110831347Y-92882769D01*
X110843813Y-92929290D01*
X110916221Y-93054706D01*
X111018623Y-93157108D01*
X111144039Y-93229516D01*
X111190557Y-93241980D01*
X110482438Y-93950099D01*
X110482439Y-93950100D01*
X110575397Y-94007066D01*
X110623028Y-94059713D01*
X110634635Y-94129755D01*
X110606532Y-94194952D01*
X110547641Y-94234606D01*
X110509562Y-94240498D01*
X110076648Y-94240498D01*
X110016101Y-94247007D01*
X110016093Y-94247009D01*
X109879095Y-94298108D01*
X109879090Y-94298110D01*
X109762036Y-94385736D01*
X109674410Y-94502790D01*
X109674408Y-94502795D01*
X109623309Y-94639793D01*
X109623308Y-94639800D01*
X109619418Y-94675981D01*
X109592248Y-94741573D01*
X109583236Y-94751606D01*
X108833647Y-95501194D01*
X108771337Y-95535218D01*
X108744554Y-95538098D01*
X103782535Y-95538098D01*
X103714414Y-95518096D01*
X103667921Y-95464440D01*
X103657817Y-95394166D01*
X103662702Y-95373161D01*
X103699040Y-95261325D01*
X103704295Y-95211325D01*
X103719002Y-95071398D01*
X103699040Y-94881470D01*
X103640025Y-94699842D01*
X103544538Y-94534454D01*
X103544536Y-94534452D01*
X103544532Y-94534446D01*
X103416753Y-94392533D01*
X103262250Y-94280280D01*
X103087786Y-94202604D01*
X102900985Y-94162898D01*
X102710011Y-94162898D01*
X102523207Y-94202604D01*
X102390931Y-94261497D01*
X102320564Y-94270931D01*
X102295653Y-94264446D01*
X102248903Y-94247010D01*
X102248893Y-94247007D01*
X102188347Y-94240498D01*
X102188336Y-94240498D01*
X101769766Y-94240498D01*
X101701645Y-94220496D01*
X101655152Y-94166840D01*
X101645048Y-94096566D01*
X101674542Y-94031986D01*
X101703931Y-94007066D01*
X101796888Y-93950100D01*
X101796889Y-93950100D01*
X101088770Y-93241980D01*
X101135290Y-93229516D01*
X101260706Y-93157108D01*
X101363108Y-93054706D01*
X101435516Y-92929290D01*
X101447981Y-92882770D01*
X102156100Y-93590889D01*
X102156100Y-93590888D01*
X102270789Y-93403736D01*
X102361626Y-93184435D01*
X102417037Y-92953630D01*
X102435660Y-92716998D01*
X102417037Y-92480365D01*
X102361626Y-92249560D01*
X102270789Y-92030259D01*
X102156100Y-91843106D01*
X102156099Y-91843105D01*
X101447980Y-92551224D01*
X101435516Y-92504706D01*
X101363108Y-92379290D01*
X101260706Y-92276888D01*
X101135290Y-92204480D01*
X101088769Y-92192014D01*
X101796888Y-91483895D01*
X101796888Y-91483894D01*
X101609736Y-91369206D01*
X101390435Y-91278369D01*
X101159630Y-91222958D01*
X100922998Y-91204335D01*
X100686365Y-91222958D01*
X100455560Y-91278369D01*
X100236264Y-91369204D01*
X100049106Y-91483895D01*
X100049106Y-91483896D01*
X100757225Y-92192015D01*
X100710706Y-92204480D01*
X100585290Y-92276888D01*
X100482888Y-92379290D01*
X100410480Y-92504706D01*
X100398015Y-92551225D01*
X99689896Y-91843106D01*
X99689895Y-91843106D01*
X99575204Y-92030264D01*
X99484369Y-92249560D01*
X99428958Y-92480365D01*
X99410335Y-92716998D01*
X99428958Y-92953630D01*
X99484369Y-93184435D01*
X99575206Y-93403736D01*
X99689894Y-93590888D01*
X99689895Y-93590888D01*
X100398014Y-92882769D01*
X100410480Y-92929290D01*
X100482888Y-93054706D01*
X100585290Y-93157108D01*
X100710706Y-93229516D01*
X100757224Y-93241980D01*
X100049105Y-93950099D01*
X100049106Y-93950100D01*
X100142064Y-94007066D01*
X100189695Y-94059713D01*
X100201302Y-94129755D01*
X100173199Y-94194952D01*
X100114308Y-94234606D01*
X100076229Y-94240498D01*
X99561048Y-94240498D01*
X99500501Y-94247007D01*
X99500493Y-94247009D01*
X99363495Y-94298108D01*
X99363490Y-94298110D01*
X99246436Y-94385736D01*
X99158810Y-94502790D01*
X99158808Y-94502795D01*
X99107709Y-94639793D01*
X99107708Y-94639800D01*
X99103818Y-94675981D01*
X99076648Y-94741573D01*
X99067636Y-94751606D01*
X98318047Y-95501194D01*
X98255737Y-95535218D01*
X98228954Y-95538098D01*
X96373398Y-95538098D01*
X96305277Y-95518096D01*
X96258784Y-95464440D01*
X96247398Y-95412098D01*
X96247398Y-94816342D01*
X96267400Y-94748221D01*
X96284303Y-94727247D01*
X96344747Y-94666803D01*
X96407059Y-94632777D01*
X96433842Y-94629898D01*
X96450985Y-94629898D01*
X96637786Y-94590192D01*
X96812250Y-94512516D01*
X96966751Y-94400264D01*
X96985849Y-94379054D01*
X97094532Y-94258349D01*
X97094533Y-94258347D01*
X97094538Y-94258342D01*
X97190025Y-94092954D01*
X97249040Y-93911326D01*
X97269002Y-93721398D01*
X97249040Y-93531470D01*
X97190025Y-93349842D01*
X97094538Y-93184454D01*
X97094536Y-93184452D01*
X97094532Y-93184446D01*
X96966753Y-93042533D01*
X96812250Y-92930280D01*
X96637786Y-92852604D01*
X96450985Y-92812898D01*
X96260011Y-92812898D01*
X96260010Y-92812898D01*
X96087514Y-92849563D01*
X96016723Y-92844161D01*
X95960090Y-92801344D01*
X95935597Y-92734706D01*
X95935673Y-92721949D01*
X95935661Y-92721949D01*
X95935661Y-92717003D01*
X95917037Y-92480365D01*
X95861626Y-92249560D01*
X95770789Y-92030259D01*
X95656100Y-91843106D01*
X95656099Y-91843105D01*
X94947980Y-92551223D01*
X94935516Y-92504706D01*
X94863108Y-92379290D01*
X94760706Y-92276888D01*
X94635290Y-92204480D01*
X94588769Y-92192014D01*
X95296888Y-91483895D01*
X95296888Y-91483894D01*
X95109736Y-91369206D01*
X94890435Y-91278369D01*
X94659630Y-91222958D01*
X94422998Y-91204335D01*
X94186365Y-91222958D01*
X93955560Y-91278369D01*
X93736264Y-91369204D01*
X93549106Y-91483895D01*
X93549106Y-91483896D01*
X94257225Y-92192015D01*
X94210706Y-92204480D01*
X94085290Y-92276888D01*
X93982888Y-92379290D01*
X93910480Y-92504706D01*
X93898015Y-92551225D01*
X93189896Y-91843106D01*
X93189895Y-91843106D01*
X93075204Y-92030264D01*
X92984369Y-92249560D01*
X92928958Y-92480365D01*
X92910335Y-92716998D01*
X92928958Y-92953630D01*
X92984369Y-93184435D01*
X93028608Y-93291237D01*
X93036197Y-93361827D01*
X93004417Y-93425314D01*
X92943359Y-93461541D01*
X92872408Y-93459007D01*
X92823104Y-93428550D01*
X92605703Y-93211149D01*
X92571677Y-93148837D01*
X92568798Y-93122054D01*
X92568798Y-90583721D01*
X103904998Y-90583721D01*
X103904998Y-90859074D01*
X103940936Y-91132057D01*
X103940938Y-91132064D01*
X104012203Y-91398030D01*
X104047771Y-91483898D01*
X104117575Y-91652420D01*
X104117581Y-91652431D01*
X104255246Y-91890873D01*
X104255248Y-91890876D01*
X104255249Y-91890877D01*
X104333309Y-91992607D01*
X104422870Y-92109326D01*
X104422879Y-92109336D01*
X104617559Y-92304016D01*
X104617569Y-92304025D01*
X104617570Y-92304026D01*
X104764840Y-92417030D01*
X104836022Y-92471649D01*
X105074464Y-92609314D01*
X105074475Y-92609320D01*
X105074477Y-92609321D01*
X105328866Y-92714693D01*
X105594832Y-92785958D01*
X105594836Y-92785958D01*
X105594838Y-92785959D01*
X105665194Y-92795221D01*
X105867824Y-92821898D01*
X105867831Y-92821898D01*
X106143165Y-92821898D01*
X106143172Y-92821898D01*
X106389966Y-92789407D01*
X106416157Y-92785959D01*
X106416157Y-92785958D01*
X106416164Y-92785958D01*
X106682130Y-92714693D01*
X106936519Y-92609321D01*
X107174977Y-92471647D01*
X107393426Y-92304026D01*
X107588126Y-92109326D01*
X107755747Y-91890877D01*
X107893421Y-91652419D01*
X107998793Y-91398030D01*
X108070058Y-91132064D01*
X108105998Y-90859072D01*
X108105998Y-90583724D01*
X108070058Y-90310732D01*
X107998793Y-90044766D01*
X107893421Y-89790377D01*
X107893420Y-89790375D01*
X107893414Y-89790364D01*
X107755749Y-89551922D01*
X107690197Y-89466493D01*
X107588126Y-89333470D01*
X107588125Y-89333469D01*
X107588116Y-89333459D01*
X107393436Y-89138779D01*
X107393426Y-89138770D01*
X107351259Y-89106414D01*
X107174977Y-88971149D01*
X107174976Y-88971148D01*
X107174973Y-88971146D01*
X106936531Y-88833481D01*
X106936520Y-88833475D01*
X106749440Y-88755984D01*
X106682130Y-88728103D01*
X106500471Y-88679428D01*
X106416157Y-88656836D01*
X106143174Y-88620898D01*
X106143172Y-88620898D01*
X105867824Y-88620898D01*
X105867821Y-88620898D01*
X105594838Y-88656836D01*
X105328866Y-88728103D01*
X105074475Y-88833475D01*
X105074464Y-88833481D01*
X104836022Y-88971146D01*
X104617569Y-89138770D01*
X104617559Y-89138779D01*
X104422879Y-89333459D01*
X104422870Y-89333469D01*
X104255246Y-89551922D01*
X104117581Y-89790364D01*
X104117575Y-89790375D01*
X104012203Y-90044766D01*
X103940936Y-90310738D01*
X103904998Y-90583721D01*
X92568798Y-90583721D01*
X92568798Y-87463298D01*
X92588800Y-87395177D01*
X92642456Y-87348684D01*
X92694798Y-87337298D01*
X92765985Y-87337298D01*
X92952786Y-87297592D01*
X92952787Y-87297591D01*
X92952789Y-87297591D01*
X92958111Y-87295862D01*
X93029078Y-87293833D01*
X93089877Y-87330494D01*
X93121204Y-87394205D01*
X93113113Y-87464739D01*
X93104483Y-87481529D01*
X93074757Y-87530036D01*
X92983892Y-87749405D01*
X92933730Y-87958349D01*
X92928463Y-87980287D01*
X92909833Y-88216998D01*
X92928463Y-88453709D01*
X92929981Y-88460030D01*
X92983892Y-88684590D01*
X93053673Y-88853056D01*
X93074758Y-88903961D01*
X93193967Y-89098492D01*
X93198823Y-89106415D01*
X93198824Y-89106417D01*
X93353028Y-89286967D01*
X93533578Y-89441171D01*
X93533582Y-89441174D01*
X93736035Y-89565238D01*
X93955404Y-89656103D01*
X94186287Y-89711533D01*
X94422998Y-89730163D01*
X94659709Y-89711533D01*
X94890592Y-89656103D01*
X95109961Y-89565238D01*
X95312414Y-89441174D01*
X95492967Y-89286967D01*
X95647174Y-89106414D01*
X95652029Y-89098492D01*
X95656951Y-89090461D01*
X95709599Y-89042831D01*
X95764382Y-89030298D01*
X99581614Y-89030298D01*
X99649735Y-89050300D01*
X99689045Y-89090461D01*
X99698817Y-89106407D01*
X99698824Y-89106417D01*
X99853028Y-89286967D01*
X100033578Y-89441171D01*
X100033582Y-89441174D01*
X100236035Y-89565238D01*
X100455404Y-89656103D01*
X100686287Y-89711533D01*
X100922998Y-89730163D01*
X101159709Y-89711533D01*
X101390592Y-89656103D01*
X101609961Y-89565238D01*
X101812414Y-89441174D01*
X101992967Y-89286967D01*
X102147174Y-89106414D01*
X102271238Y-88903961D01*
X102362103Y-88684592D01*
X102417533Y-88453709D01*
X102436163Y-88216998D01*
X102417533Y-87980287D01*
X102362103Y-87749404D01*
X102271238Y-87530035D01*
X102147174Y-87327582D01*
X102147171Y-87327578D01*
X101992967Y-87147028D01*
X101841553Y-87017709D01*
X101802743Y-86958259D01*
X101802236Y-86887264D01*
X101840193Y-86827265D01*
X101904561Y-86797312D01*
X101923383Y-86795898D01*
X102188330Y-86795898D01*
X102188336Y-86795898D01*
X102188343Y-86795897D01*
X102188347Y-86795897D01*
X102248894Y-86789388D01*
X102248897Y-86789387D01*
X102248899Y-86789387D01*
X102249704Y-86789087D01*
X102287209Y-86775098D01*
X102385902Y-86738287D01*
X102387503Y-86737089D01*
X102502959Y-86650659D01*
X102590585Y-86533605D01*
X102590585Y-86533604D01*
X102590587Y-86533602D01*
X102641687Y-86396599D01*
X102642670Y-86387462D01*
X102645577Y-86360417D01*
X102672745Y-86294825D01*
X102681742Y-86284807D01*
X103431349Y-85535200D01*
X103493659Y-85501177D01*
X103520442Y-85498298D01*
X106864294Y-85498298D01*
X106932415Y-85518300D01*
G37*
G04 #@! TD.AperFunction*
G04 #@! TA.AperFunction,Conductor*
G36*
X176087100Y-85500400D02*
G01*
X176133593Y-85554056D01*
X176144288Y-85593224D01*
X176144984Y-85599842D01*
X176161955Y-85761325D01*
X176190853Y-85850262D01*
X176220971Y-85942954D01*
X176220974Y-85942959D01*
X176284664Y-86053274D01*
X176301402Y-86122269D01*
X176278182Y-86189361D01*
X176222374Y-86233248D01*
X176151699Y-86239997D01*
X176131512Y-86234329D01*
X176064702Y-86209409D01*
X176064694Y-86209407D01*
X176004147Y-86202898D01*
X176004136Y-86202898D01*
X174206860Y-86202898D01*
X174206848Y-86202898D01*
X174146301Y-86209407D01*
X174146293Y-86209409D01*
X174009295Y-86260508D01*
X174009290Y-86260510D01*
X173892236Y-86348136D01*
X173804610Y-86465190D01*
X173804609Y-86465193D01*
X173760302Y-86583982D01*
X173717755Y-86640817D01*
X173651234Y-86665627D01*
X173581860Y-86650535D01*
X173549545Y-86625285D01*
X173488400Y-86558863D01*
X173310799Y-86420630D01*
X173310798Y-86420629D01*
X173112869Y-86313515D01*
X173112867Y-86313514D01*
X172900010Y-86240441D01*
X172899999Y-86240438D01*
X172819498Y-86227004D01*
X172819498Y-87130695D01*
X172758491Y-87095473D01*
X172631324Y-87061398D01*
X172499672Y-87061398D01*
X172372505Y-87095473D01*
X172311498Y-87130695D01*
X172311498Y-86227005D01*
X172311497Y-86227004D01*
X172230996Y-86240438D01*
X172230985Y-86240441D01*
X172018128Y-86313514D01*
X172018126Y-86313515D01*
X171820197Y-86420629D01*
X171820196Y-86420630D01*
X171642595Y-86558863D01*
X171490172Y-86724439D01*
X171367078Y-86912849D01*
X171276677Y-87118941D01*
X171276674Y-87118948D01*
X171228953Y-87307397D01*
X171228954Y-87307398D01*
X172134795Y-87307398D01*
X172099573Y-87368405D01*
X172065498Y-87495572D01*
X172065498Y-87627224D01*
X172099573Y-87754391D01*
X172134795Y-87815398D01*
X171228953Y-87815398D01*
X171276674Y-88003847D01*
X171276677Y-88003854D01*
X171367078Y-88209946D01*
X171490172Y-88398356D01*
X171642595Y-88563932D01*
X171820196Y-88702165D01*
X171820202Y-88702169D01*
X171853705Y-88720300D01*
X171904095Y-88770313D01*
X171919447Y-88839630D01*
X171894886Y-88906243D01*
X171853705Y-88941926D01*
X171819928Y-88960205D01*
X171819922Y-88960209D01*
X171642260Y-89098489D01*
X171489777Y-89264127D01*
X171489773Y-89264132D01*
X171366639Y-89452604D01*
X171276201Y-89658784D01*
X171276200Y-89658785D01*
X171220935Y-89877022D01*
X171220934Y-89877028D01*
X171220934Y-89877030D01*
X171202342Y-90101398D01*
X171219688Y-90310732D01*
X171220935Y-90325773D01*
X171276200Y-90544010D01*
X171276201Y-90544011D01*
X171276202Y-90544014D01*
X171365279Y-90747090D01*
X171366639Y-90750191D01*
X171489773Y-90938663D01*
X171489777Y-90938668D01*
X171642260Y-91104306D01*
X171696829Y-91146779D01*
X171819922Y-91242587D01*
X171853178Y-91260584D01*
X171903569Y-91310598D01*
X171918921Y-91379914D01*
X171894360Y-91446527D01*
X171853178Y-91482211D01*
X171819924Y-91500208D01*
X171819922Y-91500209D01*
X171642260Y-91638489D01*
X171489777Y-91804127D01*
X171489773Y-91804132D01*
X171366639Y-91992604D01*
X171276201Y-92198784D01*
X171276200Y-92198785D01*
X171220935Y-92417022D01*
X171220934Y-92417028D01*
X171220934Y-92417030D01*
X171202342Y-92641398D01*
X171219843Y-92852604D01*
X171220935Y-92865773D01*
X171276200Y-93084010D01*
X171276201Y-93084011D01*
X171276202Y-93084014D01*
X171365279Y-93287090D01*
X171366639Y-93290191D01*
X171489773Y-93478663D01*
X171489777Y-93478668D01*
X171642260Y-93644306D01*
X171710941Y-93697763D01*
X171819922Y-93782587D01*
X171838567Y-93792677D01*
X171888956Y-93842686D01*
X171904598Y-93903490D01*
X171904598Y-94224039D01*
X171884596Y-94292160D01*
X171867693Y-94313135D01*
X171651284Y-94529543D01*
X171588972Y-94563568D01*
X171518156Y-94558503D01*
X171468550Y-94524754D01*
X171464390Y-94520133D01*
X171309888Y-94407881D01*
X171135424Y-94330205D01*
X170948623Y-94290499D01*
X170757649Y-94290499D01*
X170570847Y-94330205D01*
X170396382Y-94407881D01*
X170396375Y-94407886D01*
X170393731Y-94409807D01*
X170391944Y-94410444D01*
X170390665Y-94411183D01*
X170390529Y-94410948D01*
X170326861Y-94433659D01*
X170257711Y-94417572D01*
X170244180Y-94408738D01*
X170165728Y-94350010D01*
X170152501Y-94340108D01*
X170015502Y-94289009D01*
X170015494Y-94289007D01*
X169954947Y-94282498D01*
X169954936Y-94282498D01*
X169434562Y-94282498D01*
X169366441Y-94262496D01*
X169319948Y-94208840D01*
X169309844Y-94138566D01*
X169339338Y-94073986D01*
X169368727Y-94049066D01*
X169530221Y-93950100D01*
X169530222Y-93950100D01*
X168822103Y-93241980D01*
X168868623Y-93229516D01*
X168994039Y-93157108D01*
X169096441Y-93054706D01*
X169168849Y-92929290D01*
X169181314Y-92882770D01*
X169889433Y-93590889D01*
X169889433Y-93590888D01*
X170004122Y-93403736D01*
X170094959Y-93184435D01*
X170150370Y-92953630D01*
X170168993Y-92716998D01*
X170150370Y-92480365D01*
X170094959Y-92249560D01*
X170004122Y-92030259D01*
X169889433Y-91843106D01*
X169889432Y-91843105D01*
X169181313Y-92551224D01*
X169168849Y-92504706D01*
X169096441Y-92379290D01*
X168994039Y-92276888D01*
X168868623Y-92204480D01*
X168822102Y-92192014D01*
X169530221Y-91483895D01*
X169530221Y-91483894D01*
X169343069Y-91369206D01*
X169123768Y-91278369D01*
X168892963Y-91222958D01*
X168656331Y-91204335D01*
X168419698Y-91222958D01*
X168188893Y-91278369D01*
X167969597Y-91369204D01*
X167782439Y-91483895D01*
X167782439Y-91483896D01*
X168490558Y-92192015D01*
X168444039Y-92204480D01*
X168318623Y-92276888D01*
X168216221Y-92379290D01*
X168143813Y-92504706D01*
X168131348Y-92551225D01*
X167423229Y-91843106D01*
X167423228Y-91843106D01*
X167308537Y-92030264D01*
X167217702Y-92249560D01*
X167162291Y-92480365D01*
X167143668Y-92716998D01*
X167162291Y-92953630D01*
X167217702Y-93184435D01*
X167308539Y-93403736D01*
X167423227Y-93590888D01*
X167423228Y-93590888D01*
X168131347Y-92882769D01*
X168143813Y-92929290D01*
X168216221Y-93054706D01*
X168318623Y-93157108D01*
X168444039Y-93229516D01*
X168490557Y-93241980D01*
X167782438Y-93950099D01*
X167943935Y-94049065D01*
X167991566Y-94101713D01*
X168003173Y-94171755D01*
X167975070Y-94236952D01*
X167916179Y-94276606D01*
X167878100Y-94282498D01*
X167327648Y-94282498D01*
X167267101Y-94289007D01*
X167267093Y-94289009D01*
X167130095Y-94340108D01*
X167130090Y-94340110D01*
X167013036Y-94427736D01*
X166925410Y-94544790D01*
X166925408Y-94544795D01*
X166874309Y-94681793D01*
X166874308Y-94681800D01*
X166870418Y-94717981D01*
X166843248Y-94783573D01*
X166834236Y-94793606D01*
X166126647Y-95501194D01*
X166064337Y-95535218D01*
X166037554Y-95538098D01*
X165273777Y-95538098D01*
X165205656Y-95518096D01*
X165159163Y-95464440D01*
X165149250Y-95395500D01*
X165149197Y-95395495D01*
X165149219Y-95395281D01*
X165149059Y-95394166D01*
X165149736Y-95390363D01*
X165162701Y-95267006D01*
X165189714Y-95201349D01*
X165198906Y-95191090D01*
X165916422Y-94473573D01*
X165916427Y-94473570D01*
X165926795Y-94463201D01*
X165926797Y-94463201D01*
X166010949Y-94379047D01*
X166025970Y-94366219D01*
X166116751Y-94300264D01*
X166116753Y-94300262D01*
X166244532Y-94158349D01*
X166244533Y-94158347D01*
X166244538Y-94158342D01*
X166340025Y-93992954D01*
X166399040Y-93811326D01*
X166419002Y-93621398D01*
X166399040Y-93431470D01*
X166340025Y-93249842D01*
X166244538Y-93084454D01*
X166244536Y-93084452D01*
X166244532Y-93084446D01*
X166116753Y-92942533D01*
X165962250Y-92830280D01*
X165787786Y-92752604D01*
X165600985Y-92712898D01*
X165410011Y-92712898D01*
X165223209Y-92752604D01*
X165048745Y-92830280D01*
X164894242Y-92942533D01*
X164766463Y-93084446D01*
X164766456Y-93084456D01*
X164670974Y-93249836D01*
X164670971Y-93249843D01*
X164611955Y-93431470D01*
X164591994Y-93621398D01*
X164611955Y-93811328D01*
X164611957Y-93811334D01*
X164611987Y-93811426D01*
X164611988Y-93811482D01*
X164613328Y-93817783D01*
X164612174Y-93818028D01*
X164614007Y-93882394D01*
X164581246Y-93939444D01*
X164267094Y-94253595D01*
X164204784Y-94287619D01*
X164178001Y-94290499D01*
X164160858Y-94290499D01*
X163974052Y-94330206D01*
X163897590Y-94364248D01*
X163827223Y-94373682D01*
X163770835Y-94350010D01*
X163701504Y-94298110D01*
X163701500Y-94298108D01*
X163564502Y-94247009D01*
X163564494Y-94247007D01*
X163503947Y-94240498D01*
X163503936Y-94240498D01*
X163003099Y-94240498D01*
X162934978Y-94220496D01*
X162888485Y-94166840D01*
X162878381Y-94096566D01*
X162907875Y-94031986D01*
X162937264Y-94007066D01*
X163030221Y-93950100D01*
X163030222Y-93950100D01*
X162322103Y-93241980D01*
X162368623Y-93229516D01*
X162494039Y-93157108D01*
X162596441Y-93054706D01*
X162668849Y-92929290D01*
X162681313Y-92882770D01*
X163389433Y-93590889D01*
X163389433Y-93590888D01*
X163504122Y-93403736D01*
X163594959Y-93184435D01*
X163650370Y-92953630D01*
X163668993Y-92716998D01*
X163650370Y-92480365D01*
X163594959Y-92249560D01*
X163504122Y-92030259D01*
X163389433Y-91843106D01*
X163389432Y-91843105D01*
X162681313Y-92551223D01*
X162668849Y-92504706D01*
X162596441Y-92379290D01*
X162494039Y-92276888D01*
X162368623Y-92204480D01*
X162322102Y-92192014D01*
X163030221Y-91483895D01*
X163030221Y-91483894D01*
X162843069Y-91369206D01*
X162623768Y-91278369D01*
X162392963Y-91222958D01*
X162156331Y-91204335D01*
X161919697Y-91222958D01*
X161915871Y-91223877D01*
X161844963Y-91220325D01*
X161787232Y-91179002D01*
X161761007Y-91113026D01*
X161766632Y-91062419D01*
X161788342Y-90995604D01*
X161796066Y-90922108D01*
X161823078Y-90856453D01*
X161881299Y-90815822D01*
X161895167Y-90812035D01*
X162078489Y-90773069D01*
X162252953Y-90695393D01*
X162407454Y-90583141D01*
X162535241Y-90441219D01*
X162630728Y-90275831D01*
X162689743Y-90094203D01*
X162709705Y-89904275D01*
X162690965Y-89725978D01*
X162703737Y-89656142D01*
X162752239Y-89604296D01*
X162768048Y-89596405D01*
X162843294Y-89565238D01*
X163045747Y-89441174D01*
X163226300Y-89286967D01*
X163380507Y-89106414D01*
X163385362Y-89098492D01*
X163483674Y-88938063D01*
X163536321Y-88890432D01*
X163591106Y-88877898D01*
X167221556Y-88877898D01*
X167289677Y-88897900D01*
X167328988Y-88938063D01*
X167432149Y-89106406D01*
X167432157Y-89106417D01*
X167586361Y-89286967D01*
X167766911Y-89441171D01*
X167766915Y-89441174D01*
X167969368Y-89565238D01*
X168188737Y-89656103D01*
X168419620Y-89711533D01*
X168656331Y-89730163D01*
X168893042Y-89711533D01*
X169123925Y-89656103D01*
X169343294Y-89565238D01*
X169545747Y-89441174D01*
X169726300Y-89286967D01*
X169880507Y-89106414D01*
X170004571Y-88903961D01*
X170095436Y-88684592D01*
X170150866Y-88453709D01*
X170169496Y-88216998D01*
X170150866Y-87980287D01*
X170095436Y-87749404D01*
X170004571Y-87530035D01*
X169880507Y-87327582D01*
X169880504Y-87327578D01*
X169726300Y-87147028D01*
X169574886Y-87017709D01*
X169536076Y-86958259D01*
X169535569Y-86887264D01*
X169573526Y-86827265D01*
X169637894Y-86797312D01*
X169656716Y-86795898D01*
X169904730Y-86795898D01*
X169904736Y-86795898D01*
X169904743Y-86795897D01*
X169904747Y-86795897D01*
X169965294Y-86789388D01*
X169965297Y-86789387D01*
X169965299Y-86789387D01*
X169966104Y-86789087D01*
X170003609Y-86775098D01*
X170102302Y-86738287D01*
X170103903Y-86737089D01*
X170166998Y-86689856D01*
X170219359Y-86650659D01*
X170235319Y-86629337D01*
X170292153Y-86586791D01*
X170311601Y-86581268D01*
X170353675Y-86572900D01*
X170473952Y-86523080D01*
X170582197Y-86450753D01*
X171515646Y-85517302D01*
X171577959Y-85483278D01*
X171604742Y-85480398D01*
X176018979Y-85480398D01*
X176087100Y-85500400D01*
G37*
G04 #@! TD.AperFunction*
G04 #@! TA.AperFunction,Conductor*
G36*
X165758198Y-85100400D02*
G01*
X165804691Y-85154056D01*
X165815386Y-85193224D01*
X165816235Y-85201298D01*
X165833053Y-85361325D01*
X165855832Y-85431429D01*
X165892069Y-85542954D01*
X165898479Y-85554056D01*
X165987554Y-85708339D01*
X165987561Y-85708349D01*
X166115340Y-85850262D01*
X166115343Y-85850264D01*
X166269844Y-85962516D01*
X166444308Y-86040192D01*
X166631109Y-86079898D01*
X166648252Y-86079898D01*
X166716373Y-86099900D01*
X166737347Y-86116803D01*
X166780693Y-86160149D01*
X166814719Y-86222461D01*
X166817598Y-86249244D01*
X166817598Y-86336047D01*
X166824107Y-86396594D01*
X166824109Y-86396602D01*
X166875208Y-86533600D01*
X166875210Y-86533605D01*
X166962836Y-86650659D01*
X167079890Y-86738285D01*
X167079892Y-86738286D01*
X167079894Y-86738287D01*
X167123226Y-86754449D01*
X167216893Y-86789386D01*
X167216901Y-86789388D01*
X167277448Y-86795897D01*
X167277453Y-86795897D01*
X167277460Y-86795898D01*
X167277466Y-86795898D01*
X167655946Y-86795898D01*
X167724067Y-86815900D01*
X167770560Y-86869556D01*
X167780664Y-86939830D01*
X167751170Y-87004410D01*
X167737776Y-87017709D01*
X167586361Y-87147028D01*
X167432157Y-87327578D01*
X167432149Y-87327589D01*
X167328988Y-87495933D01*
X167276341Y-87543564D01*
X167221556Y-87556098D01*
X163591106Y-87556098D01*
X163522985Y-87536096D01*
X163483674Y-87495933D01*
X163380512Y-87327589D01*
X163380504Y-87327578D01*
X163226300Y-87147028D01*
X163074886Y-87017709D01*
X163036076Y-86958259D01*
X163035569Y-86887264D01*
X163073526Y-86827265D01*
X163137894Y-86797312D01*
X163156716Y-86795898D01*
X163503930Y-86795898D01*
X163503936Y-86795898D01*
X163503943Y-86795897D01*
X163503947Y-86795897D01*
X163564494Y-86789388D01*
X163564497Y-86789387D01*
X163564499Y-86789387D01*
X163565304Y-86789087D01*
X163602809Y-86775098D01*
X163701502Y-86738287D01*
X163703103Y-86737089D01*
X163766198Y-86689856D01*
X163818559Y-86650659D01*
X163834519Y-86629337D01*
X163891353Y-86586791D01*
X163910801Y-86581268D01*
X163952875Y-86572900D01*
X164073152Y-86523080D01*
X164181397Y-86450753D01*
X165514847Y-85117303D01*
X165577159Y-85083277D01*
X165603942Y-85080398D01*
X165690077Y-85080398D01*
X165758198Y-85100400D01*
G37*
G04 #@! TD.AperFunction*
G04 #@! TA.AperFunction,Conductor*
G36*
X96890474Y-85761892D02*
G01*
X96940076Y-85795635D01*
X96944243Y-85800262D01*
X96944245Y-85800264D01*
X97098746Y-85912516D01*
X97273210Y-85990192D01*
X97460011Y-86029898D01*
X97477155Y-86029898D01*
X97545276Y-86049900D01*
X97566250Y-86066803D01*
X97853732Y-86354285D01*
X97853742Y-86354296D01*
X97858142Y-86358696D01*
X97858143Y-86358697D01*
X97950199Y-86450753D01*
X98012726Y-86492532D01*
X98058444Y-86523080D01*
X98178721Y-86572900D01*
X98306404Y-86598298D01*
X98306405Y-86598298D01*
X99144169Y-86598298D01*
X99212290Y-86618300D01*
X99245037Y-86648789D01*
X99246140Y-86650262D01*
X99246437Y-86650659D01*
X99363490Y-86738285D01*
X99363492Y-86738286D01*
X99363494Y-86738287D01*
X99406826Y-86754449D01*
X99500493Y-86789386D01*
X99500501Y-86789388D01*
X99561048Y-86795897D01*
X99561053Y-86795897D01*
X99561060Y-86795898D01*
X99561066Y-86795898D01*
X99922613Y-86795898D01*
X99990734Y-86815900D01*
X100037227Y-86869556D01*
X100047331Y-86939830D01*
X100017837Y-87004410D01*
X100004443Y-87017709D01*
X99853028Y-87147028D01*
X99698824Y-87327578D01*
X99698817Y-87327588D01*
X99689045Y-87343535D01*
X99636397Y-87391165D01*
X99581614Y-87403698D01*
X95764382Y-87403698D01*
X95696261Y-87383696D01*
X95656951Y-87343535D01*
X95647178Y-87327588D01*
X95647171Y-87327578D01*
X95492967Y-87147028D01*
X95341553Y-87017709D01*
X95302743Y-86958259D01*
X95302236Y-86887264D01*
X95340193Y-86827265D01*
X95404561Y-86797312D01*
X95423383Y-86795898D01*
X95787530Y-86795898D01*
X95787536Y-86795898D01*
X95787543Y-86795897D01*
X95787547Y-86795897D01*
X95848094Y-86789388D01*
X95848097Y-86789387D01*
X95848099Y-86789387D01*
X95848904Y-86789087D01*
X95886409Y-86775098D01*
X95985102Y-86738287D01*
X95986703Y-86737089D01*
X96102159Y-86650659D01*
X96189785Y-86533605D01*
X96189785Y-86533604D01*
X96189787Y-86533602D01*
X96240887Y-86396599D01*
X96241870Y-86387462D01*
X96246891Y-86340754D01*
X96274059Y-86275161D01*
X96283065Y-86265135D01*
X96757349Y-85790851D01*
X96819659Y-85756827D01*
X96890474Y-85761892D01*
G37*
G04 #@! TD.AperFunction*
G04 #@! TA.AperFunction,Conductor*
G36*
X204249019Y-83998818D02*
G01*
X204381975Y-84030739D01*
X204400778Y-84036848D01*
X204480841Y-84070011D01*
X204563597Y-84104289D01*
X204581214Y-84113265D01*
X204731483Y-84205350D01*
X204747478Y-84216972D01*
X204881489Y-84331428D01*
X204895468Y-84345406D01*
X205009930Y-84479422D01*
X205021549Y-84495415D01*
X205113633Y-84645684D01*
X205122609Y-84663300D01*
X205190051Y-84826118D01*
X205196161Y-84844922D01*
X205237303Y-85016291D01*
X205240396Y-85035819D01*
X205254610Y-85216418D01*
X205254998Y-85226304D01*
X205254998Y-85346958D01*
X205234996Y-85415079D01*
X205181340Y-85461572D01*
X205111066Y-85471676D01*
X205058997Y-85451723D01*
X204985356Y-85402518D01*
X204985352Y-85402516D01*
X204865080Y-85352698D01*
X204865075Y-85352696D01*
X204737393Y-85327298D01*
X204737391Y-85327298D01*
X204373698Y-85327298D01*
X204305577Y-85307296D01*
X204259084Y-85253640D01*
X204247698Y-85201298D01*
X204247698Y-85142198D01*
X203887689Y-85142198D01*
X203856894Y-85136641D01*
X203856568Y-85138021D01*
X203848898Y-85136208D01*
X203788347Y-85129698D01*
X203788336Y-85129698D01*
X203261698Y-85129698D01*
X203193577Y-85109696D01*
X203147084Y-85056040D01*
X203135698Y-85003698D01*
X203135698Y-84760198D01*
X203155700Y-84692077D01*
X203209356Y-84645584D01*
X203261698Y-84634198D01*
X204247698Y-84634198D01*
X204247698Y-84489612D01*
X204247697Y-84489600D01*
X204241192Y-84429104D01*
X204190142Y-84292233D01*
X204190142Y-84292232D01*
X204118736Y-84196845D01*
X204093925Y-84130325D01*
X204109017Y-84060951D01*
X204159219Y-84010748D01*
X204228593Y-83995657D01*
X204249019Y-83998818D01*
G37*
G04 #@! TD.AperFunction*
M02*
