M48
; DRILL file {KiCad 8.0.6} date 2024-12-03T12:50:31-0500
; FORMAT={-:-/ absolute / inch / decimal}
; #@! TF.CreationDate,2024-12-03T12:50:31-05:00
; #@! TF.GenerationSoftware,Kicad,Pcbnew,8.0.6
; #@! TF.FileFunction,Plated,1,2,PTH
FMAT,2
INCH
; #@! TA.AperFunction,Plated,PTH,ViaDrill
T1C0.0138
; #@! TA.AperFunction,Plated,PTH,ViaDrill
T2C0.0157
; #@! TA.AperFunction,Plated,PTH,ViaDrill
T3C0.0240
; #@! TA.AperFunction,Plated,PTH,ComponentDrill
T4C0.0276
; #@! TA.AperFunction,Plated,PTH,ComponentDrill
T5C0.0300
; #@! TA.AperFunction,Plated,PTH,ComponentDrill
T6C0.0307
; #@! TA.AperFunction,Plated,PTH,ComponentDrill
T7C0.0394
; #@! TA.AperFunction,Plated,PTH,ComponentDrill
T8C0.0433
; #@! TA.AperFunction,Plated,PTH,ComponentDrill
T9C0.0787
; #@! TA.AperFunction,Plated,PTH,ComponentDrill
T10C0.0902
%
G90
G05
T1
X3.5493Y-4.81
X3.5493Y-6.36
X3.5793Y-5.44
X3.6293Y-4.9
X3.6843Y-4.585
X3.7043Y-5.445
X3.7153Y-5.764
X3.7153Y-5.854
X3.7243Y-4.105
X3.7367Y-7.1585
X3.7543Y-6.735
X3.8093Y-5.805
X3.8333Y-7.368
X3.8593Y-6.798
X3.8913Y-7.468
X3.9333Y-5.512
X3.9443Y-4.585
X3.9693Y-6.4075
X3.9693Y-6.735
X4.0093Y-4.81
X4.0143Y-5.45
X4.0193Y-4.015
X4.0193Y-4.145
X4.0313Y-6.938
X4.0548Y-6.9745
X4.0573Y-6.69
X4.0593Y-5.78
X4.0751Y-5.3972
X4.0763Y-6.499
X4.1293Y-4.06
X4.1393Y-6.265
X4.4693Y-4.9
X4.4743Y-5.65
X4.4743Y-6.375
X4.4773Y-6.448
X4.4793Y-7.465
X4.5193Y-4.06
X4.5193Y-5.1
X4.5193Y-6.55
X4.5193Y-7.125
X4.5243Y-5.825
X4.5243Y-6.475
X4.5343Y-7.1935
X4.5493Y-4.995
X4.5493Y-5.74
X4.5493Y-5.92
X4.5493Y-7.045
X4.5533Y-6.246
X4.5593Y-7.26
X4.5593Y-7.375
X4.5693Y-6.446
X4.6828Y-7.05
X4.6853Y-7.382
X4.6987Y-5.9162
X4.708Y-7.4095
X4.7325Y-7.3792
X4.7713Y-7.386
X4.8673Y-6.25
X4.8773Y-6.194
X4.9293Y-6.35
X4.9313Y-6.514
X4.9593Y-4.9
X4.9593Y-5.105
X4.9733Y-7.036
X4.9743Y-5.65
X4.9743Y-7.125
X4.9743Y-7.3
X4.9749Y-7.4633
X4.9793Y-5.825
X5.0033Y-6.446
X5.0143Y-4.825
X5.0457Y-6.7129
X5.0535Y-6.53
X5.0653Y-7.036
X5.0773Y-6.496
X5.0913Y-4.34
X5.0933Y-4.38
X5.1003Y-4.295
X5.1081Y-6.6258
X5.1193Y-6.4
X5.1347Y-6.7349
X5.1556Y-6.1477
X5.1573Y-6.686
X5.1583Y-4.0125
X5.1633Y-7.034
X5.1693Y-6.628
X5.1779Y-6.1852
X5.1823Y-6.7184
X5.1894Y-6.286
X5.1993Y-7.1236
X5.2239Y-4.9011
X5.2239Y-5.6511
X5.2321Y-7.3693
X5.2373Y-6.202
X5.2493Y-5.83
X5.2493Y-6.55
X5.2493Y-7.3
X5.2593Y-4.825
X5.2593Y-6.38
X5.2643Y-5.11
X5.2773Y-5.512
X5.284Y-6.4915
X5.3224Y-6.6583
X5.3404Y-6.473
X5.3793Y-6.512
X5.3873Y-6.638
X5.4393Y-7.18
X5.5693Y-7.18
X5.6013Y-6.688
X5.6336Y-7.3557
X5.6403Y-7.441
X5.6433Y-7.402
X5.6443Y-6.745
X5.6613Y-6.646
X5.6693Y-7.478
X5.6763Y-7.439
X5.6893Y-7.52
X5.6993Y-4.9
X5.6993Y-6.56
X5.6993Y-7.3
X5.7093Y-5.08
X5.7093Y-5.65
X5.7093Y-5.83
X5.7093Y-6.38
X5.7093Y-7.12
X5.7443Y-6.065
X5.7493Y-4.9
X5.7643Y-6.1
X5.7643Y-6.285
X5.7993Y-6.285
X5.8094Y-6.9553
X5.8213Y-6.69
X5.8343Y-7.25
X5.8587Y-6.6952
X5.8693Y-4.9
X5.8754Y-6.634
X5.8824Y-7.5364
X5.8887Y-6.2115
X5.8919Y-6.155
X5.8947Y-7.4603
X5.9033Y-6.404
X5.9037Y-6.6537
X5.9193Y-6.802
X5.9336Y-7.6782
X5.9493Y-5.65
X5.9573Y-6.204
X5.9638Y-6.7414
X5.9643Y-6.115
X5.9649Y-6.9151
X5.9669Y-7.215
X5.9764Y-7.3689
X5.9773Y-7.016
X5.9869Y-6.6723
X5.9893Y-5.08
X5.9893Y-5.83
X5.9893Y-7.3
X5.9993Y-6.8031
X6.0023Y-7.6646
X6.0163Y-6.9813
X6.0233Y-7.226
X6.0235Y-6.348
X6.0293Y-5.01
X6.0293Y-6.204
X6.0293Y-7.06
X6.0439Y-6.5007
X6.0593Y-7.538
X6.0788Y-7.6124
X6.0821Y-7.5002
X6.0833Y-7.426
X6.0833Y-7.466
X6.0893Y-6.21
X6.1144Y-6.684
X6.1165Y-6.64
X6.1186Y-7.6506
X6.1195Y-7.4164
X6.1333Y-7.21
X6.1334Y-7.3455
X6.1416Y-7.695
X6.1653Y-7.29
X6.1659Y-7.6624
X6.1845Y-7.3808
X6.1872Y-4.0801
X6.1879Y-7.6263
X6.2173Y-7.354
X6.2193Y-7.016
X6.3193Y-7.37
X6.4577Y-7.3683
X6.4593Y-4.9
X6.4593Y-5.09
X6.4593Y-5.65
X6.4593Y-5.83
X6.4593Y-6.38
X6.4593Y-6.56
X6.4593Y-7.12
X6.4593Y-7.3
X6.4993Y-3.93
X6.6033Y-6.356
X6.6033Y-6.526
X6.6133Y-7.4747
X6.6264Y-7.4295
X6.7113Y-7.48
X6.718Y-6.1329
X6.7193Y-6.028
X6.7433Y-6.356
X6.7493Y-4.0296
X6.7493Y-4.83
X6.7493Y-5.63
X6.7499Y-6.4272
X6.7533Y-6.526
X6.7593Y-7.23
X6.7893Y-7.48
X6.7993Y-3.93
X6.7993Y-4.2004
X6.7993Y-5.0
X6.7993Y-5.8
X6.7993Y-6.6
X6.7993Y-7.4
X6.986Y-7.5397
X7.0143Y-7.515
X7.1013Y-6.7
X7.1293Y-6.18
X7.2193Y-7.48
X7.2573Y-5.802
X7.2593Y-4.03
X7.2593Y-4.2
X7.2593Y-4.83
X7.2593Y-5.63
X7.2593Y-6.43
X7.2593Y-6.6
X7.2593Y-7.23
X7.2593Y-7.4
X7.2693Y-5.0
X7.3438Y-6.3102
X7.3713Y-6.228
X7.3737Y-6.2932
X7.4073Y-6.24
X7.4233Y-7.66
X7.4473Y-6.258
X7.448Y-7.3
X7.4483Y-6.859
X7.4493Y-7.772
X7.4513Y-4.46
X7.4513Y-5.26
X7.4539Y-6.06
X7.4693Y-5.51
X7.4773Y-6.094
X7.4773Y-6.882
X7.4773Y-7.686
X7.4813Y-4.484
X7.4813Y-5.286
X7.5005Y-6.7372
X7.5123Y-5.938
X7.5163Y-4.3238
X7.5163Y-7.5207
X7.5242Y-5.1388
X7.5593Y-4.758
X7.5593Y-4.808
X7.5593Y-4.858
X7.5593Y-7.2556
X7.5593Y-7.3056
X7.5601Y-7.2028
X7.5613Y-4.908
X7.5613Y-4.958
X7.5613Y-5.008
X7.5613Y-7.142
X7.5635Y-7.3514
X7.5635Y-7.4065
X7.5873Y-4.834
X7.5873Y-4.882
X7.5893Y-4.784
X7.5893Y-4.932
X7.5893Y-4.982
X7.5927Y-7.1749
X7.595Y-7.2254
X7.595Y-7.2805
X7.5958Y-7.3287
X7.5973Y-7.3789
X7.7713Y-5.0581
X7.7713Y-7.462
X7.7724Y-6.6309
X7.7813Y-5.868
X7.7973Y-5.032
X7.8013Y-6.6585
X7.804Y-7.4353
X7.9808Y-7.4065
X7.9813Y-5.006
X8.0773Y-4.982
X8.0793Y-7.3789
X8.1813Y-4.958
X8.1816Y-7.3514
X8.2761Y-7.3317
X8.2793Y-4.932
X8.3785Y-7.3041
X8.3813Y-4.908
X8.4769Y-7.2805
X8.4793Y-4.882
X8.5393Y-5.07
X8.5393Y-7.47
X8.5399Y-5.8671
X8.5399Y-6.6742
X8.6777Y-7.2569
X8.6813Y-4.86
X8.7722Y-7.2254
X8.7813Y-4.834
X8.8155Y-6.6309
X8.8793Y-5.03
X8.8793Y-7.445
X9.1033Y-6.178
X9.1033Y-6.466
X9.2093Y-7.472
X9.2093Y-7.658
X9.3893Y-4.64
X9.4013Y-7.462
X9.4013Y-7.762
X9.4193Y-4.07
X9.4393Y-5.08
X9.4393Y-5.25
X9.4493Y-6.36
X9.4793Y-5.86
X9.5438Y-7.1545
X9.5593Y-6.69
X9.5793Y-6.78
X9.7793Y-6.73
X9.8093Y-4.69
X9.8293Y-6.78
X9.8893Y-5.08
X9.8893Y-5.25
X9.8893Y-6.556
X9.9093Y-5.98
X9.9093Y-6.34
X9.9137Y-6.5876
X9.981Y-4.2717
T2
X4.9333Y-6.718
X5.0153Y-6.758
X5.0653Y-5.02
X5.1013Y-4.052
X5.1853Y-5.018
X5.3453Y-4.138
X5.3687Y-4.1695
X5.3699Y-4.0574
X5.3818Y-4.1081
X5.4185Y-4.0659
X5.4261Y-4.0292
X5.4574Y-4.0075
X5.4869Y-4.1086
X5.5073Y-4.076
X5.5278Y-4.046
X5.5373Y-4.006
X5.6Y-3.9626
X5.7067Y-4.2097
X5.7854Y-4.0955
X5.8642Y-4.0561
X5.9429Y-4.0286
X6.0217Y-4.001
X6.1004Y-3.9734
X6.1636Y-5.3217
X6.1636Y-6.0341
X6.1791Y-3.9459
X6.2579Y-3.9183
X6.3366Y-3.8908
X6.3893Y-7.75
X6.4154Y-3.8632
X6.5053Y-7.748
X7.5581Y-5.6027
X7.5617Y-5.7053
X7.5618Y-5.5491
X7.5626Y-5.7567
X7.5629Y-6.3545
X7.563Y-5.654
X7.5635Y-6.4026
X7.5635Y-6.5049
X7.5635Y-6.556
X7.5635Y-6.6034
X7.5636Y-6.4569
X7.5753Y-5.816
X7.5894Y-5.5747
X7.5904Y-5.6797
X7.5905Y-5.6261
X7.5923Y-5.7823
X7.5924Y-5.731
X7.5973Y-6.3783
X7.5973Y-6.532
X7.5973Y-6.5797
X7.5993Y-6.4301
X7.5993Y-6.4827
X7.8253Y-5.8417
X7.9773Y-5.8081
X7.9808Y-6.6034
X8.0773Y-5.7831
X8.0813Y-5.324
X8.0832Y-6.5837
X8.1777Y-6.5561
X8.1823Y-5.7581
X8.2801Y-6.5325
X8.2823Y-5.7331
X8.3745Y-6.5089
X8.3823Y-5.7031
X8.473Y-6.4852
X8.4773Y-5.6831
X8.6816Y-6.4577
X8.6823Y-5.6581
X8.7801Y-6.4301
X8.7823Y-5.6331
X8.8793Y-5.84
X9.1933Y-4.952
X9.3226Y-6.7608
X9.3226Y-6.9065
X9.3462Y-6.6349
X9.3974Y-6.6821
X9.4328Y-6.5797
X9.4801Y-6.6388
X9.5202Y-6.4419
X9.5202Y-6.482
X9.5202Y-6.52
X9.9293Y-4.954
T3
X5.2593Y-4.664
X6.0053Y-4.504
X6.0623Y-4.5031
X6.1173Y-4.504
X9.0045Y-5.6467
X9.0045Y-5.8278
X9.1147Y-5.7372
X9.3393Y-7.001
X9.3833Y-7.001
X9.4336Y-7.001
T4
X3.5453Y-4.026
X3.6033Y-7.732
X5.7493Y-7.48
X5.8243Y-7.04
X6.2953Y-6.0422
X6.2953Y-6.182
X7.3278Y-3.674
X7.4341Y-3.6773
X9.3313Y-3.67
X9.9093Y-7.712
T5
X3.7141Y-7.0856
X3.7141Y-7.5541
X3.8141Y-7.0856
X3.8141Y-7.5541
X3.9141Y-7.0856
X3.9141Y-7.5541
X4.0141Y-7.0856
X4.0141Y-7.5541
X7.8809Y-4.3738
X7.8809Y-5.1738
X7.8809Y-5.9738
X7.8809Y-6.7738
X7.8809Y-7.5738
X7.9809Y-3.8738
X7.9809Y-4.3738
X7.9809Y-4.7053
X7.9809Y-5.1738
X7.9809Y-5.5053
X7.9809Y-5.9738
X7.9809Y-6.3053
X7.9809Y-6.7738
X7.9809Y-7.1053
X7.9809Y-7.5738
X8.0809Y-3.8738
X8.0809Y-4.3738
X8.0809Y-4.7053
X8.0809Y-5.1738
X8.0809Y-5.5053
X8.0809Y-5.9738
X8.0809Y-6.3053
X8.0809Y-6.7738
X8.0809Y-7.1053
X8.0809Y-7.5738
X8.1809Y-3.8738
X8.1809Y-4.3738
X8.1809Y-4.7053
X8.1809Y-5.1738
X8.1809Y-5.5053
X8.1809Y-5.9738
X8.1809Y-6.3053
X8.1809Y-6.7738
X8.1809Y-7.1053
X8.1809Y-7.5738
X8.2809Y-3.8738
X8.2809Y-4.3738
X8.2809Y-4.7053
X8.2809Y-5.1738
X8.2809Y-5.5053
X8.2809Y-5.9738
X8.2809Y-6.3053
X8.2809Y-6.7738
X8.2809Y-7.1053
X8.2809Y-7.5738
X8.3809Y-3.8738
X8.3809Y-4.3738
X8.3809Y-4.7053
X8.3809Y-5.1738
X8.3809Y-5.5053
X8.3809Y-5.9738
X8.3809Y-6.3053
X8.3809Y-6.7738
X8.3809Y-7.1053
X8.3809Y-7.5738
X8.4809Y-3.8738
X8.4809Y-4.3738
X8.4809Y-4.7053
X8.4809Y-5.1738
X8.4809Y-5.5053
X8.4809Y-5.9738
X8.4809Y-6.3053
X8.4809Y-6.7738
X8.4809Y-7.1053
X8.4809Y-7.5738
X8.5809Y-3.8738
X8.5809Y-4.3738
X8.5809Y-4.7053
X8.5809Y-5.1738
X8.5809Y-5.5053
X8.5809Y-5.9738
X8.5809Y-6.3053
X8.5809Y-6.7738
X8.5809Y-7.1053
X8.5809Y-7.5738
X8.6809Y-3.8738
X8.6809Y-4.3738
X8.6809Y-4.7053
X8.6809Y-5.1738
X8.6809Y-5.5053
X8.6809Y-5.9738
X8.6809Y-6.3053
X8.6809Y-6.7738
X8.6809Y-7.1053
X8.6809Y-7.5738
X8.7809Y-3.8738
X8.7809Y-4.3738
X8.7809Y-4.7053
X8.7809Y-5.1738
X8.7809Y-5.5053
X8.7809Y-5.9738
X8.7809Y-6.3053
X8.7809Y-6.7738
X8.7809Y-7.1053
X8.7809Y-7.5738
X8.8809Y-3.8738
X8.8809Y-4.3738
X8.8809Y-4.7053
X8.8809Y-5.1738
X8.8809Y-5.5053
X8.8809Y-5.9738
X8.8809Y-6.3053
X8.8809Y-6.7738
X8.8809Y-7.1053
X8.8809Y-7.5738
X9.5141Y-7.0856
X9.5141Y-7.5541
X9.6141Y-7.0856
X9.6141Y-7.5541
X9.7141Y-7.0856
X9.7141Y-7.5541
X9.8141Y-7.0856
X9.8141Y-7.5541
T6
X4.4469Y-3.8048
X4.5256Y-3.8048
X4.6043Y-3.8048
X4.6831Y-3.8048
X4.7618Y-3.8048
X4.8406Y-3.8048
X4.9193Y-3.8048
X4.998Y-3.8048
X5.0768Y-3.8048
X5.1555Y-3.8048
X5.2343Y-3.8048
X5.313Y-3.8048
X5.3917Y-3.8048
X5.4705Y-3.8048
X5.5492Y-3.8048
X5.628Y-3.8048
X5.7067Y-3.8048
X5.7854Y-3.8048
X5.8642Y-3.8048
X5.9429Y-3.8048
X6.0217Y-3.8048
X6.1004Y-3.8048
X6.1791Y-3.8048
X6.2579Y-3.8048
X6.3366Y-3.8048
X6.4154Y-3.8048
T7
X4.1488Y-6.3911
X4.1488Y-6.5911
X4.1488Y-6.7911
X4.1718Y-7.1146
X4.1718Y-7.2146
X4.1718Y-7.3146
X4.1718Y-7.4146
X4.2488Y-6.3911
X4.2488Y-6.5911
X4.2488Y-6.7911
X4.3488Y-6.3911
X4.3488Y-6.5911
X4.3488Y-6.7911
X4.3993Y-7.1146
X4.3993Y-7.2146
X4.3993Y-7.3146
X4.3993Y-7.4146
X5.1024Y-6.8031
X5.1024Y-6.9031
X5.1024Y-7.6031
X5.1024Y-7.7031
X5.2024Y-6.8031
X5.2024Y-6.9031
X5.2024Y-7.6031
X5.2024Y-7.7031
X5.3024Y-6.8031
X5.3024Y-6.9031
X5.3024Y-7.6031
X5.3024Y-7.7031
X5.4024Y-6.8031
X5.4024Y-6.9031
X5.4024Y-7.6031
X5.4024Y-7.7031
X5.5024Y-6.8031
X5.5024Y-6.9031
X5.5024Y-7.6031
X5.5024Y-7.7031
X5.6024Y-6.8031
X5.6024Y-6.9031
X5.6024Y-7.6031
X5.6024Y-7.7031
X5.7024Y-6.8031
X5.7024Y-6.9031
X5.7024Y-7.6031
X5.7024Y-7.7031
X5.8024Y-6.8031
X5.8024Y-6.9031
X5.8024Y-7.6031
X5.8024Y-7.7031
X5.8465Y-5.9506
X5.8465Y-6.0506
X5.9465Y-5.9506
X5.9465Y-6.0506
X6.0465Y-5.9506
X6.0465Y-6.0506
X6.6193Y-5.8831
X6.6193Y-5.9831
X6.6193Y-6.0831
X6.6193Y-6.1831
X7.0225Y-6.004
X7.0225Y-6.104
X7.0225Y-6.204
X9.051Y-6.5797
X9.051Y-6.6797
T8
X3.6869Y-4.2762
X3.6869Y-4.4534
X3.9428Y-4.2762
X3.9428Y-4.4534
X4.6119Y-5.6462
X4.6119Y-5.8234
X4.6119Y-4.9062
X4.6119Y-5.0834
X4.6119Y-6.3862
X4.6119Y-6.5634
X4.6119Y-7.1262
X4.6119Y-7.3034
X4.8678Y-5.6462
X4.8678Y-5.8234
X4.8678Y-4.9062
X4.8678Y-5.0834
X4.8678Y-6.3862
X4.8678Y-6.5634
X4.8678Y-7.1262
X4.8678Y-7.3034
X5.3519Y-4.9062
X5.3519Y-5.0834
X5.3519Y-5.6462
X5.3519Y-5.8234
X5.3519Y-6.3862
X5.3519Y-6.5634
X5.3519Y-7.1262
X5.3519Y-7.3034
X5.6078Y-4.9062
X5.6078Y-5.0834
X5.6078Y-5.6462
X5.6078Y-5.8234
X5.6078Y-6.3862
X5.6078Y-6.5634
X5.6078Y-7.1262
X5.6078Y-7.3034
X6.0919Y-5.6462
X6.0919Y-5.8234
X6.0919Y-7.1262
X6.0919Y-7.3034
X6.0919Y-4.9062
X6.0919Y-5.0834
X6.0919Y-6.3862
X6.0919Y-6.5634
X6.3478Y-5.6462
X6.3478Y-5.8234
X6.3478Y-7.1262
X6.3478Y-7.3034
X6.3478Y-4.9062
X6.3478Y-5.0834
X6.3478Y-6.3862
X6.3478Y-6.5634
X6.9019Y-4.0262
X6.9019Y-4.2034
X6.9019Y-4.8262
X6.9019Y-5.0034
X6.9019Y-5.6262
X6.9019Y-5.8034
X6.9019Y-6.4262
X6.9019Y-6.6034
X6.9019Y-7.2262
X6.9019Y-7.4034
X7.1578Y-4.0262
X7.1578Y-4.2034
X7.1578Y-4.8262
X7.1578Y-5.0034
X7.1578Y-5.6262
X7.1578Y-5.8034
X7.1578Y-6.4262
X7.1578Y-6.6034
X7.1578Y-7.2262
X7.1578Y-7.4034
X9.5369Y-5.0762
X9.5369Y-5.2534
X9.7928Y-5.0762
X9.7928Y-5.2534
T9
X4.9287Y-6.8428
X4.9287Y-7.646
T10
X5.2343Y-4.5019
X5.628Y-4.5019
M30
