%TF.GenerationSoftware,KiCad,Pcbnew,8.0.6*%
%TF.CreationDate,2024-12-03T12:50:31-05:00*%
%TF.ProjectId,UFC_Main,5546435f-4d61-4696-9e2e-6b696361645f,6.1.0*%
%TF.SameCoordinates,Original*%
%TF.FileFunction,Drillmap*%
%TF.FilePolarity,Positive*%
%FSLAX45Y45*%
G04 Gerber Fmt 4.5, Leading zero omitted, Abs format (unit mm)*
G04 Created by KiCad (PCBNEW 8.0.6) date 2024-12-03 12:50:31*
%MOMM*%
%LPD*%
G01*
G04 APERTURE LIST*
%ADD10C,0.150000*%
%ADD11C,0.200000*%
%ADD12C,0.238000*%
%ADD13C,0.450000*%
%ADD14C,0.640000*%
%ADD15C,0.754000*%
G04 APERTURE END LIST*
D10*
X23860287Y-8991640D02*
X10560287Y-8991640D01*
X10360287Y-9191640D02*
X10360287Y-9791640D01*
X10160287Y-9991640D02*
X8960287Y-9991640D01*
X8760287Y-10191640D02*
X8760287Y-19791640D01*
X8960287Y-19991640D02*
X25360287Y-19991640D01*
X25560287Y-19791640D02*
X25560287Y-10191640D01*
X25360287Y-9991640D02*
X24260287Y-9991640D01*
X24060287Y-9791640D02*
X24060287Y-9191640D01*
X8960287Y-19991640D02*
G75*
G02*
X8760290Y-19791640I3J200000D01*
G01*
X23860287Y-8991640D02*
G75*
G02*
X24060290Y-9191640I3J-200000D01*
G01*
X24260287Y-9991640D02*
G75*
G02*
X24060290Y-9791640I3J200000D01*
G01*
X10360287Y-9791640D02*
G75*
G02*
X10160287Y-9991637I-199997J0D01*
G01*
X8760287Y-10191640D02*
G75*
G02*
X8960287Y-9991637I200003J0D01*
G01*
X10360287Y-9191640D02*
G75*
G02*
X10560287Y-8991637I200003J0D01*
G01*
X25360287Y-9991640D02*
G75*
G02*
X25560290Y-10191640I3J-200000D01*
G01*
X25560287Y-19791640D02*
G75*
G02*
X25360287Y-19991637I-199997J0D01*
G01*
D11*
D12*
X9634300Y-16107800D02*
X9872300Y-16345800D01*
X9872300Y-16107800D02*
X9634300Y-16345800D01*
X24366300Y-11599400D02*
X24604300Y-11837400D01*
X24604300Y-11599400D02*
X24366300Y-11837400D01*
X24366300Y-16107800D02*
X24604300Y-16345800D01*
X24604300Y-16107800D02*
X24366300Y-16345800D01*
D13*
X9279800Y-14553700D02*
G75*
G02*
X8829800Y-14553700I-225000J0D01*
G01*
X8829800Y-14553700D02*
G75*
G02*
X9279800Y-14553700I225000J0D01*
G01*
X18080900Y-9435600D02*
G75*
G02*
X17630900Y-9435600I-225000J0D01*
G01*
X17630900Y-9435600D02*
G75*
G02*
X18080900Y-9435600I225000J0D01*
G01*
X18080900Y-19595600D02*
G75*
G02*
X17630900Y-19595600I-225000J0D01*
G01*
X17630900Y-19595600D02*
G75*
G02*
X18080900Y-19595600I225000J0D01*
G01*
X25535800Y-14553700D02*
G75*
G02*
X25085800Y-14553700I-225000J0D01*
G01*
X25085800Y-14553700D02*
G75*
G02*
X25535800Y-14553700I225000J0D01*
G01*
D14*
X9664400Y-12798600D02*
X9664400Y-13438600D01*
X9344400Y-13118600D02*
X9984400Y-13118600D01*
D15*
X10019882Y-15893382D02*
X10019882Y-15360218D01*
X9486718Y-15360218D01*
X9486718Y-15893382D01*
X10019882Y-15893382D01*
X10019882Y-15893382D02*
X10019882Y-15360218D01*
X9486718Y-15360218D01*
X9486718Y-15893382D01*
X10019882Y-15893382D01*
X24751882Y-11384982D02*
X24751882Y-10851818D01*
X24218718Y-10851818D01*
X24218718Y-11384982D01*
X24751882Y-11384982D01*
X24751882Y-11384982D02*
X24751882Y-10851818D01*
X24218718Y-10851818D01*
X24218718Y-11384982D01*
X24751882Y-11384982D01*
X24751882Y-15893382D02*
X24751882Y-15360218D01*
X24218718Y-15360218D01*
X24218718Y-15893382D01*
X24751882Y-15893382D01*
X24751882Y-15893382D02*
X24751882Y-15360218D01*
X24218718Y-15360218D01*
X24218718Y-15893382D01*
X24751882Y-15893382D01*
D11*
X9013564Y-20310624D02*
X9013564Y-20110624D01*
X9013564Y-20110624D02*
X9061183Y-20110624D01*
X9061183Y-20110624D02*
X9089755Y-20120147D01*
X9089755Y-20120147D02*
X9108802Y-20139195D01*
X9108802Y-20139195D02*
X9118326Y-20158243D01*
X9118326Y-20158243D02*
X9127850Y-20196338D01*
X9127850Y-20196338D02*
X9127850Y-20224909D01*
X9127850Y-20224909D02*
X9118326Y-20263005D01*
X9118326Y-20263005D02*
X9108802Y-20282052D01*
X9108802Y-20282052D02*
X9089755Y-20301100D01*
X9089755Y-20301100D02*
X9061183Y-20310624D01*
X9061183Y-20310624D02*
X9013564Y-20310624D01*
X9213564Y-20310624D02*
X9213564Y-20177290D01*
X9213564Y-20215386D02*
X9223088Y-20196338D01*
X9223088Y-20196338D02*
X9232612Y-20186814D01*
X9232612Y-20186814D02*
X9251659Y-20177290D01*
X9251659Y-20177290D02*
X9270707Y-20177290D01*
X9337374Y-20310624D02*
X9337374Y-20177290D01*
X9337374Y-20110624D02*
X9327850Y-20120147D01*
X9327850Y-20120147D02*
X9337374Y-20129671D01*
X9337374Y-20129671D02*
X9346897Y-20120147D01*
X9346897Y-20120147D02*
X9337374Y-20110624D01*
X9337374Y-20110624D02*
X9337374Y-20129671D01*
X9461183Y-20310624D02*
X9442135Y-20301100D01*
X9442135Y-20301100D02*
X9432612Y-20282052D01*
X9432612Y-20282052D02*
X9432612Y-20110624D01*
X9565945Y-20310624D02*
X9546897Y-20301100D01*
X9546897Y-20301100D02*
X9537374Y-20282052D01*
X9537374Y-20282052D02*
X9537374Y-20110624D01*
X9794516Y-20310624D02*
X9794516Y-20110624D01*
X9794516Y-20110624D02*
X9861183Y-20253481D01*
X9861183Y-20253481D02*
X9927850Y-20110624D01*
X9927850Y-20110624D02*
X9927850Y-20310624D01*
X10108802Y-20310624D02*
X10108802Y-20205862D01*
X10108802Y-20205862D02*
X10099278Y-20186814D01*
X10099278Y-20186814D02*
X10080231Y-20177290D01*
X10080231Y-20177290D02*
X10042135Y-20177290D01*
X10042135Y-20177290D02*
X10023088Y-20186814D01*
X10108802Y-20301100D02*
X10089755Y-20310624D01*
X10089755Y-20310624D02*
X10042135Y-20310624D01*
X10042135Y-20310624D02*
X10023088Y-20301100D01*
X10023088Y-20301100D02*
X10013564Y-20282052D01*
X10013564Y-20282052D02*
X10013564Y-20263005D01*
X10013564Y-20263005D02*
X10023088Y-20243957D01*
X10023088Y-20243957D02*
X10042135Y-20234433D01*
X10042135Y-20234433D02*
X10089755Y-20234433D01*
X10089755Y-20234433D02*
X10108802Y-20224909D01*
X10204040Y-20177290D02*
X10204040Y-20377290D01*
X10204040Y-20186814D02*
X10223088Y-20177290D01*
X10223088Y-20177290D02*
X10261183Y-20177290D01*
X10261183Y-20177290D02*
X10280231Y-20186814D01*
X10280231Y-20186814D02*
X10289755Y-20196338D01*
X10289755Y-20196338D02*
X10299278Y-20215386D01*
X10299278Y-20215386D02*
X10299278Y-20272528D01*
X10299278Y-20272528D02*
X10289755Y-20291576D01*
X10289755Y-20291576D02*
X10280231Y-20301100D01*
X10280231Y-20301100D02*
X10261183Y-20310624D01*
X10261183Y-20310624D02*
X10223088Y-20310624D01*
X10223088Y-20310624D02*
X10204040Y-20301100D01*
X10384993Y-20291576D02*
X10394516Y-20301100D01*
X10394516Y-20301100D02*
X10384993Y-20310624D01*
X10384993Y-20310624D02*
X10375469Y-20301100D01*
X10375469Y-20301100D02*
X10384993Y-20291576D01*
X10384993Y-20291576D02*
X10384993Y-20310624D01*
X10384993Y-20186814D02*
X10394516Y-20196338D01*
X10394516Y-20196338D02*
X10384993Y-20205862D01*
X10384993Y-20205862D02*
X10375469Y-20196338D01*
X10375469Y-20196338D02*
X10384993Y-20186814D01*
X10384993Y-20186814D02*
X10384993Y-20205862D01*
X8552787Y-20539140D02*
X8752787Y-20739140D01*
X8752787Y-20539140D02*
X8552787Y-20739140D01*
X9004040Y-20549671D02*
X9013564Y-20540147D01*
X9013564Y-20540147D02*
X9032612Y-20530624D01*
X9032612Y-20530624D02*
X9080231Y-20530624D01*
X9080231Y-20530624D02*
X9099278Y-20540147D01*
X9099278Y-20540147D02*
X9108802Y-20549671D01*
X9108802Y-20549671D02*
X9118326Y-20568719D01*
X9118326Y-20568719D02*
X9118326Y-20587766D01*
X9118326Y-20587766D02*
X9108802Y-20616338D01*
X9108802Y-20616338D02*
X8994516Y-20730624D01*
X8994516Y-20730624D02*
X9118326Y-20730624D01*
X9204040Y-20711576D02*
X9213564Y-20721100D01*
X9213564Y-20721100D02*
X9204040Y-20730624D01*
X9204040Y-20730624D02*
X9194516Y-20721100D01*
X9194516Y-20721100D02*
X9204040Y-20711576D01*
X9204040Y-20711576D02*
X9204040Y-20730624D01*
X9280231Y-20530624D02*
X9404040Y-20530624D01*
X9404040Y-20530624D02*
X9337374Y-20606814D01*
X9337374Y-20606814D02*
X9365945Y-20606814D01*
X9365945Y-20606814D02*
X9384993Y-20616338D01*
X9384993Y-20616338D02*
X9394516Y-20625862D01*
X9394516Y-20625862D02*
X9404040Y-20644909D01*
X9404040Y-20644909D02*
X9404040Y-20692528D01*
X9404040Y-20692528D02*
X9394516Y-20711576D01*
X9394516Y-20711576D02*
X9384993Y-20721100D01*
X9384993Y-20721100D02*
X9365945Y-20730624D01*
X9365945Y-20730624D02*
X9308802Y-20730624D01*
X9308802Y-20730624D02*
X9289755Y-20721100D01*
X9289755Y-20721100D02*
X9280231Y-20711576D01*
X9518326Y-20616338D02*
X9499278Y-20606814D01*
X9499278Y-20606814D02*
X9489755Y-20597290D01*
X9489755Y-20597290D02*
X9480231Y-20578243D01*
X9480231Y-20578243D02*
X9480231Y-20568719D01*
X9480231Y-20568719D02*
X9489755Y-20549671D01*
X9489755Y-20549671D02*
X9499278Y-20540147D01*
X9499278Y-20540147D02*
X9518326Y-20530624D01*
X9518326Y-20530624D02*
X9556421Y-20530624D01*
X9556421Y-20530624D02*
X9575469Y-20540147D01*
X9575469Y-20540147D02*
X9584993Y-20549671D01*
X9584993Y-20549671D02*
X9594516Y-20568719D01*
X9594516Y-20568719D02*
X9594516Y-20578243D01*
X9594516Y-20578243D02*
X9584993Y-20597290D01*
X9584993Y-20597290D02*
X9575469Y-20606814D01*
X9575469Y-20606814D02*
X9556421Y-20616338D01*
X9556421Y-20616338D02*
X9518326Y-20616338D01*
X9518326Y-20616338D02*
X9499278Y-20625862D01*
X9499278Y-20625862D02*
X9489755Y-20635386D01*
X9489755Y-20635386D02*
X9480231Y-20654433D01*
X9480231Y-20654433D02*
X9480231Y-20692528D01*
X9480231Y-20692528D02*
X9489755Y-20711576D01*
X9489755Y-20711576D02*
X9499278Y-20721100D01*
X9499278Y-20721100D02*
X9518326Y-20730624D01*
X9518326Y-20730624D02*
X9556421Y-20730624D01*
X9556421Y-20730624D02*
X9575469Y-20721100D01*
X9575469Y-20721100D02*
X9584993Y-20711576D01*
X9584993Y-20711576D02*
X9594516Y-20692528D01*
X9594516Y-20692528D02*
X9594516Y-20654433D01*
X9594516Y-20654433D02*
X9584993Y-20635386D01*
X9584993Y-20635386D02*
X9575469Y-20625862D01*
X9575469Y-20625862D02*
X9556421Y-20616338D01*
X9718326Y-20530624D02*
X9737374Y-20530624D01*
X9737374Y-20530624D02*
X9756421Y-20540147D01*
X9756421Y-20540147D02*
X9765945Y-20549671D01*
X9765945Y-20549671D02*
X9775469Y-20568719D01*
X9775469Y-20568719D02*
X9784993Y-20606814D01*
X9784993Y-20606814D02*
X9784993Y-20654433D01*
X9784993Y-20654433D02*
X9775469Y-20692528D01*
X9775469Y-20692528D02*
X9765945Y-20711576D01*
X9765945Y-20711576D02*
X9756421Y-20721100D01*
X9756421Y-20721100D02*
X9737374Y-20730624D01*
X9737374Y-20730624D02*
X9718326Y-20730624D01*
X9718326Y-20730624D02*
X9699278Y-20721100D01*
X9699278Y-20721100D02*
X9689755Y-20711576D01*
X9689755Y-20711576D02*
X9680231Y-20692528D01*
X9680231Y-20692528D02*
X9670707Y-20654433D01*
X9670707Y-20654433D02*
X9670707Y-20606814D01*
X9670707Y-20606814D02*
X9680231Y-20568719D01*
X9680231Y-20568719D02*
X9689755Y-20549671D01*
X9689755Y-20549671D02*
X9699278Y-20540147D01*
X9699278Y-20540147D02*
X9718326Y-20530624D01*
X9870707Y-20730624D02*
X9870707Y-20597290D01*
X9870707Y-20616338D02*
X9880231Y-20606814D01*
X9880231Y-20606814D02*
X9899278Y-20597290D01*
X9899278Y-20597290D02*
X9927850Y-20597290D01*
X9927850Y-20597290D02*
X9946897Y-20606814D01*
X9946897Y-20606814D02*
X9956421Y-20625862D01*
X9956421Y-20625862D02*
X9956421Y-20730624D01*
X9956421Y-20625862D02*
X9965945Y-20606814D01*
X9965945Y-20606814D02*
X9984993Y-20597290D01*
X9984993Y-20597290D02*
X10013564Y-20597290D01*
X10013564Y-20597290D02*
X10032612Y-20606814D01*
X10032612Y-20606814D02*
X10042136Y-20625862D01*
X10042136Y-20625862D02*
X10042136Y-20730624D01*
X10137374Y-20730624D02*
X10137374Y-20597290D01*
X10137374Y-20616338D02*
X10146897Y-20606814D01*
X10146897Y-20606814D02*
X10165945Y-20597290D01*
X10165945Y-20597290D02*
X10194517Y-20597290D01*
X10194517Y-20597290D02*
X10213564Y-20606814D01*
X10213564Y-20606814D02*
X10223088Y-20625862D01*
X10223088Y-20625862D02*
X10223088Y-20730624D01*
X10223088Y-20625862D02*
X10232612Y-20606814D01*
X10232612Y-20606814D02*
X10251659Y-20597290D01*
X10251659Y-20597290D02*
X10280231Y-20597290D01*
X10280231Y-20597290D02*
X10299278Y-20606814D01*
X10299278Y-20606814D02*
X10308802Y-20625862D01*
X10308802Y-20625862D02*
X10308802Y-20730624D01*
X10699278Y-20521100D02*
X10527850Y-20778243D01*
X10956421Y-20530624D02*
X10975469Y-20530624D01*
X10975469Y-20530624D02*
X10994517Y-20540147D01*
X10994517Y-20540147D02*
X11004040Y-20549671D01*
X11004040Y-20549671D02*
X11013564Y-20568719D01*
X11013564Y-20568719D02*
X11023088Y-20606814D01*
X11023088Y-20606814D02*
X11023088Y-20654433D01*
X11023088Y-20654433D02*
X11013564Y-20692528D01*
X11013564Y-20692528D02*
X11004040Y-20711576D01*
X11004040Y-20711576D02*
X10994517Y-20721100D01*
X10994517Y-20721100D02*
X10975469Y-20730624D01*
X10975469Y-20730624D02*
X10956421Y-20730624D01*
X10956421Y-20730624D02*
X10937374Y-20721100D01*
X10937374Y-20721100D02*
X10927850Y-20711576D01*
X10927850Y-20711576D02*
X10918326Y-20692528D01*
X10918326Y-20692528D02*
X10908802Y-20654433D01*
X10908802Y-20654433D02*
X10908802Y-20606814D01*
X10908802Y-20606814D02*
X10918326Y-20568719D01*
X10918326Y-20568719D02*
X10927850Y-20549671D01*
X10927850Y-20549671D02*
X10937374Y-20540147D01*
X10937374Y-20540147D02*
X10956421Y-20530624D01*
X11108802Y-20711576D02*
X11118326Y-20721100D01*
X11118326Y-20721100D02*
X11108802Y-20730624D01*
X11108802Y-20730624D02*
X11099279Y-20721100D01*
X11099279Y-20721100D02*
X11108802Y-20711576D01*
X11108802Y-20711576D02*
X11108802Y-20730624D01*
X11242136Y-20530624D02*
X11261183Y-20530624D01*
X11261183Y-20530624D02*
X11280231Y-20540147D01*
X11280231Y-20540147D02*
X11289755Y-20549671D01*
X11289755Y-20549671D02*
X11299278Y-20568719D01*
X11299278Y-20568719D02*
X11308802Y-20606814D01*
X11308802Y-20606814D02*
X11308802Y-20654433D01*
X11308802Y-20654433D02*
X11299278Y-20692528D01*
X11299278Y-20692528D02*
X11289755Y-20711576D01*
X11289755Y-20711576D02*
X11280231Y-20721100D01*
X11280231Y-20721100D02*
X11261183Y-20730624D01*
X11261183Y-20730624D02*
X11242136Y-20730624D01*
X11242136Y-20730624D02*
X11223088Y-20721100D01*
X11223088Y-20721100D02*
X11213564Y-20711576D01*
X11213564Y-20711576D02*
X11204040Y-20692528D01*
X11204040Y-20692528D02*
X11194517Y-20654433D01*
X11194517Y-20654433D02*
X11194517Y-20606814D01*
X11194517Y-20606814D02*
X11204040Y-20568719D01*
X11204040Y-20568719D02*
X11213564Y-20549671D01*
X11213564Y-20549671D02*
X11223088Y-20540147D01*
X11223088Y-20540147D02*
X11242136Y-20530624D01*
X11404040Y-20730624D02*
X11442136Y-20730624D01*
X11442136Y-20730624D02*
X11461183Y-20721100D01*
X11461183Y-20721100D02*
X11470707Y-20711576D01*
X11470707Y-20711576D02*
X11489755Y-20683005D01*
X11489755Y-20683005D02*
X11499278Y-20644909D01*
X11499278Y-20644909D02*
X11499278Y-20568719D01*
X11499278Y-20568719D02*
X11489755Y-20549671D01*
X11489755Y-20549671D02*
X11480231Y-20540147D01*
X11480231Y-20540147D02*
X11461183Y-20530624D01*
X11461183Y-20530624D02*
X11423088Y-20530624D01*
X11423088Y-20530624D02*
X11404040Y-20540147D01*
X11404040Y-20540147D02*
X11394517Y-20549671D01*
X11394517Y-20549671D02*
X11384993Y-20568719D01*
X11384993Y-20568719D02*
X11384993Y-20616338D01*
X11384993Y-20616338D02*
X11394517Y-20635386D01*
X11394517Y-20635386D02*
X11404040Y-20644909D01*
X11404040Y-20644909D02*
X11423088Y-20654433D01*
X11423088Y-20654433D02*
X11461183Y-20654433D01*
X11461183Y-20654433D02*
X11480231Y-20644909D01*
X11480231Y-20644909D02*
X11489755Y-20635386D01*
X11489755Y-20635386D02*
X11499278Y-20616338D01*
X11565945Y-20530624D02*
X11689755Y-20530624D01*
X11689755Y-20530624D02*
X11623088Y-20606814D01*
X11623088Y-20606814D02*
X11651659Y-20606814D01*
X11651659Y-20606814D02*
X11670707Y-20616338D01*
X11670707Y-20616338D02*
X11680231Y-20625862D01*
X11680231Y-20625862D02*
X11689755Y-20644909D01*
X11689755Y-20644909D02*
X11689755Y-20692528D01*
X11689755Y-20692528D02*
X11680231Y-20711576D01*
X11680231Y-20711576D02*
X11670707Y-20721100D01*
X11670707Y-20721100D02*
X11651659Y-20730624D01*
X11651659Y-20730624D02*
X11594517Y-20730624D01*
X11594517Y-20730624D02*
X11575469Y-20721100D01*
X11575469Y-20721100D02*
X11565945Y-20711576D01*
X11756421Y-20530624D02*
X11889755Y-20530624D01*
X11889755Y-20530624D02*
X11804040Y-20730624D01*
X11956421Y-20530624D02*
X11956421Y-20568719D01*
X12032612Y-20530624D02*
X12032612Y-20568719D01*
X12327850Y-20806814D02*
X12318326Y-20797290D01*
X12318326Y-20797290D02*
X12299279Y-20768719D01*
X12299279Y-20768719D02*
X12289755Y-20749671D01*
X12289755Y-20749671D02*
X12280231Y-20721100D01*
X12280231Y-20721100D02*
X12270707Y-20673481D01*
X12270707Y-20673481D02*
X12270707Y-20635386D01*
X12270707Y-20635386D02*
X12280231Y-20587766D01*
X12280231Y-20587766D02*
X12289755Y-20559195D01*
X12289755Y-20559195D02*
X12299279Y-20540147D01*
X12299279Y-20540147D02*
X12318326Y-20511576D01*
X12318326Y-20511576D02*
X12327850Y-20502052D01*
X12384993Y-20530624D02*
X12508802Y-20530624D01*
X12508802Y-20530624D02*
X12442136Y-20606814D01*
X12442136Y-20606814D02*
X12470707Y-20606814D01*
X12470707Y-20606814D02*
X12489755Y-20616338D01*
X12489755Y-20616338D02*
X12499279Y-20625862D01*
X12499279Y-20625862D02*
X12508802Y-20644909D01*
X12508802Y-20644909D02*
X12508802Y-20692528D01*
X12508802Y-20692528D02*
X12499279Y-20711576D01*
X12499279Y-20711576D02*
X12489755Y-20721100D01*
X12489755Y-20721100D02*
X12470707Y-20730624D01*
X12470707Y-20730624D02*
X12413564Y-20730624D01*
X12413564Y-20730624D02*
X12394517Y-20721100D01*
X12394517Y-20721100D02*
X12384993Y-20711576D01*
X12746898Y-20730624D02*
X12746898Y-20530624D01*
X12832612Y-20730624D02*
X12832612Y-20625862D01*
X12832612Y-20625862D02*
X12823088Y-20606814D01*
X12823088Y-20606814D02*
X12804041Y-20597290D01*
X12804041Y-20597290D02*
X12775469Y-20597290D01*
X12775469Y-20597290D02*
X12756421Y-20606814D01*
X12756421Y-20606814D02*
X12746898Y-20616338D01*
X12956421Y-20730624D02*
X12937374Y-20721100D01*
X12937374Y-20721100D02*
X12927850Y-20711576D01*
X12927850Y-20711576D02*
X12918326Y-20692528D01*
X12918326Y-20692528D02*
X12918326Y-20635386D01*
X12918326Y-20635386D02*
X12927850Y-20616338D01*
X12927850Y-20616338D02*
X12937374Y-20606814D01*
X12937374Y-20606814D02*
X12956421Y-20597290D01*
X12956421Y-20597290D02*
X12984993Y-20597290D01*
X12984993Y-20597290D02*
X13004041Y-20606814D01*
X13004041Y-20606814D02*
X13013564Y-20616338D01*
X13013564Y-20616338D02*
X13023088Y-20635386D01*
X13023088Y-20635386D02*
X13023088Y-20692528D01*
X13023088Y-20692528D02*
X13013564Y-20711576D01*
X13013564Y-20711576D02*
X13004041Y-20721100D01*
X13004041Y-20721100D02*
X12984993Y-20730624D01*
X12984993Y-20730624D02*
X12956421Y-20730624D01*
X13137374Y-20730624D02*
X13118326Y-20721100D01*
X13118326Y-20721100D02*
X13108802Y-20702052D01*
X13108802Y-20702052D02*
X13108802Y-20530624D01*
X13289755Y-20721100D02*
X13270707Y-20730624D01*
X13270707Y-20730624D02*
X13232612Y-20730624D01*
X13232612Y-20730624D02*
X13213564Y-20721100D01*
X13213564Y-20721100D02*
X13204041Y-20702052D01*
X13204041Y-20702052D02*
X13204041Y-20625862D01*
X13204041Y-20625862D02*
X13213564Y-20606814D01*
X13213564Y-20606814D02*
X13232612Y-20597290D01*
X13232612Y-20597290D02*
X13270707Y-20597290D01*
X13270707Y-20597290D02*
X13289755Y-20606814D01*
X13289755Y-20606814D02*
X13299279Y-20625862D01*
X13299279Y-20625862D02*
X13299279Y-20644909D01*
X13299279Y-20644909D02*
X13204041Y-20663957D01*
X13375469Y-20721100D02*
X13394517Y-20730624D01*
X13394517Y-20730624D02*
X13432612Y-20730624D01*
X13432612Y-20730624D02*
X13451660Y-20721100D01*
X13451660Y-20721100D02*
X13461183Y-20702052D01*
X13461183Y-20702052D02*
X13461183Y-20692528D01*
X13461183Y-20692528D02*
X13451660Y-20673481D01*
X13451660Y-20673481D02*
X13432612Y-20663957D01*
X13432612Y-20663957D02*
X13404041Y-20663957D01*
X13404041Y-20663957D02*
X13384993Y-20654433D01*
X13384993Y-20654433D02*
X13375469Y-20635386D01*
X13375469Y-20635386D02*
X13375469Y-20625862D01*
X13375469Y-20625862D02*
X13384993Y-20606814D01*
X13384993Y-20606814D02*
X13404041Y-20597290D01*
X13404041Y-20597290D02*
X13432612Y-20597290D01*
X13432612Y-20597290D02*
X13451660Y-20606814D01*
X13527850Y-20806814D02*
X13537374Y-20797290D01*
X13537374Y-20797290D02*
X13556422Y-20768719D01*
X13556422Y-20768719D02*
X13565945Y-20749671D01*
X13565945Y-20749671D02*
X13575469Y-20721100D01*
X13575469Y-20721100D02*
X13584993Y-20673481D01*
X13584993Y-20673481D02*
X13584993Y-20635386D01*
X13584993Y-20635386D02*
X13575469Y-20587766D01*
X13575469Y-20587766D02*
X13565945Y-20559195D01*
X13565945Y-20559195D02*
X13556422Y-20540147D01*
X13556422Y-20540147D02*
X13537374Y-20511576D01*
X13537374Y-20511576D02*
X13527850Y-20502052D01*
X13889755Y-20806814D02*
X13880231Y-20797290D01*
X13880231Y-20797290D02*
X13861183Y-20768719D01*
X13861183Y-20768719D02*
X13851660Y-20749671D01*
X13851660Y-20749671D02*
X13842136Y-20721100D01*
X13842136Y-20721100D02*
X13832612Y-20673481D01*
X13832612Y-20673481D02*
X13832612Y-20635386D01*
X13832612Y-20635386D02*
X13842136Y-20587766D01*
X13842136Y-20587766D02*
X13851660Y-20559195D01*
X13851660Y-20559195D02*
X13861183Y-20540147D01*
X13861183Y-20540147D02*
X13880231Y-20511576D01*
X13880231Y-20511576D02*
X13889755Y-20502052D01*
X13965945Y-20597290D02*
X13965945Y-20730624D01*
X13965945Y-20616338D02*
X13975469Y-20606814D01*
X13975469Y-20606814D02*
X13994517Y-20597290D01*
X13994517Y-20597290D02*
X14023088Y-20597290D01*
X14023088Y-20597290D02*
X14042136Y-20606814D01*
X14042136Y-20606814D02*
X14051660Y-20625862D01*
X14051660Y-20625862D02*
X14051660Y-20730624D01*
X14175469Y-20730624D02*
X14156422Y-20721100D01*
X14156422Y-20721100D02*
X14146898Y-20711576D01*
X14146898Y-20711576D02*
X14137374Y-20692528D01*
X14137374Y-20692528D02*
X14137374Y-20635386D01*
X14137374Y-20635386D02*
X14146898Y-20616338D01*
X14146898Y-20616338D02*
X14156422Y-20606814D01*
X14156422Y-20606814D02*
X14175469Y-20597290D01*
X14175469Y-20597290D02*
X14204041Y-20597290D01*
X14204041Y-20597290D02*
X14223088Y-20606814D01*
X14223088Y-20606814D02*
X14232612Y-20616338D01*
X14232612Y-20616338D02*
X14242136Y-20635386D01*
X14242136Y-20635386D02*
X14242136Y-20692528D01*
X14242136Y-20692528D02*
X14232612Y-20711576D01*
X14232612Y-20711576D02*
X14223088Y-20721100D01*
X14223088Y-20721100D02*
X14204041Y-20730624D01*
X14204041Y-20730624D02*
X14175469Y-20730624D01*
X14299279Y-20597290D02*
X14375469Y-20597290D01*
X14327850Y-20530624D02*
X14327850Y-20702052D01*
X14327850Y-20702052D02*
X14337374Y-20721100D01*
X14337374Y-20721100D02*
X14356422Y-20730624D01*
X14356422Y-20730624D02*
X14375469Y-20730624D01*
X14594517Y-20597290D02*
X14594517Y-20797290D01*
X14594517Y-20606814D02*
X14613564Y-20597290D01*
X14613564Y-20597290D02*
X14651660Y-20597290D01*
X14651660Y-20597290D02*
X14670707Y-20606814D01*
X14670707Y-20606814D02*
X14680231Y-20616338D01*
X14680231Y-20616338D02*
X14689755Y-20635386D01*
X14689755Y-20635386D02*
X14689755Y-20692528D01*
X14689755Y-20692528D02*
X14680231Y-20711576D01*
X14680231Y-20711576D02*
X14670707Y-20721100D01*
X14670707Y-20721100D02*
X14651660Y-20730624D01*
X14651660Y-20730624D02*
X14613564Y-20730624D01*
X14613564Y-20730624D02*
X14594517Y-20721100D01*
X14804041Y-20730624D02*
X14784993Y-20721100D01*
X14784993Y-20721100D02*
X14775469Y-20702052D01*
X14775469Y-20702052D02*
X14775469Y-20530624D01*
X14965945Y-20730624D02*
X14965945Y-20625862D01*
X14965945Y-20625862D02*
X14956422Y-20606814D01*
X14956422Y-20606814D02*
X14937374Y-20597290D01*
X14937374Y-20597290D02*
X14899279Y-20597290D01*
X14899279Y-20597290D02*
X14880231Y-20606814D01*
X14965945Y-20721100D02*
X14946898Y-20730624D01*
X14946898Y-20730624D02*
X14899279Y-20730624D01*
X14899279Y-20730624D02*
X14880231Y-20721100D01*
X14880231Y-20721100D02*
X14870707Y-20702052D01*
X14870707Y-20702052D02*
X14870707Y-20683005D01*
X14870707Y-20683005D02*
X14880231Y-20663957D01*
X14880231Y-20663957D02*
X14899279Y-20654433D01*
X14899279Y-20654433D02*
X14946898Y-20654433D01*
X14946898Y-20654433D02*
X14965945Y-20644909D01*
X15032612Y-20597290D02*
X15108803Y-20597290D01*
X15061184Y-20530624D02*
X15061184Y-20702052D01*
X15061184Y-20702052D02*
X15070707Y-20721100D01*
X15070707Y-20721100D02*
X15089755Y-20730624D01*
X15089755Y-20730624D02*
X15108803Y-20730624D01*
X15251660Y-20721100D02*
X15232612Y-20730624D01*
X15232612Y-20730624D02*
X15194517Y-20730624D01*
X15194517Y-20730624D02*
X15175469Y-20721100D01*
X15175469Y-20721100D02*
X15165945Y-20702052D01*
X15165945Y-20702052D02*
X15165945Y-20625862D01*
X15165945Y-20625862D02*
X15175469Y-20606814D01*
X15175469Y-20606814D02*
X15194517Y-20597290D01*
X15194517Y-20597290D02*
X15232612Y-20597290D01*
X15232612Y-20597290D02*
X15251660Y-20606814D01*
X15251660Y-20606814D02*
X15261184Y-20625862D01*
X15261184Y-20625862D02*
X15261184Y-20644909D01*
X15261184Y-20644909D02*
X15165945Y-20663957D01*
X15432612Y-20730624D02*
X15432612Y-20530624D01*
X15432612Y-20721100D02*
X15413565Y-20730624D01*
X15413565Y-20730624D02*
X15375469Y-20730624D01*
X15375469Y-20730624D02*
X15356422Y-20721100D01*
X15356422Y-20721100D02*
X15346898Y-20711576D01*
X15346898Y-20711576D02*
X15337374Y-20692528D01*
X15337374Y-20692528D02*
X15337374Y-20635386D01*
X15337374Y-20635386D02*
X15346898Y-20616338D01*
X15346898Y-20616338D02*
X15356422Y-20606814D01*
X15356422Y-20606814D02*
X15375469Y-20597290D01*
X15375469Y-20597290D02*
X15413565Y-20597290D01*
X15413565Y-20597290D02*
X15432612Y-20606814D01*
X15508803Y-20806814D02*
X15518326Y-20797290D01*
X15518326Y-20797290D02*
X15537374Y-20768719D01*
X15537374Y-20768719D02*
X15546898Y-20749671D01*
X15546898Y-20749671D02*
X15556422Y-20721100D01*
X15556422Y-20721100D02*
X15565945Y-20673481D01*
X15565945Y-20673481D02*
X15565945Y-20635386D01*
X15565945Y-20635386D02*
X15556422Y-20587766D01*
X15556422Y-20587766D02*
X15546898Y-20559195D01*
X15546898Y-20559195D02*
X15537374Y-20540147D01*
X15537374Y-20540147D02*
X15518326Y-20511576D01*
X15518326Y-20511576D02*
X15508803Y-20502052D01*
X8752787Y-20959140D02*
G75*
G02*
X8552787Y-20959140I-100000J0D01*
G01*
X8552787Y-20959140D02*
G75*
G02*
X8752787Y-20959140I100000J0D01*
G01*
X9099278Y-20917290D02*
X9099278Y-21050624D01*
X9051659Y-20841100D02*
X9004040Y-20983957D01*
X9004040Y-20983957D02*
X9127850Y-20983957D01*
X9204040Y-21031576D02*
X9213564Y-21041100D01*
X9213564Y-21041100D02*
X9204040Y-21050624D01*
X9204040Y-21050624D02*
X9194516Y-21041100D01*
X9194516Y-21041100D02*
X9204040Y-21031576D01*
X9204040Y-21031576D02*
X9204040Y-21050624D01*
X9394516Y-20850624D02*
X9299278Y-20850624D01*
X9299278Y-20850624D02*
X9289755Y-20945862D01*
X9289755Y-20945862D02*
X9299278Y-20936338D01*
X9299278Y-20936338D02*
X9318326Y-20926814D01*
X9318326Y-20926814D02*
X9365945Y-20926814D01*
X9365945Y-20926814D02*
X9384993Y-20936338D01*
X9384993Y-20936338D02*
X9394516Y-20945862D01*
X9394516Y-20945862D02*
X9404040Y-20964909D01*
X9404040Y-20964909D02*
X9404040Y-21012528D01*
X9404040Y-21012528D02*
X9394516Y-21031576D01*
X9394516Y-21031576D02*
X9384993Y-21041100D01*
X9384993Y-21041100D02*
X9365945Y-21050624D01*
X9365945Y-21050624D02*
X9318326Y-21050624D01*
X9318326Y-21050624D02*
X9299278Y-21041100D01*
X9299278Y-21041100D02*
X9289755Y-21031576D01*
X9527850Y-20850624D02*
X9546897Y-20850624D01*
X9546897Y-20850624D02*
X9565945Y-20860147D01*
X9565945Y-20860147D02*
X9575469Y-20869671D01*
X9575469Y-20869671D02*
X9584993Y-20888719D01*
X9584993Y-20888719D02*
X9594516Y-20926814D01*
X9594516Y-20926814D02*
X9594516Y-20974433D01*
X9594516Y-20974433D02*
X9584993Y-21012528D01*
X9584993Y-21012528D02*
X9575469Y-21031576D01*
X9575469Y-21031576D02*
X9565945Y-21041100D01*
X9565945Y-21041100D02*
X9546897Y-21050624D01*
X9546897Y-21050624D02*
X9527850Y-21050624D01*
X9527850Y-21050624D02*
X9508802Y-21041100D01*
X9508802Y-21041100D02*
X9499278Y-21031576D01*
X9499278Y-21031576D02*
X9489755Y-21012528D01*
X9489755Y-21012528D02*
X9480231Y-20974433D01*
X9480231Y-20974433D02*
X9480231Y-20926814D01*
X9480231Y-20926814D02*
X9489755Y-20888719D01*
X9489755Y-20888719D02*
X9499278Y-20869671D01*
X9499278Y-20869671D02*
X9508802Y-20860147D01*
X9508802Y-20860147D02*
X9527850Y-20850624D01*
X9718326Y-20850624D02*
X9737374Y-20850624D01*
X9737374Y-20850624D02*
X9756421Y-20860147D01*
X9756421Y-20860147D02*
X9765945Y-20869671D01*
X9765945Y-20869671D02*
X9775469Y-20888719D01*
X9775469Y-20888719D02*
X9784993Y-20926814D01*
X9784993Y-20926814D02*
X9784993Y-20974433D01*
X9784993Y-20974433D02*
X9775469Y-21012528D01*
X9775469Y-21012528D02*
X9765945Y-21031576D01*
X9765945Y-21031576D02*
X9756421Y-21041100D01*
X9756421Y-21041100D02*
X9737374Y-21050624D01*
X9737374Y-21050624D02*
X9718326Y-21050624D01*
X9718326Y-21050624D02*
X9699278Y-21041100D01*
X9699278Y-21041100D02*
X9689755Y-21031576D01*
X9689755Y-21031576D02*
X9680231Y-21012528D01*
X9680231Y-21012528D02*
X9670707Y-20974433D01*
X9670707Y-20974433D02*
X9670707Y-20926814D01*
X9670707Y-20926814D02*
X9680231Y-20888719D01*
X9680231Y-20888719D02*
X9689755Y-20869671D01*
X9689755Y-20869671D02*
X9699278Y-20860147D01*
X9699278Y-20860147D02*
X9718326Y-20850624D01*
X9870707Y-21050624D02*
X9870707Y-20917290D01*
X9870707Y-20936338D02*
X9880231Y-20926814D01*
X9880231Y-20926814D02*
X9899278Y-20917290D01*
X9899278Y-20917290D02*
X9927850Y-20917290D01*
X9927850Y-20917290D02*
X9946897Y-20926814D01*
X9946897Y-20926814D02*
X9956421Y-20945862D01*
X9956421Y-20945862D02*
X9956421Y-21050624D01*
X9956421Y-20945862D02*
X9965945Y-20926814D01*
X9965945Y-20926814D02*
X9984993Y-20917290D01*
X9984993Y-20917290D02*
X10013564Y-20917290D01*
X10013564Y-20917290D02*
X10032612Y-20926814D01*
X10032612Y-20926814D02*
X10042136Y-20945862D01*
X10042136Y-20945862D02*
X10042136Y-21050624D01*
X10137374Y-21050624D02*
X10137374Y-20917290D01*
X10137374Y-20936338D02*
X10146897Y-20926814D01*
X10146897Y-20926814D02*
X10165945Y-20917290D01*
X10165945Y-20917290D02*
X10194517Y-20917290D01*
X10194517Y-20917290D02*
X10213564Y-20926814D01*
X10213564Y-20926814D02*
X10223088Y-20945862D01*
X10223088Y-20945862D02*
X10223088Y-21050624D01*
X10223088Y-20945862D02*
X10232612Y-20926814D01*
X10232612Y-20926814D02*
X10251659Y-20917290D01*
X10251659Y-20917290D02*
X10280231Y-20917290D01*
X10280231Y-20917290D02*
X10299278Y-20926814D01*
X10299278Y-20926814D02*
X10308802Y-20945862D01*
X10308802Y-20945862D02*
X10308802Y-21050624D01*
X10699278Y-20841100D02*
X10527850Y-21098243D01*
X10956421Y-20850624D02*
X10975469Y-20850624D01*
X10975469Y-20850624D02*
X10994517Y-20860147D01*
X10994517Y-20860147D02*
X11004040Y-20869671D01*
X11004040Y-20869671D02*
X11013564Y-20888719D01*
X11013564Y-20888719D02*
X11023088Y-20926814D01*
X11023088Y-20926814D02*
X11023088Y-20974433D01*
X11023088Y-20974433D02*
X11013564Y-21012528D01*
X11013564Y-21012528D02*
X11004040Y-21031576D01*
X11004040Y-21031576D02*
X10994517Y-21041100D01*
X10994517Y-21041100D02*
X10975469Y-21050624D01*
X10975469Y-21050624D02*
X10956421Y-21050624D01*
X10956421Y-21050624D02*
X10937374Y-21041100D01*
X10937374Y-21041100D02*
X10927850Y-21031576D01*
X10927850Y-21031576D02*
X10918326Y-21012528D01*
X10918326Y-21012528D02*
X10908802Y-20974433D01*
X10908802Y-20974433D02*
X10908802Y-20926814D01*
X10908802Y-20926814D02*
X10918326Y-20888719D01*
X10918326Y-20888719D02*
X10927850Y-20869671D01*
X10927850Y-20869671D02*
X10937374Y-20860147D01*
X10937374Y-20860147D02*
X10956421Y-20850624D01*
X11108802Y-21031576D02*
X11118326Y-21041100D01*
X11118326Y-21041100D02*
X11108802Y-21050624D01*
X11108802Y-21050624D02*
X11099279Y-21041100D01*
X11099279Y-21041100D02*
X11108802Y-21031576D01*
X11108802Y-21031576D02*
X11108802Y-21050624D01*
X11308802Y-21050624D02*
X11194517Y-21050624D01*
X11251659Y-21050624D02*
X11251659Y-20850624D01*
X11251659Y-20850624D02*
X11232612Y-20879195D01*
X11232612Y-20879195D02*
X11213564Y-20898243D01*
X11213564Y-20898243D02*
X11194517Y-20907766D01*
X11375469Y-20850624D02*
X11508802Y-20850624D01*
X11508802Y-20850624D02*
X11423088Y-21050624D01*
X11565945Y-20850624D02*
X11699278Y-20850624D01*
X11699278Y-20850624D02*
X11613564Y-21050624D01*
X11765945Y-20869671D02*
X11775469Y-20860147D01*
X11775469Y-20860147D02*
X11794517Y-20850624D01*
X11794517Y-20850624D02*
X11842136Y-20850624D01*
X11842136Y-20850624D02*
X11861183Y-20860147D01*
X11861183Y-20860147D02*
X11870707Y-20869671D01*
X11870707Y-20869671D02*
X11880231Y-20888719D01*
X11880231Y-20888719D02*
X11880231Y-20907766D01*
X11880231Y-20907766D02*
X11870707Y-20936338D01*
X11870707Y-20936338D02*
X11756421Y-21050624D01*
X11756421Y-21050624D02*
X11880231Y-21050624D01*
X11956421Y-20850624D02*
X11956421Y-20888719D01*
X12032612Y-20850624D02*
X12032612Y-20888719D01*
X12327850Y-21126814D02*
X12318326Y-21117290D01*
X12318326Y-21117290D02*
X12299279Y-21088719D01*
X12299279Y-21088719D02*
X12289755Y-21069671D01*
X12289755Y-21069671D02*
X12280231Y-21041100D01*
X12280231Y-21041100D02*
X12270707Y-20993481D01*
X12270707Y-20993481D02*
X12270707Y-20955386D01*
X12270707Y-20955386D02*
X12280231Y-20907766D01*
X12280231Y-20907766D02*
X12289755Y-20879195D01*
X12289755Y-20879195D02*
X12299279Y-20860147D01*
X12299279Y-20860147D02*
X12318326Y-20831576D01*
X12318326Y-20831576D02*
X12327850Y-20822052D01*
X12489755Y-20917290D02*
X12489755Y-21050624D01*
X12442136Y-20841100D02*
X12394517Y-20983957D01*
X12394517Y-20983957D02*
X12518326Y-20983957D01*
X12746898Y-21050624D02*
X12746898Y-20850624D01*
X12832612Y-21050624D02*
X12832612Y-20945862D01*
X12832612Y-20945862D02*
X12823088Y-20926814D01*
X12823088Y-20926814D02*
X12804041Y-20917290D01*
X12804041Y-20917290D02*
X12775469Y-20917290D01*
X12775469Y-20917290D02*
X12756421Y-20926814D01*
X12756421Y-20926814D02*
X12746898Y-20936338D01*
X12956421Y-21050624D02*
X12937374Y-21041100D01*
X12937374Y-21041100D02*
X12927850Y-21031576D01*
X12927850Y-21031576D02*
X12918326Y-21012528D01*
X12918326Y-21012528D02*
X12918326Y-20955386D01*
X12918326Y-20955386D02*
X12927850Y-20936338D01*
X12927850Y-20936338D02*
X12937374Y-20926814D01*
X12937374Y-20926814D02*
X12956421Y-20917290D01*
X12956421Y-20917290D02*
X12984993Y-20917290D01*
X12984993Y-20917290D02*
X13004041Y-20926814D01*
X13004041Y-20926814D02*
X13013564Y-20936338D01*
X13013564Y-20936338D02*
X13023088Y-20955386D01*
X13023088Y-20955386D02*
X13023088Y-21012528D01*
X13023088Y-21012528D02*
X13013564Y-21031576D01*
X13013564Y-21031576D02*
X13004041Y-21041100D01*
X13004041Y-21041100D02*
X12984993Y-21050624D01*
X12984993Y-21050624D02*
X12956421Y-21050624D01*
X13137374Y-21050624D02*
X13118326Y-21041100D01*
X13118326Y-21041100D02*
X13108802Y-21022052D01*
X13108802Y-21022052D02*
X13108802Y-20850624D01*
X13289755Y-21041100D02*
X13270707Y-21050624D01*
X13270707Y-21050624D02*
X13232612Y-21050624D01*
X13232612Y-21050624D02*
X13213564Y-21041100D01*
X13213564Y-21041100D02*
X13204041Y-21022052D01*
X13204041Y-21022052D02*
X13204041Y-20945862D01*
X13204041Y-20945862D02*
X13213564Y-20926814D01*
X13213564Y-20926814D02*
X13232612Y-20917290D01*
X13232612Y-20917290D02*
X13270707Y-20917290D01*
X13270707Y-20917290D02*
X13289755Y-20926814D01*
X13289755Y-20926814D02*
X13299279Y-20945862D01*
X13299279Y-20945862D02*
X13299279Y-20964909D01*
X13299279Y-20964909D02*
X13204041Y-20983957D01*
X13375469Y-21041100D02*
X13394517Y-21050624D01*
X13394517Y-21050624D02*
X13432612Y-21050624D01*
X13432612Y-21050624D02*
X13451660Y-21041100D01*
X13451660Y-21041100D02*
X13461183Y-21022052D01*
X13461183Y-21022052D02*
X13461183Y-21012528D01*
X13461183Y-21012528D02*
X13451660Y-20993481D01*
X13451660Y-20993481D02*
X13432612Y-20983957D01*
X13432612Y-20983957D02*
X13404041Y-20983957D01*
X13404041Y-20983957D02*
X13384993Y-20974433D01*
X13384993Y-20974433D02*
X13375469Y-20955386D01*
X13375469Y-20955386D02*
X13375469Y-20945862D01*
X13375469Y-20945862D02*
X13384993Y-20926814D01*
X13384993Y-20926814D02*
X13404041Y-20917290D01*
X13404041Y-20917290D02*
X13432612Y-20917290D01*
X13432612Y-20917290D02*
X13451660Y-20926814D01*
X13527850Y-21126814D02*
X13537374Y-21117290D01*
X13537374Y-21117290D02*
X13556422Y-21088719D01*
X13556422Y-21088719D02*
X13565945Y-21069671D01*
X13565945Y-21069671D02*
X13575469Y-21041100D01*
X13575469Y-21041100D02*
X13584993Y-20993481D01*
X13584993Y-20993481D02*
X13584993Y-20955386D01*
X13584993Y-20955386D02*
X13575469Y-20907766D01*
X13575469Y-20907766D02*
X13565945Y-20879195D01*
X13565945Y-20879195D02*
X13556422Y-20860147D01*
X13556422Y-20860147D02*
X13537374Y-20831576D01*
X13537374Y-20831576D02*
X13527850Y-20822052D01*
X13889755Y-21126814D02*
X13880231Y-21117290D01*
X13880231Y-21117290D02*
X13861183Y-21088719D01*
X13861183Y-21088719D02*
X13851660Y-21069671D01*
X13851660Y-21069671D02*
X13842136Y-21041100D01*
X13842136Y-21041100D02*
X13832612Y-20993481D01*
X13832612Y-20993481D02*
X13832612Y-20955386D01*
X13832612Y-20955386D02*
X13842136Y-20907766D01*
X13842136Y-20907766D02*
X13851660Y-20879195D01*
X13851660Y-20879195D02*
X13861183Y-20860147D01*
X13861183Y-20860147D02*
X13880231Y-20831576D01*
X13880231Y-20831576D02*
X13889755Y-20822052D01*
X13965945Y-20917290D02*
X13965945Y-21050624D01*
X13965945Y-20936338D02*
X13975469Y-20926814D01*
X13975469Y-20926814D02*
X13994517Y-20917290D01*
X13994517Y-20917290D02*
X14023088Y-20917290D01*
X14023088Y-20917290D02*
X14042136Y-20926814D01*
X14042136Y-20926814D02*
X14051660Y-20945862D01*
X14051660Y-20945862D02*
X14051660Y-21050624D01*
X14175469Y-21050624D02*
X14156422Y-21041100D01*
X14156422Y-21041100D02*
X14146898Y-21031576D01*
X14146898Y-21031576D02*
X14137374Y-21012528D01*
X14137374Y-21012528D02*
X14137374Y-20955386D01*
X14137374Y-20955386D02*
X14146898Y-20936338D01*
X14146898Y-20936338D02*
X14156422Y-20926814D01*
X14156422Y-20926814D02*
X14175469Y-20917290D01*
X14175469Y-20917290D02*
X14204041Y-20917290D01*
X14204041Y-20917290D02*
X14223088Y-20926814D01*
X14223088Y-20926814D02*
X14232612Y-20936338D01*
X14232612Y-20936338D02*
X14242136Y-20955386D01*
X14242136Y-20955386D02*
X14242136Y-21012528D01*
X14242136Y-21012528D02*
X14232612Y-21031576D01*
X14232612Y-21031576D02*
X14223088Y-21041100D01*
X14223088Y-21041100D02*
X14204041Y-21050624D01*
X14204041Y-21050624D02*
X14175469Y-21050624D01*
X14299279Y-20917290D02*
X14375469Y-20917290D01*
X14327850Y-20850624D02*
X14327850Y-21022052D01*
X14327850Y-21022052D02*
X14337374Y-21041100D01*
X14337374Y-21041100D02*
X14356422Y-21050624D01*
X14356422Y-21050624D02*
X14375469Y-21050624D01*
X14594517Y-20917290D02*
X14594517Y-21117290D01*
X14594517Y-20926814D02*
X14613564Y-20917290D01*
X14613564Y-20917290D02*
X14651660Y-20917290D01*
X14651660Y-20917290D02*
X14670707Y-20926814D01*
X14670707Y-20926814D02*
X14680231Y-20936338D01*
X14680231Y-20936338D02*
X14689755Y-20955386D01*
X14689755Y-20955386D02*
X14689755Y-21012528D01*
X14689755Y-21012528D02*
X14680231Y-21031576D01*
X14680231Y-21031576D02*
X14670707Y-21041100D01*
X14670707Y-21041100D02*
X14651660Y-21050624D01*
X14651660Y-21050624D02*
X14613564Y-21050624D01*
X14613564Y-21050624D02*
X14594517Y-21041100D01*
X14804041Y-21050624D02*
X14784993Y-21041100D01*
X14784993Y-21041100D02*
X14775469Y-21022052D01*
X14775469Y-21022052D02*
X14775469Y-20850624D01*
X14965945Y-21050624D02*
X14965945Y-20945862D01*
X14965945Y-20945862D02*
X14956422Y-20926814D01*
X14956422Y-20926814D02*
X14937374Y-20917290D01*
X14937374Y-20917290D02*
X14899279Y-20917290D01*
X14899279Y-20917290D02*
X14880231Y-20926814D01*
X14965945Y-21041100D02*
X14946898Y-21050624D01*
X14946898Y-21050624D02*
X14899279Y-21050624D01*
X14899279Y-21050624D02*
X14880231Y-21041100D01*
X14880231Y-21041100D02*
X14870707Y-21022052D01*
X14870707Y-21022052D02*
X14870707Y-21003005D01*
X14870707Y-21003005D02*
X14880231Y-20983957D01*
X14880231Y-20983957D02*
X14899279Y-20974433D01*
X14899279Y-20974433D02*
X14946898Y-20974433D01*
X14946898Y-20974433D02*
X14965945Y-20964909D01*
X15032612Y-20917290D02*
X15108803Y-20917290D01*
X15061184Y-20850624D02*
X15061184Y-21022052D01*
X15061184Y-21022052D02*
X15070707Y-21041100D01*
X15070707Y-21041100D02*
X15089755Y-21050624D01*
X15089755Y-21050624D02*
X15108803Y-21050624D01*
X15251660Y-21041100D02*
X15232612Y-21050624D01*
X15232612Y-21050624D02*
X15194517Y-21050624D01*
X15194517Y-21050624D02*
X15175469Y-21041100D01*
X15175469Y-21041100D02*
X15165945Y-21022052D01*
X15165945Y-21022052D02*
X15165945Y-20945862D01*
X15165945Y-20945862D02*
X15175469Y-20926814D01*
X15175469Y-20926814D02*
X15194517Y-20917290D01*
X15194517Y-20917290D02*
X15232612Y-20917290D01*
X15232612Y-20917290D02*
X15251660Y-20926814D01*
X15251660Y-20926814D02*
X15261184Y-20945862D01*
X15261184Y-20945862D02*
X15261184Y-20964909D01*
X15261184Y-20964909D02*
X15165945Y-20983957D01*
X15432612Y-21050624D02*
X15432612Y-20850624D01*
X15432612Y-21041100D02*
X15413565Y-21050624D01*
X15413565Y-21050624D02*
X15375469Y-21050624D01*
X15375469Y-21050624D02*
X15356422Y-21041100D01*
X15356422Y-21041100D02*
X15346898Y-21031576D01*
X15346898Y-21031576D02*
X15337374Y-21012528D01*
X15337374Y-21012528D02*
X15337374Y-20955386D01*
X15337374Y-20955386D02*
X15346898Y-20936338D01*
X15346898Y-20936338D02*
X15356422Y-20926814D01*
X15356422Y-20926814D02*
X15375469Y-20917290D01*
X15375469Y-20917290D02*
X15413565Y-20917290D01*
X15413565Y-20917290D02*
X15432612Y-20926814D01*
X15508803Y-21126814D02*
X15518326Y-21117290D01*
X15518326Y-21117290D02*
X15537374Y-21088719D01*
X15537374Y-21088719D02*
X15546898Y-21069671D01*
X15546898Y-21069671D02*
X15556422Y-21041100D01*
X15556422Y-21041100D02*
X15565945Y-20993481D01*
X15565945Y-20993481D02*
X15565945Y-20955386D01*
X15565945Y-20955386D02*
X15556422Y-20907766D01*
X15556422Y-20907766D02*
X15546898Y-20879195D01*
X15546898Y-20879195D02*
X15537374Y-20860147D01*
X15537374Y-20860147D02*
X15518326Y-20831576D01*
X15518326Y-20831576D02*
X15508803Y-20822052D01*
X8652787Y-21179140D02*
X8652787Y-21379140D01*
X8552787Y-21279140D02*
X8752787Y-21279140D01*
X9099278Y-21170624D02*
X9061183Y-21170624D01*
X9061183Y-21170624D02*
X9042135Y-21180147D01*
X9042135Y-21180147D02*
X9032612Y-21189671D01*
X9032612Y-21189671D02*
X9013564Y-21218243D01*
X9013564Y-21218243D02*
X9004040Y-21256338D01*
X9004040Y-21256338D02*
X9004040Y-21332528D01*
X9004040Y-21332528D02*
X9013564Y-21351576D01*
X9013564Y-21351576D02*
X9023088Y-21361100D01*
X9023088Y-21361100D02*
X9042135Y-21370624D01*
X9042135Y-21370624D02*
X9080231Y-21370624D01*
X9080231Y-21370624D02*
X9099278Y-21361100D01*
X9099278Y-21361100D02*
X9108802Y-21351576D01*
X9108802Y-21351576D02*
X9118326Y-21332528D01*
X9118326Y-21332528D02*
X9118326Y-21284909D01*
X9118326Y-21284909D02*
X9108802Y-21265862D01*
X9108802Y-21265862D02*
X9099278Y-21256338D01*
X9099278Y-21256338D02*
X9080231Y-21246814D01*
X9080231Y-21246814D02*
X9042135Y-21246814D01*
X9042135Y-21246814D02*
X9023088Y-21256338D01*
X9023088Y-21256338D02*
X9013564Y-21265862D01*
X9013564Y-21265862D02*
X9004040Y-21284909D01*
X9204040Y-21351576D02*
X9213564Y-21361100D01*
X9213564Y-21361100D02*
X9204040Y-21370624D01*
X9204040Y-21370624D02*
X9194516Y-21361100D01*
X9194516Y-21361100D02*
X9204040Y-21351576D01*
X9204040Y-21351576D02*
X9204040Y-21370624D01*
X9384993Y-21237290D02*
X9384993Y-21370624D01*
X9337374Y-21161100D02*
X9289755Y-21303957D01*
X9289755Y-21303957D02*
X9413564Y-21303957D01*
X9527850Y-21170624D02*
X9546897Y-21170624D01*
X9546897Y-21170624D02*
X9565945Y-21180147D01*
X9565945Y-21180147D02*
X9575469Y-21189671D01*
X9575469Y-21189671D02*
X9584993Y-21208719D01*
X9584993Y-21208719D02*
X9594516Y-21246814D01*
X9594516Y-21246814D02*
X9594516Y-21294433D01*
X9594516Y-21294433D02*
X9584993Y-21332528D01*
X9584993Y-21332528D02*
X9575469Y-21351576D01*
X9575469Y-21351576D02*
X9565945Y-21361100D01*
X9565945Y-21361100D02*
X9546897Y-21370624D01*
X9546897Y-21370624D02*
X9527850Y-21370624D01*
X9527850Y-21370624D02*
X9508802Y-21361100D01*
X9508802Y-21361100D02*
X9499278Y-21351576D01*
X9499278Y-21351576D02*
X9489755Y-21332528D01*
X9489755Y-21332528D02*
X9480231Y-21294433D01*
X9480231Y-21294433D02*
X9480231Y-21246814D01*
X9480231Y-21246814D02*
X9489755Y-21208719D01*
X9489755Y-21208719D02*
X9499278Y-21189671D01*
X9499278Y-21189671D02*
X9508802Y-21180147D01*
X9508802Y-21180147D02*
X9527850Y-21170624D01*
X9718326Y-21170624D02*
X9737374Y-21170624D01*
X9737374Y-21170624D02*
X9756421Y-21180147D01*
X9756421Y-21180147D02*
X9765945Y-21189671D01*
X9765945Y-21189671D02*
X9775469Y-21208719D01*
X9775469Y-21208719D02*
X9784993Y-21246814D01*
X9784993Y-21246814D02*
X9784993Y-21294433D01*
X9784993Y-21294433D02*
X9775469Y-21332528D01*
X9775469Y-21332528D02*
X9765945Y-21351576D01*
X9765945Y-21351576D02*
X9756421Y-21361100D01*
X9756421Y-21361100D02*
X9737374Y-21370624D01*
X9737374Y-21370624D02*
X9718326Y-21370624D01*
X9718326Y-21370624D02*
X9699278Y-21361100D01*
X9699278Y-21361100D02*
X9689755Y-21351576D01*
X9689755Y-21351576D02*
X9680231Y-21332528D01*
X9680231Y-21332528D02*
X9670707Y-21294433D01*
X9670707Y-21294433D02*
X9670707Y-21246814D01*
X9670707Y-21246814D02*
X9680231Y-21208719D01*
X9680231Y-21208719D02*
X9689755Y-21189671D01*
X9689755Y-21189671D02*
X9699278Y-21180147D01*
X9699278Y-21180147D02*
X9718326Y-21170624D01*
X9870707Y-21370624D02*
X9870707Y-21237290D01*
X9870707Y-21256338D02*
X9880231Y-21246814D01*
X9880231Y-21246814D02*
X9899278Y-21237290D01*
X9899278Y-21237290D02*
X9927850Y-21237290D01*
X9927850Y-21237290D02*
X9946897Y-21246814D01*
X9946897Y-21246814D02*
X9956421Y-21265862D01*
X9956421Y-21265862D02*
X9956421Y-21370624D01*
X9956421Y-21265862D02*
X9965945Y-21246814D01*
X9965945Y-21246814D02*
X9984993Y-21237290D01*
X9984993Y-21237290D02*
X10013564Y-21237290D01*
X10013564Y-21237290D02*
X10032612Y-21246814D01*
X10032612Y-21246814D02*
X10042136Y-21265862D01*
X10042136Y-21265862D02*
X10042136Y-21370624D01*
X10137374Y-21370624D02*
X10137374Y-21237290D01*
X10137374Y-21256338D02*
X10146897Y-21246814D01*
X10146897Y-21246814D02*
X10165945Y-21237290D01*
X10165945Y-21237290D02*
X10194517Y-21237290D01*
X10194517Y-21237290D02*
X10213564Y-21246814D01*
X10213564Y-21246814D02*
X10223088Y-21265862D01*
X10223088Y-21265862D02*
X10223088Y-21370624D01*
X10223088Y-21265862D02*
X10232612Y-21246814D01*
X10232612Y-21246814D02*
X10251659Y-21237290D01*
X10251659Y-21237290D02*
X10280231Y-21237290D01*
X10280231Y-21237290D02*
X10299278Y-21246814D01*
X10299278Y-21246814D02*
X10308802Y-21265862D01*
X10308802Y-21265862D02*
X10308802Y-21370624D01*
X10699278Y-21161100D02*
X10527850Y-21418243D01*
X10956421Y-21170624D02*
X10975469Y-21170624D01*
X10975469Y-21170624D02*
X10994517Y-21180147D01*
X10994517Y-21180147D02*
X11004040Y-21189671D01*
X11004040Y-21189671D02*
X11013564Y-21208719D01*
X11013564Y-21208719D02*
X11023088Y-21246814D01*
X11023088Y-21246814D02*
X11023088Y-21294433D01*
X11023088Y-21294433D02*
X11013564Y-21332528D01*
X11013564Y-21332528D02*
X11004040Y-21351576D01*
X11004040Y-21351576D02*
X10994517Y-21361100D01*
X10994517Y-21361100D02*
X10975469Y-21370624D01*
X10975469Y-21370624D02*
X10956421Y-21370624D01*
X10956421Y-21370624D02*
X10937374Y-21361100D01*
X10937374Y-21361100D02*
X10927850Y-21351576D01*
X10927850Y-21351576D02*
X10918326Y-21332528D01*
X10918326Y-21332528D02*
X10908802Y-21294433D01*
X10908802Y-21294433D02*
X10908802Y-21246814D01*
X10908802Y-21246814D02*
X10918326Y-21208719D01*
X10918326Y-21208719D02*
X10927850Y-21189671D01*
X10927850Y-21189671D02*
X10937374Y-21180147D01*
X10937374Y-21180147D02*
X10956421Y-21170624D01*
X11108802Y-21351576D02*
X11118326Y-21361100D01*
X11118326Y-21361100D02*
X11108802Y-21370624D01*
X11108802Y-21370624D02*
X11099279Y-21361100D01*
X11099279Y-21361100D02*
X11108802Y-21351576D01*
X11108802Y-21351576D02*
X11108802Y-21370624D01*
X11194517Y-21189671D02*
X11204040Y-21180147D01*
X11204040Y-21180147D02*
X11223088Y-21170624D01*
X11223088Y-21170624D02*
X11270707Y-21170624D01*
X11270707Y-21170624D02*
X11289755Y-21180147D01*
X11289755Y-21180147D02*
X11299278Y-21189671D01*
X11299278Y-21189671D02*
X11308802Y-21208719D01*
X11308802Y-21208719D02*
X11308802Y-21227766D01*
X11308802Y-21227766D02*
X11299278Y-21256338D01*
X11299278Y-21256338D02*
X11184993Y-21370624D01*
X11184993Y-21370624D02*
X11308802Y-21370624D01*
X11489755Y-21170624D02*
X11394517Y-21170624D01*
X11394517Y-21170624D02*
X11384993Y-21265862D01*
X11384993Y-21265862D02*
X11394517Y-21256338D01*
X11394517Y-21256338D02*
X11413564Y-21246814D01*
X11413564Y-21246814D02*
X11461183Y-21246814D01*
X11461183Y-21246814D02*
X11480231Y-21256338D01*
X11480231Y-21256338D02*
X11489755Y-21265862D01*
X11489755Y-21265862D02*
X11499278Y-21284909D01*
X11499278Y-21284909D02*
X11499278Y-21332528D01*
X11499278Y-21332528D02*
X11489755Y-21351576D01*
X11489755Y-21351576D02*
X11480231Y-21361100D01*
X11480231Y-21361100D02*
X11461183Y-21370624D01*
X11461183Y-21370624D02*
X11413564Y-21370624D01*
X11413564Y-21370624D02*
X11394517Y-21361100D01*
X11394517Y-21361100D02*
X11384993Y-21351576D01*
X11575469Y-21189671D02*
X11584993Y-21180147D01*
X11584993Y-21180147D02*
X11604040Y-21170624D01*
X11604040Y-21170624D02*
X11651659Y-21170624D01*
X11651659Y-21170624D02*
X11670707Y-21180147D01*
X11670707Y-21180147D02*
X11680231Y-21189671D01*
X11680231Y-21189671D02*
X11689755Y-21208719D01*
X11689755Y-21208719D02*
X11689755Y-21227766D01*
X11689755Y-21227766D02*
X11680231Y-21256338D01*
X11680231Y-21256338D02*
X11565945Y-21370624D01*
X11565945Y-21370624D02*
X11689755Y-21370624D01*
X11813564Y-21170624D02*
X11832612Y-21170624D01*
X11832612Y-21170624D02*
X11851659Y-21180147D01*
X11851659Y-21180147D02*
X11861183Y-21189671D01*
X11861183Y-21189671D02*
X11870707Y-21208719D01*
X11870707Y-21208719D02*
X11880231Y-21246814D01*
X11880231Y-21246814D02*
X11880231Y-21294433D01*
X11880231Y-21294433D02*
X11870707Y-21332528D01*
X11870707Y-21332528D02*
X11861183Y-21351576D01*
X11861183Y-21351576D02*
X11851659Y-21361100D01*
X11851659Y-21361100D02*
X11832612Y-21370624D01*
X11832612Y-21370624D02*
X11813564Y-21370624D01*
X11813564Y-21370624D02*
X11794517Y-21361100D01*
X11794517Y-21361100D02*
X11784993Y-21351576D01*
X11784993Y-21351576D02*
X11775469Y-21332528D01*
X11775469Y-21332528D02*
X11765945Y-21294433D01*
X11765945Y-21294433D02*
X11765945Y-21246814D01*
X11765945Y-21246814D02*
X11775469Y-21208719D01*
X11775469Y-21208719D02*
X11784993Y-21189671D01*
X11784993Y-21189671D02*
X11794517Y-21180147D01*
X11794517Y-21180147D02*
X11813564Y-21170624D01*
X11956421Y-21170624D02*
X11956421Y-21208719D01*
X12032612Y-21170624D02*
X12032612Y-21208719D01*
X12327850Y-21446814D02*
X12318326Y-21437290D01*
X12318326Y-21437290D02*
X12299279Y-21408719D01*
X12299279Y-21408719D02*
X12289755Y-21389671D01*
X12289755Y-21389671D02*
X12280231Y-21361100D01*
X12280231Y-21361100D02*
X12270707Y-21313481D01*
X12270707Y-21313481D02*
X12270707Y-21275386D01*
X12270707Y-21275386D02*
X12280231Y-21227766D01*
X12280231Y-21227766D02*
X12289755Y-21199195D01*
X12289755Y-21199195D02*
X12299279Y-21180147D01*
X12299279Y-21180147D02*
X12318326Y-21151576D01*
X12318326Y-21151576D02*
X12327850Y-21142052D01*
X12508802Y-21370624D02*
X12394517Y-21370624D01*
X12451659Y-21370624D02*
X12451659Y-21170624D01*
X12451659Y-21170624D02*
X12432612Y-21199195D01*
X12432612Y-21199195D02*
X12413564Y-21218243D01*
X12413564Y-21218243D02*
X12394517Y-21227766D01*
X12746898Y-21370624D02*
X12746898Y-21170624D01*
X12832612Y-21370624D02*
X12832612Y-21265862D01*
X12832612Y-21265862D02*
X12823088Y-21246814D01*
X12823088Y-21246814D02*
X12804041Y-21237290D01*
X12804041Y-21237290D02*
X12775469Y-21237290D01*
X12775469Y-21237290D02*
X12756421Y-21246814D01*
X12756421Y-21246814D02*
X12746898Y-21256338D01*
X12956421Y-21370624D02*
X12937374Y-21361100D01*
X12937374Y-21361100D02*
X12927850Y-21351576D01*
X12927850Y-21351576D02*
X12918326Y-21332528D01*
X12918326Y-21332528D02*
X12918326Y-21275386D01*
X12918326Y-21275386D02*
X12927850Y-21256338D01*
X12927850Y-21256338D02*
X12937374Y-21246814D01*
X12937374Y-21246814D02*
X12956421Y-21237290D01*
X12956421Y-21237290D02*
X12984993Y-21237290D01*
X12984993Y-21237290D02*
X13004041Y-21246814D01*
X13004041Y-21246814D02*
X13013564Y-21256338D01*
X13013564Y-21256338D02*
X13023088Y-21275386D01*
X13023088Y-21275386D02*
X13023088Y-21332528D01*
X13023088Y-21332528D02*
X13013564Y-21351576D01*
X13013564Y-21351576D02*
X13004041Y-21361100D01*
X13004041Y-21361100D02*
X12984993Y-21370624D01*
X12984993Y-21370624D02*
X12956421Y-21370624D01*
X13137374Y-21370624D02*
X13118326Y-21361100D01*
X13118326Y-21361100D02*
X13108802Y-21342052D01*
X13108802Y-21342052D02*
X13108802Y-21170624D01*
X13289755Y-21361100D02*
X13270707Y-21370624D01*
X13270707Y-21370624D02*
X13232612Y-21370624D01*
X13232612Y-21370624D02*
X13213564Y-21361100D01*
X13213564Y-21361100D02*
X13204041Y-21342052D01*
X13204041Y-21342052D02*
X13204041Y-21265862D01*
X13204041Y-21265862D02*
X13213564Y-21246814D01*
X13213564Y-21246814D02*
X13232612Y-21237290D01*
X13232612Y-21237290D02*
X13270707Y-21237290D01*
X13270707Y-21237290D02*
X13289755Y-21246814D01*
X13289755Y-21246814D02*
X13299279Y-21265862D01*
X13299279Y-21265862D02*
X13299279Y-21284909D01*
X13299279Y-21284909D02*
X13204041Y-21303957D01*
X13365945Y-21446814D02*
X13375469Y-21437290D01*
X13375469Y-21437290D02*
X13394517Y-21408719D01*
X13394517Y-21408719D02*
X13404041Y-21389671D01*
X13404041Y-21389671D02*
X13413564Y-21361100D01*
X13413564Y-21361100D02*
X13423088Y-21313481D01*
X13423088Y-21313481D02*
X13423088Y-21275386D01*
X13423088Y-21275386D02*
X13413564Y-21227766D01*
X13413564Y-21227766D02*
X13404041Y-21199195D01*
X13404041Y-21199195D02*
X13394517Y-21180147D01*
X13394517Y-21180147D02*
X13375469Y-21151576D01*
X13375469Y-21151576D02*
X13365945Y-21142052D01*
X13727850Y-21446814D02*
X13718326Y-21437290D01*
X13718326Y-21437290D02*
X13699279Y-21408719D01*
X13699279Y-21408719D02*
X13689755Y-21389671D01*
X13689755Y-21389671D02*
X13680231Y-21361100D01*
X13680231Y-21361100D02*
X13670707Y-21313481D01*
X13670707Y-21313481D02*
X13670707Y-21275386D01*
X13670707Y-21275386D02*
X13680231Y-21227766D01*
X13680231Y-21227766D02*
X13689755Y-21199195D01*
X13689755Y-21199195D02*
X13699279Y-21180147D01*
X13699279Y-21180147D02*
X13718326Y-21151576D01*
X13718326Y-21151576D02*
X13727850Y-21142052D01*
X13804041Y-21237290D02*
X13804041Y-21370624D01*
X13804041Y-21256338D02*
X13813564Y-21246814D01*
X13813564Y-21246814D02*
X13832612Y-21237290D01*
X13832612Y-21237290D02*
X13861183Y-21237290D01*
X13861183Y-21237290D02*
X13880231Y-21246814D01*
X13880231Y-21246814D02*
X13889755Y-21265862D01*
X13889755Y-21265862D02*
X13889755Y-21370624D01*
X14013564Y-21370624D02*
X13994517Y-21361100D01*
X13994517Y-21361100D02*
X13984993Y-21351576D01*
X13984993Y-21351576D02*
X13975469Y-21332528D01*
X13975469Y-21332528D02*
X13975469Y-21275386D01*
X13975469Y-21275386D02*
X13984993Y-21256338D01*
X13984993Y-21256338D02*
X13994517Y-21246814D01*
X13994517Y-21246814D02*
X14013564Y-21237290D01*
X14013564Y-21237290D02*
X14042136Y-21237290D01*
X14042136Y-21237290D02*
X14061183Y-21246814D01*
X14061183Y-21246814D02*
X14070707Y-21256338D01*
X14070707Y-21256338D02*
X14080231Y-21275386D01*
X14080231Y-21275386D02*
X14080231Y-21332528D01*
X14080231Y-21332528D02*
X14070707Y-21351576D01*
X14070707Y-21351576D02*
X14061183Y-21361100D01*
X14061183Y-21361100D02*
X14042136Y-21370624D01*
X14042136Y-21370624D02*
X14013564Y-21370624D01*
X14137374Y-21237290D02*
X14213564Y-21237290D01*
X14165945Y-21170624D02*
X14165945Y-21342052D01*
X14165945Y-21342052D02*
X14175469Y-21361100D01*
X14175469Y-21361100D02*
X14194517Y-21370624D01*
X14194517Y-21370624D02*
X14213564Y-21370624D01*
X14432612Y-21237290D02*
X14432612Y-21437290D01*
X14432612Y-21246814D02*
X14451660Y-21237290D01*
X14451660Y-21237290D02*
X14489755Y-21237290D01*
X14489755Y-21237290D02*
X14508803Y-21246814D01*
X14508803Y-21246814D02*
X14518326Y-21256338D01*
X14518326Y-21256338D02*
X14527850Y-21275386D01*
X14527850Y-21275386D02*
X14527850Y-21332528D01*
X14527850Y-21332528D02*
X14518326Y-21351576D01*
X14518326Y-21351576D02*
X14508803Y-21361100D01*
X14508803Y-21361100D02*
X14489755Y-21370624D01*
X14489755Y-21370624D02*
X14451660Y-21370624D01*
X14451660Y-21370624D02*
X14432612Y-21361100D01*
X14642136Y-21370624D02*
X14623088Y-21361100D01*
X14623088Y-21361100D02*
X14613564Y-21342052D01*
X14613564Y-21342052D02*
X14613564Y-21170624D01*
X14804041Y-21370624D02*
X14804041Y-21265862D01*
X14804041Y-21265862D02*
X14794517Y-21246814D01*
X14794517Y-21246814D02*
X14775469Y-21237290D01*
X14775469Y-21237290D02*
X14737374Y-21237290D01*
X14737374Y-21237290D02*
X14718326Y-21246814D01*
X14804041Y-21361100D02*
X14784993Y-21370624D01*
X14784993Y-21370624D02*
X14737374Y-21370624D01*
X14737374Y-21370624D02*
X14718326Y-21361100D01*
X14718326Y-21361100D02*
X14708803Y-21342052D01*
X14708803Y-21342052D02*
X14708803Y-21323005D01*
X14708803Y-21323005D02*
X14718326Y-21303957D01*
X14718326Y-21303957D02*
X14737374Y-21294433D01*
X14737374Y-21294433D02*
X14784993Y-21294433D01*
X14784993Y-21294433D02*
X14804041Y-21284909D01*
X14870707Y-21237290D02*
X14946898Y-21237290D01*
X14899279Y-21170624D02*
X14899279Y-21342052D01*
X14899279Y-21342052D02*
X14908803Y-21361100D01*
X14908803Y-21361100D02*
X14927850Y-21370624D01*
X14927850Y-21370624D02*
X14946898Y-21370624D01*
X15089755Y-21361100D02*
X15070707Y-21370624D01*
X15070707Y-21370624D02*
X15032612Y-21370624D01*
X15032612Y-21370624D02*
X15013564Y-21361100D01*
X15013564Y-21361100D02*
X15004041Y-21342052D01*
X15004041Y-21342052D02*
X15004041Y-21265862D01*
X15004041Y-21265862D02*
X15013564Y-21246814D01*
X15013564Y-21246814D02*
X15032612Y-21237290D01*
X15032612Y-21237290D02*
X15070707Y-21237290D01*
X15070707Y-21237290D02*
X15089755Y-21246814D01*
X15089755Y-21246814D02*
X15099279Y-21265862D01*
X15099279Y-21265862D02*
X15099279Y-21284909D01*
X15099279Y-21284909D02*
X15004041Y-21303957D01*
X15270707Y-21370624D02*
X15270707Y-21170624D01*
X15270707Y-21361100D02*
X15251660Y-21370624D01*
X15251660Y-21370624D02*
X15213564Y-21370624D01*
X15213564Y-21370624D02*
X15194517Y-21361100D01*
X15194517Y-21361100D02*
X15184993Y-21351576D01*
X15184993Y-21351576D02*
X15175469Y-21332528D01*
X15175469Y-21332528D02*
X15175469Y-21275386D01*
X15175469Y-21275386D02*
X15184993Y-21256338D01*
X15184993Y-21256338D02*
X15194517Y-21246814D01*
X15194517Y-21246814D02*
X15213564Y-21237290D01*
X15213564Y-21237290D02*
X15251660Y-21237290D01*
X15251660Y-21237290D02*
X15270707Y-21246814D01*
X15346898Y-21446814D02*
X15356422Y-21437290D01*
X15356422Y-21437290D02*
X15375469Y-21408719D01*
X15375469Y-21408719D02*
X15384993Y-21389671D01*
X15384993Y-21389671D02*
X15394517Y-21361100D01*
X15394517Y-21361100D02*
X15404041Y-21313481D01*
X15404041Y-21313481D02*
X15404041Y-21275386D01*
X15404041Y-21275386D02*
X15394517Y-21227766D01*
X15394517Y-21227766D02*
X15384993Y-21199195D01*
X15384993Y-21199195D02*
X15375469Y-21180147D01*
X15375469Y-21180147D02*
X15356422Y-21151576D01*
X15356422Y-21151576D02*
X15346898Y-21142052D01*
X8723499Y-21669851D02*
X8723499Y-21528428D01*
X8582076Y-21528428D01*
X8582076Y-21669851D01*
X8723499Y-21669851D01*
X8994516Y-21490624D02*
X9127850Y-21490624D01*
X9127850Y-21490624D02*
X9042135Y-21690624D01*
X9204040Y-21671576D02*
X9213564Y-21681100D01*
X9213564Y-21681100D02*
X9204040Y-21690624D01*
X9204040Y-21690624D02*
X9194516Y-21681100D01*
X9194516Y-21681100D02*
X9204040Y-21671576D01*
X9204040Y-21671576D02*
X9204040Y-21690624D01*
X9394516Y-21490624D02*
X9299278Y-21490624D01*
X9299278Y-21490624D02*
X9289755Y-21585862D01*
X9289755Y-21585862D02*
X9299278Y-21576338D01*
X9299278Y-21576338D02*
X9318326Y-21566814D01*
X9318326Y-21566814D02*
X9365945Y-21566814D01*
X9365945Y-21566814D02*
X9384993Y-21576338D01*
X9384993Y-21576338D02*
X9394516Y-21585862D01*
X9394516Y-21585862D02*
X9404040Y-21604909D01*
X9404040Y-21604909D02*
X9404040Y-21652528D01*
X9404040Y-21652528D02*
X9394516Y-21671576D01*
X9394516Y-21671576D02*
X9384993Y-21681100D01*
X9384993Y-21681100D02*
X9365945Y-21690624D01*
X9365945Y-21690624D02*
X9318326Y-21690624D01*
X9318326Y-21690624D02*
X9299278Y-21681100D01*
X9299278Y-21681100D02*
X9289755Y-21671576D01*
X9575469Y-21557290D02*
X9575469Y-21690624D01*
X9527850Y-21481100D02*
X9480231Y-21623957D01*
X9480231Y-21623957D02*
X9604040Y-21623957D01*
X9718326Y-21490624D02*
X9737374Y-21490624D01*
X9737374Y-21490624D02*
X9756421Y-21500147D01*
X9756421Y-21500147D02*
X9765945Y-21509671D01*
X9765945Y-21509671D02*
X9775469Y-21528719D01*
X9775469Y-21528719D02*
X9784993Y-21566814D01*
X9784993Y-21566814D02*
X9784993Y-21614433D01*
X9784993Y-21614433D02*
X9775469Y-21652528D01*
X9775469Y-21652528D02*
X9765945Y-21671576D01*
X9765945Y-21671576D02*
X9756421Y-21681100D01*
X9756421Y-21681100D02*
X9737374Y-21690624D01*
X9737374Y-21690624D02*
X9718326Y-21690624D01*
X9718326Y-21690624D02*
X9699278Y-21681100D01*
X9699278Y-21681100D02*
X9689755Y-21671576D01*
X9689755Y-21671576D02*
X9680231Y-21652528D01*
X9680231Y-21652528D02*
X9670707Y-21614433D01*
X9670707Y-21614433D02*
X9670707Y-21566814D01*
X9670707Y-21566814D02*
X9680231Y-21528719D01*
X9680231Y-21528719D02*
X9689755Y-21509671D01*
X9689755Y-21509671D02*
X9699278Y-21500147D01*
X9699278Y-21500147D02*
X9718326Y-21490624D01*
X9870707Y-21690624D02*
X9870707Y-21557290D01*
X9870707Y-21576338D02*
X9880231Y-21566814D01*
X9880231Y-21566814D02*
X9899278Y-21557290D01*
X9899278Y-21557290D02*
X9927850Y-21557290D01*
X9927850Y-21557290D02*
X9946897Y-21566814D01*
X9946897Y-21566814D02*
X9956421Y-21585862D01*
X9956421Y-21585862D02*
X9956421Y-21690624D01*
X9956421Y-21585862D02*
X9965945Y-21566814D01*
X9965945Y-21566814D02*
X9984993Y-21557290D01*
X9984993Y-21557290D02*
X10013564Y-21557290D01*
X10013564Y-21557290D02*
X10032612Y-21566814D01*
X10032612Y-21566814D02*
X10042136Y-21585862D01*
X10042136Y-21585862D02*
X10042136Y-21690624D01*
X10137374Y-21690624D02*
X10137374Y-21557290D01*
X10137374Y-21576338D02*
X10146897Y-21566814D01*
X10146897Y-21566814D02*
X10165945Y-21557290D01*
X10165945Y-21557290D02*
X10194517Y-21557290D01*
X10194517Y-21557290D02*
X10213564Y-21566814D01*
X10213564Y-21566814D02*
X10223088Y-21585862D01*
X10223088Y-21585862D02*
X10223088Y-21690624D01*
X10223088Y-21585862D02*
X10232612Y-21566814D01*
X10232612Y-21566814D02*
X10251659Y-21557290D01*
X10251659Y-21557290D02*
X10280231Y-21557290D01*
X10280231Y-21557290D02*
X10299278Y-21566814D01*
X10299278Y-21566814D02*
X10308802Y-21585862D01*
X10308802Y-21585862D02*
X10308802Y-21690624D01*
X10699278Y-21481100D02*
X10527850Y-21738243D01*
X10956421Y-21490624D02*
X10975469Y-21490624D01*
X10975469Y-21490624D02*
X10994517Y-21500147D01*
X10994517Y-21500147D02*
X11004040Y-21509671D01*
X11004040Y-21509671D02*
X11013564Y-21528719D01*
X11013564Y-21528719D02*
X11023088Y-21566814D01*
X11023088Y-21566814D02*
X11023088Y-21614433D01*
X11023088Y-21614433D02*
X11013564Y-21652528D01*
X11013564Y-21652528D02*
X11004040Y-21671576D01*
X11004040Y-21671576D02*
X10994517Y-21681100D01*
X10994517Y-21681100D02*
X10975469Y-21690624D01*
X10975469Y-21690624D02*
X10956421Y-21690624D01*
X10956421Y-21690624D02*
X10937374Y-21681100D01*
X10937374Y-21681100D02*
X10927850Y-21671576D01*
X10927850Y-21671576D02*
X10918326Y-21652528D01*
X10918326Y-21652528D02*
X10908802Y-21614433D01*
X10908802Y-21614433D02*
X10908802Y-21566814D01*
X10908802Y-21566814D02*
X10918326Y-21528719D01*
X10918326Y-21528719D02*
X10927850Y-21509671D01*
X10927850Y-21509671D02*
X10937374Y-21500147D01*
X10937374Y-21500147D02*
X10956421Y-21490624D01*
X11108802Y-21671576D02*
X11118326Y-21681100D01*
X11118326Y-21681100D02*
X11108802Y-21690624D01*
X11108802Y-21690624D02*
X11099279Y-21681100D01*
X11099279Y-21681100D02*
X11108802Y-21671576D01*
X11108802Y-21671576D02*
X11108802Y-21690624D01*
X11194517Y-21509671D02*
X11204040Y-21500147D01*
X11204040Y-21500147D02*
X11223088Y-21490624D01*
X11223088Y-21490624D02*
X11270707Y-21490624D01*
X11270707Y-21490624D02*
X11289755Y-21500147D01*
X11289755Y-21500147D02*
X11299278Y-21509671D01*
X11299278Y-21509671D02*
X11308802Y-21528719D01*
X11308802Y-21528719D02*
X11308802Y-21547766D01*
X11308802Y-21547766D02*
X11299278Y-21576338D01*
X11299278Y-21576338D02*
X11184993Y-21690624D01*
X11184993Y-21690624D02*
X11308802Y-21690624D01*
X11404040Y-21690624D02*
X11442136Y-21690624D01*
X11442136Y-21690624D02*
X11461183Y-21681100D01*
X11461183Y-21681100D02*
X11470707Y-21671576D01*
X11470707Y-21671576D02*
X11489755Y-21643005D01*
X11489755Y-21643005D02*
X11499278Y-21604909D01*
X11499278Y-21604909D02*
X11499278Y-21528719D01*
X11499278Y-21528719D02*
X11489755Y-21509671D01*
X11489755Y-21509671D02*
X11480231Y-21500147D01*
X11480231Y-21500147D02*
X11461183Y-21490624D01*
X11461183Y-21490624D02*
X11423088Y-21490624D01*
X11423088Y-21490624D02*
X11404040Y-21500147D01*
X11404040Y-21500147D02*
X11394517Y-21509671D01*
X11394517Y-21509671D02*
X11384993Y-21528719D01*
X11384993Y-21528719D02*
X11384993Y-21576338D01*
X11384993Y-21576338D02*
X11394517Y-21595386D01*
X11394517Y-21595386D02*
X11404040Y-21604909D01*
X11404040Y-21604909D02*
X11423088Y-21614433D01*
X11423088Y-21614433D02*
X11461183Y-21614433D01*
X11461183Y-21614433D02*
X11480231Y-21604909D01*
X11480231Y-21604909D02*
X11489755Y-21595386D01*
X11489755Y-21595386D02*
X11499278Y-21576338D01*
X11670707Y-21490624D02*
X11632612Y-21490624D01*
X11632612Y-21490624D02*
X11613564Y-21500147D01*
X11613564Y-21500147D02*
X11604040Y-21509671D01*
X11604040Y-21509671D02*
X11584993Y-21538243D01*
X11584993Y-21538243D02*
X11575469Y-21576338D01*
X11575469Y-21576338D02*
X11575469Y-21652528D01*
X11575469Y-21652528D02*
X11584993Y-21671576D01*
X11584993Y-21671576D02*
X11594517Y-21681100D01*
X11594517Y-21681100D02*
X11613564Y-21690624D01*
X11613564Y-21690624D02*
X11651659Y-21690624D01*
X11651659Y-21690624D02*
X11670707Y-21681100D01*
X11670707Y-21681100D02*
X11680231Y-21671576D01*
X11680231Y-21671576D02*
X11689755Y-21652528D01*
X11689755Y-21652528D02*
X11689755Y-21604909D01*
X11689755Y-21604909D02*
X11680231Y-21585862D01*
X11680231Y-21585862D02*
X11670707Y-21576338D01*
X11670707Y-21576338D02*
X11651659Y-21566814D01*
X11651659Y-21566814D02*
X11613564Y-21566814D01*
X11613564Y-21566814D02*
X11594517Y-21576338D01*
X11594517Y-21576338D02*
X11584993Y-21585862D01*
X11584993Y-21585862D02*
X11575469Y-21604909D01*
X11784993Y-21690624D02*
X11823088Y-21690624D01*
X11823088Y-21690624D02*
X11842136Y-21681100D01*
X11842136Y-21681100D02*
X11851659Y-21671576D01*
X11851659Y-21671576D02*
X11870707Y-21643005D01*
X11870707Y-21643005D02*
X11880231Y-21604909D01*
X11880231Y-21604909D02*
X11880231Y-21528719D01*
X11880231Y-21528719D02*
X11870707Y-21509671D01*
X11870707Y-21509671D02*
X11861183Y-21500147D01*
X11861183Y-21500147D02*
X11842136Y-21490624D01*
X11842136Y-21490624D02*
X11804040Y-21490624D01*
X11804040Y-21490624D02*
X11784993Y-21500147D01*
X11784993Y-21500147D02*
X11775469Y-21509671D01*
X11775469Y-21509671D02*
X11765945Y-21528719D01*
X11765945Y-21528719D02*
X11765945Y-21576338D01*
X11765945Y-21576338D02*
X11775469Y-21595386D01*
X11775469Y-21595386D02*
X11784993Y-21604909D01*
X11784993Y-21604909D02*
X11804040Y-21614433D01*
X11804040Y-21614433D02*
X11842136Y-21614433D01*
X11842136Y-21614433D02*
X11861183Y-21604909D01*
X11861183Y-21604909D02*
X11870707Y-21595386D01*
X11870707Y-21595386D02*
X11880231Y-21576338D01*
X11956421Y-21490624D02*
X11956421Y-21528719D01*
X12032612Y-21490624D02*
X12032612Y-21528719D01*
X12327850Y-21766814D02*
X12318326Y-21757290D01*
X12318326Y-21757290D02*
X12299279Y-21728719D01*
X12299279Y-21728719D02*
X12289755Y-21709671D01*
X12289755Y-21709671D02*
X12280231Y-21681100D01*
X12280231Y-21681100D02*
X12270707Y-21633481D01*
X12270707Y-21633481D02*
X12270707Y-21595386D01*
X12270707Y-21595386D02*
X12280231Y-21547766D01*
X12280231Y-21547766D02*
X12289755Y-21519195D01*
X12289755Y-21519195D02*
X12299279Y-21500147D01*
X12299279Y-21500147D02*
X12318326Y-21471576D01*
X12318326Y-21471576D02*
X12327850Y-21462052D01*
X12489755Y-21490624D02*
X12451659Y-21490624D01*
X12451659Y-21490624D02*
X12432612Y-21500147D01*
X12432612Y-21500147D02*
X12423088Y-21509671D01*
X12423088Y-21509671D02*
X12404040Y-21538243D01*
X12404040Y-21538243D02*
X12394517Y-21576338D01*
X12394517Y-21576338D02*
X12394517Y-21652528D01*
X12394517Y-21652528D02*
X12404040Y-21671576D01*
X12404040Y-21671576D02*
X12413564Y-21681100D01*
X12413564Y-21681100D02*
X12432612Y-21690624D01*
X12432612Y-21690624D02*
X12470707Y-21690624D01*
X12470707Y-21690624D02*
X12489755Y-21681100D01*
X12489755Y-21681100D02*
X12499279Y-21671576D01*
X12499279Y-21671576D02*
X12508802Y-21652528D01*
X12508802Y-21652528D02*
X12508802Y-21604909D01*
X12508802Y-21604909D02*
X12499279Y-21585862D01*
X12499279Y-21585862D02*
X12489755Y-21576338D01*
X12489755Y-21576338D02*
X12470707Y-21566814D01*
X12470707Y-21566814D02*
X12432612Y-21566814D01*
X12432612Y-21566814D02*
X12413564Y-21576338D01*
X12413564Y-21576338D02*
X12404040Y-21585862D01*
X12404040Y-21585862D02*
X12394517Y-21604909D01*
X12746898Y-21690624D02*
X12746898Y-21490624D01*
X12832612Y-21690624D02*
X12832612Y-21585862D01*
X12832612Y-21585862D02*
X12823088Y-21566814D01*
X12823088Y-21566814D02*
X12804041Y-21557290D01*
X12804041Y-21557290D02*
X12775469Y-21557290D01*
X12775469Y-21557290D02*
X12756421Y-21566814D01*
X12756421Y-21566814D02*
X12746898Y-21576338D01*
X12956421Y-21690624D02*
X12937374Y-21681100D01*
X12937374Y-21681100D02*
X12927850Y-21671576D01*
X12927850Y-21671576D02*
X12918326Y-21652528D01*
X12918326Y-21652528D02*
X12918326Y-21595386D01*
X12918326Y-21595386D02*
X12927850Y-21576338D01*
X12927850Y-21576338D02*
X12937374Y-21566814D01*
X12937374Y-21566814D02*
X12956421Y-21557290D01*
X12956421Y-21557290D02*
X12984993Y-21557290D01*
X12984993Y-21557290D02*
X13004041Y-21566814D01*
X13004041Y-21566814D02*
X13013564Y-21576338D01*
X13013564Y-21576338D02*
X13023088Y-21595386D01*
X13023088Y-21595386D02*
X13023088Y-21652528D01*
X13023088Y-21652528D02*
X13013564Y-21671576D01*
X13013564Y-21671576D02*
X13004041Y-21681100D01*
X13004041Y-21681100D02*
X12984993Y-21690624D01*
X12984993Y-21690624D02*
X12956421Y-21690624D01*
X13137374Y-21690624D02*
X13118326Y-21681100D01*
X13118326Y-21681100D02*
X13108802Y-21662052D01*
X13108802Y-21662052D02*
X13108802Y-21490624D01*
X13289755Y-21681100D02*
X13270707Y-21690624D01*
X13270707Y-21690624D02*
X13232612Y-21690624D01*
X13232612Y-21690624D02*
X13213564Y-21681100D01*
X13213564Y-21681100D02*
X13204041Y-21662052D01*
X13204041Y-21662052D02*
X13204041Y-21585862D01*
X13204041Y-21585862D02*
X13213564Y-21566814D01*
X13213564Y-21566814D02*
X13232612Y-21557290D01*
X13232612Y-21557290D02*
X13270707Y-21557290D01*
X13270707Y-21557290D02*
X13289755Y-21566814D01*
X13289755Y-21566814D02*
X13299279Y-21585862D01*
X13299279Y-21585862D02*
X13299279Y-21604909D01*
X13299279Y-21604909D02*
X13204041Y-21623957D01*
X13375469Y-21681100D02*
X13394517Y-21690624D01*
X13394517Y-21690624D02*
X13432612Y-21690624D01*
X13432612Y-21690624D02*
X13451660Y-21681100D01*
X13451660Y-21681100D02*
X13461183Y-21662052D01*
X13461183Y-21662052D02*
X13461183Y-21652528D01*
X13461183Y-21652528D02*
X13451660Y-21633481D01*
X13451660Y-21633481D02*
X13432612Y-21623957D01*
X13432612Y-21623957D02*
X13404041Y-21623957D01*
X13404041Y-21623957D02*
X13384993Y-21614433D01*
X13384993Y-21614433D02*
X13375469Y-21595386D01*
X13375469Y-21595386D02*
X13375469Y-21585862D01*
X13375469Y-21585862D02*
X13384993Y-21566814D01*
X13384993Y-21566814D02*
X13404041Y-21557290D01*
X13404041Y-21557290D02*
X13432612Y-21557290D01*
X13432612Y-21557290D02*
X13451660Y-21566814D01*
X13527850Y-21766814D02*
X13537374Y-21757290D01*
X13537374Y-21757290D02*
X13556422Y-21728719D01*
X13556422Y-21728719D02*
X13565945Y-21709671D01*
X13565945Y-21709671D02*
X13575469Y-21681100D01*
X13575469Y-21681100D02*
X13584993Y-21633481D01*
X13584993Y-21633481D02*
X13584993Y-21595386D01*
X13584993Y-21595386D02*
X13575469Y-21547766D01*
X13575469Y-21547766D02*
X13565945Y-21519195D01*
X13565945Y-21519195D02*
X13556422Y-21500147D01*
X13556422Y-21500147D02*
X13537374Y-21471576D01*
X13537374Y-21471576D02*
X13527850Y-21462052D01*
X13889755Y-21766814D02*
X13880231Y-21757290D01*
X13880231Y-21757290D02*
X13861183Y-21728719D01*
X13861183Y-21728719D02*
X13851660Y-21709671D01*
X13851660Y-21709671D02*
X13842136Y-21681100D01*
X13842136Y-21681100D02*
X13832612Y-21633481D01*
X13832612Y-21633481D02*
X13832612Y-21595386D01*
X13832612Y-21595386D02*
X13842136Y-21547766D01*
X13842136Y-21547766D02*
X13851660Y-21519195D01*
X13851660Y-21519195D02*
X13861183Y-21500147D01*
X13861183Y-21500147D02*
X13880231Y-21471576D01*
X13880231Y-21471576D02*
X13889755Y-21462052D01*
X13965945Y-21557290D02*
X13965945Y-21690624D01*
X13965945Y-21576338D02*
X13975469Y-21566814D01*
X13975469Y-21566814D02*
X13994517Y-21557290D01*
X13994517Y-21557290D02*
X14023088Y-21557290D01*
X14023088Y-21557290D02*
X14042136Y-21566814D01*
X14042136Y-21566814D02*
X14051660Y-21585862D01*
X14051660Y-21585862D02*
X14051660Y-21690624D01*
X14175469Y-21690624D02*
X14156422Y-21681100D01*
X14156422Y-21681100D02*
X14146898Y-21671576D01*
X14146898Y-21671576D02*
X14137374Y-21652528D01*
X14137374Y-21652528D02*
X14137374Y-21595386D01*
X14137374Y-21595386D02*
X14146898Y-21576338D01*
X14146898Y-21576338D02*
X14156422Y-21566814D01*
X14156422Y-21566814D02*
X14175469Y-21557290D01*
X14175469Y-21557290D02*
X14204041Y-21557290D01*
X14204041Y-21557290D02*
X14223088Y-21566814D01*
X14223088Y-21566814D02*
X14232612Y-21576338D01*
X14232612Y-21576338D02*
X14242136Y-21595386D01*
X14242136Y-21595386D02*
X14242136Y-21652528D01*
X14242136Y-21652528D02*
X14232612Y-21671576D01*
X14232612Y-21671576D02*
X14223088Y-21681100D01*
X14223088Y-21681100D02*
X14204041Y-21690624D01*
X14204041Y-21690624D02*
X14175469Y-21690624D01*
X14299279Y-21557290D02*
X14375469Y-21557290D01*
X14327850Y-21490624D02*
X14327850Y-21662052D01*
X14327850Y-21662052D02*
X14337374Y-21681100D01*
X14337374Y-21681100D02*
X14356422Y-21690624D01*
X14356422Y-21690624D02*
X14375469Y-21690624D01*
X14594517Y-21557290D02*
X14594517Y-21757290D01*
X14594517Y-21566814D02*
X14613564Y-21557290D01*
X14613564Y-21557290D02*
X14651660Y-21557290D01*
X14651660Y-21557290D02*
X14670707Y-21566814D01*
X14670707Y-21566814D02*
X14680231Y-21576338D01*
X14680231Y-21576338D02*
X14689755Y-21595386D01*
X14689755Y-21595386D02*
X14689755Y-21652528D01*
X14689755Y-21652528D02*
X14680231Y-21671576D01*
X14680231Y-21671576D02*
X14670707Y-21681100D01*
X14670707Y-21681100D02*
X14651660Y-21690624D01*
X14651660Y-21690624D02*
X14613564Y-21690624D01*
X14613564Y-21690624D02*
X14594517Y-21681100D01*
X14804041Y-21690624D02*
X14784993Y-21681100D01*
X14784993Y-21681100D02*
X14775469Y-21662052D01*
X14775469Y-21662052D02*
X14775469Y-21490624D01*
X14965945Y-21690624D02*
X14965945Y-21585862D01*
X14965945Y-21585862D02*
X14956422Y-21566814D01*
X14956422Y-21566814D02*
X14937374Y-21557290D01*
X14937374Y-21557290D02*
X14899279Y-21557290D01*
X14899279Y-21557290D02*
X14880231Y-21566814D01*
X14965945Y-21681100D02*
X14946898Y-21690624D01*
X14946898Y-21690624D02*
X14899279Y-21690624D01*
X14899279Y-21690624D02*
X14880231Y-21681100D01*
X14880231Y-21681100D02*
X14870707Y-21662052D01*
X14870707Y-21662052D02*
X14870707Y-21643005D01*
X14870707Y-21643005D02*
X14880231Y-21623957D01*
X14880231Y-21623957D02*
X14899279Y-21614433D01*
X14899279Y-21614433D02*
X14946898Y-21614433D01*
X14946898Y-21614433D02*
X14965945Y-21604909D01*
X15032612Y-21557290D02*
X15108803Y-21557290D01*
X15061184Y-21490624D02*
X15061184Y-21662052D01*
X15061184Y-21662052D02*
X15070707Y-21681100D01*
X15070707Y-21681100D02*
X15089755Y-21690624D01*
X15089755Y-21690624D02*
X15108803Y-21690624D01*
X15251660Y-21681100D02*
X15232612Y-21690624D01*
X15232612Y-21690624D02*
X15194517Y-21690624D01*
X15194517Y-21690624D02*
X15175469Y-21681100D01*
X15175469Y-21681100D02*
X15165945Y-21662052D01*
X15165945Y-21662052D02*
X15165945Y-21585862D01*
X15165945Y-21585862D02*
X15175469Y-21566814D01*
X15175469Y-21566814D02*
X15194517Y-21557290D01*
X15194517Y-21557290D02*
X15232612Y-21557290D01*
X15232612Y-21557290D02*
X15251660Y-21566814D01*
X15251660Y-21566814D02*
X15261184Y-21585862D01*
X15261184Y-21585862D02*
X15261184Y-21604909D01*
X15261184Y-21604909D02*
X15165945Y-21623957D01*
X15432612Y-21690624D02*
X15432612Y-21490624D01*
X15432612Y-21681100D02*
X15413565Y-21690624D01*
X15413565Y-21690624D02*
X15375469Y-21690624D01*
X15375469Y-21690624D02*
X15356422Y-21681100D01*
X15356422Y-21681100D02*
X15346898Y-21671576D01*
X15346898Y-21671576D02*
X15337374Y-21652528D01*
X15337374Y-21652528D02*
X15337374Y-21595386D01*
X15337374Y-21595386D02*
X15346898Y-21576338D01*
X15346898Y-21576338D02*
X15356422Y-21566814D01*
X15356422Y-21566814D02*
X15375469Y-21557290D01*
X15375469Y-21557290D02*
X15413565Y-21557290D01*
X15413565Y-21557290D02*
X15432612Y-21566814D01*
X15508803Y-21766814D02*
X15518326Y-21757290D01*
X15518326Y-21757290D02*
X15537374Y-21728719D01*
X15537374Y-21728719D02*
X15546898Y-21709671D01*
X15546898Y-21709671D02*
X15556422Y-21681100D01*
X15556422Y-21681100D02*
X15565945Y-21633481D01*
X15565945Y-21633481D02*
X15565945Y-21595386D01*
X15565945Y-21595386D02*
X15556422Y-21547766D01*
X15556422Y-21547766D02*
X15546898Y-21519195D01*
X15546898Y-21519195D02*
X15537374Y-21500147D01*
X15537374Y-21500147D02*
X15518326Y-21471576D01*
X15518326Y-21471576D02*
X15508803Y-21462052D01*
M02*
