M48
; DRILL file {KiCad 8.0.6} date 2024-11-27T23:04:24-0500
; FORMAT={-:-/ absolute / inch / decimal}
; #@! TF.CreationDate,2024-11-27T23:04:24-05:00
; #@! TF.GenerationSoftware,Kicad,Pcbnew,8.0.6
; #@! TF.FileFunction,Plated,1,2,PTH
FMAT,2
INCH
; #@! TA.AperFunction,Plated,PTH,ViaDrill
T1C0.0157
; #@! TA.AperFunction,Plated,PTH,ComponentDrill
T2C0.0300
; #@! TA.AperFunction,Plated,PTH,ComponentDrill
T3C0.0433
%
G90
G05
T1
X6.3823Y8.2226
X6.4547Y8.3641
X6.4903Y8.3318
X6.5792Y8.3203
X6.59Y8.1943
X6.6185Y8.1629
X6.6794Y8.2165
X6.6971Y8.3982
X6.7563Y8.36
X6.7563Y8.2189
X6.7567Y8.3206
X6.7841Y8.4096
X6.8239Y8.3118
X6.8542Y8.2409
X6.8744Y8.5369
X6.8786Y8.2718
X6.9138Y8.3615
X6.9507Y8.4378
X6.9699Y8.2219
X6.9729Y8.1612
X6.9899Y8.4411
X7.0768Y8.2345
X7.1303Y8.4985
X7.1303Y8.3007
X7.1607Y8.1735
X7.3186Y8.1936
X7.78Y8.281
X7.78Y8.2223
X7.839Y8.3625
X7.9414Y8.3007
X7.9571Y8.1868
X8.009Y8.2157
X8.1146Y8.3597
X8.1737Y8.4015
X9.1579Y8.2308
X9.3744Y8.1825
X9.4013Y8.3097
T2
X6.578Y8.4783
X6.578Y8.2657
X7.378Y8.4783
X7.378Y8.2657
X8.178Y8.4783
X8.178Y8.2657
X8.978Y8.4783
X8.978Y8.2657
X9.778Y8.4783
X9.778Y8.2657
T3
X6.45Y8.4605
X6.45Y8.2834
X6.7059Y8.4605
X6.7059Y8.2834
X7.25Y8.4605
X7.25Y8.2834
X7.5059Y8.4605
X7.5059Y8.2834
X8.05Y8.4605
X8.05Y8.2834
X8.3059Y8.4605
X8.3059Y8.2834
X8.85Y8.4605
X8.85Y8.2834
X9.1059Y8.4605
X9.1059Y8.2834
X9.65Y8.4605
X9.65Y8.2834
X9.9059Y8.4605
X9.9059Y8.2834
M30
