G04 #@! TF.GenerationSoftware,KiCad,Pcbnew,8.0.6*
G04 #@! TF.CreationDate,2024-11-27T23:04:23-05:00*
G04 #@! TF.ProjectId,DDI-parent,4444492d-7061-4726-956e-742e6b696361,rev?*
G04 #@! TF.SameCoordinates,Original*
G04 #@! TF.FileFunction,Soldermask,Top*
G04 #@! TF.FilePolarity,Negative*
%FSLAX46Y46*%
G04 Gerber Fmt 4.6, Leading zero omitted, Abs format (unit mm)*
G04 Created by KiCad (PCBNEW 8.0.6) date 2024-11-27 23:04:23*
%MOMM*%
%LPD*%
G01*
G04 APERTURE LIST*
G04 APERTURE END LIST*
G36*
X217967596Y209739881D02*
G01*
X218041296Y209739881D01*
X218108475Y209730647D01*
X218175171Y209726276D01*
X218253195Y209710756D01*
X218332005Y209699924D01*
X218391603Y209683225D01*
X218450978Y209671415D01*
X218532400Y209643775D01*
X218614566Y209620754D01*
X218665876Y209598466D01*
X218717258Y209581025D01*
X218800209Y209540117D01*
X218883715Y209503846D01*
X218926415Y209477879D01*
X218969468Y209456648D01*
X219051871Y209401587D01*
X219134438Y209351378D01*
X219168549Y209323626D01*
X219203271Y209300426D01*
X219282879Y209230611D01*
X219362064Y209166190D01*
X219387977Y209138443D01*
X219414695Y209115013D01*
X219489133Y209030131D01*
X219562354Y208951732D01*
X219580778Y208925630D01*
X219600104Y208903594D01*
X219666920Y208803594D01*
X219731577Y208711998D01*
X219743505Y208688976D01*
X219756333Y208669779D01*
X219813129Y208554608D01*
X219866579Y208451455D01*
X219873234Y208432729D01*
X219880707Y208417576D01*
X219925141Y208286675D01*
X219964847Y208174956D01*
X219967658Y208161424D01*
X219971097Y208151296D01*
X220000921Y208001356D01*
X220024550Y207887651D01*
X220025079Y207879903D01*
X220025958Y207875489D01*
X220039167Y207673953D01*
X220044575Y207594893D01*
X220039167Y207515839D01*
X220025958Y207314296D01*
X220025079Y207309881D01*
X220024550Y207302135D01*
X220000926Y207188451D01*
X219971097Y207038489D01*
X219967658Y207028359D01*
X219964847Y207014830D01*
X219925149Y206903132D01*
X219880707Y206772209D01*
X219873232Y206757052D01*
X219866579Y206738331D01*
X219813144Y206635207D01*
X219756330Y206519999D01*
X219743497Y206500794D01*
X219731577Y206477788D01*
X219666953Y206386238D01*
X219600108Y206286196D01*
X219580775Y206264151D01*
X219562354Y206238054D01*
X219489145Y206159666D01*
X219414695Y206074772D01*
X219387972Y206051336D01*
X219362064Y206023596D01*
X219282895Y205959187D01*
X219203271Y205889359D01*
X219168542Y205866154D01*
X219134438Y205838408D01*
X219051888Y205788208D01*
X218969468Y205733137D01*
X218926406Y205711901D01*
X218883715Y205685940D01*
X218800226Y205649675D01*
X218717258Y205608760D01*
X218665865Y205591314D01*
X218614566Y205569032D01*
X218532417Y205546015D01*
X218450978Y205518370D01*
X218391591Y205506557D01*
X218332005Y205489862D01*
X218253211Y205479032D01*
X218175171Y205463509D01*
X218108461Y205459136D01*
X218041296Y205449905D01*
X217967611Y205449905D01*
X217894575Y205445118D01*
X217821538Y205449905D01*
X217747854Y205449905D01*
X217680689Y205459136D01*
X217613978Y205463509D01*
X217535935Y205479032D01*
X217457145Y205489862D01*
X217397560Y205506556D01*
X217338171Y205518370D01*
X217256726Y205546016D01*
X217174584Y205569032D01*
X217123287Y205591313D01*
X217071891Y205608760D01*
X216988915Y205649679D01*
X216905435Y205685940D01*
X216862747Y205711898D01*
X216819681Y205733137D01*
X216737250Y205788215D01*
X216654712Y205838408D01*
X216620611Y205866150D01*
X216585878Y205889359D01*
X216506240Y205959198D01*
X216427086Y206023596D01*
X216401182Y206051331D01*
X216374454Y206074772D01*
X216299988Y206159684D01*
X216226796Y206238054D01*
X216208378Y206264146D01*
X216189041Y206286196D01*
X216122177Y206386264D01*
X216057573Y206477788D01*
X216045655Y206500787D01*
X216032819Y206519999D01*
X215975984Y206635247D01*
X215922571Y206738331D01*
X215915919Y206757045D01*
X215908442Y206772209D01*
X215863978Y206903194D01*
X215824303Y207014830D01*
X215821493Y207028351D01*
X215818052Y207038489D01*
X215788200Y207188564D01*
X215764600Y207302135D01*
X215764070Y207309873D01*
X215763191Y207314296D01*
X215749958Y207516188D01*
X215744575Y207594893D01*
X215749958Y207673603D01*
X215763191Y207875489D01*
X215764070Y207879910D01*
X215764600Y207887651D01*
X215788205Y208001244D01*
X215818052Y208151296D01*
X215821492Y208161431D01*
X215824303Y208174956D01*
X215863985Y208286612D01*
X215908442Y208417576D01*
X215915918Y208432736D01*
X215922571Y208451455D01*
X215975999Y208554568D01*
X216032816Y208669779D01*
X216045647Y208688983D01*
X216057573Y208711998D01*
X216122210Y208803568D01*
X216189045Y208903594D01*
X216208375Y208925636D01*
X216226796Y208951732D01*
X216300000Y209030114D01*
X216374454Y209115013D01*
X216401177Y209138448D01*
X216427086Y209166190D01*
X216506252Y209230597D01*
X216585873Y209300422D01*
X216620599Y209323625D01*
X216654712Y209351378D01*
X216737289Y209401594D01*
X216819688Y209456651D01*
X216862735Y209477879D01*
X216905435Y209503846D01*
X216988934Y209540115D01*
X217071891Y209581025D01*
X217123277Y209598468D01*
X217174584Y209620754D01*
X217256743Y209643774D01*
X217338171Y209671415D01*
X217397548Y209683225D01*
X217457145Y209699924D01*
X217535951Y209710755D01*
X217613978Y209726276D01*
X217680675Y209730647D01*
X217747854Y209739881D01*
X217821554Y209739881D01*
X217894575Y209744667D01*
X217967596Y209739881D01*
G37*
G36*
X158071574Y209935236D02*
G01*
X158163615Y209928995D01*
X158185198Y209923627D01*
X158216202Y209920460D01*
X158271148Y209902253D01*
X158322957Y209889369D01*
X158348980Y209876462D01*
X158381503Y209865686D01*
X158425796Y209838365D01*
X158468130Y209817370D01*
X158495488Y209795378D01*
X158529716Y209774267D01*
X158562343Y209741639D01*
X158594431Y209715847D01*
X158620223Y209683759D01*
X158652851Y209651132D01*
X158673962Y209616904D01*
X158695954Y209589546D01*
X158716949Y209547212D01*
X158744270Y209502919D01*
X158755046Y209470396D01*
X158767953Y209444373D01*
X158780837Y209392564D01*
X158799044Y209337618D01*
X158802211Y209306614D01*
X158807579Y209285031D01*
X158813820Y209192990D01*
X158814539Y209185955D01*
X158814539Y207685955D01*
X158813820Y207678921D01*
X158807579Y207586878D01*
X158802211Y207565294D01*
X158799044Y207534292D01*
X158780838Y207479348D01*
X158767953Y207427536D01*
X158755045Y207401510D01*
X158744270Y207368991D01*
X158716952Y207324701D01*
X158695954Y207282363D01*
X158673960Y207255001D01*
X158652851Y207220778D01*
X158620227Y207188154D01*
X158594431Y207156062D01*
X158562338Y207130265D01*
X158529716Y207097643D01*
X158495493Y207076534D01*
X158468130Y207054539D01*
X158425788Y207033539D01*
X158381503Y207006224D01*
X158348986Y206995449D01*
X158322957Y206982540D01*
X158271135Y206969652D01*
X158216202Y206951450D01*
X158185205Y206948283D01*
X158163615Y206942914D01*
X158071545Y206936670D01*
X158064539Y206935955D01*
X158060989Y206935955D01*
X155568088Y206935955D01*
X155564539Y206935955D01*
X155557534Y206936670D01*
X155465462Y206942914D01*
X155443871Y206948283D01*
X155412876Y206951450D01*
X155357945Y206969651D01*
X155306120Y206982540D01*
X155280088Y206995450D01*
X155247575Y207006224D01*
X155203294Y207033536D01*
X155160947Y207054539D01*
X155133580Y207076536D01*
X155099362Y207097643D01*
X155066743Y207130261D01*
X155034646Y207156062D01*
X155008845Y207188159D01*
X154976227Y207220778D01*
X154955120Y207254996D01*
X154933123Y207282363D01*
X154912120Y207324710D01*
X154884808Y207368991D01*
X154874034Y207401504D01*
X154861124Y207427536D01*
X154848235Y207479361D01*
X154830034Y207534292D01*
X154826867Y207565287D01*
X154821498Y207586878D01*
X154815254Y207678950D01*
X154814539Y207685955D01*
X154814539Y209185955D01*
X154815254Y209192961D01*
X154821498Y209285031D01*
X154826867Y209306621D01*
X154830034Y209337618D01*
X154848236Y209392551D01*
X154861124Y209444373D01*
X154874033Y209470402D01*
X154884808Y209502919D01*
X154912123Y209547204D01*
X154933123Y209589546D01*
X154955118Y209616909D01*
X154976227Y209651132D01*
X155008849Y209683754D01*
X155034646Y209715847D01*
X155066738Y209741643D01*
X155099362Y209774267D01*
X155133585Y209795376D01*
X155160947Y209817370D01*
X155203285Y209838368D01*
X155247575Y209865686D01*
X155280094Y209876461D01*
X155306120Y209889369D01*
X155357932Y209902254D01*
X155412876Y209920460D01*
X155443878Y209923627D01*
X155465462Y209928995D01*
X155557505Y209935236D01*
X155564539Y209935955D01*
X158064539Y209935955D01*
X158071574Y209935236D01*
G37*
G36*
X167122723Y210705174D02*
G01*
X167160155Y210705174D01*
X167202377Y210696199D01*
X167250127Y210690819D01*
X167284851Y210678668D01*
X167315860Y210672077D01*
X167360549Y210652180D01*
X167411185Y210634462D01*
X167437539Y210617902D01*
X167461275Y210607335D01*
X167505532Y210575179D01*
X167555665Y210543680D01*
X167573668Y210525676D01*
X167590055Y210513771D01*
X167630565Y210468779D01*
X167676322Y210423023D01*
X167686846Y210406272D01*
X167696570Y210395474D01*
X167729836Y210337854D01*
X167767104Y210278543D01*
X167771757Y210265245D01*
X167776159Y210257621D01*
X167798698Y210188252D01*
X167823461Y210117485D01*
X167824400Y210109150D01*
X167825348Y210106233D01*
X167833946Y210024422D01*
X167842566Y209947924D01*
X167833947Y209871431D01*
X167825348Y209789614D01*
X167824399Y209786696D01*
X167823461Y209778363D01*
X167798702Y209707608D01*
X167776159Y209638226D01*
X167771756Y209630599D01*
X167767104Y209617305D01*
X167729843Y209558004D01*
X167696570Y209500373D01*
X167686844Y209489571D01*
X167676322Y209472825D01*
X167630574Y209427077D01*
X167590055Y209382076D01*
X167573664Y209370167D01*
X167555665Y209352168D01*
X167505543Y209320674D01*
X167461275Y209288512D01*
X167437533Y209277941D01*
X167411185Y209261386D01*
X167360559Y209243671D01*
X167315860Y209223770D01*
X167284846Y209217177D01*
X167250127Y209205029D01*
X167202380Y209199649D01*
X167160155Y209190674D01*
X167122723Y209190674D01*
X167080566Y209185924D01*
X167038409Y209190674D01*
X167000977Y209190674D01*
X166958751Y209199649D01*
X166911005Y209205029D01*
X166876287Y209217177D01*
X166845271Y209223770D01*
X166800567Y209243673D01*
X166749947Y209261386D01*
X166723600Y209277940D01*
X166699856Y209288512D01*
X166655581Y209320679D01*
X166605467Y209352168D01*
X166587469Y209370165D01*
X166571076Y209382076D01*
X166530547Y209427087D01*
X166484810Y209472825D01*
X166474289Y209489568D01*
X166464561Y209500373D01*
X166431276Y209558024D01*
X166394028Y209617305D01*
X166389377Y209630595D01*
X166384972Y209638226D01*
X166362415Y209707648D01*
X166337671Y209778363D01*
X166336732Y209786691D01*
X166335783Y209789614D01*
X166327169Y209871563D01*
X166318566Y209947924D01*
X166327170Y210024290D01*
X166335783Y210106233D01*
X166336732Y210109155D01*
X166337671Y210117485D01*
X166362419Y210188212D01*
X166384972Y210257621D01*
X166389376Y210265249D01*
X166394028Y210278543D01*
X166431283Y210337834D01*
X166464561Y210395474D01*
X166474287Y210406276D01*
X166484810Y210423023D01*
X166530557Y210468770D01*
X166571078Y210513773D01*
X166587468Y210525681D01*
X166605467Y210543680D01*
X166655586Y210575172D01*
X166699854Y210607334D01*
X166723594Y210617903D01*
X166749947Y210634462D01*
X166800578Y210652178D01*
X166845271Y210672077D01*
X166876281Y210678668D01*
X166911005Y210690819D01*
X166958753Y210696199D01*
X167000977Y210705174D01*
X167038409Y210705174D01*
X167080566Y210709924D01*
X167122723Y210705174D01*
G37*
G36*
X187442723Y210705174D02*
G01*
X187480155Y210705174D01*
X187522377Y210696199D01*
X187570127Y210690819D01*
X187604851Y210678668D01*
X187635860Y210672077D01*
X187680549Y210652180D01*
X187731185Y210634462D01*
X187757539Y210617902D01*
X187781275Y210607335D01*
X187825532Y210575179D01*
X187875665Y210543680D01*
X187893668Y210525676D01*
X187910055Y210513771D01*
X187950565Y210468779D01*
X187996322Y210423023D01*
X188006846Y210406272D01*
X188016570Y210395474D01*
X188049836Y210337854D01*
X188087104Y210278543D01*
X188091757Y210265245D01*
X188096159Y210257621D01*
X188118698Y210188252D01*
X188143461Y210117485D01*
X188144400Y210109150D01*
X188145348Y210106233D01*
X188153946Y210024422D01*
X188162566Y209947924D01*
X188153947Y209871431D01*
X188145348Y209789614D01*
X188144399Y209786696D01*
X188143461Y209778363D01*
X188118702Y209707608D01*
X188096159Y209638226D01*
X188091756Y209630599D01*
X188087104Y209617305D01*
X188049843Y209558004D01*
X188016570Y209500373D01*
X188006844Y209489571D01*
X187996322Y209472825D01*
X187950574Y209427077D01*
X187910055Y209382076D01*
X187893664Y209370167D01*
X187875665Y209352168D01*
X187825543Y209320674D01*
X187781275Y209288512D01*
X187757533Y209277941D01*
X187731185Y209261386D01*
X187680559Y209243671D01*
X187635860Y209223770D01*
X187604846Y209217177D01*
X187570127Y209205029D01*
X187522380Y209199649D01*
X187480155Y209190674D01*
X187442723Y209190674D01*
X187400566Y209185924D01*
X187358409Y209190674D01*
X187320977Y209190674D01*
X187278751Y209199649D01*
X187231005Y209205029D01*
X187196287Y209217177D01*
X187165271Y209223770D01*
X187120567Y209243673D01*
X187069947Y209261386D01*
X187043600Y209277940D01*
X187019856Y209288512D01*
X186975581Y209320679D01*
X186925467Y209352168D01*
X186907469Y209370165D01*
X186891076Y209382076D01*
X186850547Y209427087D01*
X186804810Y209472825D01*
X186794289Y209489568D01*
X186784561Y209500373D01*
X186751276Y209558024D01*
X186714028Y209617305D01*
X186709377Y209630595D01*
X186704972Y209638226D01*
X186682415Y209707648D01*
X186657671Y209778363D01*
X186656732Y209786691D01*
X186655783Y209789614D01*
X186647169Y209871563D01*
X186638566Y209947924D01*
X186647170Y210024290D01*
X186655783Y210106233D01*
X186656732Y210109155D01*
X186657671Y210117485D01*
X186682419Y210188212D01*
X186704972Y210257621D01*
X186709376Y210265249D01*
X186714028Y210278543D01*
X186751283Y210337834D01*
X186784561Y210395474D01*
X186794287Y210406276D01*
X186804810Y210423023D01*
X186850557Y210468770D01*
X186891078Y210513773D01*
X186907468Y210525681D01*
X186925467Y210543680D01*
X186975586Y210575172D01*
X187019854Y210607334D01*
X187043594Y210617903D01*
X187069947Y210634462D01*
X187120578Y210652178D01*
X187165271Y210672077D01*
X187196281Y210678668D01*
X187231005Y210690819D01*
X187278753Y210696199D01*
X187320977Y210705174D01*
X187358409Y210705174D01*
X187400566Y210709924D01*
X187442723Y210705174D01*
G37*
G36*
X207762723Y210705174D02*
G01*
X207800155Y210705174D01*
X207842377Y210696199D01*
X207890127Y210690819D01*
X207924851Y210678668D01*
X207955860Y210672077D01*
X208000549Y210652180D01*
X208051185Y210634462D01*
X208077539Y210617902D01*
X208101275Y210607335D01*
X208145532Y210575179D01*
X208195665Y210543680D01*
X208213668Y210525676D01*
X208230055Y210513771D01*
X208270565Y210468779D01*
X208316322Y210423023D01*
X208326846Y210406272D01*
X208336570Y210395474D01*
X208369836Y210337854D01*
X208407104Y210278543D01*
X208411757Y210265245D01*
X208416159Y210257621D01*
X208438698Y210188252D01*
X208463461Y210117485D01*
X208464400Y210109150D01*
X208465348Y210106233D01*
X208473946Y210024422D01*
X208482566Y209947924D01*
X208473947Y209871431D01*
X208465348Y209789614D01*
X208464399Y209786696D01*
X208463461Y209778363D01*
X208438702Y209707608D01*
X208416159Y209638226D01*
X208411756Y209630599D01*
X208407104Y209617305D01*
X208369843Y209558004D01*
X208336570Y209500373D01*
X208326844Y209489571D01*
X208316322Y209472825D01*
X208270574Y209427077D01*
X208230055Y209382076D01*
X208213664Y209370167D01*
X208195665Y209352168D01*
X208145543Y209320674D01*
X208101275Y209288512D01*
X208077533Y209277941D01*
X208051185Y209261386D01*
X208000559Y209243671D01*
X207955860Y209223770D01*
X207924846Y209217177D01*
X207890127Y209205029D01*
X207842380Y209199649D01*
X207800155Y209190674D01*
X207762723Y209190674D01*
X207720566Y209185924D01*
X207678409Y209190674D01*
X207640977Y209190674D01*
X207598751Y209199649D01*
X207551005Y209205029D01*
X207516287Y209217177D01*
X207485271Y209223770D01*
X207440567Y209243673D01*
X207389947Y209261386D01*
X207363600Y209277940D01*
X207339856Y209288512D01*
X207295581Y209320679D01*
X207245467Y209352168D01*
X207227469Y209370165D01*
X207211076Y209382076D01*
X207170547Y209427087D01*
X207124810Y209472825D01*
X207114289Y209489568D01*
X207104561Y209500373D01*
X207071276Y209558024D01*
X207034028Y209617305D01*
X207029377Y209630595D01*
X207024972Y209638226D01*
X207002415Y209707648D01*
X206977671Y209778363D01*
X206976732Y209786691D01*
X206975783Y209789614D01*
X206967169Y209871563D01*
X206958566Y209947924D01*
X206967170Y210024290D01*
X206975783Y210106233D01*
X206976732Y210109155D01*
X206977671Y210117485D01*
X207002419Y210188212D01*
X207024972Y210257621D01*
X207029376Y210265249D01*
X207034028Y210278543D01*
X207071283Y210337834D01*
X207104561Y210395474D01*
X207114287Y210406276D01*
X207124810Y210423023D01*
X207170557Y210468770D01*
X207211078Y210513773D01*
X207227468Y210525681D01*
X207245467Y210543680D01*
X207295586Y210575172D01*
X207339854Y210607334D01*
X207363594Y210617903D01*
X207389947Y210634462D01*
X207440578Y210652178D01*
X207485271Y210672077D01*
X207516281Y210678668D01*
X207551005Y210690819D01*
X207598753Y210696199D01*
X207640977Y210705174D01*
X207678409Y210705174D01*
X207720566Y210709924D01*
X207762723Y210705174D01*
G37*
G36*
X228082723Y210705174D02*
G01*
X228120155Y210705174D01*
X228162377Y210696199D01*
X228210127Y210690819D01*
X228244851Y210678668D01*
X228275860Y210672077D01*
X228320549Y210652180D01*
X228371185Y210634462D01*
X228397539Y210617902D01*
X228421275Y210607335D01*
X228465532Y210575179D01*
X228515665Y210543680D01*
X228533668Y210525676D01*
X228550055Y210513771D01*
X228590565Y210468779D01*
X228636322Y210423023D01*
X228646846Y210406272D01*
X228656570Y210395474D01*
X228689836Y210337854D01*
X228727104Y210278543D01*
X228731757Y210265245D01*
X228736159Y210257621D01*
X228758698Y210188252D01*
X228783461Y210117485D01*
X228784400Y210109150D01*
X228785348Y210106233D01*
X228793946Y210024422D01*
X228802566Y209947924D01*
X228793947Y209871431D01*
X228785348Y209789614D01*
X228784399Y209786696D01*
X228783461Y209778363D01*
X228758702Y209707608D01*
X228736159Y209638226D01*
X228731756Y209630599D01*
X228727104Y209617305D01*
X228689843Y209558004D01*
X228656570Y209500373D01*
X228646844Y209489571D01*
X228636322Y209472825D01*
X228590574Y209427077D01*
X228550055Y209382076D01*
X228533664Y209370167D01*
X228515665Y209352168D01*
X228465543Y209320674D01*
X228421275Y209288512D01*
X228397533Y209277941D01*
X228371185Y209261386D01*
X228320559Y209243671D01*
X228275860Y209223770D01*
X228244846Y209217177D01*
X228210127Y209205029D01*
X228162380Y209199649D01*
X228120155Y209190674D01*
X228082723Y209190674D01*
X228040566Y209185924D01*
X227998409Y209190674D01*
X227960977Y209190674D01*
X227918751Y209199649D01*
X227871005Y209205029D01*
X227836287Y209217177D01*
X227805271Y209223770D01*
X227760567Y209243673D01*
X227709947Y209261386D01*
X227683600Y209277940D01*
X227659856Y209288512D01*
X227615581Y209320679D01*
X227565467Y209352168D01*
X227547469Y209370165D01*
X227531076Y209382076D01*
X227490547Y209427087D01*
X227444810Y209472825D01*
X227434289Y209489568D01*
X227424561Y209500373D01*
X227391276Y209558024D01*
X227354028Y209617305D01*
X227349377Y209630595D01*
X227344972Y209638226D01*
X227322415Y209707648D01*
X227297671Y209778363D01*
X227296732Y209786691D01*
X227295783Y209789614D01*
X227287169Y209871563D01*
X227278566Y209947924D01*
X227287170Y210024290D01*
X227295783Y210106233D01*
X227296732Y210109155D01*
X227297671Y210117485D01*
X227322419Y210188212D01*
X227344972Y210257621D01*
X227349376Y210265249D01*
X227354028Y210278543D01*
X227391283Y210337834D01*
X227424561Y210395474D01*
X227434287Y210406276D01*
X227444810Y210423023D01*
X227490557Y210468770D01*
X227531078Y210513773D01*
X227547468Y210525681D01*
X227565467Y210543680D01*
X227615586Y210575172D01*
X227659854Y210607334D01*
X227683594Y210617903D01*
X227709947Y210634462D01*
X227760578Y210652178D01*
X227805271Y210672077D01*
X227836281Y210678668D01*
X227871005Y210690819D01*
X227918753Y210696199D01*
X227960977Y210705174D01*
X227998409Y210705174D01*
X228040566Y210709924D01*
X228082723Y210705174D01*
G37*
G36*
X248402723Y210705174D02*
G01*
X248440155Y210705174D01*
X248482377Y210696199D01*
X248530127Y210690819D01*
X248564851Y210678668D01*
X248595860Y210672077D01*
X248640549Y210652180D01*
X248691185Y210634462D01*
X248717539Y210617902D01*
X248741275Y210607335D01*
X248785532Y210575179D01*
X248835665Y210543680D01*
X248853668Y210525676D01*
X248870055Y210513771D01*
X248910565Y210468779D01*
X248956322Y210423023D01*
X248966846Y210406272D01*
X248976570Y210395474D01*
X249009836Y210337854D01*
X249047104Y210278543D01*
X249051757Y210265245D01*
X249056159Y210257621D01*
X249078698Y210188252D01*
X249103461Y210117485D01*
X249104400Y210109150D01*
X249105348Y210106233D01*
X249113946Y210024422D01*
X249122566Y209947924D01*
X249113947Y209871431D01*
X249105348Y209789614D01*
X249104399Y209786696D01*
X249103461Y209778363D01*
X249078702Y209707608D01*
X249056159Y209638226D01*
X249051756Y209630599D01*
X249047104Y209617305D01*
X249009843Y209558004D01*
X248976570Y209500373D01*
X248966844Y209489571D01*
X248956322Y209472825D01*
X248910574Y209427077D01*
X248870055Y209382076D01*
X248853664Y209370167D01*
X248835665Y209352168D01*
X248785543Y209320674D01*
X248741275Y209288512D01*
X248717533Y209277941D01*
X248691185Y209261386D01*
X248640559Y209243671D01*
X248595860Y209223770D01*
X248564846Y209217177D01*
X248530127Y209205029D01*
X248482380Y209199649D01*
X248440155Y209190674D01*
X248402723Y209190674D01*
X248360566Y209185924D01*
X248318409Y209190674D01*
X248280977Y209190674D01*
X248238751Y209199649D01*
X248191005Y209205029D01*
X248156287Y209217177D01*
X248125271Y209223770D01*
X248080567Y209243673D01*
X248029947Y209261386D01*
X248003600Y209277940D01*
X247979856Y209288512D01*
X247935581Y209320679D01*
X247885467Y209352168D01*
X247867469Y209370165D01*
X247851076Y209382076D01*
X247810547Y209427087D01*
X247764810Y209472825D01*
X247754289Y209489568D01*
X247744561Y209500373D01*
X247711276Y209558024D01*
X247674028Y209617305D01*
X247669377Y209630595D01*
X247664972Y209638226D01*
X247642415Y209707648D01*
X247617671Y209778363D01*
X247616732Y209786691D01*
X247615783Y209789614D01*
X247607169Y209871563D01*
X247598566Y209947924D01*
X247607170Y210024290D01*
X247615783Y210106233D01*
X247616732Y210109155D01*
X247617671Y210117485D01*
X247642419Y210188212D01*
X247664972Y210257621D01*
X247669376Y210265249D01*
X247674028Y210278543D01*
X247711283Y210337834D01*
X247744561Y210395474D01*
X247754287Y210406276D01*
X247764810Y210423023D01*
X247810557Y210468770D01*
X247851078Y210513773D01*
X247867468Y210525681D01*
X247885467Y210543680D01*
X247935586Y210575172D01*
X247979854Y210607334D01*
X248003594Y210617903D01*
X248029947Y210634462D01*
X248080578Y210652178D01*
X248125271Y210672077D01*
X248156281Y210678668D01*
X248191005Y210690819D01*
X248238753Y210696199D01*
X248280977Y210705174D01*
X248318409Y210705174D01*
X248360566Y210709924D01*
X248402723Y210705174D01*
G37*
G36*
X163878427Y211393210D02*
G01*
X163922793Y211393210D01*
X163972201Y211383973D01*
X164025656Y211378709D01*
X164066267Y211366389D01*
X164104103Y211359317D01*
X164156500Y211339018D01*
X164213249Y211321804D01*
X164245673Y211304472D01*
X164276104Y211292684D01*
X164328979Y211259944D01*
X164386136Y211229394D01*
X164410151Y211209685D01*
X164432932Y211195580D01*
X164483408Y211149564D01*
X164537673Y211105031D01*
X164553753Y211085436D01*
X164569241Y211071318D01*
X164614200Y211011781D01*
X164662036Y210953494D01*
X164671286Y210936187D01*
X164680401Y210924118D01*
X164716666Y210851287D01*
X164754446Y210780607D01*
X164758474Y210767325D01*
X164762618Y210759005D01*
X164787089Y210672993D01*
X164811351Y210593014D01*
X164812148Y210584920D01*
X164813096Y210581589D01*
X164822956Y210475186D01*
X164830566Y210397924D01*
X164822956Y210320667D01*
X164813096Y210214258D01*
X164812148Y210210926D01*
X164811351Y210202834D01*
X164787094Y210122870D01*
X164762618Y210036842D01*
X164758474Y210028519D01*
X164754446Y210015241D01*
X164716673Y209944574D01*
X164680401Y209871729D01*
X164671284Y209859656D01*
X164662036Y209842354D01*
X164614210Y209784078D01*
X164569241Y209724529D01*
X164553750Y209710407D01*
X164537673Y209690817D01*
X164483419Y209646292D01*
X164432932Y209600267D01*
X164410146Y209586158D01*
X164386136Y209566454D01*
X164328991Y209535909D01*
X164276104Y209503163D01*
X164245666Y209491371D01*
X164213249Y209474044D01*
X164156512Y209456833D01*
X164104103Y209436530D01*
X164066261Y209429456D01*
X164025656Y209417139D01*
X163972204Y209411874D01*
X163922793Y209402638D01*
X163878427Y209402638D01*
X163830566Y209397924D01*
X163782705Y209402638D01*
X163738339Y209402638D01*
X163688927Y209411874D01*
X163635476Y209417139D01*
X163594872Y209429455D01*
X163557028Y209436530D01*
X163504614Y209456834D01*
X163447883Y209474044D01*
X163415467Y209491370D01*
X163385027Y209503163D01*
X163332133Y209535913D01*
X163274996Y209566454D01*
X163250989Y209586155D01*
X163228199Y209600267D01*
X163177702Y209646300D01*
X163123459Y209690817D01*
X163107384Y209710404D01*
X163091890Y209724529D01*
X163046909Y209784093D01*
X162999096Y209842354D01*
X162989849Y209859652D01*
X162980730Y209871729D01*
X162944443Y209944601D01*
X162906686Y210015241D01*
X162902659Y210028514D01*
X162898513Y210036842D01*
X162874021Y210122923D01*
X162849781Y210202834D01*
X162848984Y210210920D01*
X162848035Y210214258D01*
X162838158Y210320839D01*
X162830566Y210397924D01*
X162838158Y210475014D01*
X162848035Y210581589D01*
X162848984Y210584925D01*
X162849781Y210593014D01*
X162874025Y210672939D01*
X162898513Y210759005D01*
X162902658Y210767330D01*
X162906686Y210780607D01*
X162944450Y210851260D01*
X162980730Y210924118D01*
X162989848Y210936192D01*
X162999096Y210953494D01*
X163046918Y211011766D01*
X163091890Y211071318D01*
X163107381Y211085440D01*
X163123459Y211105031D01*
X163177713Y211149556D01*
X163228199Y211195580D01*
X163250984Y211209687D01*
X163274996Y211229394D01*
X163332144Y211259940D01*
X163385027Y211292684D01*
X163415461Y211304474D01*
X163447883Y211321804D01*
X163504626Y211339016D01*
X163557028Y211359317D01*
X163594865Y211366390D01*
X163635476Y211378709D01*
X163688930Y211383973D01*
X163738339Y211393210D01*
X163782705Y211393210D01*
X163830566Y211397924D01*
X163878427Y211393210D01*
G37*
G36*
X170378427Y211393210D02*
G01*
X170422793Y211393210D01*
X170472201Y211383973D01*
X170525656Y211378709D01*
X170566267Y211366389D01*
X170604103Y211359317D01*
X170656500Y211339018D01*
X170713249Y211321804D01*
X170745673Y211304472D01*
X170776104Y211292684D01*
X170828979Y211259944D01*
X170886136Y211229394D01*
X170910151Y211209685D01*
X170932932Y211195580D01*
X170983408Y211149564D01*
X171037673Y211105031D01*
X171053753Y211085436D01*
X171069241Y211071318D01*
X171114200Y211011781D01*
X171162036Y210953494D01*
X171171286Y210936187D01*
X171180401Y210924118D01*
X171216666Y210851287D01*
X171254446Y210780607D01*
X171258474Y210767325D01*
X171262618Y210759005D01*
X171287089Y210672993D01*
X171311351Y210593014D01*
X171312148Y210584920D01*
X171313096Y210581589D01*
X171322956Y210475186D01*
X171330566Y210397924D01*
X171322956Y210320667D01*
X171313096Y210214258D01*
X171312148Y210210926D01*
X171311351Y210202834D01*
X171287094Y210122870D01*
X171262618Y210036842D01*
X171258474Y210028519D01*
X171254446Y210015241D01*
X171216673Y209944574D01*
X171180401Y209871729D01*
X171171284Y209859656D01*
X171162036Y209842354D01*
X171114210Y209784078D01*
X171069241Y209724529D01*
X171053750Y209710407D01*
X171037673Y209690817D01*
X170983419Y209646292D01*
X170932932Y209600267D01*
X170910146Y209586158D01*
X170886136Y209566454D01*
X170828991Y209535909D01*
X170776104Y209503163D01*
X170745666Y209491371D01*
X170713249Y209474044D01*
X170656512Y209456833D01*
X170604103Y209436530D01*
X170566261Y209429456D01*
X170525656Y209417139D01*
X170472204Y209411874D01*
X170422793Y209402638D01*
X170378427Y209402638D01*
X170330566Y209397924D01*
X170282705Y209402638D01*
X170238339Y209402638D01*
X170188927Y209411874D01*
X170135476Y209417139D01*
X170094872Y209429455D01*
X170057028Y209436530D01*
X170004614Y209456834D01*
X169947883Y209474044D01*
X169915467Y209491370D01*
X169885027Y209503163D01*
X169832133Y209535913D01*
X169774996Y209566454D01*
X169750989Y209586155D01*
X169728199Y209600267D01*
X169677702Y209646300D01*
X169623459Y209690817D01*
X169607384Y209710404D01*
X169591890Y209724529D01*
X169546909Y209784093D01*
X169499096Y209842354D01*
X169489849Y209859652D01*
X169480730Y209871729D01*
X169444443Y209944601D01*
X169406686Y210015241D01*
X169402659Y210028514D01*
X169398513Y210036842D01*
X169374021Y210122923D01*
X169349781Y210202834D01*
X169348984Y210210920D01*
X169348035Y210214258D01*
X169338158Y210320839D01*
X169330566Y210397924D01*
X169338158Y210475014D01*
X169348035Y210581589D01*
X169348984Y210584925D01*
X169349781Y210593014D01*
X169374025Y210672939D01*
X169398513Y210759005D01*
X169402658Y210767330D01*
X169406686Y210780607D01*
X169444450Y210851260D01*
X169480730Y210924118D01*
X169489848Y210936192D01*
X169499096Y210953494D01*
X169546918Y211011766D01*
X169591890Y211071318D01*
X169607381Y211085440D01*
X169623459Y211105031D01*
X169677713Y211149556D01*
X169728199Y211195580D01*
X169750984Y211209687D01*
X169774996Y211229394D01*
X169832144Y211259940D01*
X169885027Y211292684D01*
X169915461Y211304474D01*
X169947883Y211321804D01*
X170004626Y211339016D01*
X170057028Y211359317D01*
X170094865Y211366390D01*
X170135476Y211378709D01*
X170188930Y211383973D01*
X170238339Y211393210D01*
X170282705Y211393210D01*
X170330566Y211397924D01*
X170378427Y211393210D01*
G37*
G36*
X184198427Y211393210D02*
G01*
X184242793Y211393210D01*
X184292201Y211383973D01*
X184345656Y211378709D01*
X184386267Y211366389D01*
X184424103Y211359317D01*
X184476500Y211339018D01*
X184533249Y211321804D01*
X184565673Y211304472D01*
X184596104Y211292684D01*
X184648979Y211259944D01*
X184706136Y211229394D01*
X184730151Y211209685D01*
X184752932Y211195580D01*
X184803408Y211149564D01*
X184857673Y211105031D01*
X184873753Y211085436D01*
X184889241Y211071318D01*
X184934200Y211011781D01*
X184982036Y210953494D01*
X184991286Y210936187D01*
X185000401Y210924118D01*
X185036666Y210851287D01*
X185074446Y210780607D01*
X185078474Y210767325D01*
X185082618Y210759005D01*
X185107089Y210672993D01*
X185131351Y210593014D01*
X185132148Y210584920D01*
X185133096Y210581589D01*
X185142956Y210475186D01*
X185150566Y210397924D01*
X185142956Y210320667D01*
X185133096Y210214258D01*
X185132148Y210210926D01*
X185131351Y210202834D01*
X185107094Y210122870D01*
X185082618Y210036842D01*
X185078474Y210028519D01*
X185074446Y210015241D01*
X185036673Y209944574D01*
X185000401Y209871729D01*
X184991284Y209859656D01*
X184982036Y209842354D01*
X184934210Y209784078D01*
X184889241Y209724529D01*
X184873750Y209710407D01*
X184857673Y209690817D01*
X184803419Y209646292D01*
X184752932Y209600267D01*
X184730146Y209586158D01*
X184706136Y209566454D01*
X184648991Y209535909D01*
X184596104Y209503163D01*
X184565666Y209491371D01*
X184533249Y209474044D01*
X184476512Y209456833D01*
X184424103Y209436530D01*
X184386261Y209429456D01*
X184345656Y209417139D01*
X184292204Y209411874D01*
X184242793Y209402638D01*
X184198427Y209402638D01*
X184150566Y209397924D01*
X184102705Y209402638D01*
X184058339Y209402638D01*
X184008927Y209411874D01*
X183955476Y209417139D01*
X183914872Y209429455D01*
X183877028Y209436530D01*
X183824614Y209456834D01*
X183767883Y209474044D01*
X183735467Y209491370D01*
X183705027Y209503163D01*
X183652133Y209535913D01*
X183594996Y209566454D01*
X183570989Y209586155D01*
X183548199Y209600267D01*
X183497702Y209646300D01*
X183443459Y209690817D01*
X183427384Y209710404D01*
X183411890Y209724529D01*
X183366909Y209784093D01*
X183319096Y209842354D01*
X183309849Y209859652D01*
X183300730Y209871729D01*
X183264443Y209944601D01*
X183226686Y210015241D01*
X183222659Y210028514D01*
X183218513Y210036842D01*
X183194021Y210122923D01*
X183169781Y210202834D01*
X183168984Y210210920D01*
X183168035Y210214258D01*
X183158158Y210320839D01*
X183150566Y210397924D01*
X183158158Y210475014D01*
X183168035Y210581589D01*
X183168984Y210584925D01*
X183169781Y210593014D01*
X183194025Y210672939D01*
X183218513Y210759005D01*
X183222658Y210767330D01*
X183226686Y210780607D01*
X183264450Y210851260D01*
X183300730Y210924118D01*
X183309848Y210936192D01*
X183319096Y210953494D01*
X183366918Y211011766D01*
X183411890Y211071318D01*
X183427381Y211085440D01*
X183443459Y211105031D01*
X183497713Y211149556D01*
X183548199Y211195580D01*
X183570984Y211209687D01*
X183594996Y211229394D01*
X183652144Y211259940D01*
X183705027Y211292684D01*
X183735461Y211304474D01*
X183767883Y211321804D01*
X183824626Y211339016D01*
X183877028Y211359317D01*
X183914865Y211366390D01*
X183955476Y211378709D01*
X184008930Y211383973D01*
X184058339Y211393210D01*
X184102705Y211393210D01*
X184150566Y211397924D01*
X184198427Y211393210D01*
G37*
G36*
X190698427Y211393210D02*
G01*
X190742793Y211393210D01*
X190792201Y211383973D01*
X190845656Y211378709D01*
X190886267Y211366389D01*
X190924103Y211359317D01*
X190976500Y211339018D01*
X191033249Y211321804D01*
X191065673Y211304472D01*
X191096104Y211292684D01*
X191148979Y211259944D01*
X191206136Y211229394D01*
X191230151Y211209685D01*
X191252932Y211195580D01*
X191303408Y211149564D01*
X191357673Y211105031D01*
X191373753Y211085436D01*
X191389241Y211071318D01*
X191434200Y211011781D01*
X191482036Y210953494D01*
X191491286Y210936187D01*
X191500401Y210924118D01*
X191536666Y210851287D01*
X191574446Y210780607D01*
X191578474Y210767325D01*
X191582618Y210759005D01*
X191607089Y210672993D01*
X191631351Y210593014D01*
X191632148Y210584920D01*
X191633096Y210581589D01*
X191642956Y210475186D01*
X191650566Y210397924D01*
X191642956Y210320667D01*
X191633096Y210214258D01*
X191632148Y210210926D01*
X191631351Y210202834D01*
X191607094Y210122870D01*
X191582618Y210036842D01*
X191578474Y210028519D01*
X191574446Y210015241D01*
X191536673Y209944574D01*
X191500401Y209871729D01*
X191491284Y209859656D01*
X191482036Y209842354D01*
X191434210Y209784078D01*
X191389241Y209724529D01*
X191373750Y209710407D01*
X191357673Y209690817D01*
X191303419Y209646292D01*
X191252932Y209600267D01*
X191230146Y209586158D01*
X191206136Y209566454D01*
X191148991Y209535909D01*
X191096104Y209503163D01*
X191065666Y209491371D01*
X191033249Y209474044D01*
X190976512Y209456833D01*
X190924103Y209436530D01*
X190886261Y209429456D01*
X190845656Y209417139D01*
X190792204Y209411874D01*
X190742793Y209402638D01*
X190698427Y209402638D01*
X190650566Y209397924D01*
X190602705Y209402638D01*
X190558339Y209402638D01*
X190508927Y209411874D01*
X190455476Y209417139D01*
X190414872Y209429455D01*
X190377028Y209436530D01*
X190324614Y209456834D01*
X190267883Y209474044D01*
X190235467Y209491370D01*
X190205027Y209503163D01*
X190152133Y209535913D01*
X190094996Y209566454D01*
X190070989Y209586155D01*
X190048199Y209600267D01*
X189997702Y209646300D01*
X189943459Y209690817D01*
X189927384Y209710404D01*
X189911890Y209724529D01*
X189866909Y209784093D01*
X189819096Y209842354D01*
X189809849Y209859652D01*
X189800730Y209871729D01*
X189764443Y209944601D01*
X189726686Y210015241D01*
X189722659Y210028514D01*
X189718513Y210036842D01*
X189694021Y210122923D01*
X189669781Y210202834D01*
X189668984Y210210920D01*
X189668035Y210214258D01*
X189658158Y210320839D01*
X189650566Y210397924D01*
X189658158Y210475014D01*
X189668035Y210581589D01*
X189668984Y210584925D01*
X189669781Y210593014D01*
X189694025Y210672939D01*
X189718513Y210759005D01*
X189722658Y210767330D01*
X189726686Y210780607D01*
X189764450Y210851260D01*
X189800730Y210924118D01*
X189809848Y210936192D01*
X189819096Y210953494D01*
X189866918Y211011766D01*
X189911890Y211071318D01*
X189927381Y211085440D01*
X189943459Y211105031D01*
X189997713Y211149556D01*
X190048199Y211195580D01*
X190070984Y211209687D01*
X190094996Y211229394D01*
X190152144Y211259940D01*
X190205027Y211292684D01*
X190235461Y211304474D01*
X190267883Y211321804D01*
X190324626Y211339016D01*
X190377028Y211359317D01*
X190414865Y211366390D01*
X190455476Y211378709D01*
X190508930Y211383973D01*
X190558339Y211393210D01*
X190602705Y211393210D01*
X190650566Y211397924D01*
X190698427Y211393210D01*
G37*
G36*
X204518427Y211393210D02*
G01*
X204562793Y211393210D01*
X204612201Y211383973D01*
X204665656Y211378709D01*
X204706267Y211366389D01*
X204744103Y211359317D01*
X204796500Y211339018D01*
X204853249Y211321804D01*
X204885673Y211304472D01*
X204916104Y211292684D01*
X204968979Y211259944D01*
X205026136Y211229394D01*
X205050151Y211209685D01*
X205072932Y211195580D01*
X205123408Y211149564D01*
X205177673Y211105031D01*
X205193753Y211085436D01*
X205209241Y211071318D01*
X205254200Y211011781D01*
X205302036Y210953494D01*
X205311286Y210936187D01*
X205320401Y210924118D01*
X205356666Y210851287D01*
X205394446Y210780607D01*
X205398474Y210767325D01*
X205402618Y210759005D01*
X205427089Y210672993D01*
X205451351Y210593014D01*
X205452148Y210584920D01*
X205453096Y210581589D01*
X205462956Y210475186D01*
X205470566Y210397924D01*
X205462956Y210320667D01*
X205453096Y210214258D01*
X205452148Y210210926D01*
X205451351Y210202834D01*
X205427094Y210122870D01*
X205402618Y210036842D01*
X205398474Y210028519D01*
X205394446Y210015241D01*
X205356673Y209944574D01*
X205320401Y209871729D01*
X205311284Y209859656D01*
X205302036Y209842354D01*
X205254210Y209784078D01*
X205209241Y209724529D01*
X205193750Y209710407D01*
X205177673Y209690817D01*
X205123419Y209646292D01*
X205072932Y209600267D01*
X205050146Y209586158D01*
X205026136Y209566454D01*
X204968991Y209535909D01*
X204916104Y209503163D01*
X204885666Y209491371D01*
X204853249Y209474044D01*
X204796512Y209456833D01*
X204744103Y209436530D01*
X204706261Y209429456D01*
X204665656Y209417139D01*
X204612204Y209411874D01*
X204562793Y209402638D01*
X204518427Y209402638D01*
X204470566Y209397924D01*
X204422705Y209402638D01*
X204378339Y209402638D01*
X204328927Y209411874D01*
X204275476Y209417139D01*
X204234872Y209429455D01*
X204197028Y209436530D01*
X204144614Y209456834D01*
X204087883Y209474044D01*
X204055467Y209491370D01*
X204025027Y209503163D01*
X203972133Y209535913D01*
X203914996Y209566454D01*
X203890989Y209586155D01*
X203868199Y209600267D01*
X203817702Y209646300D01*
X203763459Y209690817D01*
X203747384Y209710404D01*
X203731890Y209724529D01*
X203686909Y209784093D01*
X203639096Y209842354D01*
X203629849Y209859652D01*
X203620730Y209871729D01*
X203584443Y209944601D01*
X203546686Y210015241D01*
X203542659Y210028514D01*
X203538513Y210036842D01*
X203514021Y210122923D01*
X203489781Y210202834D01*
X203488984Y210210920D01*
X203488035Y210214258D01*
X203478158Y210320839D01*
X203470566Y210397924D01*
X203478158Y210475014D01*
X203488035Y210581589D01*
X203488984Y210584925D01*
X203489781Y210593014D01*
X203514025Y210672939D01*
X203538513Y210759005D01*
X203542658Y210767330D01*
X203546686Y210780607D01*
X203584450Y210851260D01*
X203620730Y210924118D01*
X203629848Y210936192D01*
X203639096Y210953494D01*
X203686918Y211011766D01*
X203731890Y211071318D01*
X203747381Y211085440D01*
X203763459Y211105031D01*
X203817713Y211149556D01*
X203868199Y211195580D01*
X203890984Y211209687D01*
X203914996Y211229394D01*
X203972144Y211259940D01*
X204025027Y211292684D01*
X204055461Y211304474D01*
X204087883Y211321804D01*
X204144626Y211339016D01*
X204197028Y211359317D01*
X204234865Y211366390D01*
X204275476Y211378709D01*
X204328930Y211383973D01*
X204378339Y211393210D01*
X204422705Y211393210D01*
X204470566Y211397924D01*
X204518427Y211393210D01*
G37*
G36*
X211018427Y211393210D02*
G01*
X211062793Y211393210D01*
X211112201Y211383973D01*
X211165656Y211378709D01*
X211206267Y211366389D01*
X211244103Y211359317D01*
X211296500Y211339018D01*
X211353249Y211321804D01*
X211385673Y211304472D01*
X211416104Y211292684D01*
X211468979Y211259944D01*
X211526136Y211229394D01*
X211550151Y211209685D01*
X211572932Y211195580D01*
X211623408Y211149564D01*
X211677673Y211105031D01*
X211693753Y211085436D01*
X211709241Y211071318D01*
X211754200Y211011781D01*
X211802036Y210953494D01*
X211811286Y210936187D01*
X211820401Y210924118D01*
X211856666Y210851287D01*
X211894446Y210780607D01*
X211898474Y210767325D01*
X211902618Y210759005D01*
X211927089Y210672993D01*
X211951351Y210593014D01*
X211952148Y210584920D01*
X211953096Y210581589D01*
X211962956Y210475186D01*
X211970566Y210397924D01*
X211962956Y210320667D01*
X211953096Y210214258D01*
X211952148Y210210926D01*
X211951351Y210202834D01*
X211927094Y210122870D01*
X211902618Y210036842D01*
X211898474Y210028519D01*
X211894446Y210015241D01*
X211856673Y209944574D01*
X211820401Y209871729D01*
X211811284Y209859656D01*
X211802036Y209842354D01*
X211754210Y209784078D01*
X211709241Y209724529D01*
X211693750Y209710407D01*
X211677673Y209690817D01*
X211623419Y209646292D01*
X211572932Y209600267D01*
X211550146Y209586158D01*
X211526136Y209566454D01*
X211468991Y209535909D01*
X211416104Y209503163D01*
X211385666Y209491371D01*
X211353249Y209474044D01*
X211296512Y209456833D01*
X211244103Y209436530D01*
X211206261Y209429456D01*
X211165656Y209417139D01*
X211112204Y209411874D01*
X211062793Y209402638D01*
X211018427Y209402638D01*
X210970566Y209397924D01*
X210922705Y209402638D01*
X210878339Y209402638D01*
X210828927Y209411874D01*
X210775476Y209417139D01*
X210734872Y209429455D01*
X210697028Y209436530D01*
X210644614Y209456834D01*
X210587883Y209474044D01*
X210555467Y209491370D01*
X210525027Y209503163D01*
X210472133Y209535913D01*
X210414996Y209566454D01*
X210390989Y209586155D01*
X210368199Y209600267D01*
X210317702Y209646300D01*
X210263459Y209690817D01*
X210247384Y209710404D01*
X210231890Y209724529D01*
X210186909Y209784093D01*
X210139096Y209842354D01*
X210129849Y209859652D01*
X210120730Y209871729D01*
X210084443Y209944601D01*
X210046686Y210015241D01*
X210042659Y210028514D01*
X210038513Y210036842D01*
X210014021Y210122923D01*
X209989781Y210202834D01*
X209988984Y210210920D01*
X209988035Y210214258D01*
X209978158Y210320839D01*
X209970566Y210397924D01*
X209978158Y210475014D01*
X209988035Y210581589D01*
X209988984Y210584925D01*
X209989781Y210593014D01*
X210014025Y210672939D01*
X210038513Y210759005D01*
X210042658Y210767330D01*
X210046686Y210780607D01*
X210084450Y210851260D01*
X210120730Y210924118D01*
X210129848Y210936192D01*
X210139096Y210953494D01*
X210186918Y211011766D01*
X210231890Y211071318D01*
X210247381Y211085440D01*
X210263459Y211105031D01*
X210317713Y211149556D01*
X210368199Y211195580D01*
X210390984Y211209687D01*
X210414996Y211229394D01*
X210472144Y211259940D01*
X210525027Y211292684D01*
X210555461Y211304474D01*
X210587883Y211321804D01*
X210644626Y211339016D01*
X210697028Y211359317D01*
X210734865Y211366390D01*
X210775476Y211378709D01*
X210828930Y211383973D01*
X210878339Y211393210D01*
X210922705Y211393210D01*
X210970566Y211397924D01*
X211018427Y211393210D01*
G37*
G36*
X224838427Y211393210D02*
G01*
X224882793Y211393210D01*
X224932201Y211383973D01*
X224985656Y211378709D01*
X225026267Y211366389D01*
X225064103Y211359317D01*
X225116500Y211339018D01*
X225173249Y211321804D01*
X225205673Y211304472D01*
X225236104Y211292684D01*
X225288979Y211259944D01*
X225346136Y211229394D01*
X225370151Y211209685D01*
X225392932Y211195580D01*
X225443408Y211149564D01*
X225497673Y211105031D01*
X225513753Y211085436D01*
X225529241Y211071318D01*
X225574200Y211011781D01*
X225622036Y210953494D01*
X225631286Y210936187D01*
X225640401Y210924118D01*
X225676666Y210851287D01*
X225714446Y210780607D01*
X225718474Y210767325D01*
X225722618Y210759005D01*
X225747089Y210672993D01*
X225771351Y210593014D01*
X225772148Y210584920D01*
X225773096Y210581589D01*
X225782956Y210475186D01*
X225790566Y210397924D01*
X225782956Y210320667D01*
X225773096Y210214258D01*
X225772148Y210210926D01*
X225771351Y210202834D01*
X225747094Y210122870D01*
X225722618Y210036842D01*
X225718474Y210028519D01*
X225714446Y210015241D01*
X225676673Y209944574D01*
X225640401Y209871729D01*
X225631284Y209859656D01*
X225622036Y209842354D01*
X225574210Y209784078D01*
X225529241Y209724529D01*
X225513750Y209710407D01*
X225497673Y209690817D01*
X225443419Y209646292D01*
X225392932Y209600267D01*
X225370146Y209586158D01*
X225346136Y209566454D01*
X225288991Y209535909D01*
X225236104Y209503163D01*
X225205666Y209491371D01*
X225173249Y209474044D01*
X225116512Y209456833D01*
X225064103Y209436530D01*
X225026261Y209429456D01*
X224985656Y209417139D01*
X224932204Y209411874D01*
X224882793Y209402638D01*
X224838427Y209402638D01*
X224790566Y209397924D01*
X224742705Y209402638D01*
X224698339Y209402638D01*
X224648927Y209411874D01*
X224595476Y209417139D01*
X224554872Y209429455D01*
X224517028Y209436530D01*
X224464614Y209456834D01*
X224407883Y209474044D01*
X224375467Y209491370D01*
X224345027Y209503163D01*
X224292133Y209535913D01*
X224234996Y209566454D01*
X224210989Y209586155D01*
X224188199Y209600267D01*
X224137702Y209646300D01*
X224083459Y209690817D01*
X224067384Y209710404D01*
X224051890Y209724529D01*
X224006909Y209784093D01*
X223959096Y209842354D01*
X223949849Y209859652D01*
X223940730Y209871729D01*
X223904443Y209944601D01*
X223866686Y210015241D01*
X223862659Y210028514D01*
X223858513Y210036842D01*
X223834021Y210122923D01*
X223809781Y210202834D01*
X223808984Y210210920D01*
X223808035Y210214258D01*
X223798158Y210320839D01*
X223790566Y210397924D01*
X223798158Y210475014D01*
X223808035Y210581589D01*
X223808984Y210584925D01*
X223809781Y210593014D01*
X223834025Y210672939D01*
X223858513Y210759005D01*
X223862658Y210767330D01*
X223866686Y210780607D01*
X223904450Y210851260D01*
X223940730Y210924118D01*
X223949848Y210936192D01*
X223959096Y210953494D01*
X224006918Y211011766D01*
X224051890Y211071318D01*
X224067381Y211085440D01*
X224083459Y211105031D01*
X224137713Y211149556D01*
X224188199Y211195580D01*
X224210984Y211209687D01*
X224234996Y211229394D01*
X224292144Y211259940D01*
X224345027Y211292684D01*
X224375461Y211304474D01*
X224407883Y211321804D01*
X224464626Y211339016D01*
X224517028Y211359317D01*
X224554865Y211366390D01*
X224595476Y211378709D01*
X224648930Y211383973D01*
X224698339Y211393210D01*
X224742705Y211393210D01*
X224790566Y211397924D01*
X224838427Y211393210D01*
G37*
G36*
X231338427Y211393210D02*
G01*
X231382793Y211393210D01*
X231432201Y211383973D01*
X231485656Y211378709D01*
X231526267Y211366389D01*
X231564103Y211359317D01*
X231616500Y211339018D01*
X231673249Y211321804D01*
X231705673Y211304472D01*
X231736104Y211292684D01*
X231788979Y211259944D01*
X231846136Y211229394D01*
X231870151Y211209685D01*
X231892932Y211195580D01*
X231943408Y211149564D01*
X231997673Y211105031D01*
X232013753Y211085436D01*
X232029241Y211071318D01*
X232074200Y211011781D01*
X232122036Y210953494D01*
X232131286Y210936187D01*
X232140401Y210924118D01*
X232176666Y210851287D01*
X232214446Y210780607D01*
X232218474Y210767325D01*
X232222618Y210759005D01*
X232247089Y210672993D01*
X232271351Y210593014D01*
X232272148Y210584920D01*
X232273096Y210581589D01*
X232282956Y210475186D01*
X232290566Y210397924D01*
X232282956Y210320667D01*
X232273096Y210214258D01*
X232272148Y210210926D01*
X232271351Y210202834D01*
X232247094Y210122870D01*
X232222618Y210036842D01*
X232218474Y210028519D01*
X232214446Y210015241D01*
X232176673Y209944574D01*
X232140401Y209871729D01*
X232131284Y209859656D01*
X232122036Y209842354D01*
X232074210Y209784078D01*
X232029241Y209724529D01*
X232013750Y209710407D01*
X231997673Y209690817D01*
X231943419Y209646292D01*
X231892932Y209600267D01*
X231870146Y209586158D01*
X231846136Y209566454D01*
X231788991Y209535909D01*
X231736104Y209503163D01*
X231705666Y209491371D01*
X231673249Y209474044D01*
X231616512Y209456833D01*
X231564103Y209436530D01*
X231526261Y209429456D01*
X231485656Y209417139D01*
X231432204Y209411874D01*
X231382793Y209402638D01*
X231338427Y209402638D01*
X231290566Y209397924D01*
X231242705Y209402638D01*
X231198339Y209402638D01*
X231148927Y209411874D01*
X231095476Y209417139D01*
X231054872Y209429455D01*
X231017028Y209436530D01*
X230964614Y209456834D01*
X230907883Y209474044D01*
X230875467Y209491370D01*
X230845027Y209503163D01*
X230792133Y209535913D01*
X230734996Y209566454D01*
X230710989Y209586155D01*
X230688199Y209600267D01*
X230637702Y209646300D01*
X230583459Y209690817D01*
X230567384Y209710404D01*
X230551890Y209724529D01*
X230506909Y209784093D01*
X230459096Y209842354D01*
X230449849Y209859652D01*
X230440730Y209871729D01*
X230404443Y209944601D01*
X230366686Y210015241D01*
X230362659Y210028514D01*
X230358513Y210036842D01*
X230334021Y210122923D01*
X230309781Y210202834D01*
X230308984Y210210920D01*
X230308035Y210214258D01*
X230298158Y210320839D01*
X230290566Y210397924D01*
X230298158Y210475014D01*
X230308035Y210581589D01*
X230308984Y210584925D01*
X230309781Y210593014D01*
X230334025Y210672939D01*
X230358513Y210759005D01*
X230362658Y210767330D01*
X230366686Y210780607D01*
X230404450Y210851260D01*
X230440730Y210924118D01*
X230449848Y210936192D01*
X230459096Y210953494D01*
X230506918Y211011766D01*
X230551890Y211071318D01*
X230567381Y211085440D01*
X230583459Y211105031D01*
X230637713Y211149556D01*
X230688199Y211195580D01*
X230710984Y211209687D01*
X230734996Y211229394D01*
X230792144Y211259940D01*
X230845027Y211292684D01*
X230875461Y211304474D01*
X230907883Y211321804D01*
X230964626Y211339016D01*
X231017028Y211359317D01*
X231054865Y211366390D01*
X231095476Y211378709D01*
X231148930Y211383973D01*
X231198339Y211393210D01*
X231242705Y211393210D01*
X231290566Y211397924D01*
X231338427Y211393210D01*
G37*
G36*
X245158427Y211393210D02*
G01*
X245202793Y211393210D01*
X245252201Y211383973D01*
X245305656Y211378709D01*
X245346267Y211366389D01*
X245384103Y211359317D01*
X245436500Y211339018D01*
X245493249Y211321804D01*
X245525673Y211304472D01*
X245556104Y211292684D01*
X245608979Y211259944D01*
X245666136Y211229394D01*
X245690151Y211209685D01*
X245712932Y211195580D01*
X245763408Y211149564D01*
X245817673Y211105031D01*
X245833753Y211085436D01*
X245849241Y211071318D01*
X245894200Y211011781D01*
X245942036Y210953494D01*
X245951286Y210936187D01*
X245960401Y210924118D01*
X245996666Y210851287D01*
X246034446Y210780607D01*
X246038474Y210767325D01*
X246042618Y210759005D01*
X246067089Y210672993D01*
X246091351Y210593014D01*
X246092148Y210584920D01*
X246093096Y210581589D01*
X246102956Y210475186D01*
X246110566Y210397924D01*
X246102956Y210320667D01*
X246093096Y210214258D01*
X246092148Y210210926D01*
X246091351Y210202834D01*
X246067094Y210122870D01*
X246042618Y210036842D01*
X246038474Y210028519D01*
X246034446Y210015241D01*
X245996673Y209944574D01*
X245960401Y209871729D01*
X245951284Y209859656D01*
X245942036Y209842354D01*
X245894210Y209784078D01*
X245849241Y209724529D01*
X245833750Y209710407D01*
X245817673Y209690817D01*
X245763419Y209646292D01*
X245712932Y209600267D01*
X245690146Y209586158D01*
X245666136Y209566454D01*
X245608991Y209535909D01*
X245556104Y209503163D01*
X245525666Y209491371D01*
X245493249Y209474044D01*
X245436512Y209456833D01*
X245384103Y209436530D01*
X245346261Y209429456D01*
X245305656Y209417139D01*
X245252204Y209411874D01*
X245202793Y209402638D01*
X245158427Y209402638D01*
X245110566Y209397924D01*
X245062705Y209402638D01*
X245018339Y209402638D01*
X244968927Y209411874D01*
X244915476Y209417139D01*
X244874872Y209429455D01*
X244837028Y209436530D01*
X244784614Y209456834D01*
X244727883Y209474044D01*
X244695467Y209491370D01*
X244665027Y209503163D01*
X244612133Y209535913D01*
X244554996Y209566454D01*
X244530989Y209586155D01*
X244508199Y209600267D01*
X244457702Y209646300D01*
X244403459Y209690817D01*
X244387384Y209710404D01*
X244371890Y209724529D01*
X244326909Y209784093D01*
X244279096Y209842354D01*
X244269849Y209859652D01*
X244260730Y209871729D01*
X244224443Y209944601D01*
X244186686Y210015241D01*
X244182659Y210028514D01*
X244178513Y210036842D01*
X244154021Y210122923D01*
X244129781Y210202834D01*
X244128984Y210210920D01*
X244128035Y210214258D01*
X244118158Y210320839D01*
X244110566Y210397924D01*
X244118158Y210475014D01*
X244128035Y210581589D01*
X244128984Y210584925D01*
X244129781Y210593014D01*
X244154025Y210672939D01*
X244178513Y210759005D01*
X244182658Y210767330D01*
X244186686Y210780607D01*
X244224450Y210851260D01*
X244260730Y210924118D01*
X244269848Y210936192D01*
X244279096Y210953494D01*
X244326918Y211011766D01*
X244371890Y211071318D01*
X244387381Y211085440D01*
X244403459Y211105031D01*
X244457713Y211149556D01*
X244508199Y211195580D01*
X244530984Y211209687D01*
X244554996Y211229394D01*
X244612144Y211259940D01*
X244665027Y211292684D01*
X244695461Y211304474D01*
X244727883Y211321804D01*
X244784626Y211339016D01*
X244837028Y211359317D01*
X244874865Y211366390D01*
X244915476Y211378709D01*
X244968930Y211383973D01*
X245018339Y211393210D01*
X245062705Y211393210D01*
X245110566Y211397924D01*
X245158427Y211393210D01*
G37*
G36*
X251658427Y211393210D02*
G01*
X251702793Y211393210D01*
X251752201Y211383973D01*
X251805656Y211378709D01*
X251846267Y211366389D01*
X251884103Y211359317D01*
X251936500Y211339018D01*
X251993249Y211321804D01*
X252025673Y211304472D01*
X252056104Y211292684D01*
X252108979Y211259944D01*
X252166136Y211229394D01*
X252190151Y211209685D01*
X252212932Y211195580D01*
X252263408Y211149564D01*
X252317673Y211105031D01*
X252333753Y211085436D01*
X252349241Y211071318D01*
X252394200Y211011781D01*
X252442036Y210953494D01*
X252451286Y210936187D01*
X252460401Y210924118D01*
X252496666Y210851287D01*
X252534446Y210780607D01*
X252538474Y210767325D01*
X252542618Y210759005D01*
X252567089Y210672993D01*
X252591351Y210593014D01*
X252592148Y210584920D01*
X252593096Y210581589D01*
X252602956Y210475186D01*
X252610566Y210397924D01*
X252602956Y210320667D01*
X252593096Y210214258D01*
X252592148Y210210926D01*
X252591351Y210202834D01*
X252567094Y210122870D01*
X252542618Y210036842D01*
X252538474Y210028519D01*
X252534446Y210015241D01*
X252496673Y209944574D01*
X252460401Y209871729D01*
X252451284Y209859656D01*
X252442036Y209842354D01*
X252394210Y209784078D01*
X252349241Y209724529D01*
X252333750Y209710407D01*
X252317673Y209690817D01*
X252263419Y209646292D01*
X252212932Y209600267D01*
X252190146Y209586158D01*
X252166136Y209566454D01*
X252108991Y209535909D01*
X252056104Y209503163D01*
X252025666Y209491371D01*
X251993249Y209474044D01*
X251936512Y209456833D01*
X251884103Y209436530D01*
X251846261Y209429456D01*
X251805656Y209417139D01*
X251752204Y209411874D01*
X251702793Y209402638D01*
X251658427Y209402638D01*
X251610566Y209397924D01*
X251562705Y209402638D01*
X251518339Y209402638D01*
X251468927Y209411874D01*
X251415476Y209417139D01*
X251374872Y209429455D01*
X251337028Y209436530D01*
X251284614Y209456834D01*
X251227883Y209474044D01*
X251195467Y209491370D01*
X251165027Y209503163D01*
X251112133Y209535913D01*
X251054996Y209566454D01*
X251030989Y209586155D01*
X251008199Y209600267D01*
X250957702Y209646300D01*
X250903459Y209690817D01*
X250887384Y209710404D01*
X250871890Y209724529D01*
X250826909Y209784093D01*
X250779096Y209842354D01*
X250769849Y209859652D01*
X250760730Y209871729D01*
X250724443Y209944601D01*
X250686686Y210015241D01*
X250682659Y210028514D01*
X250678513Y210036842D01*
X250654021Y210122923D01*
X250629781Y210202834D01*
X250628984Y210210920D01*
X250628035Y210214258D01*
X250618158Y210320839D01*
X250610566Y210397924D01*
X250618158Y210475014D01*
X250628035Y210581589D01*
X250628984Y210584925D01*
X250629781Y210593014D01*
X250654025Y210672939D01*
X250678513Y210759005D01*
X250682658Y210767330D01*
X250686686Y210780607D01*
X250724450Y210851260D01*
X250760730Y210924118D01*
X250769848Y210936192D01*
X250779096Y210953494D01*
X250826918Y211011766D01*
X250871890Y211071318D01*
X250887381Y211085440D01*
X250903459Y211105031D01*
X250957713Y211149556D01*
X251008199Y211195580D01*
X251030984Y211209687D01*
X251054996Y211229394D01*
X251112144Y211259940D01*
X251165027Y211292684D01*
X251195461Y211304474D01*
X251227883Y211321804D01*
X251284626Y211339016D01*
X251337028Y211359317D01*
X251374865Y211366390D01*
X251415476Y211378709D01*
X251468930Y211383973D01*
X251518339Y211393210D01*
X251562705Y211393210D01*
X251610566Y211397924D01*
X251658427Y211393210D01*
G37*
G36*
X175668726Y211228842D02*
G01*
X175701169Y211207165D01*
X175722846Y211174722D01*
X175730458Y211136454D01*
X175730458Y209861454D01*
X175722846Y209823186D01*
X175701169Y209790743D01*
X175668726Y209769066D01*
X175630458Y209761454D01*
X175620114Y209761454D01*
X175440797Y209761454D01*
X175430458Y209761454D01*
X175392190Y209769066D01*
X175359747Y209790743D01*
X175338070Y209823186D01*
X175330458Y209861454D01*
X175330458Y211136454D01*
X175338070Y211174722D01*
X175359747Y211207165D01*
X175392190Y211228842D01*
X175430458Y211236454D01*
X175630458Y211236454D01*
X175668726Y211228842D01*
G37*
G36*
X176318726Y211228842D02*
G01*
X176351169Y211207165D01*
X176372846Y211174722D01*
X176380458Y211136454D01*
X176380458Y209861454D01*
X176372846Y209823186D01*
X176351169Y209790743D01*
X176318726Y209769066D01*
X176280458Y209761454D01*
X176270114Y209761454D01*
X176090797Y209761454D01*
X176080458Y209761454D01*
X176042190Y209769066D01*
X176009747Y209790743D01*
X175988070Y209823186D01*
X175980458Y209861454D01*
X175980458Y211136454D01*
X175988070Y211174722D01*
X176009747Y211207165D01*
X176042190Y211228842D01*
X176080458Y211236454D01*
X176280458Y211236454D01*
X176318726Y211228842D01*
G37*
G36*
X176968726Y211228842D02*
G01*
X177001169Y211207165D01*
X177022846Y211174722D01*
X177030458Y211136454D01*
X177030458Y209861454D01*
X177022846Y209823186D01*
X177001169Y209790743D01*
X176968726Y209769066D01*
X176930458Y209761454D01*
X176920114Y209761454D01*
X176740797Y209761454D01*
X176730458Y209761454D01*
X176692190Y209769066D01*
X176659747Y209790743D01*
X176638070Y209823186D01*
X176630458Y209861454D01*
X176630458Y211136454D01*
X176638070Y211174722D01*
X176659747Y211207165D01*
X176692190Y211228842D01*
X176730458Y211236454D01*
X176930458Y211236454D01*
X176968726Y211228842D01*
G37*
G36*
X177618726Y211228842D02*
G01*
X177651169Y211207165D01*
X177672846Y211174722D01*
X177680458Y211136454D01*
X177680458Y209861454D01*
X177672846Y209823186D01*
X177651169Y209790743D01*
X177618726Y209769066D01*
X177580458Y209761454D01*
X177570114Y209761454D01*
X177390797Y209761454D01*
X177380458Y209761454D01*
X177342190Y209769066D01*
X177309747Y209790743D01*
X177288070Y209823186D01*
X177280458Y209861454D01*
X177280458Y211136454D01*
X177288070Y211174722D01*
X177309747Y211207165D01*
X177342190Y211228842D01*
X177380458Y211236454D01*
X177580458Y211236454D01*
X177618726Y211228842D01*
G37*
G36*
X178268726Y211228842D02*
G01*
X178301169Y211207165D01*
X178322846Y211174722D01*
X178330458Y211136454D01*
X178330458Y209861454D01*
X178322846Y209823186D01*
X178301169Y209790743D01*
X178268726Y209769066D01*
X178230458Y209761454D01*
X178220114Y209761454D01*
X178040797Y209761454D01*
X178030458Y209761454D01*
X177992190Y209769066D01*
X177959747Y209790743D01*
X177938070Y209823186D01*
X177930458Y209861454D01*
X177930458Y211136454D01*
X177938070Y211174722D01*
X177959747Y211207165D01*
X177992190Y211228842D01*
X178030458Y211236454D01*
X178230458Y211236454D01*
X178268726Y211228842D01*
G37*
G36*
X178918726Y211228842D02*
G01*
X178951169Y211207165D01*
X178972846Y211174722D01*
X178980458Y211136454D01*
X178980458Y209861454D01*
X178972846Y209823186D01*
X178951169Y209790743D01*
X178918726Y209769066D01*
X178880458Y209761454D01*
X178870114Y209761454D01*
X178690797Y209761454D01*
X178680458Y209761454D01*
X178642190Y209769066D01*
X178609747Y209790743D01*
X178588070Y209823186D01*
X178580458Y209861454D01*
X178580458Y211136454D01*
X178588070Y211174722D01*
X178609747Y211207165D01*
X178642190Y211228842D01*
X178680458Y211236454D01*
X178880458Y211236454D01*
X178918726Y211228842D01*
G37*
G36*
X179568726Y211228842D02*
G01*
X179601169Y211207165D01*
X179622846Y211174722D01*
X179630458Y211136454D01*
X179630458Y209861454D01*
X179622846Y209823186D01*
X179601169Y209790743D01*
X179568726Y209769066D01*
X179530458Y209761454D01*
X179520114Y209761454D01*
X179340797Y209761454D01*
X179330458Y209761454D01*
X179292190Y209769066D01*
X179259747Y209790743D01*
X179238070Y209823186D01*
X179230458Y209861454D01*
X179230458Y211136454D01*
X179238070Y211174722D01*
X179259747Y211207165D01*
X179292190Y211228842D01*
X179330458Y211236454D01*
X179530458Y211236454D01*
X179568726Y211228842D01*
G37*
G36*
X180218726Y211228842D02*
G01*
X180251169Y211207165D01*
X180272846Y211174722D01*
X180280458Y211136454D01*
X180280458Y209861454D01*
X180272846Y209823186D01*
X180251169Y209790743D01*
X180218726Y209769066D01*
X180180458Y209761454D01*
X180170114Y209761454D01*
X179990797Y209761454D01*
X179980458Y209761454D01*
X179942190Y209769066D01*
X179909747Y209790743D01*
X179888070Y209823186D01*
X179880458Y209861454D01*
X179880458Y211136454D01*
X179888070Y211174722D01*
X179909747Y211207165D01*
X179942190Y211228842D01*
X179980458Y211236454D01*
X180180458Y211236454D01*
X180218726Y211228842D01*
G37*
G36*
X160075217Y216350315D02*
G01*
X160121354Y216350315D01*
X160160483Y216341041D01*
X160195376Y216337246D01*
X160240158Y216322157D01*
X160290800Y216310155D01*
X160321413Y216294780D01*
X160348942Y216285505D01*
X160394690Y216257978D01*
X160446416Y216232001D01*
X160470579Y216212317D01*
X160489635Y216200852D01*
X160559097Y216140210D01*
X160564615Y216135716D01*
X162332382Y214367949D01*
X162336853Y214362459D01*
X162397516Y214292972D01*
X162408982Y214273914D01*
X162428667Y214249750D01*
X162454645Y214198023D01*
X162482171Y214152276D01*
X162491446Y214124747D01*
X162506821Y214094134D01*
X162518823Y214043492D01*
X162533912Y213998710D01*
X162537707Y213963817D01*
X162546981Y213924688D01*
X162546981Y213878551D01*
X162551433Y213837619D01*
X162546981Y213796686D01*
X162546981Y213750549D01*
X162537707Y213711420D01*
X162533912Y213676526D01*
X162518822Y213631739D01*
X162506821Y213581104D01*
X162491448Y213550493D01*
X162482171Y213522960D01*
X162454640Y213477204D01*
X162428667Y213425487D01*
X162408986Y213401327D01*
X162397518Y213382267D01*
X162336852Y213312776D01*
X162332382Y213307289D01*
X161271721Y212246628D01*
X161266263Y212242182D01*
X161196745Y212181493D01*
X161177681Y212170022D01*
X161153523Y212150343D01*
X161101808Y212124371D01*
X161056049Y212096838D01*
X161028512Y212087559D01*
X160997906Y212072189D01*
X160947277Y212060189D01*
X160902483Y212045097D01*
X160867581Y212041301D01*
X160828461Y212032029D01*
X160782333Y212032029D01*
X160741391Y212027576D01*
X160700449Y212032029D01*
X160654322Y212032029D01*
X160615201Y212041300D01*
X160580299Y212045097D01*
X160535504Y212060189D01*
X160484876Y212072189D01*
X160454270Y212087559D01*
X160426733Y212096838D01*
X160380969Y212124373D01*
X160329260Y212150343D01*
X160305104Y212170020D01*
X160286040Y212181491D01*
X160216546Y212242159D01*
X160211061Y212246628D01*
X158443294Y214014395D01*
X158438848Y214019852D01*
X158378159Y214089371D01*
X158366686Y214108437D01*
X158347009Y214132594D01*
X158321039Y214184303D01*
X158293504Y214230067D01*
X158284225Y214257604D01*
X158268855Y214288210D01*
X158256855Y214338838D01*
X158241763Y214383633D01*
X158237966Y214418535D01*
X158228695Y214457656D01*
X158228695Y214503783D01*
X158224242Y214544725D01*
X158228695Y214585666D01*
X158228695Y214631795D01*
X158237967Y214670915D01*
X158241763Y214705817D01*
X158256855Y214750611D01*
X158268855Y214801240D01*
X158284225Y214831846D01*
X158293504Y214859383D01*
X158321037Y214905143D01*
X158347009Y214956857D01*
X158366688Y214981014D01*
X158378157Y215000076D01*
X158438825Y215069569D01*
X158443294Y215075055D01*
X159503955Y216135716D01*
X159509414Y216140163D01*
X159578930Y216200850D01*
X159597992Y216212319D01*
X159622153Y216232001D01*
X159673871Y216257974D01*
X159719626Y216285505D01*
X159747159Y216294782D01*
X159777770Y216310155D01*
X159828405Y216322156D01*
X159873192Y216337246D01*
X159908087Y216341041D01*
X159947215Y216350315D01*
X159993351Y216350315D01*
X160034284Y216354767D01*
X160075217Y216350315D01*
G37*
G36*
X173789207Y213280216D02*
G01*
X173834626Y213249868D01*
X173864974Y213204449D01*
X173875631Y213150873D01*
X173875631Y212870873D01*
X173864974Y212817297D01*
X173834626Y212771878D01*
X173789207Y212741530D01*
X173735631Y212730873D01*
X173725287Y212730873D01*
X173405974Y212730873D01*
X173395631Y212730873D01*
X173342055Y212741530D01*
X173296636Y212771878D01*
X173266288Y212817297D01*
X173255631Y212870873D01*
X173255631Y213150873D01*
X173266288Y213204449D01*
X173296636Y213249868D01*
X173342055Y213280216D01*
X173395631Y213290873D01*
X173735631Y213290873D01*
X173789207Y213280216D01*
G37*
G36*
X198236945Y216859185D02*
G01*
X198328986Y216852944D01*
X198350569Y216847576D01*
X198381573Y216844409D01*
X198436519Y216826202D01*
X198488328Y216813318D01*
X198514351Y216800411D01*
X198546874Y216789635D01*
X198591167Y216762314D01*
X198633501Y216741319D01*
X198660859Y216719327D01*
X198695087Y216698216D01*
X198727714Y216665588D01*
X198759802Y216639796D01*
X198785594Y216607708D01*
X198818222Y216575081D01*
X198839333Y216540853D01*
X198861325Y216513495D01*
X198882320Y216471161D01*
X198909641Y216426868D01*
X198920417Y216394345D01*
X198933324Y216368322D01*
X198946208Y216316513D01*
X198964415Y216261567D01*
X198967582Y216230563D01*
X198972950Y216208980D01*
X198979191Y216116939D01*
X198979910Y216109904D01*
X198979910Y213609904D01*
X198979191Y213602870D01*
X198972950Y213510827D01*
X198967582Y213489243D01*
X198964415Y213458241D01*
X198946209Y213403297D01*
X198933324Y213351485D01*
X198920416Y213325459D01*
X198909641Y213292940D01*
X198882323Y213248650D01*
X198861325Y213206312D01*
X198839331Y213178950D01*
X198818222Y213144727D01*
X198785598Y213112103D01*
X198759802Y213080011D01*
X198727709Y213054214D01*
X198695087Y213021592D01*
X198660864Y213000483D01*
X198633501Y212978488D01*
X198591159Y212957488D01*
X198546874Y212930173D01*
X198514357Y212919398D01*
X198488328Y212906489D01*
X198436506Y212893601D01*
X198381573Y212875399D01*
X198350576Y212872232D01*
X198328986Y212866863D01*
X198236916Y212860619D01*
X198229910Y212859904D01*
X198226360Y212859904D01*
X196733459Y212859904D01*
X196729910Y212859904D01*
X196722905Y212860619D01*
X196630833Y212866863D01*
X196609242Y212872232D01*
X196578247Y212875399D01*
X196523316Y212893600D01*
X196471491Y212906489D01*
X196445459Y212919399D01*
X196412946Y212930173D01*
X196368665Y212957485D01*
X196326318Y212978488D01*
X196298951Y213000485D01*
X196264733Y213021592D01*
X196232114Y213054210D01*
X196200017Y213080011D01*
X196174216Y213112108D01*
X196141598Y213144727D01*
X196120491Y213178945D01*
X196098494Y213206312D01*
X196077491Y213248659D01*
X196050179Y213292940D01*
X196039405Y213325453D01*
X196026495Y213351485D01*
X196013606Y213403310D01*
X195995405Y213458241D01*
X195992238Y213489236D01*
X195986869Y213510827D01*
X195980625Y213602899D01*
X195979910Y213609904D01*
X195979910Y216109904D01*
X195980625Y216116910D01*
X195986869Y216208980D01*
X195992238Y216230570D01*
X195995405Y216261567D01*
X196013607Y216316500D01*
X196026495Y216368322D01*
X196039404Y216394351D01*
X196050179Y216426868D01*
X196077494Y216471153D01*
X196098494Y216513495D01*
X196120489Y216540858D01*
X196141598Y216575081D01*
X196174220Y216607703D01*
X196200017Y216639796D01*
X196232109Y216665592D01*
X196264733Y216698216D01*
X196298956Y216719325D01*
X196326318Y216741319D01*
X196368656Y216762317D01*
X196412946Y216789635D01*
X196445465Y216800410D01*
X196471491Y216813318D01*
X196523303Y216826203D01*
X196578247Y216844409D01*
X196609249Y216847576D01*
X196630833Y216852944D01*
X196722876Y216859185D01*
X196729910Y216859904D01*
X198229910Y216859904D01*
X198236945Y216859185D01*
G37*
G36*
X194750222Y216869975D02*
G01*
X194842263Y216863734D01*
X194863846Y216858366D01*
X194894850Y216855199D01*
X194949796Y216836992D01*
X195001605Y216824108D01*
X195027628Y216811201D01*
X195060151Y216800425D01*
X195104444Y216773104D01*
X195146778Y216752109D01*
X195174136Y216730117D01*
X195208364Y216709006D01*
X195240991Y216676378D01*
X195273079Y216650586D01*
X195298871Y216618498D01*
X195331499Y216585871D01*
X195352610Y216551643D01*
X195374602Y216524285D01*
X195395597Y216481951D01*
X195422918Y216437658D01*
X195433694Y216405135D01*
X195446601Y216379112D01*
X195459485Y216327303D01*
X195477692Y216272357D01*
X195480859Y216241353D01*
X195486227Y216219770D01*
X195492468Y216127729D01*
X195493187Y216120694D01*
X195493187Y213620694D01*
X195492468Y213613660D01*
X195486227Y213521617D01*
X195480859Y213500033D01*
X195477692Y213469031D01*
X195459486Y213414087D01*
X195446601Y213362275D01*
X195433693Y213336249D01*
X195422918Y213303730D01*
X195395600Y213259440D01*
X195374602Y213217102D01*
X195352608Y213189740D01*
X195331499Y213155517D01*
X195298875Y213122893D01*
X195273079Y213090801D01*
X195240986Y213065004D01*
X195208364Y213032382D01*
X195174141Y213011273D01*
X195146778Y212989278D01*
X195104436Y212968278D01*
X195060151Y212940963D01*
X195027634Y212930188D01*
X195001605Y212917279D01*
X194949783Y212904391D01*
X194894850Y212886189D01*
X194863853Y212883022D01*
X194842263Y212877653D01*
X194750193Y212871409D01*
X194743187Y212870694D01*
X194739637Y212870694D01*
X193246736Y212870694D01*
X193243187Y212870694D01*
X193236182Y212871409D01*
X193144110Y212877653D01*
X193122519Y212883022D01*
X193091524Y212886189D01*
X193036593Y212904390D01*
X192984768Y212917279D01*
X192958736Y212930189D01*
X192926223Y212940963D01*
X192881942Y212968275D01*
X192839595Y212989278D01*
X192812228Y213011275D01*
X192778010Y213032382D01*
X192745391Y213065000D01*
X192713294Y213090801D01*
X192687493Y213122898D01*
X192654875Y213155517D01*
X192633768Y213189735D01*
X192611771Y213217102D01*
X192590768Y213259449D01*
X192563456Y213303730D01*
X192552682Y213336243D01*
X192539772Y213362275D01*
X192526883Y213414100D01*
X192508682Y213469031D01*
X192505515Y213500026D01*
X192500146Y213521617D01*
X192493902Y213613689D01*
X192493187Y213620694D01*
X192493187Y216120694D01*
X192493902Y216127700D01*
X192500146Y216219770D01*
X192505515Y216241360D01*
X192508682Y216272357D01*
X192526884Y216327290D01*
X192539772Y216379112D01*
X192552681Y216405141D01*
X192563456Y216437658D01*
X192590771Y216481943D01*
X192611771Y216524285D01*
X192633766Y216551648D01*
X192654875Y216585871D01*
X192687497Y216618493D01*
X192713294Y216650586D01*
X192745386Y216676382D01*
X192778010Y216709006D01*
X192812233Y216730115D01*
X192839595Y216752109D01*
X192881933Y216773107D01*
X192926223Y216800425D01*
X192958742Y216811200D01*
X192984768Y216824108D01*
X193036580Y216836993D01*
X193091524Y216855199D01*
X193122526Y216858366D01*
X193144110Y216863734D01*
X193236153Y216869975D01*
X193243187Y216870694D01*
X194743187Y216870694D01*
X194750222Y216869975D01*
G37*
G36*
X201711446Y216873722D02*
G01*
X201803487Y216867481D01*
X201825070Y216862113D01*
X201856074Y216858946D01*
X201911020Y216840739D01*
X201962829Y216827855D01*
X201988852Y216814948D01*
X202021375Y216804172D01*
X202065668Y216776851D01*
X202108002Y216755856D01*
X202135360Y216733864D01*
X202169588Y216712753D01*
X202202215Y216680125D01*
X202234303Y216654333D01*
X202260095Y216622245D01*
X202292723Y216589618D01*
X202313834Y216555390D01*
X202335826Y216528032D01*
X202356821Y216485698D01*
X202384142Y216441405D01*
X202394918Y216408882D01*
X202407825Y216382859D01*
X202420709Y216331050D01*
X202438916Y216276104D01*
X202442083Y216245100D01*
X202447451Y216223517D01*
X202453692Y216131476D01*
X202454411Y216124441D01*
X202454411Y213624441D01*
X202453692Y213617407D01*
X202447451Y213525364D01*
X202442083Y213503780D01*
X202438916Y213472778D01*
X202420710Y213417834D01*
X202407825Y213366022D01*
X202394917Y213339996D01*
X202384142Y213307477D01*
X202356824Y213263187D01*
X202335826Y213220849D01*
X202313832Y213193487D01*
X202292723Y213159264D01*
X202260099Y213126640D01*
X202234303Y213094548D01*
X202202210Y213068751D01*
X202169588Y213036129D01*
X202135365Y213015020D01*
X202108002Y212993025D01*
X202065660Y212972025D01*
X202021375Y212944710D01*
X201988858Y212933935D01*
X201962829Y212921026D01*
X201911007Y212908138D01*
X201856074Y212889936D01*
X201825077Y212886769D01*
X201803487Y212881400D01*
X201711417Y212875156D01*
X201704411Y212874441D01*
X201700861Y212874441D01*
X200207960Y212874441D01*
X200204411Y212874441D01*
X200197406Y212875156D01*
X200105334Y212881400D01*
X200083743Y212886769D01*
X200052748Y212889936D01*
X199997817Y212908137D01*
X199945992Y212921026D01*
X199919960Y212933936D01*
X199887447Y212944710D01*
X199843166Y212972022D01*
X199800819Y212993025D01*
X199773452Y213015022D01*
X199739234Y213036129D01*
X199706615Y213068747D01*
X199674518Y213094548D01*
X199648717Y213126645D01*
X199616099Y213159264D01*
X199594992Y213193482D01*
X199572995Y213220849D01*
X199551992Y213263196D01*
X199524680Y213307477D01*
X199513906Y213339990D01*
X199500996Y213366022D01*
X199488107Y213417847D01*
X199469906Y213472778D01*
X199466739Y213503773D01*
X199461370Y213525364D01*
X199455126Y213617436D01*
X199454411Y213624441D01*
X199454411Y216124441D01*
X199455126Y216131447D01*
X199461370Y216223517D01*
X199466739Y216245107D01*
X199469906Y216276104D01*
X199488108Y216331037D01*
X199500996Y216382859D01*
X199513905Y216408888D01*
X199524680Y216441405D01*
X199551995Y216485690D01*
X199572995Y216528032D01*
X199594990Y216555395D01*
X199616099Y216589618D01*
X199648721Y216622240D01*
X199674518Y216654333D01*
X199706610Y216680129D01*
X199739234Y216712753D01*
X199773457Y216733862D01*
X199800819Y216755856D01*
X199843157Y216776854D01*
X199887447Y216804172D01*
X199919966Y216814947D01*
X199945992Y216827855D01*
X199997804Y216840740D01*
X200052748Y216858946D01*
X200083750Y216862113D01*
X200105334Y216867481D01*
X200197377Y216873722D01*
X200204411Y216874441D01*
X201704411Y216874441D01*
X201711446Y216873722D01*
G37*
G36*
X173789207Y214240216D02*
G01*
X173834626Y214209868D01*
X173864974Y214164449D01*
X173875631Y214110873D01*
X173875631Y213830873D01*
X173864974Y213777297D01*
X173834626Y213731878D01*
X173789207Y213701530D01*
X173735631Y213690873D01*
X173725287Y213690873D01*
X173405974Y213690873D01*
X173395631Y213690873D01*
X173342055Y213701530D01*
X173296636Y213731878D01*
X173266288Y213777297D01*
X173255631Y213830873D01*
X173255631Y214110873D01*
X173266288Y214164449D01*
X173296636Y214209868D01*
X173342055Y214240216D01*
X173395631Y214250873D01*
X173735631Y214250873D01*
X173789207Y214240216D01*
G37*
G36*
X163878427Y215893210D02*
G01*
X163922793Y215893210D01*
X163972201Y215883973D01*
X164025656Y215878709D01*
X164066267Y215866389D01*
X164104103Y215859317D01*
X164156500Y215839018D01*
X164213249Y215821804D01*
X164245673Y215804472D01*
X164276104Y215792684D01*
X164328979Y215759944D01*
X164386136Y215729394D01*
X164410151Y215709685D01*
X164432932Y215695580D01*
X164483408Y215649564D01*
X164537673Y215605031D01*
X164553753Y215585436D01*
X164569241Y215571318D01*
X164614200Y215511781D01*
X164662036Y215453494D01*
X164671286Y215436187D01*
X164680401Y215424118D01*
X164716666Y215351287D01*
X164754446Y215280607D01*
X164758474Y215267325D01*
X164762618Y215259005D01*
X164787089Y215172993D01*
X164811351Y215093014D01*
X164812148Y215084920D01*
X164813096Y215081589D01*
X164822956Y214975186D01*
X164830566Y214897924D01*
X164822956Y214820667D01*
X164813096Y214714258D01*
X164812148Y214710926D01*
X164811351Y214702834D01*
X164787094Y214622870D01*
X164762618Y214536842D01*
X164758474Y214528519D01*
X164754446Y214515241D01*
X164716673Y214444574D01*
X164680401Y214371729D01*
X164671284Y214359656D01*
X164662036Y214342354D01*
X164614210Y214284078D01*
X164569241Y214224529D01*
X164553750Y214210407D01*
X164537673Y214190817D01*
X164483419Y214146292D01*
X164432932Y214100267D01*
X164410146Y214086158D01*
X164386136Y214066454D01*
X164328991Y214035909D01*
X164276104Y214003163D01*
X164245666Y213991371D01*
X164213249Y213974044D01*
X164156512Y213956833D01*
X164104103Y213936530D01*
X164066261Y213929456D01*
X164025656Y213917139D01*
X163972204Y213911874D01*
X163922793Y213902638D01*
X163878427Y213902638D01*
X163830566Y213897924D01*
X163782705Y213902638D01*
X163738339Y213902638D01*
X163688927Y213911874D01*
X163635476Y213917139D01*
X163594872Y213929455D01*
X163557028Y213936530D01*
X163504614Y213956834D01*
X163447883Y213974044D01*
X163415467Y213991370D01*
X163385027Y214003163D01*
X163332133Y214035913D01*
X163274996Y214066454D01*
X163250989Y214086155D01*
X163228199Y214100267D01*
X163177702Y214146300D01*
X163123459Y214190817D01*
X163107384Y214210404D01*
X163091890Y214224529D01*
X163046909Y214284093D01*
X162999096Y214342354D01*
X162989849Y214359652D01*
X162980730Y214371729D01*
X162944443Y214444601D01*
X162906686Y214515241D01*
X162902659Y214528514D01*
X162898513Y214536842D01*
X162874021Y214622923D01*
X162849781Y214702834D01*
X162848984Y214710920D01*
X162848035Y214714258D01*
X162838158Y214820839D01*
X162830566Y214897924D01*
X162838158Y214975014D01*
X162848035Y215081589D01*
X162848984Y215084925D01*
X162849781Y215093014D01*
X162874025Y215172939D01*
X162898513Y215259005D01*
X162902658Y215267330D01*
X162906686Y215280607D01*
X162944450Y215351260D01*
X162980730Y215424118D01*
X162989848Y215436192D01*
X162999096Y215453494D01*
X163046918Y215511766D01*
X163091890Y215571318D01*
X163107381Y215585440D01*
X163123459Y215605031D01*
X163177713Y215649556D01*
X163228199Y215695580D01*
X163250984Y215709687D01*
X163274996Y215729394D01*
X163332144Y215759940D01*
X163385027Y215792684D01*
X163415461Y215804474D01*
X163447883Y215821804D01*
X163504626Y215839016D01*
X163557028Y215859317D01*
X163594865Y215866390D01*
X163635476Y215878709D01*
X163688930Y215883973D01*
X163738339Y215893210D01*
X163782705Y215893210D01*
X163830566Y215897924D01*
X163878427Y215893210D01*
G37*
G36*
X170378427Y215893210D02*
G01*
X170422793Y215893210D01*
X170472201Y215883973D01*
X170525656Y215878709D01*
X170566267Y215866389D01*
X170604103Y215859317D01*
X170656500Y215839018D01*
X170713249Y215821804D01*
X170745673Y215804472D01*
X170776104Y215792684D01*
X170828979Y215759944D01*
X170886136Y215729394D01*
X170910151Y215709685D01*
X170932932Y215695580D01*
X170983408Y215649564D01*
X171037673Y215605031D01*
X171053753Y215585436D01*
X171069241Y215571318D01*
X171114200Y215511781D01*
X171162036Y215453494D01*
X171171286Y215436187D01*
X171180401Y215424118D01*
X171216666Y215351287D01*
X171254446Y215280607D01*
X171258474Y215267325D01*
X171262618Y215259005D01*
X171287089Y215172993D01*
X171311351Y215093014D01*
X171312148Y215084920D01*
X171313096Y215081589D01*
X171322956Y214975186D01*
X171330566Y214897924D01*
X171322956Y214820667D01*
X171313096Y214714258D01*
X171312148Y214710926D01*
X171311351Y214702834D01*
X171287094Y214622870D01*
X171262618Y214536842D01*
X171258474Y214528519D01*
X171254446Y214515241D01*
X171216673Y214444574D01*
X171180401Y214371729D01*
X171171284Y214359656D01*
X171162036Y214342354D01*
X171114210Y214284078D01*
X171069241Y214224529D01*
X171053750Y214210407D01*
X171037673Y214190817D01*
X170983419Y214146292D01*
X170932932Y214100267D01*
X170910146Y214086158D01*
X170886136Y214066454D01*
X170828991Y214035909D01*
X170776104Y214003163D01*
X170745666Y213991371D01*
X170713249Y213974044D01*
X170656512Y213956833D01*
X170604103Y213936530D01*
X170566261Y213929456D01*
X170525656Y213917139D01*
X170472204Y213911874D01*
X170422793Y213902638D01*
X170378427Y213902638D01*
X170330566Y213897924D01*
X170282705Y213902638D01*
X170238339Y213902638D01*
X170188927Y213911874D01*
X170135476Y213917139D01*
X170094872Y213929455D01*
X170057028Y213936530D01*
X170004614Y213956834D01*
X169947883Y213974044D01*
X169915467Y213991370D01*
X169885027Y214003163D01*
X169832133Y214035913D01*
X169774996Y214066454D01*
X169750989Y214086155D01*
X169728199Y214100267D01*
X169677702Y214146300D01*
X169623459Y214190817D01*
X169607384Y214210404D01*
X169591890Y214224529D01*
X169546909Y214284093D01*
X169499096Y214342354D01*
X169489849Y214359652D01*
X169480730Y214371729D01*
X169444443Y214444601D01*
X169406686Y214515241D01*
X169402659Y214528514D01*
X169398513Y214536842D01*
X169374021Y214622923D01*
X169349781Y214702834D01*
X169348984Y214710920D01*
X169348035Y214714258D01*
X169338158Y214820839D01*
X169330566Y214897924D01*
X169338158Y214975014D01*
X169348035Y215081589D01*
X169348984Y215084925D01*
X169349781Y215093014D01*
X169374025Y215172939D01*
X169398513Y215259005D01*
X169402658Y215267330D01*
X169406686Y215280607D01*
X169444450Y215351260D01*
X169480730Y215424118D01*
X169489848Y215436192D01*
X169499096Y215453494D01*
X169546918Y215511766D01*
X169591890Y215571318D01*
X169607381Y215585440D01*
X169623459Y215605031D01*
X169677713Y215649556D01*
X169728199Y215695580D01*
X169750984Y215709687D01*
X169774996Y215729394D01*
X169832144Y215759940D01*
X169885027Y215792684D01*
X169915461Y215804474D01*
X169947883Y215821804D01*
X170004626Y215839016D01*
X170057028Y215859317D01*
X170094865Y215866390D01*
X170135476Y215878709D01*
X170188930Y215883973D01*
X170238339Y215893210D01*
X170282705Y215893210D01*
X170330566Y215897924D01*
X170378427Y215893210D01*
G37*
G36*
X184198427Y215893210D02*
G01*
X184242793Y215893210D01*
X184292201Y215883973D01*
X184345656Y215878709D01*
X184386267Y215866389D01*
X184424103Y215859317D01*
X184476500Y215839018D01*
X184533249Y215821804D01*
X184565673Y215804472D01*
X184596104Y215792684D01*
X184648979Y215759944D01*
X184706136Y215729394D01*
X184730151Y215709685D01*
X184752932Y215695580D01*
X184803408Y215649564D01*
X184857673Y215605031D01*
X184873753Y215585436D01*
X184889241Y215571318D01*
X184934200Y215511781D01*
X184982036Y215453494D01*
X184991286Y215436187D01*
X185000401Y215424118D01*
X185036666Y215351287D01*
X185074446Y215280607D01*
X185078474Y215267325D01*
X185082618Y215259005D01*
X185107089Y215172993D01*
X185131351Y215093014D01*
X185132148Y215084920D01*
X185133096Y215081589D01*
X185142956Y214975186D01*
X185150566Y214897924D01*
X185142956Y214820667D01*
X185133096Y214714258D01*
X185132148Y214710926D01*
X185131351Y214702834D01*
X185107094Y214622870D01*
X185082618Y214536842D01*
X185078474Y214528519D01*
X185074446Y214515241D01*
X185036673Y214444574D01*
X185000401Y214371729D01*
X184991284Y214359656D01*
X184982036Y214342354D01*
X184934210Y214284078D01*
X184889241Y214224529D01*
X184873750Y214210407D01*
X184857673Y214190817D01*
X184803419Y214146292D01*
X184752932Y214100267D01*
X184730146Y214086158D01*
X184706136Y214066454D01*
X184648991Y214035909D01*
X184596104Y214003163D01*
X184565666Y213991371D01*
X184533249Y213974044D01*
X184476512Y213956833D01*
X184424103Y213936530D01*
X184386261Y213929456D01*
X184345656Y213917139D01*
X184292204Y213911874D01*
X184242793Y213902638D01*
X184198427Y213902638D01*
X184150566Y213897924D01*
X184102705Y213902638D01*
X184058339Y213902638D01*
X184008927Y213911874D01*
X183955476Y213917139D01*
X183914872Y213929455D01*
X183877028Y213936530D01*
X183824614Y213956834D01*
X183767883Y213974044D01*
X183735467Y213991370D01*
X183705027Y214003163D01*
X183652133Y214035913D01*
X183594996Y214066454D01*
X183570989Y214086155D01*
X183548199Y214100267D01*
X183497702Y214146300D01*
X183443459Y214190817D01*
X183427384Y214210404D01*
X183411890Y214224529D01*
X183366909Y214284093D01*
X183319096Y214342354D01*
X183309849Y214359652D01*
X183300730Y214371729D01*
X183264443Y214444601D01*
X183226686Y214515241D01*
X183222659Y214528514D01*
X183218513Y214536842D01*
X183194021Y214622923D01*
X183169781Y214702834D01*
X183168984Y214710920D01*
X183168035Y214714258D01*
X183158158Y214820839D01*
X183150566Y214897924D01*
X183158158Y214975014D01*
X183168035Y215081589D01*
X183168984Y215084925D01*
X183169781Y215093014D01*
X183194025Y215172939D01*
X183218513Y215259005D01*
X183222658Y215267330D01*
X183226686Y215280607D01*
X183264450Y215351260D01*
X183300730Y215424118D01*
X183309848Y215436192D01*
X183319096Y215453494D01*
X183366918Y215511766D01*
X183411890Y215571318D01*
X183427381Y215585440D01*
X183443459Y215605031D01*
X183497713Y215649556D01*
X183548199Y215695580D01*
X183570984Y215709687D01*
X183594996Y215729394D01*
X183652144Y215759940D01*
X183705027Y215792684D01*
X183735461Y215804474D01*
X183767883Y215821804D01*
X183824626Y215839016D01*
X183877028Y215859317D01*
X183914865Y215866390D01*
X183955476Y215878709D01*
X184008930Y215883973D01*
X184058339Y215893210D01*
X184102705Y215893210D01*
X184150566Y215897924D01*
X184198427Y215893210D01*
G37*
G36*
X190698427Y215893210D02*
G01*
X190742793Y215893210D01*
X190792201Y215883973D01*
X190845656Y215878709D01*
X190886267Y215866389D01*
X190924103Y215859317D01*
X190976500Y215839018D01*
X191033249Y215821804D01*
X191065673Y215804472D01*
X191096104Y215792684D01*
X191148979Y215759944D01*
X191206136Y215729394D01*
X191230151Y215709685D01*
X191252932Y215695580D01*
X191303408Y215649564D01*
X191357673Y215605031D01*
X191373753Y215585436D01*
X191389241Y215571318D01*
X191434200Y215511781D01*
X191482036Y215453494D01*
X191491286Y215436187D01*
X191500401Y215424118D01*
X191536666Y215351287D01*
X191574446Y215280607D01*
X191578474Y215267325D01*
X191582618Y215259005D01*
X191607089Y215172993D01*
X191631351Y215093014D01*
X191632148Y215084920D01*
X191633096Y215081589D01*
X191642956Y214975186D01*
X191650566Y214897924D01*
X191642956Y214820667D01*
X191633096Y214714258D01*
X191632148Y214710926D01*
X191631351Y214702834D01*
X191607094Y214622870D01*
X191582618Y214536842D01*
X191578474Y214528519D01*
X191574446Y214515241D01*
X191536673Y214444574D01*
X191500401Y214371729D01*
X191491284Y214359656D01*
X191482036Y214342354D01*
X191434210Y214284078D01*
X191389241Y214224529D01*
X191373750Y214210407D01*
X191357673Y214190817D01*
X191303419Y214146292D01*
X191252932Y214100267D01*
X191230146Y214086158D01*
X191206136Y214066454D01*
X191148991Y214035909D01*
X191096104Y214003163D01*
X191065666Y213991371D01*
X191033249Y213974044D01*
X190976512Y213956833D01*
X190924103Y213936530D01*
X190886261Y213929456D01*
X190845656Y213917139D01*
X190792204Y213911874D01*
X190742793Y213902638D01*
X190698427Y213902638D01*
X190650566Y213897924D01*
X190602705Y213902638D01*
X190558339Y213902638D01*
X190508927Y213911874D01*
X190455476Y213917139D01*
X190414872Y213929455D01*
X190377028Y213936530D01*
X190324614Y213956834D01*
X190267883Y213974044D01*
X190235467Y213991370D01*
X190205027Y214003163D01*
X190152133Y214035913D01*
X190094996Y214066454D01*
X190070989Y214086155D01*
X190048199Y214100267D01*
X189997702Y214146300D01*
X189943459Y214190817D01*
X189927384Y214210404D01*
X189911890Y214224529D01*
X189866909Y214284093D01*
X189819096Y214342354D01*
X189809849Y214359652D01*
X189800730Y214371729D01*
X189764443Y214444601D01*
X189726686Y214515241D01*
X189722659Y214528514D01*
X189718513Y214536842D01*
X189694021Y214622923D01*
X189669781Y214702834D01*
X189668984Y214710920D01*
X189668035Y214714258D01*
X189658158Y214820839D01*
X189650566Y214897924D01*
X189658158Y214975014D01*
X189668035Y215081589D01*
X189668984Y215084925D01*
X189669781Y215093014D01*
X189694025Y215172939D01*
X189718513Y215259005D01*
X189722658Y215267330D01*
X189726686Y215280607D01*
X189764450Y215351260D01*
X189800730Y215424118D01*
X189809848Y215436192D01*
X189819096Y215453494D01*
X189866918Y215511766D01*
X189911890Y215571318D01*
X189927381Y215585440D01*
X189943459Y215605031D01*
X189997713Y215649556D01*
X190048199Y215695580D01*
X190070984Y215709687D01*
X190094996Y215729394D01*
X190152144Y215759940D01*
X190205027Y215792684D01*
X190235461Y215804474D01*
X190267883Y215821804D01*
X190324626Y215839016D01*
X190377028Y215859317D01*
X190414865Y215866390D01*
X190455476Y215878709D01*
X190508930Y215883973D01*
X190558339Y215893210D01*
X190602705Y215893210D01*
X190650566Y215897924D01*
X190698427Y215893210D01*
G37*
G36*
X204518427Y215893210D02*
G01*
X204562793Y215893210D01*
X204612201Y215883973D01*
X204665656Y215878709D01*
X204706267Y215866389D01*
X204744103Y215859317D01*
X204796500Y215839018D01*
X204853249Y215821804D01*
X204885673Y215804472D01*
X204916104Y215792684D01*
X204968979Y215759944D01*
X205026136Y215729394D01*
X205050151Y215709685D01*
X205072932Y215695580D01*
X205123408Y215649564D01*
X205177673Y215605031D01*
X205193753Y215585436D01*
X205209241Y215571318D01*
X205254200Y215511781D01*
X205302036Y215453494D01*
X205311286Y215436187D01*
X205320401Y215424118D01*
X205356666Y215351287D01*
X205394446Y215280607D01*
X205398474Y215267325D01*
X205402618Y215259005D01*
X205427089Y215172993D01*
X205451351Y215093014D01*
X205452148Y215084920D01*
X205453096Y215081589D01*
X205462956Y214975186D01*
X205470566Y214897924D01*
X205462956Y214820667D01*
X205453096Y214714258D01*
X205452148Y214710926D01*
X205451351Y214702834D01*
X205427094Y214622870D01*
X205402618Y214536842D01*
X205398474Y214528519D01*
X205394446Y214515241D01*
X205356673Y214444574D01*
X205320401Y214371729D01*
X205311284Y214359656D01*
X205302036Y214342354D01*
X205254210Y214284078D01*
X205209241Y214224529D01*
X205193750Y214210407D01*
X205177673Y214190817D01*
X205123419Y214146292D01*
X205072932Y214100267D01*
X205050146Y214086158D01*
X205026136Y214066454D01*
X204968991Y214035909D01*
X204916104Y214003163D01*
X204885666Y213991371D01*
X204853249Y213974044D01*
X204796512Y213956833D01*
X204744103Y213936530D01*
X204706261Y213929456D01*
X204665656Y213917139D01*
X204612204Y213911874D01*
X204562793Y213902638D01*
X204518427Y213902638D01*
X204470566Y213897924D01*
X204422705Y213902638D01*
X204378339Y213902638D01*
X204328927Y213911874D01*
X204275476Y213917139D01*
X204234872Y213929455D01*
X204197028Y213936530D01*
X204144614Y213956834D01*
X204087883Y213974044D01*
X204055467Y213991370D01*
X204025027Y214003163D01*
X203972133Y214035913D01*
X203914996Y214066454D01*
X203890989Y214086155D01*
X203868199Y214100267D01*
X203817702Y214146300D01*
X203763459Y214190817D01*
X203747384Y214210404D01*
X203731890Y214224529D01*
X203686909Y214284093D01*
X203639096Y214342354D01*
X203629849Y214359652D01*
X203620730Y214371729D01*
X203584443Y214444601D01*
X203546686Y214515241D01*
X203542659Y214528514D01*
X203538513Y214536842D01*
X203514021Y214622923D01*
X203489781Y214702834D01*
X203488984Y214710920D01*
X203488035Y214714258D01*
X203478158Y214820839D01*
X203470566Y214897924D01*
X203478158Y214975014D01*
X203488035Y215081589D01*
X203488984Y215084925D01*
X203489781Y215093014D01*
X203514025Y215172939D01*
X203538513Y215259005D01*
X203542658Y215267330D01*
X203546686Y215280607D01*
X203584450Y215351260D01*
X203620730Y215424118D01*
X203629848Y215436192D01*
X203639096Y215453494D01*
X203686918Y215511766D01*
X203731890Y215571318D01*
X203747381Y215585440D01*
X203763459Y215605031D01*
X203817713Y215649556D01*
X203868199Y215695580D01*
X203890984Y215709687D01*
X203914996Y215729394D01*
X203972144Y215759940D01*
X204025027Y215792684D01*
X204055461Y215804474D01*
X204087883Y215821804D01*
X204144626Y215839016D01*
X204197028Y215859317D01*
X204234865Y215866390D01*
X204275476Y215878709D01*
X204328930Y215883973D01*
X204378339Y215893210D01*
X204422705Y215893210D01*
X204470566Y215897924D01*
X204518427Y215893210D01*
G37*
G36*
X211018427Y215893210D02*
G01*
X211062793Y215893210D01*
X211112201Y215883973D01*
X211165656Y215878709D01*
X211206267Y215866389D01*
X211244103Y215859317D01*
X211296500Y215839018D01*
X211353249Y215821804D01*
X211385673Y215804472D01*
X211416104Y215792684D01*
X211468979Y215759944D01*
X211526136Y215729394D01*
X211550151Y215709685D01*
X211572932Y215695580D01*
X211623408Y215649564D01*
X211677673Y215605031D01*
X211693753Y215585436D01*
X211709241Y215571318D01*
X211754200Y215511781D01*
X211802036Y215453494D01*
X211811286Y215436187D01*
X211820401Y215424118D01*
X211856666Y215351287D01*
X211894446Y215280607D01*
X211898474Y215267325D01*
X211902618Y215259005D01*
X211927089Y215172993D01*
X211951351Y215093014D01*
X211952148Y215084920D01*
X211953096Y215081589D01*
X211962956Y214975186D01*
X211970566Y214897924D01*
X211962956Y214820667D01*
X211953096Y214714258D01*
X211952148Y214710926D01*
X211951351Y214702834D01*
X211927094Y214622870D01*
X211902618Y214536842D01*
X211898474Y214528519D01*
X211894446Y214515241D01*
X211856673Y214444574D01*
X211820401Y214371729D01*
X211811284Y214359656D01*
X211802036Y214342354D01*
X211754210Y214284078D01*
X211709241Y214224529D01*
X211693750Y214210407D01*
X211677673Y214190817D01*
X211623419Y214146292D01*
X211572932Y214100267D01*
X211550146Y214086158D01*
X211526136Y214066454D01*
X211468991Y214035909D01*
X211416104Y214003163D01*
X211385666Y213991371D01*
X211353249Y213974044D01*
X211296512Y213956833D01*
X211244103Y213936530D01*
X211206261Y213929456D01*
X211165656Y213917139D01*
X211112204Y213911874D01*
X211062793Y213902638D01*
X211018427Y213902638D01*
X210970566Y213897924D01*
X210922705Y213902638D01*
X210878339Y213902638D01*
X210828927Y213911874D01*
X210775476Y213917139D01*
X210734872Y213929455D01*
X210697028Y213936530D01*
X210644614Y213956834D01*
X210587883Y213974044D01*
X210555467Y213991370D01*
X210525027Y214003163D01*
X210472133Y214035913D01*
X210414996Y214066454D01*
X210390989Y214086155D01*
X210368199Y214100267D01*
X210317702Y214146300D01*
X210263459Y214190817D01*
X210247384Y214210404D01*
X210231890Y214224529D01*
X210186909Y214284093D01*
X210139096Y214342354D01*
X210129849Y214359652D01*
X210120730Y214371729D01*
X210084443Y214444601D01*
X210046686Y214515241D01*
X210042659Y214528514D01*
X210038513Y214536842D01*
X210014021Y214622923D01*
X209989781Y214702834D01*
X209988984Y214710920D01*
X209988035Y214714258D01*
X209978158Y214820839D01*
X209970566Y214897924D01*
X209978158Y214975014D01*
X209988035Y215081589D01*
X209988984Y215084925D01*
X209989781Y215093014D01*
X210014025Y215172939D01*
X210038513Y215259005D01*
X210042658Y215267330D01*
X210046686Y215280607D01*
X210084450Y215351260D01*
X210120730Y215424118D01*
X210129848Y215436192D01*
X210139096Y215453494D01*
X210186918Y215511766D01*
X210231890Y215571318D01*
X210247381Y215585440D01*
X210263459Y215605031D01*
X210317713Y215649556D01*
X210368199Y215695580D01*
X210390984Y215709687D01*
X210414996Y215729394D01*
X210472144Y215759940D01*
X210525027Y215792684D01*
X210555461Y215804474D01*
X210587883Y215821804D01*
X210644626Y215839016D01*
X210697028Y215859317D01*
X210734865Y215866390D01*
X210775476Y215878709D01*
X210828930Y215883973D01*
X210878339Y215893210D01*
X210922705Y215893210D01*
X210970566Y215897924D01*
X211018427Y215893210D01*
G37*
G36*
X224838427Y215893210D02*
G01*
X224882793Y215893210D01*
X224932201Y215883973D01*
X224985656Y215878709D01*
X225026267Y215866389D01*
X225064103Y215859317D01*
X225116500Y215839018D01*
X225173249Y215821804D01*
X225205673Y215804472D01*
X225236104Y215792684D01*
X225288979Y215759944D01*
X225346136Y215729394D01*
X225370151Y215709685D01*
X225392932Y215695580D01*
X225443408Y215649564D01*
X225497673Y215605031D01*
X225513753Y215585436D01*
X225529241Y215571318D01*
X225574200Y215511781D01*
X225622036Y215453494D01*
X225631286Y215436187D01*
X225640401Y215424118D01*
X225676666Y215351287D01*
X225714446Y215280607D01*
X225718474Y215267325D01*
X225722618Y215259005D01*
X225747089Y215172993D01*
X225771351Y215093014D01*
X225772148Y215084920D01*
X225773096Y215081589D01*
X225782956Y214975186D01*
X225790566Y214897924D01*
X225782956Y214820667D01*
X225773096Y214714258D01*
X225772148Y214710926D01*
X225771351Y214702834D01*
X225747094Y214622870D01*
X225722618Y214536842D01*
X225718474Y214528519D01*
X225714446Y214515241D01*
X225676673Y214444574D01*
X225640401Y214371729D01*
X225631284Y214359656D01*
X225622036Y214342354D01*
X225574210Y214284078D01*
X225529241Y214224529D01*
X225513750Y214210407D01*
X225497673Y214190817D01*
X225443419Y214146292D01*
X225392932Y214100267D01*
X225370146Y214086158D01*
X225346136Y214066454D01*
X225288991Y214035909D01*
X225236104Y214003163D01*
X225205666Y213991371D01*
X225173249Y213974044D01*
X225116512Y213956833D01*
X225064103Y213936530D01*
X225026261Y213929456D01*
X224985656Y213917139D01*
X224932204Y213911874D01*
X224882793Y213902638D01*
X224838427Y213902638D01*
X224790566Y213897924D01*
X224742705Y213902638D01*
X224698339Y213902638D01*
X224648927Y213911874D01*
X224595476Y213917139D01*
X224554872Y213929455D01*
X224517028Y213936530D01*
X224464614Y213956834D01*
X224407883Y213974044D01*
X224375467Y213991370D01*
X224345027Y214003163D01*
X224292133Y214035913D01*
X224234996Y214066454D01*
X224210989Y214086155D01*
X224188199Y214100267D01*
X224137702Y214146300D01*
X224083459Y214190817D01*
X224067384Y214210404D01*
X224051890Y214224529D01*
X224006909Y214284093D01*
X223959096Y214342354D01*
X223949849Y214359652D01*
X223940730Y214371729D01*
X223904443Y214444601D01*
X223866686Y214515241D01*
X223862659Y214528514D01*
X223858513Y214536842D01*
X223834021Y214622923D01*
X223809781Y214702834D01*
X223808984Y214710920D01*
X223808035Y214714258D01*
X223798158Y214820839D01*
X223790566Y214897924D01*
X223798158Y214975014D01*
X223808035Y215081589D01*
X223808984Y215084925D01*
X223809781Y215093014D01*
X223834025Y215172939D01*
X223858513Y215259005D01*
X223862658Y215267330D01*
X223866686Y215280607D01*
X223904450Y215351260D01*
X223940730Y215424118D01*
X223949848Y215436192D01*
X223959096Y215453494D01*
X224006918Y215511766D01*
X224051890Y215571318D01*
X224067381Y215585440D01*
X224083459Y215605031D01*
X224137713Y215649556D01*
X224188199Y215695580D01*
X224210984Y215709687D01*
X224234996Y215729394D01*
X224292144Y215759940D01*
X224345027Y215792684D01*
X224375461Y215804474D01*
X224407883Y215821804D01*
X224464626Y215839016D01*
X224517028Y215859317D01*
X224554865Y215866390D01*
X224595476Y215878709D01*
X224648930Y215883973D01*
X224698339Y215893210D01*
X224742705Y215893210D01*
X224790566Y215897924D01*
X224838427Y215893210D01*
G37*
G36*
X231338427Y215893210D02*
G01*
X231382793Y215893210D01*
X231432201Y215883973D01*
X231485656Y215878709D01*
X231526267Y215866389D01*
X231564103Y215859317D01*
X231616500Y215839018D01*
X231673249Y215821804D01*
X231705673Y215804472D01*
X231736104Y215792684D01*
X231788979Y215759944D01*
X231846136Y215729394D01*
X231870151Y215709685D01*
X231892932Y215695580D01*
X231943408Y215649564D01*
X231997673Y215605031D01*
X232013753Y215585436D01*
X232029241Y215571318D01*
X232074200Y215511781D01*
X232122036Y215453494D01*
X232131286Y215436187D01*
X232140401Y215424118D01*
X232176666Y215351287D01*
X232214446Y215280607D01*
X232218474Y215267325D01*
X232222618Y215259005D01*
X232247089Y215172993D01*
X232271351Y215093014D01*
X232272148Y215084920D01*
X232273096Y215081589D01*
X232282956Y214975186D01*
X232290566Y214897924D01*
X232282956Y214820667D01*
X232273096Y214714258D01*
X232272148Y214710926D01*
X232271351Y214702834D01*
X232247094Y214622870D01*
X232222618Y214536842D01*
X232218474Y214528519D01*
X232214446Y214515241D01*
X232176673Y214444574D01*
X232140401Y214371729D01*
X232131284Y214359656D01*
X232122036Y214342354D01*
X232074210Y214284078D01*
X232029241Y214224529D01*
X232013750Y214210407D01*
X231997673Y214190817D01*
X231943419Y214146292D01*
X231892932Y214100267D01*
X231870146Y214086158D01*
X231846136Y214066454D01*
X231788991Y214035909D01*
X231736104Y214003163D01*
X231705666Y213991371D01*
X231673249Y213974044D01*
X231616512Y213956833D01*
X231564103Y213936530D01*
X231526261Y213929456D01*
X231485656Y213917139D01*
X231432204Y213911874D01*
X231382793Y213902638D01*
X231338427Y213902638D01*
X231290566Y213897924D01*
X231242705Y213902638D01*
X231198339Y213902638D01*
X231148927Y213911874D01*
X231095476Y213917139D01*
X231054872Y213929455D01*
X231017028Y213936530D01*
X230964614Y213956834D01*
X230907883Y213974044D01*
X230875467Y213991370D01*
X230845027Y214003163D01*
X230792133Y214035913D01*
X230734996Y214066454D01*
X230710989Y214086155D01*
X230688199Y214100267D01*
X230637702Y214146300D01*
X230583459Y214190817D01*
X230567384Y214210404D01*
X230551890Y214224529D01*
X230506909Y214284093D01*
X230459096Y214342354D01*
X230449849Y214359652D01*
X230440730Y214371729D01*
X230404443Y214444601D01*
X230366686Y214515241D01*
X230362659Y214528514D01*
X230358513Y214536842D01*
X230334021Y214622923D01*
X230309781Y214702834D01*
X230308984Y214710920D01*
X230308035Y214714258D01*
X230298158Y214820839D01*
X230290566Y214897924D01*
X230298158Y214975014D01*
X230308035Y215081589D01*
X230308984Y215084925D01*
X230309781Y215093014D01*
X230334025Y215172939D01*
X230358513Y215259005D01*
X230362658Y215267330D01*
X230366686Y215280607D01*
X230404450Y215351260D01*
X230440730Y215424118D01*
X230449848Y215436192D01*
X230459096Y215453494D01*
X230506918Y215511766D01*
X230551890Y215571318D01*
X230567381Y215585440D01*
X230583459Y215605031D01*
X230637713Y215649556D01*
X230688199Y215695580D01*
X230710984Y215709687D01*
X230734996Y215729394D01*
X230792144Y215759940D01*
X230845027Y215792684D01*
X230875461Y215804474D01*
X230907883Y215821804D01*
X230964626Y215839016D01*
X231017028Y215859317D01*
X231054865Y215866390D01*
X231095476Y215878709D01*
X231148930Y215883973D01*
X231198339Y215893210D01*
X231242705Y215893210D01*
X231290566Y215897924D01*
X231338427Y215893210D01*
G37*
G36*
X245158427Y215893210D02*
G01*
X245202793Y215893210D01*
X245252201Y215883973D01*
X245305656Y215878709D01*
X245346267Y215866389D01*
X245384103Y215859317D01*
X245436500Y215839018D01*
X245493249Y215821804D01*
X245525673Y215804472D01*
X245556104Y215792684D01*
X245608979Y215759944D01*
X245666136Y215729394D01*
X245690151Y215709685D01*
X245712932Y215695580D01*
X245763408Y215649564D01*
X245817673Y215605031D01*
X245833753Y215585436D01*
X245849241Y215571318D01*
X245894200Y215511781D01*
X245942036Y215453494D01*
X245951286Y215436187D01*
X245960401Y215424118D01*
X245996666Y215351287D01*
X246034446Y215280607D01*
X246038474Y215267325D01*
X246042618Y215259005D01*
X246067089Y215172993D01*
X246091351Y215093014D01*
X246092148Y215084920D01*
X246093096Y215081589D01*
X246102956Y214975186D01*
X246110566Y214897924D01*
X246102956Y214820667D01*
X246093096Y214714258D01*
X246092148Y214710926D01*
X246091351Y214702834D01*
X246067094Y214622870D01*
X246042618Y214536842D01*
X246038474Y214528519D01*
X246034446Y214515241D01*
X245996673Y214444574D01*
X245960401Y214371729D01*
X245951284Y214359656D01*
X245942036Y214342354D01*
X245894210Y214284078D01*
X245849241Y214224529D01*
X245833750Y214210407D01*
X245817673Y214190817D01*
X245763419Y214146292D01*
X245712932Y214100267D01*
X245690146Y214086158D01*
X245666136Y214066454D01*
X245608991Y214035909D01*
X245556104Y214003163D01*
X245525666Y213991371D01*
X245493249Y213974044D01*
X245436512Y213956833D01*
X245384103Y213936530D01*
X245346261Y213929456D01*
X245305656Y213917139D01*
X245252204Y213911874D01*
X245202793Y213902638D01*
X245158427Y213902638D01*
X245110566Y213897924D01*
X245062705Y213902638D01*
X245018339Y213902638D01*
X244968927Y213911874D01*
X244915476Y213917139D01*
X244874872Y213929455D01*
X244837028Y213936530D01*
X244784614Y213956834D01*
X244727883Y213974044D01*
X244695467Y213991370D01*
X244665027Y214003163D01*
X244612133Y214035913D01*
X244554996Y214066454D01*
X244530989Y214086155D01*
X244508199Y214100267D01*
X244457702Y214146300D01*
X244403459Y214190817D01*
X244387384Y214210404D01*
X244371890Y214224529D01*
X244326909Y214284093D01*
X244279096Y214342354D01*
X244269849Y214359652D01*
X244260730Y214371729D01*
X244224443Y214444601D01*
X244186686Y214515241D01*
X244182659Y214528514D01*
X244178513Y214536842D01*
X244154021Y214622923D01*
X244129781Y214702834D01*
X244128984Y214710920D01*
X244128035Y214714258D01*
X244118158Y214820839D01*
X244110566Y214897924D01*
X244118158Y214975014D01*
X244128035Y215081589D01*
X244128984Y215084925D01*
X244129781Y215093014D01*
X244154025Y215172939D01*
X244178513Y215259005D01*
X244182658Y215267330D01*
X244186686Y215280607D01*
X244224450Y215351260D01*
X244260730Y215424118D01*
X244269848Y215436192D01*
X244279096Y215453494D01*
X244326918Y215511766D01*
X244371890Y215571318D01*
X244387381Y215585440D01*
X244403459Y215605031D01*
X244457713Y215649556D01*
X244508199Y215695580D01*
X244530984Y215709687D01*
X244554996Y215729394D01*
X244612144Y215759940D01*
X244665027Y215792684D01*
X244695461Y215804474D01*
X244727883Y215821804D01*
X244784626Y215839016D01*
X244837028Y215859317D01*
X244874865Y215866390D01*
X244915476Y215878709D01*
X244968930Y215883973D01*
X245018339Y215893210D01*
X245062705Y215893210D01*
X245110566Y215897924D01*
X245158427Y215893210D01*
G37*
G36*
X251658427Y215893210D02*
G01*
X251702793Y215893210D01*
X251752201Y215883973D01*
X251805656Y215878709D01*
X251846267Y215866389D01*
X251884103Y215859317D01*
X251936500Y215839018D01*
X251993249Y215821804D01*
X252025673Y215804472D01*
X252056104Y215792684D01*
X252108979Y215759944D01*
X252166136Y215729394D01*
X252190151Y215709685D01*
X252212932Y215695580D01*
X252263408Y215649564D01*
X252317673Y215605031D01*
X252333753Y215585436D01*
X252349241Y215571318D01*
X252394200Y215511781D01*
X252442036Y215453494D01*
X252451286Y215436187D01*
X252460401Y215424118D01*
X252496666Y215351287D01*
X252534446Y215280607D01*
X252538474Y215267325D01*
X252542618Y215259005D01*
X252567089Y215172993D01*
X252591351Y215093014D01*
X252592148Y215084920D01*
X252593096Y215081589D01*
X252602956Y214975186D01*
X252610566Y214897924D01*
X252602956Y214820667D01*
X252593096Y214714258D01*
X252592148Y214710926D01*
X252591351Y214702834D01*
X252567094Y214622870D01*
X252542618Y214536842D01*
X252538474Y214528519D01*
X252534446Y214515241D01*
X252496673Y214444574D01*
X252460401Y214371729D01*
X252451284Y214359656D01*
X252442036Y214342354D01*
X252394210Y214284078D01*
X252349241Y214224529D01*
X252333750Y214210407D01*
X252317673Y214190817D01*
X252263419Y214146292D01*
X252212932Y214100267D01*
X252190146Y214086158D01*
X252166136Y214066454D01*
X252108991Y214035909D01*
X252056104Y214003163D01*
X252025666Y213991371D01*
X251993249Y213974044D01*
X251936512Y213956833D01*
X251884103Y213936530D01*
X251846261Y213929456D01*
X251805656Y213917139D01*
X251752204Y213911874D01*
X251702793Y213902638D01*
X251658427Y213902638D01*
X251610566Y213897924D01*
X251562705Y213902638D01*
X251518339Y213902638D01*
X251468927Y213911874D01*
X251415476Y213917139D01*
X251374872Y213929455D01*
X251337028Y213936530D01*
X251284614Y213956834D01*
X251227883Y213974044D01*
X251195467Y213991370D01*
X251165027Y214003163D01*
X251112133Y214035913D01*
X251054996Y214066454D01*
X251030989Y214086155D01*
X251008199Y214100267D01*
X250957702Y214146300D01*
X250903459Y214190817D01*
X250887384Y214210404D01*
X250871890Y214224529D01*
X250826909Y214284093D01*
X250779096Y214342354D01*
X250769849Y214359652D01*
X250760730Y214371729D01*
X250724443Y214444601D01*
X250686686Y214515241D01*
X250682659Y214528514D01*
X250678513Y214536842D01*
X250654021Y214622923D01*
X250629781Y214702834D01*
X250628984Y214710920D01*
X250628035Y214714258D01*
X250618158Y214820839D01*
X250610566Y214897924D01*
X250618158Y214975014D01*
X250628035Y215081589D01*
X250628984Y215084925D01*
X250629781Y215093014D01*
X250654025Y215172939D01*
X250678513Y215259005D01*
X250682658Y215267330D01*
X250686686Y215280607D01*
X250724450Y215351260D01*
X250760730Y215424118D01*
X250769848Y215436192D01*
X250779096Y215453494D01*
X250826918Y215511766D01*
X250871890Y215571318D01*
X250887381Y215585440D01*
X250903459Y215605031D01*
X250957713Y215649556D01*
X251008199Y215695580D01*
X251030984Y215709687D01*
X251054996Y215729394D01*
X251112144Y215759940D01*
X251165027Y215792684D01*
X251195461Y215804474D01*
X251227883Y215821804D01*
X251284626Y215839016D01*
X251337028Y215859317D01*
X251374865Y215866390D01*
X251415476Y215878709D01*
X251468930Y215883973D01*
X251518339Y215893210D01*
X251562705Y215893210D01*
X251610566Y215897924D01*
X251658427Y215893210D01*
G37*
G36*
X167122723Y216105174D02*
G01*
X167160155Y216105174D01*
X167202377Y216096199D01*
X167250127Y216090819D01*
X167284851Y216078668D01*
X167315860Y216072077D01*
X167360549Y216052180D01*
X167411185Y216034462D01*
X167437539Y216017902D01*
X167461275Y216007335D01*
X167505532Y215975179D01*
X167555665Y215943680D01*
X167573668Y215925676D01*
X167590055Y215913771D01*
X167630568Y215868776D01*
X167676322Y215823023D01*
X167686844Y215806275D01*
X167696570Y215795475D01*
X167729840Y215737847D01*
X167767104Y215678543D01*
X167771756Y215665245D01*
X167776159Y215657621D01*
X167798698Y215588252D01*
X167823461Y215517485D01*
X167824400Y215509150D01*
X167825348Y215506233D01*
X167833946Y215424422D01*
X167842566Y215347924D01*
X167833947Y215271431D01*
X167825348Y215189614D01*
X167824399Y215186696D01*
X167823461Y215178363D01*
X167798702Y215107608D01*
X167776159Y215038226D01*
X167771756Y215030599D01*
X167767104Y215017305D01*
X167729843Y214958004D01*
X167696570Y214900373D01*
X167686844Y214889571D01*
X167676322Y214872825D01*
X167630574Y214827077D01*
X167590055Y214782076D01*
X167573664Y214770167D01*
X167555665Y214752168D01*
X167505543Y214720674D01*
X167461275Y214688512D01*
X167437533Y214677941D01*
X167411185Y214661386D01*
X167360559Y214643671D01*
X167315860Y214623770D01*
X167284846Y214617177D01*
X167250127Y214605029D01*
X167202380Y214599649D01*
X167160155Y214590674D01*
X167122723Y214590674D01*
X167080566Y214585924D01*
X167038409Y214590674D01*
X167000977Y214590674D01*
X166958751Y214599649D01*
X166911005Y214605029D01*
X166876287Y214617177D01*
X166845271Y214623770D01*
X166800567Y214643673D01*
X166749947Y214661386D01*
X166723600Y214677940D01*
X166699856Y214688512D01*
X166655581Y214720679D01*
X166605467Y214752168D01*
X166587469Y214770165D01*
X166571076Y214782076D01*
X166530547Y214827087D01*
X166484810Y214872825D01*
X166474289Y214889568D01*
X166464561Y214900373D01*
X166431276Y214958024D01*
X166394028Y215017305D01*
X166389377Y215030595D01*
X166384972Y215038226D01*
X166362415Y215107648D01*
X166337671Y215178363D01*
X166336732Y215186691D01*
X166335783Y215189614D01*
X166327169Y215271563D01*
X166318566Y215347924D01*
X166327170Y215424290D01*
X166335783Y215506233D01*
X166336732Y215509155D01*
X166337671Y215517485D01*
X166362419Y215588212D01*
X166384972Y215657621D01*
X166389376Y215665249D01*
X166394028Y215678543D01*
X166431286Y215737839D01*
X166464562Y215795475D01*
X166474287Y215806275D01*
X166484810Y215823023D01*
X166530558Y215868771D01*
X166571078Y215913773D01*
X166587468Y215925681D01*
X166605467Y215943680D01*
X166655586Y215975172D01*
X166699854Y216007334D01*
X166723594Y216017903D01*
X166749947Y216034462D01*
X166800578Y216052178D01*
X166845271Y216072077D01*
X166876281Y216078668D01*
X166911005Y216090819D01*
X166958753Y216096199D01*
X167000977Y216105174D01*
X167038409Y216105174D01*
X167080566Y216109924D01*
X167122723Y216105174D01*
G37*
G36*
X187442723Y216105174D02*
G01*
X187480155Y216105174D01*
X187522377Y216096199D01*
X187570127Y216090819D01*
X187604851Y216078668D01*
X187635860Y216072077D01*
X187680549Y216052180D01*
X187731185Y216034462D01*
X187757539Y216017902D01*
X187781275Y216007335D01*
X187825532Y215975179D01*
X187875665Y215943680D01*
X187893668Y215925676D01*
X187910055Y215913771D01*
X187950568Y215868776D01*
X187996322Y215823023D01*
X188006844Y215806275D01*
X188016570Y215795475D01*
X188049840Y215737847D01*
X188087104Y215678543D01*
X188091756Y215665245D01*
X188096159Y215657621D01*
X188118698Y215588252D01*
X188143461Y215517485D01*
X188144400Y215509150D01*
X188145348Y215506233D01*
X188153946Y215424422D01*
X188162566Y215347924D01*
X188153947Y215271431D01*
X188145348Y215189614D01*
X188144399Y215186696D01*
X188143461Y215178363D01*
X188118702Y215107608D01*
X188096159Y215038226D01*
X188091756Y215030599D01*
X188087104Y215017305D01*
X188049843Y214958004D01*
X188016570Y214900373D01*
X188006844Y214889571D01*
X187996322Y214872825D01*
X187950574Y214827077D01*
X187910055Y214782076D01*
X187893664Y214770167D01*
X187875665Y214752168D01*
X187825543Y214720674D01*
X187781275Y214688512D01*
X187757533Y214677941D01*
X187731185Y214661386D01*
X187680559Y214643671D01*
X187635860Y214623770D01*
X187604846Y214617177D01*
X187570127Y214605029D01*
X187522380Y214599649D01*
X187480155Y214590674D01*
X187442723Y214590674D01*
X187400566Y214585924D01*
X187358409Y214590674D01*
X187320977Y214590674D01*
X187278751Y214599649D01*
X187231005Y214605029D01*
X187196287Y214617177D01*
X187165271Y214623770D01*
X187120567Y214643673D01*
X187069947Y214661386D01*
X187043600Y214677940D01*
X187019856Y214688512D01*
X186975581Y214720679D01*
X186925467Y214752168D01*
X186907469Y214770165D01*
X186891076Y214782076D01*
X186850547Y214827087D01*
X186804810Y214872825D01*
X186794289Y214889568D01*
X186784561Y214900373D01*
X186751276Y214958024D01*
X186714028Y215017305D01*
X186709377Y215030595D01*
X186704972Y215038226D01*
X186682415Y215107648D01*
X186657671Y215178363D01*
X186656732Y215186691D01*
X186655783Y215189614D01*
X186647169Y215271563D01*
X186638566Y215347924D01*
X186647170Y215424290D01*
X186655783Y215506233D01*
X186656732Y215509155D01*
X186657671Y215517485D01*
X186682419Y215588212D01*
X186704972Y215657621D01*
X186709376Y215665249D01*
X186714028Y215678543D01*
X186751286Y215737839D01*
X186784562Y215795475D01*
X186794287Y215806275D01*
X186804810Y215823023D01*
X186850558Y215868771D01*
X186891078Y215913773D01*
X186907468Y215925681D01*
X186925467Y215943680D01*
X186975586Y215975172D01*
X187019854Y216007334D01*
X187043594Y216017903D01*
X187069947Y216034462D01*
X187120578Y216052178D01*
X187165271Y216072077D01*
X187196281Y216078668D01*
X187231005Y216090819D01*
X187278753Y216096199D01*
X187320977Y216105174D01*
X187358409Y216105174D01*
X187400566Y216109924D01*
X187442723Y216105174D01*
G37*
G36*
X207762723Y216105174D02*
G01*
X207800155Y216105174D01*
X207842377Y216096199D01*
X207890127Y216090819D01*
X207924851Y216078668D01*
X207955860Y216072077D01*
X208000549Y216052180D01*
X208051185Y216034462D01*
X208077539Y216017902D01*
X208101275Y216007335D01*
X208145532Y215975179D01*
X208195665Y215943680D01*
X208213668Y215925676D01*
X208230055Y215913771D01*
X208270568Y215868776D01*
X208316322Y215823023D01*
X208326844Y215806275D01*
X208336570Y215795475D01*
X208369840Y215737847D01*
X208407104Y215678543D01*
X208411756Y215665245D01*
X208416159Y215657621D01*
X208438698Y215588252D01*
X208463461Y215517485D01*
X208464400Y215509150D01*
X208465348Y215506233D01*
X208473946Y215424422D01*
X208482566Y215347924D01*
X208473947Y215271431D01*
X208465348Y215189614D01*
X208464399Y215186696D01*
X208463461Y215178363D01*
X208438702Y215107608D01*
X208416159Y215038226D01*
X208411756Y215030599D01*
X208407104Y215017305D01*
X208369843Y214958004D01*
X208336570Y214900373D01*
X208326844Y214889571D01*
X208316322Y214872825D01*
X208270574Y214827077D01*
X208230055Y214782076D01*
X208213664Y214770167D01*
X208195665Y214752168D01*
X208145543Y214720674D01*
X208101275Y214688512D01*
X208077533Y214677941D01*
X208051185Y214661386D01*
X208000559Y214643671D01*
X207955860Y214623770D01*
X207924846Y214617177D01*
X207890127Y214605029D01*
X207842380Y214599649D01*
X207800155Y214590674D01*
X207762723Y214590674D01*
X207720566Y214585924D01*
X207678409Y214590674D01*
X207640977Y214590674D01*
X207598751Y214599649D01*
X207551005Y214605029D01*
X207516287Y214617177D01*
X207485271Y214623770D01*
X207440567Y214643673D01*
X207389947Y214661386D01*
X207363600Y214677940D01*
X207339856Y214688512D01*
X207295581Y214720679D01*
X207245467Y214752168D01*
X207227469Y214770165D01*
X207211076Y214782076D01*
X207170547Y214827087D01*
X207124810Y214872825D01*
X207114289Y214889568D01*
X207104561Y214900373D01*
X207071276Y214958024D01*
X207034028Y215017305D01*
X207029377Y215030595D01*
X207024972Y215038226D01*
X207002415Y215107648D01*
X206977671Y215178363D01*
X206976732Y215186691D01*
X206975783Y215189614D01*
X206967169Y215271563D01*
X206958566Y215347924D01*
X206967170Y215424290D01*
X206975783Y215506233D01*
X206976732Y215509155D01*
X206977671Y215517485D01*
X207002419Y215588212D01*
X207024972Y215657621D01*
X207029376Y215665249D01*
X207034028Y215678543D01*
X207071286Y215737839D01*
X207104562Y215795475D01*
X207114287Y215806275D01*
X207124810Y215823023D01*
X207170558Y215868771D01*
X207211078Y215913773D01*
X207227468Y215925681D01*
X207245467Y215943680D01*
X207295586Y215975172D01*
X207339854Y216007334D01*
X207363594Y216017903D01*
X207389947Y216034462D01*
X207440578Y216052178D01*
X207485271Y216072077D01*
X207516281Y216078668D01*
X207551005Y216090819D01*
X207598753Y216096199D01*
X207640977Y216105174D01*
X207678409Y216105174D01*
X207720566Y216109924D01*
X207762723Y216105174D01*
G37*
G36*
X228082723Y216105174D02*
G01*
X228120155Y216105174D01*
X228162377Y216096199D01*
X228210127Y216090819D01*
X228244851Y216078668D01*
X228275860Y216072077D01*
X228320549Y216052180D01*
X228371185Y216034462D01*
X228397539Y216017902D01*
X228421275Y216007335D01*
X228465532Y215975179D01*
X228515665Y215943680D01*
X228533668Y215925676D01*
X228550055Y215913771D01*
X228590568Y215868776D01*
X228636322Y215823023D01*
X228646844Y215806275D01*
X228656570Y215795475D01*
X228689840Y215737847D01*
X228727104Y215678543D01*
X228731756Y215665245D01*
X228736159Y215657621D01*
X228758698Y215588252D01*
X228783461Y215517485D01*
X228784400Y215509150D01*
X228785348Y215506233D01*
X228793946Y215424422D01*
X228802566Y215347924D01*
X228793947Y215271431D01*
X228785348Y215189614D01*
X228784399Y215186696D01*
X228783461Y215178363D01*
X228758702Y215107608D01*
X228736159Y215038226D01*
X228731756Y215030599D01*
X228727104Y215017305D01*
X228689843Y214958004D01*
X228656570Y214900373D01*
X228646844Y214889571D01*
X228636322Y214872825D01*
X228590574Y214827077D01*
X228550055Y214782076D01*
X228533664Y214770167D01*
X228515665Y214752168D01*
X228465543Y214720674D01*
X228421275Y214688512D01*
X228397533Y214677941D01*
X228371185Y214661386D01*
X228320559Y214643671D01*
X228275860Y214623770D01*
X228244846Y214617177D01*
X228210127Y214605029D01*
X228162380Y214599649D01*
X228120155Y214590674D01*
X228082723Y214590674D01*
X228040566Y214585924D01*
X227998409Y214590674D01*
X227960977Y214590674D01*
X227918751Y214599649D01*
X227871005Y214605029D01*
X227836287Y214617177D01*
X227805271Y214623770D01*
X227760567Y214643673D01*
X227709947Y214661386D01*
X227683600Y214677940D01*
X227659856Y214688512D01*
X227615581Y214720679D01*
X227565467Y214752168D01*
X227547469Y214770165D01*
X227531076Y214782076D01*
X227490547Y214827087D01*
X227444810Y214872825D01*
X227434289Y214889568D01*
X227424561Y214900373D01*
X227391276Y214958024D01*
X227354028Y215017305D01*
X227349377Y215030595D01*
X227344972Y215038226D01*
X227322415Y215107648D01*
X227297671Y215178363D01*
X227296732Y215186691D01*
X227295783Y215189614D01*
X227287169Y215271563D01*
X227278566Y215347924D01*
X227287170Y215424290D01*
X227295783Y215506233D01*
X227296732Y215509155D01*
X227297671Y215517485D01*
X227322419Y215588212D01*
X227344972Y215657621D01*
X227349376Y215665249D01*
X227354028Y215678543D01*
X227391286Y215737839D01*
X227424562Y215795475D01*
X227434287Y215806275D01*
X227444810Y215823023D01*
X227490558Y215868771D01*
X227531078Y215913773D01*
X227547468Y215925681D01*
X227565467Y215943680D01*
X227615586Y215975172D01*
X227659854Y216007334D01*
X227683594Y216017903D01*
X227709947Y216034462D01*
X227760578Y216052178D01*
X227805271Y216072077D01*
X227836281Y216078668D01*
X227871005Y216090819D01*
X227918753Y216096199D01*
X227960977Y216105174D01*
X227998409Y216105174D01*
X228040566Y216109924D01*
X228082723Y216105174D01*
G37*
G36*
X248402723Y216105174D02*
G01*
X248440155Y216105174D01*
X248482377Y216096199D01*
X248530127Y216090819D01*
X248564851Y216078668D01*
X248595860Y216072077D01*
X248640549Y216052180D01*
X248691185Y216034462D01*
X248717539Y216017902D01*
X248741275Y216007335D01*
X248785532Y215975179D01*
X248835665Y215943680D01*
X248853668Y215925676D01*
X248870055Y215913771D01*
X248910568Y215868776D01*
X248956322Y215823023D01*
X248966844Y215806275D01*
X248976570Y215795475D01*
X249009840Y215737847D01*
X249047104Y215678543D01*
X249051756Y215665245D01*
X249056159Y215657621D01*
X249078698Y215588252D01*
X249103461Y215517485D01*
X249104400Y215509150D01*
X249105348Y215506233D01*
X249113946Y215424422D01*
X249122566Y215347924D01*
X249113947Y215271431D01*
X249105348Y215189614D01*
X249104399Y215186696D01*
X249103461Y215178363D01*
X249078702Y215107608D01*
X249056159Y215038226D01*
X249051756Y215030599D01*
X249047104Y215017305D01*
X249009843Y214958004D01*
X248976570Y214900373D01*
X248966844Y214889571D01*
X248956322Y214872825D01*
X248910574Y214827077D01*
X248870055Y214782076D01*
X248853664Y214770167D01*
X248835665Y214752168D01*
X248785543Y214720674D01*
X248741275Y214688512D01*
X248717533Y214677941D01*
X248691185Y214661386D01*
X248640559Y214643671D01*
X248595860Y214623770D01*
X248564846Y214617177D01*
X248530127Y214605029D01*
X248482380Y214599649D01*
X248440155Y214590674D01*
X248402723Y214590674D01*
X248360566Y214585924D01*
X248318409Y214590674D01*
X248280977Y214590674D01*
X248238751Y214599649D01*
X248191005Y214605029D01*
X248156287Y214617177D01*
X248125271Y214623770D01*
X248080567Y214643673D01*
X248029947Y214661386D01*
X248003600Y214677940D01*
X247979856Y214688512D01*
X247935581Y214720679D01*
X247885467Y214752168D01*
X247867469Y214770165D01*
X247851076Y214782076D01*
X247810547Y214827087D01*
X247764810Y214872825D01*
X247754289Y214889568D01*
X247744561Y214900373D01*
X247711276Y214958024D01*
X247674028Y215017305D01*
X247669377Y215030595D01*
X247664972Y215038226D01*
X247642415Y215107648D01*
X247617671Y215178363D01*
X247616732Y215186691D01*
X247615783Y215189614D01*
X247607169Y215271563D01*
X247598566Y215347924D01*
X247607170Y215424290D01*
X247615783Y215506233D01*
X247616732Y215509155D01*
X247617671Y215517485D01*
X247642419Y215588212D01*
X247664972Y215657621D01*
X247669376Y215665249D01*
X247674028Y215678543D01*
X247711286Y215737839D01*
X247744562Y215795475D01*
X247754287Y215806275D01*
X247764810Y215823023D01*
X247810558Y215868771D01*
X247851078Y215913773D01*
X247867468Y215925681D01*
X247885467Y215943680D01*
X247935586Y215975172D01*
X247979854Y216007334D01*
X248003594Y216017903D01*
X248029947Y216034462D01*
X248080578Y216052178D01*
X248125271Y216072077D01*
X248156281Y216078668D01*
X248191005Y216090819D01*
X248238753Y216096199D01*
X248280977Y216105174D01*
X248318409Y216105174D01*
X248360566Y216109924D01*
X248402723Y216105174D01*
G37*
G36*
X175668726Y216953842D02*
G01*
X175701169Y216932165D01*
X175722846Y216899722D01*
X175730458Y216861454D01*
X175730458Y215586454D01*
X175722846Y215548186D01*
X175701169Y215515743D01*
X175668726Y215494066D01*
X175630458Y215486454D01*
X175620114Y215486454D01*
X175440797Y215486454D01*
X175430458Y215486454D01*
X175392190Y215494066D01*
X175359747Y215515743D01*
X175338070Y215548186D01*
X175330458Y215586454D01*
X175330458Y216861454D01*
X175338070Y216899722D01*
X175359747Y216932165D01*
X175392190Y216953842D01*
X175430458Y216961454D01*
X175630458Y216961454D01*
X175668726Y216953842D01*
G37*
G36*
X176318726Y216953842D02*
G01*
X176351169Y216932165D01*
X176372846Y216899722D01*
X176380458Y216861454D01*
X176380458Y215586454D01*
X176372846Y215548186D01*
X176351169Y215515743D01*
X176318726Y215494066D01*
X176280458Y215486454D01*
X176270114Y215486454D01*
X176090797Y215486454D01*
X176080458Y215486454D01*
X176042190Y215494066D01*
X176009747Y215515743D01*
X175988070Y215548186D01*
X175980458Y215586454D01*
X175980458Y216861454D01*
X175988070Y216899722D01*
X176009747Y216932165D01*
X176042190Y216953842D01*
X176080458Y216961454D01*
X176280458Y216961454D01*
X176318726Y216953842D01*
G37*
G36*
X176968726Y216953842D02*
G01*
X177001169Y216932165D01*
X177022846Y216899722D01*
X177030458Y216861454D01*
X177030458Y215586454D01*
X177022846Y215548186D01*
X177001169Y215515743D01*
X176968726Y215494066D01*
X176930458Y215486454D01*
X176920114Y215486454D01*
X176740797Y215486454D01*
X176730458Y215486454D01*
X176692190Y215494066D01*
X176659747Y215515743D01*
X176638070Y215548186D01*
X176630458Y215586454D01*
X176630458Y216861454D01*
X176638070Y216899722D01*
X176659747Y216932165D01*
X176692190Y216953842D01*
X176730458Y216961454D01*
X176930458Y216961454D01*
X176968726Y216953842D01*
G37*
G36*
X177618726Y216953842D02*
G01*
X177651169Y216932165D01*
X177672846Y216899722D01*
X177680458Y216861454D01*
X177680458Y215586454D01*
X177672846Y215548186D01*
X177651169Y215515743D01*
X177618726Y215494066D01*
X177580458Y215486454D01*
X177570114Y215486454D01*
X177390797Y215486454D01*
X177380458Y215486454D01*
X177342190Y215494066D01*
X177309747Y215515743D01*
X177288070Y215548186D01*
X177280458Y215586454D01*
X177280458Y216861454D01*
X177288070Y216899722D01*
X177309747Y216932165D01*
X177342190Y216953842D01*
X177380458Y216961454D01*
X177580458Y216961454D01*
X177618726Y216953842D01*
G37*
G36*
X178268726Y216953842D02*
G01*
X178301169Y216932165D01*
X178322846Y216899722D01*
X178330458Y216861454D01*
X178330458Y215586454D01*
X178322846Y215548186D01*
X178301169Y215515743D01*
X178268726Y215494066D01*
X178230458Y215486454D01*
X178220114Y215486454D01*
X178040797Y215486454D01*
X178030458Y215486454D01*
X177992190Y215494066D01*
X177959747Y215515743D01*
X177938070Y215548186D01*
X177930458Y215586454D01*
X177930458Y216861454D01*
X177938070Y216899722D01*
X177959747Y216932165D01*
X177992190Y216953842D01*
X178030458Y216961454D01*
X178230458Y216961454D01*
X178268726Y216953842D01*
G37*
G36*
X178918726Y216953842D02*
G01*
X178951169Y216932165D01*
X178972846Y216899722D01*
X178980458Y216861454D01*
X178980458Y215586454D01*
X178972846Y215548186D01*
X178951169Y215515743D01*
X178918726Y215494066D01*
X178880458Y215486454D01*
X178870114Y215486454D01*
X178690797Y215486454D01*
X178680458Y215486454D01*
X178642190Y215494066D01*
X178609747Y215515743D01*
X178588070Y215548186D01*
X178580458Y215586454D01*
X178580458Y216861454D01*
X178588070Y216899722D01*
X178609747Y216932165D01*
X178642190Y216953842D01*
X178680458Y216961454D01*
X178880458Y216961454D01*
X178918726Y216953842D01*
G37*
G36*
X179568726Y216953842D02*
G01*
X179601169Y216932165D01*
X179622846Y216899722D01*
X179630458Y216861454D01*
X179630458Y215586454D01*
X179622846Y215548186D01*
X179601169Y215515743D01*
X179568726Y215494066D01*
X179530458Y215486454D01*
X179520114Y215486454D01*
X179340797Y215486454D01*
X179330458Y215486454D01*
X179292190Y215494066D01*
X179259747Y215515743D01*
X179238070Y215548186D01*
X179230458Y215586454D01*
X179230458Y216861454D01*
X179238070Y216899722D01*
X179259747Y216932165D01*
X179292190Y216953842D01*
X179330458Y216961454D01*
X179530458Y216961454D01*
X179568726Y216953842D01*
G37*
G36*
X180218726Y216953842D02*
G01*
X180251169Y216932165D01*
X180272846Y216899722D01*
X180280458Y216861454D01*
X180280458Y215586454D01*
X180272846Y215548186D01*
X180251169Y215515743D01*
X180218726Y215494066D01*
X180180458Y215486454D01*
X180170114Y215486454D01*
X179990797Y215486454D01*
X179980458Y215486454D01*
X179942190Y215494066D01*
X179909747Y215515743D01*
X179888070Y215548186D01*
X179880458Y215586454D01*
X179880458Y216861454D01*
X179888070Y216899722D01*
X179909747Y216932165D01*
X179942190Y216953842D01*
X179980458Y216961454D01*
X180180458Y216961454D01*
X180218726Y216953842D01*
G37*
G36*
X218003151Y219806046D02*
G01*
X218076851Y219806046D01*
X218144030Y219796812D01*
X218210726Y219792441D01*
X218288750Y219776921D01*
X218367560Y219766089D01*
X218427158Y219749390D01*
X218486533Y219737580D01*
X218567955Y219709940D01*
X218650121Y219686919D01*
X218701431Y219664631D01*
X218752813Y219647190D01*
X218835764Y219606282D01*
X218919270Y219570011D01*
X218961970Y219544044D01*
X219005023Y219522813D01*
X219087426Y219467752D01*
X219169993Y219417543D01*
X219204104Y219389791D01*
X219238826Y219366591D01*
X219318434Y219296776D01*
X219397619Y219232355D01*
X219423532Y219204608D01*
X219450250Y219181178D01*
X219524688Y219096296D01*
X219597909Y219017897D01*
X219616333Y218991795D01*
X219635659Y218969759D01*
X219702475Y218869759D01*
X219767132Y218778163D01*
X219779060Y218755141D01*
X219791888Y218735944D01*
X219848684Y218620773D01*
X219902134Y218517620D01*
X219908789Y218498894D01*
X219916262Y218483741D01*
X219960696Y218352840D01*
X220000402Y218241121D01*
X220003213Y218227589D01*
X220006652Y218217461D01*
X220036476Y218067521D01*
X220060105Y217953816D01*
X220060634Y217946068D01*
X220061513Y217941654D01*
X220074722Y217740118D01*
X220080130Y217661058D01*
X220074722Y217582004D01*
X220061513Y217380461D01*
X220060634Y217376046D01*
X220060105Y217368300D01*
X220036481Y217254616D01*
X220006652Y217104654D01*
X220003213Y217094524D01*
X220000402Y217080995D01*
X219960704Y216969297D01*
X219916262Y216838374D01*
X219908787Y216823217D01*
X219902134Y216804496D01*
X219848699Y216701372D01*
X219791885Y216586164D01*
X219779052Y216566959D01*
X219767132Y216543953D01*
X219702508Y216452403D01*
X219635663Y216352361D01*
X219616330Y216330316D01*
X219597909Y216304219D01*
X219524700Y216225831D01*
X219450250Y216140937D01*
X219423527Y216117501D01*
X219397619Y216089761D01*
X219318450Y216025352D01*
X219238826Y215955524D01*
X219204097Y215932319D01*
X219169993Y215904573D01*
X219087443Y215854373D01*
X219005023Y215799302D01*
X218961961Y215778066D01*
X218919270Y215752105D01*
X218835781Y215715840D01*
X218752813Y215674925D01*
X218701420Y215657479D01*
X218650121Y215635197D01*
X218567972Y215612180D01*
X218486533Y215584535D01*
X218427146Y215572722D01*
X218367560Y215556027D01*
X218288766Y215545197D01*
X218210726Y215529674D01*
X218144016Y215525301D01*
X218076851Y215516070D01*
X218003166Y215516070D01*
X217930130Y215511283D01*
X217857093Y215516070D01*
X217783409Y215516070D01*
X217716244Y215525301D01*
X217649533Y215529674D01*
X217571490Y215545197D01*
X217492700Y215556027D01*
X217433115Y215572721D01*
X217373726Y215584535D01*
X217292281Y215612181D01*
X217210139Y215635197D01*
X217158842Y215657478D01*
X217107446Y215674925D01*
X217024470Y215715844D01*
X216940990Y215752105D01*
X216898302Y215778063D01*
X216855236Y215799302D01*
X216772805Y215854380D01*
X216690267Y215904573D01*
X216656166Y215932315D01*
X216621433Y215955524D01*
X216541795Y216025363D01*
X216462641Y216089761D01*
X216436737Y216117496D01*
X216410009Y216140937D01*
X216335543Y216225849D01*
X216262351Y216304219D01*
X216243933Y216330311D01*
X216224596Y216352361D01*
X216157732Y216452429D01*
X216093128Y216543953D01*
X216081210Y216566952D01*
X216068374Y216586164D01*
X216011539Y216701412D01*
X215958126Y216804496D01*
X215951474Y216823210D01*
X215943997Y216838374D01*
X215899533Y216969359D01*
X215859858Y217080995D01*
X215857048Y217094516D01*
X215853607Y217104654D01*
X215823755Y217254729D01*
X215800155Y217368300D01*
X215799625Y217376038D01*
X215798746Y217380461D01*
X215785513Y217582353D01*
X215780130Y217661058D01*
X215785513Y217739768D01*
X215798746Y217941654D01*
X215799625Y217946075D01*
X215800155Y217953816D01*
X215823760Y218067409D01*
X215853607Y218217461D01*
X215857047Y218227596D01*
X215859858Y218241121D01*
X215899540Y218352777D01*
X215943997Y218483741D01*
X215951473Y218498901D01*
X215958126Y218517620D01*
X216011554Y218620733D01*
X216068371Y218735944D01*
X216081202Y218755148D01*
X216093128Y218778163D01*
X216157765Y218869733D01*
X216224600Y218969759D01*
X216243930Y218991801D01*
X216262351Y219017897D01*
X216335555Y219096279D01*
X216410009Y219181178D01*
X216436732Y219204613D01*
X216462641Y219232355D01*
X216541807Y219296762D01*
X216621428Y219366587D01*
X216656154Y219389790D01*
X216690267Y219417543D01*
X216772844Y219467759D01*
X216855243Y219522816D01*
X216898290Y219544044D01*
X216940990Y219570011D01*
X217024489Y219606280D01*
X217107446Y219647190D01*
X217158832Y219664633D01*
X217210139Y219686919D01*
X217292298Y219709939D01*
X217373726Y219737580D01*
X217433103Y219749390D01*
X217492700Y219766089D01*
X217571506Y219776920D01*
X217649533Y219792441D01*
X217716230Y219796812D01*
X217783409Y219806046D01*
X217857109Y219806046D01*
X217930130Y219810832D01*
X218003151Y219806046D01*
G37*
M02*
