M48
; DRILL file {KiCad 8.0.6} date 2024-11-16T23:29:20-0500
; FORMAT={-:-/ absolute / inch / decimal}
; #@! TF.CreationDate,2024-11-16T23:29:20-05:00
; #@! TF.GenerationSoftware,Kicad,Pcbnew,8.0.6
; #@! TF.FileFunction,Plated,1,2,PTH
FMAT,2
INCH
; #@! TA.AperFunction,Plated,PTH,ViaDrill
T1C0.0157
; #@! TA.AperFunction,Plated,PTH,ComponentDrill
T2C0.0300
; #@! TA.AperFunction,Plated,PTH,ComponentDrill
T3C0.0315
; #@! TA.AperFunction,Plated,PTH,ComponentDrill
T4C0.0433
%
G90
G05
T1
X6.717Y8.5664
X7.6028Y8.5566
X7.6028Y8.4188
X7.6427Y8.3592
X7.6618Y8.5369
X7.7603Y8.3203
X7.8587Y8.3007
X7.9177Y8.5762
X8.3267Y8.5817
X8.4296Y8.3007
X8.5083Y8.4384
X8.5181Y8.3597
X8.5575Y8.3312
X8.587Y8.3026
X8.6362Y8.3991
X8.7841Y8.1518
X9.0496Y8.528
X9.1382Y8.1825
X9.1776Y8.3686
X9.3045Y8.34
X9.3744Y8.3892
X9.5122Y8.4188
T2
X6.578Y8.4783
X6.578Y8.2657
X7.378Y8.4783
X7.378Y8.2657
X8.178Y8.4783
X8.178Y8.2657
X8.978Y8.4783
X8.978Y8.2657
X9.778Y8.4783
X9.778Y8.2657
T3
X6.8804Y8.3695
X7.0773Y8.3695
T4
X6.45Y8.4605
X6.45Y8.2834
X6.7059Y8.4605
X6.7059Y8.2834
X7.25Y8.4605
X7.25Y8.2834
X7.5059Y8.4605
X7.5059Y8.2834
X8.05Y8.4605
X8.05Y8.2834
X8.3059Y8.4605
X8.3059Y8.2834
X8.85Y8.4605
X8.85Y8.2834
X9.1059Y8.4605
X9.1059Y8.2834
X9.65Y8.4605
X9.65Y8.2834
X9.9059Y8.4605
X9.9059Y8.2834
M30
