%TF.GenerationSoftware,KiCad,Pcbnew,8.0.6*%
%TF.CreationDate,2024-11-22T01:36:29-05:00*%
%TF.ProjectId,DDI-parent,4444492d-7061-4726-956e-742e6b696361,rev?*%
%TF.SameCoordinates,Original*%
%TF.FileFunction,Drillmap*%
%TF.FilePolarity,Positive*%
%FSLAX45Y45*%
G04 Gerber Fmt 4.5, Leading zero omitted, Abs format (unit mm)*
G04 Created by KiCad (PCBNEW 8.0.6) date 2024-11-22 01:36:29*
%MOMM*%
%LPD*%
G01*
G04 APERTURE LIST*
%ADD10C,0.100000*%
%ADD11C,0.150000*%
%ADD12C,0.200000*%
%ADD13C,0.430000*%
G04 APERTURE END LIST*
D10*
X25611075Y20633655D02*
X15411075Y20633655D01*
X16011075Y21800000D02*
X15411075Y21333655D01*
X25611075Y21800000D02*
X25611075Y20633655D01*
D11*
X15411075Y20633655D02*
X15411075Y21333655D01*
D10*
X16011075Y21800000D02*
X25611075Y21800000D01*
D12*
D13*
X21574458Y20974489D02*
X22004458Y20544489D01*
X22004458Y20974489D02*
X21574458Y20544489D01*
X21578013Y21981106D02*
X22008013Y21551106D01*
X22008013Y21981106D02*
X21578013Y21551106D01*
D12*
X15664352Y20314671D02*
X15664352Y20514671D01*
X15664352Y20514671D02*
X15711971Y20514671D01*
X15711971Y20514671D02*
X15740542Y20505147D01*
X15740542Y20505147D02*
X15759590Y20486100D01*
X15759590Y20486100D02*
X15769114Y20467052D01*
X15769114Y20467052D02*
X15778637Y20428957D01*
X15778637Y20428957D02*
X15778637Y20400385D01*
X15778637Y20400385D02*
X15769114Y20362290D01*
X15769114Y20362290D02*
X15759590Y20343243D01*
X15759590Y20343243D02*
X15740542Y20324195D01*
X15740542Y20324195D02*
X15711971Y20314671D01*
X15711971Y20314671D02*
X15664352Y20314671D01*
X15864352Y20314671D02*
X15864352Y20448004D01*
X15864352Y20409909D02*
X15873875Y20428957D01*
X15873875Y20428957D02*
X15883399Y20438481D01*
X15883399Y20438481D02*
X15902447Y20448004D01*
X15902447Y20448004D02*
X15921495Y20448004D01*
X15988161Y20314671D02*
X15988161Y20448004D01*
X15988161Y20514671D02*
X15978637Y20505147D01*
X15978637Y20505147D02*
X15988161Y20495623D01*
X15988161Y20495623D02*
X15997685Y20505147D01*
X15997685Y20505147D02*
X15988161Y20514671D01*
X15988161Y20514671D02*
X15988161Y20495623D01*
X16111971Y20314671D02*
X16092923Y20324195D01*
X16092923Y20324195D02*
X16083399Y20343243D01*
X16083399Y20343243D02*
X16083399Y20514671D01*
X16216733Y20314671D02*
X16197685Y20324195D01*
X16197685Y20324195D02*
X16188161Y20343243D01*
X16188161Y20343243D02*
X16188161Y20514671D01*
X16445304Y20314671D02*
X16445304Y20514671D01*
X16445304Y20514671D02*
X16511971Y20371814D01*
X16511971Y20371814D02*
X16578637Y20514671D01*
X16578637Y20514671D02*
X16578637Y20314671D01*
X16759590Y20314671D02*
X16759590Y20419433D01*
X16759590Y20419433D02*
X16750066Y20438481D01*
X16750066Y20438481D02*
X16731018Y20448004D01*
X16731018Y20448004D02*
X16692923Y20448004D01*
X16692923Y20448004D02*
X16673875Y20438481D01*
X16759590Y20324195D02*
X16740542Y20314671D01*
X16740542Y20314671D02*
X16692923Y20314671D01*
X16692923Y20314671D02*
X16673875Y20324195D01*
X16673875Y20324195D02*
X16664352Y20343243D01*
X16664352Y20343243D02*
X16664352Y20362290D01*
X16664352Y20362290D02*
X16673875Y20381338D01*
X16673875Y20381338D02*
X16692923Y20390862D01*
X16692923Y20390862D02*
X16740542Y20390862D01*
X16740542Y20390862D02*
X16759590Y20400385D01*
X16854828Y20448004D02*
X16854828Y20248004D01*
X16854828Y20438481D02*
X16873876Y20448004D01*
X16873876Y20448004D02*
X16911971Y20448004D01*
X16911971Y20448004D02*
X16931018Y20438481D01*
X16931018Y20438481D02*
X16940542Y20428957D01*
X16940542Y20428957D02*
X16950066Y20409909D01*
X16950066Y20409909D02*
X16950066Y20352766D01*
X16950066Y20352766D02*
X16940542Y20333719D01*
X16940542Y20333719D02*
X16931018Y20324195D01*
X16931018Y20324195D02*
X16911971Y20314671D01*
X16911971Y20314671D02*
X16873876Y20314671D01*
X16873876Y20314671D02*
X16854828Y20324195D01*
X17035780Y20333719D02*
X17045304Y20324195D01*
X17045304Y20324195D02*
X17035780Y20314671D01*
X17035780Y20314671D02*
X17026257Y20324195D01*
X17026257Y20324195D02*
X17035780Y20333719D01*
X17035780Y20333719D02*
X17035780Y20314671D01*
X17035780Y20438481D02*
X17045304Y20428957D01*
X17045304Y20428957D02*
X17035780Y20419433D01*
X17035780Y20419433D02*
X17026257Y20428957D01*
X17026257Y20428957D02*
X17035780Y20438481D01*
X17035780Y20438481D02*
X17035780Y20419433D01*
X15203575Y20086155D02*
X15403575Y19886155D01*
X15403575Y20086155D02*
X15203575Y19886155D01*
X15750066Y20028004D02*
X15750066Y19894671D01*
X15702447Y20104195D02*
X15654828Y19961338D01*
X15654828Y19961338D02*
X15778637Y19961338D01*
X15854828Y19913719D02*
X15864352Y19904195D01*
X15864352Y19904195D02*
X15854828Y19894671D01*
X15854828Y19894671D02*
X15845304Y19904195D01*
X15845304Y19904195D02*
X15854828Y19913719D01*
X15854828Y19913719D02*
X15854828Y19894671D01*
X15931018Y20094671D02*
X16054828Y20094671D01*
X16054828Y20094671D02*
X15988161Y20018481D01*
X15988161Y20018481D02*
X16016733Y20018481D01*
X16016733Y20018481D02*
X16035780Y20008957D01*
X16035780Y20008957D02*
X16045304Y19999433D01*
X16045304Y19999433D02*
X16054828Y19980385D01*
X16054828Y19980385D02*
X16054828Y19932766D01*
X16054828Y19932766D02*
X16045304Y19913719D01*
X16045304Y19913719D02*
X16035780Y19904195D01*
X16035780Y19904195D02*
X16016733Y19894671D01*
X16016733Y19894671D02*
X15959590Y19894671D01*
X15959590Y19894671D02*
X15940542Y19904195D01*
X15940542Y19904195D02*
X15931018Y19913719D01*
X16178637Y20094671D02*
X16197685Y20094671D01*
X16197685Y20094671D02*
X16216733Y20085147D01*
X16216733Y20085147D02*
X16226256Y20075623D01*
X16226256Y20075623D02*
X16235780Y20056576D01*
X16235780Y20056576D02*
X16245304Y20018481D01*
X16245304Y20018481D02*
X16245304Y19970862D01*
X16245304Y19970862D02*
X16235780Y19932766D01*
X16235780Y19932766D02*
X16226256Y19913719D01*
X16226256Y19913719D02*
X16216733Y19904195D01*
X16216733Y19904195D02*
X16197685Y19894671D01*
X16197685Y19894671D02*
X16178637Y19894671D01*
X16178637Y19894671D02*
X16159590Y19904195D01*
X16159590Y19904195D02*
X16150066Y19913719D01*
X16150066Y19913719D02*
X16140542Y19932766D01*
X16140542Y19932766D02*
X16131018Y19970862D01*
X16131018Y19970862D02*
X16131018Y20018481D01*
X16131018Y20018481D02*
X16140542Y20056576D01*
X16140542Y20056576D02*
X16150066Y20075623D01*
X16150066Y20075623D02*
X16159590Y20085147D01*
X16159590Y20085147D02*
X16178637Y20094671D01*
X16369114Y20094671D02*
X16388161Y20094671D01*
X16388161Y20094671D02*
X16407209Y20085147D01*
X16407209Y20085147D02*
X16416733Y20075623D01*
X16416733Y20075623D02*
X16426256Y20056576D01*
X16426256Y20056576D02*
X16435780Y20018481D01*
X16435780Y20018481D02*
X16435780Y19970862D01*
X16435780Y19970862D02*
X16426256Y19932766D01*
X16426256Y19932766D02*
X16416733Y19913719D01*
X16416733Y19913719D02*
X16407209Y19904195D01*
X16407209Y19904195D02*
X16388161Y19894671D01*
X16388161Y19894671D02*
X16369114Y19894671D01*
X16369114Y19894671D02*
X16350066Y19904195D01*
X16350066Y19904195D02*
X16340542Y19913719D01*
X16340542Y19913719D02*
X16331018Y19932766D01*
X16331018Y19932766D02*
X16321495Y19970862D01*
X16321495Y19970862D02*
X16321495Y20018481D01*
X16321495Y20018481D02*
X16331018Y20056576D01*
X16331018Y20056576D02*
X16340542Y20075623D01*
X16340542Y20075623D02*
X16350066Y20085147D01*
X16350066Y20085147D02*
X16369114Y20094671D01*
X16521495Y19894671D02*
X16521495Y20028004D01*
X16521495Y20008957D02*
X16531018Y20018481D01*
X16531018Y20018481D02*
X16550066Y20028004D01*
X16550066Y20028004D02*
X16578637Y20028004D01*
X16578637Y20028004D02*
X16597685Y20018481D01*
X16597685Y20018481D02*
X16607209Y19999433D01*
X16607209Y19999433D02*
X16607209Y19894671D01*
X16607209Y19999433D02*
X16616733Y20018481D01*
X16616733Y20018481D02*
X16635780Y20028004D01*
X16635780Y20028004D02*
X16664352Y20028004D01*
X16664352Y20028004D02*
X16683399Y20018481D01*
X16683399Y20018481D02*
X16692923Y19999433D01*
X16692923Y19999433D02*
X16692923Y19894671D01*
X16788161Y19894671D02*
X16788161Y20028004D01*
X16788161Y20008957D02*
X16797685Y20018481D01*
X16797685Y20018481D02*
X16816733Y20028004D01*
X16816733Y20028004D02*
X16845304Y20028004D01*
X16845304Y20028004D02*
X16864352Y20018481D01*
X16864352Y20018481D02*
X16873876Y19999433D01*
X16873876Y19999433D02*
X16873876Y19894671D01*
X16873876Y19999433D02*
X16883399Y20018481D01*
X16883399Y20018481D02*
X16902447Y20028004D01*
X16902447Y20028004D02*
X16931018Y20028004D01*
X16931018Y20028004D02*
X16950066Y20018481D01*
X16950066Y20018481D02*
X16959590Y19999433D01*
X16959590Y19999433D02*
X16959590Y19894671D01*
X17350066Y20104195D02*
X17178638Y19847052D01*
X17607209Y20094671D02*
X17626257Y20094671D01*
X17626257Y20094671D02*
X17645304Y20085147D01*
X17645304Y20085147D02*
X17654828Y20075623D01*
X17654828Y20075623D02*
X17664352Y20056576D01*
X17664352Y20056576D02*
X17673876Y20018481D01*
X17673876Y20018481D02*
X17673876Y19970862D01*
X17673876Y19970862D02*
X17664352Y19932766D01*
X17664352Y19932766D02*
X17654828Y19913719D01*
X17654828Y19913719D02*
X17645304Y19904195D01*
X17645304Y19904195D02*
X17626257Y19894671D01*
X17626257Y19894671D02*
X17607209Y19894671D01*
X17607209Y19894671D02*
X17588161Y19904195D01*
X17588161Y19904195D02*
X17578638Y19913719D01*
X17578638Y19913719D02*
X17569114Y19932766D01*
X17569114Y19932766D02*
X17559590Y19970862D01*
X17559590Y19970862D02*
X17559590Y20018481D01*
X17559590Y20018481D02*
X17569114Y20056576D01*
X17569114Y20056576D02*
X17578638Y20075623D01*
X17578638Y20075623D02*
X17588161Y20085147D01*
X17588161Y20085147D02*
X17607209Y20094671D01*
X17759590Y19913719D02*
X17769114Y19904195D01*
X17769114Y19904195D02*
X17759590Y19894671D01*
X17759590Y19894671D02*
X17750066Y19904195D01*
X17750066Y19904195D02*
X17759590Y19913719D01*
X17759590Y19913719D02*
X17759590Y19894671D01*
X17959590Y19894671D02*
X17845304Y19894671D01*
X17902447Y19894671D02*
X17902447Y20094671D01*
X17902447Y20094671D02*
X17883400Y20066100D01*
X17883400Y20066100D02*
X17864352Y20047052D01*
X17864352Y20047052D02*
X17845304Y20037528D01*
X18131019Y20094671D02*
X18092923Y20094671D01*
X18092923Y20094671D02*
X18073876Y20085147D01*
X18073876Y20085147D02*
X18064352Y20075623D01*
X18064352Y20075623D02*
X18045304Y20047052D01*
X18045304Y20047052D02*
X18035781Y20008957D01*
X18035781Y20008957D02*
X18035781Y19932766D01*
X18035781Y19932766D02*
X18045304Y19913719D01*
X18045304Y19913719D02*
X18054828Y19904195D01*
X18054828Y19904195D02*
X18073876Y19894671D01*
X18073876Y19894671D02*
X18111971Y19894671D01*
X18111971Y19894671D02*
X18131019Y19904195D01*
X18131019Y19904195D02*
X18140542Y19913719D01*
X18140542Y19913719D02*
X18150066Y19932766D01*
X18150066Y19932766D02*
X18150066Y19980385D01*
X18150066Y19980385D02*
X18140542Y19999433D01*
X18140542Y19999433D02*
X18131019Y20008957D01*
X18131019Y20008957D02*
X18111971Y20018481D01*
X18111971Y20018481D02*
X18073876Y20018481D01*
X18073876Y20018481D02*
X18054828Y20008957D01*
X18054828Y20008957D02*
X18045304Y19999433D01*
X18045304Y19999433D02*
X18035781Y19980385D01*
X18245304Y19894671D02*
X18283400Y19894671D01*
X18283400Y19894671D02*
X18302447Y19904195D01*
X18302447Y19904195D02*
X18311971Y19913719D01*
X18311971Y19913719D02*
X18331019Y19942290D01*
X18331019Y19942290D02*
X18340542Y19980385D01*
X18340542Y19980385D02*
X18340542Y20056576D01*
X18340542Y20056576D02*
X18331019Y20075623D01*
X18331019Y20075623D02*
X18321495Y20085147D01*
X18321495Y20085147D02*
X18302447Y20094671D01*
X18302447Y20094671D02*
X18264352Y20094671D01*
X18264352Y20094671D02*
X18245304Y20085147D01*
X18245304Y20085147D02*
X18235781Y20075623D01*
X18235781Y20075623D02*
X18226257Y20056576D01*
X18226257Y20056576D02*
X18226257Y20008957D01*
X18226257Y20008957D02*
X18235781Y19989909D01*
X18235781Y19989909D02*
X18245304Y19980385D01*
X18245304Y19980385D02*
X18264352Y19970862D01*
X18264352Y19970862D02*
X18302447Y19970862D01*
X18302447Y19970862D02*
X18321495Y19980385D01*
X18321495Y19980385D02*
X18331019Y19989909D01*
X18331019Y19989909D02*
X18340542Y20008957D01*
X18407209Y20094671D02*
X18531019Y20094671D01*
X18531019Y20094671D02*
X18464352Y20018481D01*
X18464352Y20018481D02*
X18492923Y20018481D01*
X18492923Y20018481D02*
X18511971Y20008957D01*
X18511971Y20008957D02*
X18521495Y19999433D01*
X18521495Y19999433D02*
X18531019Y19980385D01*
X18531019Y19980385D02*
X18531019Y19932766D01*
X18531019Y19932766D02*
X18521495Y19913719D01*
X18521495Y19913719D02*
X18511971Y19904195D01*
X18511971Y19904195D02*
X18492923Y19894671D01*
X18492923Y19894671D02*
X18435781Y19894671D01*
X18435781Y19894671D02*
X18416733Y19904195D01*
X18416733Y19904195D02*
X18407209Y19913719D01*
X18607209Y20094671D02*
X18607209Y20056576D01*
X18683400Y20094671D02*
X18683400Y20056576D01*
X18978638Y19818481D02*
X18969114Y19828004D01*
X18969114Y19828004D02*
X18950066Y19856576D01*
X18950066Y19856576D02*
X18940543Y19875623D01*
X18940543Y19875623D02*
X18931019Y19904195D01*
X18931019Y19904195D02*
X18921495Y19951814D01*
X18921495Y19951814D02*
X18921495Y19989909D01*
X18921495Y19989909D02*
X18931019Y20037528D01*
X18931019Y20037528D02*
X18940543Y20066100D01*
X18940543Y20066100D02*
X18950066Y20085147D01*
X18950066Y20085147D02*
X18969114Y20113719D01*
X18969114Y20113719D02*
X18978638Y20123243D01*
X19045304Y20075623D02*
X19054828Y20085147D01*
X19054828Y20085147D02*
X19073876Y20094671D01*
X19073876Y20094671D02*
X19121495Y20094671D01*
X19121495Y20094671D02*
X19140543Y20085147D01*
X19140543Y20085147D02*
X19150066Y20075623D01*
X19150066Y20075623D02*
X19159590Y20056576D01*
X19159590Y20056576D02*
X19159590Y20037528D01*
X19159590Y20037528D02*
X19150066Y20008957D01*
X19150066Y20008957D02*
X19035781Y19894671D01*
X19035781Y19894671D02*
X19159590Y19894671D01*
X19397685Y19894671D02*
X19397685Y20094671D01*
X19483400Y19894671D02*
X19483400Y19999433D01*
X19483400Y19999433D02*
X19473876Y20018481D01*
X19473876Y20018481D02*
X19454828Y20028004D01*
X19454828Y20028004D02*
X19426257Y20028004D01*
X19426257Y20028004D02*
X19407209Y20018481D01*
X19407209Y20018481D02*
X19397685Y20008957D01*
X19607209Y19894671D02*
X19588162Y19904195D01*
X19588162Y19904195D02*
X19578638Y19913719D01*
X19578638Y19913719D02*
X19569114Y19932766D01*
X19569114Y19932766D02*
X19569114Y19989909D01*
X19569114Y19989909D02*
X19578638Y20008957D01*
X19578638Y20008957D02*
X19588162Y20018481D01*
X19588162Y20018481D02*
X19607209Y20028004D01*
X19607209Y20028004D02*
X19635781Y20028004D01*
X19635781Y20028004D02*
X19654828Y20018481D01*
X19654828Y20018481D02*
X19664352Y20008957D01*
X19664352Y20008957D02*
X19673876Y19989909D01*
X19673876Y19989909D02*
X19673876Y19932766D01*
X19673876Y19932766D02*
X19664352Y19913719D01*
X19664352Y19913719D02*
X19654828Y19904195D01*
X19654828Y19904195D02*
X19635781Y19894671D01*
X19635781Y19894671D02*
X19607209Y19894671D01*
X19788162Y19894671D02*
X19769114Y19904195D01*
X19769114Y19904195D02*
X19759590Y19923243D01*
X19759590Y19923243D02*
X19759590Y20094671D01*
X19940543Y19904195D02*
X19921495Y19894671D01*
X19921495Y19894671D02*
X19883400Y19894671D01*
X19883400Y19894671D02*
X19864352Y19904195D01*
X19864352Y19904195D02*
X19854828Y19923243D01*
X19854828Y19923243D02*
X19854828Y19999433D01*
X19854828Y19999433D02*
X19864352Y20018481D01*
X19864352Y20018481D02*
X19883400Y20028004D01*
X19883400Y20028004D02*
X19921495Y20028004D01*
X19921495Y20028004D02*
X19940543Y20018481D01*
X19940543Y20018481D02*
X19950066Y19999433D01*
X19950066Y19999433D02*
X19950066Y19980385D01*
X19950066Y19980385D02*
X19854828Y19961338D01*
X20026257Y19904195D02*
X20045305Y19894671D01*
X20045305Y19894671D02*
X20083400Y19894671D01*
X20083400Y19894671D02*
X20102447Y19904195D01*
X20102447Y19904195D02*
X20111971Y19923243D01*
X20111971Y19923243D02*
X20111971Y19932766D01*
X20111971Y19932766D02*
X20102447Y19951814D01*
X20102447Y19951814D02*
X20083400Y19961338D01*
X20083400Y19961338D02*
X20054828Y19961338D01*
X20054828Y19961338D02*
X20035781Y19970862D01*
X20035781Y19970862D02*
X20026257Y19989909D01*
X20026257Y19989909D02*
X20026257Y19999433D01*
X20026257Y19999433D02*
X20035781Y20018481D01*
X20035781Y20018481D02*
X20054828Y20028004D01*
X20054828Y20028004D02*
X20083400Y20028004D01*
X20083400Y20028004D02*
X20102447Y20018481D01*
X20178638Y19818481D02*
X20188162Y19828004D01*
X20188162Y19828004D02*
X20207209Y19856576D01*
X20207209Y19856576D02*
X20216733Y19875623D01*
X20216733Y19875623D02*
X20226257Y19904195D01*
X20226257Y19904195D02*
X20235781Y19951814D01*
X20235781Y19951814D02*
X20235781Y19989909D01*
X20235781Y19989909D02*
X20226257Y20037528D01*
X20226257Y20037528D02*
X20216733Y20066100D01*
X20216733Y20066100D02*
X20207209Y20085147D01*
X20207209Y20085147D02*
X20188162Y20113719D01*
X20188162Y20113719D02*
X20178638Y20123243D01*
X20540543Y19818481D02*
X20531019Y19828004D01*
X20531019Y19828004D02*
X20511971Y19856576D01*
X20511971Y19856576D02*
X20502447Y19875623D01*
X20502447Y19875623D02*
X20492924Y19904195D01*
X20492924Y19904195D02*
X20483400Y19951814D01*
X20483400Y19951814D02*
X20483400Y19989909D01*
X20483400Y19989909D02*
X20492924Y20037528D01*
X20492924Y20037528D02*
X20502447Y20066100D01*
X20502447Y20066100D02*
X20511971Y20085147D01*
X20511971Y20085147D02*
X20531019Y20113719D01*
X20531019Y20113719D02*
X20540543Y20123243D01*
X20616733Y20028004D02*
X20616733Y19894671D01*
X20616733Y20008957D02*
X20626257Y20018481D01*
X20626257Y20018481D02*
X20645305Y20028004D01*
X20645305Y20028004D02*
X20673876Y20028004D01*
X20673876Y20028004D02*
X20692924Y20018481D01*
X20692924Y20018481D02*
X20702447Y19999433D01*
X20702447Y19999433D02*
X20702447Y19894671D01*
X20826257Y19894671D02*
X20807209Y19904195D01*
X20807209Y19904195D02*
X20797686Y19913719D01*
X20797686Y19913719D02*
X20788162Y19932766D01*
X20788162Y19932766D02*
X20788162Y19989909D01*
X20788162Y19989909D02*
X20797686Y20008957D01*
X20797686Y20008957D02*
X20807209Y20018481D01*
X20807209Y20018481D02*
X20826257Y20028004D01*
X20826257Y20028004D02*
X20854828Y20028004D01*
X20854828Y20028004D02*
X20873876Y20018481D01*
X20873876Y20018481D02*
X20883400Y20008957D01*
X20883400Y20008957D02*
X20892924Y19989909D01*
X20892924Y19989909D02*
X20892924Y19932766D01*
X20892924Y19932766D02*
X20883400Y19913719D01*
X20883400Y19913719D02*
X20873876Y19904195D01*
X20873876Y19904195D02*
X20854828Y19894671D01*
X20854828Y19894671D02*
X20826257Y19894671D01*
X20950067Y20028004D02*
X21026257Y20028004D01*
X20978638Y20094671D02*
X20978638Y19923243D01*
X20978638Y19923243D02*
X20988162Y19904195D01*
X20988162Y19904195D02*
X21007209Y19894671D01*
X21007209Y19894671D02*
X21026257Y19894671D01*
X21245305Y20028004D02*
X21245305Y19828004D01*
X21245305Y20018481D02*
X21264352Y20028004D01*
X21264352Y20028004D02*
X21302448Y20028004D01*
X21302448Y20028004D02*
X21321495Y20018481D01*
X21321495Y20018481D02*
X21331019Y20008957D01*
X21331019Y20008957D02*
X21340543Y19989909D01*
X21340543Y19989909D02*
X21340543Y19932766D01*
X21340543Y19932766D02*
X21331019Y19913719D01*
X21331019Y19913719D02*
X21321495Y19904195D01*
X21321495Y19904195D02*
X21302448Y19894671D01*
X21302448Y19894671D02*
X21264352Y19894671D01*
X21264352Y19894671D02*
X21245305Y19904195D01*
X21454828Y19894671D02*
X21435781Y19904195D01*
X21435781Y19904195D02*
X21426257Y19923243D01*
X21426257Y19923243D02*
X21426257Y20094671D01*
X21616733Y19894671D02*
X21616733Y19999433D01*
X21616733Y19999433D02*
X21607209Y20018481D01*
X21607209Y20018481D02*
X21588162Y20028004D01*
X21588162Y20028004D02*
X21550067Y20028004D01*
X21550067Y20028004D02*
X21531019Y20018481D01*
X21616733Y19904195D02*
X21597686Y19894671D01*
X21597686Y19894671D02*
X21550067Y19894671D01*
X21550067Y19894671D02*
X21531019Y19904195D01*
X21531019Y19904195D02*
X21521495Y19923243D01*
X21521495Y19923243D02*
X21521495Y19942290D01*
X21521495Y19942290D02*
X21531019Y19961338D01*
X21531019Y19961338D02*
X21550067Y19970862D01*
X21550067Y19970862D02*
X21597686Y19970862D01*
X21597686Y19970862D02*
X21616733Y19980385D01*
X21683400Y20028004D02*
X21759590Y20028004D01*
X21711971Y20094671D02*
X21711971Y19923243D01*
X21711971Y19923243D02*
X21721495Y19904195D01*
X21721495Y19904195D02*
X21740543Y19894671D01*
X21740543Y19894671D02*
X21759590Y19894671D01*
X21902448Y19904195D02*
X21883400Y19894671D01*
X21883400Y19894671D02*
X21845305Y19894671D01*
X21845305Y19894671D02*
X21826257Y19904195D01*
X21826257Y19904195D02*
X21816733Y19923243D01*
X21816733Y19923243D02*
X21816733Y19999433D01*
X21816733Y19999433D02*
X21826257Y20018481D01*
X21826257Y20018481D02*
X21845305Y20028004D01*
X21845305Y20028004D02*
X21883400Y20028004D01*
X21883400Y20028004D02*
X21902448Y20018481D01*
X21902448Y20018481D02*
X21911971Y19999433D01*
X21911971Y19999433D02*
X21911971Y19980385D01*
X21911971Y19980385D02*
X21816733Y19961338D01*
X22083400Y19894671D02*
X22083400Y20094671D01*
X22083400Y19904195D02*
X22064352Y19894671D01*
X22064352Y19894671D02*
X22026257Y19894671D01*
X22026257Y19894671D02*
X22007209Y19904195D01*
X22007209Y19904195D02*
X21997686Y19913719D01*
X21997686Y19913719D02*
X21988162Y19932766D01*
X21988162Y19932766D02*
X21988162Y19989909D01*
X21988162Y19989909D02*
X21997686Y20008957D01*
X21997686Y20008957D02*
X22007209Y20018481D01*
X22007209Y20018481D02*
X22026257Y20028004D01*
X22026257Y20028004D02*
X22064352Y20028004D01*
X22064352Y20028004D02*
X22083400Y20018481D01*
X22159590Y19818481D02*
X22169114Y19828004D01*
X22169114Y19828004D02*
X22188162Y19856576D01*
X22188162Y19856576D02*
X22197686Y19875623D01*
X22197686Y19875623D02*
X22207209Y19904195D01*
X22207209Y19904195D02*
X22216733Y19951814D01*
X22216733Y19951814D02*
X22216733Y19989909D01*
X22216733Y19989909D02*
X22207209Y20037528D01*
X22207209Y20037528D02*
X22197686Y20066100D01*
X22197686Y20066100D02*
X22188162Y20085147D01*
X22188162Y20085147D02*
X22169114Y20113719D01*
X22169114Y20113719D02*
X22159590Y20123243D01*
M02*
