G04 #@! TF.GenerationSoftware,KiCad,Pcbnew,8.0.6*
G04 #@! TF.CreationDate,2024-11-22T01:36:26-05:00*
G04 #@! TF.ProjectId,DDI-parent,4444492d-7061-4726-956e-742e6b696361,rev?*
G04 #@! TF.SameCoordinates,Original*
G04 #@! TF.FileFunction,Copper,L1,Top*
G04 #@! TF.FilePolarity,Positive*
%FSLAX46Y46*%
G04 Gerber Fmt 4.6, Leading zero omitted, Abs format (unit mm)*
G04 Created by KiCad (PCBNEW 8.0.6) date 2024-11-22 01:36:26*
%MOMM*%
%LPD*%
G01*
G04 APERTURE LIST*
G04 Aperture macros list*
%AMRoundRect*
0 Rectangle with rounded corners*
0 $1 Rounding radius*
0 $2 $3 $4 $5 $6 $7 $8 $9 X,Y pos of 4 corners*
0 Add a 4 corners polygon primitive as box body*
4,1,4,$2,$3,$4,$5,$6,$7,$8,$9,$2,$3,0*
0 Add four circle primitives for the rounded corners*
1,1,$1+$1,$2,$3*
1,1,$1+$1,$4,$5*
1,1,$1+$1,$6,$7*
1,1,$1+$1,$8,$9*
0 Add four rect primitives between the rounded corners*
20,1,$1+$1,$2,$3,$4,$5,0*
20,1,$1+$1,$4,$5,$6,$7,0*
20,1,$1+$1,$6,$7,$8,$9,0*
20,1,$1+$1,$8,$9,$2,$3,0*%
G04 Aperture macros list end*
G04 #@! TA.AperFunction,SMDPad,CuDef*
%ADD10RoundRect,0.140000X-0.170000X0.140000X-0.170000X-0.140000X0.170000X-0.140000X0.170000X0.140000X0*%
G04 #@! TD*
G04 #@! TA.AperFunction,SMDPad,CuDef*
%ADD11RoundRect,0.100000X0.100000X-0.637500X0.100000X0.637500X-0.100000X0.637500X-0.100000X-0.637500X0*%
G04 #@! TD*
G04 #@! TA.AperFunction,ComponentPad*
%ADD12C,2.000000*%
G04 #@! TD*
G04 #@! TA.AperFunction,ComponentPad*
%ADD13C,1.524000*%
G04 #@! TD*
G04 #@! TA.AperFunction,SMDPad,CuDef*
%ADD14RoundRect,0.750000X0.750000X-1.250000X0.750000X1.250000X-0.750000X1.250000X-0.750000X-1.250000X0*%
G04 #@! TD*
G04 #@! TA.AperFunction,SMDPad,CuDef*
%ADD15RoundRect,0.750000X-1.250000X-0.750000X1.250000X-0.750000X1.250000X0.750000X-1.250000X0.750000X0*%
G04 #@! TD*
G04 #@! TA.AperFunction,SMDPad,CuDef*
%ADD16RoundRect,0.750000X1.414214X-0.353553X-0.353553X1.414214X-1.414214X0.353553X0.353553X-1.414214X0*%
G04 #@! TD*
G04 #@! TA.AperFunction,SMDPad,CuDef*
%ADD17RoundRect,0.750000X-0.750000X1.250000X-0.750000X-1.250000X0.750000X-1.250000X0.750000X1.250000X0*%
G04 #@! TD*
G04 #@! TA.AperFunction,ViaPad*
%ADD18C,0.800000*%
G04 #@! TD*
G04 #@! TA.AperFunction,Conductor*
%ADD19C,0.250000*%
G04 #@! TD*
G04 #@! TA.AperFunction,Conductor*
%ADD20C,0.400000*%
G04 #@! TD*
G04 #@! TA.AperFunction,Conductor*
%ADD21C,0.500000*%
G04 #@! TD*
G04 #@! TA.AperFunction,Conductor*
%ADD22C,0.350000*%
G04 #@! TD*
G04 APERTURE END LIST*
D10*
X173565631Y213970873D03*
X173565631Y213010873D03*
D11*
X175530458Y210498954D03*
X176180458Y210498954D03*
X176830458Y210498954D03*
X177480458Y210498954D03*
X178130458Y210498954D03*
X178780458Y210498954D03*
X179430458Y210498954D03*
X180080458Y210498954D03*
X180080458Y216223954D03*
X179430458Y216223954D03*
X178780458Y216223954D03*
X178130458Y216223954D03*
X177480458Y216223954D03*
X176830458Y216223954D03*
X176180458Y216223954D03*
X175530458Y216223954D03*
D12*
X163830566Y210397924D03*
X170330566Y210397924D03*
X163830566Y214897924D03*
X170330566Y214897924D03*
D13*
X167080566Y209947924D03*
X167080566Y215347924D03*
D12*
X204470566Y210397924D03*
X210970566Y210397924D03*
X204470566Y214897924D03*
X210970566Y214897924D03*
D13*
X207720566Y209947924D03*
X207720566Y215347924D03*
D12*
X224790566Y210397924D03*
X231290566Y210397924D03*
X224790566Y214897924D03*
X231290566Y214897924D03*
D13*
X228040566Y209947924D03*
X228040566Y215347924D03*
D12*
X245110566Y210397924D03*
X251610566Y210397924D03*
X245110566Y214897924D03*
X251610566Y214897924D03*
D13*
X248360566Y209947924D03*
X248360566Y215347924D03*
D12*
X184150566Y210397924D03*
X190650566Y210397924D03*
X184150566Y214897924D03*
X190650566Y214897924D03*
D13*
X187400566Y209947924D03*
X187400566Y215347924D03*
D14*
X197479910Y214859904D03*
X193993187Y214870694D03*
D15*
X156814539Y208435955D03*
D16*
X160387838Y214191172D03*
D17*
X200954411Y214874441D03*
D18*
X179610749Y208336549D03*
X177035749Y208836549D03*
X174610749Y209836549D03*
X172139540Y209307758D03*
X206110749Y212336549D03*
X201710749Y210836549D03*
X197610749Y210336549D03*
X171610673Y212343943D03*
X173327819Y211119478D03*
X203428155Y208678451D03*
X172317124Y213604868D03*
X232610749Y209061549D03*
X167385749Y208135924D03*
X169657715Y208699767D03*
X175610749Y212381667D03*
X199803518Y208845246D03*
X240580012Y209061549D03*
X176546963Y214320676D03*
X207610749Y213397924D03*
X162110749Y208854329D03*
X164853311Y211628371D03*
X174610749Y216836549D03*
X238793637Y211067075D03*
X199110749Y212406616D03*
X170107511Y213313546D03*
X164113167Y213323076D03*
X177543502Y214403796D03*
X177110749Y207294549D03*
X168110749Y207336549D03*
X181110749Y210836549D03*
X171620901Y211343992D03*
X180710751Y207836549D03*
X202110749Y207945246D03*
X185891436Y208117236D03*
X181110749Y215861549D03*
X174610749Y208336549D03*
X166665749Y212336549D03*
D19*
X176180458Y208266840D02*
X176180458Y210498954D01*
X176335749Y208111549D02*
X176180458Y208266840D01*
X179385749Y208111549D02*
X176335749Y208111549D01*
X179610749Y208336549D02*
X179385749Y208111549D01*
X171620901Y210981422D02*
X171620901Y211343992D01*
X171655566Y210946757D02*
X171620901Y210981422D01*
X171655566Y209849091D02*
X171655566Y210946757D01*
X170610749Y208804274D02*
X171655566Y209849091D01*
X170610749Y208336549D02*
X170610749Y208804274D01*
X174373973Y207548020D02*
X173885749Y208036244D01*
X176857278Y207548020D02*
X174373973Y207548020D01*
X170911054Y208036244D02*
X170610749Y208336549D01*
X177110749Y207294549D02*
X176857278Y207548020D01*
X180485751Y207611549D02*
X180710751Y207836549D01*
X177110749Y207294549D02*
X177427749Y207611549D01*
X177427749Y207611549D02*
X180485751Y207611549D01*
X173885749Y208036244D02*
X170911054Y208036244D01*
X190650566Y211296732D02*
X190650566Y210397924D01*
X189118149Y212010924D02*
X189356149Y211772924D01*
X185682983Y212010924D02*
X189118149Y212010924D01*
X190174374Y211772924D02*
X190650566Y211296732D01*
X185444983Y211772924D02*
X185682983Y212010924D01*
X184150566Y211772924D02*
X185444983Y211772924D01*
X189356149Y211772924D02*
X190174374Y211772924D01*
X199528518Y208570246D02*
X199803518Y208845246D01*
X195988143Y208570246D02*
X199528518Y208570246D01*
X194671840Y209886549D02*
X195988143Y208570246D01*
X194184258Y209886549D02*
X194671840Y209886549D01*
X189542545Y212222924D02*
X191847883Y212222924D01*
X189304545Y212460924D02*
X189542545Y212222924D01*
X185496587Y212460924D02*
X189304545Y212460924D01*
X185258587Y212222924D02*
X185496587Y212460924D01*
X182860770Y212222924D02*
X185258587Y212222924D01*
X178002000Y213200592D02*
X178529208Y213727800D01*
X178002000Y212011454D02*
X178002000Y213200592D01*
X177651646Y212011454D02*
X178002000Y212011454D01*
X191847883Y212222924D02*
X194184258Y209886549D01*
X177155458Y211515266D02*
X177651646Y212011454D01*
X176564057Y212106667D02*
X177155458Y211515266D01*
X176302000Y212106667D02*
X176564057Y212106667D01*
X181355894Y213727800D02*
X182860770Y212222924D01*
X178529208Y213727800D02*
X181355894Y213727800D01*
X176952000Y215114623D02*
X176952000Y216793724D01*
X175831526Y213994149D02*
X176952000Y215114623D01*
X176438687Y213386988D02*
X175831526Y213994149D01*
X177552000Y213386988D02*
X176438687Y213386988D01*
X178342812Y214177800D02*
X177552000Y213386988D01*
X181542291Y214177800D02*
X178342812Y214177800D01*
X183047167Y212672924D02*
X181542291Y214177800D01*
X185072191Y212672924D02*
X183047167Y212672924D01*
X189728941Y212672924D02*
X189490941Y212910924D01*
X192034279Y212672924D02*
X189728941Y212672924D01*
X194370654Y210336549D02*
X192034279Y212672924D01*
X189490941Y212910924D02*
X185310191Y212910924D01*
X196585444Y210336549D02*
X194370654Y210336549D01*
X185310191Y212910924D02*
X185072191Y212672924D01*
X197911054Y209611549D02*
X197310444Y209611549D01*
X198561054Y210261549D02*
X197911054Y209611549D01*
X197310444Y209611549D02*
X196585444Y210336549D01*
X200685749Y210261549D02*
X198561054Y210261549D01*
X201110749Y209836549D02*
X200685749Y210261549D01*
X202435749Y210873336D02*
X202435749Y209836549D01*
X203735337Y212172924D02*
X202435749Y210873336D01*
X205205795Y212172924D02*
X203735337Y212172924D01*
X207110749Y213336549D02*
X207110749Y211511754D01*
X207172124Y213397924D02*
X207110749Y213336549D01*
X207110749Y211511754D02*
X206488857Y210889862D01*
X202435749Y209836549D02*
X201110749Y209836549D01*
X206488857Y210889862D02*
X205205795Y212172924D01*
X207610749Y213397924D02*
X207172124Y213397924D01*
X178385300Y214627800D02*
X177602000Y215411100D01*
X181728687Y214627800D02*
X178385300Y214627800D01*
X183233563Y213122924D02*
X181728687Y214627800D01*
X184885795Y213122924D02*
X183233563Y213122924D01*
X192220675Y213122924D02*
X189915337Y213122924D01*
X185123795Y213360924D02*
X184885795Y213122924D01*
X189915337Y213122924D02*
X189677337Y213360924D01*
X192808695Y212534904D02*
X192220675Y213122924D01*
X198412394Y212534904D02*
X192808695Y212534904D01*
X189677337Y213360924D02*
X185123795Y213360924D01*
X198440682Y212506616D02*
X198412394Y212534904D01*
X198440682Y211736549D02*
X198440682Y212506616D01*
X199110749Y212406616D02*
X198440682Y211736549D01*
X191898944Y213572924D02*
X194052690Y215726670D01*
X190101733Y213572924D02*
X191898944Y213572924D01*
X189863733Y213810924D02*
X190101733Y213572924D01*
X183601733Y213572924D02*
X184699399Y213572924D01*
X182096857Y215077800D02*
X183601733Y213572924D01*
X179189113Y215077800D02*
X182096857Y215077800D01*
X178780458Y215486455D02*
X179189113Y215077800D01*
X184937399Y213810924D02*
X189863733Y213810924D01*
X178780458Y216223954D02*
X178780458Y215486455D01*
X184699399Y213572924D02*
X184937399Y213810924D01*
X211944446Y207670246D02*
X215672124Y211397924D01*
X203411054Y207670246D02*
X211944446Y207670246D01*
X215672124Y211397924D02*
X223790566Y211397924D01*
X202294751Y208786549D02*
X203411054Y207670246D01*
X200770126Y208786549D02*
X202294751Y208786549D01*
X195801747Y208120246D02*
X200103823Y208120246D01*
X194585444Y209336549D02*
X195801747Y208120246D01*
X200103823Y208120246D02*
X200770126Y208786549D01*
X191463024Y209336549D02*
X194585444Y209336549D01*
X223790566Y211397924D02*
X224790566Y210397924D01*
X186950315Y208860924D02*
X190987399Y208860924D01*
X186410918Y209400321D02*
X186950315Y208860924D01*
X185512820Y209400321D02*
X186410918Y209400321D01*
X185185423Y209072924D02*
X185512820Y209400321D01*
X182825566Y210985336D02*
X182825566Y209849091D01*
X182825566Y209849091D02*
X183601733Y209072924D01*
X180983102Y212827800D02*
X182825566Y210985336D01*
X183601733Y209072924D02*
X185185423Y209072924D01*
X190987399Y208860924D02*
X191463024Y209336549D01*
X178902000Y212827800D02*
X180983102Y212827800D01*
X178902000Y210779339D02*
X178902000Y212827800D01*
X179430458Y212156258D02*
X179430458Y210498954D01*
X180837957Y212336549D02*
X179610749Y212336549D01*
X179610749Y212336549D02*
X179430458Y212156258D01*
X185371819Y208622924D02*
X183415337Y208622924D01*
X185699216Y208950321D02*
X185371819Y208622924D01*
X186224522Y208950321D02*
X185699216Y208950321D01*
X182375566Y209662695D02*
X182375566Y210798940D01*
X186763919Y208410924D02*
X186224522Y208950321D01*
X191173795Y208410924D02*
X186763919Y208410924D01*
X191649420Y208886549D02*
X191173795Y208410924D01*
X195615351Y207670246D02*
X194399048Y208886549D01*
X194399048Y208886549D02*
X191649420Y208886549D01*
X183415337Y208622924D02*
X182375566Y209662695D01*
X200956522Y208336549D02*
X200290219Y207670246D01*
X182375566Y210798940D02*
X180837957Y212336549D01*
X201719446Y208336549D02*
X200956522Y208336549D01*
X202110749Y207945246D02*
X201719446Y208336549D01*
X200290219Y207670246D02*
X195615351Y207670246D01*
X177409365Y208836549D02*
X178130458Y209557642D01*
X178130458Y209557642D02*
X178130458Y210498954D01*
X177035749Y208836549D02*
X177409365Y208836549D01*
X174610749Y209336549D02*
X174610749Y209836549D01*
X172168331Y209336549D02*
X174610749Y209336549D01*
X172139540Y209307758D02*
X172168331Y209336549D01*
X179755459Y217286454D02*
X179430458Y216961453D01*
X179430458Y216961453D02*
X179430458Y216223954D01*
X197479910Y216859903D02*
X197053359Y217286454D01*
X197479910Y214859904D02*
X197479910Y216859903D01*
X197053359Y217286454D02*
X179755459Y217286454D01*
X202180816Y212406616D02*
X199110749Y212406616D01*
X202397124Y212622924D02*
X202180816Y212406616D01*
X206110749Y212336549D02*
X205824374Y212622924D01*
X205824374Y212622924D02*
X202397124Y212622924D01*
X238060749Y208786549D02*
X238335749Y209061549D01*
X232475795Y211722924D02*
X235412170Y208786549D01*
X230741733Y211722924D02*
X232475795Y211722924D01*
X228490817Y211034924D02*
X229127566Y210398175D01*
X226663795Y211034924D02*
X228490817Y211034924D01*
X225400795Y212297924D02*
X226663795Y211034924D01*
X215299332Y212297924D02*
X225400795Y212297924D01*
X229127566Y210398175D02*
X229416984Y210398175D01*
X212295566Y210946757D02*
X213948165Y210946757D01*
X229416984Y210398175D02*
X230741733Y211722924D01*
X211519399Y211722924D02*
X212295566Y210946757D01*
X207958315Y211722924D02*
X211519399Y211722924D01*
X213948165Y210946757D02*
X215299332Y212297924D01*
X206405774Y210336549D02*
X206571940Y210336549D01*
X205019399Y211722924D02*
X206405774Y210336549D01*
X202885749Y210686940D02*
X203921733Y211722924D01*
X203921733Y211722924D02*
X205019399Y211722924D01*
X235412170Y208786549D02*
X238060749Y208786549D01*
X206571940Y210336549D02*
X207958315Y211722924D01*
X202885749Y209336549D02*
X202885749Y210686940D01*
X238335749Y209061549D02*
X240580012Y209061549D01*
X200294821Y209336549D02*
X202885749Y209336549D01*
X199803518Y208845246D02*
X200294821Y209336549D01*
X172527027Y211343992D02*
X173565631Y212382596D01*
X173565631Y212382596D02*
X173565631Y213010873D01*
X171620901Y211343992D02*
X172527027Y211343992D01*
D20*
X173565631Y214259127D02*
X175530458Y216223954D01*
X173565631Y213970873D02*
X173565631Y214259127D01*
D21*
X172317124Y213604868D02*
X172683129Y213970873D01*
X172683129Y213970873D02*
X173565631Y213970873D01*
D20*
X226610749Y209326915D02*
X226115566Y208831732D01*
D19*
X211758050Y208120246D02*
X215485728Y211847924D01*
X215485728Y211847924D02*
X225214399Y211847924D01*
X203986360Y208120246D02*
X211758050Y208120246D01*
X225214399Y211847924D02*
X226610749Y210451574D01*
X203428155Y208678451D02*
X203986360Y208120246D01*
D20*
X226610749Y210451574D02*
X226610749Y209326915D01*
D21*
X227110749Y207836549D02*
X231385749Y207836549D01*
X231385749Y207836549D02*
X232610749Y209061549D01*
X226115566Y208831732D02*
X227110749Y207836549D01*
D19*
X241732191Y207019549D02*
X245110566Y210397924D01*
X223427749Y207019549D02*
X241732191Y207019549D01*
X219499374Y210947924D02*
X223427749Y207019549D01*
X215858520Y210947924D02*
X219499374Y210947924D01*
X195428955Y207220246D02*
X212130842Y207220246D01*
X194212652Y208436549D02*
X195428955Y207220246D01*
X191835816Y208436549D02*
X194212652Y208436549D01*
X191360191Y207960924D02*
X191835816Y208436549D01*
X186047748Y207960924D02*
X191360191Y207960924D01*
X212130842Y207220246D02*
X215858520Y210947924D01*
X185891436Y208117236D02*
X186047748Y207960924D01*
D21*
X198110749Y210836549D02*
X197610749Y210336549D01*
X201710749Y210836549D02*
X198110749Y210836549D01*
D19*
X180259210Y210836549D02*
X180202000Y210779339D01*
X181701561Y210836549D02*
X180259210Y210836549D01*
X181925566Y210612544D02*
X181701561Y210836549D01*
X181053539Y210779339D02*
X181110749Y210836549D01*
X181925566Y209051364D02*
X181925566Y210612544D01*
X180710751Y207836549D02*
X181925566Y209051364D01*
X180202000Y210779339D02*
X181053539Y210779339D01*
D22*
X167534499Y208135924D02*
X167460124Y208061549D01*
X168945122Y208135924D02*
X167534499Y208135924D01*
D21*
X169508965Y208699767D02*
X168945122Y208135924D01*
D19*
X169657715Y208699767D02*
X169508965Y208699767D01*
X166129069Y211847924D02*
X165909516Y211628371D01*
X165940749Y212036244D02*
X166129069Y211847924D01*
X165940749Y212636854D02*
X165940749Y212036244D01*
X166966054Y213061549D02*
X166365444Y213061549D01*
X167390749Y212636854D02*
X166966054Y213061549D01*
X167390749Y212297924D02*
X167390749Y212636854D01*
X166365444Y213061549D02*
X165940749Y212636854D01*
X168610749Y212297924D02*
X167390749Y212297924D01*
X171610749Y213791479D02*
X170407816Y212588546D01*
X165909516Y211628371D02*
X164853311Y211628371D01*
X171610749Y214472945D02*
X171610749Y213791479D01*
X172110749Y214972945D02*
X171610749Y214472945D01*
X168901371Y212588546D02*
X168610749Y212297924D01*
X172110749Y215306091D02*
X172110749Y214972945D01*
X170407816Y212588546D02*
X168901371Y212588546D01*
X173641207Y216836549D02*
X172110749Y215306091D01*
X174610749Y216836549D02*
X173641207Y216836549D01*
X169412746Y212138546D02*
X169122124Y211847924D01*
X169122124Y211847924D02*
X167154374Y211847924D01*
X171405276Y212138546D02*
X169412746Y212138546D01*
X171610673Y212343943D02*
X171405276Y212138546D01*
X167154374Y211847924D02*
X166665749Y212336549D01*
X174582947Y210892755D02*
X175251646Y211561454D01*
X173554542Y210892755D02*
X174582947Y210892755D01*
X173327819Y211119478D02*
X173554542Y210892755D01*
X175251646Y211561454D02*
X176459270Y211561454D01*
X176459270Y211561454D02*
X176952000Y211068724D01*
X176952000Y211068724D02*
X176952000Y210779339D01*
X167385749Y208135924D02*
X167460124Y208061549D01*
X174790631Y213618036D02*
X176302000Y212106667D01*
X176027000Y212381667D02*
X176302000Y212106667D01*
X176302000Y216793724D02*
X176302000Y215101019D01*
X176302000Y215101019D02*
X175716854Y214515873D01*
X175610749Y212381667D02*
X176027000Y212381667D01*
X175716854Y214515873D02*
X174790631Y214515873D01*
X174790631Y214515873D02*
X174790631Y213618036D01*
X160599374Y210365704D02*
X160599374Y211847924D01*
X232662191Y212172924D02*
X235598566Y209236549D01*
X208303834Y212704839D02*
X208346919Y212747924D01*
X160599374Y211847924D02*
X159765339Y212681959D01*
X238793637Y210155833D02*
X238793637Y211067075D01*
X162110749Y208854329D02*
X160599374Y210365704D01*
X237874353Y209236549D02*
X238793637Y210155833D01*
X235598566Y209236549D02*
X237874353Y209236549D01*
X225587191Y212747924D02*
X226850191Y211484924D01*
X207610749Y213397924D02*
X208303834Y212704839D01*
X229272275Y210889862D02*
X230555337Y212172924D01*
X230555337Y212172924D02*
X232662191Y212172924D01*
X159765339Y212681959D02*
X159765339Y214704358D01*
X228677213Y211484924D02*
X229272275Y210889862D01*
X226850191Y211484924D02*
X228677213Y211484924D01*
X208346919Y212747924D02*
X225587191Y212747924D01*
X170041111Y213313546D02*
X168610749Y214743908D01*
X177602000Y215411100D02*
X177602000Y216504339D01*
X167285749Y213511549D02*
X168610749Y214836549D01*
X177543502Y215352602D02*
X177543502Y214403796D01*
X177518853Y216262349D02*
X177480458Y216223954D01*
X168610749Y214743908D02*
X168610749Y214836549D01*
X164301640Y213511549D02*
X167285749Y213511549D01*
X170107511Y213313546D02*
X170041111Y213313546D01*
X177602000Y215411100D02*
X177543502Y215352602D01*
X164113167Y213323076D02*
X164301640Y213511549D01*
X210970566Y214897924D02*
X224790566Y214897924D01*
X232848587Y212622924D02*
X231110749Y212622924D01*
X156788414Y208140290D02*
X160087278Y208140290D01*
X239093942Y211792075D02*
X238493332Y211792075D01*
X235784962Y209686549D02*
X232848587Y212622924D01*
X230653566Y214260924D02*
X231290566Y214897924D01*
X231110749Y214718107D02*
X231290566Y214897924D01*
X239368942Y211517075D02*
X239093942Y211792075D01*
X245110566Y214897924D02*
X245110566Y212271757D01*
X250610566Y213897924D02*
X251610566Y214897924D01*
X245110566Y212271757D02*
X244355884Y211517075D01*
X190013566Y214260924D02*
X190650566Y214897924D01*
X245110566Y214897924D02*
X246110566Y213897924D01*
X225427566Y214260924D02*
X230653566Y214260924D01*
X184787566Y214260924D02*
X190013566Y214260924D01*
X237687957Y209686549D02*
X235784962Y209686549D01*
X246110566Y213897924D02*
X250610566Y213897924D01*
X160087278Y208140290D02*
X161116019Y207111549D01*
X238068637Y211367380D02*
X238068637Y210067229D01*
X201610749Y216336549D02*
X203031941Y216336549D01*
X161116019Y207111549D02*
X167885749Y207111549D01*
X244355884Y211517075D02*
X239368942Y211517075D01*
X238493332Y211792075D02*
X238068637Y211367380D01*
X238068637Y210067229D02*
X237687957Y209686549D01*
X184150566Y214897924D02*
X184787566Y214260924D01*
X231110749Y212622924D02*
X231110749Y214718107D01*
X167885749Y207111549D02*
X168110749Y207336549D01*
X203031941Y216336549D02*
X204470566Y214897924D01*
X224790566Y214897924D02*
X225427566Y214260924D01*
X170330566Y210397924D02*
X168793566Y208860924D01*
X165993566Y209836549D02*
X165432191Y210397924D01*
X165993566Y209497673D02*
X165993566Y209836549D01*
X166630315Y208860924D02*
X165993566Y209497673D01*
X165432191Y210397924D02*
X163830566Y210397924D01*
X168793566Y208860924D02*
X166630315Y208860924D01*
X177602000Y210779339D02*
X177602000Y211311808D01*
X177602000Y211311808D02*
X177851646Y211561454D01*
X178452000Y213014196D02*
X178715604Y213277800D01*
X178715604Y213277800D02*
X181169498Y213277800D01*
X178384115Y211561454D02*
X178452000Y211629339D01*
X181169498Y213277800D02*
X182674374Y211772924D01*
X178452000Y211629339D02*
X178452000Y213014196D01*
X177851646Y211561454D02*
X178384115Y211561454D01*
X182674374Y211772924D02*
X184150566Y211772924D01*
X184150566Y211772924D02*
X184150566Y210397924D01*
X210970566Y209196366D02*
X210970566Y210397924D01*
X204470566Y210397924D02*
X204470566Y208976732D01*
X210344446Y208570246D02*
X210970566Y209196366D01*
X204470566Y208976732D02*
X204877052Y208570246D01*
X204877052Y208570246D02*
X210344446Y208570246D01*
X245110566Y210397924D02*
X245747566Y211034924D01*
X181110749Y215861549D02*
X180748344Y216223954D01*
X250049374Y210397924D02*
X251610566Y210397924D01*
X180748344Y216223954D02*
X180080458Y216223954D01*
X245747566Y211034924D02*
X249412374Y211034924D01*
X249412374Y211034924D02*
X250049374Y210397924D01*
X174610749Y208336549D02*
X175652000Y209377800D01*
X175652000Y209377800D02*
X175652000Y210779339D01*
G04 #@! TA.AperFunction,Conductor*
G36*
X157955074Y215525352D02*
G01*
X158005366Y215476849D01*
X158021452Y215408856D01*
X157998225Y215342960D01*
X157991920Y215334932D01*
X157979318Y215320176D01*
X157951363Y215287446D01*
X157951361Y215287443D01*
X157835172Y215092976D01*
X157814257Y215037249D01*
X157755572Y214880885D01*
X157755572Y214880884D01*
X157715124Y214657996D01*
X157715124Y214431454D01*
X157755572Y214208566D01*
X157755572Y214208565D01*
X157811491Y214059572D01*
X157835172Y213996475D01*
X157951361Y213802008D01*
X157951363Y213802005D01*
X157951364Y213802004D01*
X158038020Y213700542D01*
X158038033Y213700528D01*
X159108429Y212630131D01*
X159141914Y212568808D01*
X159142365Y212566642D01*
X159156182Y212497179D01*
X159156183Y212497175D01*
X159203937Y212381886D01*
X159203942Y212381877D01*
X159273267Y212278126D01*
X159273270Y212278122D01*
X159929555Y211621838D01*
X159963040Y211560515D01*
X159965874Y211534157D01*
X159965874Y210303305D01*
X159990217Y210180926D01*
X159990219Y210180918D01*
X160037972Y210065631D01*
X160037977Y210065622D01*
X160107302Y209961871D01*
X160107305Y209961867D01*
X161164128Y208905044D01*
X161197613Y208843721D01*
X161199767Y208830326D01*
X161217207Y208664401D01*
X161217207Y208664398D01*
X161217208Y208664397D01*
X161276219Y208482779D01*
X161276222Y208482772D01*
X161371708Y208317386D01*
X161499494Y208175464D01*
X161653995Y208063212D01*
X161653996Y208063211D01*
X161653997Y208063211D01*
X161657786Y208061524D01*
X161828463Y207985534D01*
X161828462Y207985534D01*
X162015262Y207945829D01*
X162206236Y207945829D01*
X162393034Y207985534D01*
X162393035Y207985534D01*
X162393037Y207985535D01*
X162567501Y208063211D01*
X162722002Y208175463D01*
X162725280Y208179103D01*
X162749173Y208205640D01*
X162849789Y208317385D01*
X162945276Y208482773D01*
X163004291Y208664401D01*
X163024253Y208854329D01*
X163019139Y208902980D01*
X163031708Y208971708D01*
X163079440Y209022732D01*
X163147180Y209039850D01*
X163189912Y209030501D01*
X163362969Y208958819D01*
X163593851Y208903389D01*
X163830566Y208884759D01*
X164067280Y208903389D01*
X164298161Y208958819D01*
X164298163Y208958819D01*
X164517525Y209049681D01*
X164517528Y209049683D01*
X164719976Y209173744D01*
X164719979Y209173745D01*
X164800656Y209242650D01*
X164900535Y209327955D01*
X165045134Y209497258D01*
X165054744Y209508510D01*
X165054745Y209508512D01*
X165113507Y209604403D01*
X165165318Y209651278D01*
X165234248Y209662701D01*
X165298411Y209635044D01*
X165306915Y209627294D01*
X165323747Y209610462D01*
X165357232Y209549139D01*
X165360066Y209522781D01*
X165360066Y209435274D01*
X165384409Y209312895D01*
X165384411Y209312887D01*
X165432164Y209197600D01*
X165432169Y209197591D01*
X165501494Y209093840D01*
X165501497Y209093836D01*
X166138244Y208457091D01*
X166167286Y208428049D01*
X166226483Y208368851D01*
X166330233Y208299527D01*
X166330240Y208299524D01*
X166397252Y208271766D01*
X166451655Y208227924D01*
X166473719Y208161629D01*
X166473119Y208144250D01*
X166472245Y208135930D01*
X166472245Y208135926D01*
X166472245Y208135924D01*
X166492207Y207945996D01*
X166492207Y207945993D01*
X166492208Y207945992D01*
X166551219Y207764374D01*
X166551222Y207764367D01*
X166646708Y207598981D01*
X166774494Y207457059D01*
X166928995Y207344807D01*
X166928996Y207344806D01*
X166928997Y207344806D01*
X167016229Y207305968D01*
X167103463Y207267129D01*
X167103462Y207267129D01*
X167290262Y207227424D01*
X167481236Y207227424D01*
X167668034Y207267129D01*
X167668035Y207267129D01*
X167668037Y207267130D01*
X167842501Y207344806D01*
X167842505Y207344808D01*
X167958030Y207428742D01*
X168023836Y207452222D01*
X168030915Y207452424D01*
X168588516Y207452424D01*
X168635969Y207442985D01*
X168723874Y207406573D01*
X168723882Y207406571D01*
X168870412Y207377424D01*
X168870417Y207377424D01*
X169019831Y207377424D01*
X169166361Y207406571D01*
X169166369Y207406573D01*
X169304404Y207463749D01*
X169304406Y207463750D01*
X169426651Y207545431D01*
X169428639Y207546759D01*
X169428640Y207546760D01*
X169636827Y207754948D01*
X169698150Y207788433D01*
X169724508Y207791267D01*
X169753202Y207791267D01*
X169940000Y207830972D01*
X169940001Y207830972D01*
X169940003Y207830973D01*
X170114467Y207908649D01*
X170268968Y208020901D01*
X170396755Y208162823D01*
X170492242Y208328211D01*
X170551257Y208509839D01*
X170571219Y208699767D01*
X170561613Y208791154D01*
X170574182Y208859879D01*
X170621914Y208910904D01*
X170655987Y208924686D01*
X170798160Y208958818D01*
X170798163Y208958819D01*
X171017525Y209049681D01*
X171017528Y209049683D01*
X171092411Y209095572D01*
X171159856Y209113817D01*
X171226459Y209092701D01*
X171271072Y209038929D01*
X171275132Y209028164D01*
X171305011Y208936205D01*
X171305013Y208936201D01*
X171400499Y208770815D01*
X171528285Y208628893D01*
X171682786Y208516641D01*
X171682787Y208516640D01*
X171682788Y208516640D01*
X171758841Y208482779D01*
X171857254Y208438963D01*
X171857253Y208438963D01*
X172044053Y208399258D01*
X172235027Y208399258D01*
X172421825Y208438963D01*
X172421826Y208438963D01*
X172421828Y208438964D01*
X172596292Y208516640D01*
X172750793Y208628892D01*
X172780622Y208662020D01*
X172840108Y208698669D01*
X172872772Y208703049D01*
X173603907Y208703049D01*
X173670946Y208683364D01*
X173716701Y208630560D01*
X173726645Y208561402D01*
X173721839Y208540733D01*
X173717207Y208526477D01*
X173697245Y208336549D01*
X173717207Y208146621D01*
X173717207Y208146618D01*
X173717208Y208146617D01*
X173776219Y207964999D01*
X173776222Y207964992D01*
X173871708Y207799606D01*
X173999494Y207657684D01*
X174153995Y207545432D01*
X174328463Y207467754D01*
X174328462Y207467754D01*
X174515262Y207428049D01*
X174706236Y207428049D01*
X174893034Y207467754D01*
X174893035Y207467754D01*
X174893037Y207467755D01*
X175067501Y207545431D01*
X175222002Y207657683D01*
X175349789Y207799605D01*
X175426675Y207932775D01*
X175477242Y207980991D01*
X175545849Y207994214D01*
X175610714Y207968246D01*
X175637164Y207939666D01*
X175688386Y207863007D01*
X175688389Y207863003D01*
X175931912Y207619479D01*
X175931920Y207619473D01*
X176035671Y207550149D01*
X176035675Y207550147D01*
X176117193Y207516381D01*
X176150963Y207502394D01*
X176150968Y207502392D01*
X176273351Y207478049D01*
X176273355Y207478049D01*
X176273356Y207478049D01*
X176398143Y207478049D01*
X179278983Y207478049D01*
X179322002Y207468906D01*
X179322281Y207469763D01*
X179328462Y207467754D01*
X179515262Y207428049D01*
X179706236Y207428049D01*
X179893034Y207467754D01*
X179893035Y207467754D01*
X179893037Y207467755D01*
X180067501Y207545431D01*
X180222002Y207657683D01*
X180349789Y207799605D01*
X180445276Y207964993D01*
X180504291Y208146621D01*
X180524253Y208336549D01*
X180504291Y208526477D01*
X180445276Y208708105D01*
X180349789Y208873493D01*
X180222002Y209015415D01*
X180186415Y209041270D01*
X180143751Y209096597D01*
X180137770Y209166210D01*
X180170375Y209228006D01*
X180231214Y209262364D01*
X180243116Y209264526D01*
X180337086Y209276897D01*
X180337091Y209276898D01*
X180483043Y209337353D01*
X180608382Y209433529D01*
X180704558Y209558867D01*
X180765012Y209704819D01*
X180765013Y209704823D01*
X180780457Y209822123D01*
X180780458Y209822137D01*
X180780458Y210298954D01*
X180262958Y210298954D01*
X180195919Y210318639D01*
X180150164Y210371443D01*
X180138958Y210422953D01*
X180138957Y210574953D01*
X180158641Y210641993D01*
X180211445Y210687748D01*
X180262957Y210698954D01*
X180780457Y210698954D01*
X180780457Y211175775D01*
X180779262Y211184852D01*
X180790027Y211253887D01*
X180836407Y211306143D01*
X180903676Y211325029D01*
X180970476Y211304549D01*
X180989882Y211288719D01*
X181705747Y210572854D01*
X181739232Y210511531D01*
X181742066Y210485173D01*
X181742066Y209600296D01*
X181766409Y209477917D01*
X181766411Y209477909D01*
X181814164Y209362622D01*
X181814169Y209362613D01*
X181883494Y209258862D01*
X181883497Y209258858D01*
X183011500Y208130855D01*
X183011504Y208130852D01*
X183115255Y208061527D01*
X183115264Y208061522D01*
X183230551Y208013769D01*
X183230559Y208013767D01*
X183352938Y207989424D01*
X183352943Y207989424D01*
X183477731Y207989424D01*
X184887620Y207989424D01*
X184954659Y207969739D01*
X185000414Y207916935D01*
X185005551Y207903742D01*
X185056906Y207745686D01*
X185056909Y207745679D01*
X185152395Y207580293D01*
X185280181Y207438371D01*
X185434682Y207326119D01*
X185609150Y207248441D01*
X185609149Y207248441D01*
X185795949Y207208736D01*
X185986923Y207208736D01*
X186173721Y207248441D01*
X186173722Y207248441D01*
X186173724Y207248442D01*
X186327044Y207316704D01*
X186377479Y207327424D01*
X191422589Y207327424D01*
X191544968Y207351767D01*
X191544976Y207351769D01*
X191660263Y207399522D01*
X191660272Y207399527D01*
X191764023Y207468852D01*
X191764027Y207468855D01*
X192061901Y207766730D01*
X192123224Y207800215D01*
X192149582Y207803049D01*
X193898886Y207803049D01*
X193965925Y207783364D01*
X193986567Y207766730D01*
X194646567Y207106730D01*
X194680052Y207045407D01*
X194675068Y206975715D01*
X194633196Y206919782D01*
X194567732Y206895365D01*
X194558886Y206895049D01*
X159270713Y206895049D01*
X159203674Y206914734D01*
X159157919Y206967538D01*
X159147975Y207036696D01*
X159157814Y207070330D01*
X159249161Y207271435D01*
X159304138Y207489622D01*
X159314538Y207621758D01*
X159314539Y207621770D01*
X159314539Y208185955D01*
X156688539Y208185955D01*
X156621500Y208205640D01*
X156575745Y208258444D01*
X156564539Y208309955D01*
X156564539Y208685955D01*
X157064539Y208685955D01*
X159314538Y208685955D01*
X159314538Y209250137D01*
X159314537Y209250152D01*
X159304138Y209382287D01*
X159249161Y209600474D01*
X159156110Y209805329D01*
X159156107Y209805335D01*
X159027979Y209990278D01*
X159027969Y209990290D01*
X158868874Y210149385D01*
X158868862Y210149395D01*
X158683919Y210277523D01*
X158683913Y210277526D01*
X158479058Y210370577D01*
X158260871Y210425554D01*
X158128728Y210435954D01*
X157064539Y210435954D01*
X157064539Y208685955D01*
X156564539Y208685955D01*
X156564539Y210435954D01*
X155500357Y210435954D01*
X155500341Y210435953D01*
X155368206Y210425554D01*
X155150019Y210370577D01*
X154945164Y210277526D01*
X154945158Y210277523D01*
X154863865Y210221203D01*
X154797549Y210199206D01*
X154729867Y210216554D01*
X154682309Y210267739D01*
X154669249Y210323131D01*
X154669249Y213002607D01*
X154688934Y213069646D01*
X154717153Y213100512D01*
X157821532Y215513366D01*
X157886543Y215538965D01*
X157955074Y215525352D01*
G37*
G04 #@! TD.AperFunction*
G04 #@! TA.AperFunction,Conductor*
G36*
X215510117Y217316864D02*
G01*
X215555872Y217264060D01*
X215563967Y217240144D01*
X215571100Y217208898D01*
X215619813Y216995467D01*
X215619817Y216995455D01*
X215708864Y216740975D01*
X215825844Y216498063D01*
X215969291Y216269770D01*
X216137395Y216058973D01*
X216328045Y215868323D01*
X216538842Y215700219D01*
X216767135Y215556772D01*
X217010047Y215439792D01*
X217264527Y215350745D01*
X217264535Y215350742D01*
X217527398Y215290746D01*
X217527410Y215290744D01*
X217795316Y215260558D01*
X217795321Y215260558D01*
X218064943Y215260558D01*
X218332849Y215290744D01*
X218332858Y215290745D01*
X218332862Y215290746D01*
X218398576Y215305745D01*
X218595724Y215350742D01*
X218595732Y215350745D01*
X218850212Y215439792D01*
X219093124Y215556772D01*
X219224300Y215639196D01*
X219321419Y215700220D01*
X219522158Y215860304D01*
X219532214Y215868323D01*
X219722864Y216058973D01*
X219789263Y216142235D01*
X219890968Y216269769D01*
X220034414Y216498061D01*
X220151397Y216740979D01*
X220240446Y216995467D01*
X220296291Y217240142D01*
X220330400Y217301120D01*
X220392061Y217333978D01*
X220417182Y217336549D01*
X255428249Y217336549D01*
X255495288Y217316864D01*
X255541043Y217264060D01*
X255552249Y217212549D01*
X255552249Y207019049D01*
X255532564Y206952010D01*
X255479760Y206906255D01*
X255428249Y206895049D01*
X242802957Y206895049D01*
X242735918Y206914734D01*
X242690163Y206967538D01*
X242680219Y207036696D01*
X242709244Y207100252D01*
X242715276Y207106730D01*
X243548213Y207939666D01*
X244532899Y208924352D01*
X244594222Y208957837D01*
X244649527Y208957245D01*
X244873851Y208903389D01*
X245110566Y208884759D01*
X245347280Y208903389D01*
X245578161Y208958819D01*
X245578163Y208958819D01*
X245797525Y209049681D01*
X245797528Y209049683D01*
X245999976Y209173744D01*
X245999979Y209173745D01*
X246080656Y209242650D01*
X246180535Y209327955D01*
X246325134Y209497258D01*
X246334744Y209508510D01*
X246334745Y209508513D01*
X246343489Y209522781D01*
X246458806Y209710961D01*
X246458807Y209710963D01*
X246458808Y209710964D01*
X246549670Y209930326D01*
X246549670Y209930328D01*
X246549671Y209930330D01*
X246605101Y210161213D01*
X246615013Y210287154D01*
X246639898Y210352442D01*
X246696129Y210393913D01*
X246738631Y210401424D01*
X247005162Y210401424D01*
X247072201Y210381739D01*
X247117956Y210328935D01*
X247127900Y210259777D01*
X247124937Y210245331D01*
X247104589Y210169392D01*
X247104587Y210169381D01*
X247085213Y209947926D01*
X247085213Y209947921D01*
X247104587Y209726466D01*
X247104588Y209726458D01*
X247162124Y209511732D01*
X247162127Y209511726D01*
X247256077Y209310247D01*
X247334956Y209197598D01*
X247382215Y209130105D01*
X247383593Y209128138D01*
X247540780Y208970951D01*
X247540783Y208970948D01*
X247540785Y208970947D01*
X247590402Y208936205D01*
X247722889Y208843435D01*
X247924368Y208749485D01*
X247924374Y208749482D01*
X248139100Y208691946D01*
X248139108Y208691945D01*
X248360564Y208672571D01*
X248360566Y208672571D01*
X248360568Y208672571D01*
X248582023Y208691945D01*
X248582031Y208691946D01*
X248796757Y208749482D01*
X248796759Y208749483D01*
X248796762Y208749484D01*
X248897502Y208796460D01*
X248998242Y208843435D01*
X249036544Y208870255D01*
X249180347Y208970947D01*
X249337543Y209128143D01*
X249465054Y209310247D01*
X249559006Y209511728D01*
X249616544Y209726461D01*
X249616544Y209726462D01*
X249616545Y209726466D01*
X249616836Y209728117D01*
X249617165Y209728782D01*
X249617945Y209731691D01*
X249618529Y209731534D01*
X249647859Y209790722D01*
X249707804Y209826616D01*
X249777638Y209824403D01*
X249786405Y209821153D01*
X249864584Y209788770D01*
X249864596Y209788767D01*
X249986975Y209764424D01*
X249986980Y209764424D01*
X250111768Y209764424D01*
X250160120Y209764424D01*
X250227159Y209744739D01*
X250265847Y209705214D01*
X250386386Y209508513D01*
X250386387Y209508510D01*
X250540597Y209327955D01*
X250721152Y209173745D01*
X250721155Y209173744D01*
X250923603Y209049683D01*
X250923606Y209049681D01*
X251142969Y208958819D01*
X251373851Y208903389D01*
X251610566Y208884759D01*
X251847280Y208903389D01*
X252078161Y208958819D01*
X252078163Y208958819D01*
X252297525Y209049681D01*
X252297528Y209049683D01*
X252499976Y209173744D01*
X252499979Y209173745D01*
X252580656Y209242650D01*
X252680535Y209327955D01*
X252825134Y209497258D01*
X252834744Y209508510D01*
X252834745Y209508513D01*
X252843489Y209522781D01*
X252958806Y209710961D01*
X252958807Y209710963D01*
X252958808Y209710964D01*
X253049670Y209930326D01*
X253049670Y209930328D01*
X253049671Y209930330D01*
X253105101Y210161213D01*
X253123731Y210397924D01*
X253105101Y210634635D01*
X253049671Y210865518D01*
X253043865Y210879535D01*
X252958808Y211084883D01*
X252958806Y211084886D01*
X252958806Y211084887D01*
X252834742Y211287340D01*
X252680535Y211467893D01*
X252499982Y211622100D01*
X252297529Y211746164D01*
X252297526Y211746165D01*
X252297525Y211746166D01*
X252078162Y211837028D01*
X252078160Y211837029D01*
X251847277Y211892459D01*
X251610566Y211911089D01*
X251373855Y211892459D01*
X251142972Y211837029D01*
X251142970Y211837028D01*
X251142968Y211837028D01*
X250923606Y211746166D01*
X250923603Y211746164D01*
X250730235Y211627667D01*
X250721155Y211622103D01*
X250721152Y211622102D01*
X250689477Y211595049D01*
X250540597Y211467893D01*
X250444906Y211355853D01*
X250386387Y211287337D01*
X250386386Y211287334D01*
X250342986Y211216513D01*
X250291174Y211169637D01*
X250222244Y211158215D01*
X250158082Y211185873D01*
X250149602Y211193598D01*
X249816207Y211526995D01*
X249712449Y211596324D01*
X249597159Y211644079D01*
X249474770Y211668423D01*
X249474769Y211668424D01*
X249474768Y211668424D01*
X245959360Y211668424D01*
X245894570Y211686697D01*
X245859913Y211707934D01*
X245797529Y211746164D01*
X245797526Y211746165D01*
X245797525Y211746166D01*
X245578162Y211837028D01*
X245578160Y211837029D01*
X245347277Y211892459D01*
X245110566Y211911089D01*
X244873855Y211892459D01*
X244642972Y211837029D01*
X244642970Y211837028D01*
X244642968Y211837028D01*
X244423606Y211746166D01*
X244423603Y211746164D01*
X244230235Y211627667D01*
X244221155Y211622103D01*
X244221152Y211622102D01*
X244189477Y211595049D01*
X244040597Y211467893D01*
X243944906Y211355853D01*
X243886387Y211287337D01*
X243886386Y211287334D01*
X243762325Y211084886D01*
X243762323Y211084883D01*
X243671461Y210865521D01*
X243671461Y210865519D01*
X243616031Y210634638D01*
X243597401Y210397924D01*
X243616031Y210161209D01*
X243669887Y209936885D01*
X243666396Y209867102D01*
X243636994Y209820257D01*
X241506106Y207689368D01*
X241444783Y207655883D01*
X241418425Y207653049D01*
X232574292Y207653049D01*
X232507253Y207672734D01*
X232461498Y207725538D01*
X232451554Y207794696D01*
X232480579Y207858252D01*
X232486611Y207864730D01*
X232767499Y208145618D01*
X232828822Y208179103D01*
X232829397Y208179227D01*
X232893035Y208192754D01*
X232921977Y208205640D01*
X233067501Y208270431D01*
X233069339Y208271766D01*
X233174558Y208348213D01*
X233222002Y208382683D01*
X233349789Y208524605D01*
X233445276Y208689993D01*
X233504291Y208871621D01*
X233524253Y209061549D01*
X233504291Y209251477D01*
X233445276Y209433105D01*
X233349789Y209598493D01*
X233313189Y209639140D01*
X233282960Y209702131D01*
X233288179Y209744089D01*
X233273863Y209738750D01*
X233205590Y209753602D01*
X233192137Y209762112D01*
X233067501Y209852667D01*
X232893037Y209930343D01*
X232862111Y209936916D01*
X232800634Y209970105D01*
X232766855Y210031267D01*
X232767320Y210087153D01*
X232768829Y210093438D01*
X232785101Y210161213D01*
X232790007Y210223558D01*
X232814891Y210288845D01*
X232871122Y210330315D01*
X232940848Y210334802D01*
X233001306Y210301508D01*
X233352698Y209950115D01*
X233386183Y209888792D01*
X233382672Y209839704D01*
X233402979Y209846090D01*
X233470381Y209827685D01*
X233493021Y209809793D01*
X234207243Y209095572D01*
X234920099Y208382716D01*
X234950340Y208352475D01*
X235008338Y208294476D01*
X235112088Y208225152D01*
X235112097Y208225147D01*
X235227384Y208177394D01*
X235227392Y208177392D01*
X235349771Y208153049D01*
X235349776Y208153049D01*
X238123147Y208153049D01*
X238245526Y208177392D01*
X238245534Y208177394D01*
X238360821Y208225147D01*
X238360830Y208225152D01*
X238464580Y208294476D01*
X238506653Y208336549D01*
X238561835Y208391731D01*
X238623156Y208425215D01*
X238649515Y208428049D01*
X239872703Y208428049D01*
X239939742Y208408364D01*
X239964852Y208387022D01*
X239968757Y208382684D01*
X240123258Y208270432D01*
X240123259Y208270431D01*
X240123260Y208270431D01*
X240165176Y208251769D01*
X240297726Y208192754D01*
X240297725Y208192754D01*
X240484525Y208153049D01*
X240675499Y208153049D01*
X240862297Y208192754D01*
X240862298Y208192754D01*
X240862300Y208192755D01*
X241036764Y208270431D01*
X241191265Y208382683D01*
X241319052Y208524605D01*
X241414539Y208689993D01*
X241473554Y208871621D01*
X241493516Y209061549D01*
X241473554Y209251477D01*
X241414539Y209433105D01*
X241319052Y209598493D01*
X241191265Y209740415D01*
X241036764Y209852667D01*
X240862300Y209930343D01*
X240675499Y209970049D01*
X240484525Y209970049D01*
X240297724Y209930343D01*
X240123260Y209852667D01*
X239968759Y209740415D01*
X239968757Y209740413D01*
X239964852Y209736076D01*
X239905366Y209699428D01*
X239872703Y209695049D01*
X239474048Y209695049D01*
X239407009Y209714734D01*
X239361254Y209767538D01*
X239351310Y209836696D01*
X239359487Y209866502D01*
X239359736Y209867102D01*
X239402792Y209971048D01*
X239427137Y210093439D01*
X239427137Y210218227D01*
X239427137Y210365316D01*
X239446822Y210432355D01*
X239458987Y210448288D01*
X239532673Y210530125D01*
X239532678Y210530132D01*
X239590737Y210630694D01*
X239628164Y210695519D01*
X239687179Y210877147D01*
X239707141Y211067075D01*
X239687179Y211257003D01*
X239628164Y211438631D01*
X239532677Y211604019D01*
X239404890Y211745941D01*
X239250389Y211858193D01*
X239075925Y211935869D01*
X238889124Y211975575D01*
X238698150Y211975575D01*
X238511349Y211935869D01*
X238336885Y211858193D01*
X238182384Y211745941D01*
X238054597Y211604019D01*
X238054596Y211604017D01*
X237959110Y211438631D01*
X237959107Y211438624D01*
X237922198Y211325029D01*
X237900095Y211257003D01*
X237880133Y211067075D01*
X237900095Y210877147D01*
X237900095Y210877144D01*
X237900096Y210877143D01*
X237959107Y210695525D01*
X237959110Y210695518D01*
X238054595Y210530132D01*
X238054600Y210530125D01*
X238078879Y210503161D01*
X238109108Y210440168D01*
X238100482Y210370833D01*
X238074409Y210332509D01*
X237648268Y209906368D01*
X237586945Y209872883D01*
X237560587Y209870049D01*
X235912332Y209870049D01*
X235845293Y209889734D01*
X235824651Y209906368D01*
X233066027Y212664992D01*
X233066026Y212664993D01*
X233066024Y212664995D01*
X232962266Y212734324D01*
X232846976Y212782079D01*
X232724587Y212806423D01*
X232724586Y212806424D01*
X232724585Y212806424D01*
X230492943Y212806424D01*
X230492942Y212806424D01*
X230492938Y212806423D01*
X230370559Y212782081D01*
X230370554Y212782079D01*
X230370552Y212782079D01*
X230336784Y212768092D01*
X230255262Y212734325D01*
X230255261Y212734324D01*
X230255258Y212734323D01*
X230151504Y212664996D01*
X230151500Y212664993D01*
X229359955Y211873447D01*
X229298632Y211839962D01*
X229228941Y211844946D01*
X229184592Y211873448D01*
X229176321Y211881719D01*
X229081046Y211976995D01*
X228977288Y212046324D01*
X228861998Y212094079D01*
X228739609Y212118423D01*
X228739608Y212118424D01*
X228739607Y212118424D01*
X227163958Y212118424D01*
X227096919Y212138109D01*
X227076277Y212154743D01*
X225991027Y213239992D01*
X225991024Y213239995D01*
X225887266Y213309324D01*
X225771976Y213357079D01*
X225649587Y213381423D01*
X225649586Y213381424D01*
X225649585Y213381424D01*
X225629594Y213381424D01*
X225562555Y213401109D01*
X225516800Y213453913D01*
X225506856Y213523071D01*
X225535881Y213586627D01*
X225570577Y213614479D01*
X225613795Y213637867D01*
X225660622Y213674313D01*
X225660623Y213674314D01*
X224960801Y214374136D01*
X225002858Y214385406D01*
X225128274Y214457814D01*
X225230676Y214560216D01*
X225303084Y214685632D01*
X225314352Y214727687D01*
X226014000Y214028040D01*
X226114297Y214181554D01*
X226214153Y214409206D01*
X226275178Y214650185D01*
X226275180Y214650194D01*
X226295707Y214897918D01*
X226295707Y214897929D01*
X226275180Y215145653D01*
X226275178Y215145662D01*
X226223957Y215347926D01*
X226765213Y215347926D01*
X226765213Y215347921D01*
X226784587Y215126466D01*
X226784588Y215126458D01*
X226842124Y214911732D01*
X226842127Y214911726D01*
X226936077Y214710247D01*
X227014068Y214598866D01*
X227062957Y214529045D01*
X227063593Y214528138D01*
X227220780Y214370951D01*
X227220783Y214370948D01*
X227220785Y214370947D01*
X227226765Y214366760D01*
X227402889Y214243435D01*
X227604368Y214149485D01*
X227604374Y214149482D01*
X227819100Y214091946D01*
X227819108Y214091945D01*
X228040564Y214072571D01*
X228040566Y214072571D01*
X228040568Y214072571D01*
X228262023Y214091945D01*
X228262031Y214091946D01*
X228476757Y214149482D01*
X228476759Y214149483D01*
X228476762Y214149484D01*
X228583837Y214199414D01*
X228678242Y214243435D01*
X228746308Y214291096D01*
X228860347Y214370947D01*
X229017543Y214528143D01*
X229145054Y214710247D01*
X229232571Y214897929D01*
X229785425Y214897929D01*
X229785425Y214897918D01*
X229805951Y214650194D01*
X229805953Y214650185D01*
X229866978Y214409206D01*
X229966833Y214181556D01*
X230067130Y214028040D01*
X230766778Y214727688D01*
X230778048Y214685632D01*
X230850456Y214560216D01*
X230952858Y214457814D01*
X231078274Y214385406D01*
X231120331Y214374136D01*
X230420508Y213674314D01*
X230420508Y213674312D01*
X230467327Y213637873D01*
X230685956Y213519556D01*
X230685962Y213519554D01*
X230921072Y213438840D01*
X231166273Y213397924D01*
X231414859Y213397924D01*
X231660059Y213438840D01*
X231895169Y213519554D01*
X231895180Y213519559D01*
X232113795Y213637867D01*
X232160622Y213674313D01*
X232160623Y213674314D01*
X231460801Y214374136D01*
X231502858Y214385406D01*
X231628274Y214457814D01*
X231730676Y214560216D01*
X231803084Y214685632D01*
X231814352Y214727687D01*
X232514000Y214028040D01*
X232614297Y214181554D01*
X232714153Y214409206D01*
X232775178Y214650185D01*
X232775180Y214650194D01*
X232795707Y214897918D01*
X232795707Y214897929D01*
X243605425Y214897929D01*
X243605425Y214897918D01*
X243625951Y214650194D01*
X243625953Y214650185D01*
X243686978Y214409206D01*
X243786833Y214181556D01*
X243887130Y214028040D01*
X244586778Y214727688D01*
X244598048Y214685632D01*
X244670456Y214560216D01*
X244772858Y214457814D01*
X244898274Y214385406D01*
X244940331Y214374136D01*
X244240508Y213674314D01*
X244240508Y213674312D01*
X244287327Y213637873D01*
X244505956Y213519556D01*
X244505962Y213519554D01*
X244741072Y213438840D01*
X244986273Y213397924D01*
X245234859Y213397924D01*
X245480059Y213438840D01*
X245715169Y213519554D01*
X245715180Y213519559D01*
X245933795Y213637867D01*
X245980622Y213674313D01*
X245980623Y213674314D01*
X245280801Y214374136D01*
X245322858Y214385406D01*
X245448274Y214457814D01*
X245550676Y214560216D01*
X245623084Y214685632D01*
X245634353Y214727688D01*
X246334000Y214028040D01*
X246434297Y214181554D01*
X246534153Y214409206D01*
X246595178Y214650185D01*
X246595180Y214650194D01*
X246615707Y214897918D01*
X246615707Y214897929D01*
X246595180Y215145653D01*
X246595178Y215145662D01*
X246543957Y215347926D01*
X247085213Y215347926D01*
X247085213Y215347921D01*
X247104587Y215126466D01*
X247104588Y215126458D01*
X247162124Y214911732D01*
X247162127Y214911726D01*
X247256077Y214710247D01*
X247334068Y214598866D01*
X247382957Y214529045D01*
X247383593Y214528138D01*
X247540780Y214370951D01*
X247540783Y214370948D01*
X247540785Y214370947D01*
X247546765Y214366760D01*
X247722889Y214243435D01*
X247924368Y214149485D01*
X247924374Y214149482D01*
X248139100Y214091946D01*
X248139108Y214091945D01*
X248360564Y214072571D01*
X248360566Y214072571D01*
X248360568Y214072571D01*
X248582023Y214091945D01*
X248582031Y214091946D01*
X248796757Y214149482D01*
X248796759Y214149483D01*
X248796762Y214149484D01*
X248903837Y214199414D01*
X248998242Y214243435D01*
X249066308Y214291096D01*
X249180347Y214370947D01*
X249337543Y214528143D01*
X249465054Y214710247D01*
X249552571Y214897929D01*
X250105425Y214897929D01*
X250105425Y214897918D01*
X250125951Y214650194D01*
X250125953Y214650185D01*
X250186978Y214409206D01*
X250286833Y214181556D01*
X250387130Y214028040D01*
X251086778Y214727688D01*
X251098048Y214685632D01*
X251170456Y214560216D01*
X251272858Y214457814D01*
X251398274Y214385406D01*
X251440331Y214374136D01*
X250740508Y213674314D01*
X250740508Y213674312D01*
X250787327Y213637873D01*
X251005956Y213519556D01*
X251005962Y213519554D01*
X251241072Y213438840D01*
X251486273Y213397924D01*
X251734859Y213397924D01*
X251980059Y213438840D01*
X252215169Y213519554D01*
X252215180Y213519559D01*
X252433795Y213637867D01*
X252480622Y213674313D01*
X252480623Y213674314D01*
X251780801Y214374136D01*
X251822858Y214385406D01*
X251948274Y214457814D01*
X252050676Y214560216D01*
X252123084Y214685632D01*
X252134353Y214727688D01*
X252834000Y214028040D01*
X252934297Y214181554D01*
X253034153Y214409206D01*
X253095178Y214650185D01*
X253095180Y214650194D01*
X253115707Y214897918D01*
X253115707Y214897929D01*
X253095180Y215145653D01*
X253095178Y215145662D01*
X253034153Y215386641D01*
X252934297Y215614293D01*
X252834000Y215767806D01*
X252134353Y215068159D01*
X252123084Y215110216D01*
X252050676Y215235632D01*
X251948274Y215338034D01*
X251822858Y215410442D01*
X251780800Y215421711D01*
X252480622Y216121533D01*
X252433797Y216157979D01*
X252433794Y216157981D01*
X252215180Y216276288D01*
X252215169Y216276293D01*
X251980059Y216357007D01*
X251734859Y216397924D01*
X251486273Y216397924D01*
X251241072Y216357007D01*
X251005962Y216276293D01*
X251005951Y216276288D01*
X250787336Y216157980D01*
X250787334Y216157979D01*
X250740508Y216121533D01*
X251440331Y215421711D01*
X251398274Y215410442D01*
X251272858Y215338034D01*
X251170456Y215235632D01*
X251098048Y215110216D01*
X251086778Y215068158D01*
X250387130Y215767806D01*
X250286832Y215614288D01*
X250186978Y215386641D01*
X250125953Y215145662D01*
X250125951Y215145653D01*
X250105425Y214897929D01*
X249552571Y214897929D01*
X249559006Y214911728D01*
X249616544Y215126461D01*
X249635919Y215347924D01*
X249635672Y215350742D01*
X249627510Y215444045D01*
X249616544Y215569387D01*
X249559006Y215784120D01*
X249465054Y215985600D01*
X249337543Y216167705D01*
X249180347Y216324901D01*
X248998243Y216452412D01*
X248796762Y216546364D01*
X248582029Y216603902D01*
X248415931Y216618433D01*
X248360568Y216623277D01*
X248360564Y216623277D01*
X248297290Y216617741D01*
X248139103Y216603902D01*
X247924370Y216546364D01*
X247722890Y216452412D01*
X247722889Y216452411D01*
X247722885Y216452409D01*
X247540783Y216324900D01*
X247383589Y216167706D01*
X247256080Y215985604D01*
X247256078Y215985600D01*
X247168616Y215798037D01*
X247162126Y215784120D01*
X247161305Y215781057D01*
X247104588Y215569388D01*
X247104587Y215569381D01*
X247085213Y215347926D01*
X246543957Y215347926D01*
X246534153Y215386641D01*
X246434297Y215614293D01*
X246334000Y215767806D01*
X245634353Y215068159D01*
X245623084Y215110216D01*
X245550676Y215235632D01*
X245448274Y215338034D01*
X245322858Y215410442D01*
X245280800Y215421711D01*
X245980622Y216121533D01*
X245933797Y216157979D01*
X245933794Y216157981D01*
X245715180Y216276288D01*
X245715169Y216276293D01*
X245480059Y216357007D01*
X245234859Y216397924D01*
X244986273Y216397924D01*
X244741072Y216357007D01*
X244505962Y216276293D01*
X244505951Y216276288D01*
X244287336Y216157980D01*
X244287334Y216157979D01*
X244240508Y216121533D01*
X244940331Y215421711D01*
X244898274Y215410442D01*
X244772858Y215338034D01*
X244670456Y215235632D01*
X244598048Y215110216D01*
X244586778Y215068158D01*
X243887130Y215767806D01*
X243786832Y215614288D01*
X243686978Y215386641D01*
X243625953Y215145662D01*
X243625951Y215145653D01*
X243605425Y214897929D01*
X232795707Y214897929D01*
X232775180Y215145653D01*
X232775178Y215145662D01*
X232714153Y215386641D01*
X232614297Y215614293D01*
X232514000Y215767806D01*
X231814353Y215068159D01*
X231803084Y215110216D01*
X231730676Y215235632D01*
X231628274Y215338034D01*
X231502858Y215410442D01*
X231460800Y215421711D01*
X232160622Y216121533D01*
X232113797Y216157979D01*
X232113794Y216157981D01*
X231895180Y216276288D01*
X231895169Y216276293D01*
X231660059Y216357007D01*
X231414859Y216397924D01*
X231166273Y216397924D01*
X230921072Y216357007D01*
X230685962Y216276293D01*
X230685951Y216276288D01*
X230467336Y216157980D01*
X230467334Y216157979D01*
X230420508Y216121533D01*
X231120331Y215421711D01*
X231078274Y215410442D01*
X230952858Y215338034D01*
X230850456Y215235632D01*
X230778048Y215110216D01*
X230766778Y215068158D01*
X230067130Y215767806D01*
X229966832Y215614288D01*
X229866978Y215386641D01*
X229805953Y215145662D01*
X229805951Y215145653D01*
X229785425Y214897929D01*
X229232571Y214897929D01*
X229239006Y214911728D01*
X229296544Y215126461D01*
X229315919Y215347924D01*
X229315672Y215350742D01*
X229307510Y215444045D01*
X229296544Y215569387D01*
X229239006Y215784120D01*
X229145054Y215985600D01*
X229017543Y216167705D01*
X228860347Y216324901D01*
X228678243Y216452412D01*
X228476762Y216546364D01*
X228262029Y216603902D01*
X228095931Y216618433D01*
X228040568Y216623277D01*
X228040564Y216623277D01*
X227977290Y216617741D01*
X227819103Y216603902D01*
X227604370Y216546364D01*
X227402890Y216452412D01*
X227402889Y216452411D01*
X227402885Y216452409D01*
X227220783Y216324900D01*
X227063589Y216167706D01*
X226936080Y215985604D01*
X226936078Y215985600D01*
X226848616Y215798037D01*
X226842126Y215784120D01*
X226841305Y215781057D01*
X226784588Y215569388D01*
X226784587Y215569381D01*
X226765213Y215347926D01*
X226223957Y215347926D01*
X226214153Y215386641D01*
X226114297Y215614293D01*
X226014000Y215767806D01*
X225314353Y215068159D01*
X225303084Y215110216D01*
X225230676Y215235632D01*
X225128274Y215338034D01*
X225002858Y215410442D01*
X224960800Y215421711D01*
X225660622Y216121533D01*
X225613797Y216157979D01*
X225613794Y216157981D01*
X225395180Y216276288D01*
X225395169Y216276293D01*
X225160059Y216357007D01*
X224914859Y216397924D01*
X224666273Y216397924D01*
X224421072Y216357007D01*
X224185962Y216276293D01*
X224185951Y216276288D01*
X223967336Y216157980D01*
X223967334Y216157979D01*
X223920508Y216121533D01*
X224620331Y215421711D01*
X224578274Y215410442D01*
X224452858Y215338034D01*
X224350456Y215235632D01*
X224278048Y215110216D01*
X224266778Y215068158D01*
X223567130Y215767806D01*
X223466832Y215614288D01*
X223366978Y215386641D01*
X223305953Y215145662D01*
X223305951Y215145653D01*
X223285425Y214897929D01*
X223285425Y214897918D01*
X223305951Y214650194D01*
X223305953Y214650185D01*
X223366978Y214409206D01*
X223466833Y214181556D01*
X223567130Y214028040D01*
X224266778Y214727688D01*
X224278048Y214685632D01*
X224350456Y214560216D01*
X224452858Y214457814D01*
X224578274Y214385406D01*
X224620331Y214374136D01*
X223920508Y213674314D01*
X223920508Y213674312D01*
X223967327Y213637873D01*
X224010556Y213614479D01*
X224060146Y213565259D01*
X224075254Y213497042D01*
X224051083Y213431487D01*
X223995307Y213389406D01*
X223951538Y213381424D01*
X211809594Y213381424D01*
X211742555Y213401109D01*
X211696800Y213453913D01*
X211686856Y213523071D01*
X211715881Y213586627D01*
X211750577Y213614479D01*
X211793795Y213637867D01*
X211840622Y213674313D01*
X211840623Y213674314D01*
X211140801Y214374136D01*
X211182858Y214385406D01*
X211308274Y214457814D01*
X211410676Y214560216D01*
X211483084Y214685632D01*
X211494352Y214727687D01*
X212194000Y214028040D01*
X212294297Y214181554D01*
X212394153Y214409206D01*
X212455178Y214650185D01*
X212455180Y214650194D01*
X212475707Y214897918D01*
X212475707Y214897929D01*
X212455180Y215145653D01*
X212455178Y215145662D01*
X212394153Y215386641D01*
X212294297Y215614293D01*
X212194000Y215767806D01*
X211494353Y215068159D01*
X211483084Y215110216D01*
X211410676Y215235632D01*
X211308274Y215338034D01*
X211182858Y215410442D01*
X211140800Y215421711D01*
X211840622Y216121533D01*
X211793797Y216157979D01*
X211793794Y216157981D01*
X211575180Y216276288D01*
X211575169Y216276293D01*
X211340059Y216357007D01*
X211094859Y216397924D01*
X210846273Y216397924D01*
X210601072Y216357007D01*
X210365962Y216276293D01*
X210365951Y216276288D01*
X210147336Y216157980D01*
X210147334Y216157979D01*
X210100508Y216121533D01*
X210800331Y215421711D01*
X210758274Y215410442D01*
X210632858Y215338034D01*
X210530456Y215235632D01*
X210458048Y215110216D01*
X210446778Y215068158D01*
X209747130Y215767806D01*
X209646832Y215614288D01*
X209546978Y215386641D01*
X209485953Y215145662D01*
X209485951Y215145653D01*
X209465425Y214897929D01*
X209465425Y214897918D01*
X209485951Y214650194D01*
X209485953Y214650185D01*
X209546978Y214409206D01*
X209646833Y214181556D01*
X209747130Y214028040D01*
X210446778Y214727688D01*
X210458048Y214685632D01*
X210530456Y214560216D01*
X210632858Y214457814D01*
X210758274Y214385406D01*
X210800331Y214374136D01*
X210100508Y213674314D01*
X210100508Y213674312D01*
X210147327Y213637873D01*
X210190556Y213614479D01*
X210240146Y213565259D01*
X210255254Y213497042D01*
X210231083Y213431487D01*
X210175307Y213389406D01*
X210131538Y213381424D01*
X208637637Y213381424D01*
X208570598Y213401109D01*
X208524843Y213453913D01*
X208514317Y213492459D01*
X208504291Y213587852D01*
X208445276Y213769480D01*
X208349789Y213934868D01*
X208268738Y214024883D01*
X208238511Y214087871D01*
X208247136Y214157206D01*
X208291877Y214210872D01*
X208308486Y214220234D01*
X208358242Y214243435D01*
X208426308Y214291096D01*
X208540347Y214370947D01*
X208697543Y214528143D01*
X208825054Y214710247D01*
X208919006Y214911728D01*
X208976544Y215126461D01*
X208995919Y215347924D01*
X208995672Y215350742D01*
X208987510Y215444045D01*
X208976544Y215569387D01*
X208919006Y215784120D01*
X208825054Y215985600D01*
X208697543Y216167705D01*
X208540347Y216324901D01*
X208358243Y216452412D01*
X208156762Y216546364D01*
X207942029Y216603902D01*
X207775931Y216618433D01*
X207720568Y216623277D01*
X207720564Y216623277D01*
X207657290Y216617741D01*
X207499103Y216603902D01*
X207284370Y216546364D01*
X207082890Y216452412D01*
X207082889Y216452411D01*
X207082885Y216452409D01*
X206900783Y216324900D01*
X206743589Y216167706D01*
X206616080Y215985604D01*
X206616078Y215985600D01*
X206528616Y215798037D01*
X206522126Y215784120D01*
X206521305Y215781057D01*
X206464588Y215569388D01*
X206464587Y215569381D01*
X206445213Y215347926D01*
X206445213Y215347921D01*
X206464587Y215126466D01*
X206464588Y215126458D01*
X206522124Y214911732D01*
X206522127Y214911726D01*
X206616077Y214710247D01*
X206694068Y214598866D01*
X206742957Y214529045D01*
X206743593Y214528138D01*
X206900784Y214370947D01*
X207014822Y214291096D01*
X207058447Y214236519D01*
X207065639Y214167020D01*
X207034116Y214104666D01*
X207016586Y214089207D01*
X206999496Y214076790D01*
X206999495Y214076789D01*
X206925399Y213994497D01*
X206880702Y213962908D01*
X206872049Y213959324D01*
X206872043Y213959320D01*
X206774770Y213894324D01*
X206768291Y213889995D01*
X206706916Y213828620D01*
X206661756Y213783460D01*
X206618676Y213740380D01*
X206549352Y213636630D01*
X206549347Y213636621D01*
X206501594Y213521334D01*
X206501592Y213521326D01*
X206477249Y213398947D01*
X206477249Y213340570D01*
X206457564Y213273531D01*
X206404760Y213227776D01*
X206335602Y213217832D01*
X206327473Y213219278D01*
X206206236Y213245049D01*
X206015262Y213245049D01*
X206005740Y213243024D01*
X205955769Y213242698D01*
X205886768Y213256424D01*
X205051788Y213256424D01*
X204984749Y213276109D01*
X204938994Y213328913D01*
X204929050Y213398071D01*
X204958075Y213461627D01*
X205011525Y213497705D01*
X205075169Y213519554D01*
X205075180Y213519559D01*
X205293795Y213637867D01*
X205340622Y213674313D01*
X205340623Y213674314D01*
X204640801Y214374136D01*
X204682858Y214385406D01*
X204808274Y214457814D01*
X204910676Y214560216D01*
X204983084Y214685632D01*
X204994352Y214727687D01*
X205694000Y214028040D01*
X205794297Y214181554D01*
X205894153Y214409206D01*
X205955178Y214650185D01*
X205955180Y214650194D01*
X205975707Y214897918D01*
X205975707Y214897929D01*
X205955180Y215145653D01*
X205955178Y215145662D01*
X205894153Y215386641D01*
X205794297Y215614293D01*
X205694000Y215767806D01*
X204994353Y215068159D01*
X204983084Y215110216D01*
X204910676Y215235632D01*
X204808274Y215338034D01*
X204682858Y215410442D01*
X204640800Y215421711D01*
X205340622Y216121533D01*
X205293797Y216157979D01*
X205293794Y216157981D01*
X205075180Y216276288D01*
X205075169Y216276293D01*
X204840059Y216357007D01*
X204594859Y216397924D01*
X204346273Y216397924D01*
X204101072Y216357007D01*
X203865962Y216276293D01*
X203865951Y216276288D01*
X203647336Y216157980D01*
X203647334Y216157979D01*
X203600508Y216121533D01*
X204300331Y215421711D01*
X204258274Y215410442D01*
X204132858Y215338034D01*
X204030456Y215235632D01*
X203958048Y215110216D01*
X203946778Y215068158D01*
X203247130Y215767806D01*
X203182219Y215668452D01*
X203129072Y215623096D01*
X203059841Y215613672D01*
X202996505Y215643174D01*
X202959174Y215702234D01*
X202954410Y215736274D01*
X202954410Y216188623D01*
X202954409Y216188638D01*
X202944010Y216320773D01*
X202889033Y216538960D01*
X202795982Y216743815D01*
X202795979Y216743821D01*
X202667851Y216928764D01*
X202667841Y216928776D01*
X202508746Y217087871D01*
X202508734Y217087881D01*
X202475912Y217110621D01*
X202432015Y217164979D01*
X202424476Y217234441D01*
X202455687Y217296952D01*
X202515739Y217332666D01*
X202546528Y217336549D01*
X215443078Y217336549D01*
X215510117Y217316864D01*
G37*
G04 #@! TD.AperFunction*
G04 #@! TA.AperFunction,Conductor*
G36*
X173758670Y213162688D02*
G01*
X173804425Y213109884D01*
X173815631Y213058373D01*
X173815631Y212232082D01*
X173836543Y212233727D01*
X173836549Y212233728D01*
X173991821Y212278839D01*
X173991826Y212278841D01*
X174131005Y212361151D01*
X174131014Y212361158D01*
X174245345Y212475489D01*
X174245352Y212475498D01*
X174327661Y212614676D01*
X174372776Y212769962D01*
X174372776Y212769965D01*
X174375630Y212806228D01*
X174375630Y212837764D01*
X174395313Y212904804D01*
X174448115Y212950561D01*
X174517273Y212960506D01*
X174580830Y212931483D01*
X174587311Y212925449D01*
X174718398Y212794362D01*
X174751883Y212733039D01*
X174748648Y212668364D01*
X174717208Y212571600D01*
X174717207Y212571597D01*
X174717207Y212571595D01*
X174697245Y212381667D01*
X174717207Y212191739D01*
X174717207Y212191736D01*
X174717208Y212191735D01*
X174759650Y212061111D01*
X174761645Y211991269D01*
X174729400Y211935112D01*
X174356862Y211562574D01*
X174295539Y211529089D01*
X174269181Y211526255D01*
X174213602Y211526255D01*
X174146563Y211545940D01*
X174106215Y211588254D01*
X174066859Y211656422D01*
X173939072Y211798344D01*
X173784571Y211910596D01*
X173610107Y211988272D01*
X173423306Y212027978D01*
X173411650Y212027978D01*
X173344611Y212047663D01*
X173298856Y212100467D01*
X173290892Y212155852D01*
X173281620Y212090029D01*
X173236016Y212037094D01*
X173194460Y212019928D01*
X173045531Y211988272D01*
X172871067Y211910596D01*
X172716566Y211798344D01*
X172588779Y211656422D01*
X172558524Y211604019D01*
X172493292Y211491034D01*
X172493289Y211491027D01*
X172453670Y211369091D01*
X172434277Y211309406D01*
X172414315Y211119478D01*
X172434277Y210929550D01*
X172434277Y210929547D01*
X172434278Y210929546D01*
X172493289Y210747928D01*
X172493292Y210747921D01*
X172588778Y210582535D01*
X172716564Y210440613D01*
X172871065Y210328361D01*
X172871066Y210328360D01*
X172871067Y210328360D01*
X172927342Y210303305D01*
X173045533Y210250683D01*
X173045532Y210250683D01*
X173211815Y210215339D01*
X173273297Y210182147D01*
X173307073Y210120984D01*
X173302421Y210051269D01*
X173260816Y209995137D01*
X173195469Y209970408D01*
X173186034Y209970049D01*
X172813896Y209970049D01*
X172746857Y209989734D01*
X172741028Y209993718D01*
X172596292Y210098876D01*
X172421828Y210176552D01*
X172235027Y210216258D01*
X172044053Y210216258D01*
X171988209Y210204388D01*
X171918542Y210209704D01*
X171862808Y210251841D01*
X171838703Y210317421D01*
X171838809Y210335399D01*
X171843731Y210397924D01*
X171825101Y210634635D01*
X171769671Y210865518D01*
X171763865Y210879535D01*
X171678808Y211084883D01*
X171678806Y211084886D01*
X171678806Y211084887D01*
X171631287Y211162431D01*
X171579676Y211246653D01*
X171561431Y211314099D01*
X171582547Y211380701D01*
X171636319Y211425315D01*
X171685403Y211435443D01*
X171706160Y211435443D01*
X171892958Y211475148D01*
X171892959Y211475148D01*
X171892961Y211475149D01*
X172067425Y211552825D01*
X172221926Y211665077D01*
X172349713Y211806999D01*
X172445200Y211972387D01*
X172504215Y212154015D01*
X172524177Y212343943D01*
X172504215Y212533871D01*
X172491465Y212573108D01*
X172489469Y212642946D01*
X172525548Y212702780D01*
X172583615Y212732716D01*
X172599409Y212736073D01*
X172599413Y212736074D01*
X172619129Y212744852D01*
X172688379Y212754136D01*
X172751656Y212724506D01*
X172788639Y212666168D01*
X172803597Y212614681D01*
X172803599Y212614677D01*
X172885909Y212475498D01*
X172885916Y212475489D01*
X173000247Y212361158D01*
X173000256Y212361151D01*
X173139435Y212278841D01*
X173139440Y212278839D01*
X173203274Y212260294D01*
X173262160Y212222688D01*
X173289973Y212162240D01*
X173288912Y212169625D01*
X173315631Y212228131D01*
X173315631Y213058373D01*
X173335316Y213125412D01*
X173388120Y213171167D01*
X173439631Y213182373D01*
X173691631Y213182373D01*
X173758670Y213162688D01*
G37*
G04 #@! TD.AperFunction*
G04 #@! TA.AperFunction,Conductor*
G36*
X203958048Y214685632D02*
G01*
X204030456Y214560216D01*
X204132858Y214457814D01*
X204258274Y214385406D01*
X204300331Y214374136D01*
X203600508Y213674314D01*
X203600508Y213674312D01*
X203647327Y213637873D01*
X203865956Y213519556D01*
X203865962Y213519554D01*
X203929607Y213497705D01*
X203986623Y213457319D01*
X204012753Y213392520D01*
X203999701Y213323880D01*
X203951612Y213273192D01*
X203889344Y213256424D01*
X203059872Y213256424D01*
X202992833Y213276109D01*
X202947078Y213328913D01*
X202937134Y213398071D01*
X202939630Y213410720D01*
X202944010Y213428104D01*
X202944010Y213428106D01*
X202954410Y213560244D01*
X202954410Y214059572D01*
X202974094Y214126611D01*
X203026898Y214172366D01*
X203096057Y214182310D01*
X203159613Y214153285D01*
X203182218Y214127394D01*
X203247129Y214028040D01*
X203247130Y214028040D01*
X203946778Y214727688D01*
X203958048Y214685632D01*
G37*
G04 #@! TD.AperFunction*
G04 #@! TA.AperFunction,Conductor*
G36*
X173012980Y217316864D02*
G01*
X173058735Y217264060D01*
X173068679Y217194902D01*
X173039654Y217131346D01*
X173033622Y217124868D01*
X171706791Y215798037D01*
X171645468Y215764552D01*
X171606318Y215762380D01*
X171554000Y215767806D01*
X170854353Y215068159D01*
X170843084Y215110216D01*
X170770676Y215235632D01*
X170668274Y215338034D01*
X170542858Y215410442D01*
X170500800Y215421711D01*
X171200622Y216121533D01*
X171153797Y216157979D01*
X171153794Y216157981D01*
X170935180Y216276288D01*
X170935169Y216276293D01*
X170700059Y216357007D01*
X170454859Y216397924D01*
X170206273Y216397924D01*
X169961072Y216357007D01*
X169725962Y216276293D01*
X169725951Y216276288D01*
X169507336Y216157980D01*
X169507334Y216157979D01*
X169460508Y216121533D01*
X170160331Y215421711D01*
X170118274Y215410442D01*
X169992858Y215338034D01*
X169890456Y215235632D01*
X169818048Y215110216D01*
X169806778Y215068157D01*
X169107130Y215767806D01*
X169006832Y215614288D01*
X168960557Y215508791D01*
X168915601Y215455305D01*
X168848865Y215434615D01*
X168799540Y215444044D01*
X168795534Y215445704D01*
X168673145Y215470048D01*
X168673144Y215470049D01*
X168673143Y215470049D01*
X168548355Y215470049D01*
X168548354Y215470049D01*
X168518860Y215464182D01*
X168484372Y215457322D01*
X168414781Y215463549D01*
X168359604Y215506412D01*
X168338128Y215564172D01*
X168337483Y215564059D01*
X168336863Y215567575D01*
X168336653Y215568140D01*
X168336544Y215569387D01*
X168279006Y215784120D01*
X168185054Y215985600D01*
X168057543Y216167705D01*
X167900347Y216324901D01*
X167718243Y216452412D01*
X167516762Y216546364D01*
X167302029Y216603902D01*
X167135931Y216618433D01*
X167080568Y216623277D01*
X167080564Y216623277D01*
X167017290Y216617741D01*
X166859103Y216603902D01*
X166644370Y216546364D01*
X166442890Y216452412D01*
X166442889Y216452411D01*
X166442885Y216452409D01*
X166260783Y216324900D01*
X166103589Y216167706D01*
X165976080Y215985604D01*
X165976078Y215985600D01*
X165888616Y215798037D01*
X165882126Y215784120D01*
X165881305Y215781057D01*
X165824588Y215569388D01*
X165824587Y215569381D01*
X165805213Y215347926D01*
X165805213Y215347921D01*
X165824587Y215126466D01*
X165824588Y215126458D01*
X165882124Y214911732D01*
X165882127Y214911726D01*
X165976077Y214710247D01*
X166054068Y214598866D01*
X166102957Y214529045D01*
X166103593Y214528138D01*
X166260781Y214370950D01*
X166260784Y214370947D01*
X166260785Y214370947D01*
X166261250Y214370620D01*
X166261407Y214370424D01*
X166264930Y214367469D01*
X166264335Y214366760D01*
X166304873Y214316046D01*
X166312065Y214246547D01*
X166280542Y214184193D01*
X166220312Y214148780D01*
X166190124Y214145049D01*
X165328080Y214145049D01*
X165261041Y214164734D01*
X165215286Y214217538D01*
X165205342Y214286696D01*
X165214524Y214318859D01*
X165254154Y214409206D01*
X165315178Y214650185D01*
X165315180Y214650194D01*
X165335707Y214897918D01*
X165335707Y214897929D01*
X165315180Y215145653D01*
X165315178Y215145662D01*
X165254153Y215386641D01*
X165154297Y215614293D01*
X165054000Y215767806D01*
X164354353Y215068159D01*
X164343084Y215110216D01*
X164270676Y215235632D01*
X164168274Y215338034D01*
X164042858Y215410442D01*
X164000800Y215421711D01*
X164700622Y216121533D01*
X164653797Y216157979D01*
X164653794Y216157981D01*
X164435180Y216276288D01*
X164435169Y216276293D01*
X164200059Y216357007D01*
X163954859Y216397924D01*
X163706273Y216397924D01*
X163461072Y216357007D01*
X163225962Y216276293D01*
X163225951Y216276288D01*
X163007336Y216157980D01*
X163007334Y216157979D01*
X162960508Y216121533D01*
X163660331Y215421711D01*
X163618274Y215410442D01*
X163492858Y215338034D01*
X163390456Y215235632D01*
X163318048Y215110216D01*
X163306778Y215068157D01*
X162607130Y215767806D01*
X162506832Y215614288D01*
X162406977Y215386639D01*
X162406974Y215386631D01*
X162384944Y215299638D01*
X162349404Y215239482D01*
X162286984Y215208091D01*
X162217501Y215215429D01*
X162177064Y215242393D01*
X160878474Y216540984D01*
X160777002Y216627649D01*
X160582535Y216743838D01*
X160370445Y216823437D01*
X160325866Y216831526D01*
X160147556Y216863886D01*
X160147552Y216863886D01*
X159921017Y216863886D01*
X159920711Y216863886D01*
X159853672Y216883571D01*
X159807917Y216936375D01*
X159797973Y217005533D01*
X159826998Y217069089D01*
X159844615Y217085791D01*
X160133666Y217310454D01*
X160198677Y217336053D01*
X160209762Y217336549D01*
X172945941Y217336549D01*
X173012980Y217316864D01*
G37*
G04 #@! TD.AperFunction*
G04 #@! TA.AperFunction,Conductor*
G36*
X186723055Y216633269D02*
G01*
X186768810Y216580465D01*
X186778754Y216511307D01*
X186749729Y216447751D01*
X186727139Y216427379D01*
X186580783Y216324900D01*
X186423589Y216167706D01*
X186296080Y215985604D01*
X186296078Y215985600D01*
X186208616Y215798037D01*
X186202126Y215784120D01*
X186201305Y215781057D01*
X186144588Y215569388D01*
X186144587Y215569381D01*
X186125213Y215347926D01*
X186125213Y215347921D01*
X186144587Y215126466D01*
X186144588Y215126458D01*
X186202124Y214911732D01*
X186202127Y214911726D01*
X186296078Y214710246D01*
X186296082Y214710240D01*
X186345582Y214639548D01*
X186367910Y214573342D01*
X186350900Y214505575D01*
X186299953Y214457761D01*
X186244008Y214444424D01*
X185742388Y214444424D01*
X185675349Y214464109D01*
X185629594Y214516913D01*
X185619650Y214586071D01*
X185622183Y214598866D01*
X185635177Y214650177D01*
X185635180Y214650194D01*
X185655707Y214897918D01*
X185655707Y214897929D01*
X185635180Y215145653D01*
X185635178Y215145662D01*
X185574153Y215386641D01*
X185474297Y215614293D01*
X185374000Y215767806D01*
X184674353Y215068159D01*
X184663084Y215110216D01*
X184590676Y215235632D01*
X184488274Y215338034D01*
X184362858Y215410442D01*
X184320800Y215421711D01*
X185020622Y216121533D01*
X184973797Y216157979D01*
X184973794Y216157981D01*
X184755180Y216276288D01*
X184755169Y216276293D01*
X184520059Y216357007D01*
X184274859Y216397924D01*
X184026273Y216397924D01*
X183781072Y216357007D01*
X183545962Y216276293D01*
X183545951Y216276288D01*
X183327336Y216157980D01*
X183327334Y216157979D01*
X183280508Y216121533D01*
X183980331Y215421711D01*
X183938274Y215410442D01*
X183812858Y215338034D01*
X183710456Y215235632D01*
X183638048Y215110216D01*
X183626778Y215068157D01*
X182927130Y215767806D01*
X182826832Y215614288D01*
X182786753Y215522916D01*
X182741797Y215469430D01*
X182675061Y215448740D01*
X182607734Y215467414D01*
X182585519Y215485041D01*
X182500690Y215569871D01*
X182396932Y215639200D01*
X182281642Y215686955D01*
X182159253Y215711299D01*
X182159252Y215711300D01*
X182159251Y215711300D01*
X182146177Y215711300D01*
X182079138Y215730985D01*
X182033383Y215783789D01*
X182022856Y215848260D01*
X182024253Y215861549D01*
X182004291Y216051477D01*
X181945276Y216233105D01*
X181849789Y216398493D01*
X181807030Y216445982D01*
X181776800Y216508974D01*
X181785426Y216578309D01*
X181830167Y216631974D01*
X181896820Y216652932D01*
X181899180Y216652954D01*
X186656016Y216652954D01*
X186723055Y216633269D01*
G37*
G04 #@! TD.AperFunction*
G04 #@! TA.AperFunction,Conductor*
G36*
X191987384Y216633269D02*
G01*
X192033139Y216580465D01*
X192043083Y216511307D01*
X192040588Y216498662D01*
X191995157Y216318363D01*
X191995157Y216318362D01*
X191984687Y216185335D01*
X191984687Y215893851D01*
X191965002Y215826812D01*
X191912198Y215781057D01*
X191882358Y215776164D01*
X191174353Y215068159D01*
X191163084Y215110216D01*
X191090676Y215235632D01*
X190988274Y215338034D01*
X190862858Y215410442D01*
X190820800Y215421711D01*
X191520622Y216121533D01*
X191473797Y216157979D01*
X191473794Y216157981D01*
X191255180Y216276288D01*
X191255169Y216276293D01*
X191020059Y216357007D01*
X190774859Y216397924D01*
X190526273Y216397924D01*
X190281072Y216357007D01*
X190045962Y216276293D01*
X190045951Y216276288D01*
X189827336Y216157980D01*
X189827334Y216157979D01*
X189780508Y216121533D01*
X190480331Y215421711D01*
X190438274Y215410442D01*
X190312858Y215338034D01*
X190210456Y215235632D01*
X190138048Y215110216D01*
X190126778Y215068157D01*
X189427130Y215767806D01*
X189326832Y215614288D01*
X189226978Y215386641D01*
X189165953Y215145662D01*
X189165951Y215145653D01*
X189145425Y214897929D01*
X189145425Y214897918D01*
X189165951Y214650194D01*
X189165954Y214650177D01*
X189178949Y214598866D01*
X189176325Y214529045D01*
X189136370Y214471727D01*
X189071769Y214445110D01*
X189058744Y214444424D01*
X188557124Y214444424D01*
X188490085Y214464109D01*
X188444330Y214516913D01*
X188434386Y214586071D01*
X188455550Y214639548D01*
X188505049Y214710240D01*
X188505053Y214710246D01*
X188505054Y214710247D01*
X188599006Y214911728D01*
X188656544Y215126461D01*
X188675919Y215347924D01*
X188675672Y215350742D01*
X188667510Y215444045D01*
X188656544Y215569387D01*
X188599006Y215784120D01*
X188505054Y215985600D01*
X188377543Y216167705D01*
X188220347Y216324901D01*
X188073992Y216427380D01*
X188030368Y216481957D01*
X188023176Y216551455D01*
X188054698Y216613810D01*
X188114928Y216649223D01*
X188145117Y216652954D01*
X191920345Y216652954D01*
X191987384Y216633269D01*
G37*
G04 #@! TD.AperFunction*
M02*
