%TF.GenerationSoftware,KiCad,Pcbnew,8.0.6*%
%TF.CreationDate,2024-11-16T23:29:23-05:00*%
%TF.ProjectId,DDI-parent,4444492d-7061-4726-956e-742e6b696361,rev?*%
%TF.SameCoordinates,Original*%
%TF.FileFunction,Drillmap*%
%TF.FilePolarity,Positive*%
%FSLAX45Y45*%
G04 Gerber Fmt 4.5, Leading zero omitted, Abs format (unit mm)*
G04 Created by KiCad (PCBNEW 8.0.6) date 2024-11-16 23:29:23*
%MOMM*%
%LPD*%
G01*
G04 APERTURE LIST*
%ADD10C,0.100000*%
%ADD11C,0.200000*%
G04 APERTURE END LIST*
D10*
X16011075Y21883655D02*
X25511075Y21883655D01*
X25511075Y20633655D01*
X16011075Y20633655D01*
X16011075Y21883655D01*
D11*
X16266852Y20317171D02*
X16266852Y20517171D01*
X16266852Y20517171D02*
X16314471Y20517171D01*
X16314471Y20517171D02*
X16343042Y20507647D01*
X16343042Y20507647D02*
X16362090Y20488600D01*
X16362090Y20488600D02*
X16371614Y20469552D01*
X16371614Y20469552D02*
X16381137Y20431457D01*
X16381137Y20431457D02*
X16381137Y20402885D01*
X16381137Y20402885D02*
X16371614Y20364790D01*
X16371614Y20364790D02*
X16362090Y20345743D01*
X16362090Y20345743D02*
X16343042Y20326695D01*
X16343042Y20326695D02*
X16314471Y20317171D01*
X16314471Y20317171D02*
X16266852Y20317171D01*
X16466852Y20317171D02*
X16466852Y20450504D01*
X16466852Y20412409D02*
X16476375Y20431457D01*
X16476375Y20431457D02*
X16485899Y20440981D01*
X16485899Y20440981D02*
X16504947Y20450504D01*
X16504947Y20450504D02*
X16523995Y20450504D01*
X16590661Y20317171D02*
X16590661Y20450504D01*
X16590661Y20517171D02*
X16581137Y20507647D01*
X16581137Y20507647D02*
X16590661Y20498123D01*
X16590661Y20498123D02*
X16600185Y20507647D01*
X16600185Y20507647D02*
X16590661Y20517171D01*
X16590661Y20517171D02*
X16590661Y20498123D01*
X16714471Y20317171D02*
X16695423Y20326695D01*
X16695423Y20326695D02*
X16685899Y20345743D01*
X16685899Y20345743D02*
X16685899Y20517171D01*
X16819233Y20317171D02*
X16800185Y20326695D01*
X16800185Y20326695D02*
X16790661Y20345743D01*
X16790661Y20345743D02*
X16790661Y20517171D01*
X17047804Y20317171D02*
X17047804Y20517171D01*
X17047804Y20517171D02*
X17114471Y20374314D01*
X17114471Y20374314D02*
X17181137Y20517171D01*
X17181137Y20517171D02*
X17181137Y20317171D01*
X17362090Y20317171D02*
X17362090Y20421933D01*
X17362090Y20421933D02*
X17352566Y20440981D01*
X17352566Y20440981D02*
X17333518Y20450504D01*
X17333518Y20450504D02*
X17295423Y20450504D01*
X17295423Y20450504D02*
X17276376Y20440981D01*
X17362090Y20326695D02*
X17343042Y20317171D01*
X17343042Y20317171D02*
X17295423Y20317171D01*
X17295423Y20317171D02*
X17276376Y20326695D01*
X17276376Y20326695D02*
X17266852Y20345743D01*
X17266852Y20345743D02*
X17266852Y20364790D01*
X17266852Y20364790D02*
X17276376Y20383838D01*
X17276376Y20383838D02*
X17295423Y20393362D01*
X17295423Y20393362D02*
X17343042Y20393362D01*
X17343042Y20393362D02*
X17362090Y20402885D01*
X17457328Y20450504D02*
X17457328Y20250504D01*
X17457328Y20440981D02*
X17476376Y20450504D01*
X17476376Y20450504D02*
X17514471Y20450504D01*
X17514471Y20450504D02*
X17533518Y20440981D01*
X17533518Y20440981D02*
X17543042Y20431457D01*
X17543042Y20431457D02*
X17552566Y20412409D01*
X17552566Y20412409D02*
X17552566Y20355266D01*
X17552566Y20355266D02*
X17543042Y20336219D01*
X17543042Y20336219D02*
X17533518Y20326695D01*
X17533518Y20326695D02*
X17514471Y20317171D01*
X17514471Y20317171D02*
X17476376Y20317171D01*
X17476376Y20317171D02*
X17457328Y20326695D01*
X17638280Y20336219D02*
X17647804Y20326695D01*
X17647804Y20326695D02*
X17638280Y20317171D01*
X17638280Y20317171D02*
X17628757Y20326695D01*
X17628757Y20326695D02*
X17638280Y20336219D01*
X17638280Y20336219D02*
X17638280Y20317171D01*
X17638280Y20440981D02*
X17647804Y20431457D01*
X17647804Y20431457D02*
X17638280Y20421933D01*
X17638280Y20421933D02*
X17628757Y20431457D01*
X17628757Y20431457D02*
X17638280Y20440981D01*
X17638280Y20440981D02*
X17638280Y20421933D01*
M02*
