G04 #@! TF.GenerationSoftware,KiCad,Pcbnew,8.0.6*
G04 #@! TF.CreationDate,2024-11-27T23:04:23-05:00*
G04 #@! TF.ProjectId,DDI-parent,4444492d-7061-4726-956e-742e6b696361,rev?*
G04 #@! TF.SameCoordinates,Original*
G04 #@! TF.FileFunction,Soldermask,Bot*
G04 #@! TF.FilePolarity,Negative*
%FSLAX46Y46*%
G04 Gerber Fmt 4.6, Leading zero omitted, Abs format (unit mm)*
G04 Created by KiCad (PCBNEW 8.0.6) date 2024-11-27 23:04:23*
%MOMM*%
%LPD*%
G01*
G04 APERTURE LIST*
G04 APERTURE END LIST*
G36*
X217967596Y209739881D02*
G01*
X218041296Y209739881D01*
X218108475Y209730647D01*
X218175171Y209726276D01*
X218253195Y209710756D01*
X218332005Y209699924D01*
X218391603Y209683225D01*
X218450978Y209671415D01*
X218532400Y209643775D01*
X218614566Y209620754D01*
X218665876Y209598466D01*
X218717258Y209581025D01*
X218800209Y209540117D01*
X218883715Y209503846D01*
X218926415Y209477879D01*
X218969468Y209456648D01*
X219051871Y209401587D01*
X219134438Y209351378D01*
X219168549Y209323626D01*
X219203271Y209300426D01*
X219282879Y209230611D01*
X219362064Y209166190D01*
X219387977Y209138443D01*
X219414695Y209115013D01*
X219489133Y209030131D01*
X219562354Y208951732D01*
X219580778Y208925630D01*
X219600104Y208903594D01*
X219666920Y208803594D01*
X219731577Y208711998D01*
X219743505Y208688976D01*
X219756333Y208669779D01*
X219813129Y208554608D01*
X219866579Y208451455D01*
X219873234Y208432729D01*
X219880707Y208417576D01*
X219925141Y208286675D01*
X219964847Y208174956D01*
X219967658Y208161424D01*
X219971097Y208151296D01*
X220000921Y208001356D01*
X220024550Y207887651D01*
X220025079Y207879903D01*
X220025958Y207875489D01*
X220039167Y207673953D01*
X220044575Y207594893D01*
X220039167Y207515839D01*
X220025958Y207314296D01*
X220025079Y207309881D01*
X220024550Y207302135D01*
X220000926Y207188451D01*
X219971097Y207038489D01*
X219967658Y207028359D01*
X219964847Y207014830D01*
X219925149Y206903132D01*
X219880707Y206772209D01*
X219873232Y206757052D01*
X219866579Y206738331D01*
X219813144Y206635207D01*
X219756330Y206519999D01*
X219743497Y206500794D01*
X219731577Y206477788D01*
X219666953Y206386238D01*
X219600108Y206286196D01*
X219580775Y206264151D01*
X219562354Y206238054D01*
X219489145Y206159666D01*
X219414695Y206074772D01*
X219387972Y206051336D01*
X219362064Y206023596D01*
X219282895Y205959187D01*
X219203271Y205889359D01*
X219168542Y205866154D01*
X219134438Y205838408D01*
X219051888Y205788208D01*
X218969468Y205733137D01*
X218926406Y205711901D01*
X218883715Y205685940D01*
X218800226Y205649675D01*
X218717258Y205608760D01*
X218665865Y205591314D01*
X218614566Y205569032D01*
X218532417Y205546015D01*
X218450978Y205518370D01*
X218391591Y205506557D01*
X218332005Y205489862D01*
X218253211Y205479032D01*
X218175171Y205463509D01*
X218108461Y205459136D01*
X218041296Y205449905D01*
X217967611Y205449905D01*
X217894575Y205445118D01*
X217821538Y205449905D01*
X217747854Y205449905D01*
X217680689Y205459136D01*
X217613978Y205463509D01*
X217535935Y205479032D01*
X217457145Y205489862D01*
X217397560Y205506556D01*
X217338171Y205518370D01*
X217256726Y205546016D01*
X217174584Y205569032D01*
X217123287Y205591313D01*
X217071891Y205608760D01*
X216988915Y205649679D01*
X216905435Y205685940D01*
X216862747Y205711898D01*
X216819681Y205733137D01*
X216737250Y205788215D01*
X216654712Y205838408D01*
X216620611Y205866150D01*
X216585878Y205889359D01*
X216506240Y205959198D01*
X216427086Y206023596D01*
X216401182Y206051331D01*
X216374454Y206074772D01*
X216299988Y206159684D01*
X216226796Y206238054D01*
X216208378Y206264146D01*
X216189041Y206286196D01*
X216122177Y206386264D01*
X216057573Y206477788D01*
X216045655Y206500787D01*
X216032819Y206519999D01*
X215975984Y206635247D01*
X215922571Y206738331D01*
X215915919Y206757045D01*
X215908442Y206772209D01*
X215863978Y206903194D01*
X215824303Y207014830D01*
X215821493Y207028351D01*
X215818052Y207038489D01*
X215788200Y207188564D01*
X215764600Y207302135D01*
X215764070Y207309873D01*
X215763191Y207314296D01*
X215749958Y207516188D01*
X215744575Y207594893D01*
X215749958Y207673603D01*
X215763191Y207875489D01*
X215764070Y207879910D01*
X215764600Y207887651D01*
X215788205Y208001244D01*
X215818052Y208151296D01*
X215821492Y208161431D01*
X215824303Y208174956D01*
X215863985Y208286612D01*
X215908442Y208417576D01*
X215915918Y208432736D01*
X215922571Y208451455D01*
X215975999Y208554568D01*
X216032816Y208669779D01*
X216045647Y208688983D01*
X216057573Y208711998D01*
X216122210Y208803568D01*
X216189045Y208903594D01*
X216208375Y208925636D01*
X216226796Y208951732D01*
X216300000Y209030114D01*
X216374454Y209115013D01*
X216401177Y209138448D01*
X216427086Y209166190D01*
X216506252Y209230597D01*
X216585873Y209300422D01*
X216620599Y209323625D01*
X216654712Y209351378D01*
X216737289Y209401594D01*
X216819688Y209456651D01*
X216862735Y209477879D01*
X216905435Y209503846D01*
X216988934Y209540115D01*
X217071891Y209581025D01*
X217123277Y209598468D01*
X217174584Y209620754D01*
X217256743Y209643774D01*
X217338171Y209671415D01*
X217397548Y209683225D01*
X217457145Y209699924D01*
X217535951Y209710755D01*
X217613978Y209726276D01*
X217680675Y209730647D01*
X217747854Y209739881D01*
X217821554Y209739881D01*
X217894575Y209744667D01*
X217967596Y209739881D01*
G37*
G36*
X200544856Y210905897D02*
G01*
X200636897Y210899656D01*
X200658480Y210894288D01*
X200689484Y210891121D01*
X200744430Y210872914D01*
X200796239Y210860030D01*
X200822262Y210847123D01*
X200854785Y210836347D01*
X200899078Y210809026D01*
X200941412Y210788031D01*
X200968770Y210766039D01*
X201002998Y210744928D01*
X201035625Y210712300D01*
X201067713Y210686508D01*
X201093505Y210654420D01*
X201126133Y210621793D01*
X201147244Y210587565D01*
X201169236Y210560207D01*
X201190231Y210517873D01*
X201217552Y210473580D01*
X201228328Y210441057D01*
X201241235Y210415034D01*
X201254119Y210363225D01*
X201272326Y210308279D01*
X201275493Y210277275D01*
X201280861Y210255692D01*
X201287102Y210163651D01*
X201287821Y210156616D01*
X201287821Y207656616D01*
X201287102Y207649582D01*
X201280861Y207557539D01*
X201275493Y207535955D01*
X201272326Y207504953D01*
X201254120Y207450009D01*
X201241235Y207398197D01*
X201228327Y207372171D01*
X201217552Y207339652D01*
X201190234Y207295362D01*
X201169236Y207253024D01*
X201147242Y207225662D01*
X201126133Y207191439D01*
X201093509Y207158815D01*
X201067713Y207126723D01*
X201035620Y207100926D01*
X201002998Y207068304D01*
X200968775Y207047195D01*
X200941412Y207025200D01*
X200899070Y207004200D01*
X200854785Y206976885D01*
X200822268Y206966110D01*
X200796239Y206953201D01*
X200744417Y206940313D01*
X200689484Y206922111D01*
X200658487Y206918944D01*
X200636897Y206913575D01*
X200544827Y206907331D01*
X200537821Y206906616D01*
X200534271Y206906616D01*
X199041370Y206906616D01*
X199037821Y206906616D01*
X199030816Y206907331D01*
X198938744Y206913575D01*
X198917153Y206918944D01*
X198886158Y206922111D01*
X198831227Y206940312D01*
X198779402Y206953201D01*
X198753370Y206966111D01*
X198720857Y206976885D01*
X198676576Y207004197D01*
X198634229Y207025200D01*
X198606862Y207047197D01*
X198572644Y207068304D01*
X198540025Y207100922D01*
X198507928Y207126723D01*
X198482127Y207158820D01*
X198449509Y207191439D01*
X198428402Y207225657D01*
X198406405Y207253024D01*
X198385402Y207295371D01*
X198358090Y207339652D01*
X198347316Y207372165D01*
X198334406Y207398197D01*
X198321517Y207450022D01*
X198303316Y207504953D01*
X198300149Y207535948D01*
X198294780Y207557539D01*
X198288536Y207649611D01*
X198287821Y207656616D01*
X198287821Y210156616D01*
X198288536Y210163622D01*
X198294780Y210255692D01*
X198300149Y210277282D01*
X198303316Y210308279D01*
X198321518Y210363212D01*
X198334406Y210415034D01*
X198347315Y210441063D01*
X198358090Y210473580D01*
X198385405Y210517865D01*
X198406405Y210560207D01*
X198428400Y210587570D01*
X198449509Y210621793D01*
X198482131Y210654415D01*
X198507928Y210686508D01*
X198540020Y210712304D01*
X198572644Y210744928D01*
X198606867Y210766037D01*
X198634229Y210788031D01*
X198676567Y210809029D01*
X198720857Y210836347D01*
X198753376Y210847122D01*
X198779402Y210860030D01*
X198831214Y210872915D01*
X198886158Y210891121D01*
X198917160Y210894288D01*
X198938744Y210899656D01*
X199030787Y210905897D01*
X199037821Y210906616D01*
X200537821Y210906616D01*
X200544856Y210905897D01*
G37*
G36*
X236262630Y210919390D02*
G01*
X236354671Y210913149D01*
X236376254Y210907781D01*
X236407258Y210904614D01*
X236462204Y210886407D01*
X236514013Y210873523D01*
X236540036Y210860616D01*
X236572559Y210849840D01*
X236616852Y210822519D01*
X236659186Y210801524D01*
X236686544Y210779532D01*
X236720772Y210758421D01*
X236753399Y210725793D01*
X236785487Y210700001D01*
X236811279Y210667913D01*
X236843907Y210635286D01*
X236865018Y210601058D01*
X236887010Y210573700D01*
X236908005Y210531366D01*
X236935326Y210487073D01*
X236946102Y210454550D01*
X236959009Y210428527D01*
X236971893Y210376718D01*
X236990100Y210321772D01*
X236993267Y210290768D01*
X236998635Y210269185D01*
X237004876Y210177144D01*
X237005595Y210170109D01*
X237005595Y207670109D01*
X237004876Y207663075D01*
X236998635Y207571032D01*
X236993267Y207549448D01*
X236990100Y207518446D01*
X236971894Y207463502D01*
X236959009Y207411690D01*
X236946101Y207385664D01*
X236935326Y207353145D01*
X236908008Y207308855D01*
X236887010Y207266517D01*
X236865016Y207239155D01*
X236843907Y207204932D01*
X236811283Y207172308D01*
X236785487Y207140216D01*
X236753394Y207114419D01*
X236720772Y207081797D01*
X236686549Y207060688D01*
X236659186Y207038693D01*
X236616844Y207017693D01*
X236572559Y206990378D01*
X236540042Y206979603D01*
X236514013Y206966694D01*
X236462191Y206953806D01*
X236407258Y206935604D01*
X236376261Y206932437D01*
X236354671Y206927068D01*
X236262601Y206920824D01*
X236255595Y206920109D01*
X236252045Y206920109D01*
X234759144Y206920109D01*
X234755595Y206920109D01*
X234748590Y206920824D01*
X234656518Y206927068D01*
X234634927Y206932437D01*
X234603932Y206935604D01*
X234549001Y206953805D01*
X234497176Y206966694D01*
X234471144Y206979604D01*
X234438631Y206990378D01*
X234394350Y207017690D01*
X234352003Y207038693D01*
X234324636Y207060690D01*
X234290418Y207081797D01*
X234257799Y207114415D01*
X234225702Y207140216D01*
X234199901Y207172313D01*
X234167283Y207204932D01*
X234146176Y207239150D01*
X234124179Y207266517D01*
X234103176Y207308864D01*
X234075864Y207353145D01*
X234065090Y207385658D01*
X234052180Y207411690D01*
X234039291Y207463515D01*
X234021090Y207518446D01*
X234017923Y207549441D01*
X234012554Y207571032D01*
X234006310Y207663104D01*
X234005595Y207670109D01*
X234005595Y210170109D01*
X234006310Y210177115D01*
X234012554Y210269185D01*
X234017923Y210290775D01*
X234021090Y210321772D01*
X234039292Y210376705D01*
X234052180Y210428527D01*
X234065089Y210454556D01*
X234075864Y210487073D01*
X234103179Y210531358D01*
X234124179Y210573700D01*
X234146174Y210601063D01*
X234167283Y210635286D01*
X234199905Y210667908D01*
X234225702Y210700001D01*
X234257794Y210725797D01*
X234290418Y210758421D01*
X234324641Y210779530D01*
X234352003Y210801524D01*
X234394341Y210822522D01*
X234438631Y210849840D01*
X234471150Y210860615D01*
X234497176Y210873523D01*
X234548988Y210886408D01*
X234603932Y210904614D01*
X234634934Y210907781D01*
X234656518Y210913149D01*
X234748561Y210919390D01*
X234755595Y210920109D01*
X236255595Y210920109D01*
X236262630Y210919390D01*
G37*
G36*
X158065113Y209922314D02*
G01*
X158157154Y209916073D01*
X158178737Y209910705D01*
X158209741Y209907538D01*
X158264687Y209889331D01*
X158316496Y209876447D01*
X158342519Y209863540D01*
X158375042Y209852764D01*
X158419335Y209825443D01*
X158461669Y209804448D01*
X158489027Y209782456D01*
X158523255Y209761345D01*
X158555882Y209728717D01*
X158587970Y209702925D01*
X158613762Y209670837D01*
X158646390Y209638210D01*
X158667501Y209603982D01*
X158689493Y209576624D01*
X158710488Y209534290D01*
X158737809Y209489997D01*
X158748585Y209457474D01*
X158761492Y209431451D01*
X158774376Y209379642D01*
X158792583Y209324696D01*
X158795750Y209293692D01*
X158801118Y209272109D01*
X158807359Y209180068D01*
X158808078Y209173033D01*
X158808078Y207673033D01*
X158807359Y207665999D01*
X158801118Y207573956D01*
X158795750Y207552372D01*
X158792583Y207521370D01*
X158774377Y207466426D01*
X158761492Y207414614D01*
X158748584Y207388588D01*
X158737809Y207356069D01*
X158710491Y207311779D01*
X158689493Y207269441D01*
X158667499Y207242079D01*
X158646390Y207207856D01*
X158613766Y207175232D01*
X158587970Y207143140D01*
X158555877Y207117343D01*
X158523255Y207084721D01*
X158489032Y207063612D01*
X158461669Y207041617D01*
X158419327Y207020617D01*
X158375042Y206993302D01*
X158342525Y206982527D01*
X158316496Y206969618D01*
X158264674Y206956730D01*
X158209741Y206938528D01*
X158178744Y206935361D01*
X158157154Y206929992D01*
X158065084Y206923748D01*
X158058078Y206923033D01*
X158054528Y206923033D01*
X155561627Y206923033D01*
X155558078Y206923033D01*
X155551073Y206923748D01*
X155459001Y206929992D01*
X155437410Y206935361D01*
X155406415Y206938528D01*
X155351484Y206956729D01*
X155299659Y206969618D01*
X155273627Y206982528D01*
X155241114Y206993302D01*
X155196833Y207020614D01*
X155154486Y207041617D01*
X155127119Y207063614D01*
X155092901Y207084721D01*
X155060282Y207117339D01*
X155028185Y207143140D01*
X155002384Y207175237D01*
X154969766Y207207856D01*
X154948659Y207242074D01*
X154926662Y207269441D01*
X154905659Y207311788D01*
X154878347Y207356069D01*
X154867573Y207388582D01*
X154854663Y207414614D01*
X154841774Y207466439D01*
X154823573Y207521370D01*
X154820406Y207552365D01*
X154815037Y207573956D01*
X154808793Y207666028D01*
X154808078Y207673033D01*
X154808078Y209173033D01*
X154808793Y209180039D01*
X154815037Y209272109D01*
X154820406Y209293699D01*
X154823573Y209324696D01*
X154841775Y209379629D01*
X154854663Y209431451D01*
X154867572Y209457480D01*
X154878347Y209489997D01*
X154905662Y209534282D01*
X154926662Y209576624D01*
X154948657Y209603987D01*
X154969766Y209638210D01*
X155002388Y209670832D01*
X155028185Y209702925D01*
X155060277Y209728721D01*
X155092901Y209761345D01*
X155127124Y209782454D01*
X155154486Y209804448D01*
X155196824Y209825446D01*
X155241114Y209852764D01*
X155273633Y209863539D01*
X155299659Y209876447D01*
X155351471Y209889332D01*
X155406415Y209907538D01*
X155437417Y209910705D01*
X155459001Y209916073D01*
X155551044Y209922314D01*
X155558078Y209923033D01*
X158058078Y209923033D01*
X158065113Y209922314D01*
G37*
G36*
X241337047Y210944511D02*
G01*
X241429088Y210938270D01*
X241450671Y210932902D01*
X241481675Y210929735D01*
X241536621Y210911528D01*
X241588430Y210898644D01*
X241614453Y210885737D01*
X241646976Y210874961D01*
X241691269Y210847640D01*
X241733603Y210826645D01*
X241760961Y210804653D01*
X241795189Y210783542D01*
X241827816Y210750914D01*
X241859904Y210725122D01*
X241885696Y210693034D01*
X241918324Y210660407D01*
X241939435Y210626179D01*
X241961427Y210598821D01*
X241982422Y210556487D01*
X242009743Y210512194D01*
X242020519Y210479671D01*
X242033426Y210453648D01*
X242046310Y210401839D01*
X242064517Y210346893D01*
X242067684Y210315889D01*
X242073052Y210294306D01*
X242079293Y210202265D01*
X242080012Y210195230D01*
X242080012Y207695230D01*
X242079293Y207688196D01*
X242073052Y207596153D01*
X242067684Y207574569D01*
X242064517Y207543567D01*
X242046311Y207488623D01*
X242033426Y207436811D01*
X242020518Y207410785D01*
X242009743Y207378266D01*
X241982425Y207333976D01*
X241961427Y207291638D01*
X241939433Y207264276D01*
X241918324Y207230053D01*
X241885700Y207197429D01*
X241859904Y207165337D01*
X241827811Y207139540D01*
X241795189Y207106918D01*
X241760966Y207085809D01*
X241733603Y207063814D01*
X241691261Y207042814D01*
X241646976Y207015499D01*
X241614459Y207004724D01*
X241588430Y206991815D01*
X241536608Y206978927D01*
X241481675Y206960725D01*
X241450678Y206957558D01*
X241429088Y206952189D01*
X241337018Y206945945D01*
X241330012Y206945230D01*
X241326462Y206945230D01*
X239833561Y206945230D01*
X239830012Y206945230D01*
X239823007Y206945945D01*
X239730935Y206952189D01*
X239709344Y206957558D01*
X239678349Y206960725D01*
X239623418Y206978926D01*
X239571593Y206991815D01*
X239545561Y207004725D01*
X239513048Y207015499D01*
X239468767Y207042811D01*
X239426420Y207063814D01*
X239399053Y207085811D01*
X239364835Y207106918D01*
X239332216Y207139536D01*
X239300119Y207165337D01*
X239274318Y207197434D01*
X239241700Y207230053D01*
X239220593Y207264271D01*
X239198596Y207291638D01*
X239177593Y207333985D01*
X239150281Y207378266D01*
X239139507Y207410779D01*
X239126597Y207436811D01*
X239113708Y207488636D01*
X239095507Y207543567D01*
X239092340Y207574562D01*
X239086971Y207596153D01*
X239080727Y207688225D01*
X239080012Y207695230D01*
X239080012Y210195230D01*
X239080727Y210202236D01*
X239086971Y210294306D01*
X239092340Y210315896D01*
X239095507Y210346893D01*
X239113709Y210401826D01*
X239126597Y210453648D01*
X239139506Y210479677D01*
X239150281Y210512194D01*
X239177596Y210556479D01*
X239198596Y210598821D01*
X239220591Y210626184D01*
X239241700Y210660407D01*
X239274322Y210693029D01*
X239300119Y210725122D01*
X239332211Y210750918D01*
X239364835Y210783542D01*
X239399058Y210804651D01*
X239426420Y210826645D01*
X239468758Y210847643D01*
X239513048Y210874961D01*
X239545567Y210885736D01*
X239571593Y210898644D01*
X239623405Y210911529D01*
X239678349Y210929735D01*
X239709351Y210932902D01*
X239730935Y210938270D01*
X239822978Y210944511D01*
X239830012Y210945230D01*
X241330012Y210945230D01*
X241337047Y210944511D01*
G37*
G36*
X195952484Y210953209D02*
G01*
X196044525Y210946968D01*
X196066108Y210941600D01*
X196097112Y210938433D01*
X196152058Y210920226D01*
X196203867Y210907342D01*
X196229890Y210894435D01*
X196262413Y210883659D01*
X196306706Y210856338D01*
X196349040Y210835343D01*
X196376398Y210813351D01*
X196410626Y210792240D01*
X196443253Y210759612D01*
X196475341Y210733820D01*
X196501133Y210701732D01*
X196533761Y210669105D01*
X196554872Y210634877D01*
X196576864Y210607519D01*
X196597859Y210565185D01*
X196625180Y210520892D01*
X196635956Y210488369D01*
X196648863Y210462346D01*
X196661747Y210410537D01*
X196679954Y210355591D01*
X196683121Y210324587D01*
X196688489Y210303004D01*
X196694730Y210210963D01*
X196695449Y210203928D01*
X196695449Y207703928D01*
X196694730Y207696894D01*
X196688489Y207604851D01*
X196683121Y207583267D01*
X196679954Y207552265D01*
X196661748Y207497321D01*
X196648863Y207445509D01*
X196635955Y207419483D01*
X196625180Y207386964D01*
X196597862Y207342674D01*
X196576864Y207300336D01*
X196554870Y207272974D01*
X196533761Y207238751D01*
X196501137Y207206127D01*
X196475341Y207174035D01*
X196443248Y207148238D01*
X196410626Y207115616D01*
X196376403Y207094507D01*
X196349040Y207072512D01*
X196306698Y207051512D01*
X196262413Y207024197D01*
X196229896Y207013422D01*
X196203867Y207000513D01*
X196152045Y206987625D01*
X196097112Y206969423D01*
X196066115Y206966256D01*
X196044525Y206960887D01*
X195952455Y206954643D01*
X195945449Y206953928D01*
X195941899Y206953928D01*
X194448998Y206953928D01*
X194445449Y206953928D01*
X194438444Y206954643D01*
X194346372Y206960887D01*
X194324781Y206966256D01*
X194293786Y206969423D01*
X194238855Y206987624D01*
X194187030Y207000513D01*
X194160998Y207013423D01*
X194128485Y207024197D01*
X194084204Y207051509D01*
X194041857Y207072512D01*
X194014490Y207094509D01*
X193980272Y207115616D01*
X193947653Y207148234D01*
X193915556Y207174035D01*
X193889755Y207206132D01*
X193857137Y207238751D01*
X193836030Y207272969D01*
X193814033Y207300336D01*
X193793030Y207342683D01*
X193765718Y207386964D01*
X193754944Y207419477D01*
X193742034Y207445509D01*
X193729145Y207497334D01*
X193710944Y207552265D01*
X193707777Y207583260D01*
X193702408Y207604851D01*
X193696164Y207696923D01*
X193695449Y207703928D01*
X193695449Y210203928D01*
X193696164Y210210934D01*
X193702408Y210303004D01*
X193707777Y210324594D01*
X193710944Y210355591D01*
X193729146Y210410524D01*
X193742034Y210462346D01*
X193754943Y210488375D01*
X193765718Y210520892D01*
X193793033Y210565177D01*
X193814033Y210607519D01*
X193836028Y210634882D01*
X193857137Y210669105D01*
X193889759Y210701727D01*
X193915556Y210733820D01*
X193947648Y210759616D01*
X193980272Y210792240D01*
X194014495Y210813349D01*
X194041857Y210835343D01*
X194084195Y210856341D01*
X194128485Y210883659D01*
X194161004Y210894434D01*
X194187030Y210907342D01*
X194238842Y210920227D01*
X194293786Y210938433D01*
X194324788Y210941600D01*
X194346372Y210946968D01*
X194438415Y210953209D01*
X194445449Y210953928D01*
X195945449Y210953928D01*
X195952484Y210953209D01*
G37*
G36*
X173862982Y208714330D02*
G01*
X173864446Y208710794D01*
X173864446Y207210794D01*
X173862982Y207207258D01*
X173859446Y207205794D01*
X173851183Y207205794D01*
X173326076Y207205794D01*
X173309446Y207205794D01*
X173305910Y207207258D01*
X173304574Y207210482D01*
X173302048Y207210883D01*
X173238289Y207210883D01*
X173236880Y207211086D01*
X173229682Y207213199D01*
X173229678Y207213200D01*
X173107532Y207249066D01*
X173107531Y207249066D01*
X173100329Y207251181D01*
X173099035Y207251772D01*
X173092721Y207255829D01*
X173092718Y207255831D01*
X172985625Y207324655D01*
X172985618Y207324660D01*
X172979313Y207328713D01*
X172978237Y207329645D01*
X172955340Y207356069D01*
X172889958Y207431523D01*
X172889954Y207431528D01*
X172885040Y207437200D01*
X172884271Y207438397D01*
X172881154Y207445222D01*
X172881151Y207445227D01*
X172828269Y207561023D01*
X172828266Y207561030D01*
X172825152Y207567851D01*
X172824751Y207569216D01*
X172809734Y207673658D01*
X172805030Y207706372D01*
X172805029Y207706377D01*
X172804497Y207710082D01*
X172804446Y207710794D01*
X172804446Y208210794D01*
X172804497Y208211506D01*
X172824751Y208352372D01*
X172825152Y208353737D01*
X172828267Y208360559D01*
X172828269Y208360564D01*
X172881151Y208476360D01*
X172881152Y208476362D01*
X172884271Y208483191D01*
X172885040Y208484388D01*
X172978237Y208591943D01*
X172979313Y208592875D01*
X172985622Y208596930D01*
X172985625Y208596932D01*
X173092718Y208665756D01*
X173099035Y208669816D01*
X173100329Y208670407D01*
X173236880Y208710502D01*
X173238289Y208710705D01*
X173281442Y208710705D01*
X173289667Y208711352D01*
X173305730Y208713896D01*
X173305910Y208714330D01*
X173309446Y208715794D01*
X173859446Y208715794D01*
X173862982Y208714330D01*
G37*
G36*
X175912982Y208714330D02*
G01*
X175914317Y208711105D01*
X175916844Y208710705D01*
X175973094Y208710705D01*
X175980603Y208710705D01*
X175982012Y208710502D01*
X176118563Y208670407D01*
X176119857Y208669816D01*
X176239579Y208592875D01*
X176240655Y208591943D01*
X176333852Y208484388D01*
X176334621Y208483191D01*
X176393740Y208353737D01*
X176394141Y208352372D01*
X176414395Y208211506D01*
X176414446Y208210794D01*
X176414446Y207710794D01*
X176414395Y207710082D01*
X176394141Y207569216D01*
X176393740Y207567851D01*
X176334621Y207438397D01*
X176333852Y207437200D01*
X176240655Y207329645D01*
X176239579Y207328713D01*
X176233269Y207324658D01*
X176233266Y207324655D01*
X176142801Y207266517D01*
X176119857Y207251772D01*
X176118563Y207251181D01*
X176076230Y207238751D01*
X175989213Y207213200D01*
X175989210Y207213199D01*
X175982012Y207211086D01*
X175980603Y207210883D01*
X175973094Y207210883D01*
X175937450Y207210883D01*
X175929225Y207210236D01*
X175913161Y207207691D01*
X175912982Y207207258D01*
X175909446Y207205794D01*
X175901183Y207205794D01*
X175376076Y207205794D01*
X175359446Y207205794D01*
X175355910Y207207258D01*
X175354446Y207210794D01*
X175354446Y208710794D01*
X175355910Y208714330D01*
X175359446Y208715794D01*
X175909446Y208715794D01*
X175912982Y208714330D01*
G37*
G36*
X178845857Y208714330D02*
G01*
X178847321Y208710794D01*
X178847321Y207210794D01*
X178845857Y207207258D01*
X178842321Y207205794D01*
X178834058Y207205794D01*
X178308951Y207205794D01*
X178292321Y207205794D01*
X178288785Y207207258D01*
X178287449Y207210482D01*
X178284923Y207210883D01*
X178221164Y207210883D01*
X178219755Y207211086D01*
X178212557Y207213199D01*
X178212553Y207213200D01*
X178090407Y207249066D01*
X178090406Y207249066D01*
X178083204Y207251181D01*
X178081910Y207251772D01*
X178075596Y207255829D01*
X178075593Y207255831D01*
X177968500Y207324655D01*
X177968493Y207324660D01*
X177962188Y207328713D01*
X177961112Y207329645D01*
X177938215Y207356069D01*
X177872833Y207431523D01*
X177872829Y207431528D01*
X177867915Y207437200D01*
X177867146Y207438397D01*
X177864029Y207445222D01*
X177864026Y207445227D01*
X177811144Y207561023D01*
X177811141Y207561030D01*
X177808027Y207567851D01*
X177807626Y207569216D01*
X177792609Y207673658D01*
X177787905Y207706372D01*
X177787904Y207706377D01*
X177787372Y207710082D01*
X177787321Y207710794D01*
X177787321Y208210794D01*
X177787372Y208211506D01*
X177807626Y208352372D01*
X177808027Y208353737D01*
X177811142Y208360559D01*
X177811144Y208360564D01*
X177864026Y208476360D01*
X177864027Y208476362D01*
X177867146Y208483191D01*
X177867915Y208484388D01*
X177961112Y208591943D01*
X177962188Y208592875D01*
X177968497Y208596930D01*
X177968500Y208596932D01*
X178075593Y208665756D01*
X178081910Y208669816D01*
X178083204Y208670407D01*
X178219755Y208710502D01*
X178221164Y208710705D01*
X178264317Y208710705D01*
X178272542Y208711352D01*
X178288605Y208713896D01*
X178288785Y208714330D01*
X178292321Y208715794D01*
X178842321Y208715794D01*
X178845857Y208714330D01*
G37*
G36*
X180895857Y208714330D02*
G01*
X180897192Y208711105D01*
X180899719Y208710705D01*
X180955969Y208710705D01*
X180963478Y208710705D01*
X180964887Y208710502D01*
X181101438Y208670407D01*
X181102732Y208669816D01*
X181222454Y208592875D01*
X181223530Y208591943D01*
X181316727Y208484388D01*
X181317496Y208483191D01*
X181376615Y208353737D01*
X181377016Y208352372D01*
X181397270Y208211506D01*
X181397321Y208210794D01*
X181397321Y207710794D01*
X181397270Y207710082D01*
X181377016Y207569216D01*
X181376615Y207567851D01*
X181317496Y207438397D01*
X181316727Y207437200D01*
X181223530Y207329645D01*
X181222454Y207328713D01*
X181216144Y207324658D01*
X181216141Y207324655D01*
X181125676Y207266517D01*
X181102732Y207251772D01*
X181101438Y207251181D01*
X181059105Y207238751D01*
X180972088Y207213200D01*
X180972085Y207213199D01*
X180964887Y207211086D01*
X180963478Y207210883D01*
X180955969Y207210883D01*
X180920325Y207210883D01*
X180912100Y207210236D01*
X180896036Y207207691D01*
X180895857Y207207258D01*
X180892321Y207205794D01*
X180884058Y207205794D01*
X180358951Y207205794D01*
X180342321Y207205794D01*
X180338785Y207207258D01*
X180337321Y207210794D01*
X180337321Y208710794D01*
X180338785Y208714330D01*
X180342321Y208715794D01*
X180892321Y208715794D01*
X180895857Y208714330D01*
G37*
G36*
X175109446Y207210794D02*
G01*
X175099102Y207210794D01*
X174119787Y207210794D01*
X174109446Y207210794D01*
X174109446Y208710794D01*
X175109446Y208710794D01*
X175109446Y207210794D01*
G37*
G36*
X180092321Y207210794D02*
G01*
X180081977Y207210794D01*
X179102662Y207210794D01*
X179092321Y207210794D01*
X179092321Y208710794D01*
X180092321Y208710794D01*
X180092321Y207210794D01*
G37*
G36*
X167122723Y210705174D02*
G01*
X167160155Y210705174D01*
X167202377Y210696199D01*
X167250127Y210690819D01*
X167284851Y210678668D01*
X167315860Y210672077D01*
X167360549Y210652180D01*
X167411185Y210634462D01*
X167437539Y210617902D01*
X167461275Y210607335D01*
X167505532Y210575179D01*
X167555665Y210543680D01*
X167573668Y210525676D01*
X167590055Y210513771D01*
X167630565Y210468779D01*
X167676322Y210423023D01*
X167686846Y210406272D01*
X167696570Y210395474D01*
X167729836Y210337854D01*
X167767104Y210278543D01*
X167771757Y210265245D01*
X167776159Y210257621D01*
X167798698Y210188252D01*
X167823461Y210117485D01*
X167824400Y210109150D01*
X167825348Y210106233D01*
X167833946Y210024422D01*
X167842566Y209947924D01*
X167833947Y209871431D01*
X167825348Y209789614D01*
X167824399Y209786696D01*
X167823461Y209778363D01*
X167798702Y209707608D01*
X167776159Y209638226D01*
X167771756Y209630599D01*
X167767104Y209617305D01*
X167729843Y209558004D01*
X167696570Y209500373D01*
X167686844Y209489571D01*
X167676322Y209472825D01*
X167630574Y209427077D01*
X167590055Y209382076D01*
X167573664Y209370167D01*
X167555665Y209352168D01*
X167505543Y209320674D01*
X167461275Y209288512D01*
X167437533Y209277941D01*
X167411185Y209261386D01*
X167360559Y209243671D01*
X167315860Y209223770D01*
X167284846Y209217177D01*
X167250127Y209205029D01*
X167202380Y209199649D01*
X167160155Y209190674D01*
X167122723Y209190674D01*
X167080566Y209185924D01*
X167038409Y209190674D01*
X167000977Y209190674D01*
X166958751Y209199649D01*
X166911005Y209205029D01*
X166876287Y209217177D01*
X166845271Y209223770D01*
X166800567Y209243673D01*
X166749947Y209261386D01*
X166723600Y209277940D01*
X166699856Y209288512D01*
X166655581Y209320679D01*
X166605467Y209352168D01*
X166587469Y209370165D01*
X166571076Y209382076D01*
X166530547Y209427087D01*
X166484810Y209472825D01*
X166474289Y209489568D01*
X166464561Y209500373D01*
X166431276Y209558024D01*
X166394028Y209617305D01*
X166389377Y209630595D01*
X166384972Y209638226D01*
X166362415Y209707648D01*
X166337671Y209778363D01*
X166336732Y209786691D01*
X166335783Y209789614D01*
X166327169Y209871563D01*
X166318566Y209947924D01*
X166327170Y210024290D01*
X166335783Y210106233D01*
X166336732Y210109155D01*
X166337671Y210117485D01*
X166362419Y210188212D01*
X166384972Y210257621D01*
X166389376Y210265249D01*
X166394028Y210278543D01*
X166431283Y210337834D01*
X166464561Y210395474D01*
X166474287Y210406276D01*
X166484810Y210423023D01*
X166530557Y210468770D01*
X166571078Y210513773D01*
X166587468Y210525681D01*
X166605467Y210543680D01*
X166655586Y210575172D01*
X166699854Y210607334D01*
X166723594Y210617903D01*
X166749947Y210634462D01*
X166800578Y210652178D01*
X166845271Y210672077D01*
X166876281Y210678668D01*
X166911005Y210690819D01*
X166958753Y210696199D01*
X167000977Y210705174D01*
X167038409Y210705174D01*
X167080566Y210709924D01*
X167122723Y210705174D01*
G37*
G36*
X187442723Y210705174D02*
G01*
X187480155Y210705174D01*
X187522377Y210696199D01*
X187570127Y210690819D01*
X187604851Y210678668D01*
X187635860Y210672077D01*
X187680549Y210652180D01*
X187731185Y210634462D01*
X187757539Y210617902D01*
X187781275Y210607335D01*
X187825532Y210575179D01*
X187875665Y210543680D01*
X187893668Y210525676D01*
X187910055Y210513771D01*
X187950565Y210468779D01*
X187996322Y210423023D01*
X188006846Y210406272D01*
X188016570Y210395474D01*
X188049836Y210337854D01*
X188087104Y210278543D01*
X188091757Y210265245D01*
X188096159Y210257621D01*
X188118698Y210188252D01*
X188143461Y210117485D01*
X188144400Y210109150D01*
X188145348Y210106233D01*
X188153946Y210024422D01*
X188162566Y209947924D01*
X188153947Y209871431D01*
X188145348Y209789614D01*
X188144399Y209786696D01*
X188143461Y209778363D01*
X188118702Y209707608D01*
X188096159Y209638226D01*
X188091756Y209630599D01*
X188087104Y209617305D01*
X188049843Y209558004D01*
X188016570Y209500373D01*
X188006844Y209489571D01*
X187996322Y209472825D01*
X187950574Y209427077D01*
X187910055Y209382076D01*
X187893664Y209370167D01*
X187875665Y209352168D01*
X187825543Y209320674D01*
X187781275Y209288512D01*
X187757533Y209277941D01*
X187731185Y209261386D01*
X187680559Y209243671D01*
X187635860Y209223770D01*
X187604846Y209217177D01*
X187570127Y209205029D01*
X187522380Y209199649D01*
X187480155Y209190674D01*
X187442723Y209190674D01*
X187400566Y209185924D01*
X187358409Y209190674D01*
X187320977Y209190674D01*
X187278751Y209199649D01*
X187231005Y209205029D01*
X187196287Y209217177D01*
X187165271Y209223770D01*
X187120567Y209243673D01*
X187069947Y209261386D01*
X187043600Y209277940D01*
X187019856Y209288512D01*
X186975581Y209320679D01*
X186925467Y209352168D01*
X186907469Y209370165D01*
X186891076Y209382076D01*
X186850547Y209427087D01*
X186804810Y209472825D01*
X186794289Y209489568D01*
X186784561Y209500373D01*
X186751276Y209558024D01*
X186714028Y209617305D01*
X186709377Y209630595D01*
X186704972Y209638226D01*
X186682415Y209707648D01*
X186657671Y209778363D01*
X186656732Y209786691D01*
X186655783Y209789614D01*
X186647169Y209871563D01*
X186638566Y209947924D01*
X186647170Y210024290D01*
X186655783Y210106233D01*
X186656732Y210109155D01*
X186657671Y210117485D01*
X186682419Y210188212D01*
X186704972Y210257621D01*
X186709376Y210265249D01*
X186714028Y210278543D01*
X186751283Y210337834D01*
X186784561Y210395474D01*
X186794287Y210406276D01*
X186804810Y210423023D01*
X186850557Y210468770D01*
X186891078Y210513773D01*
X186907468Y210525681D01*
X186925467Y210543680D01*
X186975586Y210575172D01*
X187019854Y210607334D01*
X187043594Y210617903D01*
X187069947Y210634462D01*
X187120578Y210652178D01*
X187165271Y210672077D01*
X187196281Y210678668D01*
X187231005Y210690819D01*
X187278753Y210696199D01*
X187320977Y210705174D01*
X187358409Y210705174D01*
X187400566Y210709924D01*
X187442723Y210705174D01*
G37*
G36*
X207762723Y210705174D02*
G01*
X207800155Y210705174D01*
X207842377Y210696199D01*
X207890127Y210690819D01*
X207924851Y210678668D01*
X207955860Y210672077D01*
X208000549Y210652180D01*
X208051185Y210634462D01*
X208077539Y210617902D01*
X208101275Y210607335D01*
X208145532Y210575179D01*
X208195665Y210543680D01*
X208213668Y210525676D01*
X208230055Y210513771D01*
X208270565Y210468779D01*
X208316322Y210423023D01*
X208326846Y210406272D01*
X208336570Y210395474D01*
X208369836Y210337854D01*
X208407104Y210278543D01*
X208411757Y210265245D01*
X208416159Y210257621D01*
X208438698Y210188252D01*
X208463461Y210117485D01*
X208464400Y210109150D01*
X208465348Y210106233D01*
X208473946Y210024422D01*
X208482566Y209947924D01*
X208473947Y209871431D01*
X208465348Y209789614D01*
X208464399Y209786696D01*
X208463461Y209778363D01*
X208438702Y209707608D01*
X208416159Y209638226D01*
X208411756Y209630599D01*
X208407104Y209617305D01*
X208369843Y209558004D01*
X208336570Y209500373D01*
X208326844Y209489571D01*
X208316322Y209472825D01*
X208270574Y209427077D01*
X208230055Y209382076D01*
X208213664Y209370167D01*
X208195665Y209352168D01*
X208145543Y209320674D01*
X208101275Y209288512D01*
X208077533Y209277941D01*
X208051185Y209261386D01*
X208000559Y209243671D01*
X207955860Y209223770D01*
X207924846Y209217177D01*
X207890127Y209205029D01*
X207842380Y209199649D01*
X207800155Y209190674D01*
X207762723Y209190674D01*
X207720566Y209185924D01*
X207678409Y209190674D01*
X207640977Y209190674D01*
X207598751Y209199649D01*
X207551005Y209205029D01*
X207516287Y209217177D01*
X207485271Y209223770D01*
X207440567Y209243673D01*
X207389947Y209261386D01*
X207363600Y209277940D01*
X207339856Y209288512D01*
X207295581Y209320679D01*
X207245467Y209352168D01*
X207227469Y209370165D01*
X207211076Y209382076D01*
X207170547Y209427087D01*
X207124810Y209472825D01*
X207114289Y209489568D01*
X207104561Y209500373D01*
X207071276Y209558024D01*
X207034028Y209617305D01*
X207029377Y209630595D01*
X207024972Y209638226D01*
X207002415Y209707648D01*
X206977671Y209778363D01*
X206976732Y209786691D01*
X206975783Y209789614D01*
X206967169Y209871563D01*
X206958566Y209947924D01*
X206967170Y210024290D01*
X206975783Y210106233D01*
X206976732Y210109155D01*
X206977671Y210117485D01*
X207002419Y210188212D01*
X207024972Y210257621D01*
X207029376Y210265249D01*
X207034028Y210278543D01*
X207071283Y210337834D01*
X207104561Y210395474D01*
X207114287Y210406276D01*
X207124810Y210423023D01*
X207170557Y210468770D01*
X207211078Y210513773D01*
X207227468Y210525681D01*
X207245467Y210543680D01*
X207295586Y210575172D01*
X207339854Y210607334D01*
X207363594Y210617903D01*
X207389947Y210634462D01*
X207440578Y210652178D01*
X207485271Y210672077D01*
X207516281Y210678668D01*
X207551005Y210690819D01*
X207598753Y210696199D01*
X207640977Y210705174D01*
X207678409Y210705174D01*
X207720566Y210709924D01*
X207762723Y210705174D01*
G37*
G36*
X228082723Y210705174D02*
G01*
X228120155Y210705174D01*
X228162377Y210696199D01*
X228210127Y210690819D01*
X228244851Y210678668D01*
X228275860Y210672077D01*
X228320549Y210652180D01*
X228371185Y210634462D01*
X228397539Y210617902D01*
X228421275Y210607335D01*
X228465532Y210575179D01*
X228515665Y210543680D01*
X228533668Y210525676D01*
X228550055Y210513771D01*
X228590565Y210468779D01*
X228636322Y210423023D01*
X228646846Y210406272D01*
X228656570Y210395474D01*
X228689836Y210337854D01*
X228727104Y210278543D01*
X228731757Y210265245D01*
X228736159Y210257621D01*
X228758698Y210188252D01*
X228783461Y210117485D01*
X228784400Y210109150D01*
X228785348Y210106233D01*
X228793946Y210024422D01*
X228802566Y209947924D01*
X228793947Y209871431D01*
X228785348Y209789614D01*
X228784399Y209786696D01*
X228783461Y209778363D01*
X228758702Y209707608D01*
X228736159Y209638226D01*
X228731756Y209630599D01*
X228727104Y209617305D01*
X228689843Y209558004D01*
X228656570Y209500373D01*
X228646844Y209489571D01*
X228636322Y209472825D01*
X228590574Y209427077D01*
X228550055Y209382076D01*
X228533664Y209370167D01*
X228515665Y209352168D01*
X228465543Y209320674D01*
X228421275Y209288512D01*
X228397533Y209277941D01*
X228371185Y209261386D01*
X228320559Y209243671D01*
X228275860Y209223770D01*
X228244846Y209217177D01*
X228210127Y209205029D01*
X228162380Y209199649D01*
X228120155Y209190674D01*
X228082723Y209190674D01*
X228040566Y209185924D01*
X227998409Y209190674D01*
X227960977Y209190674D01*
X227918751Y209199649D01*
X227871005Y209205029D01*
X227836287Y209217177D01*
X227805271Y209223770D01*
X227760567Y209243673D01*
X227709947Y209261386D01*
X227683600Y209277940D01*
X227659856Y209288512D01*
X227615581Y209320679D01*
X227565467Y209352168D01*
X227547469Y209370165D01*
X227531076Y209382076D01*
X227490547Y209427087D01*
X227444810Y209472825D01*
X227434289Y209489568D01*
X227424561Y209500373D01*
X227391276Y209558024D01*
X227354028Y209617305D01*
X227349377Y209630595D01*
X227344972Y209638226D01*
X227322415Y209707648D01*
X227297671Y209778363D01*
X227296732Y209786691D01*
X227295783Y209789614D01*
X227287169Y209871563D01*
X227278566Y209947924D01*
X227287170Y210024290D01*
X227295783Y210106233D01*
X227296732Y210109155D01*
X227297671Y210117485D01*
X227322419Y210188212D01*
X227344972Y210257621D01*
X227349376Y210265249D01*
X227354028Y210278543D01*
X227391283Y210337834D01*
X227424561Y210395474D01*
X227434287Y210406276D01*
X227444810Y210423023D01*
X227490557Y210468770D01*
X227531078Y210513773D01*
X227547468Y210525681D01*
X227565467Y210543680D01*
X227615586Y210575172D01*
X227659854Y210607334D01*
X227683594Y210617903D01*
X227709947Y210634462D01*
X227760578Y210652178D01*
X227805271Y210672077D01*
X227836281Y210678668D01*
X227871005Y210690819D01*
X227918753Y210696199D01*
X227960977Y210705174D01*
X227998409Y210705174D01*
X228040566Y210709924D01*
X228082723Y210705174D01*
G37*
G36*
X248402723Y210705174D02*
G01*
X248440155Y210705174D01*
X248482377Y210696199D01*
X248530127Y210690819D01*
X248564851Y210678668D01*
X248595860Y210672077D01*
X248640549Y210652180D01*
X248691185Y210634462D01*
X248717539Y210617902D01*
X248741275Y210607335D01*
X248785532Y210575179D01*
X248835665Y210543680D01*
X248853668Y210525676D01*
X248870055Y210513771D01*
X248910565Y210468779D01*
X248956322Y210423023D01*
X248966846Y210406272D01*
X248976570Y210395474D01*
X249009836Y210337854D01*
X249047104Y210278543D01*
X249051757Y210265245D01*
X249056159Y210257621D01*
X249078698Y210188252D01*
X249103461Y210117485D01*
X249104400Y210109150D01*
X249105348Y210106233D01*
X249113946Y210024422D01*
X249122566Y209947924D01*
X249113947Y209871431D01*
X249105348Y209789614D01*
X249104399Y209786696D01*
X249103461Y209778363D01*
X249078702Y209707608D01*
X249056159Y209638226D01*
X249051756Y209630599D01*
X249047104Y209617305D01*
X249009843Y209558004D01*
X248976570Y209500373D01*
X248966844Y209489571D01*
X248956322Y209472825D01*
X248910574Y209427077D01*
X248870055Y209382076D01*
X248853664Y209370167D01*
X248835665Y209352168D01*
X248785543Y209320674D01*
X248741275Y209288512D01*
X248717533Y209277941D01*
X248691185Y209261386D01*
X248640559Y209243671D01*
X248595860Y209223770D01*
X248564846Y209217177D01*
X248530127Y209205029D01*
X248482380Y209199649D01*
X248440155Y209190674D01*
X248402723Y209190674D01*
X248360566Y209185924D01*
X248318409Y209190674D01*
X248280977Y209190674D01*
X248238751Y209199649D01*
X248191005Y209205029D01*
X248156287Y209217177D01*
X248125271Y209223770D01*
X248080567Y209243673D01*
X248029947Y209261386D01*
X248003600Y209277940D01*
X247979856Y209288512D01*
X247935581Y209320679D01*
X247885467Y209352168D01*
X247867469Y209370165D01*
X247851076Y209382076D01*
X247810547Y209427087D01*
X247764810Y209472825D01*
X247754289Y209489568D01*
X247744561Y209500373D01*
X247711276Y209558024D01*
X247674028Y209617305D01*
X247669377Y209630595D01*
X247664972Y209638226D01*
X247642415Y209707648D01*
X247617671Y209778363D01*
X247616732Y209786691D01*
X247615783Y209789614D01*
X247607169Y209871563D01*
X247598566Y209947924D01*
X247607170Y210024290D01*
X247615783Y210106233D01*
X247616732Y210109155D01*
X247617671Y210117485D01*
X247642419Y210188212D01*
X247664972Y210257621D01*
X247669376Y210265249D01*
X247674028Y210278543D01*
X247711283Y210337834D01*
X247744561Y210395474D01*
X247754287Y210406276D01*
X247764810Y210423023D01*
X247810557Y210468770D01*
X247851078Y210513773D01*
X247867468Y210525681D01*
X247885467Y210543680D01*
X247935586Y210575172D01*
X247979854Y210607334D01*
X248003594Y210617903D01*
X248029947Y210634462D01*
X248080578Y210652178D01*
X248125271Y210672077D01*
X248156281Y210678668D01*
X248191005Y210690819D01*
X248238753Y210696199D01*
X248280977Y210705174D01*
X248318409Y210705174D01*
X248360566Y210709924D01*
X248402723Y210705174D01*
G37*
G36*
X163878427Y211393210D02*
G01*
X163922793Y211393210D01*
X163972201Y211383973D01*
X164025656Y211378709D01*
X164066267Y211366389D01*
X164104103Y211359317D01*
X164156500Y211339018D01*
X164213249Y211321804D01*
X164245673Y211304472D01*
X164276104Y211292684D01*
X164328979Y211259944D01*
X164386136Y211229394D01*
X164410151Y211209685D01*
X164432932Y211195580D01*
X164483408Y211149564D01*
X164537673Y211105031D01*
X164553753Y211085436D01*
X164569241Y211071318D01*
X164614200Y211011781D01*
X164662036Y210953494D01*
X164671286Y210936187D01*
X164680401Y210924118D01*
X164716666Y210851287D01*
X164754446Y210780607D01*
X164758474Y210767325D01*
X164762618Y210759005D01*
X164787089Y210672993D01*
X164811351Y210593014D01*
X164812148Y210584920D01*
X164813096Y210581589D01*
X164822956Y210475186D01*
X164830566Y210397924D01*
X164822956Y210320667D01*
X164813096Y210214258D01*
X164812148Y210210926D01*
X164811351Y210202834D01*
X164787094Y210122870D01*
X164762618Y210036842D01*
X164758474Y210028519D01*
X164754446Y210015241D01*
X164716673Y209944574D01*
X164680401Y209871729D01*
X164671284Y209859656D01*
X164662036Y209842354D01*
X164614210Y209784078D01*
X164569241Y209724529D01*
X164553750Y209710407D01*
X164537673Y209690817D01*
X164483419Y209646292D01*
X164432932Y209600267D01*
X164410146Y209586158D01*
X164386136Y209566454D01*
X164328991Y209535909D01*
X164276104Y209503163D01*
X164245666Y209491371D01*
X164213249Y209474044D01*
X164156512Y209456833D01*
X164104103Y209436530D01*
X164066261Y209429456D01*
X164025656Y209417139D01*
X163972204Y209411874D01*
X163922793Y209402638D01*
X163878427Y209402638D01*
X163830566Y209397924D01*
X163782705Y209402638D01*
X163738339Y209402638D01*
X163688927Y209411874D01*
X163635476Y209417139D01*
X163594872Y209429455D01*
X163557028Y209436530D01*
X163504614Y209456834D01*
X163447883Y209474044D01*
X163415467Y209491370D01*
X163385027Y209503163D01*
X163332133Y209535913D01*
X163274996Y209566454D01*
X163250989Y209586155D01*
X163228199Y209600267D01*
X163177702Y209646300D01*
X163123459Y209690817D01*
X163107384Y209710404D01*
X163091890Y209724529D01*
X163046909Y209784093D01*
X162999096Y209842354D01*
X162989849Y209859652D01*
X162980730Y209871729D01*
X162944443Y209944601D01*
X162906686Y210015241D01*
X162902659Y210028514D01*
X162898513Y210036842D01*
X162874021Y210122923D01*
X162849781Y210202834D01*
X162848984Y210210920D01*
X162848035Y210214258D01*
X162838158Y210320839D01*
X162830566Y210397924D01*
X162838158Y210475014D01*
X162848035Y210581589D01*
X162848984Y210584925D01*
X162849781Y210593014D01*
X162874025Y210672939D01*
X162898513Y210759005D01*
X162902658Y210767330D01*
X162906686Y210780607D01*
X162944450Y210851260D01*
X162980730Y210924118D01*
X162989848Y210936192D01*
X162999096Y210953494D01*
X163046918Y211011766D01*
X163091890Y211071318D01*
X163107381Y211085440D01*
X163123459Y211105031D01*
X163177713Y211149556D01*
X163228199Y211195580D01*
X163250984Y211209687D01*
X163274996Y211229394D01*
X163332144Y211259940D01*
X163385027Y211292684D01*
X163415461Y211304474D01*
X163447883Y211321804D01*
X163504626Y211339016D01*
X163557028Y211359317D01*
X163594865Y211366390D01*
X163635476Y211378709D01*
X163688930Y211383973D01*
X163738339Y211393210D01*
X163782705Y211393210D01*
X163830566Y211397924D01*
X163878427Y211393210D01*
G37*
G36*
X170378427Y211393210D02*
G01*
X170422793Y211393210D01*
X170472201Y211383973D01*
X170525656Y211378709D01*
X170566267Y211366389D01*
X170604103Y211359317D01*
X170656500Y211339018D01*
X170713249Y211321804D01*
X170745673Y211304472D01*
X170776104Y211292684D01*
X170828979Y211259944D01*
X170886136Y211229394D01*
X170910151Y211209685D01*
X170932932Y211195580D01*
X170983408Y211149564D01*
X171037673Y211105031D01*
X171053753Y211085436D01*
X171069241Y211071318D01*
X171114200Y211011781D01*
X171162036Y210953494D01*
X171171286Y210936187D01*
X171180401Y210924118D01*
X171216666Y210851287D01*
X171254446Y210780607D01*
X171258474Y210767325D01*
X171262618Y210759005D01*
X171287089Y210672993D01*
X171311351Y210593014D01*
X171312148Y210584920D01*
X171313096Y210581589D01*
X171322956Y210475186D01*
X171330566Y210397924D01*
X171322956Y210320667D01*
X171313096Y210214258D01*
X171312148Y210210926D01*
X171311351Y210202834D01*
X171287094Y210122870D01*
X171262618Y210036842D01*
X171258474Y210028519D01*
X171254446Y210015241D01*
X171216673Y209944574D01*
X171180401Y209871729D01*
X171171284Y209859656D01*
X171162036Y209842354D01*
X171114210Y209784078D01*
X171069241Y209724529D01*
X171053750Y209710407D01*
X171037673Y209690817D01*
X170983419Y209646292D01*
X170932932Y209600267D01*
X170910146Y209586158D01*
X170886136Y209566454D01*
X170828991Y209535909D01*
X170776104Y209503163D01*
X170745666Y209491371D01*
X170713249Y209474044D01*
X170656512Y209456833D01*
X170604103Y209436530D01*
X170566261Y209429456D01*
X170525656Y209417139D01*
X170472204Y209411874D01*
X170422793Y209402638D01*
X170378427Y209402638D01*
X170330566Y209397924D01*
X170282705Y209402638D01*
X170238339Y209402638D01*
X170188927Y209411874D01*
X170135476Y209417139D01*
X170094872Y209429455D01*
X170057028Y209436530D01*
X170004614Y209456834D01*
X169947883Y209474044D01*
X169915467Y209491370D01*
X169885027Y209503163D01*
X169832133Y209535913D01*
X169774996Y209566454D01*
X169750989Y209586155D01*
X169728199Y209600267D01*
X169677702Y209646300D01*
X169623459Y209690817D01*
X169607384Y209710404D01*
X169591890Y209724529D01*
X169546909Y209784093D01*
X169499096Y209842354D01*
X169489849Y209859652D01*
X169480730Y209871729D01*
X169444443Y209944601D01*
X169406686Y210015241D01*
X169402659Y210028514D01*
X169398513Y210036842D01*
X169374021Y210122923D01*
X169349781Y210202834D01*
X169348984Y210210920D01*
X169348035Y210214258D01*
X169338158Y210320839D01*
X169330566Y210397924D01*
X169338158Y210475014D01*
X169348035Y210581589D01*
X169348984Y210584925D01*
X169349781Y210593014D01*
X169374025Y210672939D01*
X169398513Y210759005D01*
X169402658Y210767330D01*
X169406686Y210780607D01*
X169444450Y210851260D01*
X169480730Y210924118D01*
X169489848Y210936192D01*
X169499096Y210953494D01*
X169546918Y211011766D01*
X169591890Y211071318D01*
X169607381Y211085440D01*
X169623459Y211105031D01*
X169677713Y211149556D01*
X169728199Y211195580D01*
X169750984Y211209687D01*
X169774996Y211229394D01*
X169832144Y211259940D01*
X169885027Y211292684D01*
X169915461Y211304474D01*
X169947883Y211321804D01*
X170004626Y211339016D01*
X170057028Y211359317D01*
X170094865Y211366390D01*
X170135476Y211378709D01*
X170188930Y211383973D01*
X170238339Y211393210D01*
X170282705Y211393210D01*
X170330566Y211397924D01*
X170378427Y211393210D01*
G37*
G36*
X184198427Y211393210D02*
G01*
X184242793Y211393210D01*
X184292201Y211383973D01*
X184345656Y211378709D01*
X184386267Y211366389D01*
X184424103Y211359317D01*
X184476500Y211339018D01*
X184533249Y211321804D01*
X184565673Y211304472D01*
X184596104Y211292684D01*
X184648979Y211259944D01*
X184706136Y211229394D01*
X184730151Y211209685D01*
X184752932Y211195580D01*
X184803408Y211149564D01*
X184857673Y211105031D01*
X184873753Y211085436D01*
X184889241Y211071318D01*
X184934200Y211011781D01*
X184982036Y210953494D01*
X184991286Y210936187D01*
X185000401Y210924118D01*
X185036666Y210851287D01*
X185074446Y210780607D01*
X185078474Y210767325D01*
X185082618Y210759005D01*
X185107089Y210672993D01*
X185131351Y210593014D01*
X185132148Y210584920D01*
X185133096Y210581589D01*
X185142956Y210475186D01*
X185150566Y210397924D01*
X185142956Y210320667D01*
X185133096Y210214258D01*
X185132148Y210210926D01*
X185131351Y210202834D01*
X185107094Y210122870D01*
X185082618Y210036842D01*
X185078474Y210028519D01*
X185074446Y210015241D01*
X185036673Y209944574D01*
X185000401Y209871729D01*
X184991284Y209859656D01*
X184982036Y209842354D01*
X184934210Y209784078D01*
X184889241Y209724529D01*
X184873750Y209710407D01*
X184857673Y209690817D01*
X184803419Y209646292D01*
X184752932Y209600267D01*
X184730146Y209586158D01*
X184706136Y209566454D01*
X184648991Y209535909D01*
X184596104Y209503163D01*
X184565666Y209491371D01*
X184533249Y209474044D01*
X184476512Y209456833D01*
X184424103Y209436530D01*
X184386261Y209429456D01*
X184345656Y209417139D01*
X184292204Y209411874D01*
X184242793Y209402638D01*
X184198427Y209402638D01*
X184150566Y209397924D01*
X184102705Y209402638D01*
X184058339Y209402638D01*
X184008927Y209411874D01*
X183955476Y209417139D01*
X183914872Y209429455D01*
X183877028Y209436530D01*
X183824614Y209456834D01*
X183767883Y209474044D01*
X183735467Y209491370D01*
X183705027Y209503163D01*
X183652133Y209535913D01*
X183594996Y209566454D01*
X183570989Y209586155D01*
X183548199Y209600267D01*
X183497702Y209646300D01*
X183443459Y209690817D01*
X183427384Y209710404D01*
X183411890Y209724529D01*
X183366909Y209784093D01*
X183319096Y209842354D01*
X183309849Y209859652D01*
X183300730Y209871729D01*
X183264443Y209944601D01*
X183226686Y210015241D01*
X183222659Y210028514D01*
X183218513Y210036842D01*
X183194021Y210122923D01*
X183169781Y210202834D01*
X183168984Y210210920D01*
X183168035Y210214258D01*
X183158158Y210320839D01*
X183150566Y210397924D01*
X183158158Y210475014D01*
X183168035Y210581589D01*
X183168984Y210584925D01*
X183169781Y210593014D01*
X183194025Y210672939D01*
X183218513Y210759005D01*
X183222658Y210767330D01*
X183226686Y210780607D01*
X183264450Y210851260D01*
X183300730Y210924118D01*
X183309848Y210936192D01*
X183319096Y210953494D01*
X183366918Y211011766D01*
X183411890Y211071318D01*
X183427381Y211085440D01*
X183443459Y211105031D01*
X183497713Y211149556D01*
X183548199Y211195580D01*
X183570984Y211209687D01*
X183594996Y211229394D01*
X183652144Y211259940D01*
X183705027Y211292684D01*
X183735461Y211304474D01*
X183767883Y211321804D01*
X183824626Y211339016D01*
X183877028Y211359317D01*
X183914865Y211366390D01*
X183955476Y211378709D01*
X184008930Y211383973D01*
X184058339Y211393210D01*
X184102705Y211393210D01*
X184150566Y211397924D01*
X184198427Y211393210D01*
G37*
G36*
X190698427Y211393210D02*
G01*
X190742793Y211393210D01*
X190792201Y211383973D01*
X190845656Y211378709D01*
X190886267Y211366389D01*
X190924103Y211359317D01*
X190976500Y211339018D01*
X191033249Y211321804D01*
X191065673Y211304472D01*
X191096104Y211292684D01*
X191148979Y211259944D01*
X191206136Y211229394D01*
X191230151Y211209685D01*
X191252932Y211195580D01*
X191303408Y211149564D01*
X191357673Y211105031D01*
X191373753Y211085436D01*
X191389241Y211071318D01*
X191434200Y211011781D01*
X191482036Y210953494D01*
X191491286Y210936187D01*
X191500401Y210924118D01*
X191536666Y210851287D01*
X191574446Y210780607D01*
X191578474Y210767325D01*
X191582618Y210759005D01*
X191607089Y210672993D01*
X191631351Y210593014D01*
X191632148Y210584920D01*
X191633096Y210581589D01*
X191642956Y210475186D01*
X191650566Y210397924D01*
X191642956Y210320667D01*
X191633096Y210214258D01*
X191632148Y210210926D01*
X191631351Y210202834D01*
X191607094Y210122870D01*
X191582618Y210036842D01*
X191578474Y210028519D01*
X191574446Y210015241D01*
X191536673Y209944574D01*
X191500401Y209871729D01*
X191491284Y209859656D01*
X191482036Y209842354D01*
X191434210Y209784078D01*
X191389241Y209724529D01*
X191373750Y209710407D01*
X191357673Y209690817D01*
X191303419Y209646292D01*
X191252932Y209600267D01*
X191230146Y209586158D01*
X191206136Y209566454D01*
X191148991Y209535909D01*
X191096104Y209503163D01*
X191065666Y209491371D01*
X191033249Y209474044D01*
X190976512Y209456833D01*
X190924103Y209436530D01*
X190886261Y209429456D01*
X190845656Y209417139D01*
X190792204Y209411874D01*
X190742793Y209402638D01*
X190698427Y209402638D01*
X190650566Y209397924D01*
X190602705Y209402638D01*
X190558339Y209402638D01*
X190508927Y209411874D01*
X190455476Y209417139D01*
X190414872Y209429455D01*
X190377028Y209436530D01*
X190324614Y209456834D01*
X190267883Y209474044D01*
X190235467Y209491370D01*
X190205027Y209503163D01*
X190152133Y209535913D01*
X190094996Y209566454D01*
X190070989Y209586155D01*
X190048199Y209600267D01*
X189997702Y209646300D01*
X189943459Y209690817D01*
X189927384Y209710404D01*
X189911890Y209724529D01*
X189866909Y209784093D01*
X189819096Y209842354D01*
X189809849Y209859652D01*
X189800730Y209871729D01*
X189764443Y209944601D01*
X189726686Y210015241D01*
X189722659Y210028514D01*
X189718513Y210036842D01*
X189694021Y210122923D01*
X189669781Y210202834D01*
X189668984Y210210920D01*
X189668035Y210214258D01*
X189658158Y210320839D01*
X189650566Y210397924D01*
X189658158Y210475014D01*
X189668035Y210581589D01*
X189668984Y210584925D01*
X189669781Y210593014D01*
X189694025Y210672939D01*
X189718513Y210759005D01*
X189722658Y210767330D01*
X189726686Y210780607D01*
X189764450Y210851260D01*
X189800730Y210924118D01*
X189809848Y210936192D01*
X189819096Y210953494D01*
X189866918Y211011766D01*
X189911890Y211071318D01*
X189927381Y211085440D01*
X189943459Y211105031D01*
X189997713Y211149556D01*
X190048199Y211195580D01*
X190070984Y211209687D01*
X190094996Y211229394D01*
X190152144Y211259940D01*
X190205027Y211292684D01*
X190235461Y211304474D01*
X190267883Y211321804D01*
X190324626Y211339016D01*
X190377028Y211359317D01*
X190414865Y211366390D01*
X190455476Y211378709D01*
X190508930Y211383973D01*
X190558339Y211393210D01*
X190602705Y211393210D01*
X190650566Y211397924D01*
X190698427Y211393210D01*
G37*
G36*
X204518427Y211393210D02*
G01*
X204562793Y211393210D01*
X204612201Y211383973D01*
X204665656Y211378709D01*
X204706267Y211366389D01*
X204744103Y211359317D01*
X204796500Y211339018D01*
X204853249Y211321804D01*
X204885673Y211304472D01*
X204916104Y211292684D01*
X204968979Y211259944D01*
X205026136Y211229394D01*
X205050151Y211209685D01*
X205072932Y211195580D01*
X205123408Y211149564D01*
X205177673Y211105031D01*
X205193753Y211085436D01*
X205209241Y211071318D01*
X205254200Y211011781D01*
X205302036Y210953494D01*
X205311286Y210936187D01*
X205320401Y210924118D01*
X205356666Y210851287D01*
X205394446Y210780607D01*
X205398474Y210767325D01*
X205402618Y210759005D01*
X205427089Y210672993D01*
X205451351Y210593014D01*
X205452148Y210584920D01*
X205453096Y210581589D01*
X205462956Y210475186D01*
X205470566Y210397924D01*
X205462956Y210320667D01*
X205453096Y210214258D01*
X205452148Y210210926D01*
X205451351Y210202834D01*
X205427094Y210122870D01*
X205402618Y210036842D01*
X205398474Y210028519D01*
X205394446Y210015241D01*
X205356673Y209944574D01*
X205320401Y209871729D01*
X205311284Y209859656D01*
X205302036Y209842354D01*
X205254210Y209784078D01*
X205209241Y209724529D01*
X205193750Y209710407D01*
X205177673Y209690817D01*
X205123419Y209646292D01*
X205072932Y209600267D01*
X205050146Y209586158D01*
X205026136Y209566454D01*
X204968991Y209535909D01*
X204916104Y209503163D01*
X204885666Y209491371D01*
X204853249Y209474044D01*
X204796512Y209456833D01*
X204744103Y209436530D01*
X204706261Y209429456D01*
X204665656Y209417139D01*
X204612204Y209411874D01*
X204562793Y209402638D01*
X204518427Y209402638D01*
X204470566Y209397924D01*
X204422705Y209402638D01*
X204378339Y209402638D01*
X204328927Y209411874D01*
X204275476Y209417139D01*
X204234872Y209429455D01*
X204197028Y209436530D01*
X204144614Y209456834D01*
X204087883Y209474044D01*
X204055467Y209491370D01*
X204025027Y209503163D01*
X203972133Y209535913D01*
X203914996Y209566454D01*
X203890989Y209586155D01*
X203868199Y209600267D01*
X203817702Y209646300D01*
X203763459Y209690817D01*
X203747384Y209710404D01*
X203731890Y209724529D01*
X203686909Y209784093D01*
X203639096Y209842354D01*
X203629849Y209859652D01*
X203620730Y209871729D01*
X203584443Y209944601D01*
X203546686Y210015241D01*
X203542659Y210028514D01*
X203538513Y210036842D01*
X203514021Y210122923D01*
X203489781Y210202834D01*
X203488984Y210210920D01*
X203488035Y210214258D01*
X203478158Y210320839D01*
X203470566Y210397924D01*
X203478158Y210475014D01*
X203488035Y210581589D01*
X203488984Y210584925D01*
X203489781Y210593014D01*
X203514025Y210672939D01*
X203538513Y210759005D01*
X203542658Y210767330D01*
X203546686Y210780607D01*
X203584450Y210851260D01*
X203620730Y210924118D01*
X203629848Y210936192D01*
X203639096Y210953494D01*
X203686918Y211011766D01*
X203731890Y211071318D01*
X203747381Y211085440D01*
X203763459Y211105031D01*
X203817713Y211149556D01*
X203868199Y211195580D01*
X203890984Y211209687D01*
X203914996Y211229394D01*
X203972144Y211259940D01*
X204025027Y211292684D01*
X204055461Y211304474D01*
X204087883Y211321804D01*
X204144626Y211339016D01*
X204197028Y211359317D01*
X204234865Y211366390D01*
X204275476Y211378709D01*
X204328930Y211383973D01*
X204378339Y211393210D01*
X204422705Y211393210D01*
X204470566Y211397924D01*
X204518427Y211393210D01*
G37*
G36*
X211018427Y211393210D02*
G01*
X211062793Y211393210D01*
X211112201Y211383973D01*
X211165656Y211378709D01*
X211206267Y211366389D01*
X211244103Y211359317D01*
X211296500Y211339018D01*
X211353249Y211321804D01*
X211385673Y211304472D01*
X211416104Y211292684D01*
X211468979Y211259944D01*
X211526136Y211229394D01*
X211550151Y211209685D01*
X211572932Y211195580D01*
X211623408Y211149564D01*
X211677673Y211105031D01*
X211693753Y211085436D01*
X211709241Y211071318D01*
X211754200Y211011781D01*
X211802036Y210953494D01*
X211811286Y210936187D01*
X211820401Y210924118D01*
X211856666Y210851287D01*
X211894446Y210780607D01*
X211898474Y210767325D01*
X211902618Y210759005D01*
X211927089Y210672993D01*
X211951351Y210593014D01*
X211952148Y210584920D01*
X211953096Y210581589D01*
X211962956Y210475186D01*
X211970566Y210397924D01*
X211962956Y210320667D01*
X211953096Y210214258D01*
X211952148Y210210926D01*
X211951351Y210202834D01*
X211927094Y210122870D01*
X211902618Y210036842D01*
X211898474Y210028519D01*
X211894446Y210015241D01*
X211856673Y209944574D01*
X211820401Y209871729D01*
X211811284Y209859656D01*
X211802036Y209842354D01*
X211754210Y209784078D01*
X211709241Y209724529D01*
X211693750Y209710407D01*
X211677673Y209690817D01*
X211623419Y209646292D01*
X211572932Y209600267D01*
X211550146Y209586158D01*
X211526136Y209566454D01*
X211468991Y209535909D01*
X211416104Y209503163D01*
X211385666Y209491371D01*
X211353249Y209474044D01*
X211296512Y209456833D01*
X211244103Y209436530D01*
X211206261Y209429456D01*
X211165656Y209417139D01*
X211112204Y209411874D01*
X211062793Y209402638D01*
X211018427Y209402638D01*
X210970566Y209397924D01*
X210922705Y209402638D01*
X210878339Y209402638D01*
X210828927Y209411874D01*
X210775476Y209417139D01*
X210734872Y209429455D01*
X210697028Y209436530D01*
X210644614Y209456834D01*
X210587883Y209474044D01*
X210555467Y209491370D01*
X210525027Y209503163D01*
X210472133Y209535913D01*
X210414996Y209566454D01*
X210390989Y209586155D01*
X210368199Y209600267D01*
X210317702Y209646300D01*
X210263459Y209690817D01*
X210247384Y209710404D01*
X210231890Y209724529D01*
X210186909Y209784093D01*
X210139096Y209842354D01*
X210129849Y209859652D01*
X210120730Y209871729D01*
X210084443Y209944601D01*
X210046686Y210015241D01*
X210042659Y210028514D01*
X210038513Y210036842D01*
X210014021Y210122923D01*
X209989781Y210202834D01*
X209988984Y210210920D01*
X209988035Y210214258D01*
X209978158Y210320839D01*
X209970566Y210397924D01*
X209978158Y210475014D01*
X209988035Y210581589D01*
X209988984Y210584925D01*
X209989781Y210593014D01*
X210014025Y210672939D01*
X210038513Y210759005D01*
X210042658Y210767330D01*
X210046686Y210780607D01*
X210084450Y210851260D01*
X210120730Y210924118D01*
X210129848Y210936192D01*
X210139096Y210953494D01*
X210186918Y211011766D01*
X210231890Y211071318D01*
X210247381Y211085440D01*
X210263459Y211105031D01*
X210317713Y211149556D01*
X210368199Y211195580D01*
X210390984Y211209687D01*
X210414996Y211229394D01*
X210472144Y211259940D01*
X210525027Y211292684D01*
X210555461Y211304474D01*
X210587883Y211321804D01*
X210644626Y211339016D01*
X210697028Y211359317D01*
X210734865Y211366390D01*
X210775476Y211378709D01*
X210828930Y211383973D01*
X210878339Y211393210D01*
X210922705Y211393210D01*
X210970566Y211397924D01*
X211018427Y211393210D01*
G37*
G36*
X224838427Y211393210D02*
G01*
X224882793Y211393210D01*
X224932201Y211383973D01*
X224985656Y211378709D01*
X225026267Y211366389D01*
X225064103Y211359317D01*
X225116500Y211339018D01*
X225173249Y211321804D01*
X225205673Y211304472D01*
X225236104Y211292684D01*
X225288979Y211259944D01*
X225346136Y211229394D01*
X225370151Y211209685D01*
X225392932Y211195580D01*
X225443408Y211149564D01*
X225497673Y211105031D01*
X225513753Y211085436D01*
X225529241Y211071318D01*
X225574200Y211011781D01*
X225622036Y210953494D01*
X225631286Y210936187D01*
X225640401Y210924118D01*
X225676666Y210851287D01*
X225714446Y210780607D01*
X225718474Y210767325D01*
X225722618Y210759005D01*
X225747089Y210672993D01*
X225771351Y210593014D01*
X225772148Y210584920D01*
X225773096Y210581589D01*
X225782956Y210475186D01*
X225790566Y210397924D01*
X225782956Y210320667D01*
X225773096Y210214258D01*
X225772148Y210210926D01*
X225771351Y210202834D01*
X225747094Y210122870D01*
X225722618Y210036842D01*
X225718474Y210028519D01*
X225714446Y210015241D01*
X225676673Y209944574D01*
X225640401Y209871729D01*
X225631284Y209859656D01*
X225622036Y209842354D01*
X225574210Y209784078D01*
X225529241Y209724529D01*
X225513750Y209710407D01*
X225497673Y209690817D01*
X225443419Y209646292D01*
X225392932Y209600267D01*
X225370146Y209586158D01*
X225346136Y209566454D01*
X225288991Y209535909D01*
X225236104Y209503163D01*
X225205666Y209491371D01*
X225173249Y209474044D01*
X225116512Y209456833D01*
X225064103Y209436530D01*
X225026261Y209429456D01*
X224985656Y209417139D01*
X224932204Y209411874D01*
X224882793Y209402638D01*
X224838427Y209402638D01*
X224790566Y209397924D01*
X224742705Y209402638D01*
X224698339Y209402638D01*
X224648927Y209411874D01*
X224595476Y209417139D01*
X224554872Y209429455D01*
X224517028Y209436530D01*
X224464614Y209456834D01*
X224407883Y209474044D01*
X224375467Y209491370D01*
X224345027Y209503163D01*
X224292133Y209535913D01*
X224234996Y209566454D01*
X224210989Y209586155D01*
X224188199Y209600267D01*
X224137702Y209646300D01*
X224083459Y209690817D01*
X224067384Y209710404D01*
X224051890Y209724529D01*
X224006909Y209784093D01*
X223959096Y209842354D01*
X223949849Y209859652D01*
X223940730Y209871729D01*
X223904443Y209944601D01*
X223866686Y210015241D01*
X223862659Y210028514D01*
X223858513Y210036842D01*
X223834021Y210122923D01*
X223809781Y210202834D01*
X223808984Y210210920D01*
X223808035Y210214258D01*
X223798158Y210320839D01*
X223790566Y210397924D01*
X223798158Y210475014D01*
X223808035Y210581589D01*
X223808984Y210584925D01*
X223809781Y210593014D01*
X223834025Y210672939D01*
X223858513Y210759005D01*
X223862658Y210767330D01*
X223866686Y210780607D01*
X223904450Y210851260D01*
X223940730Y210924118D01*
X223949848Y210936192D01*
X223959096Y210953494D01*
X224006918Y211011766D01*
X224051890Y211071318D01*
X224067381Y211085440D01*
X224083459Y211105031D01*
X224137713Y211149556D01*
X224188199Y211195580D01*
X224210984Y211209687D01*
X224234996Y211229394D01*
X224292144Y211259940D01*
X224345027Y211292684D01*
X224375461Y211304474D01*
X224407883Y211321804D01*
X224464626Y211339016D01*
X224517028Y211359317D01*
X224554865Y211366390D01*
X224595476Y211378709D01*
X224648930Y211383973D01*
X224698339Y211393210D01*
X224742705Y211393210D01*
X224790566Y211397924D01*
X224838427Y211393210D01*
G37*
G36*
X231338427Y211393210D02*
G01*
X231382793Y211393210D01*
X231432201Y211383973D01*
X231485656Y211378709D01*
X231526267Y211366389D01*
X231564103Y211359317D01*
X231616500Y211339018D01*
X231673249Y211321804D01*
X231705673Y211304472D01*
X231736104Y211292684D01*
X231788979Y211259944D01*
X231846136Y211229394D01*
X231870151Y211209685D01*
X231892932Y211195580D01*
X231943408Y211149564D01*
X231997673Y211105031D01*
X232013753Y211085436D01*
X232029241Y211071318D01*
X232074200Y211011781D01*
X232122036Y210953494D01*
X232131286Y210936187D01*
X232140401Y210924118D01*
X232176666Y210851287D01*
X232214446Y210780607D01*
X232218474Y210767325D01*
X232222618Y210759005D01*
X232247089Y210672993D01*
X232271351Y210593014D01*
X232272148Y210584920D01*
X232273096Y210581589D01*
X232282956Y210475186D01*
X232290566Y210397924D01*
X232282956Y210320667D01*
X232273096Y210214258D01*
X232272148Y210210926D01*
X232271351Y210202834D01*
X232247094Y210122870D01*
X232222618Y210036842D01*
X232218474Y210028519D01*
X232214446Y210015241D01*
X232176673Y209944574D01*
X232140401Y209871729D01*
X232131284Y209859656D01*
X232122036Y209842354D01*
X232074210Y209784078D01*
X232029241Y209724529D01*
X232013750Y209710407D01*
X231997673Y209690817D01*
X231943419Y209646292D01*
X231892932Y209600267D01*
X231870146Y209586158D01*
X231846136Y209566454D01*
X231788991Y209535909D01*
X231736104Y209503163D01*
X231705666Y209491371D01*
X231673249Y209474044D01*
X231616512Y209456833D01*
X231564103Y209436530D01*
X231526261Y209429456D01*
X231485656Y209417139D01*
X231432204Y209411874D01*
X231382793Y209402638D01*
X231338427Y209402638D01*
X231290566Y209397924D01*
X231242705Y209402638D01*
X231198339Y209402638D01*
X231148927Y209411874D01*
X231095476Y209417139D01*
X231054872Y209429455D01*
X231017028Y209436530D01*
X230964614Y209456834D01*
X230907883Y209474044D01*
X230875467Y209491370D01*
X230845027Y209503163D01*
X230792133Y209535913D01*
X230734996Y209566454D01*
X230710989Y209586155D01*
X230688199Y209600267D01*
X230637702Y209646300D01*
X230583459Y209690817D01*
X230567384Y209710404D01*
X230551890Y209724529D01*
X230506909Y209784093D01*
X230459096Y209842354D01*
X230449849Y209859652D01*
X230440730Y209871729D01*
X230404443Y209944601D01*
X230366686Y210015241D01*
X230362659Y210028514D01*
X230358513Y210036842D01*
X230334021Y210122923D01*
X230309781Y210202834D01*
X230308984Y210210920D01*
X230308035Y210214258D01*
X230298158Y210320839D01*
X230290566Y210397924D01*
X230298158Y210475014D01*
X230308035Y210581589D01*
X230308984Y210584925D01*
X230309781Y210593014D01*
X230334025Y210672939D01*
X230358513Y210759005D01*
X230362658Y210767330D01*
X230366686Y210780607D01*
X230404450Y210851260D01*
X230440730Y210924118D01*
X230449848Y210936192D01*
X230459096Y210953494D01*
X230506918Y211011766D01*
X230551890Y211071318D01*
X230567381Y211085440D01*
X230583459Y211105031D01*
X230637713Y211149556D01*
X230688199Y211195580D01*
X230710984Y211209687D01*
X230734996Y211229394D01*
X230792144Y211259940D01*
X230845027Y211292684D01*
X230875461Y211304474D01*
X230907883Y211321804D01*
X230964626Y211339016D01*
X231017028Y211359317D01*
X231054865Y211366390D01*
X231095476Y211378709D01*
X231148930Y211383973D01*
X231198339Y211393210D01*
X231242705Y211393210D01*
X231290566Y211397924D01*
X231338427Y211393210D01*
G37*
G36*
X245158427Y211393210D02*
G01*
X245202793Y211393210D01*
X245252201Y211383973D01*
X245305656Y211378709D01*
X245346267Y211366389D01*
X245384103Y211359317D01*
X245436500Y211339018D01*
X245493249Y211321804D01*
X245525673Y211304472D01*
X245556104Y211292684D01*
X245608979Y211259944D01*
X245666136Y211229394D01*
X245690151Y211209685D01*
X245712932Y211195580D01*
X245763408Y211149564D01*
X245817673Y211105031D01*
X245833753Y211085436D01*
X245849241Y211071318D01*
X245894200Y211011781D01*
X245942036Y210953494D01*
X245951286Y210936187D01*
X245960401Y210924118D01*
X245996666Y210851287D01*
X246034446Y210780607D01*
X246038474Y210767325D01*
X246042618Y210759005D01*
X246067089Y210672993D01*
X246091351Y210593014D01*
X246092148Y210584920D01*
X246093096Y210581589D01*
X246102956Y210475186D01*
X246110566Y210397924D01*
X246102956Y210320667D01*
X246093096Y210214258D01*
X246092148Y210210926D01*
X246091351Y210202834D01*
X246067094Y210122870D01*
X246042618Y210036842D01*
X246038474Y210028519D01*
X246034446Y210015241D01*
X245996673Y209944574D01*
X245960401Y209871729D01*
X245951284Y209859656D01*
X245942036Y209842354D01*
X245894210Y209784078D01*
X245849241Y209724529D01*
X245833750Y209710407D01*
X245817673Y209690817D01*
X245763419Y209646292D01*
X245712932Y209600267D01*
X245690146Y209586158D01*
X245666136Y209566454D01*
X245608991Y209535909D01*
X245556104Y209503163D01*
X245525666Y209491371D01*
X245493249Y209474044D01*
X245436512Y209456833D01*
X245384103Y209436530D01*
X245346261Y209429456D01*
X245305656Y209417139D01*
X245252204Y209411874D01*
X245202793Y209402638D01*
X245158427Y209402638D01*
X245110566Y209397924D01*
X245062705Y209402638D01*
X245018339Y209402638D01*
X244968927Y209411874D01*
X244915476Y209417139D01*
X244874872Y209429455D01*
X244837028Y209436530D01*
X244784614Y209456834D01*
X244727883Y209474044D01*
X244695467Y209491370D01*
X244665027Y209503163D01*
X244612133Y209535913D01*
X244554996Y209566454D01*
X244530989Y209586155D01*
X244508199Y209600267D01*
X244457702Y209646300D01*
X244403459Y209690817D01*
X244387384Y209710404D01*
X244371890Y209724529D01*
X244326909Y209784093D01*
X244279096Y209842354D01*
X244269849Y209859652D01*
X244260730Y209871729D01*
X244224443Y209944601D01*
X244186686Y210015241D01*
X244182659Y210028514D01*
X244178513Y210036842D01*
X244154021Y210122923D01*
X244129781Y210202834D01*
X244128984Y210210920D01*
X244128035Y210214258D01*
X244118158Y210320839D01*
X244110566Y210397924D01*
X244118158Y210475014D01*
X244128035Y210581589D01*
X244128984Y210584925D01*
X244129781Y210593014D01*
X244154025Y210672939D01*
X244178513Y210759005D01*
X244182658Y210767330D01*
X244186686Y210780607D01*
X244224450Y210851260D01*
X244260730Y210924118D01*
X244269848Y210936192D01*
X244279096Y210953494D01*
X244326918Y211011766D01*
X244371890Y211071318D01*
X244387381Y211085440D01*
X244403459Y211105031D01*
X244457713Y211149556D01*
X244508199Y211195580D01*
X244530984Y211209687D01*
X244554996Y211229394D01*
X244612144Y211259940D01*
X244665027Y211292684D01*
X244695461Y211304474D01*
X244727883Y211321804D01*
X244784626Y211339016D01*
X244837028Y211359317D01*
X244874865Y211366390D01*
X244915476Y211378709D01*
X244968930Y211383973D01*
X245018339Y211393210D01*
X245062705Y211393210D01*
X245110566Y211397924D01*
X245158427Y211393210D01*
G37*
G36*
X251658427Y211393210D02*
G01*
X251702793Y211393210D01*
X251752201Y211383973D01*
X251805656Y211378709D01*
X251846267Y211366389D01*
X251884103Y211359317D01*
X251936500Y211339018D01*
X251993249Y211321804D01*
X252025673Y211304472D01*
X252056104Y211292684D01*
X252108979Y211259944D01*
X252166136Y211229394D01*
X252190151Y211209685D01*
X252212932Y211195580D01*
X252263408Y211149564D01*
X252317673Y211105031D01*
X252333753Y211085436D01*
X252349241Y211071318D01*
X252394200Y211011781D01*
X252442036Y210953494D01*
X252451286Y210936187D01*
X252460401Y210924118D01*
X252496666Y210851287D01*
X252534446Y210780607D01*
X252538474Y210767325D01*
X252542618Y210759005D01*
X252567089Y210672993D01*
X252591351Y210593014D01*
X252592148Y210584920D01*
X252593096Y210581589D01*
X252602956Y210475186D01*
X252610566Y210397924D01*
X252602956Y210320667D01*
X252593096Y210214258D01*
X252592148Y210210926D01*
X252591351Y210202834D01*
X252567094Y210122870D01*
X252542618Y210036842D01*
X252538474Y210028519D01*
X252534446Y210015241D01*
X252496673Y209944574D01*
X252460401Y209871729D01*
X252451284Y209859656D01*
X252442036Y209842354D01*
X252394210Y209784078D01*
X252349241Y209724529D01*
X252333750Y209710407D01*
X252317673Y209690817D01*
X252263419Y209646292D01*
X252212932Y209600267D01*
X252190146Y209586158D01*
X252166136Y209566454D01*
X252108991Y209535909D01*
X252056104Y209503163D01*
X252025666Y209491371D01*
X251993249Y209474044D01*
X251936512Y209456833D01*
X251884103Y209436530D01*
X251846261Y209429456D01*
X251805656Y209417139D01*
X251752204Y209411874D01*
X251702793Y209402638D01*
X251658427Y209402638D01*
X251610566Y209397924D01*
X251562705Y209402638D01*
X251518339Y209402638D01*
X251468927Y209411874D01*
X251415476Y209417139D01*
X251374872Y209429455D01*
X251337028Y209436530D01*
X251284614Y209456834D01*
X251227883Y209474044D01*
X251195467Y209491370D01*
X251165027Y209503163D01*
X251112133Y209535913D01*
X251054996Y209566454D01*
X251030989Y209586155D01*
X251008199Y209600267D01*
X250957702Y209646300D01*
X250903459Y209690817D01*
X250887384Y209710404D01*
X250871890Y209724529D01*
X250826909Y209784093D01*
X250779096Y209842354D01*
X250769849Y209859652D01*
X250760730Y209871729D01*
X250724443Y209944601D01*
X250686686Y210015241D01*
X250682659Y210028514D01*
X250678513Y210036842D01*
X250654021Y210122923D01*
X250629781Y210202834D01*
X250628984Y210210920D01*
X250628035Y210214258D01*
X250618158Y210320839D01*
X250610566Y210397924D01*
X250618158Y210475014D01*
X250628035Y210581589D01*
X250628984Y210584925D01*
X250629781Y210593014D01*
X250654025Y210672939D01*
X250678513Y210759005D01*
X250682658Y210767330D01*
X250686686Y210780607D01*
X250724450Y210851260D01*
X250760730Y210924118D01*
X250769848Y210936192D01*
X250779096Y210953494D01*
X250826918Y211011766D01*
X250871890Y211071318D01*
X250887381Y211085440D01*
X250903459Y211105031D01*
X250957713Y211149556D01*
X251008199Y211195580D01*
X251030984Y211209687D01*
X251054996Y211229394D01*
X251112144Y211259940D01*
X251165027Y211292684D01*
X251195461Y211304474D01*
X251227883Y211321804D01*
X251284626Y211339016D01*
X251337028Y211359317D01*
X251374865Y211366390D01*
X251415476Y211378709D01*
X251468930Y211383973D01*
X251518339Y211393210D01*
X251562705Y211393210D01*
X251610566Y211397924D01*
X251658427Y211393210D01*
G37*
G36*
X158118286Y213399172D02*
G01*
X158210327Y213392931D01*
X158231910Y213387563D01*
X158262914Y213384396D01*
X158317860Y213366189D01*
X158369669Y213353305D01*
X158395692Y213340398D01*
X158428215Y213329622D01*
X158472508Y213302301D01*
X158514842Y213281306D01*
X158542200Y213259314D01*
X158576428Y213238203D01*
X158609055Y213205575D01*
X158641143Y213179783D01*
X158666935Y213147695D01*
X158699563Y213115068D01*
X158720674Y213080840D01*
X158742666Y213053482D01*
X158763661Y213011148D01*
X158790982Y212966855D01*
X158801758Y212934332D01*
X158814665Y212908309D01*
X158827549Y212856500D01*
X158845756Y212801554D01*
X158848923Y212770550D01*
X158854291Y212748967D01*
X158860532Y212656926D01*
X158861251Y212649891D01*
X158861251Y211149891D01*
X158860532Y211142857D01*
X158854291Y211050814D01*
X158848923Y211029230D01*
X158845756Y210998228D01*
X158827550Y210943284D01*
X158814665Y210891472D01*
X158801757Y210865446D01*
X158790982Y210832927D01*
X158763664Y210788637D01*
X158742666Y210746299D01*
X158720672Y210718937D01*
X158699563Y210684714D01*
X158666939Y210652090D01*
X158641143Y210619998D01*
X158609050Y210594201D01*
X158576428Y210561579D01*
X158542205Y210540470D01*
X158514842Y210518475D01*
X158472500Y210497475D01*
X158428215Y210470160D01*
X158395698Y210459385D01*
X158369669Y210446476D01*
X158317847Y210433588D01*
X158262914Y210415386D01*
X158231917Y210412219D01*
X158210327Y210406850D01*
X158118257Y210400606D01*
X158111251Y210399891D01*
X158107701Y210399891D01*
X155614800Y210399891D01*
X155611251Y210399891D01*
X155604246Y210400606D01*
X155512174Y210406850D01*
X155490583Y210412219D01*
X155459588Y210415386D01*
X155404657Y210433587D01*
X155352832Y210446476D01*
X155326800Y210459386D01*
X155294287Y210470160D01*
X155250006Y210497472D01*
X155207659Y210518475D01*
X155180292Y210540472D01*
X155146074Y210561579D01*
X155113455Y210594197D01*
X155081358Y210619998D01*
X155055557Y210652095D01*
X155022939Y210684714D01*
X155001832Y210718932D01*
X154979835Y210746299D01*
X154958832Y210788646D01*
X154931520Y210832927D01*
X154920746Y210865440D01*
X154907836Y210891472D01*
X154894947Y210943297D01*
X154876746Y210998228D01*
X154873579Y211029223D01*
X154868210Y211050814D01*
X154861966Y211142886D01*
X154861251Y211149891D01*
X154861251Y212649891D01*
X154861966Y212656897D01*
X154868210Y212748967D01*
X154873579Y212770557D01*
X154876746Y212801554D01*
X154894948Y212856487D01*
X154907836Y212908309D01*
X154920745Y212934338D01*
X154931520Y212966855D01*
X154958835Y213011140D01*
X154979835Y213053482D01*
X155001830Y213080845D01*
X155022939Y213115068D01*
X155055561Y213147690D01*
X155081358Y213179783D01*
X155113450Y213205579D01*
X155146074Y213238203D01*
X155180297Y213259312D01*
X155207659Y213281306D01*
X155249997Y213302304D01*
X155294287Y213329622D01*
X155326806Y213340397D01*
X155352832Y213353305D01*
X155404644Y213366190D01*
X155459588Y213384396D01*
X155490590Y213387563D01*
X155512174Y213392931D01*
X155604217Y213399172D01*
X155611251Y213399891D01*
X158111251Y213399891D01*
X158118286Y213399172D01*
G37*
G36*
X160075217Y216350315D02*
G01*
X160121354Y216350315D01*
X160160483Y216341041D01*
X160195376Y216337246D01*
X160240158Y216322157D01*
X160290800Y216310155D01*
X160321413Y216294780D01*
X160348942Y216285505D01*
X160394690Y216257978D01*
X160446416Y216232001D01*
X160470579Y216212317D01*
X160489635Y216200852D01*
X160559097Y216140210D01*
X160564615Y216135716D01*
X162332382Y214367949D01*
X162336853Y214362459D01*
X162397516Y214292972D01*
X162408982Y214273914D01*
X162428667Y214249750D01*
X162454645Y214198023D01*
X162482171Y214152276D01*
X162491446Y214124747D01*
X162506821Y214094134D01*
X162518823Y214043492D01*
X162533912Y213998710D01*
X162537707Y213963817D01*
X162546981Y213924688D01*
X162546981Y213878551D01*
X162551433Y213837619D01*
X162546981Y213796686D01*
X162546981Y213750549D01*
X162537707Y213711420D01*
X162533912Y213676526D01*
X162518822Y213631739D01*
X162506821Y213581104D01*
X162491448Y213550493D01*
X162482171Y213522960D01*
X162454640Y213477204D01*
X162428667Y213425487D01*
X162408986Y213401327D01*
X162397518Y213382267D01*
X162336852Y213312776D01*
X162332382Y213307289D01*
X161271721Y212246628D01*
X161266263Y212242182D01*
X161196745Y212181493D01*
X161177681Y212170022D01*
X161153523Y212150343D01*
X161101808Y212124371D01*
X161056049Y212096838D01*
X161028512Y212087559D01*
X160997906Y212072189D01*
X160947277Y212060189D01*
X160902483Y212045097D01*
X160867581Y212041301D01*
X160828461Y212032029D01*
X160782333Y212032029D01*
X160741391Y212027576D01*
X160700449Y212032029D01*
X160654322Y212032029D01*
X160615201Y212041300D01*
X160580299Y212045097D01*
X160535504Y212060189D01*
X160484876Y212072189D01*
X160454270Y212087559D01*
X160426733Y212096838D01*
X160380969Y212124373D01*
X160329260Y212150343D01*
X160305104Y212170020D01*
X160286040Y212181491D01*
X160216546Y212242159D01*
X160211061Y212246628D01*
X158443294Y214014395D01*
X158438848Y214019852D01*
X158378159Y214089371D01*
X158366686Y214108437D01*
X158347009Y214132594D01*
X158321039Y214184303D01*
X158293504Y214230067D01*
X158284225Y214257604D01*
X158268855Y214288210D01*
X158256855Y214338838D01*
X158241763Y214383633D01*
X158237966Y214418535D01*
X158228695Y214457656D01*
X158228695Y214503783D01*
X158224242Y214544725D01*
X158228695Y214585666D01*
X158228695Y214631795D01*
X158237967Y214670915D01*
X158241763Y214705817D01*
X158256855Y214750611D01*
X158268855Y214801240D01*
X158284225Y214831846D01*
X158293504Y214859383D01*
X158321037Y214905143D01*
X158347009Y214956857D01*
X158366688Y214981014D01*
X158378157Y215000076D01*
X158438825Y215069569D01*
X158443294Y215075055D01*
X159503955Y216135716D01*
X159509414Y216140163D01*
X159578930Y216200850D01*
X159597992Y216212319D01*
X159622153Y216232001D01*
X159673871Y216257974D01*
X159719626Y216285505D01*
X159747159Y216294782D01*
X159777770Y216310155D01*
X159828405Y216322156D01*
X159873192Y216337246D01*
X159908087Y216341041D01*
X159947215Y216350315D01*
X159993351Y216350315D01*
X160034284Y216354767D01*
X160075217Y216350315D01*
G37*
G36*
X166064285Y213590085D02*
G01*
X166065749Y213586549D01*
X166065749Y212086549D01*
X166064285Y212083013D01*
X166060749Y212081549D01*
X166052486Y212081549D01*
X165527379Y212081549D01*
X165510749Y212081549D01*
X165507213Y212083013D01*
X165505877Y212086237D01*
X165503351Y212086638D01*
X165439592Y212086638D01*
X165438183Y212086841D01*
X165430985Y212088954D01*
X165430981Y212088955D01*
X165308835Y212124821D01*
X165308834Y212124821D01*
X165301632Y212126936D01*
X165300338Y212127527D01*
X165294024Y212131584D01*
X165294021Y212131586D01*
X165186928Y212200410D01*
X165186921Y212200415D01*
X165180616Y212204468D01*
X165179540Y212205400D01*
X165174625Y212211072D01*
X165091261Y212307278D01*
X165091257Y212307283D01*
X165086343Y212312955D01*
X165085574Y212314152D01*
X165082457Y212320977D01*
X165082454Y212320982D01*
X165029572Y212436778D01*
X165029569Y212436785D01*
X165026455Y212443606D01*
X165026054Y212444971D01*
X165022195Y212471810D01*
X165006333Y212582127D01*
X165006332Y212582132D01*
X165005800Y212585837D01*
X165005749Y212586549D01*
X165005749Y213086549D01*
X165005800Y213087261D01*
X165009056Y213109904D01*
X165024985Y213220694D01*
X165024985Y213220695D01*
X165026054Y213228127D01*
X165026455Y213229492D01*
X165029570Y213236314D01*
X165029572Y213236319D01*
X165082454Y213352115D01*
X165082455Y213352117D01*
X165085574Y213358946D01*
X165086343Y213360143D01*
X165105514Y213382267D01*
X165163705Y213449423D01*
X165179540Y213467698D01*
X165180616Y213468630D01*
X165186925Y213472685D01*
X165186928Y213472687D01*
X165294021Y213541511D01*
X165300338Y213545571D01*
X165301632Y213546162D01*
X165438183Y213586257D01*
X165439592Y213586460D01*
X165482745Y213586460D01*
X165490970Y213587107D01*
X165507033Y213589651D01*
X165507213Y213590085D01*
X165510749Y213591549D01*
X166060749Y213591549D01*
X166064285Y213590085D01*
G37*
G36*
X168114285Y213590085D02*
G01*
X168115620Y213586860D01*
X168118147Y213586460D01*
X168174397Y213586460D01*
X168181906Y213586460D01*
X168183315Y213586257D01*
X168319866Y213546162D01*
X168321160Y213545571D01*
X168440882Y213468630D01*
X168441958Y213467698D01*
X168535155Y213360143D01*
X168535924Y213358946D01*
X168595043Y213229492D01*
X168595444Y213228127D01*
X168615698Y213087261D01*
X168615749Y213086549D01*
X168615749Y212586549D01*
X168615698Y212585837D01*
X168595444Y212444971D01*
X168595043Y212443606D01*
X168591925Y212436779D01*
X168591925Y212436778D01*
X168575833Y212401541D01*
X168535924Y212314152D01*
X168535155Y212312955D01*
X168441958Y212205400D01*
X168440882Y212204468D01*
X168434572Y212200413D01*
X168434569Y212200410D01*
X168327476Y212131586D01*
X168321160Y212127527D01*
X168319866Y212126936D01*
X168262124Y212109981D01*
X168190516Y212088955D01*
X168190513Y212088954D01*
X168183315Y212086841D01*
X168181906Y212086638D01*
X168174397Y212086638D01*
X168138753Y212086638D01*
X168130528Y212085991D01*
X168114464Y212083446D01*
X168114285Y212083013D01*
X168110749Y212081549D01*
X168102486Y212081549D01*
X167577379Y212081549D01*
X167560749Y212081549D01*
X167557213Y212083013D01*
X167555749Y212086549D01*
X167555749Y213586549D01*
X167557213Y213590085D01*
X167560749Y213591549D01*
X168110749Y213591549D01*
X168114285Y213590085D01*
G37*
G36*
X167310749Y212086549D02*
G01*
X167300405Y212086549D01*
X166321090Y212086549D01*
X166310749Y212086549D01*
X166310749Y213586549D01*
X167310749Y213586549D01*
X167310749Y212086549D01*
G37*
G36*
X235425456Y216359185D02*
G01*
X235517497Y216352944D01*
X235539080Y216347576D01*
X235570084Y216344409D01*
X235625030Y216326202D01*
X235676839Y216313318D01*
X235702862Y216300411D01*
X235735385Y216289635D01*
X235779678Y216262314D01*
X235822012Y216241319D01*
X235849370Y216219327D01*
X235883598Y216198216D01*
X235916225Y216165588D01*
X235948313Y216139796D01*
X235974105Y216107708D01*
X236006733Y216075081D01*
X236027844Y216040853D01*
X236049836Y216013495D01*
X236070831Y215971161D01*
X236098152Y215926868D01*
X236108928Y215894345D01*
X236121835Y215868322D01*
X236134719Y215816513D01*
X236152926Y215761567D01*
X236156093Y215730563D01*
X236161461Y215708980D01*
X236167702Y215616939D01*
X236168421Y215609904D01*
X236168421Y213109904D01*
X236167702Y213102870D01*
X236161461Y213010827D01*
X236156093Y212989243D01*
X236152926Y212958241D01*
X236134720Y212903297D01*
X236121835Y212851485D01*
X236108927Y212825459D01*
X236098152Y212792940D01*
X236070834Y212748650D01*
X236049836Y212706312D01*
X236027842Y212678950D01*
X236006733Y212644727D01*
X235974109Y212612103D01*
X235948313Y212580011D01*
X235916220Y212554214D01*
X235883598Y212521592D01*
X235849375Y212500483D01*
X235822012Y212478488D01*
X235779670Y212457488D01*
X235735385Y212430173D01*
X235702868Y212419398D01*
X235676839Y212406489D01*
X235625017Y212393601D01*
X235570084Y212375399D01*
X235539087Y212372232D01*
X235517497Y212366863D01*
X235425427Y212360619D01*
X235418421Y212359904D01*
X235414871Y212359904D01*
X233921970Y212359904D01*
X233918421Y212359904D01*
X233911416Y212360619D01*
X233819344Y212366863D01*
X233797753Y212372232D01*
X233766758Y212375399D01*
X233711827Y212393600D01*
X233660002Y212406489D01*
X233633970Y212419399D01*
X233601457Y212430173D01*
X233557176Y212457485D01*
X233514829Y212478488D01*
X233487462Y212500485D01*
X233453244Y212521592D01*
X233420625Y212554210D01*
X233388528Y212580011D01*
X233362727Y212612108D01*
X233330109Y212644727D01*
X233309002Y212678945D01*
X233287005Y212706312D01*
X233266002Y212748659D01*
X233238690Y212792940D01*
X233227916Y212825453D01*
X233215006Y212851485D01*
X233202117Y212903310D01*
X233183916Y212958241D01*
X233180749Y212989236D01*
X233175380Y213010827D01*
X233169136Y213102899D01*
X233168421Y213109904D01*
X233168421Y215609904D01*
X233169136Y215616910D01*
X233175380Y215708980D01*
X233180749Y215730570D01*
X233183916Y215761567D01*
X233202118Y215816500D01*
X233215006Y215868322D01*
X233227915Y215894351D01*
X233238690Y215926868D01*
X233266005Y215971153D01*
X233287005Y216013495D01*
X233309000Y216040858D01*
X233330109Y216075081D01*
X233362731Y216107703D01*
X233388528Y216139796D01*
X233420620Y216165592D01*
X233453244Y216198216D01*
X233487467Y216219325D01*
X233514829Y216241319D01*
X233557167Y216262317D01*
X233601457Y216289635D01*
X233633976Y216300410D01*
X233660002Y216313318D01*
X233711814Y216326203D01*
X233766758Y216344409D01*
X233797760Y216347576D01*
X233819344Y216352944D01*
X233911387Y216359185D01*
X233918421Y216359904D01*
X235418421Y216359904D01*
X235425456Y216359185D01*
G37*
G36*
X194732343Y216400822D02*
G01*
X194824384Y216394581D01*
X194845967Y216389213D01*
X194876971Y216386046D01*
X194931917Y216367839D01*
X194983726Y216354955D01*
X195009749Y216342048D01*
X195042272Y216331272D01*
X195086565Y216303951D01*
X195128899Y216282956D01*
X195156257Y216260964D01*
X195190485Y216239853D01*
X195223112Y216207225D01*
X195255200Y216181433D01*
X195280992Y216149345D01*
X195313620Y216116718D01*
X195334731Y216082490D01*
X195356723Y216055132D01*
X195377718Y216012798D01*
X195405039Y215968505D01*
X195415815Y215935982D01*
X195428722Y215909959D01*
X195441606Y215858150D01*
X195459813Y215803204D01*
X195462980Y215772200D01*
X195468348Y215750617D01*
X195474589Y215658576D01*
X195475308Y215651541D01*
X195475308Y213151541D01*
X195474589Y213144507D01*
X195468348Y213052464D01*
X195462980Y213030880D01*
X195459813Y212999878D01*
X195441607Y212944934D01*
X195428722Y212893122D01*
X195415814Y212867096D01*
X195405039Y212834577D01*
X195377721Y212790287D01*
X195356723Y212747949D01*
X195334729Y212720587D01*
X195313620Y212686364D01*
X195280996Y212653740D01*
X195255200Y212621648D01*
X195223107Y212595851D01*
X195190485Y212563229D01*
X195156262Y212542120D01*
X195128899Y212520125D01*
X195086557Y212499125D01*
X195042272Y212471810D01*
X195009755Y212461035D01*
X194983726Y212448126D01*
X194931904Y212435238D01*
X194876971Y212417036D01*
X194845974Y212413869D01*
X194824384Y212408500D01*
X194732314Y212402256D01*
X194725308Y212401541D01*
X194721758Y212401541D01*
X193228857Y212401541D01*
X193225308Y212401541D01*
X193218303Y212402256D01*
X193126231Y212408500D01*
X193104640Y212413869D01*
X193073645Y212417036D01*
X193018714Y212435237D01*
X192966889Y212448126D01*
X192940857Y212461036D01*
X192908344Y212471810D01*
X192864063Y212499122D01*
X192821716Y212520125D01*
X192794349Y212542122D01*
X192760131Y212563229D01*
X192727512Y212595847D01*
X192695415Y212621648D01*
X192669614Y212653745D01*
X192636996Y212686364D01*
X192615889Y212720582D01*
X192593892Y212747949D01*
X192572889Y212790296D01*
X192545577Y212834577D01*
X192534803Y212867090D01*
X192521893Y212893122D01*
X192509004Y212944947D01*
X192490803Y212999878D01*
X192487636Y213030873D01*
X192482267Y213052464D01*
X192476023Y213144536D01*
X192475308Y213151541D01*
X192475308Y215651541D01*
X192476023Y215658547D01*
X192482267Y215750617D01*
X192487636Y215772207D01*
X192490803Y215803204D01*
X192509005Y215858137D01*
X192521893Y215909959D01*
X192534802Y215935988D01*
X192545577Y215968505D01*
X192572892Y216012790D01*
X192593892Y216055132D01*
X192615887Y216082495D01*
X192636996Y216116718D01*
X192669618Y216149340D01*
X192695415Y216181433D01*
X192727507Y216207229D01*
X192760131Y216239853D01*
X192794354Y216260962D01*
X192821716Y216282956D01*
X192864054Y216303954D01*
X192908344Y216331272D01*
X192940863Y216342047D01*
X192966889Y216354955D01*
X193018701Y216367840D01*
X193073645Y216386046D01*
X193104647Y216389213D01*
X193126231Y216394581D01*
X193218274Y216400822D01*
X193225308Y216401541D01*
X194725308Y216401541D01*
X194732343Y216400822D01*
G37*
G36*
X238962195Y216843843D02*
G01*
X239054236Y216837602D01*
X239075819Y216832234D01*
X239106823Y216829067D01*
X239161769Y216810860D01*
X239213578Y216797976D01*
X239239601Y216785069D01*
X239272124Y216774293D01*
X239316417Y216746972D01*
X239358751Y216725977D01*
X239386109Y216703985D01*
X239420337Y216682874D01*
X239452964Y216650246D01*
X239485052Y216624454D01*
X239510844Y216592366D01*
X239543472Y216559739D01*
X239564583Y216525511D01*
X239586575Y216498153D01*
X239607570Y216455819D01*
X239634891Y216411526D01*
X239645667Y216379003D01*
X239658574Y216352980D01*
X239671458Y216301171D01*
X239689665Y216246225D01*
X239692832Y216215221D01*
X239698200Y216193638D01*
X239704441Y216101597D01*
X239705160Y216094562D01*
X239705160Y213594562D01*
X239704441Y213587528D01*
X239698200Y213495485D01*
X239692832Y213473901D01*
X239689665Y213442899D01*
X239671459Y213387955D01*
X239658574Y213336143D01*
X239645666Y213310117D01*
X239634891Y213277598D01*
X239607573Y213233308D01*
X239586575Y213190970D01*
X239564581Y213163608D01*
X239543472Y213129385D01*
X239510848Y213096761D01*
X239485052Y213064669D01*
X239452959Y213038872D01*
X239420337Y213006250D01*
X239386114Y212985141D01*
X239358751Y212963146D01*
X239316409Y212942146D01*
X239272124Y212914831D01*
X239239607Y212904056D01*
X239213578Y212891147D01*
X239161756Y212878259D01*
X239106823Y212860057D01*
X239075826Y212856890D01*
X239054236Y212851521D01*
X238962166Y212845277D01*
X238955160Y212844562D01*
X238951610Y212844562D01*
X237458709Y212844562D01*
X237455160Y212844562D01*
X237448155Y212845277D01*
X237356083Y212851521D01*
X237334492Y212856890D01*
X237303497Y212860057D01*
X237248566Y212878258D01*
X237196741Y212891147D01*
X237170709Y212904057D01*
X237138196Y212914831D01*
X237093915Y212942143D01*
X237051568Y212963146D01*
X237024201Y212985143D01*
X236989983Y213006250D01*
X236957364Y213038868D01*
X236925267Y213064669D01*
X236899466Y213096766D01*
X236866848Y213129385D01*
X236845741Y213163603D01*
X236823744Y213190970D01*
X236802741Y213233317D01*
X236775429Y213277598D01*
X236764655Y213310111D01*
X236751745Y213336143D01*
X236738856Y213387968D01*
X236720655Y213442899D01*
X236717488Y213473894D01*
X236712119Y213495485D01*
X236705875Y213587557D01*
X236705160Y213594562D01*
X236705160Y216094562D01*
X236705875Y216101568D01*
X236712119Y216193638D01*
X236717488Y216215228D01*
X236720655Y216246225D01*
X236738857Y216301158D01*
X236751745Y216352980D01*
X236764654Y216379009D01*
X236775429Y216411526D01*
X236802744Y216455811D01*
X236823744Y216498153D01*
X236845739Y216525516D01*
X236866848Y216559739D01*
X236899470Y216592361D01*
X236925267Y216624454D01*
X236957359Y216650250D01*
X236989983Y216682874D01*
X237024206Y216703983D01*
X237051568Y216725977D01*
X237093906Y216746975D01*
X237138196Y216774293D01*
X237170715Y216785068D01*
X237196741Y216797976D01*
X237248553Y216810861D01*
X237303497Y216829067D01*
X237334499Y216832234D01*
X237356083Y216837602D01*
X237448126Y216843843D01*
X237455160Y216844562D01*
X238955160Y216844562D01*
X238962195Y216843843D01*
G37*
G36*
X242655438Y216850367D02*
G01*
X242747479Y216844126D01*
X242769062Y216838758D01*
X242800066Y216835591D01*
X242855012Y216817384D01*
X242906821Y216804500D01*
X242932844Y216791593D01*
X242965367Y216780817D01*
X243009660Y216753496D01*
X243051994Y216732501D01*
X243079352Y216710509D01*
X243113580Y216689398D01*
X243146207Y216656770D01*
X243178295Y216630978D01*
X243204087Y216598890D01*
X243236715Y216566263D01*
X243257826Y216532035D01*
X243279818Y216504677D01*
X243300813Y216462343D01*
X243328134Y216418050D01*
X243338910Y216385527D01*
X243351817Y216359504D01*
X243364701Y216307695D01*
X243382908Y216252749D01*
X243386075Y216221745D01*
X243391443Y216200162D01*
X243397684Y216108121D01*
X243398403Y216101086D01*
X243398403Y213601086D01*
X243397684Y213594052D01*
X243391443Y213502009D01*
X243386075Y213480425D01*
X243382908Y213449423D01*
X243364702Y213394479D01*
X243351817Y213342667D01*
X243338909Y213316641D01*
X243328134Y213284122D01*
X243300816Y213239832D01*
X243279818Y213197494D01*
X243257824Y213170132D01*
X243236715Y213135909D01*
X243204091Y213103285D01*
X243178295Y213071193D01*
X243146202Y213045396D01*
X243113580Y213012774D01*
X243079357Y212991665D01*
X243051994Y212969670D01*
X243009652Y212948670D01*
X242965367Y212921355D01*
X242932850Y212910580D01*
X242906821Y212897671D01*
X242854999Y212884783D01*
X242800066Y212866581D01*
X242769069Y212863414D01*
X242747479Y212858045D01*
X242655409Y212851801D01*
X242648403Y212851086D01*
X242644853Y212851086D01*
X241151952Y212851086D01*
X241148403Y212851086D01*
X241141398Y212851801D01*
X241049326Y212858045D01*
X241027735Y212863414D01*
X240996740Y212866581D01*
X240941809Y212884782D01*
X240889984Y212897671D01*
X240863952Y212910581D01*
X240831439Y212921355D01*
X240787158Y212948667D01*
X240744811Y212969670D01*
X240717444Y212991667D01*
X240683226Y213012774D01*
X240650607Y213045392D01*
X240618510Y213071193D01*
X240592709Y213103290D01*
X240560091Y213135909D01*
X240538984Y213170127D01*
X240516987Y213197494D01*
X240495984Y213239841D01*
X240468672Y213284122D01*
X240457898Y213316635D01*
X240444988Y213342667D01*
X240432099Y213394492D01*
X240413898Y213449423D01*
X240410731Y213480418D01*
X240405362Y213502009D01*
X240399118Y213594081D01*
X240398403Y213601086D01*
X240398403Y216101086D01*
X240399118Y216108092D01*
X240405362Y216200162D01*
X240410731Y216221752D01*
X240413898Y216252749D01*
X240432100Y216307682D01*
X240444988Y216359504D01*
X240457897Y216385533D01*
X240468672Y216418050D01*
X240495987Y216462335D01*
X240516987Y216504677D01*
X240538982Y216532040D01*
X240560091Y216566263D01*
X240592713Y216598885D01*
X240618510Y216630978D01*
X240650602Y216656774D01*
X240683226Y216689398D01*
X240717449Y216710507D01*
X240744811Y216732501D01*
X240787149Y216753499D01*
X240831439Y216780817D01*
X240863958Y216791592D01*
X240889984Y216804500D01*
X240941796Y216817385D01*
X240996740Y216835591D01*
X241027742Y216838758D01*
X241049326Y216844126D01*
X241141369Y216850367D01*
X241148403Y216851086D01*
X242648403Y216851086D01*
X242655438Y216850367D01*
G37*
G36*
X198222406Y216859185D02*
G01*
X198314447Y216852944D01*
X198336030Y216847576D01*
X198367034Y216844409D01*
X198421980Y216826202D01*
X198473789Y216813318D01*
X198499812Y216800411D01*
X198532335Y216789635D01*
X198576628Y216762314D01*
X198618962Y216741319D01*
X198646320Y216719327D01*
X198680548Y216698216D01*
X198713175Y216665588D01*
X198745263Y216639796D01*
X198771055Y216607708D01*
X198803683Y216575081D01*
X198824794Y216540853D01*
X198846786Y216513495D01*
X198867781Y216471161D01*
X198895102Y216426868D01*
X198905878Y216394345D01*
X198918785Y216368322D01*
X198931669Y216316513D01*
X198949876Y216261567D01*
X198953043Y216230563D01*
X198958411Y216208980D01*
X198964652Y216116939D01*
X198965371Y216109904D01*
X198965371Y213609904D01*
X198964652Y213602870D01*
X198958411Y213510827D01*
X198953043Y213489243D01*
X198949876Y213458241D01*
X198931670Y213403297D01*
X198918785Y213351485D01*
X198905877Y213325459D01*
X198895102Y213292940D01*
X198867784Y213248650D01*
X198846786Y213206312D01*
X198824792Y213178950D01*
X198803683Y213144727D01*
X198771059Y213112103D01*
X198745263Y213080011D01*
X198713170Y213054214D01*
X198680548Y213021592D01*
X198646325Y213000483D01*
X198618962Y212978488D01*
X198576620Y212957488D01*
X198532335Y212930173D01*
X198499818Y212919398D01*
X198473789Y212906489D01*
X198421967Y212893601D01*
X198367034Y212875399D01*
X198336037Y212872232D01*
X198314447Y212866863D01*
X198222377Y212860619D01*
X198215371Y212859904D01*
X198211821Y212859904D01*
X196718920Y212859904D01*
X196715371Y212859904D01*
X196708366Y212860619D01*
X196616294Y212866863D01*
X196594703Y212872232D01*
X196563708Y212875399D01*
X196508777Y212893600D01*
X196456952Y212906489D01*
X196430920Y212919399D01*
X196398407Y212930173D01*
X196354126Y212957485D01*
X196311779Y212978488D01*
X196284412Y213000485D01*
X196250194Y213021592D01*
X196217575Y213054210D01*
X196185478Y213080011D01*
X196159677Y213112108D01*
X196127059Y213144727D01*
X196105952Y213178945D01*
X196083955Y213206312D01*
X196062952Y213248659D01*
X196035640Y213292940D01*
X196024866Y213325453D01*
X196011956Y213351485D01*
X195999067Y213403310D01*
X195980866Y213458241D01*
X195977699Y213489236D01*
X195972330Y213510827D01*
X195966086Y213602899D01*
X195965371Y213609904D01*
X195965371Y216109904D01*
X195966086Y216116910D01*
X195972330Y216208980D01*
X195977699Y216230570D01*
X195980866Y216261567D01*
X195999068Y216316500D01*
X196011956Y216368322D01*
X196024865Y216394351D01*
X196035640Y216426868D01*
X196062955Y216471153D01*
X196083955Y216513495D01*
X196105950Y216540858D01*
X196127059Y216575081D01*
X196159681Y216607703D01*
X196185478Y216639796D01*
X196217570Y216665592D01*
X196250194Y216698216D01*
X196284417Y216719325D01*
X196311779Y216741319D01*
X196354117Y216762317D01*
X196398407Y216789635D01*
X196430926Y216800410D01*
X196456952Y216813318D01*
X196508764Y216826203D01*
X196563708Y216844409D01*
X196594710Y216847576D01*
X196616294Y216852944D01*
X196708337Y216859185D01*
X196715371Y216859904D01*
X198215371Y216859904D01*
X198222406Y216859185D01*
G37*
G36*
X201696908Y216868877D02*
G01*
X201788949Y216862636D01*
X201810532Y216857268D01*
X201841536Y216854101D01*
X201896482Y216835894D01*
X201948291Y216823010D01*
X201974314Y216810103D01*
X202006837Y216799327D01*
X202051130Y216772006D01*
X202093464Y216751011D01*
X202120822Y216729019D01*
X202155050Y216707908D01*
X202187677Y216675280D01*
X202219765Y216649488D01*
X202245557Y216617400D01*
X202278185Y216584773D01*
X202299296Y216550545D01*
X202321288Y216523187D01*
X202342283Y216480853D01*
X202369604Y216436560D01*
X202380380Y216404037D01*
X202393287Y216378014D01*
X202406171Y216326205D01*
X202424378Y216271259D01*
X202427545Y216240255D01*
X202432913Y216218672D01*
X202439154Y216126631D01*
X202439873Y216119596D01*
X202439873Y213619596D01*
X202439154Y213612562D01*
X202432913Y213520519D01*
X202427545Y213498935D01*
X202424378Y213467933D01*
X202406172Y213412989D01*
X202393287Y213361177D01*
X202380379Y213335151D01*
X202369604Y213302632D01*
X202342286Y213258342D01*
X202321288Y213216004D01*
X202299294Y213188642D01*
X202278185Y213154419D01*
X202245561Y213121795D01*
X202219765Y213089703D01*
X202187672Y213063906D01*
X202155050Y213031284D01*
X202120827Y213010175D01*
X202093464Y212988180D01*
X202051122Y212967180D01*
X202006837Y212939865D01*
X201974320Y212929090D01*
X201948291Y212916181D01*
X201896469Y212903293D01*
X201841536Y212885091D01*
X201810539Y212881924D01*
X201788949Y212876555D01*
X201696879Y212870311D01*
X201689873Y212869596D01*
X201686323Y212869596D01*
X200193422Y212869596D01*
X200189873Y212869596D01*
X200182868Y212870311D01*
X200090796Y212876555D01*
X200069205Y212881924D01*
X200038210Y212885091D01*
X199983279Y212903292D01*
X199931454Y212916181D01*
X199905422Y212929091D01*
X199872909Y212939865D01*
X199828628Y212967177D01*
X199786281Y212988180D01*
X199758914Y213010177D01*
X199724696Y213031284D01*
X199692077Y213063902D01*
X199659980Y213089703D01*
X199634179Y213121800D01*
X199601561Y213154419D01*
X199580454Y213188637D01*
X199558457Y213216004D01*
X199537454Y213258351D01*
X199510142Y213302632D01*
X199499368Y213335145D01*
X199486458Y213361177D01*
X199473569Y213413002D01*
X199455368Y213467933D01*
X199452201Y213498928D01*
X199446832Y213520519D01*
X199440588Y213612591D01*
X199439873Y213619596D01*
X199439873Y216119596D01*
X199440588Y216126602D01*
X199446832Y216218672D01*
X199452201Y216240262D01*
X199455368Y216271259D01*
X199473570Y216326192D01*
X199486458Y216378014D01*
X199499367Y216404043D01*
X199510142Y216436560D01*
X199537457Y216480845D01*
X199558457Y216523187D01*
X199580452Y216550550D01*
X199601561Y216584773D01*
X199634183Y216617395D01*
X199659980Y216649488D01*
X199692072Y216675284D01*
X199724696Y216707908D01*
X199758919Y216729017D01*
X199786281Y216751011D01*
X199828619Y216772009D01*
X199872909Y216799327D01*
X199905428Y216810102D01*
X199931454Y216823010D01*
X199983266Y216835895D01*
X200038210Y216854101D01*
X200069212Y216857268D01*
X200090796Y216862636D01*
X200182839Y216868877D01*
X200189873Y216869596D01*
X201689873Y216869596D01*
X201696908Y216868877D01*
G37*
G36*
X163878427Y215893210D02*
G01*
X163922793Y215893210D01*
X163972201Y215883973D01*
X164025656Y215878709D01*
X164066267Y215866389D01*
X164104103Y215859317D01*
X164156500Y215839018D01*
X164213249Y215821804D01*
X164245673Y215804472D01*
X164276104Y215792684D01*
X164328979Y215759944D01*
X164386136Y215729394D01*
X164410151Y215709685D01*
X164432932Y215695580D01*
X164483408Y215649564D01*
X164537673Y215605031D01*
X164553753Y215585436D01*
X164569241Y215571318D01*
X164614200Y215511781D01*
X164662036Y215453494D01*
X164671286Y215436187D01*
X164680401Y215424118D01*
X164716666Y215351287D01*
X164754446Y215280607D01*
X164758474Y215267325D01*
X164762618Y215259005D01*
X164787089Y215172993D01*
X164811351Y215093014D01*
X164812148Y215084920D01*
X164813096Y215081589D01*
X164822956Y214975186D01*
X164830566Y214897924D01*
X164822956Y214820667D01*
X164813096Y214714258D01*
X164812148Y214710926D01*
X164811351Y214702834D01*
X164787094Y214622870D01*
X164762618Y214536842D01*
X164758474Y214528519D01*
X164754446Y214515241D01*
X164716673Y214444574D01*
X164680401Y214371729D01*
X164671284Y214359656D01*
X164662036Y214342354D01*
X164614210Y214284078D01*
X164569241Y214224529D01*
X164553750Y214210407D01*
X164537673Y214190817D01*
X164483419Y214146292D01*
X164432932Y214100267D01*
X164410146Y214086158D01*
X164386136Y214066454D01*
X164328991Y214035909D01*
X164276104Y214003163D01*
X164245666Y213991371D01*
X164213249Y213974044D01*
X164156512Y213956833D01*
X164104103Y213936530D01*
X164066261Y213929456D01*
X164025656Y213917139D01*
X163972204Y213911874D01*
X163922793Y213902638D01*
X163878427Y213902638D01*
X163830566Y213897924D01*
X163782705Y213902638D01*
X163738339Y213902638D01*
X163688927Y213911874D01*
X163635476Y213917139D01*
X163594872Y213929455D01*
X163557028Y213936530D01*
X163504614Y213956834D01*
X163447883Y213974044D01*
X163415467Y213991370D01*
X163385027Y214003163D01*
X163332133Y214035913D01*
X163274996Y214066454D01*
X163250989Y214086155D01*
X163228199Y214100267D01*
X163177702Y214146300D01*
X163123459Y214190817D01*
X163107384Y214210404D01*
X163091890Y214224529D01*
X163046909Y214284093D01*
X162999096Y214342354D01*
X162989849Y214359652D01*
X162980730Y214371729D01*
X162944443Y214444601D01*
X162906686Y214515241D01*
X162902659Y214528514D01*
X162898513Y214536842D01*
X162874021Y214622923D01*
X162849781Y214702834D01*
X162848984Y214710920D01*
X162848035Y214714258D01*
X162838158Y214820839D01*
X162830566Y214897924D01*
X162838158Y214975014D01*
X162848035Y215081589D01*
X162848984Y215084925D01*
X162849781Y215093014D01*
X162874025Y215172939D01*
X162898513Y215259005D01*
X162902658Y215267330D01*
X162906686Y215280607D01*
X162944450Y215351260D01*
X162980730Y215424118D01*
X162989848Y215436192D01*
X162999096Y215453494D01*
X163046918Y215511766D01*
X163091890Y215571318D01*
X163107381Y215585440D01*
X163123459Y215605031D01*
X163177713Y215649556D01*
X163228199Y215695580D01*
X163250984Y215709687D01*
X163274996Y215729394D01*
X163332144Y215759940D01*
X163385027Y215792684D01*
X163415461Y215804474D01*
X163447883Y215821804D01*
X163504626Y215839016D01*
X163557028Y215859317D01*
X163594865Y215866390D01*
X163635476Y215878709D01*
X163688930Y215883973D01*
X163738339Y215893210D01*
X163782705Y215893210D01*
X163830566Y215897924D01*
X163878427Y215893210D01*
G37*
G36*
X170378427Y215893210D02*
G01*
X170422793Y215893210D01*
X170472201Y215883973D01*
X170525656Y215878709D01*
X170566267Y215866389D01*
X170604103Y215859317D01*
X170656500Y215839018D01*
X170713249Y215821804D01*
X170745673Y215804472D01*
X170776104Y215792684D01*
X170828979Y215759944D01*
X170886136Y215729394D01*
X170910151Y215709685D01*
X170932932Y215695580D01*
X170983408Y215649564D01*
X171037673Y215605031D01*
X171053753Y215585436D01*
X171069241Y215571318D01*
X171114200Y215511781D01*
X171162036Y215453494D01*
X171171286Y215436187D01*
X171180401Y215424118D01*
X171216666Y215351287D01*
X171254446Y215280607D01*
X171258474Y215267325D01*
X171262618Y215259005D01*
X171287089Y215172993D01*
X171311351Y215093014D01*
X171312148Y215084920D01*
X171313096Y215081589D01*
X171322956Y214975186D01*
X171330566Y214897924D01*
X171322956Y214820667D01*
X171313096Y214714258D01*
X171312148Y214710926D01*
X171311351Y214702834D01*
X171287094Y214622870D01*
X171262618Y214536842D01*
X171258474Y214528519D01*
X171254446Y214515241D01*
X171216673Y214444574D01*
X171180401Y214371729D01*
X171171284Y214359656D01*
X171162036Y214342354D01*
X171114210Y214284078D01*
X171069241Y214224529D01*
X171053750Y214210407D01*
X171037673Y214190817D01*
X170983419Y214146292D01*
X170932932Y214100267D01*
X170910146Y214086158D01*
X170886136Y214066454D01*
X170828991Y214035909D01*
X170776104Y214003163D01*
X170745666Y213991371D01*
X170713249Y213974044D01*
X170656512Y213956833D01*
X170604103Y213936530D01*
X170566261Y213929456D01*
X170525656Y213917139D01*
X170472204Y213911874D01*
X170422793Y213902638D01*
X170378427Y213902638D01*
X170330566Y213897924D01*
X170282705Y213902638D01*
X170238339Y213902638D01*
X170188927Y213911874D01*
X170135476Y213917139D01*
X170094872Y213929455D01*
X170057028Y213936530D01*
X170004614Y213956834D01*
X169947883Y213974044D01*
X169915467Y213991370D01*
X169885027Y214003163D01*
X169832133Y214035913D01*
X169774996Y214066454D01*
X169750989Y214086155D01*
X169728199Y214100267D01*
X169677702Y214146300D01*
X169623459Y214190817D01*
X169607384Y214210404D01*
X169591890Y214224529D01*
X169546909Y214284093D01*
X169499096Y214342354D01*
X169489849Y214359652D01*
X169480730Y214371729D01*
X169444443Y214444601D01*
X169406686Y214515241D01*
X169402659Y214528514D01*
X169398513Y214536842D01*
X169374021Y214622923D01*
X169349781Y214702834D01*
X169348984Y214710920D01*
X169348035Y214714258D01*
X169338158Y214820839D01*
X169330566Y214897924D01*
X169338158Y214975014D01*
X169348035Y215081589D01*
X169348984Y215084925D01*
X169349781Y215093014D01*
X169374025Y215172939D01*
X169398513Y215259005D01*
X169402658Y215267330D01*
X169406686Y215280607D01*
X169444450Y215351260D01*
X169480730Y215424118D01*
X169489848Y215436192D01*
X169499096Y215453494D01*
X169546918Y215511766D01*
X169591890Y215571318D01*
X169607381Y215585440D01*
X169623459Y215605031D01*
X169677713Y215649556D01*
X169728199Y215695580D01*
X169750984Y215709687D01*
X169774996Y215729394D01*
X169832144Y215759940D01*
X169885027Y215792684D01*
X169915461Y215804474D01*
X169947883Y215821804D01*
X170004626Y215839016D01*
X170057028Y215859317D01*
X170094865Y215866390D01*
X170135476Y215878709D01*
X170188930Y215883973D01*
X170238339Y215893210D01*
X170282705Y215893210D01*
X170330566Y215897924D01*
X170378427Y215893210D01*
G37*
G36*
X184198427Y215893210D02*
G01*
X184242793Y215893210D01*
X184292201Y215883973D01*
X184345656Y215878709D01*
X184386267Y215866389D01*
X184424103Y215859317D01*
X184476500Y215839018D01*
X184533249Y215821804D01*
X184565673Y215804472D01*
X184596104Y215792684D01*
X184648979Y215759944D01*
X184706136Y215729394D01*
X184730151Y215709685D01*
X184752932Y215695580D01*
X184803408Y215649564D01*
X184857673Y215605031D01*
X184873753Y215585436D01*
X184889241Y215571318D01*
X184934200Y215511781D01*
X184982036Y215453494D01*
X184991286Y215436187D01*
X185000401Y215424118D01*
X185036666Y215351287D01*
X185074446Y215280607D01*
X185078474Y215267325D01*
X185082618Y215259005D01*
X185107089Y215172993D01*
X185131351Y215093014D01*
X185132148Y215084920D01*
X185133096Y215081589D01*
X185142956Y214975186D01*
X185150566Y214897924D01*
X185142956Y214820667D01*
X185133096Y214714258D01*
X185132148Y214710926D01*
X185131351Y214702834D01*
X185107094Y214622870D01*
X185082618Y214536842D01*
X185078474Y214528519D01*
X185074446Y214515241D01*
X185036673Y214444574D01*
X185000401Y214371729D01*
X184991284Y214359656D01*
X184982036Y214342354D01*
X184934210Y214284078D01*
X184889241Y214224529D01*
X184873750Y214210407D01*
X184857673Y214190817D01*
X184803419Y214146292D01*
X184752932Y214100267D01*
X184730146Y214086158D01*
X184706136Y214066454D01*
X184648991Y214035909D01*
X184596104Y214003163D01*
X184565666Y213991371D01*
X184533249Y213974044D01*
X184476512Y213956833D01*
X184424103Y213936530D01*
X184386261Y213929456D01*
X184345656Y213917139D01*
X184292204Y213911874D01*
X184242793Y213902638D01*
X184198427Y213902638D01*
X184150566Y213897924D01*
X184102705Y213902638D01*
X184058339Y213902638D01*
X184008927Y213911874D01*
X183955476Y213917139D01*
X183914872Y213929455D01*
X183877028Y213936530D01*
X183824614Y213956834D01*
X183767883Y213974044D01*
X183735467Y213991370D01*
X183705027Y214003163D01*
X183652133Y214035913D01*
X183594996Y214066454D01*
X183570989Y214086155D01*
X183548199Y214100267D01*
X183497702Y214146300D01*
X183443459Y214190817D01*
X183427384Y214210404D01*
X183411890Y214224529D01*
X183366909Y214284093D01*
X183319096Y214342354D01*
X183309849Y214359652D01*
X183300730Y214371729D01*
X183264443Y214444601D01*
X183226686Y214515241D01*
X183222659Y214528514D01*
X183218513Y214536842D01*
X183194021Y214622923D01*
X183169781Y214702834D01*
X183168984Y214710920D01*
X183168035Y214714258D01*
X183158158Y214820839D01*
X183150566Y214897924D01*
X183158158Y214975014D01*
X183168035Y215081589D01*
X183168984Y215084925D01*
X183169781Y215093014D01*
X183194025Y215172939D01*
X183218513Y215259005D01*
X183222658Y215267330D01*
X183226686Y215280607D01*
X183264450Y215351260D01*
X183300730Y215424118D01*
X183309848Y215436192D01*
X183319096Y215453494D01*
X183366918Y215511766D01*
X183411890Y215571318D01*
X183427381Y215585440D01*
X183443459Y215605031D01*
X183497713Y215649556D01*
X183548199Y215695580D01*
X183570984Y215709687D01*
X183594996Y215729394D01*
X183652144Y215759940D01*
X183705027Y215792684D01*
X183735461Y215804474D01*
X183767883Y215821804D01*
X183824626Y215839016D01*
X183877028Y215859317D01*
X183914865Y215866390D01*
X183955476Y215878709D01*
X184008930Y215883973D01*
X184058339Y215893210D01*
X184102705Y215893210D01*
X184150566Y215897924D01*
X184198427Y215893210D01*
G37*
G36*
X190698427Y215893210D02*
G01*
X190742793Y215893210D01*
X190792201Y215883973D01*
X190845656Y215878709D01*
X190886267Y215866389D01*
X190924103Y215859317D01*
X190976500Y215839018D01*
X191033249Y215821804D01*
X191065673Y215804472D01*
X191096104Y215792684D01*
X191148979Y215759944D01*
X191206136Y215729394D01*
X191230151Y215709685D01*
X191252932Y215695580D01*
X191303408Y215649564D01*
X191357673Y215605031D01*
X191373753Y215585436D01*
X191389241Y215571318D01*
X191434200Y215511781D01*
X191482036Y215453494D01*
X191491286Y215436187D01*
X191500401Y215424118D01*
X191536666Y215351287D01*
X191574446Y215280607D01*
X191578474Y215267325D01*
X191582618Y215259005D01*
X191607089Y215172993D01*
X191631351Y215093014D01*
X191632148Y215084920D01*
X191633096Y215081589D01*
X191642956Y214975186D01*
X191650566Y214897924D01*
X191642956Y214820667D01*
X191633096Y214714258D01*
X191632148Y214710926D01*
X191631351Y214702834D01*
X191607094Y214622870D01*
X191582618Y214536842D01*
X191578474Y214528519D01*
X191574446Y214515241D01*
X191536673Y214444574D01*
X191500401Y214371729D01*
X191491284Y214359656D01*
X191482036Y214342354D01*
X191434210Y214284078D01*
X191389241Y214224529D01*
X191373750Y214210407D01*
X191357673Y214190817D01*
X191303419Y214146292D01*
X191252932Y214100267D01*
X191230146Y214086158D01*
X191206136Y214066454D01*
X191148991Y214035909D01*
X191096104Y214003163D01*
X191065666Y213991371D01*
X191033249Y213974044D01*
X190976512Y213956833D01*
X190924103Y213936530D01*
X190886261Y213929456D01*
X190845656Y213917139D01*
X190792204Y213911874D01*
X190742793Y213902638D01*
X190698427Y213902638D01*
X190650566Y213897924D01*
X190602705Y213902638D01*
X190558339Y213902638D01*
X190508927Y213911874D01*
X190455476Y213917139D01*
X190414872Y213929455D01*
X190377028Y213936530D01*
X190324614Y213956834D01*
X190267883Y213974044D01*
X190235467Y213991370D01*
X190205027Y214003163D01*
X190152133Y214035913D01*
X190094996Y214066454D01*
X190070989Y214086155D01*
X190048199Y214100267D01*
X189997702Y214146300D01*
X189943459Y214190817D01*
X189927384Y214210404D01*
X189911890Y214224529D01*
X189866909Y214284093D01*
X189819096Y214342354D01*
X189809849Y214359652D01*
X189800730Y214371729D01*
X189764443Y214444601D01*
X189726686Y214515241D01*
X189722659Y214528514D01*
X189718513Y214536842D01*
X189694021Y214622923D01*
X189669781Y214702834D01*
X189668984Y214710920D01*
X189668035Y214714258D01*
X189658158Y214820839D01*
X189650566Y214897924D01*
X189658158Y214975014D01*
X189668035Y215081589D01*
X189668984Y215084925D01*
X189669781Y215093014D01*
X189694025Y215172939D01*
X189718513Y215259005D01*
X189722658Y215267330D01*
X189726686Y215280607D01*
X189764450Y215351260D01*
X189800730Y215424118D01*
X189809848Y215436192D01*
X189819096Y215453494D01*
X189866918Y215511766D01*
X189911890Y215571318D01*
X189927381Y215585440D01*
X189943459Y215605031D01*
X189997713Y215649556D01*
X190048199Y215695580D01*
X190070984Y215709687D01*
X190094996Y215729394D01*
X190152144Y215759940D01*
X190205027Y215792684D01*
X190235461Y215804474D01*
X190267883Y215821804D01*
X190324626Y215839016D01*
X190377028Y215859317D01*
X190414865Y215866390D01*
X190455476Y215878709D01*
X190508930Y215883973D01*
X190558339Y215893210D01*
X190602705Y215893210D01*
X190650566Y215897924D01*
X190698427Y215893210D01*
G37*
G36*
X204518427Y215893210D02*
G01*
X204562793Y215893210D01*
X204612201Y215883973D01*
X204665656Y215878709D01*
X204706267Y215866389D01*
X204744103Y215859317D01*
X204796500Y215839018D01*
X204853249Y215821804D01*
X204885673Y215804472D01*
X204916104Y215792684D01*
X204968979Y215759944D01*
X205026136Y215729394D01*
X205050151Y215709685D01*
X205072932Y215695580D01*
X205123408Y215649564D01*
X205177673Y215605031D01*
X205193753Y215585436D01*
X205209241Y215571318D01*
X205254200Y215511781D01*
X205302036Y215453494D01*
X205311286Y215436187D01*
X205320401Y215424118D01*
X205356666Y215351287D01*
X205394446Y215280607D01*
X205398474Y215267325D01*
X205402618Y215259005D01*
X205427089Y215172993D01*
X205451351Y215093014D01*
X205452148Y215084920D01*
X205453096Y215081589D01*
X205462956Y214975186D01*
X205470566Y214897924D01*
X205462956Y214820667D01*
X205453096Y214714258D01*
X205452148Y214710926D01*
X205451351Y214702834D01*
X205427094Y214622870D01*
X205402618Y214536842D01*
X205398474Y214528519D01*
X205394446Y214515241D01*
X205356673Y214444574D01*
X205320401Y214371729D01*
X205311284Y214359656D01*
X205302036Y214342354D01*
X205254210Y214284078D01*
X205209241Y214224529D01*
X205193750Y214210407D01*
X205177673Y214190817D01*
X205123419Y214146292D01*
X205072932Y214100267D01*
X205050146Y214086158D01*
X205026136Y214066454D01*
X204968991Y214035909D01*
X204916104Y214003163D01*
X204885666Y213991371D01*
X204853249Y213974044D01*
X204796512Y213956833D01*
X204744103Y213936530D01*
X204706261Y213929456D01*
X204665656Y213917139D01*
X204612204Y213911874D01*
X204562793Y213902638D01*
X204518427Y213902638D01*
X204470566Y213897924D01*
X204422705Y213902638D01*
X204378339Y213902638D01*
X204328927Y213911874D01*
X204275476Y213917139D01*
X204234872Y213929455D01*
X204197028Y213936530D01*
X204144614Y213956834D01*
X204087883Y213974044D01*
X204055467Y213991370D01*
X204025027Y214003163D01*
X203972133Y214035913D01*
X203914996Y214066454D01*
X203890989Y214086155D01*
X203868199Y214100267D01*
X203817702Y214146300D01*
X203763459Y214190817D01*
X203747384Y214210404D01*
X203731890Y214224529D01*
X203686909Y214284093D01*
X203639096Y214342354D01*
X203629849Y214359652D01*
X203620730Y214371729D01*
X203584443Y214444601D01*
X203546686Y214515241D01*
X203542659Y214528514D01*
X203538513Y214536842D01*
X203514021Y214622923D01*
X203489781Y214702834D01*
X203488984Y214710920D01*
X203488035Y214714258D01*
X203478158Y214820839D01*
X203470566Y214897924D01*
X203478158Y214975014D01*
X203488035Y215081589D01*
X203488984Y215084925D01*
X203489781Y215093014D01*
X203514025Y215172939D01*
X203538513Y215259005D01*
X203542658Y215267330D01*
X203546686Y215280607D01*
X203584450Y215351260D01*
X203620730Y215424118D01*
X203629848Y215436192D01*
X203639096Y215453494D01*
X203686918Y215511766D01*
X203731890Y215571318D01*
X203747381Y215585440D01*
X203763459Y215605031D01*
X203817713Y215649556D01*
X203868199Y215695580D01*
X203890984Y215709687D01*
X203914996Y215729394D01*
X203972144Y215759940D01*
X204025027Y215792684D01*
X204055461Y215804474D01*
X204087883Y215821804D01*
X204144626Y215839016D01*
X204197028Y215859317D01*
X204234865Y215866390D01*
X204275476Y215878709D01*
X204328930Y215883973D01*
X204378339Y215893210D01*
X204422705Y215893210D01*
X204470566Y215897924D01*
X204518427Y215893210D01*
G37*
G36*
X211018427Y215893210D02*
G01*
X211062793Y215893210D01*
X211112201Y215883973D01*
X211165656Y215878709D01*
X211206267Y215866389D01*
X211244103Y215859317D01*
X211296500Y215839018D01*
X211353249Y215821804D01*
X211385673Y215804472D01*
X211416104Y215792684D01*
X211468979Y215759944D01*
X211526136Y215729394D01*
X211550151Y215709685D01*
X211572932Y215695580D01*
X211623408Y215649564D01*
X211677673Y215605031D01*
X211693753Y215585436D01*
X211709241Y215571318D01*
X211754200Y215511781D01*
X211802036Y215453494D01*
X211811286Y215436187D01*
X211820401Y215424118D01*
X211856666Y215351287D01*
X211894446Y215280607D01*
X211898474Y215267325D01*
X211902618Y215259005D01*
X211927089Y215172993D01*
X211951351Y215093014D01*
X211952148Y215084920D01*
X211953096Y215081589D01*
X211962956Y214975186D01*
X211970566Y214897924D01*
X211962956Y214820667D01*
X211953096Y214714258D01*
X211952148Y214710926D01*
X211951351Y214702834D01*
X211927094Y214622870D01*
X211902618Y214536842D01*
X211898474Y214528519D01*
X211894446Y214515241D01*
X211856673Y214444574D01*
X211820401Y214371729D01*
X211811284Y214359656D01*
X211802036Y214342354D01*
X211754210Y214284078D01*
X211709241Y214224529D01*
X211693750Y214210407D01*
X211677673Y214190817D01*
X211623419Y214146292D01*
X211572932Y214100267D01*
X211550146Y214086158D01*
X211526136Y214066454D01*
X211468991Y214035909D01*
X211416104Y214003163D01*
X211385666Y213991371D01*
X211353249Y213974044D01*
X211296512Y213956833D01*
X211244103Y213936530D01*
X211206261Y213929456D01*
X211165656Y213917139D01*
X211112204Y213911874D01*
X211062793Y213902638D01*
X211018427Y213902638D01*
X210970566Y213897924D01*
X210922705Y213902638D01*
X210878339Y213902638D01*
X210828927Y213911874D01*
X210775476Y213917139D01*
X210734872Y213929455D01*
X210697028Y213936530D01*
X210644614Y213956834D01*
X210587883Y213974044D01*
X210555467Y213991370D01*
X210525027Y214003163D01*
X210472133Y214035913D01*
X210414996Y214066454D01*
X210390989Y214086155D01*
X210368199Y214100267D01*
X210317702Y214146300D01*
X210263459Y214190817D01*
X210247384Y214210404D01*
X210231890Y214224529D01*
X210186909Y214284093D01*
X210139096Y214342354D01*
X210129849Y214359652D01*
X210120730Y214371729D01*
X210084443Y214444601D01*
X210046686Y214515241D01*
X210042659Y214528514D01*
X210038513Y214536842D01*
X210014021Y214622923D01*
X209989781Y214702834D01*
X209988984Y214710920D01*
X209988035Y214714258D01*
X209978158Y214820839D01*
X209970566Y214897924D01*
X209978158Y214975014D01*
X209988035Y215081589D01*
X209988984Y215084925D01*
X209989781Y215093014D01*
X210014025Y215172939D01*
X210038513Y215259005D01*
X210042658Y215267330D01*
X210046686Y215280607D01*
X210084450Y215351260D01*
X210120730Y215424118D01*
X210129848Y215436192D01*
X210139096Y215453494D01*
X210186918Y215511766D01*
X210231890Y215571318D01*
X210247381Y215585440D01*
X210263459Y215605031D01*
X210317713Y215649556D01*
X210368199Y215695580D01*
X210390984Y215709687D01*
X210414996Y215729394D01*
X210472144Y215759940D01*
X210525027Y215792684D01*
X210555461Y215804474D01*
X210587883Y215821804D01*
X210644626Y215839016D01*
X210697028Y215859317D01*
X210734865Y215866390D01*
X210775476Y215878709D01*
X210828930Y215883973D01*
X210878339Y215893210D01*
X210922705Y215893210D01*
X210970566Y215897924D01*
X211018427Y215893210D01*
G37*
G36*
X224838427Y215893210D02*
G01*
X224882793Y215893210D01*
X224932201Y215883973D01*
X224985656Y215878709D01*
X225026267Y215866389D01*
X225064103Y215859317D01*
X225116500Y215839018D01*
X225173249Y215821804D01*
X225205673Y215804472D01*
X225236104Y215792684D01*
X225288979Y215759944D01*
X225346136Y215729394D01*
X225370151Y215709685D01*
X225392932Y215695580D01*
X225443408Y215649564D01*
X225497673Y215605031D01*
X225513753Y215585436D01*
X225529241Y215571318D01*
X225574200Y215511781D01*
X225622036Y215453494D01*
X225631286Y215436187D01*
X225640401Y215424118D01*
X225676666Y215351287D01*
X225714446Y215280607D01*
X225718474Y215267325D01*
X225722618Y215259005D01*
X225747089Y215172993D01*
X225771351Y215093014D01*
X225772148Y215084920D01*
X225773096Y215081589D01*
X225782956Y214975186D01*
X225790566Y214897924D01*
X225782956Y214820667D01*
X225773096Y214714258D01*
X225772148Y214710926D01*
X225771351Y214702834D01*
X225747094Y214622870D01*
X225722618Y214536842D01*
X225718474Y214528519D01*
X225714446Y214515241D01*
X225676673Y214444574D01*
X225640401Y214371729D01*
X225631284Y214359656D01*
X225622036Y214342354D01*
X225574210Y214284078D01*
X225529241Y214224529D01*
X225513750Y214210407D01*
X225497673Y214190817D01*
X225443419Y214146292D01*
X225392932Y214100267D01*
X225370146Y214086158D01*
X225346136Y214066454D01*
X225288991Y214035909D01*
X225236104Y214003163D01*
X225205666Y213991371D01*
X225173249Y213974044D01*
X225116512Y213956833D01*
X225064103Y213936530D01*
X225026261Y213929456D01*
X224985656Y213917139D01*
X224932204Y213911874D01*
X224882793Y213902638D01*
X224838427Y213902638D01*
X224790566Y213897924D01*
X224742705Y213902638D01*
X224698339Y213902638D01*
X224648927Y213911874D01*
X224595476Y213917139D01*
X224554872Y213929455D01*
X224517028Y213936530D01*
X224464614Y213956834D01*
X224407883Y213974044D01*
X224375467Y213991370D01*
X224345027Y214003163D01*
X224292133Y214035913D01*
X224234996Y214066454D01*
X224210989Y214086155D01*
X224188199Y214100267D01*
X224137702Y214146300D01*
X224083459Y214190817D01*
X224067384Y214210404D01*
X224051890Y214224529D01*
X224006909Y214284093D01*
X223959096Y214342354D01*
X223949849Y214359652D01*
X223940730Y214371729D01*
X223904443Y214444601D01*
X223866686Y214515241D01*
X223862659Y214528514D01*
X223858513Y214536842D01*
X223834021Y214622923D01*
X223809781Y214702834D01*
X223808984Y214710920D01*
X223808035Y214714258D01*
X223798158Y214820839D01*
X223790566Y214897924D01*
X223798158Y214975014D01*
X223808035Y215081589D01*
X223808984Y215084925D01*
X223809781Y215093014D01*
X223834025Y215172939D01*
X223858513Y215259005D01*
X223862658Y215267330D01*
X223866686Y215280607D01*
X223904450Y215351260D01*
X223940730Y215424118D01*
X223949848Y215436192D01*
X223959096Y215453494D01*
X224006918Y215511766D01*
X224051890Y215571318D01*
X224067381Y215585440D01*
X224083459Y215605031D01*
X224137713Y215649556D01*
X224188199Y215695580D01*
X224210984Y215709687D01*
X224234996Y215729394D01*
X224292144Y215759940D01*
X224345027Y215792684D01*
X224375461Y215804474D01*
X224407883Y215821804D01*
X224464626Y215839016D01*
X224517028Y215859317D01*
X224554865Y215866390D01*
X224595476Y215878709D01*
X224648930Y215883973D01*
X224698339Y215893210D01*
X224742705Y215893210D01*
X224790566Y215897924D01*
X224838427Y215893210D01*
G37*
G36*
X231338427Y215893210D02*
G01*
X231382793Y215893210D01*
X231432201Y215883973D01*
X231485656Y215878709D01*
X231526267Y215866389D01*
X231564103Y215859317D01*
X231616500Y215839018D01*
X231673249Y215821804D01*
X231705673Y215804472D01*
X231736104Y215792684D01*
X231788979Y215759944D01*
X231846136Y215729394D01*
X231870151Y215709685D01*
X231892932Y215695580D01*
X231943408Y215649564D01*
X231997673Y215605031D01*
X232013753Y215585436D01*
X232029241Y215571318D01*
X232074200Y215511781D01*
X232122036Y215453494D01*
X232131286Y215436187D01*
X232140401Y215424118D01*
X232176666Y215351287D01*
X232214446Y215280607D01*
X232218474Y215267325D01*
X232222618Y215259005D01*
X232247089Y215172993D01*
X232271351Y215093014D01*
X232272148Y215084920D01*
X232273096Y215081589D01*
X232282956Y214975186D01*
X232290566Y214897924D01*
X232282956Y214820667D01*
X232273096Y214714258D01*
X232272148Y214710926D01*
X232271351Y214702834D01*
X232247094Y214622870D01*
X232222618Y214536842D01*
X232218474Y214528519D01*
X232214446Y214515241D01*
X232176673Y214444574D01*
X232140401Y214371729D01*
X232131284Y214359656D01*
X232122036Y214342354D01*
X232074210Y214284078D01*
X232029241Y214224529D01*
X232013750Y214210407D01*
X231997673Y214190817D01*
X231943419Y214146292D01*
X231892932Y214100267D01*
X231870146Y214086158D01*
X231846136Y214066454D01*
X231788991Y214035909D01*
X231736104Y214003163D01*
X231705666Y213991371D01*
X231673249Y213974044D01*
X231616512Y213956833D01*
X231564103Y213936530D01*
X231526261Y213929456D01*
X231485656Y213917139D01*
X231432204Y213911874D01*
X231382793Y213902638D01*
X231338427Y213902638D01*
X231290566Y213897924D01*
X231242705Y213902638D01*
X231198339Y213902638D01*
X231148927Y213911874D01*
X231095476Y213917139D01*
X231054872Y213929455D01*
X231017028Y213936530D01*
X230964614Y213956834D01*
X230907883Y213974044D01*
X230875467Y213991370D01*
X230845027Y214003163D01*
X230792133Y214035913D01*
X230734996Y214066454D01*
X230710989Y214086155D01*
X230688199Y214100267D01*
X230637702Y214146300D01*
X230583459Y214190817D01*
X230567384Y214210404D01*
X230551890Y214224529D01*
X230506909Y214284093D01*
X230459096Y214342354D01*
X230449849Y214359652D01*
X230440730Y214371729D01*
X230404443Y214444601D01*
X230366686Y214515241D01*
X230362659Y214528514D01*
X230358513Y214536842D01*
X230334021Y214622923D01*
X230309781Y214702834D01*
X230308984Y214710920D01*
X230308035Y214714258D01*
X230298158Y214820839D01*
X230290566Y214897924D01*
X230298158Y214975014D01*
X230308035Y215081589D01*
X230308984Y215084925D01*
X230309781Y215093014D01*
X230334025Y215172939D01*
X230358513Y215259005D01*
X230362658Y215267330D01*
X230366686Y215280607D01*
X230404450Y215351260D01*
X230440730Y215424118D01*
X230449848Y215436192D01*
X230459096Y215453494D01*
X230506918Y215511766D01*
X230551890Y215571318D01*
X230567381Y215585440D01*
X230583459Y215605031D01*
X230637713Y215649556D01*
X230688199Y215695580D01*
X230710984Y215709687D01*
X230734996Y215729394D01*
X230792144Y215759940D01*
X230845027Y215792684D01*
X230875461Y215804474D01*
X230907883Y215821804D01*
X230964626Y215839016D01*
X231017028Y215859317D01*
X231054865Y215866390D01*
X231095476Y215878709D01*
X231148930Y215883973D01*
X231198339Y215893210D01*
X231242705Y215893210D01*
X231290566Y215897924D01*
X231338427Y215893210D01*
G37*
G36*
X245158427Y215893210D02*
G01*
X245202793Y215893210D01*
X245252201Y215883973D01*
X245305656Y215878709D01*
X245346267Y215866389D01*
X245384103Y215859317D01*
X245436500Y215839018D01*
X245493249Y215821804D01*
X245525673Y215804472D01*
X245556104Y215792684D01*
X245608979Y215759944D01*
X245666136Y215729394D01*
X245690151Y215709685D01*
X245712932Y215695580D01*
X245763408Y215649564D01*
X245817673Y215605031D01*
X245833753Y215585436D01*
X245849241Y215571318D01*
X245894200Y215511781D01*
X245942036Y215453494D01*
X245951286Y215436187D01*
X245960401Y215424118D01*
X245996666Y215351287D01*
X246034446Y215280607D01*
X246038474Y215267325D01*
X246042618Y215259005D01*
X246067089Y215172993D01*
X246091351Y215093014D01*
X246092148Y215084920D01*
X246093096Y215081589D01*
X246102956Y214975186D01*
X246110566Y214897924D01*
X246102956Y214820667D01*
X246093096Y214714258D01*
X246092148Y214710926D01*
X246091351Y214702834D01*
X246067094Y214622870D01*
X246042618Y214536842D01*
X246038474Y214528519D01*
X246034446Y214515241D01*
X245996673Y214444574D01*
X245960401Y214371729D01*
X245951284Y214359656D01*
X245942036Y214342354D01*
X245894210Y214284078D01*
X245849241Y214224529D01*
X245833750Y214210407D01*
X245817673Y214190817D01*
X245763419Y214146292D01*
X245712932Y214100267D01*
X245690146Y214086158D01*
X245666136Y214066454D01*
X245608991Y214035909D01*
X245556104Y214003163D01*
X245525666Y213991371D01*
X245493249Y213974044D01*
X245436512Y213956833D01*
X245384103Y213936530D01*
X245346261Y213929456D01*
X245305656Y213917139D01*
X245252204Y213911874D01*
X245202793Y213902638D01*
X245158427Y213902638D01*
X245110566Y213897924D01*
X245062705Y213902638D01*
X245018339Y213902638D01*
X244968927Y213911874D01*
X244915476Y213917139D01*
X244874872Y213929455D01*
X244837028Y213936530D01*
X244784614Y213956834D01*
X244727883Y213974044D01*
X244695467Y213991370D01*
X244665027Y214003163D01*
X244612133Y214035913D01*
X244554996Y214066454D01*
X244530989Y214086155D01*
X244508199Y214100267D01*
X244457702Y214146300D01*
X244403459Y214190817D01*
X244387384Y214210404D01*
X244371890Y214224529D01*
X244326909Y214284093D01*
X244279096Y214342354D01*
X244269849Y214359652D01*
X244260730Y214371729D01*
X244224443Y214444601D01*
X244186686Y214515241D01*
X244182659Y214528514D01*
X244178513Y214536842D01*
X244154021Y214622923D01*
X244129781Y214702834D01*
X244128984Y214710920D01*
X244128035Y214714258D01*
X244118158Y214820839D01*
X244110566Y214897924D01*
X244118158Y214975014D01*
X244128035Y215081589D01*
X244128984Y215084925D01*
X244129781Y215093014D01*
X244154025Y215172939D01*
X244178513Y215259005D01*
X244182658Y215267330D01*
X244186686Y215280607D01*
X244224450Y215351260D01*
X244260730Y215424118D01*
X244269848Y215436192D01*
X244279096Y215453494D01*
X244326918Y215511766D01*
X244371890Y215571318D01*
X244387381Y215585440D01*
X244403459Y215605031D01*
X244457713Y215649556D01*
X244508199Y215695580D01*
X244530984Y215709687D01*
X244554996Y215729394D01*
X244612144Y215759940D01*
X244665027Y215792684D01*
X244695461Y215804474D01*
X244727883Y215821804D01*
X244784626Y215839016D01*
X244837028Y215859317D01*
X244874865Y215866390D01*
X244915476Y215878709D01*
X244968930Y215883973D01*
X245018339Y215893210D01*
X245062705Y215893210D01*
X245110566Y215897924D01*
X245158427Y215893210D01*
G37*
G36*
X251658427Y215893210D02*
G01*
X251702793Y215893210D01*
X251752201Y215883973D01*
X251805656Y215878709D01*
X251846267Y215866389D01*
X251884103Y215859317D01*
X251936500Y215839018D01*
X251993249Y215821804D01*
X252025673Y215804472D01*
X252056104Y215792684D01*
X252108979Y215759944D01*
X252166136Y215729394D01*
X252190151Y215709685D01*
X252212932Y215695580D01*
X252263408Y215649564D01*
X252317673Y215605031D01*
X252333753Y215585436D01*
X252349241Y215571318D01*
X252394200Y215511781D01*
X252442036Y215453494D01*
X252451286Y215436187D01*
X252460401Y215424118D01*
X252496666Y215351287D01*
X252534446Y215280607D01*
X252538474Y215267325D01*
X252542618Y215259005D01*
X252567089Y215172993D01*
X252591351Y215093014D01*
X252592148Y215084920D01*
X252593096Y215081589D01*
X252602956Y214975186D01*
X252610566Y214897924D01*
X252602956Y214820667D01*
X252593096Y214714258D01*
X252592148Y214710926D01*
X252591351Y214702834D01*
X252567094Y214622870D01*
X252542618Y214536842D01*
X252538474Y214528519D01*
X252534446Y214515241D01*
X252496673Y214444574D01*
X252460401Y214371729D01*
X252451284Y214359656D01*
X252442036Y214342354D01*
X252394210Y214284078D01*
X252349241Y214224529D01*
X252333750Y214210407D01*
X252317673Y214190817D01*
X252263419Y214146292D01*
X252212932Y214100267D01*
X252190146Y214086158D01*
X252166136Y214066454D01*
X252108991Y214035909D01*
X252056104Y214003163D01*
X252025666Y213991371D01*
X251993249Y213974044D01*
X251936512Y213956833D01*
X251884103Y213936530D01*
X251846261Y213929456D01*
X251805656Y213917139D01*
X251752204Y213911874D01*
X251702793Y213902638D01*
X251658427Y213902638D01*
X251610566Y213897924D01*
X251562705Y213902638D01*
X251518339Y213902638D01*
X251468927Y213911874D01*
X251415476Y213917139D01*
X251374872Y213929455D01*
X251337028Y213936530D01*
X251284614Y213956834D01*
X251227883Y213974044D01*
X251195467Y213991370D01*
X251165027Y214003163D01*
X251112133Y214035913D01*
X251054996Y214066454D01*
X251030989Y214086155D01*
X251008199Y214100267D01*
X250957702Y214146300D01*
X250903459Y214190817D01*
X250887384Y214210404D01*
X250871890Y214224529D01*
X250826909Y214284093D01*
X250779096Y214342354D01*
X250769849Y214359652D01*
X250760730Y214371729D01*
X250724443Y214444601D01*
X250686686Y214515241D01*
X250682659Y214528514D01*
X250678513Y214536842D01*
X250654021Y214622923D01*
X250629781Y214702834D01*
X250628984Y214710920D01*
X250628035Y214714258D01*
X250618158Y214820839D01*
X250610566Y214897924D01*
X250618158Y214975014D01*
X250628035Y215081589D01*
X250628984Y215084925D01*
X250629781Y215093014D01*
X250654025Y215172939D01*
X250678513Y215259005D01*
X250682658Y215267330D01*
X250686686Y215280607D01*
X250724450Y215351260D01*
X250760730Y215424118D01*
X250769848Y215436192D01*
X250779096Y215453494D01*
X250826918Y215511766D01*
X250871890Y215571318D01*
X250887381Y215585440D01*
X250903459Y215605031D01*
X250957713Y215649556D01*
X251008199Y215695580D01*
X251030984Y215709687D01*
X251054996Y215729394D01*
X251112144Y215759940D01*
X251165027Y215792684D01*
X251195461Y215804474D01*
X251227883Y215821804D01*
X251284626Y215839016D01*
X251337028Y215859317D01*
X251374865Y215866390D01*
X251415476Y215878709D01*
X251468930Y215883973D01*
X251518339Y215893210D01*
X251562705Y215893210D01*
X251610566Y215897924D01*
X251658427Y215893210D01*
G37*
G36*
X167122723Y216105174D02*
G01*
X167160155Y216105174D01*
X167202377Y216096199D01*
X167250127Y216090819D01*
X167284851Y216078668D01*
X167315860Y216072077D01*
X167360549Y216052180D01*
X167411185Y216034462D01*
X167437539Y216017902D01*
X167461275Y216007335D01*
X167505532Y215975179D01*
X167555665Y215943680D01*
X167573668Y215925676D01*
X167590055Y215913771D01*
X167630568Y215868776D01*
X167676322Y215823023D01*
X167686844Y215806275D01*
X167696570Y215795475D01*
X167729840Y215737847D01*
X167767104Y215678543D01*
X167771756Y215665245D01*
X167776159Y215657621D01*
X167798698Y215588252D01*
X167823461Y215517485D01*
X167824400Y215509150D01*
X167825348Y215506233D01*
X167833946Y215424422D01*
X167842566Y215347924D01*
X167833947Y215271431D01*
X167825348Y215189614D01*
X167824399Y215186696D01*
X167823461Y215178363D01*
X167798702Y215107608D01*
X167776159Y215038226D01*
X167771756Y215030599D01*
X167767104Y215017305D01*
X167729843Y214958004D01*
X167696570Y214900373D01*
X167686844Y214889571D01*
X167676322Y214872825D01*
X167630574Y214827077D01*
X167590055Y214782076D01*
X167573664Y214770167D01*
X167555665Y214752168D01*
X167505543Y214720674D01*
X167461275Y214688512D01*
X167437533Y214677941D01*
X167411185Y214661386D01*
X167360559Y214643671D01*
X167315860Y214623770D01*
X167284846Y214617177D01*
X167250127Y214605029D01*
X167202380Y214599649D01*
X167160155Y214590674D01*
X167122723Y214590674D01*
X167080566Y214585924D01*
X167038409Y214590674D01*
X167000977Y214590674D01*
X166958751Y214599649D01*
X166911005Y214605029D01*
X166876287Y214617177D01*
X166845271Y214623770D01*
X166800567Y214643673D01*
X166749947Y214661386D01*
X166723600Y214677940D01*
X166699856Y214688512D01*
X166655581Y214720679D01*
X166605467Y214752168D01*
X166587469Y214770165D01*
X166571076Y214782076D01*
X166530547Y214827087D01*
X166484810Y214872825D01*
X166474289Y214889568D01*
X166464561Y214900373D01*
X166431276Y214958024D01*
X166394028Y215017305D01*
X166389377Y215030595D01*
X166384972Y215038226D01*
X166362415Y215107648D01*
X166337671Y215178363D01*
X166336732Y215186691D01*
X166335783Y215189614D01*
X166327169Y215271563D01*
X166318566Y215347924D01*
X166327170Y215424290D01*
X166335783Y215506233D01*
X166336732Y215509155D01*
X166337671Y215517485D01*
X166362419Y215588212D01*
X166384972Y215657621D01*
X166389376Y215665249D01*
X166394028Y215678543D01*
X166431286Y215737839D01*
X166464562Y215795475D01*
X166474287Y215806275D01*
X166484810Y215823023D01*
X166530558Y215868771D01*
X166571078Y215913773D01*
X166587468Y215925681D01*
X166605467Y215943680D01*
X166655586Y215975172D01*
X166699854Y216007334D01*
X166723594Y216017903D01*
X166749947Y216034462D01*
X166800578Y216052178D01*
X166845271Y216072077D01*
X166876281Y216078668D01*
X166911005Y216090819D01*
X166958753Y216096199D01*
X167000977Y216105174D01*
X167038409Y216105174D01*
X167080566Y216109924D01*
X167122723Y216105174D01*
G37*
G36*
X187442723Y216105174D02*
G01*
X187480155Y216105174D01*
X187522377Y216096199D01*
X187570127Y216090819D01*
X187604851Y216078668D01*
X187635860Y216072077D01*
X187680549Y216052180D01*
X187731185Y216034462D01*
X187757539Y216017902D01*
X187781275Y216007335D01*
X187825532Y215975179D01*
X187875665Y215943680D01*
X187893668Y215925676D01*
X187910055Y215913771D01*
X187950568Y215868776D01*
X187996322Y215823023D01*
X188006844Y215806275D01*
X188016570Y215795475D01*
X188049840Y215737847D01*
X188087104Y215678543D01*
X188091756Y215665245D01*
X188096159Y215657621D01*
X188118698Y215588252D01*
X188143461Y215517485D01*
X188144400Y215509150D01*
X188145348Y215506233D01*
X188153946Y215424422D01*
X188162566Y215347924D01*
X188153947Y215271431D01*
X188145348Y215189614D01*
X188144399Y215186696D01*
X188143461Y215178363D01*
X188118702Y215107608D01*
X188096159Y215038226D01*
X188091756Y215030599D01*
X188087104Y215017305D01*
X188049843Y214958004D01*
X188016570Y214900373D01*
X188006844Y214889571D01*
X187996322Y214872825D01*
X187950574Y214827077D01*
X187910055Y214782076D01*
X187893664Y214770167D01*
X187875665Y214752168D01*
X187825543Y214720674D01*
X187781275Y214688512D01*
X187757533Y214677941D01*
X187731185Y214661386D01*
X187680559Y214643671D01*
X187635860Y214623770D01*
X187604846Y214617177D01*
X187570127Y214605029D01*
X187522380Y214599649D01*
X187480155Y214590674D01*
X187442723Y214590674D01*
X187400566Y214585924D01*
X187358409Y214590674D01*
X187320977Y214590674D01*
X187278751Y214599649D01*
X187231005Y214605029D01*
X187196287Y214617177D01*
X187165271Y214623770D01*
X187120567Y214643673D01*
X187069947Y214661386D01*
X187043600Y214677940D01*
X187019856Y214688512D01*
X186975581Y214720679D01*
X186925467Y214752168D01*
X186907469Y214770165D01*
X186891076Y214782076D01*
X186850547Y214827087D01*
X186804810Y214872825D01*
X186794289Y214889568D01*
X186784561Y214900373D01*
X186751276Y214958024D01*
X186714028Y215017305D01*
X186709377Y215030595D01*
X186704972Y215038226D01*
X186682415Y215107648D01*
X186657671Y215178363D01*
X186656732Y215186691D01*
X186655783Y215189614D01*
X186647169Y215271563D01*
X186638566Y215347924D01*
X186647170Y215424290D01*
X186655783Y215506233D01*
X186656732Y215509155D01*
X186657671Y215517485D01*
X186682419Y215588212D01*
X186704972Y215657621D01*
X186709376Y215665249D01*
X186714028Y215678543D01*
X186751286Y215737839D01*
X186784562Y215795475D01*
X186794287Y215806275D01*
X186804810Y215823023D01*
X186850558Y215868771D01*
X186891078Y215913773D01*
X186907468Y215925681D01*
X186925467Y215943680D01*
X186975586Y215975172D01*
X187019854Y216007334D01*
X187043594Y216017903D01*
X187069947Y216034462D01*
X187120578Y216052178D01*
X187165271Y216072077D01*
X187196281Y216078668D01*
X187231005Y216090819D01*
X187278753Y216096199D01*
X187320977Y216105174D01*
X187358409Y216105174D01*
X187400566Y216109924D01*
X187442723Y216105174D01*
G37*
G36*
X207762723Y216105174D02*
G01*
X207800155Y216105174D01*
X207842377Y216096199D01*
X207890127Y216090819D01*
X207924851Y216078668D01*
X207955860Y216072077D01*
X208000549Y216052180D01*
X208051185Y216034462D01*
X208077539Y216017902D01*
X208101275Y216007335D01*
X208145532Y215975179D01*
X208195665Y215943680D01*
X208213668Y215925676D01*
X208230055Y215913771D01*
X208270568Y215868776D01*
X208316322Y215823023D01*
X208326844Y215806275D01*
X208336570Y215795475D01*
X208369840Y215737847D01*
X208407104Y215678543D01*
X208411756Y215665245D01*
X208416159Y215657621D01*
X208438698Y215588252D01*
X208463461Y215517485D01*
X208464400Y215509150D01*
X208465348Y215506233D01*
X208473946Y215424422D01*
X208482566Y215347924D01*
X208473947Y215271431D01*
X208465348Y215189614D01*
X208464399Y215186696D01*
X208463461Y215178363D01*
X208438702Y215107608D01*
X208416159Y215038226D01*
X208411756Y215030599D01*
X208407104Y215017305D01*
X208369843Y214958004D01*
X208336570Y214900373D01*
X208326844Y214889571D01*
X208316322Y214872825D01*
X208270574Y214827077D01*
X208230055Y214782076D01*
X208213664Y214770167D01*
X208195665Y214752168D01*
X208145543Y214720674D01*
X208101275Y214688512D01*
X208077533Y214677941D01*
X208051185Y214661386D01*
X208000559Y214643671D01*
X207955860Y214623770D01*
X207924846Y214617177D01*
X207890127Y214605029D01*
X207842380Y214599649D01*
X207800155Y214590674D01*
X207762723Y214590674D01*
X207720566Y214585924D01*
X207678409Y214590674D01*
X207640977Y214590674D01*
X207598751Y214599649D01*
X207551005Y214605029D01*
X207516287Y214617177D01*
X207485271Y214623770D01*
X207440567Y214643673D01*
X207389947Y214661386D01*
X207363600Y214677940D01*
X207339856Y214688512D01*
X207295581Y214720679D01*
X207245467Y214752168D01*
X207227469Y214770165D01*
X207211076Y214782076D01*
X207170547Y214827087D01*
X207124810Y214872825D01*
X207114289Y214889568D01*
X207104561Y214900373D01*
X207071276Y214958024D01*
X207034028Y215017305D01*
X207029377Y215030595D01*
X207024972Y215038226D01*
X207002415Y215107648D01*
X206977671Y215178363D01*
X206976732Y215186691D01*
X206975783Y215189614D01*
X206967169Y215271563D01*
X206958566Y215347924D01*
X206967170Y215424290D01*
X206975783Y215506233D01*
X206976732Y215509155D01*
X206977671Y215517485D01*
X207002419Y215588212D01*
X207024972Y215657621D01*
X207029376Y215665249D01*
X207034028Y215678543D01*
X207071286Y215737839D01*
X207104562Y215795475D01*
X207114287Y215806275D01*
X207124810Y215823023D01*
X207170558Y215868771D01*
X207211078Y215913773D01*
X207227468Y215925681D01*
X207245467Y215943680D01*
X207295586Y215975172D01*
X207339854Y216007334D01*
X207363594Y216017903D01*
X207389947Y216034462D01*
X207440578Y216052178D01*
X207485271Y216072077D01*
X207516281Y216078668D01*
X207551005Y216090819D01*
X207598753Y216096199D01*
X207640977Y216105174D01*
X207678409Y216105174D01*
X207720566Y216109924D01*
X207762723Y216105174D01*
G37*
G36*
X228082723Y216105174D02*
G01*
X228120155Y216105174D01*
X228162377Y216096199D01*
X228210127Y216090819D01*
X228244851Y216078668D01*
X228275860Y216072077D01*
X228320549Y216052180D01*
X228371185Y216034462D01*
X228397539Y216017902D01*
X228421275Y216007335D01*
X228465532Y215975179D01*
X228515665Y215943680D01*
X228533668Y215925676D01*
X228550055Y215913771D01*
X228590568Y215868776D01*
X228636322Y215823023D01*
X228646844Y215806275D01*
X228656570Y215795475D01*
X228689840Y215737847D01*
X228727104Y215678543D01*
X228731756Y215665245D01*
X228736159Y215657621D01*
X228758698Y215588252D01*
X228783461Y215517485D01*
X228784400Y215509150D01*
X228785348Y215506233D01*
X228793946Y215424422D01*
X228802566Y215347924D01*
X228793947Y215271431D01*
X228785348Y215189614D01*
X228784399Y215186696D01*
X228783461Y215178363D01*
X228758702Y215107608D01*
X228736159Y215038226D01*
X228731756Y215030599D01*
X228727104Y215017305D01*
X228689843Y214958004D01*
X228656570Y214900373D01*
X228646844Y214889571D01*
X228636322Y214872825D01*
X228590574Y214827077D01*
X228550055Y214782076D01*
X228533664Y214770167D01*
X228515665Y214752168D01*
X228465543Y214720674D01*
X228421275Y214688512D01*
X228397533Y214677941D01*
X228371185Y214661386D01*
X228320559Y214643671D01*
X228275860Y214623770D01*
X228244846Y214617177D01*
X228210127Y214605029D01*
X228162380Y214599649D01*
X228120155Y214590674D01*
X228082723Y214590674D01*
X228040566Y214585924D01*
X227998409Y214590674D01*
X227960977Y214590674D01*
X227918751Y214599649D01*
X227871005Y214605029D01*
X227836287Y214617177D01*
X227805271Y214623770D01*
X227760567Y214643673D01*
X227709947Y214661386D01*
X227683600Y214677940D01*
X227659856Y214688512D01*
X227615581Y214720679D01*
X227565467Y214752168D01*
X227547469Y214770165D01*
X227531076Y214782076D01*
X227490547Y214827087D01*
X227444810Y214872825D01*
X227434289Y214889568D01*
X227424561Y214900373D01*
X227391276Y214958024D01*
X227354028Y215017305D01*
X227349377Y215030595D01*
X227344972Y215038226D01*
X227322415Y215107648D01*
X227297671Y215178363D01*
X227296732Y215186691D01*
X227295783Y215189614D01*
X227287169Y215271563D01*
X227278566Y215347924D01*
X227287170Y215424290D01*
X227295783Y215506233D01*
X227296732Y215509155D01*
X227297671Y215517485D01*
X227322419Y215588212D01*
X227344972Y215657621D01*
X227349376Y215665249D01*
X227354028Y215678543D01*
X227391286Y215737839D01*
X227424562Y215795475D01*
X227434287Y215806275D01*
X227444810Y215823023D01*
X227490558Y215868771D01*
X227531078Y215913773D01*
X227547468Y215925681D01*
X227565467Y215943680D01*
X227615586Y215975172D01*
X227659854Y216007334D01*
X227683594Y216017903D01*
X227709947Y216034462D01*
X227760578Y216052178D01*
X227805271Y216072077D01*
X227836281Y216078668D01*
X227871005Y216090819D01*
X227918753Y216096199D01*
X227960977Y216105174D01*
X227998409Y216105174D01*
X228040566Y216109924D01*
X228082723Y216105174D01*
G37*
G36*
X248402723Y216105174D02*
G01*
X248440155Y216105174D01*
X248482377Y216096199D01*
X248530127Y216090819D01*
X248564851Y216078668D01*
X248595860Y216072077D01*
X248640549Y216052180D01*
X248691185Y216034462D01*
X248717539Y216017902D01*
X248741275Y216007335D01*
X248785532Y215975179D01*
X248835665Y215943680D01*
X248853668Y215925676D01*
X248870055Y215913771D01*
X248910568Y215868776D01*
X248956322Y215823023D01*
X248966844Y215806275D01*
X248976570Y215795475D01*
X249009840Y215737847D01*
X249047104Y215678543D01*
X249051756Y215665245D01*
X249056159Y215657621D01*
X249078698Y215588252D01*
X249103461Y215517485D01*
X249104400Y215509150D01*
X249105348Y215506233D01*
X249113946Y215424422D01*
X249122566Y215347924D01*
X249113947Y215271431D01*
X249105348Y215189614D01*
X249104399Y215186696D01*
X249103461Y215178363D01*
X249078702Y215107608D01*
X249056159Y215038226D01*
X249051756Y215030599D01*
X249047104Y215017305D01*
X249009843Y214958004D01*
X248976570Y214900373D01*
X248966844Y214889571D01*
X248956322Y214872825D01*
X248910574Y214827077D01*
X248870055Y214782076D01*
X248853664Y214770167D01*
X248835665Y214752168D01*
X248785543Y214720674D01*
X248741275Y214688512D01*
X248717533Y214677941D01*
X248691185Y214661386D01*
X248640559Y214643671D01*
X248595860Y214623770D01*
X248564846Y214617177D01*
X248530127Y214605029D01*
X248482380Y214599649D01*
X248440155Y214590674D01*
X248402723Y214590674D01*
X248360566Y214585924D01*
X248318409Y214590674D01*
X248280977Y214590674D01*
X248238751Y214599649D01*
X248191005Y214605029D01*
X248156287Y214617177D01*
X248125271Y214623770D01*
X248080567Y214643673D01*
X248029947Y214661386D01*
X248003600Y214677940D01*
X247979856Y214688512D01*
X247935581Y214720679D01*
X247885467Y214752168D01*
X247867469Y214770165D01*
X247851076Y214782076D01*
X247810547Y214827087D01*
X247764810Y214872825D01*
X247754289Y214889568D01*
X247744561Y214900373D01*
X247711276Y214958024D01*
X247674028Y215017305D01*
X247669377Y215030595D01*
X247664972Y215038226D01*
X247642415Y215107648D01*
X247617671Y215178363D01*
X247616732Y215186691D01*
X247615783Y215189614D01*
X247607169Y215271563D01*
X247598566Y215347924D01*
X247607170Y215424290D01*
X247615783Y215506233D01*
X247616732Y215509155D01*
X247617671Y215517485D01*
X247642419Y215588212D01*
X247664972Y215657621D01*
X247669376Y215665249D01*
X247674028Y215678543D01*
X247711286Y215737839D01*
X247744562Y215795475D01*
X247754287Y215806275D01*
X247764810Y215823023D01*
X247810558Y215868771D01*
X247851078Y215913773D01*
X247867468Y215925681D01*
X247885467Y215943680D01*
X247935586Y215975172D01*
X247979854Y216007334D01*
X248003594Y216017903D01*
X248029947Y216034462D01*
X248080578Y216052178D01*
X248125271Y216072077D01*
X248156281Y216078668D01*
X248191005Y216090819D01*
X248238753Y216096199D01*
X248280977Y216105174D01*
X248318409Y216105174D01*
X248360566Y216109924D01*
X248402723Y216105174D01*
G37*
G36*
X218003151Y219806046D02*
G01*
X218076851Y219806046D01*
X218144030Y219796812D01*
X218210726Y219792441D01*
X218288750Y219776921D01*
X218367560Y219766089D01*
X218427158Y219749390D01*
X218486533Y219737580D01*
X218567955Y219709940D01*
X218650121Y219686919D01*
X218701431Y219664631D01*
X218752813Y219647190D01*
X218835764Y219606282D01*
X218919270Y219570011D01*
X218961970Y219544044D01*
X219005023Y219522813D01*
X219087426Y219467752D01*
X219169993Y219417543D01*
X219204104Y219389791D01*
X219238826Y219366591D01*
X219318434Y219296776D01*
X219397619Y219232355D01*
X219423532Y219204608D01*
X219450250Y219181178D01*
X219524688Y219096296D01*
X219597909Y219017897D01*
X219616333Y218991795D01*
X219635659Y218969759D01*
X219702475Y218869759D01*
X219767132Y218778163D01*
X219779060Y218755141D01*
X219791888Y218735944D01*
X219848684Y218620773D01*
X219902134Y218517620D01*
X219908789Y218498894D01*
X219916262Y218483741D01*
X219960696Y218352840D01*
X220000402Y218241121D01*
X220003213Y218227589D01*
X220006652Y218217461D01*
X220036476Y218067521D01*
X220060105Y217953816D01*
X220060634Y217946068D01*
X220061513Y217941654D01*
X220074722Y217740118D01*
X220080130Y217661058D01*
X220074722Y217582004D01*
X220061513Y217380461D01*
X220060634Y217376046D01*
X220060105Y217368300D01*
X220036481Y217254616D01*
X220006652Y217104654D01*
X220003213Y217094524D01*
X220000402Y217080995D01*
X219960704Y216969297D01*
X219916262Y216838374D01*
X219908787Y216823217D01*
X219902134Y216804496D01*
X219848699Y216701372D01*
X219791885Y216586164D01*
X219779052Y216566959D01*
X219767132Y216543953D01*
X219702508Y216452403D01*
X219635663Y216352361D01*
X219616330Y216330316D01*
X219597909Y216304219D01*
X219524700Y216225831D01*
X219450250Y216140937D01*
X219423527Y216117501D01*
X219397619Y216089761D01*
X219318450Y216025352D01*
X219238826Y215955524D01*
X219204097Y215932319D01*
X219169993Y215904573D01*
X219087443Y215854373D01*
X219005023Y215799302D01*
X218961961Y215778066D01*
X218919270Y215752105D01*
X218835781Y215715840D01*
X218752813Y215674925D01*
X218701420Y215657479D01*
X218650121Y215635197D01*
X218567972Y215612180D01*
X218486533Y215584535D01*
X218427146Y215572722D01*
X218367560Y215556027D01*
X218288766Y215545197D01*
X218210726Y215529674D01*
X218144016Y215525301D01*
X218076851Y215516070D01*
X218003166Y215516070D01*
X217930130Y215511283D01*
X217857093Y215516070D01*
X217783409Y215516070D01*
X217716244Y215525301D01*
X217649533Y215529674D01*
X217571490Y215545197D01*
X217492700Y215556027D01*
X217433115Y215572721D01*
X217373726Y215584535D01*
X217292281Y215612181D01*
X217210139Y215635197D01*
X217158842Y215657478D01*
X217107446Y215674925D01*
X217024470Y215715844D01*
X216940990Y215752105D01*
X216898302Y215778063D01*
X216855236Y215799302D01*
X216772805Y215854380D01*
X216690267Y215904573D01*
X216656166Y215932315D01*
X216621433Y215955524D01*
X216541795Y216025363D01*
X216462641Y216089761D01*
X216436737Y216117496D01*
X216410009Y216140937D01*
X216335543Y216225849D01*
X216262351Y216304219D01*
X216243933Y216330311D01*
X216224596Y216352361D01*
X216157732Y216452429D01*
X216093128Y216543953D01*
X216081210Y216566952D01*
X216068374Y216586164D01*
X216011539Y216701412D01*
X215958126Y216804496D01*
X215951474Y216823210D01*
X215943997Y216838374D01*
X215899533Y216969359D01*
X215859858Y217080995D01*
X215857048Y217094516D01*
X215853607Y217104654D01*
X215823755Y217254729D01*
X215800155Y217368300D01*
X215799625Y217376038D01*
X215798746Y217380461D01*
X215785513Y217582353D01*
X215780130Y217661058D01*
X215785513Y217739768D01*
X215798746Y217941654D01*
X215799625Y217946075D01*
X215800155Y217953816D01*
X215823760Y218067409D01*
X215853607Y218217461D01*
X215857047Y218227596D01*
X215859858Y218241121D01*
X215899540Y218352777D01*
X215943997Y218483741D01*
X215951473Y218498901D01*
X215958126Y218517620D01*
X216011554Y218620733D01*
X216068371Y218735944D01*
X216081202Y218755148D01*
X216093128Y218778163D01*
X216157765Y218869733D01*
X216224600Y218969759D01*
X216243930Y218991801D01*
X216262351Y219017897D01*
X216335555Y219096279D01*
X216410009Y219181178D01*
X216436732Y219204613D01*
X216462641Y219232355D01*
X216541807Y219296762D01*
X216621428Y219366587D01*
X216656154Y219389790D01*
X216690267Y219417543D01*
X216772844Y219467759D01*
X216855243Y219522816D01*
X216898290Y219544044D01*
X216940990Y219570011D01*
X217024489Y219606280D01*
X217107446Y219647190D01*
X217158832Y219664633D01*
X217210139Y219686919D01*
X217292298Y219709939D01*
X217373726Y219737580D01*
X217433103Y219749390D01*
X217492700Y219766089D01*
X217571506Y219776920D01*
X217649533Y219792441D01*
X217716230Y219796812D01*
X217783409Y219806046D01*
X217857109Y219806046D01*
X217930130Y219810832D01*
X218003151Y219806046D01*
G37*
M02*
