G04 #@! TF.GenerationSoftware,KiCad,Pcbnew,8.0.6*
G04 #@! TF.CreationDate,2024-11-16T23:29:11-05:00*
G04 #@! TF.ProjectId,DDI-parent,4444492d-7061-4726-956e-742e6b696361,rev?*
G04 #@! TF.SameCoordinates,Original*
G04 #@! TF.FileFunction,Copper,L2,Bot*
G04 #@! TF.FilePolarity,Positive*
%FSLAX46Y46*%
G04 Gerber Fmt 4.6, Leading zero omitted, Abs format (unit mm)*
G04 Created by KiCad (PCBNEW 8.0.6) date 2024-11-16 23:29:11*
%MOMM*%
%LPD*%
G01*
G04 APERTURE LIST*
G04 Aperture macros list*
%AMRoundRect*
0 Rectangle with rounded corners*
0 $1 Rounding radius*
0 $2 $3 $4 $5 $6 $7 $8 $9 X,Y pos of 4 corners*
0 Add a 4 corners polygon primitive as box body*
4,1,4,$2,$3,$4,$5,$6,$7,$8,$9,$2,$3,0*
0 Add four circle primitives for the rounded corners*
1,1,$1+$1,$2,$3*
1,1,$1+$1,$4,$5*
1,1,$1+$1,$6,$7*
1,1,$1+$1,$8,$9*
0 Add four rect primitives between the rounded corners*
20,1,$1+$1,$2,$3,$4,$5,0*
20,1,$1+$1,$4,$5,$6,$7,0*
20,1,$1+$1,$6,$7,$8,$9,0*
20,1,$1+$1,$8,$9,$2,$3,0*%
G04 Aperture macros list end*
G04 #@! TA.AperFunction,ComponentPad*
%ADD10C,1.600000*%
G04 #@! TD*
G04 #@! TA.AperFunction,ComponentPad*
%ADD11R,1.600000X1.600000*%
G04 #@! TD*
G04 #@! TA.AperFunction,SMDPad,CuDef*
%ADD12RoundRect,0.750000X-0.750000X1.250000X-0.750000X-1.250000X0.750000X-1.250000X0.750000X1.250000X0*%
G04 #@! TD*
G04 #@! TA.AperFunction,SMDPad,CuDef*
%ADD13RoundRect,0.750000X0.750000X-1.250000X0.750000X1.250000X-0.750000X1.250000X-0.750000X-1.250000X0*%
G04 #@! TD*
G04 #@! TA.AperFunction,ComponentPad*
%ADD14C,2.000000*%
G04 #@! TD*
G04 #@! TA.AperFunction,ComponentPad*
%ADD15C,1.524000*%
G04 #@! TD*
G04 #@! TA.AperFunction,ViaPad*
%ADD16C,0.800000*%
G04 #@! TD*
G04 #@! TA.AperFunction,Conductor*
%ADD17C,0.250000*%
G04 #@! TD*
G04 APERTURE END LIST*
D10*
X174763400Y212586549D03*
D11*
X179763400Y212586549D03*
D12*
X234610749Y216336549D03*
D13*
X235355048Y208662591D03*
D12*
X241758109Y216352720D03*
D13*
X240462479Y208739588D03*
D12*
X217885482Y216387403D03*
X214135482Y216387403D03*
D13*
X216110749Y209086549D03*
D12*
X221635482Y216387403D03*
D13*
X220610749Y209086549D03*
D12*
X238254770Y216378385D03*
X180610749Y216336549D03*
D13*
X179360749Y208586549D03*
D12*
X177110749Y216336549D03*
X173610749Y216336549D03*
D13*
X173860749Y208586549D03*
D14*
X245110566Y210397924D03*
X251610566Y210397924D03*
X245110566Y214897924D03*
X251610566Y214897924D03*
D15*
X248360566Y209947924D03*
X248360566Y215347924D03*
D14*
X204470566Y210397924D03*
X210970566Y210397924D03*
X204470566Y214897924D03*
X210970566Y214897924D03*
D15*
X207720566Y209947924D03*
X207720566Y215347924D03*
D14*
X163830566Y210397924D03*
X170330566Y210397924D03*
X163830566Y214897924D03*
X170330566Y214897924D03*
D15*
X167080566Y209947924D03*
X167080566Y215347924D03*
D14*
X184150566Y210397924D03*
X190650566Y210397924D03*
X184150566Y214897924D03*
X190650566Y214897924D03*
D15*
X187400566Y209947924D03*
X187400566Y215347924D03*
D14*
X224790566Y210397924D03*
X231290566Y210397924D03*
X224790566Y214897924D03*
X231290566Y214897924D03*
D15*
X228040566Y209947924D03*
X228040566Y215347924D03*
D16*
X223117403Y207056129D03*
X238110749Y213086549D03*
X236335444Y211836549D03*
X232110749Y207836549D03*
X216110749Y214336549D03*
X229860749Y216611072D03*
X233110749Y212561549D03*
X218110749Y210886549D03*
X219360749Y213336549D03*
X214110749Y210836549D03*
X216360749Y212336549D03*
X211498402Y217974202D03*
X170610749Y217586549D03*
X241610749Y213836549D03*
X199610749Y210836549D03*
X201110749Y217836549D03*
X197110749Y211336549D03*
X194123402Y212323896D03*
X193110749Y213836549D03*
X193110749Y217336549D03*
X194610749Y216836549D03*
X217360749Y211611549D03*
D17*
X199610749Y207436549D02*
X200285749Y206761549D01*
X199610749Y210836549D02*
X199610749Y207436549D01*
X222822823Y206761549D02*
X200285749Y206761549D01*
X223117403Y207056129D02*
X222822823Y206761549D01*
X177435750Y214011549D02*
X177110749Y214336550D01*
X182110749Y213336549D02*
X181435749Y214011549D01*
X191110749Y213336549D02*
X182110749Y213336549D01*
X193110749Y215336549D02*
X191110749Y213336549D01*
X177110749Y214336550D02*
X177110749Y216336549D01*
X193110749Y217336549D02*
X193110749Y215336549D01*
X181435749Y214011549D02*
X177435750Y214011549D01*
X179763400Y212183898D02*
X180485749Y211461549D01*
X179763400Y212586549D02*
X179763400Y212183898D01*
X179935749Y210911549D02*
X180485749Y211461549D01*
X180485749Y211461549D02*
X180860749Y211836549D01*
X173610749Y213739200D02*
X174763400Y212586549D01*
X173610749Y216336549D02*
X173610749Y213739200D01*
X238110749Y213086549D02*
X238610749Y213586549D01*
X238610749Y213586549D02*
X238610749Y216336549D01*
X240110749Y209586549D02*
X240110749Y208836549D01*
X236360749Y213336549D02*
X240110749Y209586549D01*
X236360749Y213336549D02*
X219360749Y213336549D01*
X233110749Y208836549D02*
X232110749Y207836549D01*
X235360749Y208836549D02*
X233110749Y208836549D01*
X232885749Y212336549D02*
X216360749Y212336549D01*
X233110749Y212561549D02*
X232885749Y212336549D01*
X226860749Y211836549D02*
X236335444Y211836549D01*
X219610749Y211836549D02*
X226860749Y211836549D01*
X219385749Y211611549D02*
X219610749Y211836549D01*
X217360749Y211611549D02*
X219385749Y211611549D01*
X216110749Y214836549D02*
X216110749Y214336549D01*
X217860749Y216586549D02*
X216110749Y214836549D01*
X222110749Y217336549D02*
X222360749Y217086549D01*
X222110749Y214836549D02*
X222110749Y217336549D01*
X221360749Y214086549D02*
X222110749Y214836549D01*
X219085444Y214086549D02*
X221360749Y214086549D01*
X217072450Y213286549D02*
X218285444Y213286549D01*
X215874048Y213511549D02*
X216847450Y213511549D01*
X215649048Y213286549D02*
X215874048Y213511549D01*
X201110749Y213836549D02*
X201660749Y213286549D01*
X201660749Y213286549D02*
X215649048Y213286549D01*
X216847450Y213511549D02*
X217072450Y213286549D01*
X201110749Y217836549D02*
X201110749Y213836549D01*
X218285444Y213286549D02*
X219085444Y214086549D01*
X217360749Y211611549D02*
X211630774Y211611549D01*
X229860749Y216586549D02*
X221610749Y216586549D01*
X229860749Y216611072D02*
X229860749Y216586549D01*
X194386054Y213086549D02*
X193860749Y213086549D01*
X194636054Y212836549D02*
X194386054Y213086549D01*
X216886054Y212836549D02*
X216661054Y213061549D01*
X216661054Y213061549D02*
X216060444Y213061549D01*
X216060444Y213061549D02*
X215835444Y212836549D01*
X219360749Y213336549D02*
X218860749Y212836549D01*
X218860749Y212836549D02*
X216886054Y212836549D01*
X215835444Y212836549D02*
X194636054Y212836549D01*
X218110749Y210886549D02*
X219360749Y209636549D01*
X219360749Y209636549D02*
X219360749Y208086549D01*
X215110749Y210836549D02*
X216110749Y209836549D01*
X214110749Y210836549D02*
X215110749Y210836549D01*
X216110749Y209836549D02*
X216110749Y208086549D01*
X212136055Y217336549D02*
X215360749Y217336549D01*
X211498402Y217974202D02*
X212136055Y217336549D01*
X191835749Y212561549D02*
X193110749Y213836549D01*
X183699353Y212561549D02*
X191835749Y212561549D01*
X182974353Y211836549D02*
X183699353Y212561549D01*
X180860749Y211836549D02*
X182974353Y211836549D01*
X178165467Y210911549D02*
X179935749Y210911549D01*
X177535749Y210281831D02*
X178165467Y210911549D01*
X176860749Y207836549D02*
X177535749Y208511549D01*
X177535749Y208511549D02*
X177535749Y210281831D01*
X174610749Y207836549D02*
X176860749Y207836549D01*
X180610749Y216586549D02*
X182085749Y218061549D01*
X180610749Y216336549D02*
X180610749Y216586549D01*
X182085749Y218061549D02*
X182110749Y218061549D01*
X182110749Y218061549D02*
X182110749Y218036549D01*
X182110749Y218061549D02*
X200885749Y218061549D01*
X182110749Y218036549D02*
X182085749Y218061549D01*
X233729191Y217336549D02*
X234110749Y217336549D01*
X231290566Y214897924D02*
X233729191Y217336549D01*
X242610749Y214836549D02*
X241610749Y213836549D01*
X216360749Y212336549D02*
X194110749Y212336549D01*
X200885749Y218061549D02*
X201110749Y217836549D01*
X170610749Y217586549D02*
X170860749Y217586549D01*
X173610749Y217586549D02*
X170610749Y217586549D01*
X173610749Y217336549D02*
X173610749Y217586549D01*
X192885749Y212111549D02*
X193860749Y213086549D01*
X183885749Y212111549D02*
X192885749Y212111549D01*
X179610749Y207836549D02*
X183885749Y212111549D01*
X194610749Y213836549D02*
X193860749Y213086549D01*
X194610749Y216836549D02*
X194610749Y213836549D01*
X242610749Y217336549D02*
X242610749Y214836549D01*
X211519399Y211722924D02*
X197497124Y211722924D01*
X197497124Y211722924D02*
X197110749Y211336549D01*
X211630774Y211611549D02*
X211519399Y211722924D01*
X194110749Y212336549D02*
X194123402Y212323896D01*
M02*
