G04 #@! TF.GenerationSoftware,KiCad,Pcbnew,8.0.6*
G04 #@! TF.CreationDate,2024-11-22T01:36:26-05:00*
G04 #@! TF.ProjectId,DDI-parent,4444492d-7061-4726-956e-742e6b696361,rev?*
G04 #@! TF.SameCoordinates,Original*
G04 #@! TF.FileFunction,Soldermask,Top*
G04 #@! TF.FilePolarity,Negative*
%FSLAX46Y46*%
G04 Gerber Fmt 4.6, Leading zero omitted, Abs format (unit mm)*
G04 Created by KiCad (PCBNEW 8.0.6) date 2024-11-22 01:36:26*
%MOMM*%
%LPD*%
G01*
G04 APERTURE LIST*
G04 Aperture macros list*
%AMRoundRect*
0 Rectangle with rounded corners*
0 $1 Rounding radius*
0 $2 $3 $4 $5 $6 $7 $8 $9 X,Y pos of 4 corners*
0 Add a 4 corners polygon primitive as box body*
4,1,4,$2,$3,$4,$5,$6,$7,$8,$9,$2,$3,0*
0 Add four circle primitives for the rounded corners*
1,1,$1+$1,$2,$3*
1,1,$1+$1,$4,$5*
1,1,$1+$1,$6,$7*
1,1,$1+$1,$8,$9*
0 Add four rect primitives between the rounded corners*
20,1,$1+$1,$2,$3,$4,$5,0*
20,1,$1+$1,$4,$5,$6,$7,0*
20,1,$1+$1,$6,$7,$8,$9,0*
20,1,$1+$1,$8,$9,$2,$3,0*%
G04 Aperture macros list end*
%ADD10RoundRect,0.140000X-0.170000X0.140000X-0.170000X-0.140000X0.170000X-0.140000X0.170000X0.140000X0*%
%ADD11RoundRect,0.100000X0.100000X-0.637500X0.100000X0.637500X-0.100000X0.637500X-0.100000X-0.637500X0*%
%ADD12C,2.000000*%
%ADD13C,1.524000*%
%ADD14RoundRect,0.750000X0.750000X-1.250000X0.750000X1.250000X-0.750000X1.250000X-0.750000X-1.250000X0*%
%ADD15C,4.300000*%
%ADD16RoundRect,0.750000X-1.250000X-0.750000X1.250000X-0.750000X1.250000X0.750000X-1.250000X0.750000X0*%
%ADD17RoundRect,0.750000X1.414214X-0.353553X-0.353553X1.414214X-1.414214X0.353553X0.353553X-1.414214X0*%
%ADD18RoundRect,0.750000X-0.750000X1.250000X-0.750000X-1.250000X0.750000X-1.250000X0.750000X1.250000X0*%
G04 APERTURE END LIST*
D10*
X173565631Y213970873D03*
X173565631Y213010873D03*
D11*
X175530458Y210498954D03*
X176180458Y210498954D03*
X176830458Y210498954D03*
X177480458Y210498954D03*
X178130458Y210498954D03*
X178780458Y210498954D03*
X179430458Y210498954D03*
X180080458Y210498954D03*
X180080458Y216223954D03*
X179430458Y216223954D03*
X178780458Y216223954D03*
X178130458Y216223954D03*
X177480458Y216223954D03*
X176830458Y216223954D03*
X176180458Y216223954D03*
X175530458Y216223954D03*
D12*
X163830566Y210397924D03*
X170330566Y210397924D03*
X163830566Y214897924D03*
X170330566Y214897924D03*
D13*
X167080566Y209947924D03*
X167080566Y215347924D03*
D12*
X204470566Y210397924D03*
X210970566Y210397924D03*
X204470566Y214897924D03*
X210970566Y214897924D03*
D13*
X207720566Y209947924D03*
X207720566Y215347924D03*
D12*
X224790566Y210397924D03*
X231290566Y210397924D03*
X224790566Y214897924D03*
X231290566Y214897924D03*
D13*
X228040566Y209947924D03*
X228040566Y215347924D03*
D12*
X245110566Y210397924D03*
X251610566Y210397924D03*
X245110566Y214897924D03*
X251610566Y214897924D03*
D13*
X248360566Y209947924D03*
X248360566Y215347924D03*
D12*
X184150566Y210397924D03*
X190650566Y210397924D03*
X184150566Y214897924D03*
X190650566Y214897924D03*
D13*
X187400566Y209947924D03*
X187400566Y215347924D03*
D14*
X197479910Y214859904D03*
X193993187Y214870694D03*
D15*
X217894575Y207594893D03*
D16*
X156814539Y208435955D03*
D17*
X160387838Y214191172D03*
D15*
X217930130Y217661058D03*
D18*
X200954411Y214874441D03*
M02*
