G04 #@! TF.GenerationSoftware,KiCad,Pcbnew,8.0.6*
G04 #@! TF.CreationDate,2024-11-22T01:36:26-05:00*
G04 #@! TF.ProjectId,DDI-parent,4444492d-7061-4726-956e-742e6b696361,rev?*
G04 #@! TF.SameCoordinates,Original*
G04 #@! TF.FileFunction,Legend,Top*
G04 #@! TF.FilePolarity,Positive*
%FSLAX46Y46*%
G04 Gerber Fmt 4.6, Leading zero omitted, Abs format (unit mm)*
G04 Created by KiCad (PCBNEW 8.0.6) date 2024-11-22 01:36:26*
%MOMM*%
%LPD*%
G01*
G04 APERTURE LIST*
%ADD10C,0.150000*%
%ADD11C,0.120000*%
%ADD12C,0.100000*%
G04 APERTURE END LIST*
D10*
X230804524Y207816087D02*
X231137857Y207816087D01*
X231280714Y207292277D02*
X230804524Y207292277D01*
X230804524Y207292277D02*
X230804524Y208292277D01*
X230804524Y208292277D02*
X231280714Y208292277D01*
X231709286Y207292277D02*
X231709286Y207958944D01*
X231709286Y207768468D02*
X231756905Y207863706D01*
X231756905Y207863706D02*
X231804524Y207911325D01*
X231804524Y207911325D02*
X231899762Y207958944D01*
X231899762Y207958944D02*
X231995000Y207958944D01*
X232328334Y207292277D02*
X232328334Y207958944D01*
X232328334Y208292277D02*
X232280715Y208244658D01*
X232280715Y208244658D02*
X232328334Y208197039D01*
X232328334Y208197039D02*
X232375953Y208244658D01*
X232375953Y208244658D02*
X232328334Y208292277D01*
X232328334Y208292277D02*
X232328334Y208197039D01*
X232804524Y207292277D02*
X232804524Y208292277D01*
X232899762Y207673230D02*
X233185476Y207292277D01*
X233185476Y207958944D02*
X232804524Y207577992D01*
X234899762Y208244658D02*
X234804524Y208292277D01*
X234804524Y208292277D02*
X234661667Y208292277D01*
X234661667Y208292277D02*
X234518810Y208244658D01*
X234518810Y208244658D02*
X234423572Y208149420D01*
X234423572Y208149420D02*
X234375953Y208054182D01*
X234375953Y208054182D02*
X234328334Y207863706D01*
X234328334Y207863706D02*
X234328334Y207720849D01*
X234328334Y207720849D02*
X234375953Y207530373D01*
X234375953Y207530373D02*
X234423572Y207435135D01*
X234423572Y207435135D02*
X234518810Y207339897D01*
X234518810Y207339897D02*
X234661667Y207292277D01*
X234661667Y207292277D02*
X234756905Y207292277D01*
X234756905Y207292277D02*
X234899762Y207339897D01*
X234899762Y207339897D02*
X234947381Y207387516D01*
X234947381Y207387516D02*
X234947381Y207720849D01*
X234947381Y207720849D02*
X234756905Y207720849D01*
X235518810Y207292277D02*
X235423572Y207339897D01*
X235423572Y207339897D02*
X235375953Y207387516D01*
X235375953Y207387516D02*
X235328334Y207482754D01*
X235328334Y207482754D02*
X235328334Y207768468D01*
X235328334Y207768468D02*
X235375953Y207863706D01*
X235375953Y207863706D02*
X235423572Y207911325D01*
X235423572Y207911325D02*
X235518810Y207958944D01*
X235518810Y207958944D02*
X235661667Y207958944D01*
X235661667Y207958944D02*
X235756905Y207911325D01*
X235756905Y207911325D02*
X235804524Y207863706D01*
X235804524Y207863706D02*
X235852143Y207768468D01*
X235852143Y207768468D02*
X235852143Y207482754D01*
X235852143Y207482754D02*
X235804524Y207387516D01*
X235804524Y207387516D02*
X235756905Y207339897D01*
X235756905Y207339897D02*
X235661667Y207292277D01*
X235661667Y207292277D02*
X235518810Y207292277D01*
X236423572Y207292277D02*
X236328334Y207339897D01*
X236328334Y207339897D02*
X236280715Y207435135D01*
X236280715Y207435135D02*
X236280715Y208292277D01*
X237233096Y207292277D02*
X237233096Y208292277D01*
X237233096Y207339897D02*
X237137858Y207292277D01*
X237137858Y207292277D02*
X236947382Y207292277D01*
X236947382Y207292277D02*
X236852144Y207339897D01*
X236852144Y207339897D02*
X236804525Y207387516D01*
X236804525Y207387516D02*
X236756906Y207482754D01*
X236756906Y207482754D02*
X236756906Y207768468D01*
X236756906Y207768468D02*
X236804525Y207863706D01*
X236804525Y207863706D02*
X236852144Y207911325D01*
X236852144Y207911325D02*
X236947382Y207958944D01*
X236947382Y207958944D02*
X237137858Y207958944D01*
X237137858Y207958944D02*
X237233096Y207911325D01*
X237709287Y207292277D02*
X237709287Y207958944D01*
X237709287Y207863706D02*
X237756906Y207911325D01*
X237756906Y207911325D02*
X237852144Y207958944D01*
X237852144Y207958944D02*
X237995001Y207958944D01*
X237995001Y207958944D02*
X238090239Y207911325D01*
X238090239Y207911325D02*
X238137858Y207816087D01*
X238137858Y207816087D02*
X238137858Y207292277D01*
X238137858Y207816087D02*
X238185477Y207911325D01*
X238185477Y207911325D02*
X238280715Y207958944D01*
X238280715Y207958944D02*
X238423572Y207958944D01*
X238423572Y207958944D02*
X238518811Y207911325D01*
X238518811Y207911325D02*
X238566430Y207816087D01*
X238566430Y207816087D02*
X238566430Y207292277D01*
X239471191Y207292277D02*
X239471191Y207816087D01*
X239471191Y207816087D02*
X239423572Y207911325D01*
X239423572Y207911325D02*
X239328334Y207958944D01*
X239328334Y207958944D02*
X239137858Y207958944D01*
X239137858Y207958944D02*
X239042620Y207911325D01*
X239471191Y207339897D02*
X239375953Y207292277D01*
X239375953Y207292277D02*
X239137858Y207292277D01*
X239137858Y207292277D02*
X239042620Y207339897D01*
X239042620Y207339897D02*
X238995001Y207435135D01*
X238995001Y207435135D02*
X238995001Y207530373D01*
X238995001Y207530373D02*
X239042620Y207625611D01*
X239042620Y207625611D02*
X239137858Y207673230D01*
X239137858Y207673230D02*
X239375953Y207673230D01*
X239375953Y207673230D02*
X239471191Y207720849D01*
X239947382Y207958944D02*
X239947382Y207292277D01*
X239947382Y207863706D02*
X239995001Y207911325D01*
X239995001Y207911325D02*
X240090239Y207958944D01*
X240090239Y207958944D02*
X240233096Y207958944D01*
X240233096Y207958944D02*
X240328334Y207911325D01*
X240328334Y207911325D02*
X240375953Y207816087D01*
X240375953Y207816087D02*
X240375953Y207292277D01*
X240899763Y207339897D02*
X240899763Y207292277D01*
X240899763Y207292277D02*
X240852144Y207197039D01*
X240852144Y207197039D02*
X240804525Y207149420D01*
X242042620Y208197039D02*
X242090239Y208244658D01*
X242090239Y208244658D02*
X242185477Y208292277D01*
X242185477Y208292277D02*
X242423572Y208292277D01*
X242423572Y208292277D02*
X242518810Y208244658D01*
X242518810Y208244658D02*
X242566429Y208197039D01*
X242566429Y208197039D02*
X242614048Y208101801D01*
X242614048Y208101801D02*
X242614048Y208006563D01*
X242614048Y208006563D02*
X242566429Y207863706D01*
X242566429Y207863706D02*
X241995001Y207292277D01*
X241995001Y207292277D02*
X242614048Y207292277D01*
X243233096Y208292277D02*
X243328334Y208292277D01*
X243328334Y208292277D02*
X243423572Y208244658D01*
X243423572Y208244658D02*
X243471191Y208197039D01*
X243471191Y208197039D02*
X243518810Y208101801D01*
X243518810Y208101801D02*
X243566429Y207911325D01*
X243566429Y207911325D02*
X243566429Y207673230D01*
X243566429Y207673230D02*
X243518810Y207482754D01*
X243518810Y207482754D02*
X243471191Y207387516D01*
X243471191Y207387516D02*
X243423572Y207339897D01*
X243423572Y207339897D02*
X243328334Y207292277D01*
X243328334Y207292277D02*
X243233096Y207292277D01*
X243233096Y207292277D02*
X243137858Y207339897D01*
X243137858Y207339897D02*
X243090239Y207387516D01*
X243090239Y207387516D02*
X243042620Y207482754D01*
X243042620Y207482754D02*
X242995001Y207673230D01*
X242995001Y207673230D02*
X242995001Y207911325D01*
X242995001Y207911325D02*
X243042620Y208101801D01*
X243042620Y208101801D02*
X243090239Y208197039D01*
X243090239Y208197039D02*
X243137858Y208244658D01*
X243137858Y208244658D02*
X243233096Y208292277D01*
X243947382Y208197039D02*
X243995001Y208244658D01*
X243995001Y208244658D02*
X244090239Y208292277D01*
X244090239Y208292277D02*
X244328334Y208292277D01*
X244328334Y208292277D02*
X244423572Y208244658D01*
X244423572Y208244658D02*
X244471191Y208197039D01*
X244471191Y208197039D02*
X244518810Y208101801D01*
X244518810Y208101801D02*
X244518810Y208006563D01*
X244518810Y208006563D02*
X244471191Y207863706D01*
X244471191Y207863706D02*
X243899763Y207292277D01*
X243899763Y207292277D02*
X244518810Y207292277D01*
X245375953Y207958944D02*
X245375953Y207292277D01*
X245137858Y208339897D02*
X244899763Y207625611D01*
X244899763Y207625611D02*
X245518810Y207625611D01*
X233848916Y208759525D02*
X233848916Y209759525D01*
X233848916Y209759525D02*
X234087011Y209759525D01*
X234087011Y209759525D02*
X234229868Y209711906D01*
X234229868Y209711906D02*
X234325106Y209616668D01*
X234325106Y209616668D02*
X234372725Y209521430D01*
X234372725Y209521430D02*
X234420344Y209330954D01*
X234420344Y209330954D02*
X234420344Y209188097D01*
X234420344Y209188097D02*
X234372725Y208997621D01*
X234372725Y208997621D02*
X234325106Y208902383D01*
X234325106Y208902383D02*
X234229868Y208807145D01*
X234229868Y208807145D02*
X234087011Y208759525D01*
X234087011Y208759525D02*
X233848916Y208759525D01*
X234848916Y208759525D02*
X234848916Y209759525D01*
X234848916Y209759525D02*
X235087011Y209759525D01*
X235087011Y209759525D02*
X235229868Y209711906D01*
X235229868Y209711906D02*
X235325106Y209616668D01*
X235325106Y209616668D02*
X235372725Y209521430D01*
X235372725Y209521430D02*
X235420344Y209330954D01*
X235420344Y209330954D02*
X235420344Y209188097D01*
X235420344Y209188097D02*
X235372725Y208997621D01*
X235372725Y208997621D02*
X235325106Y208902383D01*
X235325106Y208902383D02*
X235229868Y208807145D01*
X235229868Y208807145D02*
X235087011Y208759525D01*
X235087011Y208759525D02*
X234848916Y208759525D01*
X235848916Y208759525D02*
X235848916Y209759525D01*
X236991773Y209426192D02*
X237229868Y208759525D01*
X237229868Y208759525D02*
X237467963Y209426192D01*
X238372725Y208759525D02*
X237801297Y208759525D01*
X238087011Y208759525D02*
X238087011Y209759525D01*
X238087011Y209759525D02*
X237991773Y209616668D01*
X237991773Y209616668D02*
X237896535Y209521430D01*
X237896535Y209521430D02*
X237801297Y209473811D01*
X238801297Y208854764D02*
X238848916Y208807145D01*
X238848916Y208807145D02*
X238801297Y208759525D01*
X238801297Y208759525D02*
X238753678Y208807145D01*
X238753678Y208807145D02*
X238801297Y208854764D01*
X238801297Y208854764D02*
X238801297Y208759525D01*
X239801296Y208759525D02*
X239229868Y208759525D01*
X239515582Y208759525D02*
X239515582Y209759525D01*
X239515582Y209759525D02*
X239420344Y209616668D01*
X239420344Y209616668D02*
X239325106Y209521430D01*
X239325106Y209521430D02*
X239229868Y209473811D01*
X173402500Y214769700D02*
X173354881Y214722081D01*
X173354881Y214722081D02*
X173212024Y214674461D01*
X173212024Y214674461D02*
X173116786Y214674461D01*
X173116786Y214674461D02*
X172973929Y214722081D01*
X172973929Y214722081D02*
X172878691Y214817319D01*
X172878691Y214817319D02*
X172831072Y214912557D01*
X172831072Y214912557D02*
X172783453Y215103033D01*
X172783453Y215103033D02*
X172783453Y215245890D01*
X172783453Y215245890D02*
X172831072Y215436366D01*
X172831072Y215436366D02*
X172878691Y215531604D01*
X172878691Y215531604D02*
X172973929Y215626842D01*
X172973929Y215626842D02*
X173116786Y215674461D01*
X173116786Y215674461D02*
X173212024Y215674461D01*
X173212024Y215674461D02*
X173354881Y215626842D01*
X173354881Y215626842D02*
X173402500Y215579223D01*
X174354881Y214674461D02*
X173783453Y214674461D01*
X174069167Y214674461D02*
X174069167Y215674461D01*
X174069167Y215674461D02*
X173973929Y215531604D01*
X173973929Y215531604D02*
X173878691Y215436366D01*
X173878691Y215436366D02*
X173783453Y215388747D01*
X175843024Y213247888D02*
X176652547Y213247888D01*
X176652547Y213247888D02*
X176747785Y213295507D01*
X176747785Y213295507D02*
X176795405Y213343126D01*
X176795405Y213343126D02*
X176843024Y213438364D01*
X176843024Y213438364D02*
X176843024Y213628840D01*
X176843024Y213628840D02*
X176795405Y213724078D01*
X176795405Y213724078D02*
X176747785Y213771697D01*
X176747785Y213771697D02*
X176652547Y213819316D01*
X176652547Y213819316D02*
X175843024Y213819316D01*
X176843024Y214819316D02*
X176843024Y214247888D01*
X176843024Y214533602D02*
X175843024Y214533602D01*
X175843024Y214533602D02*
X175985881Y214438364D01*
X175985881Y214438364D02*
X176081119Y214343126D01*
X176081119Y214343126D02*
X176128738Y214247888D01*
X163032382Y207731656D02*
X163175239Y207684036D01*
X163175239Y207684036D02*
X163413334Y207684036D01*
X163413334Y207684036D02*
X163508572Y207731656D01*
X163508572Y207731656D02*
X163556191Y207779275D01*
X163556191Y207779275D02*
X163603810Y207874513D01*
X163603810Y207874513D02*
X163603810Y207969751D01*
X163603810Y207969751D02*
X163556191Y208064989D01*
X163556191Y208064989D02*
X163508572Y208112608D01*
X163508572Y208112608D02*
X163413334Y208160227D01*
X163413334Y208160227D02*
X163222858Y208207846D01*
X163222858Y208207846D02*
X163127620Y208255465D01*
X163127620Y208255465D02*
X163080001Y208303084D01*
X163080001Y208303084D02*
X163032382Y208398322D01*
X163032382Y208398322D02*
X163032382Y208493560D01*
X163032382Y208493560D02*
X163080001Y208588798D01*
X163080001Y208588798D02*
X163127620Y208636417D01*
X163127620Y208636417D02*
X163222858Y208684036D01*
X163222858Y208684036D02*
X163460953Y208684036D01*
X163460953Y208684036D02*
X163603810Y208636417D01*
X163937144Y208684036D02*
X164175239Y207684036D01*
X164175239Y207684036D02*
X164365715Y208398322D01*
X164365715Y208398322D02*
X164556191Y207684036D01*
X164556191Y207684036D02*
X164794287Y208684036D01*
X165699048Y207684036D02*
X165127620Y207684036D01*
X165413334Y207684036D02*
X165413334Y208684036D01*
X165413334Y208684036D02*
X165318096Y208541179D01*
X165318096Y208541179D02*
X165222858Y208445941D01*
X165222858Y208445941D02*
X165127620Y208398322D01*
D11*
X166825804Y208438830D02*
X167435328Y208438830D01*
X167130566Y208134068D02*
X167130566Y208743592D01*
D10*
X209545636Y207622623D02*
X209688493Y207575003D01*
X209688493Y207575003D02*
X209926588Y207575003D01*
X209926588Y207575003D02*
X210021826Y207622623D01*
X210021826Y207622623D02*
X210069445Y207670242D01*
X210069445Y207670242D02*
X210117064Y207765480D01*
X210117064Y207765480D02*
X210117064Y207860718D01*
X210117064Y207860718D02*
X210069445Y207955956D01*
X210069445Y207955956D02*
X210021826Y208003575D01*
X210021826Y208003575D02*
X209926588Y208051194D01*
X209926588Y208051194D02*
X209736112Y208098813D01*
X209736112Y208098813D02*
X209640874Y208146432D01*
X209640874Y208146432D02*
X209593255Y208194051D01*
X209593255Y208194051D02*
X209545636Y208289289D01*
X209545636Y208289289D02*
X209545636Y208384527D01*
X209545636Y208384527D02*
X209593255Y208479765D01*
X209593255Y208479765D02*
X209640874Y208527384D01*
X209640874Y208527384D02*
X209736112Y208575003D01*
X209736112Y208575003D02*
X209974207Y208575003D01*
X209974207Y208575003D02*
X210117064Y208527384D01*
X210450398Y208575003D02*
X210688493Y207575003D01*
X210688493Y207575003D02*
X210878969Y208289289D01*
X210878969Y208289289D02*
X211069445Y207575003D01*
X211069445Y207575003D02*
X211307541Y208575003D01*
X211593255Y208575003D02*
X212212302Y208575003D01*
X212212302Y208575003D02*
X211878969Y208194051D01*
X211878969Y208194051D02*
X212021826Y208194051D01*
X212021826Y208194051D02*
X212117064Y208146432D01*
X212117064Y208146432D02*
X212164683Y208098813D01*
X212164683Y208098813D02*
X212212302Y208003575D01*
X212212302Y208003575D02*
X212212302Y207765480D01*
X212212302Y207765480D02*
X212164683Y207670242D01*
X212164683Y207670242D02*
X212117064Y207622623D01*
X212117064Y207622623D02*
X212021826Y207575003D01*
X212021826Y207575003D02*
X211736112Y207575003D01*
X211736112Y207575003D02*
X211640874Y207622623D01*
X211640874Y207622623D02*
X211593255Y207670242D01*
D11*
X207465804Y208438830D02*
X208075328Y208438830D01*
X207770566Y208134068D02*
X207770566Y208743592D01*
D10*
X223567213Y207557204D02*
X223710070Y207509584D01*
X223710070Y207509584D02*
X223948165Y207509584D01*
X223948165Y207509584D02*
X224043403Y207557204D01*
X224043403Y207557204D02*
X224091022Y207604823D01*
X224091022Y207604823D02*
X224138641Y207700061D01*
X224138641Y207700061D02*
X224138641Y207795299D01*
X224138641Y207795299D02*
X224091022Y207890537D01*
X224091022Y207890537D02*
X224043403Y207938156D01*
X224043403Y207938156D02*
X223948165Y207985775D01*
X223948165Y207985775D02*
X223757689Y208033394D01*
X223757689Y208033394D02*
X223662451Y208081013D01*
X223662451Y208081013D02*
X223614832Y208128632D01*
X223614832Y208128632D02*
X223567213Y208223870D01*
X223567213Y208223870D02*
X223567213Y208319108D01*
X223567213Y208319108D02*
X223614832Y208414346D01*
X223614832Y208414346D02*
X223662451Y208461965D01*
X223662451Y208461965D02*
X223757689Y208509584D01*
X223757689Y208509584D02*
X223995784Y208509584D01*
X223995784Y208509584D02*
X224138641Y208461965D01*
X224471975Y208509584D02*
X224710070Y207509584D01*
X224710070Y207509584D02*
X224900546Y208223870D01*
X224900546Y208223870D02*
X225091022Y207509584D01*
X225091022Y207509584D02*
X225329118Y208509584D01*
X226138641Y208176251D02*
X226138641Y207509584D01*
X225900546Y208557204D02*
X225662451Y207842918D01*
X225662451Y207842918D02*
X226281498Y207842918D01*
D11*
X227785804Y208438830D02*
X228395328Y208438830D01*
X228090566Y208134068D02*
X228090566Y208743592D01*
D10*
X250017287Y207621074D02*
X250160144Y207573454D01*
X250160144Y207573454D02*
X250398239Y207573454D01*
X250398239Y207573454D02*
X250493477Y207621074D01*
X250493477Y207621074D02*
X250541096Y207668693D01*
X250541096Y207668693D02*
X250588715Y207763931D01*
X250588715Y207763931D02*
X250588715Y207859169D01*
X250588715Y207859169D02*
X250541096Y207954407D01*
X250541096Y207954407D02*
X250493477Y208002026D01*
X250493477Y208002026D02*
X250398239Y208049645D01*
X250398239Y208049645D02*
X250207763Y208097264D01*
X250207763Y208097264D02*
X250112525Y208144883D01*
X250112525Y208144883D02*
X250064906Y208192502D01*
X250064906Y208192502D02*
X250017287Y208287740D01*
X250017287Y208287740D02*
X250017287Y208382978D01*
X250017287Y208382978D02*
X250064906Y208478216D01*
X250064906Y208478216D02*
X250112525Y208525835D01*
X250112525Y208525835D02*
X250207763Y208573454D01*
X250207763Y208573454D02*
X250445858Y208573454D01*
X250445858Y208573454D02*
X250588715Y208525835D01*
X250922049Y208573454D02*
X251160144Y207573454D01*
X251160144Y207573454D02*
X251350620Y208287740D01*
X251350620Y208287740D02*
X251541096Y207573454D01*
X251541096Y207573454D02*
X251779192Y208573454D01*
X252636334Y208573454D02*
X252160144Y208573454D01*
X252160144Y208573454D02*
X252112525Y208097264D01*
X252112525Y208097264D02*
X252160144Y208144883D01*
X252160144Y208144883D02*
X252255382Y208192502D01*
X252255382Y208192502D02*
X252493477Y208192502D01*
X252493477Y208192502D02*
X252588715Y208144883D01*
X252588715Y208144883D02*
X252636334Y208097264D01*
X252636334Y208097264D02*
X252683953Y208002026D01*
X252683953Y208002026D02*
X252683953Y207763931D01*
X252683953Y207763931D02*
X252636334Y207668693D01*
X252636334Y207668693D02*
X252588715Y207621074D01*
X252588715Y207621074D02*
X252493477Y207573454D01*
X252493477Y207573454D02*
X252255382Y207573454D01*
X252255382Y207573454D02*
X252160144Y207621074D01*
X252160144Y207621074D02*
X252112525Y207668693D01*
D11*
X248105804Y208438830D02*
X248715328Y208438830D01*
X248410566Y208134068D02*
X248410566Y208743592D01*
D10*
X189221983Y207622623D02*
X189364840Y207575003D01*
X189364840Y207575003D02*
X189602935Y207575003D01*
X189602935Y207575003D02*
X189698173Y207622623D01*
X189698173Y207622623D02*
X189745792Y207670242D01*
X189745792Y207670242D02*
X189793411Y207765480D01*
X189793411Y207765480D02*
X189793411Y207860718D01*
X189793411Y207860718D02*
X189745792Y207955956D01*
X189745792Y207955956D02*
X189698173Y208003575D01*
X189698173Y208003575D02*
X189602935Y208051194D01*
X189602935Y208051194D02*
X189412459Y208098813D01*
X189412459Y208098813D02*
X189317221Y208146432D01*
X189317221Y208146432D02*
X189269602Y208194051D01*
X189269602Y208194051D02*
X189221983Y208289289D01*
X189221983Y208289289D02*
X189221983Y208384527D01*
X189221983Y208384527D02*
X189269602Y208479765D01*
X189269602Y208479765D02*
X189317221Y208527384D01*
X189317221Y208527384D02*
X189412459Y208575003D01*
X189412459Y208575003D02*
X189650554Y208575003D01*
X189650554Y208575003D02*
X189793411Y208527384D01*
X190126745Y208575003D02*
X190364840Y207575003D01*
X190364840Y207575003D02*
X190555316Y208289289D01*
X190555316Y208289289D02*
X190745792Y207575003D01*
X190745792Y207575003D02*
X190983888Y208575003D01*
X191317221Y208479765D02*
X191364840Y208527384D01*
X191364840Y208527384D02*
X191460078Y208575003D01*
X191460078Y208575003D02*
X191698173Y208575003D01*
X191698173Y208575003D02*
X191793411Y208527384D01*
X191793411Y208527384D02*
X191841030Y208479765D01*
X191841030Y208479765D02*
X191888649Y208384527D01*
X191888649Y208384527D02*
X191888649Y208289289D01*
X191888649Y208289289D02*
X191841030Y208146432D01*
X191841030Y208146432D02*
X191269602Y207575003D01*
X191269602Y207575003D02*
X191888649Y207575003D01*
D11*
X187145804Y208438830D02*
X187755328Y208438830D01*
X187450566Y208134068D02*
X187450566Y208743592D01*
D10*
X197375399Y211497551D02*
X197042066Y211973742D01*
X196803971Y211497551D02*
X196803971Y212497551D01*
X196803971Y212497551D02*
X197184923Y212497551D01*
X197184923Y212497551D02*
X197280161Y212449932D01*
X197280161Y212449932D02*
X197327780Y212402313D01*
X197327780Y212402313D02*
X197375399Y212307075D01*
X197375399Y212307075D02*
X197375399Y212164218D01*
X197375399Y212164218D02*
X197327780Y212068980D01*
X197327780Y212068980D02*
X197280161Y212021361D01*
X197280161Y212021361D02*
X197184923Y211973742D01*
X197184923Y211973742D02*
X196803971Y211973742D01*
X197756352Y211783266D02*
X198232542Y211783266D01*
X197661114Y211497551D02*
X197994447Y212497551D01*
X197994447Y212497551D02*
X198327780Y211497551D01*
X193861725Y211617429D02*
X193528392Y212093620D01*
X193290297Y211617429D02*
X193290297Y212617429D01*
X193290297Y212617429D02*
X193671249Y212617429D01*
X193671249Y212617429D02*
X193766487Y212569810D01*
X193766487Y212569810D02*
X193814106Y212522191D01*
X193814106Y212522191D02*
X193861725Y212426953D01*
X193861725Y212426953D02*
X193861725Y212284096D01*
X193861725Y212284096D02*
X193814106Y212188858D01*
X193814106Y212188858D02*
X193766487Y212141239D01*
X193766487Y212141239D02*
X193671249Y212093620D01*
X193671249Y212093620D02*
X193290297Y212093620D01*
X194623630Y212141239D02*
X194766487Y212093620D01*
X194766487Y212093620D02*
X194814106Y212046001D01*
X194814106Y212046001D02*
X194861725Y211950763D01*
X194861725Y211950763D02*
X194861725Y211807906D01*
X194861725Y211807906D02*
X194814106Y211712668D01*
X194814106Y211712668D02*
X194766487Y211665049D01*
X194766487Y211665049D02*
X194671249Y211617429D01*
X194671249Y211617429D02*
X194290297Y211617429D01*
X194290297Y211617429D02*
X194290297Y212617429D01*
X194290297Y212617429D02*
X194623630Y212617429D01*
X194623630Y212617429D02*
X194718868Y212569810D01*
X194718868Y212569810D02*
X194766487Y212522191D01*
X194766487Y212522191D02*
X194814106Y212426953D01*
X194814106Y212426953D02*
X194814106Y212331715D01*
X194814106Y212331715D02*
X194766487Y212236477D01*
X194766487Y212236477D02*
X194718868Y212188858D01*
X194718868Y212188858D02*
X194623630Y212141239D01*
X194623630Y212141239D02*
X194290297Y212141239D01*
X215179754Y208074644D02*
X214179754Y208074644D01*
X214655944Y208074644D02*
X214655944Y208646072D01*
X215179754Y208646072D02*
X214179754Y208646072D01*
X214274992Y209074644D02*
X214227373Y209122263D01*
X214227373Y209122263D02*
X214179754Y209217501D01*
X214179754Y209217501D02*
X214179754Y209455596D01*
X214179754Y209455596D02*
X214227373Y209550834D01*
X214227373Y209550834D02*
X214274992Y209598453D01*
X214274992Y209598453D02*
X214370230Y209646072D01*
X214370230Y209646072D02*
X214465468Y209646072D01*
X214465468Y209646072D02*
X214608325Y209598453D01*
X214608325Y209598453D02*
X215179754Y209027025D01*
X215179754Y209027025D02*
X215179754Y209646072D01*
X159848844Y208768805D02*
X159753606Y208816424D01*
X159753606Y208816424D02*
X159610749Y208816424D01*
X159610749Y208816424D02*
X159467892Y208768805D01*
X159467892Y208768805D02*
X159372654Y208673567D01*
X159372654Y208673567D02*
X159325035Y208578329D01*
X159325035Y208578329D02*
X159277416Y208387853D01*
X159277416Y208387853D02*
X159277416Y208244996D01*
X159277416Y208244996D02*
X159325035Y208054520D01*
X159325035Y208054520D02*
X159372654Y207959282D01*
X159372654Y207959282D02*
X159467892Y207864044D01*
X159467892Y207864044D02*
X159610749Y207816424D01*
X159610749Y207816424D02*
X159705987Y207816424D01*
X159705987Y207816424D02*
X159848844Y207864044D01*
X159848844Y207864044D02*
X159896463Y207911663D01*
X159896463Y207911663D02*
X159896463Y208244996D01*
X159896463Y208244996D02*
X159705987Y208244996D01*
X160325035Y207816424D02*
X160325035Y208816424D01*
X160325035Y208816424D02*
X160896463Y207816424D01*
X160896463Y207816424D02*
X160896463Y208816424D01*
X161372654Y207816424D02*
X161372654Y208816424D01*
X161372654Y208816424D02*
X161610749Y208816424D01*
X161610749Y208816424D02*
X161753606Y208768805D01*
X161753606Y208768805D02*
X161848844Y208673567D01*
X161848844Y208673567D02*
X161896463Y208578329D01*
X161896463Y208578329D02*
X161944082Y208387853D01*
X161944082Y208387853D02*
X161944082Y208244996D01*
X161944082Y208244996D02*
X161896463Y208054520D01*
X161896463Y208054520D02*
X161848844Y207959282D01*
X161848844Y207959282D02*
X161753606Y207864044D01*
X161753606Y207864044D02*
X161610749Y207816424D01*
X161610749Y207816424D02*
X161372654Y207816424D01*
X161400337Y210510495D02*
X161535024Y210577839D01*
X161535024Y210577839D02*
X161703383Y210746197D01*
X161703383Y210746197D02*
X161737054Y210847213D01*
X161737054Y210847213D02*
X161737054Y210914556D01*
X161737054Y210914556D02*
X161703383Y211015571D01*
X161703383Y211015571D02*
X161636039Y211082915D01*
X161636039Y211082915D02*
X161535024Y211116587D01*
X161535024Y211116587D02*
X161467680Y211116587D01*
X161467680Y211116587D02*
X161366665Y211082915D01*
X161366665Y211082915D02*
X161198306Y210981900D01*
X161198306Y210981900D02*
X161097291Y210948228D01*
X161097291Y210948228D02*
X161029948Y210948228D01*
X161029948Y210948228D02*
X160928932Y210981900D01*
X160928932Y210981900D02*
X160861589Y211049243D01*
X160861589Y211049243D02*
X160827917Y211150258D01*
X160827917Y211150258D02*
X160827917Y211217602D01*
X160827917Y211217602D02*
X160861589Y211318617D01*
X160861589Y211318617D02*
X161029948Y211486976D01*
X161029948Y211486976D02*
X161164635Y211554319D01*
X162477833Y211655335D02*
X162477833Y211587991D01*
X162477833Y211587991D02*
X162410489Y211453304D01*
X162410489Y211453304D02*
X162343146Y211385961D01*
X162343146Y211385961D02*
X162208459Y211318617D01*
X162208459Y211318617D02*
X162073772Y211318617D01*
X162073772Y211318617D02*
X161972757Y211352289D01*
X161972757Y211352289D02*
X161804398Y211453304D01*
X161804398Y211453304D02*
X161703383Y211554319D01*
X161703383Y211554319D02*
X161602367Y211722678D01*
X161602367Y211722678D02*
X161568696Y211823693D01*
X161568696Y211823693D02*
X161568696Y211958380D01*
X161568696Y211958380D02*
X161636039Y212093067D01*
X161636039Y212093067D02*
X161703383Y212160411D01*
X161703383Y212160411D02*
X161838070Y212227754D01*
X161838070Y212227754D02*
X161905413Y212227754D01*
X163184940Y212227754D02*
X162848222Y211891037D01*
X162848222Y211891037D02*
X162141115Y212598144D01*
X221554589Y215574644D02*
X220554589Y215574644D01*
X221030779Y215574644D02*
X221030779Y216146072D01*
X221554589Y216146072D02*
X220554589Y216146072D01*
X221554589Y217146072D02*
X221554589Y216574644D01*
X221554589Y216860358D02*
X220554589Y216860358D01*
X220554589Y216860358D02*
X220697446Y216765120D01*
X220697446Y216765120D02*
X220792684Y216669882D01*
X220792684Y216669882D02*
X220840303Y216574644D01*
X199813292Y211506369D02*
X199479959Y211982560D01*
X199241864Y211506369D02*
X199241864Y212506369D01*
X199241864Y212506369D02*
X199622816Y212506369D01*
X199622816Y212506369D02*
X199718054Y212458750D01*
X199718054Y212458750D02*
X199765673Y212411131D01*
X199765673Y212411131D02*
X199813292Y212315893D01*
X199813292Y212315893D02*
X199813292Y212173036D01*
X199813292Y212173036D02*
X199765673Y212077798D01*
X199765673Y212077798D02*
X199718054Y212030179D01*
X199718054Y212030179D02*
X199622816Y211982560D01*
X199622816Y211982560D02*
X199241864Y211982560D01*
X200765673Y212458750D02*
X200670435Y212506369D01*
X200670435Y212506369D02*
X200527578Y212506369D01*
X200527578Y212506369D02*
X200384721Y212458750D01*
X200384721Y212458750D02*
X200289483Y212363512D01*
X200289483Y212363512D02*
X200241864Y212268274D01*
X200241864Y212268274D02*
X200194245Y212077798D01*
X200194245Y212077798D02*
X200194245Y211934941D01*
X200194245Y211934941D02*
X200241864Y211744465D01*
X200241864Y211744465D02*
X200289483Y211649227D01*
X200289483Y211649227D02*
X200384721Y211553989D01*
X200384721Y211553989D02*
X200527578Y211506369D01*
X200527578Y211506369D02*
X200622816Y211506369D01*
X200622816Y211506369D02*
X200765673Y211553989D01*
X200765673Y211553989D02*
X200813292Y211601608D01*
X200813292Y211601608D02*
X200813292Y211934941D01*
X200813292Y211934941D02*
X200622816Y211934941D01*
X201241864Y211506369D02*
X201241864Y212506369D01*
X201241864Y212506369D02*
X201813292Y211506369D01*
X201813292Y211506369D02*
X201813292Y212506369D01*
X202289483Y211506369D02*
X202289483Y212506369D01*
X202289483Y212506369D02*
X202527578Y212506369D01*
X202527578Y212506369D02*
X202670435Y212458750D01*
X202670435Y212458750D02*
X202765673Y212363512D01*
X202765673Y212363512D02*
X202813292Y212268274D01*
X202813292Y212268274D02*
X202860911Y212077798D01*
X202860911Y212077798D02*
X202860911Y211934941D01*
X202860911Y211934941D02*
X202813292Y211744465D01*
X202813292Y211744465D02*
X202765673Y211649227D01*
X202765673Y211649227D02*
X202670435Y211553989D01*
X202670435Y211553989D02*
X202527578Y211506369D01*
X202527578Y211506369D02*
X202289483Y211506369D01*
D11*
X173925631Y213598709D02*
X173925631Y213383037D01*
X173205631Y213598709D02*
X173205631Y213383037D01*
X175070458Y213361454D02*
X175070458Y215561454D01*
X175070458Y213361454D02*
X175070458Y211161454D01*
X180540458Y213361454D02*
X180540458Y215561454D01*
X180540458Y213361454D02*
X180540458Y211161454D01*
X175770458Y209171454D02*
X175290458Y209171454D01*
X175530458Y209501454D01*
X175770458Y209171454D01*
G36*
X175770458Y209171454D02*
G01*
X175290458Y209171454D01*
X175530458Y209501454D01*
X175770458Y209171454D01*
G37*
X163580566Y213397924D02*
X163580566Y211897924D01*
X164530566Y209497924D02*
X166330566Y209497924D01*
X166430566Y215897924D02*
X164330566Y215897924D01*
X167830566Y209497924D02*
X169630566Y209497924D01*
X169730566Y215897924D02*
X167730566Y215897924D01*
X170580566Y211897924D02*
X170580566Y213397924D01*
X172377780Y210397924D02*
G75*
G02*
X171483352Y210397924I-447214J0D01*
G01*
X171483352Y210397924D02*
G75*
G02*
X172377780Y210397924I447214J0D01*
G01*
D12*
X172130566Y210797924D02*
X172230566Y210697924D01*
X172330566Y210597924D01*
X172377780Y210397924D01*
X172330566Y210197924D01*
X172130566Y209997924D01*
X171930566Y209950710D01*
X171730566Y209997924D01*
X171530566Y210197924D01*
X171483352Y210397924D01*
X171530566Y210597924D01*
X171730566Y210797924D01*
X171930566Y210845138D01*
X172130566Y210797924D01*
G36*
X172130566Y210797924D02*
G01*
X172230566Y210697924D01*
X172330566Y210597924D01*
X172377780Y210397924D01*
X172330566Y210197924D01*
X172130566Y209997924D01*
X171930566Y209950710D01*
X171730566Y209997924D01*
X171530566Y210197924D01*
X171483352Y210397924D01*
X171530566Y210597924D01*
X171730566Y210797924D01*
X171930566Y210845138D01*
X172130566Y210797924D01*
G37*
D11*
X204220566Y213397924D02*
X204220566Y211897924D01*
X205170566Y209497924D02*
X206970566Y209497924D01*
X207070566Y215897924D02*
X204970566Y215897924D01*
X208470566Y209497924D02*
X210270566Y209497924D01*
X210370566Y215897924D02*
X208370566Y215897924D01*
X211220566Y211897924D02*
X211220566Y213397924D01*
X213017780Y210397924D02*
G75*
G02*
X212123352Y210397924I-447214J0D01*
G01*
X212123352Y210397924D02*
G75*
G02*
X213017780Y210397924I447214J0D01*
G01*
D12*
X212770566Y210797924D02*
X212870566Y210697924D01*
X212970566Y210597924D01*
X213017780Y210397924D01*
X212970566Y210197924D01*
X212770566Y209997924D01*
X212570566Y209950710D01*
X212370566Y209997924D01*
X212170566Y210197924D01*
X212123352Y210397924D01*
X212170566Y210597924D01*
X212370566Y210797924D01*
X212570566Y210845138D01*
X212770566Y210797924D01*
G36*
X212770566Y210797924D02*
G01*
X212870566Y210697924D01*
X212970566Y210597924D01*
X213017780Y210397924D01*
X212970566Y210197924D01*
X212770566Y209997924D01*
X212570566Y209950710D01*
X212370566Y209997924D01*
X212170566Y210197924D01*
X212123352Y210397924D01*
X212170566Y210597924D01*
X212370566Y210797924D01*
X212570566Y210845138D01*
X212770566Y210797924D01*
G37*
D11*
X224540566Y213397924D02*
X224540566Y211897924D01*
X225490566Y209497924D02*
X227290566Y209497924D01*
X227390566Y215897924D02*
X225290566Y215897924D01*
X228790566Y209497924D02*
X230590566Y209497924D01*
X230690566Y215897924D02*
X228690566Y215897924D01*
X231540566Y211897924D02*
X231540566Y213397924D01*
X233337780Y210397924D02*
G75*
G02*
X232443352Y210397924I-447214J0D01*
G01*
X232443352Y210397924D02*
G75*
G02*
X233337780Y210397924I447214J0D01*
G01*
D12*
X233090566Y210797924D02*
X233190566Y210697924D01*
X233290566Y210597924D01*
X233337780Y210397924D01*
X233290566Y210197924D01*
X233090566Y209997924D01*
X232890566Y209950710D01*
X232690566Y209997924D01*
X232490566Y210197924D01*
X232443352Y210397924D01*
X232490566Y210597924D01*
X232690566Y210797924D01*
X232890566Y210845138D01*
X233090566Y210797924D01*
G36*
X233090566Y210797924D02*
G01*
X233190566Y210697924D01*
X233290566Y210597924D01*
X233337780Y210397924D01*
X233290566Y210197924D01*
X233090566Y209997924D01*
X232890566Y209950710D01*
X232690566Y209997924D01*
X232490566Y210197924D01*
X232443352Y210397924D01*
X232490566Y210597924D01*
X232690566Y210797924D01*
X232890566Y210845138D01*
X233090566Y210797924D01*
G37*
D11*
X244860566Y213397924D02*
X244860566Y211897924D01*
X245810566Y209497924D02*
X247610566Y209497924D01*
X247710566Y215897924D02*
X245610566Y215897924D01*
X249110566Y209497924D02*
X250910566Y209497924D01*
X251010566Y215897924D02*
X249010566Y215897924D01*
X251860566Y211897924D02*
X251860566Y213397924D01*
X253657780Y210397924D02*
G75*
G02*
X252763352Y210397924I-447214J0D01*
G01*
X252763352Y210397924D02*
G75*
G02*
X253657780Y210397924I447214J0D01*
G01*
D12*
X253410566Y210797924D02*
X253510566Y210697924D01*
X253610566Y210597924D01*
X253657780Y210397924D01*
X253610566Y210197924D01*
X253410566Y209997924D01*
X253210566Y209950710D01*
X253010566Y209997924D01*
X252810566Y210197924D01*
X252763352Y210397924D01*
X252810566Y210597924D01*
X253010566Y210797924D01*
X253210566Y210845138D01*
X253410566Y210797924D01*
G36*
X253410566Y210797924D02*
G01*
X253510566Y210697924D01*
X253610566Y210597924D01*
X253657780Y210397924D01*
X253610566Y210197924D01*
X253410566Y209997924D01*
X253210566Y209950710D01*
X253010566Y209997924D01*
X252810566Y210197924D01*
X252763352Y210397924D01*
X252810566Y210597924D01*
X253010566Y210797924D01*
X253210566Y210845138D01*
X253410566Y210797924D01*
G37*
D11*
X183900566Y213397924D02*
X183900566Y211897924D01*
X184850566Y209497924D02*
X186650566Y209497924D01*
X186750566Y215897924D02*
X184650566Y215897924D01*
X188150566Y209497924D02*
X189950566Y209497924D01*
X190050566Y215897924D02*
X188050566Y215897924D01*
X190900566Y211897924D02*
X190900566Y213397924D01*
X192697780Y210397924D02*
G75*
G02*
X191803352Y210397924I-447214J0D01*
G01*
X191803352Y210397924D02*
G75*
G02*
X192697780Y210397924I447214J0D01*
G01*
D12*
X192450566Y210797924D02*
X192550566Y210697924D01*
X192650566Y210597924D01*
X192697780Y210397924D01*
X192650566Y210197924D01*
X192450566Y209997924D01*
X192250566Y209950710D01*
X192050566Y209997924D01*
X191850566Y210197924D01*
X191803352Y210397924D01*
X191850566Y210597924D01*
X192050566Y210797924D01*
X192250566Y210845138D01*
X192450566Y210797924D01*
G36*
X192450566Y210797924D02*
G01*
X192550566Y210697924D01*
X192650566Y210597924D01*
X192697780Y210397924D01*
X192650566Y210197924D01*
X192450566Y209997924D01*
X192250566Y209950710D01*
X192050566Y209997924D01*
X191850566Y210197924D01*
X191803352Y210397924D01*
X191850566Y210597924D01*
X192050566Y210797924D01*
X192250566Y210845138D01*
X192450566Y210797924D01*
G37*
M02*
