G04 #@! TF.GenerationSoftware,KiCad,Pcbnew,8.0.6*
G04 #@! TF.CreationDate,2024-11-16T23:29:11-05:00*
G04 #@! TF.ProjectId,DDI-parent,4444492d-7061-4726-956e-742e6b696361,rev?*
G04 #@! TF.SameCoordinates,Original*
G04 #@! TF.FileFunction,Copper,L1,Top*
G04 #@! TF.FilePolarity,Positive*
%FSLAX46Y46*%
G04 Gerber Fmt 4.6, Leading zero omitted, Abs format (unit mm)*
G04 Created by KiCad (PCBNEW 8.0.6) date 2024-11-16 23:29:11*
%MOMM*%
%LPD*%
G01*
G04 APERTURE LIST*
G04 Aperture macros list*
%AMRoundRect*
0 Rectangle with rounded corners*
0 $1 Rounding radius*
0 $2 $3 $4 $5 $6 $7 $8 $9 X,Y pos of 4 corners*
0 Add a 4 corners polygon primitive as box body*
4,1,4,$2,$3,$4,$5,$6,$7,$8,$9,$2,$3,0*
0 Add four circle primitives for the rounded corners*
1,1,$1+$1,$2,$3*
1,1,$1+$1,$4,$5*
1,1,$1+$1,$6,$7*
1,1,$1+$1,$8,$9*
0 Add four rect primitives between the rounded corners*
20,1,$1+$1,$2,$3,$4,$5,0*
20,1,$1+$1,$4,$5,$6,$7,0*
20,1,$1+$1,$6,$7,$8,$9,0*
20,1,$1+$1,$8,$9,$2,$3,0*%
G04 Aperture macros list end*
G04 #@! TA.AperFunction,ComponentPad*
%ADD10C,1.600000*%
G04 #@! TD*
G04 #@! TA.AperFunction,ComponentPad*
%ADD11R,1.600000X1.600000*%
G04 #@! TD*
G04 #@! TA.AperFunction,ComponentPad*
%ADD12C,2.000000*%
G04 #@! TD*
G04 #@! TA.AperFunction,ComponentPad*
%ADD13C,1.524000*%
G04 #@! TD*
G04 #@! TA.AperFunction,SMDPad,CuDef*
%ADD14RoundRect,0.100000X0.100000X-0.637500X0.100000X0.637500X-0.100000X0.637500X-0.100000X-0.637500X0*%
G04 #@! TD*
G04 #@! TA.AperFunction,ViaPad*
%ADD15C,0.800000*%
G04 #@! TD*
G04 #@! TA.AperFunction,Conductor*
%ADD16C,0.250000*%
G04 #@! TD*
G04 APERTURE END LIST*
D10*
X174763400Y212586549D03*
D11*
X179763400Y212586549D03*
D12*
X245110566Y210397924D03*
X251610566Y210397924D03*
X245110566Y214897924D03*
X251610566Y214897924D03*
D13*
X248360566Y209947924D03*
X248360566Y215347924D03*
D12*
X204470566Y210397924D03*
X210970566Y210397924D03*
X204470566Y214897924D03*
X210970566Y214897924D03*
D13*
X207720566Y209947924D03*
X207720566Y215347924D03*
D12*
X163830566Y210397924D03*
X170330566Y210397924D03*
X163830566Y214897924D03*
X170330566Y214897924D03*
D13*
X167080566Y209947924D03*
X167080566Y215347924D03*
D12*
X184150566Y210397924D03*
X190650566Y210397924D03*
X184150566Y214897924D03*
X190650566Y214897924D03*
D13*
X187400566Y209947924D03*
X187400566Y215347924D03*
D14*
X195829691Y209457324D03*
X196479691Y209457324D03*
X197129691Y209457324D03*
X197779691Y209457324D03*
X198429691Y209457324D03*
X199079691Y209457324D03*
X199729691Y209457324D03*
X200379691Y209457324D03*
X200379691Y215182324D03*
X199729691Y215182324D03*
X199079691Y215182324D03*
X198429691Y215182324D03*
X197779691Y215182324D03*
X197129691Y215182324D03*
X196479691Y215182324D03*
X195829691Y215182324D03*
D12*
X224790566Y210397924D03*
X231290566Y210397924D03*
X224790566Y214897924D03*
X231290566Y214897924D03*
D13*
X228040566Y209947924D03*
X228040566Y215347924D03*
D15*
X223117403Y207056129D03*
X238110749Y213086549D03*
X236335444Y211836549D03*
X232110749Y207836549D03*
X216110749Y214336549D03*
X229860749Y216611072D03*
X233110749Y212561549D03*
X218110749Y210886549D03*
X219360749Y213336549D03*
X214110749Y210836549D03*
X216360749Y212336549D03*
X211498402Y217974202D03*
X170610749Y217586549D03*
X241610749Y213836549D03*
X199610749Y210836549D03*
X201110749Y217836549D03*
X197110749Y211336549D03*
X194123402Y212323896D03*
X193110749Y213836549D03*
X193110749Y217336549D03*
X194610749Y216836549D03*
X217360749Y211611549D03*
D16*
X223360749Y206586549D02*
X223110749Y206836549D01*
X245110749Y208086549D02*
X243610749Y206586549D01*
X243610749Y206586549D02*
X223360749Y206586549D01*
X245110749Y210086549D02*
X245110749Y208086549D01*
X245110566Y210086732D02*
X245110749Y210086549D01*
X245110566Y210397924D02*
X245110566Y210086732D01*
X236860749Y211836549D02*
X238110749Y213086549D01*
X236335444Y211836549D02*
X236860749Y211836549D01*
X241610749Y217336549D02*
X241610749Y213836549D01*
X230610749Y217336549D02*
X241610749Y217336549D01*
X229860749Y216586549D02*
X230610749Y217336549D01*
X229860749Y216611072D02*
X229860749Y216586549D01*
X233110749Y208836549D02*
X232110749Y207836549D01*
X233110749Y212561549D02*
X233110749Y208836549D01*
X217360749Y212836549D02*
X217360749Y211611549D01*
X216110749Y214086549D02*
X217360749Y212836549D01*
X219360749Y213336549D02*
X219360749Y212136549D01*
X219360749Y212136549D02*
X218110749Y210886549D01*
X216360749Y212336549D02*
X215610749Y212336549D01*
X215610749Y212336549D02*
X214110749Y210836549D01*
X211498402Y217974202D02*
X211498402Y215425760D01*
X211498402Y215425760D02*
X210970566Y214897924D01*
X219360749Y213336549D02*
X219360749Y213086549D01*
X170330566Y216806366D02*
X170330566Y214897924D01*
X170610749Y217086549D02*
X170330566Y216806366D01*
X170610749Y217586549D02*
X170610749Y217086549D01*
X196479691Y215919823D02*
X196479691Y215182324D01*
X195562965Y216836549D02*
X196479691Y215919823D01*
X194610749Y216836549D02*
X195562965Y216836549D01*
X197129691Y217067607D02*
X197129691Y215182324D01*
X193610749Y217836549D02*
X196360749Y217836549D01*
X196360749Y217836549D02*
X197129691Y217067607D01*
X193110749Y217336549D02*
X193610749Y217836549D01*
X200379691Y212105491D02*
X200379691Y215182324D01*
X199610749Y211336549D02*
X200379691Y212105491D01*
X199610749Y210836549D02*
X199610749Y211336549D01*
X200941807Y217667607D02*
X197779691Y217667607D01*
X201110749Y217836549D02*
X200941807Y217667607D01*
X197129691Y211355491D02*
X197129691Y215182324D01*
X197110749Y211336549D02*
X197129691Y211355491D01*
X194110749Y212336549D02*
X194110749Y213836549D01*
X194123402Y212323896D02*
X194110749Y212336549D01*
X194110749Y213836549D02*
X194483916Y213836549D01*
X193110749Y213836549D02*
X194110749Y213836549D01*
X222950657Y213058015D02*
X224790566Y214897924D01*
X222950657Y209336549D02*
X222950657Y213058015D01*
X213270840Y212597650D02*
X213270840Y209336549D01*
X210970566Y214897924D02*
X213270840Y212597650D01*
X213270840Y209336549D02*
X222950657Y209336549D01*
X200379691Y210807049D02*
X204470566Y214897924D01*
X200379691Y209457324D02*
X200379691Y210807049D01*
X194483916Y213836549D02*
X195829691Y215182324D01*
X202467466Y208394824D02*
X204470566Y210397924D01*
X200054692Y208394824D02*
X202467466Y208394824D01*
X199729691Y209457324D02*
X199729691Y208719825D01*
X199729691Y208719825D02*
X200054692Y208394824D01*
X221229191Y206836549D02*
X224790566Y210397924D01*
X199110749Y206836549D02*
X221229191Y206836549D01*
X199079691Y206867607D02*
X199110749Y206836549D01*
X199079691Y209457324D02*
X199079691Y206867607D01*
X170610749Y207336549D02*
X197046415Y207336549D01*
X197046415Y207336549D02*
X198429691Y208719825D01*
X170330566Y207616732D02*
X170610749Y207336549D01*
X170330566Y210397924D02*
X170330566Y207616732D01*
X198429691Y208719825D02*
X198429691Y209457324D01*
X197779691Y208719825D02*
X197779691Y209457324D01*
X191610749Y207836549D02*
X196896415Y207836549D01*
X196896415Y207836549D02*
X197779691Y208719825D01*
X190650566Y208796732D02*
X191610749Y207836549D01*
X190650566Y210397924D02*
X190650566Y208796732D01*
X197779691Y217667607D02*
X197779691Y215182324D01*
X224790566Y214897924D02*
X224790566Y217766366D01*
X245110566Y217336366D02*
X245110566Y214897924D01*
X245110749Y217336549D02*
X245110566Y217336366D01*
X245110749Y217836549D02*
X245110749Y217336549D01*
X224860749Y217836549D02*
X245110749Y217836549D01*
M02*
