%TF.GenerationSoftware,KiCad,Pcbnew,8.0.6*%
%TF.CreationDate,2024-11-27T23:04:25-05:00*%
%TF.ProjectId,DDI-parent,4444492d-7061-4726-956e-742e6b696361,rev?*%
%TF.SameCoordinates,Original*%
%TF.FileFunction,Drillmap*%
%TF.FilePolarity,Positive*%
%FSLAX45Y45*%
G04 Gerber Fmt 4.5, Leading zero omitted, Abs format (unit mm)*
G04 Created by KiCad (PCBNEW 8.0.6) date 2024-11-27 23:04:25*
%MOMM*%
%LPD*%
G01*
G04 APERTURE LIST*
%ADD10C,0.100000*%
%ADD11C,0.150000*%
%ADD12C,0.200000*%
%ADD13C,0.110000*%
G04 APERTURE END LIST*
D10*
X25611075Y20633655D02*
X15411075Y20633655D01*
X16011075Y21800000D02*
X15411075Y21333655D01*
X25611075Y21800000D02*
X25611075Y20633655D01*
D11*
X15411075Y20633655D02*
X15411075Y21333655D01*
D10*
X16011075Y21800000D02*
X25611075Y21800000D01*
D12*
D10*
X16191075Y20905433D02*
X16231075Y20865433D01*
X16231075Y20905433D02*
X16191075Y20865433D01*
X16375015Y21264792D02*
X16415015Y21224792D01*
X16415015Y21264792D02*
X16375015Y21224792D01*
X16465331Y21182837D02*
X16505331Y21142837D01*
X16505331Y21182837D02*
X16465331Y21142837D01*
X16691075Y21153655D02*
X16731075Y21113655D01*
X16731075Y21153655D02*
X16691075Y21113655D01*
X16718575Y20833592D02*
X16758575Y20793592D01*
X16758575Y20833592D02*
X16718575Y20793592D01*
X16791075Y20753655D02*
X16831075Y20713655D01*
X16831075Y20753655D02*
X16791075Y20713655D01*
X16945772Y20889977D02*
X16985772Y20849977D01*
X16985772Y20889977D02*
X16945772Y20849977D01*
X16990751Y21351355D02*
X17030751Y21311355D01*
X17030751Y21351355D02*
X16990751Y21311355D01*
X17141067Y21254394D02*
X17181067Y21214394D01*
X17181067Y21254394D02*
X17141067Y21214394D01*
X17141075Y20896124D02*
X17181075Y20856124D01*
X17181075Y20896124D02*
X17141075Y20856124D01*
X17142090Y21154399D02*
X17182090Y21114399D01*
X17182090Y21154399D02*
X17142090Y21114399D01*
X17211712Y21380487D02*
X17251712Y21340487D01*
X17251712Y21380487D02*
X17211712Y21340487D01*
X17312782Y21131948D02*
X17352782Y21091948D01*
X17352782Y21131948D02*
X17312782Y21091948D01*
X17389601Y20951787D02*
X17429601Y20911787D01*
X17429601Y20951787D02*
X17389601Y20911787D01*
X17441075Y21703655D02*
X17481075Y21663655D01*
X17481075Y21703655D02*
X17441075Y21663655D01*
X17451543Y21030293D02*
X17491543Y20990293D01*
X17491543Y21030293D02*
X17451543Y20990293D01*
X17541075Y21258167D02*
X17581075Y21218167D01*
X17581075Y21258167D02*
X17541075Y21218167D01*
X17634696Y21452068D02*
X17674696Y21412068D01*
X17674696Y21452068D02*
X17634696Y21412068D01*
X17683575Y20903655D02*
X17723575Y20863655D01*
X17723575Y20903655D02*
X17683575Y20863655D01*
X17691075Y20749455D02*
X17731075Y20709455D01*
X17731075Y20749455D02*
X17691075Y20709455D01*
X17734350Y21460380D02*
X17774350Y21420380D01*
X17774350Y21460380D02*
X17734350Y21420380D01*
X17955026Y20935648D02*
X17995026Y20895648D01*
X17995026Y20935648D02*
X17955026Y20895648D01*
X18091075Y21606155D02*
X18131075Y21566155D01*
X18131075Y21606155D02*
X18091075Y21566155D01*
X18091075Y21103655D02*
X18131075Y21063655D01*
X18131075Y21103655D02*
X18091075Y21063655D01*
X18168108Y20780688D02*
X18208108Y20740688D01*
X18208108Y20780688D02*
X18168108Y20740688D01*
X18569144Y20831724D02*
X18609144Y20791724D01*
X18609144Y20831724D02*
X18569144Y20791724D01*
X19741075Y21053655D02*
X19781075Y21013655D01*
X19781075Y21053655D02*
X19741075Y21013655D01*
X19741075Y20904525D02*
X19781075Y20864525D01*
X19781075Y20904525D02*
X19741075Y20864525D01*
X19891075Y21260662D02*
X19931075Y21220662D01*
X19931075Y21260662D02*
X19891075Y21220662D01*
X20151075Y21103655D02*
X20191075Y21063655D01*
X20191075Y21103655D02*
X20151075Y21063655D01*
X20191075Y20814525D02*
X20231075Y20774525D01*
X20231075Y20814525D02*
X20191075Y20774525D01*
X20322816Y20887845D02*
X20362816Y20847845D01*
X20362816Y20887845D02*
X20322816Y20847845D01*
X20591075Y21253655D02*
X20631075Y21213655D01*
X20631075Y21253655D02*
X20591075Y21213655D01*
X20741075Y21359792D02*
X20781075Y21319792D01*
X20781075Y21359792D02*
X20741075Y21319792D01*
X23241075Y20926155D02*
X23281075Y20886155D01*
X23281075Y20926155D02*
X23241075Y20886155D01*
X23791075Y20803655D02*
X23831075Y20763655D01*
X23831075Y20803655D02*
X23791075Y20763655D01*
X23859364Y21126708D02*
X23899364Y21086708D01*
X23899364Y21126708D02*
X23859364Y21086708D01*
X16746157Y21534792D02*
G75*
G02*
X16669957Y21534792I-38100J0D01*
G01*
X16669957Y21534792D02*
G75*
G02*
X16746157Y21534792I38100J0D01*
G01*
X16746157Y20994792D02*
G75*
G02*
X16669957Y20994792I-38100J0D01*
G01*
X16669957Y20994792D02*
G75*
G02*
X16746157Y20994792I38100J0D01*
G01*
X18778157Y21534792D02*
G75*
G02*
X18701957Y21534792I-38100J0D01*
G01*
X18701957Y21534792D02*
G75*
G02*
X18778157Y21534792I38100J0D01*
G01*
X18778157Y20994792D02*
G75*
G02*
X18701957Y20994792I-38100J0D01*
G01*
X18701957Y20994792D02*
G75*
G02*
X18778157Y20994792I38100J0D01*
G01*
X20810157Y21534792D02*
G75*
G02*
X20733957Y21534792I-38100J0D01*
G01*
X20733957Y21534792D02*
G75*
G02*
X20810157Y21534792I38100J0D01*
G01*
X20810157Y20994792D02*
G75*
G02*
X20733957Y20994792I-38100J0D01*
G01*
X20733957Y20994792D02*
G75*
G02*
X20810157Y20994792I38100J0D01*
G01*
X22842157Y21534792D02*
G75*
G02*
X22765957Y21534792I-38100J0D01*
G01*
X22765957Y21534792D02*
G75*
G02*
X22842157Y21534792I38100J0D01*
G01*
X22842157Y20994792D02*
G75*
G02*
X22765957Y20994792I-38100J0D01*
G01*
X22765957Y20994792D02*
G75*
G02*
X22842157Y20994792I38100J0D01*
G01*
X24874157Y21534792D02*
G75*
G02*
X24797957Y21534792I-38100J0D01*
G01*
X24797957Y21534792D02*
G75*
G02*
X24874157Y21534792I38100J0D01*
G01*
X24874157Y20994792D02*
G75*
G02*
X24797957Y20994792I-38100J0D01*
G01*
X24797957Y20994792D02*
G75*
G02*
X24874157Y20994792I38100J0D01*
G01*
D13*
X16383057Y21544792D02*
X16383057Y21434792D01*
X16328057Y21489792D02*
X16438057Y21489792D01*
X16383057Y21094792D02*
X16383057Y20984792D01*
X16328057Y21039792D02*
X16438057Y21039792D01*
X17033057Y21544792D02*
X17033057Y21434792D01*
X16978057Y21489792D02*
X17088057Y21489792D01*
X17033057Y21094792D02*
X17033057Y20984792D01*
X16978057Y21039792D02*
X17088057Y21039792D01*
X18415057Y21544792D02*
X18415057Y21434792D01*
X18360057Y21489792D02*
X18470057Y21489792D01*
X18415057Y21094792D02*
X18415057Y20984792D01*
X18360057Y21039792D02*
X18470057Y21039792D01*
X19065057Y21544792D02*
X19065057Y21434792D01*
X19010057Y21489792D02*
X19120057Y21489792D01*
X19065057Y21094792D02*
X19065057Y20984792D01*
X19010057Y21039792D02*
X19120057Y21039792D01*
X20447057Y21544792D02*
X20447057Y21434792D01*
X20392057Y21489792D02*
X20502057Y21489792D01*
X20447057Y21094792D02*
X20447057Y20984792D01*
X20392057Y21039792D02*
X20502057Y21039792D01*
X21097057Y21544792D02*
X21097057Y21434792D01*
X21042057Y21489792D02*
X21152057Y21489792D01*
X21097057Y21094792D02*
X21097057Y20984792D01*
X21042057Y21039792D02*
X21152057Y21039792D01*
X22479057Y21544792D02*
X22479057Y21434792D01*
X22424057Y21489792D02*
X22534057Y21489792D01*
X22479057Y21094792D02*
X22479057Y20984792D01*
X22424057Y21039792D02*
X22534057Y21039792D01*
X23129057Y21544792D02*
X23129057Y21434792D01*
X23074057Y21489792D02*
X23184057Y21489792D01*
X23129057Y21094792D02*
X23129057Y20984792D01*
X23074057Y21039792D02*
X23184057Y21039792D01*
X24511057Y21544792D02*
X24511057Y21434792D01*
X24456057Y21489792D02*
X24566057Y21489792D01*
X24511057Y21094792D02*
X24511057Y20984792D01*
X24456057Y21039792D02*
X24566057Y21039792D01*
X25161057Y21544792D02*
X25161057Y21434792D01*
X25106057Y21489792D02*
X25216057Y21489792D01*
X25161057Y21094792D02*
X25161057Y20984792D01*
X25106057Y21039792D02*
X25216057Y21039792D01*
D12*
X15664352Y20314671D02*
X15664352Y20514671D01*
X15664352Y20514671D02*
X15711971Y20514671D01*
X15711971Y20514671D02*
X15740542Y20505147D01*
X15740542Y20505147D02*
X15759590Y20486100D01*
X15759590Y20486100D02*
X15769114Y20467052D01*
X15769114Y20467052D02*
X15778637Y20428957D01*
X15778637Y20428957D02*
X15778637Y20400385D01*
X15778637Y20400385D02*
X15769114Y20362290D01*
X15769114Y20362290D02*
X15759590Y20343243D01*
X15759590Y20343243D02*
X15740542Y20324195D01*
X15740542Y20324195D02*
X15711971Y20314671D01*
X15711971Y20314671D02*
X15664352Y20314671D01*
X15864352Y20314671D02*
X15864352Y20448004D01*
X15864352Y20409909D02*
X15873875Y20428957D01*
X15873875Y20428957D02*
X15883399Y20438481D01*
X15883399Y20438481D02*
X15902447Y20448004D01*
X15902447Y20448004D02*
X15921495Y20448004D01*
X15988161Y20314671D02*
X15988161Y20448004D01*
X15988161Y20514671D02*
X15978637Y20505147D01*
X15978637Y20505147D02*
X15988161Y20495623D01*
X15988161Y20495623D02*
X15997685Y20505147D01*
X15997685Y20505147D02*
X15988161Y20514671D01*
X15988161Y20514671D02*
X15988161Y20495623D01*
X16111971Y20314671D02*
X16092923Y20324195D01*
X16092923Y20324195D02*
X16083399Y20343243D01*
X16083399Y20343243D02*
X16083399Y20514671D01*
X16216733Y20314671D02*
X16197685Y20324195D01*
X16197685Y20324195D02*
X16188161Y20343243D01*
X16188161Y20343243D02*
X16188161Y20514671D01*
X16445304Y20314671D02*
X16445304Y20514671D01*
X16445304Y20514671D02*
X16511971Y20371814D01*
X16511971Y20371814D02*
X16578637Y20514671D01*
X16578637Y20514671D02*
X16578637Y20314671D01*
X16759590Y20314671D02*
X16759590Y20419433D01*
X16759590Y20419433D02*
X16750066Y20438481D01*
X16750066Y20438481D02*
X16731018Y20448004D01*
X16731018Y20448004D02*
X16692923Y20448004D01*
X16692923Y20448004D02*
X16673875Y20438481D01*
X16759590Y20324195D02*
X16740542Y20314671D01*
X16740542Y20314671D02*
X16692923Y20314671D01*
X16692923Y20314671D02*
X16673875Y20324195D01*
X16673875Y20324195D02*
X16664352Y20343243D01*
X16664352Y20343243D02*
X16664352Y20362290D01*
X16664352Y20362290D02*
X16673875Y20381338D01*
X16673875Y20381338D02*
X16692923Y20390862D01*
X16692923Y20390862D02*
X16740542Y20390862D01*
X16740542Y20390862D02*
X16759590Y20400385D01*
X16854828Y20448004D02*
X16854828Y20248004D01*
X16854828Y20438481D02*
X16873876Y20448004D01*
X16873876Y20448004D02*
X16911971Y20448004D01*
X16911971Y20448004D02*
X16931018Y20438481D01*
X16931018Y20438481D02*
X16940542Y20428957D01*
X16940542Y20428957D02*
X16950066Y20409909D01*
X16950066Y20409909D02*
X16950066Y20352766D01*
X16950066Y20352766D02*
X16940542Y20333719D01*
X16940542Y20333719D02*
X16931018Y20324195D01*
X16931018Y20324195D02*
X16911971Y20314671D01*
X16911971Y20314671D02*
X16873876Y20314671D01*
X16873876Y20314671D02*
X16854828Y20324195D01*
X17035780Y20333719D02*
X17045304Y20324195D01*
X17045304Y20324195D02*
X17035780Y20314671D01*
X17035780Y20314671D02*
X17026257Y20324195D01*
X17026257Y20324195D02*
X17035780Y20333719D01*
X17035780Y20333719D02*
X17035780Y20314671D01*
X17035780Y20438481D02*
X17045304Y20428957D01*
X17045304Y20428957D02*
X17035780Y20419433D01*
X17035780Y20419433D02*
X17026257Y20428957D01*
X17026257Y20428957D02*
X17035780Y20438481D01*
X17035780Y20438481D02*
X17035780Y20419433D01*
D10*
X15363575Y20006155D02*
X15403575Y19966155D01*
X15403575Y20006155D02*
X15363575Y19966155D01*
D12*
X15702447Y20094671D02*
X15721495Y20094671D01*
X15721495Y20094671D02*
X15740542Y20085147D01*
X15740542Y20085147D02*
X15750066Y20075623D01*
X15750066Y20075623D02*
X15759590Y20056576D01*
X15759590Y20056576D02*
X15769114Y20018481D01*
X15769114Y20018481D02*
X15769114Y19970862D01*
X15769114Y19970862D02*
X15759590Y19932766D01*
X15759590Y19932766D02*
X15750066Y19913719D01*
X15750066Y19913719D02*
X15740542Y19904195D01*
X15740542Y19904195D02*
X15721495Y19894671D01*
X15721495Y19894671D02*
X15702447Y19894671D01*
X15702447Y19894671D02*
X15683399Y19904195D01*
X15683399Y19904195D02*
X15673875Y19913719D01*
X15673875Y19913719D02*
X15664352Y19932766D01*
X15664352Y19932766D02*
X15654828Y19970862D01*
X15654828Y19970862D02*
X15654828Y20018481D01*
X15654828Y20018481D02*
X15664352Y20056576D01*
X15664352Y20056576D02*
X15673875Y20075623D01*
X15673875Y20075623D02*
X15683399Y20085147D01*
X15683399Y20085147D02*
X15702447Y20094671D01*
X15854828Y19913719D02*
X15864352Y19904195D01*
X15864352Y19904195D02*
X15854828Y19894671D01*
X15854828Y19894671D02*
X15845304Y19904195D01*
X15845304Y19904195D02*
X15854828Y19913719D01*
X15854828Y19913719D02*
X15854828Y19894671D01*
X16035780Y20028004D02*
X16035780Y19894671D01*
X15988161Y20104195D02*
X15940542Y19961338D01*
X15940542Y19961338D02*
X16064352Y19961338D01*
X16178637Y20094671D02*
X16197685Y20094671D01*
X16197685Y20094671D02*
X16216733Y20085147D01*
X16216733Y20085147D02*
X16226256Y20075623D01*
X16226256Y20075623D02*
X16235780Y20056576D01*
X16235780Y20056576D02*
X16245304Y20018481D01*
X16245304Y20018481D02*
X16245304Y19970862D01*
X16245304Y19970862D02*
X16235780Y19932766D01*
X16235780Y19932766D02*
X16226256Y19913719D01*
X16226256Y19913719D02*
X16216733Y19904195D01*
X16216733Y19904195D02*
X16197685Y19894671D01*
X16197685Y19894671D02*
X16178637Y19894671D01*
X16178637Y19894671D02*
X16159590Y19904195D01*
X16159590Y19904195D02*
X16150066Y19913719D01*
X16150066Y19913719D02*
X16140542Y19932766D01*
X16140542Y19932766D02*
X16131018Y19970862D01*
X16131018Y19970862D02*
X16131018Y20018481D01*
X16131018Y20018481D02*
X16140542Y20056576D01*
X16140542Y20056576D02*
X16150066Y20075623D01*
X16150066Y20075623D02*
X16159590Y20085147D01*
X16159590Y20085147D02*
X16178637Y20094671D01*
X16369114Y20094671D02*
X16388161Y20094671D01*
X16388161Y20094671D02*
X16407209Y20085147D01*
X16407209Y20085147D02*
X16416733Y20075623D01*
X16416733Y20075623D02*
X16426256Y20056576D01*
X16426256Y20056576D02*
X16435780Y20018481D01*
X16435780Y20018481D02*
X16435780Y19970862D01*
X16435780Y19970862D02*
X16426256Y19932766D01*
X16426256Y19932766D02*
X16416733Y19913719D01*
X16416733Y19913719D02*
X16407209Y19904195D01*
X16407209Y19904195D02*
X16388161Y19894671D01*
X16388161Y19894671D02*
X16369114Y19894671D01*
X16369114Y19894671D02*
X16350066Y19904195D01*
X16350066Y19904195D02*
X16340542Y19913719D01*
X16340542Y19913719D02*
X16331018Y19932766D01*
X16331018Y19932766D02*
X16321495Y19970862D01*
X16321495Y19970862D02*
X16321495Y20018481D01*
X16321495Y20018481D02*
X16331018Y20056576D01*
X16331018Y20056576D02*
X16340542Y20075623D01*
X16340542Y20075623D02*
X16350066Y20085147D01*
X16350066Y20085147D02*
X16369114Y20094671D01*
X16521495Y19894671D02*
X16521495Y20028004D01*
X16521495Y20008957D02*
X16531018Y20018481D01*
X16531018Y20018481D02*
X16550066Y20028004D01*
X16550066Y20028004D02*
X16578637Y20028004D01*
X16578637Y20028004D02*
X16597685Y20018481D01*
X16597685Y20018481D02*
X16607209Y19999433D01*
X16607209Y19999433D02*
X16607209Y19894671D01*
X16607209Y19999433D02*
X16616733Y20018481D01*
X16616733Y20018481D02*
X16635780Y20028004D01*
X16635780Y20028004D02*
X16664352Y20028004D01*
X16664352Y20028004D02*
X16683399Y20018481D01*
X16683399Y20018481D02*
X16692923Y19999433D01*
X16692923Y19999433D02*
X16692923Y19894671D01*
X16788161Y19894671D02*
X16788161Y20028004D01*
X16788161Y20008957D02*
X16797685Y20018481D01*
X16797685Y20018481D02*
X16816733Y20028004D01*
X16816733Y20028004D02*
X16845304Y20028004D01*
X16845304Y20028004D02*
X16864352Y20018481D01*
X16864352Y20018481D02*
X16873876Y19999433D01*
X16873876Y19999433D02*
X16873876Y19894671D01*
X16873876Y19999433D02*
X16883399Y20018481D01*
X16883399Y20018481D02*
X16902447Y20028004D01*
X16902447Y20028004D02*
X16931018Y20028004D01*
X16931018Y20028004D02*
X16950066Y20018481D01*
X16950066Y20018481D02*
X16959590Y19999433D01*
X16959590Y19999433D02*
X16959590Y19894671D01*
X17350066Y20104195D02*
X17178638Y19847052D01*
X17607209Y20094671D02*
X17626257Y20094671D01*
X17626257Y20094671D02*
X17645304Y20085147D01*
X17645304Y20085147D02*
X17654828Y20075623D01*
X17654828Y20075623D02*
X17664352Y20056576D01*
X17664352Y20056576D02*
X17673876Y20018481D01*
X17673876Y20018481D02*
X17673876Y19970862D01*
X17673876Y19970862D02*
X17664352Y19932766D01*
X17664352Y19932766D02*
X17654828Y19913719D01*
X17654828Y19913719D02*
X17645304Y19904195D01*
X17645304Y19904195D02*
X17626257Y19894671D01*
X17626257Y19894671D02*
X17607209Y19894671D01*
X17607209Y19894671D02*
X17588161Y19904195D01*
X17588161Y19904195D02*
X17578638Y19913719D01*
X17578638Y19913719D02*
X17569114Y19932766D01*
X17569114Y19932766D02*
X17559590Y19970862D01*
X17559590Y19970862D02*
X17559590Y20018481D01*
X17559590Y20018481D02*
X17569114Y20056576D01*
X17569114Y20056576D02*
X17578638Y20075623D01*
X17578638Y20075623D02*
X17588161Y20085147D01*
X17588161Y20085147D02*
X17607209Y20094671D01*
X17759590Y19913719D02*
X17769114Y19904195D01*
X17769114Y19904195D02*
X17759590Y19894671D01*
X17759590Y19894671D02*
X17750066Y19904195D01*
X17750066Y19904195D02*
X17759590Y19913719D01*
X17759590Y19913719D02*
X17759590Y19894671D01*
X17892923Y20094671D02*
X17911971Y20094671D01*
X17911971Y20094671D02*
X17931019Y20085147D01*
X17931019Y20085147D02*
X17940542Y20075623D01*
X17940542Y20075623D02*
X17950066Y20056576D01*
X17950066Y20056576D02*
X17959590Y20018481D01*
X17959590Y20018481D02*
X17959590Y19970862D01*
X17959590Y19970862D02*
X17950066Y19932766D01*
X17950066Y19932766D02*
X17940542Y19913719D01*
X17940542Y19913719D02*
X17931019Y19904195D01*
X17931019Y19904195D02*
X17911971Y19894671D01*
X17911971Y19894671D02*
X17892923Y19894671D01*
X17892923Y19894671D02*
X17873876Y19904195D01*
X17873876Y19904195D02*
X17864352Y19913719D01*
X17864352Y19913719D02*
X17854828Y19932766D01*
X17854828Y19932766D02*
X17845304Y19970862D01*
X17845304Y19970862D02*
X17845304Y20018481D01*
X17845304Y20018481D02*
X17854828Y20056576D01*
X17854828Y20056576D02*
X17864352Y20075623D01*
X17864352Y20075623D02*
X17873876Y20085147D01*
X17873876Y20085147D02*
X17892923Y20094671D01*
X18150066Y19894671D02*
X18035781Y19894671D01*
X18092923Y19894671D02*
X18092923Y20094671D01*
X18092923Y20094671D02*
X18073876Y20066100D01*
X18073876Y20066100D02*
X18054828Y20047052D01*
X18054828Y20047052D02*
X18035781Y20037528D01*
X18331019Y20094671D02*
X18235781Y20094671D01*
X18235781Y20094671D02*
X18226257Y19999433D01*
X18226257Y19999433D02*
X18235781Y20008957D01*
X18235781Y20008957D02*
X18254828Y20018481D01*
X18254828Y20018481D02*
X18302447Y20018481D01*
X18302447Y20018481D02*
X18321495Y20008957D01*
X18321495Y20008957D02*
X18331019Y19999433D01*
X18331019Y19999433D02*
X18340542Y19980385D01*
X18340542Y19980385D02*
X18340542Y19932766D01*
X18340542Y19932766D02*
X18331019Y19913719D01*
X18331019Y19913719D02*
X18321495Y19904195D01*
X18321495Y19904195D02*
X18302447Y19894671D01*
X18302447Y19894671D02*
X18254828Y19894671D01*
X18254828Y19894671D02*
X18235781Y19904195D01*
X18235781Y19904195D02*
X18226257Y19913719D01*
X18407209Y20094671D02*
X18540542Y20094671D01*
X18540542Y20094671D02*
X18454828Y19894671D01*
X18607209Y20094671D02*
X18607209Y20056576D01*
X18683400Y20094671D02*
X18683400Y20056576D01*
X18978638Y19818481D02*
X18969114Y19828004D01*
X18969114Y19828004D02*
X18950066Y19856576D01*
X18950066Y19856576D02*
X18940543Y19875623D01*
X18940543Y19875623D02*
X18931019Y19904195D01*
X18931019Y19904195D02*
X18921495Y19951814D01*
X18921495Y19951814D02*
X18921495Y19989909D01*
X18921495Y19989909D02*
X18931019Y20037528D01*
X18931019Y20037528D02*
X18940543Y20066100D01*
X18940543Y20066100D02*
X18950066Y20085147D01*
X18950066Y20085147D02*
X18969114Y20113719D01*
X18969114Y20113719D02*
X18978638Y20123243D01*
X19035781Y20094671D02*
X19159590Y20094671D01*
X19159590Y20094671D02*
X19092923Y20018481D01*
X19092923Y20018481D02*
X19121495Y20018481D01*
X19121495Y20018481D02*
X19140543Y20008957D01*
X19140543Y20008957D02*
X19150066Y19999433D01*
X19150066Y19999433D02*
X19159590Y19980385D01*
X19159590Y19980385D02*
X19159590Y19932766D01*
X19159590Y19932766D02*
X19150066Y19913719D01*
X19150066Y19913719D02*
X19140543Y19904195D01*
X19140543Y19904195D02*
X19121495Y19894671D01*
X19121495Y19894671D02*
X19064352Y19894671D01*
X19064352Y19894671D02*
X19045304Y19904195D01*
X19045304Y19904195D02*
X19035781Y19913719D01*
X19226257Y20094671D02*
X19359590Y20094671D01*
X19359590Y20094671D02*
X19273876Y19894671D01*
X19588162Y19894671D02*
X19588162Y20094671D01*
X19673876Y19894671D02*
X19673876Y19999433D01*
X19673876Y19999433D02*
X19664352Y20018481D01*
X19664352Y20018481D02*
X19645305Y20028004D01*
X19645305Y20028004D02*
X19616733Y20028004D01*
X19616733Y20028004D02*
X19597685Y20018481D01*
X19597685Y20018481D02*
X19588162Y20008957D01*
X19797685Y19894671D02*
X19778638Y19904195D01*
X19778638Y19904195D02*
X19769114Y19913719D01*
X19769114Y19913719D02*
X19759590Y19932766D01*
X19759590Y19932766D02*
X19759590Y19989909D01*
X19759590Y19989909D02*
X19769114Y20008957D01*
X19769114Y20008957D02*
X19778638Y20018481D01*
X19778638Y20018481D02*
X19797685Y20028004D01*
X19797685Y20028004D02*
X19826257Y20028004D01*
X19826257Y20028004D02*
X19845305Y20018481D01*
X19845305Y20018481D02*
X19854828Y20008957D01*
X19854828Y20008957D02*
X19864352Y19989909D01*
X19864352Y19989909D02*
X19864352Y19932766D01*
X19864352Y19932766D02*
X19854828Y19913719D01*
X19854828Y19913719D02*
X19845305Y19904195D01*
X19845305Y19904195D02*
X19826257Y19894671D01*
X19826257Y19894671D02*
X19797685Y19894671D01*
X19978638Y19894671D02*
X19959590Y19904195D01*
X19959590Y19904195D02*
X19950066Y19923243D01*
X19950066Y19923243D02*
X19950066Y20094671D01*
X20131019Y19904195D02*
X20111971Y19894671D01*
X20111971Y19894671D02*
X20073876Y19894671D01*
X20073876Y19894671D02*
X20054828Y19904195D01*
X20054828Y19904195D02*
X20045305Y19923243D01*
X20045305Y19923243D02*
X20045305Y19999433D01*
X20045305Y19999433D02*
X20054828Y20018481D01*
X20054828Y20018481D02*
X20073876Y20028004D01*
X20073876Y20028004D02*
X20111971Y20028004D01*
X20111971Y20028004D02*
X20131019Y20018481D01*
X20131019Y20018481D02*
X20140543Y19999433D01*
X20140543Y19999433D02*
X20140543Y19980385D01*
X20140543Y19980385D02*
X20045305Y19961338D01*
X20216733Y19904195D02*
X20235781Y19894671D01*
X20235781Y19894671D02*
X20273876Y19894671D01*
X20273876Y19894671D02*
X20292924Y19904195D01*
X20292924Y19904195D02*
X20302447Y19923243D01*
X20302447Y19923243D02*
X20302447Y19932766D01*
X20302447Y19932766D02*
X20292924Y19951814D01*
X20292924Y19951814D02*
X20273876Y19961338D01*
X20273876Y19961338D02*
X20245305Y19961338D01*
X20245305Y19961338D02*
X20226257Y19970862D01*
X20226257Y19970862D02*
X20216733Y19989909D01*
X20216733Y19989909D02*
X20216733Y19999433D01*
X20216733Y19999433D02*
X20226257Y20018481D01*
X20226257Y20018481D02*
X20245305Y20028004D01*
X20245305Y20028004D02*
X20273876Y20028004D01*
X20273876Y20028004D02*
X20292924Y20018481D01*
X20369114Y19818481D02*
X20378638Y19828004D01*
X20378638Y19828004D02*
X20397686Y19856576D01*
X20397686Y19856576D02*
X20407209Y19875623D01*
X20407209Y19875623D02*
X20416733Y19904195D01*
X20416733Y19904195D02*
X20426257Y19951814D01*
X20426257Y19951814D02*
X20426257Y19989909D01*
X20426257Y19989909D02*
X20416733Y20037528D01*
X20416733Y20037528D02*
X20407209Y20066100D01*
X20407209Y20066100D02*
X20397686Y20085147D01*
X20397686Y20085147D02*
X20378638Y20113719D01*
X20378638Y20113719D02*
X20369114Y20123243D01*
D10*
X15403575Y19722155D02*
G75*
G02*
X15327375Y19722155I-38100J0D01*
G01*
X15327375Y19722155D02*
G75*
G02*
X15403575Y19722155I38100J0D01*
G01*
D12*
X15702447Y19830671D02*
X15721495Y19830671D01*
X15721495Y19830671D02*
X15740542Y19821147D01*
X15740542Y19821147D02*
X15750066Y19811623D01*
X15750066Y19811623D02*
X15759590Y19792576D01*
X15759590Y19792576D02*
X15769114Y19754481D01*
X15769114Y19754481D02*
X15769114Y19706862D01*
X15769114Y19706862D02*
X15759590Y19668766D01*
X15759590Y19668766D02*
X15750066Y19649719D01*
X15750066Y19649719D02*
X15740542Y19640195D01*
X15740542Y19640195D02*
X15721495Y19630671D01*
X15721495Y19630671D02*
X15702447Y19630671D01*
X15702447Y19630671D02*
X15683399Y19640195D01*
X15683399Y19640195D02*
X15673875Y19649719D01*
X15673875Y19649719D02*
X15664352Y19668766D01*
X15664352Y19668766D02*
X15654828Y19706862D01*
X15654828Y19706862D02*
X15654828Y19754481D01*
X15654828Y19754481D02*
X15664352Y19792576D01*
X15664352Y19792576D02*
X15673875Y19811623D01*
X15673875Y19811623D02*
X15683399Y19821147D01*
X15683399Y19821147D02*
X15702447Y19830671D01*
X15854828Y19649719D02*
X15864352Y19640195D01*
X15864352Y19640195D02*
X15854828Y19630671D01*
X15854828Y19630671D02*
X15845304Y19640195D01*
X15845304Y19640195D02*
X15854828Y19649719D01*
X15854828Y19649719D02*
X15854828Y19630671D01*
X15931018Y19830671D02*
X16064352Y19830671D01*
X16064352Y19830671D02*
X15978637Y19630671D01*
X16226256Y19830671D02*
X16188161Y19830671D01*
X16188161Y19830671D02*
X16169114Y19821147D01*
X16169114Y19821147D02*
X16159590Y19811623D01*
X16159590Y19811623D02*
X16140542Y19783052D01*
X16140542Y19783052D02*
X16131018Y19744957D01*
X16131018Y19744957D02*
X16131018Y19668766D01*
X16131018Y19668766D02*
X16140542Y19649719D01*
X16140542Y19649719D02*
X16150066Y19640195D01*
X16150066Y19640195D02*
X16169114Y19630671D01*
X16169114Y19630671D02*
X16207209Y19630671D01*
X16207209Y19630671D02*
X16226256Y19640195D01*
X16226256Y19640195D02*
X16235780Y19649719D01*
X16235780Y19649719D02*
X16245304Y19668766D01*
X16245304Y19668766D02*
X16245304Y19716385D01*
X16245304Y19716385D02*
X16235780Y19735433D01*
X16235780Y19735433D02*
X16226256Y19744957D01*
X16226256Y19744957D02*
X16207209Y19754481D01*
X16207209Y19754481D02*
X16169114Y19754481D01*
X16169114Y19754481D02*
X16150066Y19744957D01*
X16150066Y19744957D02*
X16140542Y19735433D01*
X16140542Y19735433D02*
X16131018Y19716385D01*
X16321495Y19811623D02*
X16331018Y19821147D01*
X16331018Y19821147D02*
X16350066Y19830671D01*
X16350066Y19830671D02*
X16397685Y19830671D01*
X16397685Y19830671D02*
X16416733Y19821147D01*
X16416733Y19821147D02*
X16426256Y19811623D01*
X16426256Y19811623D02*
X16435780Y19792576D01*
X16435780Y19792576D02*
X16435780Y19773528D01*
X16435780Y19773528D02*
X16426256Y19744957D01*
X16426256Y19744957D02*
X16311971Y19630671D01*
X16311971Y19630671D02*
X16435780Y19630671D01*
X16521495Y19630671D02*
X16521495Y19764004D01*
X16521495Y19744957D02*
X16531018Y19754481D01*
X16531018Y19754481D02*
X16550066Y19764004D01*
X16550066Y19764004D02*
X16578637Y19764004D01*
X16578637Y19764004D02*
X16597685Y19754481D01*
X16597685Y19754481D02*
X16607209Y19735433D01*
X16607209Y19735433D02*
X16607209Y19630671D01*
X16607209Y19735433D02*
X16616733Y19754481D01*
X16616733Y19754481D02*
X16635780Y19764004D01*
X16635780Y19764004D02*
X16664352Y19764004D01*
X16664352Y19764004D02*
X16683399Y19754481D01*
X16683399Y19754481D02*
X16692923Y19735433D01*
X16692923Y19735433D02*
X16692923Y19630671D01*
X16788161Y19630671D02*
X16788161Y19764004D01*
X16788161Y19744957D02*
X16797685Y19754481D01*
X16797685Y19754481D02*
X16816733Y19764004D01*
X16816733Y19764004D02*
X16845304Y19764004D01*
X16845304Y19764004D02*
X16864352Y19754481D01*
X16864352Y19754481D02*
X16873876Y19735433D01*
X16873876Y19735433D02*
X16873876Y19630671D01*
X16873876Y19735433D02*
X16883399Y19754481D01*
X16883399Y19754481D02*
X16902447Y19764004D01*
X16902447Y19764004D02*
X16931018Y19764004D01*
X16931018Y19764004D02*
X16950066Y19754481D01*
X16950066Y19754481D02*
X16959590Y19735433D01*
X16959590Y19735433D02*
X16959590Y19630671D01*
X17350066Y19840195D02*
X17178638Y19583052D01*
X17607209Y19830671D02*
X17626257Y19830671D01*
X17626257Y19830671D02*
X17645304Y19821147D01*
X17645304Y19821147D02*
X17654828Y19811623D01*
X17654828Y19811623D02*
X17664352Y19792576D01*
X17664352Y19792576D02*
X17673876Y19754481D01*
X17673876Y19754481D02*
X17673876Y19706862D01*
X17673876Y19706862D02*
X17664352Y19668766D01*
X17664352Y19668766D02*
X17654828Y19649719D01*
X17654828Y19649719D02*
X17645304Y19640195D01*
X17645304Y19640195D02*
X17626257Y19630671D01*
X17626257Y19630671D02*
X17607209Y19630671D01*
X17607209Y19630671D02*
X17588161Y19640195D01*
X17588161Y19640195D02*
X17578638Y19649719D01*
X17578638Y19649719D02*
X17569114Y19668766D01*
X17569114Y19668766D02*
X17559590Y19706862D01*
X17559590Y19706862D02*
X17559590Y19754481D01*
X17559590Y19754481D02*
X17569114Y19792576D01*
X17569114Y19792576D02*
X17578638Y19811623D01*
X17578638Y19811623D02*
X17588161Y19821147D01*
X17588161Y19821147D02*
X17607209Y19830671D01*
X17759590Y19649719D02*
X17769114Y19640195D01*
X17769114Y19640195D02*
X17759590Y19630671D01*
X17759590Y19630671D02*
X17750066Y19640195D01*
X17750066Y19640195D02*
X17759590Y19649719D01*
X17759590Y19649719D02*
X17759590Y19630671D01*
X17892923Y19830671D02*
X17911971Y19830671D01*
X17911971Y19830671D02*
X17931019Y19821147D01*
X17931019Y19821147D02*
X17940542Y19811623D01*
X17940542Y19811623D02*
X17950066Y19792576D01*
X17950066Y19792576D02*
X17959590Y19754481D01*
X17959590Y19754481D02*
X17959590Y19706862D01*
X17959590Y19706862D02*
X17950066Y19668766D01*
X17950066Y19668766D02*
X17940542Y19649719D01*
X17940542Y19649719D02*
X17931019Y19640195D01*
X17931019Y19640195D02*
X17911971Y19630671D01*
X17911971Y19630671D02*
X17892923Y19630671D01*
X17892923Y19630671D02*
X17873876Y19640195D01*
X17873876Y19640195D02*
X17864352Y19649719D01*
X17864352Y19649719D02*
X17854828Y19668766D01*
X17854828Y19668766D02*
X17845304Y19706862D01*
X17845304Y19706862D02*
X17845304Y19754481D01*
X17845304Y19754481D02*
X17854828Y19792576D01*
X17854828Y19792576D02*
X17864352Y19811623D01*
X17864352Y19811623D02*
X17873876Y19821147D01*
X17873876Y19821147D02*
X17892923Y19830671D01*
X18026257Y19830671D02*
X18150066Y19830671D01*
X18150066Y19830671D02*
X18083400Y19754481D01*
X18083400Y19754481D02*
X18111971Y19754481D01*
X18111971Y19754481D02*
X18131019Y19744957D01*
X18131019Y19744957D02*
X18140542Y19735433D01*
X18140542Y19735433D02*
X18150066Y19716385D01*
X18150066Y19716385D02*
X18150066Y19668766D01*
X18150066Y19668766D02*
X18140542Y19649719D01*
X18140542Y19649719D02*
X18131019Y19640195D01*
X18131019Y19640195D02*
X18111971Y19630671D01*
X18111971Y19630671D02*
X18054828Y19630671D01*
X18054828Y19630671D02*
X18035781Y19640195D01*
X18035781Y19640195D02*
X18026257Y19649719D01*
X18273876Y19830671D02*
X18292923Y19830671D01*
X18292923Y19830671D02*
X18311971Y19821147D01*
X18311971Y19821147D02*
X18321495Y19811623D01*
X18321495Y19811623D02*
X18331019Y19792576D01*
X18331019Y19792576D02*
X18340542Y19754481D01*
X18340542Y19754481D02*
X18340542Y19706862D01*
X18340542Y19706862D02*
X18331019Y19668766D01*
X18331019Y19668766D02*
X18321495Y19649719D01*
X18321495Y19649719D02*
X18311971Y19640195D01*
X18311971Y19640195D02*
X18292923Y19630671D01*
X18292923Y19630671D02*
X18273876Y19630671D01*
X18273876Y19630671D02*
X18254828Y19640195D01*
X18254828Y19640195D02*
X18245304Y19649719D01*
X18245304Y19649719D02*
X18235781Y19668766D01*
X18235781Y19668766D02*
X18226257Y19706862D01*
X18226257Y19706862D02*
X18226257Y19754481D01*
X18226257Y19754481D02*
X18235781Y19792576D01*
X18235781Y19792576D02*
X18245304Y19811623D01*
X18245304Y19811623D02*
X18254828Y19821147D01*
X18254828Y19821147D02*
X18273876Y19830671D01*
X18464352Y19830671D02*
X18483400Y19830671D01*
X18483400Y19830671D02*
X18502447Y19821147D01*
X18502447Y19821147D02*
X18511971Y19811623D01*
X18511971Y19811623D02*
X18521495Y19792576D01*
X18521495Y19792576D02*
X18531019Y19754481D01*
X18531019Y19754481D02*
X18531019Y19706862D01*
X18531019Y19706862D02*
X18521495Y19668766D01*
X18521495Y19668766D02*
X18511971Y19649719D01*
X18511971Y19649719D02*
X18502447Y19640195D01*
X18502447Y19640195D02*
X18483400Y19630671D01*
X18483400Y19630671D02*
X18464352Y19630671D01*
X18464352Y19630671D02*
X18445304Y19640195D01*
X18445304Y19640195D02*
X18435781Y19649719D01*
X18435781Y19649719D02*
X18426257Y19668766D01*
X18426257Y19668766D02*
X18416733Y19706862D01*
X18416733Y19706862D02*
X18416733Y19754481D01*
X18416733Y19754481D02*
X18426257Y19792576D01*
X18426257Y19792576D02*
X18435781Y19811623D01*
X18435781Y19811623D02*
X18445304Y19821147D01*
X18445304Y19821147D02*
X18464352Y19830671D01*
X18607209Y19830671D02*
X18607209Y19792576D01*
X18683400Y19830671D02*
X18683400Y19792576D01*
X18978638Y19554481D02*
X18969114Y19564004D01*
X18969114Y19564004D02*
X18950066Y19592576D01*
X18950066Y19592576D02*
X18940543Y19611623D01*
X18940543Y19611623D02*
X18931019Y19640195D01*
X18931019Y19640195D02*
X18921495Y19687814D01*
X18921495Y19687814D02*
X18921495Y19725909D01*
X18921495Y19725909D02*
X18931019Y19773528D01*
X18931019Y19773528D02*
X18940543Y19802100D01*
X18940543Y19802100D02*
X18950066Y19821147D01*
X18950066Y19821147D02*
X18969114Y19849719D01*
X18969114Y19849719D02*
X18978638Y19859243D01*
X19159590Y19630671D02*
X19045304Y19630671D01*
X19102447Y19630671D02*
X19102447Y19830671D01*
X19102447Y19830671D02*
X19083400Y19802100D01*
X19083400Y19802100D02*
X19064352Y19783052D01*
X19064352Y19783052D02*
X19045304Y19773528D01*
X19283400Y19830671D02*
X19302447Y19830671D01*
X19302447Y19830671D02*
X19321495Y19821147D01*
X19321495Y19821147D02*
X19331019Y19811623D01*
X19331019Y19811623D02*
X19340543Y19792576D01*
X19340543Y19792576D02*
X19350066Y19754481D01*
X19350066Y19754481D02*
X19350066Y19706862D01*
X19350066Y19706862D02*
X19340543Y19668766D01*
X19340543Y19668766D02*
X19331019Y19649719D01*
X19331019Y19649719D02*
X19321495Y19640195D01*
X19321495Y19640195D02*
X19302447Y19630671D01*
X19302447Y19630671D02*
X19283400Y19630671D01*
X19283400Y19630671D02*
X19264352Y19640195D01*
X19264352Y19640195D02*
X19254828Y19649719D01*
X19254828Y19649719D02*
X19245304Y19668766D01*
X19245304Y19668766D02*
X19235781Y19706862D01*
X19235781Y19706862D02*
X19235781Y19754481D01*
X19235781Y19754481D02*
X19245304Y19792576D01*
X19245304Y19792576D02*
X19254828Y19811623D01*
X19254828Y19811623D02*
X19264352Y19821147D01*
X19264352Y19821147D02*
X19283400Y19830671D01*
X19588162Y19630671D02*
X19588162Y19830671D01*
X19673876Y19630671D02*
X19673876Y19735433D01*
X19673876Y19735433D02*
X19664352Y19754481D01*
X19664352Y19754481D02*
X19645305Y19764004D01*
X19645305Y19764004D02*
X19616733Y19764004D01*
X19616733Y19764004D02*
X19597685Y19754481D01*
X19597685Y19754481D02*
X19588162Y19744957D01*
X19797685Y19630671D02*
X19778638Y19640195D01*
X19778638Y19640195D02*
X19769114Y19649719D01*
X19769114Y19649719D02*
X19759590Y19668766D01*
X19759590Y19668766D02*
X19759590Y19725909D01*
X19759590Y19725909D02*
X19769114Y19744957D01*
X19769114Y19744957D02*
X19778638Y19754481D01*
X19778638Y19754481D02*
X19797685Y19764004D01*
X19797685Y19764004D02*
X19826257Y19764004D01*
X19826257Y19764004D02*
X19845305Y19754481D01*
X19845305Y19754481D02*
X19854828Y19744957D01*
X19854828Y19744957D02*
X19864352Y19725909D01*
X19864352Y19725909D02*
X19864352Y19668766D01*
X19864352Y19668766D02*
X19854828Y19649719D01*
X19854828Y19649719D02*
X19845305Y19640195D01*
X19845305Y19640195D02*
X19826257Y19630671D01*
X19826257Y19630671D02*
X19797685Y19630671D01*
X19978638Y19630671D02*
X19959590Y19640195D01*
X19959590Y19640195D02*
X19950066Y19659243D01*
X19950066Y19659243D02*
X19950066Y19830671D01*
X20131019Y19640195D02*
X20111971Y19630671D01*
X20111971Y19630671D02*
X20073876Y19630671D01*
X20073876Y19630671D02*
X20054828Y19640195D01*
X20054828Y19640195D02*
X20045305Y19659243D01*
X20045305Y19659243D02*
X20045305Y19735433D01*
X20045305Y19735433D02*
X20054828Y19754481D01*
X20054828Y19754481D02*
X20073876Y19764004D01*
X20073876Y19764004D02*
X20111971Y19764004D01*
X20111971Y19764004D02*
X20131019Y19754481D01*
X20131019Y19754481D02*
X20140543Y19735433D01*
X20140543Y19735433D02*
X20140543Y19716385D01*
X20140543Y19716385D02*
X20045305Y19697338D01*
X20216733Y19640195D02*
X20235781Y19630671D01*
X20235781Y19630671D02*
X20273876Y19630671D01*
X20273876Y19630671D02*
X20292924Y19640195D01*
X20292924Y19640195D02*
X20302447Y19659243D01*
X20302447Y19659243D02*
X20302447Y19668766D01*
X20302447Y19668766D02*
X20292924Y19687814D01*
X20292924Y19687814D02*
X20273876Y19697338D01*
X20273876Y19697338D02*
X20245305Y19697338D01*
X20245305Y19697338D02*
X20226257Y19706862D01*
X20226257Y19706862D02*
X20216733Y19725909D01*
X20216733Y19725909D02*
X20216733Y19735433D01*
X20216733Y19735433D02*
X20226257Y19754481D01*
X20226257Y19754481D02*
X20245305Y19764004D01*
X20245305Y19764004D02*
X20273876Y19764004D01*
X20273876Y19764004D02*
X20292924Y19754481D01*
X20369114Y19554481D02*
X20378638Y19564004D01*
X20378638Y19564004D02*
X20397686Y19592576D01*
X20397686Y19592576D02*
X20407209Y19611623D01*
X20407209Y19611623D02*
X20416733Y19640195D01*
X20416733Y19640195D02*
X20426257Y19687814D01*
X20426257Y19687814D02*
X20426257Y19725909D01*
X20426257Y19725909D02*
X20416733Y19773528D01*
X20416733Y19773528D02*
X20407209Y19802100D01*
X20407209Y19802100D02*
X20397686Y19821147D01*
X20397686Y19821147D02*
X20378638Y19849719D01*
X20378638Y19849719D02*
X20369114Y19859243D01*
D13*
X15348575Y19513155D02*
X15348575Y19403155D01*
X15293575Y19458155D02*
X15403575Y19458155D01*
D12*
X15769114Y19366671D02*
X15654828Y19366671D01*
X15711971Y19366671D02*
X15711971Y19566671D01*
X15711971Y19566671D02*
X15692923Y19538100D01*
X15692923Y19538100D02*
X15673875Y19519052D01*
X15673875Y19519052D02*
X15654828Y19509528D01*
X15854828Y19385719D02*
X15864352Y19376195D01*
X15864352Y19376195D02*
X15854828Y19366671D01*
X15854828Y19366671D02*
X15845304Y19376195D01*
X15845304Y19376195D02*
X15854828Y19385719D01*
X15854828Y19385719D02*
X15854828Y19366671D01*
X16054828Y19366671D02*
X15940542Y19366671D01*
X15997685Y19366671D02*
X15997685Y19566671D01*
X15997685Y19566671D02*
X15978637Y19538100D01*
X15978637Y19538100D02*
X15959590Y19519052D01*
X15959590Y19519052D02*
X15940542Y19509528D01*
X16178637Y19566671D02*
X16197685Y19566671D01*
X16197685Y19566671D02*
X16216733Y19557147D01*
X16216733Y19557147D02*
X16226256Y19547623D01*
X16226256Y19547623D02*
X16235780Y19528576D01*
X16235780Y19528576D02*
X16245304Y19490481D01*
X16245304Y19490481D02*
X16245304Y19442862D01*
X16245304Y19442862D02*
X16235780Y19404766D01*
X16235780Y19404766D02*
X16226256Y19385719D01*
X16226256Y19385719D02*
X16216733Y19376195D01*
X16216733Y19376195D02*
X16197685Y19366671D01*
X16197685Y19366671D02*
X16178637Y19366671D01*
X16178637Y19366671D02*
X16159590Y19376195D01*
X16159590Y19376195D02*
X16150066Y19385719D01*
X16150066Y19385719D02*
X16140542Y19404766D01*
X16140542Y19404766D02*
X16131018Y19442862D01*
X16131018Y19442862D02*
X16131018Y19490481D01*
X16131018Y19490481D02*
X16140542Y19528576D01*
X16140542Y19528576D02*
X16150066Y19547623D01*
X16150066Y19547623D02*
X16159590Y19557147D01*
X16159590Y19557147D02*
X16178637Y19566671D01*
X16369114Y19566671D02*
X16388161Y19566671D01*
X16388161Y19566671D02*
X16407209Y19557147D01*
X16407209Y19557147D02*
X16416733Y19547623D01*
X16416733Y19547623D02*
X16426256Y19528576D01*
X16426256Y19528576D02*
X16435780Y19490481D01*
X16435780Y19490481D02*
X16435780Y19442862D01*
X16435780Y19442862D02*
X16426256Y19404766D01*
X16426256Y19404766D02*
X16416733Y19385719D01*
X16416733Y19385719D02*
X16407209Y19376195D01*
X16407209Y19376195D02*
X16388161Y19366671D01*
X16388161Y19366671D02*
X16369114Y19366671D01*
X16369114Y19366671D02*
X16350066Y19376195D01*
X16350066Y19376195D02*
X16340542Y19385719D01*
X16340542Y19385719D02*
X16331018Y19404766D01*
X16331018Y19404766D02*
X16321495Y19442862D01*
X16321495Y19442862D02*
X16321495Y19490481D01*
X16321495Y19490481D02*
X16331018Y19528576D01*
X16331018Y19528576D02*
X16340542Y19547623D01*
X16340542Y19547623D02*
X16350066Y19557147D01*
X16350066Y19557147D02*
X16369114Y19566671D01*
X16521495Y19366671D02*
X16521495Y19500004D01*
X16521495Y19480957D02*
X16531018Y19490481D01*
X16531018Y19490481D02*
X16550066Y19500004D01*
X16550066Y19500004D02*
X16578637Y19500004D01*
X16578637Y19500004D02*
X16597685Y19490481D01*
X16597685Y19490481D02*
X16607209Y19471433D01*
X16607209Y19471433D02*
X16607209Y19366671D01*
X16607209Y19471433D02*
X16616733Y19490481D01*
X16616733Y19490481D02*
X16635780Y19500004D01*
X16635780Y19500004D02*
X16664352Y19500004D01*
X16664352Y19500004D02*
X16683399Y19490481D01*
X16683399Y19490481D02*
X16692923Y19471433D01*
X16692923Y19471433D02*
X16692923Y19366671D01*
X16788161Y19366671D02*
X16788161Y19500004D01*
X16788161Y19480957D02*
X16797685Y19490481D01*
X16797685Y19490481D02*
X16816733Y19500004D01*
X16816733Y19500004D02*
X16845304Y19500004D01*
X16845304Y19500004D02*
X16864352Y19490481D01*
X16864352Y19490481D02*
X16873876Y19471433D01*
X16873876Y19471433D02*
X16873876Y19366671D01*
X16873876Y19471433D02*
X16883399Y19490481D01*
X16883399Y19490481D02*
X16902447Y19500004D01*
X16902447Y19500004D02*
X16931018Y19500004D01*
X16931018Y19500004D02*
X16950066Y19490481D01*
X16950066Y19490481D02*
X16959590Y19471433D01*
X16959590Y19471433D02*
X16959590Y19366671D01*
X17350066Y19576195D02*
X17178638Y19319052D01*
X17607209Y19566671D02*
X17626257Y19566671D01*
X17626257Y19566671D02*
X17645304Y19557147D01*
X17645304Y19557147D02*
X17654828Y19547623D01*
X17654828Y19547623D02*
X17664352Y19528576D01*
X17664352Y19528576D02*
X17673876Y19490481D01*
X17673876Y19490481D02*
X17673876Y19442862D01*
X17673876Y19442862D02*
X17664352Y19404766D01*
X17664352Y19404766D02*
X17654828Y19385719D01*
X17654828Y19385719D02*
X17645304Y19376195D01*
X17645304Y19376195D02*
X17626257Y19366671D01*
X17626257Y19366671D02*
X17607209Y19366671D01*
X17607209Y19366671D02*
X17588161Y19376195D01*
X17588161Y19376195D02*
X17578638Y19385719D01*
X17578638Y19385719D02*
X17569114Y19404766D01*
X17569114Y19404766D02*
X17559590Y19442862D01*
X17559590Y19442862D02*
X17559590Y19490481D01*
X17559590Y19490481D02*
X17569114Y19528576D01*
X17569114Y19528576D02*
X17578638Y19547623D01*
X17578638Y19547623D02*
X17588161Y19557147D01*
X17588161Y19557147D02*
X17607209Y19566671D01*
X17759590Y19385719D02*
X17769114Y19376195D01*
X17769114Y19376195D02*
X17759590Y19366671D01*
X17759590Y19366671D02*
X17750066Y19376195D01*
X17750066Y19376195D02*
X17759590Y19385719D01*
X17759590Y19385719D02*
X17759590Y19366671D01*
X17892923Y19566671D02*
X17911971Y19566671D01*
X17911971Y19566671D02*
X17931019Y19557147D01*
X17931019Y19557147D02*
X17940542Y19547623D01*
X17940542Y19547623D02*
X17950066Y19528576D01*
X17950066Y19528576D02*
X17959590Y19490481D01*
X17959590Y19490481D02*
X17959590Y19442862D01*
X17959590Y19442862D02*
X17950066Y19404766D01*
X17950066Y19404766D02*
X17940542Y19385719D01*
X17940542Y19385719D02*
X17931019Y19376195D01*
X17931019Y19376195D02*
X17911971Y19366671D01*
X17911971Y19366671D02*
X17892923Y19366671D01*
X17892923Y19366671D02*
X17873876Y19376195D01*
X17873876Y19376195D02*
X17864352Y19385719D01*
X17864352Y19385719D02*
X17854828Y19404766D01*
X17854828Y19404766D02*
X17845304Y19442862D01*
X17845304Y19442862D02*
X17845304Y19490481D01*
X17845304Y19490481D02*
X17854828Y19528576D01*
X17854828Y19528576D02*
X17864352Y19547623D01*
X17864352Y19547623D02*
X17873876Y19557147D01*
X17873876Y19557147D02*
X17892923Y19566671D01*
X18131019Y19500004D02*
X18131019Y19366671D01*
X18083400Y19576195D02*
X18035781Y19433338D01*
X18035781Y19433338D02*
X18159590Y19433338D01*
X18216733Y19566671D02*
X18340542Y19566671D01*
X18340542Y19566671D02*
X18273876Y19490481D01*
X18273876Y19490481D02*
X18302447Y19490481D01*
X18302447Y19490481D02*
X18321495Y19480957D01*
X18321495Y19480957D02*
X18331019Y19471433D01*
X18331019Y19471433D02*
X18340542Y19452385D01*
X18340542Y19452385D02*
X18340542Y19404766D01*
X18340542Y19404766D02*
X18331019Y19385719D01*
X18331019Y19385719D02*
X18321495Y19376195D01*
X18321495Y19376195D02*
X18302447Y19366671D01*
X18302447Y19366671D02*
X18245304Y19366671D01*
X18245304Y19366671D02*
X18226257Y19376195D01*
X18226257Y19376195D02*
X18216733Y19385719D01*
X18407209Y19566671D02*
X18531019Y19566671D01*
X18531019Y19566671D02*
X18464352Y19490481D01*
X18464352Y19490481D02*
X18492923Y19490481D01*
X18492923Y19490481D02*
X18511971Y19480957D01*
X18511971Y19480957D02*
X18521495Y19471433D01*
X18521495Y19471433D02*
X18531019Y19452385D01*
X18531019Y19452385D02*
X18531019Y19404766D01*
X18531019Y19404766D02*
X18521495Y19385719D01*
X18521495Y19385719D02*
X18511971Y19376195D01*
X18511971Y19376195D02*
X18492923Y19366671D01*
X18492923Y19366671D02*
X18435781Y19366671D01*
X18435781Y19366671D02*
X18416733Y19376195D01*
X18416733Y19376195D02*
X18407209Y19385719D01*
X18607209Y19566671D02*
X18607209Y19528576D01*
X18683400Y19566671D02*
X18683400Y19528576D01*
X18978638Y19290481D02*
X18969114Y19300004D01*
X18969114Y19300004D02*
X18950066Y19328576D01*
X18950066Y19328576D02*
X18940543Y19347623D01*
X18940543Y19347623D02*
X18931019Y19376195D01*
X18931019Y19376195D02*
X18921495Y19423814D01*
X18921495Y19423814D02*
X18921495Y19461909D01*
X18921495Y19461909D02*
X18931019Y19509528D01*
X18931019Y19509528D02*
X18940543Y19538100D01*
X18940543Y19538100D02*
X18950066Y19557147D01*
X18950066Y19557147D02*
X18969114Y19585719D01*
X18969114Y19585719D02*
X18978638Y19595243D01*
X19045304Y19547623D02*
X19054828Y19557147D01*
X19054828Y19557147D02*
X19073876Y19566671D01*
X19073876Y19566671D02*
X19121495Y19566671D01*
X19121495Y19566671D02*
X19140543Y19557147D01*
X19140543Y19557147D02*
X19150066Y19547623D01*
X19150066Y19547623D02*
X19159590Y19528576D01*
X19159590Y19528576D02*
X19159590Y19509528D01*
X19159590Y19509528D02*
X19150066Y19480957D01*
X19150066Y19480957D02*
X19035781Y19366671D01*
X19035781Y19366671D02*
X19159590Y19366671D01*
X19283400Y19566671D02*
X19302447Y19566671D01*
X19302447Y19566671D02*
X19321495Y19557147D01*
X19321495Y19557147D02*
X19331019Y19547623D01*
X19331019Y19547623D02*
X19340543Y19528576D01*
X19340543Y19528576D02*
X19350066Y19490481D01*
X19350066Y19490481D02*
X19350066Y19442862D01*
X19350066Y19442862D02*
X19340543Y19404766D01*
X19340543Y19404766D02*
X19331019Y19385719D01*
X19331019Y19385719D02*
X19321495Y19376195D01*
X19321495Y19376195D02*
X19302447Y19366671D01*
X19302447Y19366671D02*
X19283400Y19366671D01*
X19283400Y19366671D02*
X19264352Y19376195D01*
X19264352Y19376195D02*
X19254828Y19385719D01*
X19254828Y19385719D02*
X19245304Y19404766D01*
X19245304Y19404766D02*
X19235781Y19442862D01*
X19235781Y19442862D02*
X19235781Y19490481D01*
X19235781Y19490481D02*
X19245304Y19528576D01*
X19245304Y19528576D02*
X19254828Y19547623D01*
X19254828Y19547623D02*
X19264352Y19557147D01*
X19264352Y19557147D02*
X19283400Y19566671D01*
X19588162Y19366671D02*
X19588162Y19566671D01*
X19673876Y19366671D02*
X19673876Y19471433D01*
X19673876Y19471433D02*
X19664352Y19490481D01*
X19664352Y19490481D02*
X19645305Y19500004D01*
X19645305Y19500004D02*
X19616733Y19500004D01*
X19616733Y19500004D02*
X19597685Y19490481D01*
X19597685Y19490481D02*
X19588162Y19480957D01*
X19797685Y19366671D02*
X19778638Y19376195D01*
X19778638Y19376195D02*
X19769114Y19385719D01*
X19769114Y19385719D02*
X19759590Y19404766D01*
X19759590Y19404766D02*
X19759590Y19461909D01*
X19759590Y19461909D02*
X19769114Y19480957D01*
X19769114Y19480957D02*
X19778638Y19490481D01*
X19778638Y19490481D02*
X19797685Y19500004D01*
X19797685Y19500004D02*
X19826257Y19500004D01*
X19826257Y19500004D02*
X19845305Y19490481D01*
X19845305Y19490481D02*
X19854828Y19480957D01*
X19854828Y19480957D02*
X19864352Y19461909D01*
X19864352Y19461909D02*
X19864352Y19404766D01*
X19864352Y19404766D02*
X19854828Y19385719D01*
X19854828Y19385719D02*
X19845305Y19376195D01*
X19845305Y19376195D02*
X19826257Y19366671D01*
X19826257Y19366671D02*
X19797685Y19366671D01*
X19978638Y19366671D02*
X19959590Y19376195D01*
X19959590Y19376195D02*
X19950066Y19395243D01*
X19950066Y19395243D02*
X19950066Y19566671D01*
X20131019Y19376195D02*
X20111971Y19366671D01*
X20111971Y19366671D02*
X20073876Y19366671D01*
X20073876Y19366671D02*
X20054828Y19376195D01*
X20054828Y19376195D02*
X20045305Y19395243D01*
X20045305Y19395243D02*
X20045305Y19471433D01*
X20045305Y19471433D02*
X20054828Y19490481D01*
X20054828Y19490481D02*
X20073876Y19500004D01*
X20073876Y19500004D02*
X20111971Y19500004D01*
X20111971Y19500004D02*
X20131019Y19490481D01*
X20131019Y19490481D02*
X20140543Y19471433D01*
X20140543Y19471433D02*
X20140543Y19452385D01*
X20140543Y19452385D02*
X20045305Y19433338D01*
X20216733Y19376195D02*
X20235781Y19366671D01*
X20235781Y19366671D02*
X20273876Y19366671D01*
X20273876Y19366671D02*
X20292924Y19376195D01*
X20292924Y19376195D02*
X20302447Y19395243D01*
X20302447Y19395243D02*
X20302447Y19404766D01*
X20302447Y19404766D02*
X20292924Y19423814D01*
X20292924Y19423814D02*
X20273876Y19433338D01*
X20273876Y19433338D02*
X20245305Y19433338D01*
X20245305Y19433338D02*
X20226257Y19442862D01*
X20226257Y19442862D02*
X20216733Y19461909D01*
X20216733Y19461909D02*
X20216733Y19471433D01*
X20216733Y19471433D02*
X20226257Y19490481D01*
X20226257Y19490481D02*
X20245305Y19500004D01*
X20245305Y19500004D02*
X20273876Y19500004D01*
X20273876Y19500004D02*
X20292924Y19490481D01*
X20369114Y19290481D02*
X20378638Y19300004D01*
X20378638Y19300004D02*
X20397686Y19328576D01*
X20397686Y19328576D02*
X20407209Y19347623D01*
X20407209Y19347623D02*
X20416733Y19376195D01*
X20416733Y19376195D02*
X20426257Y19423814D01*
X20426257Y19423814D02*
X20426257Y19461909D01*
X20426257Y19461909D02*
X20416733Y19509528D01*
X20416733Y19509528D02*
X20407209Y19538100D01*
X20407209Y19538100D02*
X20397686Y19557147D01*
X20397686Y19557147D02*
X20378638Y19585719D01*
X20378638Y19585719D02*
X20369114Y19595243D01*
M02*
