G04 #@! TF.GenerationSoftware,KiCad,Pcbnew,8.0.6*
G04 #@! TF.CreationDate,2024-11-22T01:36:26-05:00*
G04 #@! TF.ProjectId,DDI-parent,4444492d-7061-4726-956e-742e6b696361,rev?*
G04 #@! TF.SameCoordinates,Original*
G04 #@! TF.FileFunction,Soldermask,Bot*
G04 #@! TF.FilePolarity,Negative*
%FSLAX46Y46*%
G04 Gerber Fmt 4.6, Leading zero omitted, Abs format (unit mm)*
G04 Created by KiCad (PCBNEW 8.0.6) date 2024-11-22 01:36:26*
%MOMM*%
%LPD*%
G01*
G04 APERTURE LIST*
G04 Aperture macros list*
%AMRoundRect*
0 Rectangle with rounded corners*
0 $1 Rounding radius*
0 $2 $3 $4 $5 $6 $7 $8 $9 X,Y pos of 4 corners*
0 Add a 4 corners polygon primitive as box body*
4,1,4,$2,$3,$4,$5,$6,$7,$8,$9,$2,$3,0*
0 Add four circle primitives for the rounded corners*
1,1,$1+$1,$2,$3*
1,1,$1+$1,$4,$5*
1,1,$1+$1,$6,$7*
1,1,$1+$1,$8,$9*
0 Add four rect primitives between the rounded corners*
20,1,$1+$1,$2,$3,$4,$5,0*
20,1,$1+$1,$4,$5,$6,$7,0*
20,1,$1+$1,$6,$7,$8,$9,0*
20,1,$1+$1,$8,$9,$2,$3,0*%
%AMFreePoly0*
4,1,19,0.550000,-0.750000,0.000000,-0.750000,0.000000,-0.744911,-0.071157,-0.744911,-0.207708,-0.704816,-0.327430,-0.627875,-0.420627,-0.520320,-0.479746,-0.390866,-0.500000,-0.250000,-0.500000,0.250000,-0.479746,0.390866,-0.420627,0.520320,-0.327430,0.627875,-0.207708,0.704816,-0.071157,0.744911,0.000000,0.744911,0.000000,0.750000,0.550000,0.750000,0.550000,-0.750000,0.550000,-0.750000,
$1*%
%AMFreePoly1*
4,1,19,0.000000,0.744911,0.071157,0.744911,0.207708,0.704816,0.327430,0.627875,0.420627,0.520320,0.479746,0.390866,0.500000,0.250000,0.500000,-0.250000,0.479746,-0.390866,0.420627,-0.520320,0.327430,-0.627875,0.207708,-0.704816,0.071157,-0.744911,0.000000,-0.744911,0.000000,-0.750000,-0.550000,-0.750000,-0.550000,0.750000,0.000000,0.750000,0.000000,0.744911,0.000000,0.744911,
$1*%
G04 Aperture macros list end*
%ADD10C,2.000000*%
%ADD11C,1.524000*%
%ADD12C,4.300000*%
%ADD13FreePoly0,0.000000*%
%ADD14R,1.000000X1.500000*%
%ADD15FreePoly1,0.000000*%
%ADD16RoundRect,0.750000X-0.750000X1.250000X-0.750000X-1.250000X0.750000X-1.250000X0.750000X1.250000X0*%
%ADD17RoundRect,0.750000X1.250000X0.750000X-1.250000X0.750000X-1.250000X-0.750000X1.250000X-0.750000X0*%
%ADD18RoundRect,0.750000X-1.414214X0.353553X0.353553X-1.414214X1.414214X-0.353553X-0.353553X1.414214X0*%
%ADD19RoundRect,0.750000X0.750000X-1.250000X0.750000X1.250000X-0.750000X1.250000X-0.750000X-1.250000X0*%
%ADD20RoundRect,0.750000X-1.250000X-0.750000X1.250000X-0.750000X1.250000X0.750000X-1.250000X0.750000X0*%
G04 APERTURE END LIST*
D10*
X163830566Y210397924D03*
X170330566Y210397924D03*
X163830566Y214897924D03*
X170330566Y214897924D03*
D11*
X167080566Y209947924D03*
X167080566Y215347924D03*
D10*
X204470566Y210397924D03*
X210970566Y210397924D03*
X204470566Y214897924D03*
X210970566Y214897924D03*
D11*
X207720566Y209947924D03*
X207720566Y215347924D03*
D10*
X224790566Y210397924D03*
X231290566Y210397924D03*
X224790566Y214897924D03*
X231290566Y214897924D03*
D11*
X228040566Y209947924D03*
X228040566Y215347924D03*
D10*
X245110566Y210397924D03*
X251610566Y210397924D03*
X245110566Y214897924D03*
X251610566Y214897924D03*
D11*
X248360566Y209947924D03*
X248360566Y215347924D03*
D10*
X184150566Y210397924D03*
X190650566Y210397924D03*
X184150566Y214897924D03*
X190650566Y214897924D03*
D11*
X187400566Y209947924D03*
X187400566Y215347924D03*
D12*
X217894575Y207594893D03*
X217930130Y217661058D03*
D13*
X178292321Y207960794D03*
D14*
X179592321Y207960794D03*
D15*
X180892321Y207960794D03*
D13*
X165510749Y212836549D03*
D14*
X166810749Y212836549D03*
D15*
X168110749Y212836549D03*
D16*
X238205160Y214844562D03*
D17*
X156861251Y211899891D03*
D16*
X193975308Y214401541D03*
X200939873Y214869596D03*
D18*
X160387838Y214191172D03*
D19*
X199787821Y208906616D03*
D16*
X197465371Y214859904D03*
D20*
X156808078Y208423033D03*
D19*
X195195449Y208953928D03*
X235505595Y208920109D03*
D13*
X173309446Y207960794D03*
D14*
X174609446Y207960794D03*
D15*
X175909446Y207960794D03*
D16*
X241898403Y214851086D03*
X234668421Y214359904D03*
D19*
X240580012Y208945230D03*
M02*
